<svg xml:space="preserve" xmlns:xlink="http://www.w3.org/1999/xlink" viewBox="0 0 931.57001 931.57001" xmlns="http://www.w3.org/2000/svg">
	<defs>
		<path id="a" d="M 3,1 A 2,2 0 1 0 3,5 2,2 0 1 0 3,1 Z"/>
		<path id="b" d="M 3,0 A 3,3 0 1 0 3,6 3,3 0 1 0 3,0 Z"/>
		<path id="c" fill="#27213c" d="M 3,1 A 2,2 0 1 0 3,5 2,2 0 1 0 3,1 Z"/>
		<path id="d" fill="#9c3a23" d="M 3,0 A 3,3 0 1 0 3,6 3,3 0 1 0 3,0 Z"/>
		<path id="e" fill="#a07964" d="M 3,0 A 3,3 0 1 0 3,6 3,3 0 1 0 3,0 Z"/>
		<path id="f" fill="#9c3a23" d="M 3,1 A 2,2 0 1 0 3,5 2,2 0 1 0 3,1 Z"/>
		<path id="g" fill="#27213c" d="M 3,0 A 3,3 0 1 0 3,6 3,3 0 1 0 3,0 Z"/>
		<path id="h" fill="#a07964" d="M 3,1 A 2,2 0 1 0 3,5 2,2 0 1 0 3,1 Z"/>
		<path id="i" fill="#a07964" d="M 4.5,14 H 9.6 C 12,14 14,12 14,9.6 V 4.5 C 14,2 12,0 9.5,0 H 4.4 C 2,0 0,2 0,4.4 V 9.5 C 0,12 2,14 4.5,14 Z M 12,4.8 V 9.2 C 12,10.7 10.7,12 9.2,12 H 4.8 C 3.2,12 2,10.8 2,9.2 V 4.8 C 2,3.3 3.3,2 4.8,2 H 9.2 C 10.8,2 12,3.2 12,4.8 Z"/>
		<path id="j" fill="#57352b" d="M 6,1.7 V 4.4 C 6,5.2 5.2,6 4.3,6 H 1.7 C 0.7,6 0,5.3 0,4.3 V 1.7 C 0,0.8 0.8,0 1.7,0 H 4.4 C 5.3,0 6,0.7 6,1.7 Z"/>
	</defs>
	<g fill="#57352b">
		<use xlink:href="#a" transform="translate(152)scale(3.2616667)"/>
		<use xlink:href="#b" transform="translate(171)scale(3.2616667)"/>
		<use xlink:href="#c" transform="translate(228)scale(3.2616667)"/>
		<use xlink:href="#d" transform="translate(266)scale(3.2616667)"/>
		<use xlink:href="#e" transform="translate(285)scale(3.2616667)"/>
		<use xlink:href="#f" transform="translate(342)scale(3.2616667)"/>
		<use xlink:href="#c" transform="translate(380)scale(3.2616667)"/>
		<use xlink:href="#f" transform="translate(418)scale(3.2616667)"/>
		<use xlink:href="#f" transform="translate(456)scale(3.2616667)"/>
		<use xlink:href="#c" transform="translate(494)scale(3.2616667)"/>
		<use xlink:href="#d" transform="translate(551)scale(3.2616667)"/>
		<use xlink:href="#f" transform="translate(570)scale(3.2616667)"/>
		<use xlink:href="#a" transform="translate(627)scale(3.2616667)"/>
		<use xlink:href="#f" transform="translate(665)scale(3.2616667)"/>
		<use xlink:href="#g" transform="translate(684)scale(3.2616667)"/>
		<use xlink:href="#a" transform="translate(760)scale(3.2616667)"/>
		<use xlink:href="#f" transform="translate(152 19)scale(3.2616667)"/>
		<use xlink:href="#f" transform="translate(190 19)scale(3.2616667)"/>
		<use xlink:href="#b" transform="translate(228 19)scale(3.2616667)"/>
		<use xlink:href="#c" transform="translate(323 19)scale(3.2616667)"/>
		<use xlink:href="#a" transform="translate(437 19)scale(3.2616667)"/>
		<use xlink:href="#h" transform="translate(456 19)scale(3.2616667)"/>
		<use xlink:href="#f" transform="translate(475 19)scale(3.2616667)"/>
		<use xlink:href="#c" transform="translate(532 19)scale(3.2616667)"/>
		<use xlink:href="#b" transform="translate(570 19)scale(3.2616667)"/>
		<use xlink:href="#h" transform="translate(589 19)scale(3.2616667)"/>
		<use xlink:href="#b" transform="translate(627 19)scale(3.2616667)"/>
		<use xlink:href="#a" transform="translate(646 19)scale(3.2616667)"/>
		<use xlink:href="#c" transform="translate(665 19)scale(3.2616667)"/>
		<use xlink:href="#b" transform="translate(722 19)scale(3.2616667)"/>
		<use xlink:href="#h" transform="translate(741 19)scale(3.2616667)"/>
		<use xlink:href="#a" transform="translate(760 19)scale(3.2616667)"/>
		<use xlink:href="#e" transform="translate(152 38)scale(3.2616667)"/>
		<use xlink:href="#h" transform="translate(190 38)scale(3.2616667)"/>
		<use xlink:href="#g" transform="translate(209 38)scale(3.2616667)"/>
		<use xlink:href="#g" transform="translate(247 38)scale(3.2616667)"/>
		<use xlink:href="#g" transform="translate(266 38)scale(3.2616667)"/>
		<use xlink:href="#c" transform="translate(399 38)scale(3.2616667)"/>
		<use xlink:href="#d" transform="translate(437 38)scale(3.2616667)"/>
		<use xlink:href="#a" transform="translate(475 38)scale(3.2616667)"/>
		<use xlink:href="#b" transform="translate(494 38)scale(3.2616667)"/>
		<use xlink:href="#h" transform="translate(532 38)scale(3.2616667)"/>
		<use xlink:href="#a" transform="translate(589 38)scale(3.2616667)"/>
		<use xlink:href="#a" transform="translate(703 38)scale(3.2616667)"/>
		<use xlink:href="#a" transform="translate(741 38)scale(3.2616667)"/>
		<use xlink:href="#h" transform="translate(760 38)scale(3.2616667)"/>
		<use xlink:href="#b" transform="translate(190 57)scale(3.2616667)"/>
		<use xlink:href="#c" transform="translate(228 57)scale(3.2616667)"/>
		<use xlink:href="#a" transform="translate(285 57)scale(3.2616667)"/>
		<use xlink:href="#e" transform="translate(380 57)scale(3.2616667)"/>
		<use xlink:href="#h" transform="translate(399 57)scale(3.2616667)"/>
		<use xlink:href="#c" transform="translate(418 57)scale(3.2616667)"/>
		<use xlink:href="#c" transform="translate(475 57)scale(3.2616667)"/>
		<use xlink:href="#a" transform="translate(532 57)scale(3.2616667)"/>
		<use xlink:href="#c" transform="translate(570 57)scale(3.2616667)"/>
		<use xlink:href="#a" transform="translate(589 57)scale(3.2616667)"/>
		<use xlink:href="#c" transform="translate(627 57)scale(3.2616667)"/>
		<use xlink:href="#e" transform="translate(665 57)scale(3.2616667)"/>
		<use xlink:href="#f" transform="translate(684 57)scale(3.2616667)"/>
		<use xlink:href="#c" transform="translate(703 57)scale(3.2616667)"/>
		<use xlink:href="#b" transform="translate(741 57)scale(3.2616667)"/>
		<use xlink:href="#a" transform="translate(209 76)scale(3.2616667)"/>
		<use xlink:href="#a" transform="translate(266 76)scale(3.2616667)"/>
		<use xlink:href="#h" transform="translate(285 76)scale(3.2616667)"/>
		<use xlink:href="#a" transform="translate(323 76)scale(3.2616667)"/>
		<use xlink:href="#e" transform="translate(342 76)scale(3.2616667)"/>
		<use xlink:href="#c" transform="translate(399 76)scale(3.2616667)"/>
		<use xlink:href="#f" transform="translate(418 76)scale(3.2616667)"/>
		<use xlink:href="#a" transform="translate(437 76)scale(3.2616667)"/>
		<use xlink:href="#a" transform="translate(456 76)scale(3.2616667)"/>
		<use xlink:href="#a" transform="translate(475 76)scale(3.2616667)"/>
		<use xlink:href="#f" transform="translate(494 76)scale(3.2616667)"/>
		<use xlink:href="#a" transform="translate(532 76)scale(3.2616667)"/>
		<use xlink:href="#f" transform="translate(570 76)scale(3.2616667)"/>
		<use xlink:href="#c" transform="translate(589 76)scale(3.2616667)"/>
		<use xlink:href="#f" transform="translate(608 76)scale(3.2616667)"/>
		<use xlink:href="#c" transform="translate(627 76)scale(3.2616667)"/>
		<use xlink:href="#h" transform="translate(152 95)scale(3.2616667)"/>
		<use xlink:href="#b" transform="translate(171 95)scale(3.2616667)"/>
		<use xlink:href="#b" transform="translate(209 95)scale(3.2616667)"/>
		<use xlink:href="#h" transform="translate(228 95)scale(3.2616667)"/>
		<use xlink:href="#a" transform="translate(266 95)scale(3.2616667)"/>
		<use xlink:href="#b" transform="translate(323 95)scale(3.2616667)"/>
		<use xlink:href="#g" transform="translate(399 95)scale(3.2616667)"/>
		<use xlink:href="#c" transform="translate(418 95)scale(3.2616667)"/>
		<use xlink:href="#a" transform="translate(494 95)scale(3.2616667)"/>
		<use xlink:href="#c" transform="translate(513 95)scale(3.2616667)"/>
		<use xlink:href="#f" transform="translate(532 95)scale(3.2616667)"/>
		<use xlink:href="#a" transform="translate(551 95)scale(3.2616667)"/>
		<use xlink:href="#h" transform="translate(570 95)scale(3.2616667)"/>
		<use xlink:href="#g" transform="translate(627 95)scale(3.2616667)"/>
		<use xlink:href="#c" transform="translate(684 95)scale(3.2616667)"/>
		<use xlink:href="#a" transform="translate(722 95)scale(3.2616667)"/>
		<use xlink:href="#a" transform="translate(152 114)scale(3.2616667)"/>
		<use xlink:href="#c" transform="translate(190 114)scale(3.2616667)"/>
		<use xlink:href="#b" transform="translate(228 114)scale(3.2616667)"/>
		<use xlink:href="#b" transform="translate(266 114)scale(3.2616667)"/>
		<use xlink:href="#c" transform="translate(304 114)scale(3.2616667)"/>
		<use xlink:href="#h" transform="translate(342 114)scale(3.2616667)"/>
		<use xlink:href="#c" transform="translate(380 114)scale(3.2616667)"/>
		<use xlink:href="#f" transform="translate(418 114)scale(3.2616667)"/>
		<use xlink:href="#a" transform="translate(456 114)scale(3.2616667)"/>
		<use xlink:href="#c" transform="translate(494 114)scale(3.2616667)"/>
		<use xlink:href="#b" transform="translate(532 114)scale(3.2616667)"/>
		<use xlink:href="#b" transform="translate(570 114)scale(3.2616667)"/>
		<use xlink:href="#a" transform="translate(608 114)scale(3.2616667)"/>
		<use xlink:href="#c" transform="translate(646 114)scale(3.2616667)"/>
		<use xlink:href="#h" transform="translate(684 114)scale(3.2616667)"/>
		<use xlink:href="#h" transform="translate(722 114)scale(3.2616667)"/>
		<use xlink:href="#f" transform="translate(760 114)scale(3.2616667)"/>
		<use xlink:href="#f" transform="translate(152 133)scale(3.2616667)"/>
		<use xlink:href="#f" transform="translate(171 133)scale(3.2616667)"/>
		<use xlink:href="#f" transform="translate(190 133)scale(3.2616667)"/>
		<use xlink:href="#e" transform="translate(209 133)scale(3.2616667)"/>
		<use xlink:href="#d" transform="translate(285 133)scale(3.2616667)"/>
		<use xlink:href="#f" transform="translate(304 133)scale(3.2616667)"/>
		<use xlink:href="#b" transform="translate(342 133)scale(3.2616667)"/>
		<use xlink:href="#b" transform="translate(380 133)scale(3.2616667)"/>
		<use xlink:href="#c" transform="translate(418 133)scale(3.2616667)"/>
		<use xlink:href="#h" transform="translate(494 133)scale(3.2616667)"/>
		<use xlink:href="#a" transform="translate(551 133)scale(3.2616667)"/>
		<use xlink:href="#a" transform="translate(608 133)scale(3.2616667)"/>
		<use xlink:href="#g" transform="translate(646 133)scale(3.2616667)"/>
		<use xlink:href="#e" transform="translate(684 133)scale(3.2616667)"/>
		<use xlink:href="#c" transform="translate(722 133)scale(3.2616667)"/>
		<use xlink:href="#a" transform="translate(741 133)scale(3.2616667)"/>
		<use xlink:href="#h" transform="translate(38 152)scale(3.2616667)"/>
		<use xlink:href="#a" transform="translate(57 152)scale(3.2616667)"/>
		<use xlink:href="#b" transform="translate(76 152)scale(3.2616667)"/>
		<use xlink:href="#a" transform="translate(114 152)scale(3.2616667)"/>
		<use xlink:href="#e" transform="translate(152 152)scale(3.2616667)"/>
		<use xlink:href="#h" transform="translate(190 152)scale(3.2616667)"/>
		<use xlink:href="#a" transform="translate(228 152)scale(3.2616667)"/>
		<use xlink:href="#a" transform="translate(266 152)scale(3.2616667)"/>
		<use xlink:href="#a" transform="translate(323 152)scale(3.2616667)"/>
		<use xlink:href="#a" transform="translate(361 152)scale(3.2616667)"/>
		<use xlink:href="#f" transform="translate(418 152)scale(3.2616667)"/>
		<use xlink:href="#a" transform="translate(437 152)scale(3.2616667)"/>
		<use xlink:href="#a" transform="translate(456 152)scale(3.2616667)"/>
		<use xlink:href="#h" transform="translate(475 152)scale(3.2616667)"/>
		<use xlink:href="#c" transform="translate(494 152)scale(3.2616667)"/>
		<use xlink:href="#a" transform="translate(513 152)scale(3.2616667)"/>
		<use xlink:href="#a" transform="translate(532 152)scale(3.2616667)"/>
		<use xlink:href="#e" transform="translate(570 152)scale(3.2616667)"/>
		<use xlink:href="#f" transform="translate(589 152)scale(3.2616667)"/>
		<use xlink:href="#f" transform="translate(608 152)scale(3.2616667)"/>
		<use xlink:href="#c" transform="translate(627 152)scale(3.2616667)"/>
		<use xlink:href="#f" transform="translate(665 152)scale(3.2616667)"/>
		<use xlink:href="#a" transform="translate(722 152)scale(3.2616667)"/>
		<use xlink:href="#a" transform="translate(741 152)scale(3.2616667)"/>
		<use xlink:href="#a" transform="translate(760 152)scale(3.2616667)"/>
		<use xlink:href="#a" transform="translate(779 152)scale(3.2616667)"/>
		<use xlink:href="#h" transform="translate(798 152)scale(3.2616667)"/>
		<use xlink:href="#h" transform="translate(817 152)scale(3.2616667)"/>
		<use xlink:href="#f" transform="translate(874 152)scale(3.2616667)"/>
		<use xlink:href="#c" transform="translate(893 152)scale(3.2616667)"/>
		<use xlink:href="#b" transform="translate(912 152)scale(3.2616667)"/>
		<use xlink:href="#g" transform="translate(38 171)scale(3.2616667)"/>
		<use xlink:href="#f" transform="translate(57 171)scale(3.2616667)"/>
		<use xlink:href="#f" transform="translate(95 171)scale(3.2616667)"/>
		<use xlink:href="#a" transform="translate(133 171)scale(3.2616667)"/>
		<use xlink:href="#h" transform="translate(171 171)scale(3.2616667)"/>
		<use xlink:href="#c" transform="translate(190 171)scale(3.2616667)"/>
		<use xlink:href="#a" transform="translate(209 171)scale(3.2616667)"/>
		<use xlink:href="#a" transform="translate(228 171)scale(3.2616667)"/>
		<use xlink:href="#f" transform="translate(247 171)scale(3.2616667)"/>
		<use xlink:href="#a" transform="translate(266 171)scale(3.2616667)"/>
		<use xlink:href="#g" transform="translate(285 171)scale(3.2616667)"/>
		<use xlink:href="#b" transform="translate(323 171)scale(3.2616667)"/>
		<use xlink:href="#e" transform="translate(342 171)scale(3.2616667)"/>
		<use xlink:href="#a" transform="translate(399 171)scale(3.2616667)"/>
		<use xlink:href="#f" transform="translate(418 171)scale(3.2616667)"/>
		<use xlink:href="#b" transform="translate(494 171)scale(3.2616667)"/>
		<use xlink:href="#f" transform="translate(513 171)scale(3.2616667)"/>
		<use xlink:href="#h" transform="translate(532 171)scale(3.2616667)"/>
		<use xlink:href="#c" transform="translate(551 171)scale(3.2616667)"/>
		<use xlink:href="#d" transform="translate(608 171)scale(3.2616667)"/>
		<use xlink:href="#a" transform="translate(627 171)scale(3.2616667)"/>
		<use xlink:href="#c" transform="translate(646 171)scale(3.2616667)"/>
		<use xlink:href="#b" transform="translate(722 171)scale(3.2616667)"/>
		<use xlink:href="#a" transform="translate(741 171)scale(3.2616667)"/>
		<use xlink:href="#d" transform="translate(817 171)scale(3.2616667)"/>
		<use xlink:href="#e" transform="translate(874 171)scale(3.2616667)"/>
		<use xlink:href="#a" transform="translate(893 171)scale(3.2616667)"/>
		<use xlink:href="#a" transform="translate(114 190)scale(3.2616667)"/>
		<use xlink:href="#g" transform="translate(171 190)scale(3.2616667)"/>
		<use xlink:href="#b" transform="translate(209 190)scale(3.2616667)"/>
		<use xlink:href="#c" transform="translate(228 190)scale(3.2616667)"/>
		<use xlink:href="#c" transform="translate(266 190)scale(3.2616667)"/>
		<use xlink:href="#f" transform="translate(304 190)scale(3.2616667)"/>
		<use xlink:href="#f" transform="translate(361 190)scale(3.2616667)"/>
		<use xlink:href="#a" transform="translate(380 190)scale(3.2616667)"/>
		<use xlink:href="#a" transform="translate(399 190)scale(3.2616667)"/>
		<use xlink:href="#f" transform="translate(456 190)scale(3.2616667)"/>
		<use xlink:href="#e" transform="translate(475 190)scale(3.2616667)"/>
		<use xlink:href="#b" transform="translate(513 190)scale(3.2616667)"/>
		<use xlink:href="#c" transform="translate(551 190)scale(3.2616667)"/>
		<use xlink:href="#a" transform="translate(570 190)scale(3.2616667)"/>
		<use xlink:href="#a" transform="translate(589 190)scale(3.2616667)"/>
		<use xlink:href="#a" transform="translate(627 190)scale(3.2616667)"/>
		<use xlink:href="#c" transform="translate(646 190)scale(3.2616667)"/>
		<use xlink:href="#b" transform="translate(665 190)scale(3.2616667)"/>
		<use xlink:href="#a" transform="translate(836 190)scale(3.2616667)"/>
		<use xlink:href="#c" transform="translate(855 190)scale(3.2616667)"/>
		<use xlink:href="#a" transform="translate(893 190)scale(3.2616667)"/>
		<use xlink:href="#a" transform="translate(0 209)scale(3.2616667)"/>
		<use xlink:href="#c" transform="translate(19 209)scale(3.2616667)"/>
		<use xlink:href="#f" transform="translate(76 209)scale(3.2616667)"/>
		<use xlink:href="#c" transform="translate(133 209)scale(3.2616667)"/>
		<use xlink:href="#b" transform="translate(152 209)scale(3.2616667)"/>
		<use xlink:href="#a" transform="translate(247 209)scale(3.2616667)"/>
		<use xlink:href="#a" transform="translate(266 209)scale(3.2616667)"/>
		<use xlink:href="#b" transform="translate(285 209)scale(3.2616667)"/>
		<use xlink:href="#a" transform="translate(342 209)scale(3.2616667)"/>
		<use xlink:href="#h" transform="translate(361 209)scale(3.2616667)"/>
		<use xlink:href="#f" transform="translate(380 209)scale(3.2616667)"/>
		<use xlink:href="#f" transform="translate(399 209)scale(3.2616667)"/>
		<use xlink:href="#a" transform="translate(437 209)scale(3.2616667)"/>
		<use xlink:href="#a" transform="translate(456 209)scale(3.2616667)"/>
		<use xlink:href="#a" transform="translate(494 209)scale(3.2616667)"/>
		<use xlink:href="#b" transform="translate(532 209)scale(3.2616667)"/>
		<use xlink:href="#h" transform="translate(551 209)scale(3.2616667)"/>
		<use xlink:href="#c" transform="translate(589 209)scale(3.2616667)"/>
		<use xlink:href="#h" transform="translate(608 209)scale(3.2616667)"/>
		<use xlink:href="#a" transform="translate(627 209)scale(3.2616667)"/>
		<use xlink:href="#a" transform="translate(646 209)scale(3.2616667)"/>
		<use xlink:href="#b" transform="translate(684 209)scale(3.2616667)"/>
		<use xlink:href="#b" transform="translate(703 209)scale(3.2616667)"/>
		<use xlink:href="#b" transform="translate(836 209)scale(3.2616667)"/>
		<use xlink:href="#a" transform="translate(855 209)scale(3.2616667)"/>
		<use xlink:href="#h" transform="translate(874 209)scale(3.2616667)"/>
		<use xlink:href="#c" transform="translate(893 209)scale(3.2616667)"/>
		<use xlink:href="#f" transform="translate(0 228)scale(3.2616667)"/>
		<use xlink:href="#a" transform="translate(19 228)scale(3.2616667)"/>
		<use xlink:href="#e" transform="translate(57 228)scale(3.2616667)"/>
		<use xlink:href="#a" transform="translate(76 228)scale(3.2616667)"/>
		<use xlink:href="#h" transform="translate(95 228)scale(3.2616667)"/>
		<use xlink:href="#c" transform="translate(114 228)scale(3.2616667)"/>
		<use xlink:href="#f" transform="translate(133 228)scale(3.2616667)"/>
		<use xlink:href="#a" transform="translate(171 228)scale(3.2616667)"/>
		<use xlink:href="#b" transform="translate(228 228)scale(3.2616667)"/>
		<use xlink:href="#h" transform="translate(247 228)scale(3.2616667)"/>
		<use xlink:href="#a" transform="translate(266 228)scale(3.2616667)"/>
		<use xlink:href="#f" transform="translate(342 228)scale(3.2616667)"/>
		<use xlink:href="#b" transform="translate(380 228)scale(3.2616667)"/>
		<use xlink:href="#b" transform="translate(437 228)scale(3.2616667)"/>
		<use xlink:href="#f" transform="translate(456 228)scale(3.2616667)"/>
		<use xlink:href="#a" transform="translate(513 228)scale(3.2616667)"/>
		<use xlink:href="#g" transform="translate(570 228)scale(3.2616667)"/>
		<use xlink:href="#c" transform="translate(589 228)scale(3.2616667)"/>
		<use xlink:href="#a" transform="translate(627 228)scale(3.2616667)"/>
		<use xlink:href="#f" transform="translate(646 228)scale(3.2616667)"/>
		<use xlink:href="#b" transform="translate(665 228)scale(3.2616667)"/>
		<use xlink:href="#a" transform="translate(722 228)scale(3.2616667)"/>
		<use xlink:href="#f" transform="translate(741 228)scale(3.2616667)"/>
		<use xlink:href="#a" transform="translate(760 228)scale(3.2616667)"/>
		<use xlink:href="#f" transform="translate(779 228)scale(3.2616667)"/>
		<use xlink:href="#a" transform="translate(855 228)scale(3.2616667)"/>
		<use xlink:href="#a" transform="translate(874 228)scale(3.2616667)"/>
		<use xlink:href="#b" transform="translate(0 247)scale(3.2616667)"/>
		<use xlink:href="#a" transform="translate(76 247)scale(3.2616667)"/>
		<use xlink:href="#b" transform="translate(133 247)scale(3.2616667)"/>
		<use xlink:href="#b" transform="translate(152 247)scale(3.2616667)"/>
		<use xlink:href="#f" transform="translate(190 247)scale(3.2616667)"/>
		<use xlink:href="#a" transform="translate(247 247)scale(3.2616667)"/>
		<use xlink:href="#a" transform="translate(304 247)scale(3.2616667)"/>
		<use xlink:href="#b" transform="translate(342 247)scale(3.2616667)"/>
		<use xlink:href="#a" transform="translate(399 247)scale(3.2616667)"/>
		<use xlink:href="#a" transform="translate(456 247)scale(3.2616667)"/>
		<use xlink:href="#h" transform="translate(475 247)scale(3.2616667)"/>
		<use xlink:href="#f" transform="translate(494 247)scale(3.2616667)"/>
		<use xlink:href="#c" transform="translate(513 247)scale(3.2616667)"/>
		<use xlink:href="#a" transform="translate(551 247)scale(3.2616667)"/>
		<use xlink:href="#d" transform="translate(589 247)scale(3.2616667)"/>
		<use xlink:href="#a" transform="translate(608 247)scale(3.2616667)"/>
		<use xlink:href="#h" transform="translate(627 247)scale(3.2616667)"/>
		<use xlink:href="#f" transform="translate(646 247)scale(3.2616667)"/>
		<use xlink:href="#b" transform="translate(703 247)scale(3.2616667)"/>
		<use xlink:href="#a" transform="translate(722 247)scale(3.2616667)"/>
		<use xlink:href="#a" transform="translate(741 247)scale(3.2616667)"/>
		<use xlink:href="#b" transform="translate(779 247)scale(3.2616667)"/>
		<use xlink:href="#e" transform="translate(855 247)scale(3.2616667)"/>
		<use xlink:href="#c" transform="translate(38 266)scale(3.2616667)"/>
		<use xlink:href="#a" transform="translate(76 266)scale(3.2616667)"/>
		<use xlink:href="#a" transform="translate(95 266)scale(3.2616667)"/>
		<use xlink:href="#b" transform="translate(114 266)scale(3.2616667)"/>
		<use xlink:href="#c" transform="translate(171 266)scale(3.2616667)"/>
		<use xlink:href="#f" transform="translate(190 266)scale(3.2616667)"/>
		<use xlink:href="#d" transform="translate(228 266)scale(3.2616667)"/>
		<use xlink:href="#h" transform="translate(247 266)scale(3.2616667)"/>
		<use xlink:href="#f" transform="translate(266 266)scale(3.2616667)"/>
		<use xlink:href="#f" transform="translate(380 266)scale(3.2616667)"/>
		<use xlink:href="#a" transform="translate(399 266)scale(3.2616667)"/>
		<use xlink:href="#a" transform="translate(437 266)scale(3.2616667)"/>
		<use xlink:href="#a" transform="translate(456 266)scale(3.2616667)"/>
		<use xlink:href="#a" transform="translate(513 266)scale(3.2616667)"/>
		<use xlink:href="#h" transform="translate(570 266)scale(3.2616667)"/>
		<use xlink:href="#h" transform="translate(627 266)scale(3.2616667)"/>
		<use xlink:href="#c" transform="translate(646 266)scale(3.2616667)"/>
		<use xlink:href="#d" transform="translate(665 266)scale(3.2616667)"/>
		<use xlink:href="#a" transform="translate(741 266)scale(3.2616667)"/>
		<use xlink:href="#a" transform="translate(760 266)scale(3.2616667)"/>
		<use xlink:href="#a" transform="translate(817 266)scale(3.2616667)"/>
		<use xlink:href="#b" transform="translate(893 266)scale(3.2616667)"/>
		<use xlink:href="#c" transform="translate(912 266)scale(3.2616667)"/>
		<use xlink:href="#h" transform="translate(38 285)scale(3.2616667)"/>
		<use xlink:href="#b" transform="translate(76 285)scale(3.2616667)"/>
		<use xlink:href="#h" transform="translate(171 285)scale(3.2616667)"/>
		<use xlink:href="#a" transform="translate(190 285)scale(3.2616667)"/>
		<use xlink:href="#a" transform="translate(247 285)scale(3.2616667)"/>
		<use xlink:href="#f" transform="translate(266 285)scale(3.2616667)"/>
		<use xlink:href="#a" transform="translate(323 285)scale(3.2616667)"/>
		<use xlink:href="#c" transform="translate(342 285)scale(3.2616667)"/>
		<use xlink:href="#a" transform="translate(361 285)scale(3.2616667)"/>
		<use xlink:href="#a" transform="translate(380 285)scale(3.2616667)"/>
		<use xlink:href="#c" transform="translate(418 285)scale(3.2616667)"/>
		<use xlink:href="#a" transform="translate(437 285)scale(3.2616667)"/>
		<use xlink:href="#h" transform="translate(456 285)scale(3.2616667)"/>
		<use xlink:href="#g" transform="translate(494 285)scale(3.2616667)"/>
		<use xlink:href="#a" transform="translate(513 285)scale(3.2616667)"/>
		<use xlink:href="#g" transform="translate(589 285)scale(3.2616667)"/>
		<use xlink:href="#h" transform="translate(608 285)scale(3.2616667)"/>
		<use xlink:href="#f" transform="translate(627 285)scale(3.2616667)"/>
		<use xlink:href="#h" transform="translate(741 285)scale(3.2616667)"/>
		<use xlink:href="#a" transform="translate(760 285)scale(3.2616667)"/>
		<use xlink:href="#e" transform="translate(779 285)scale(3.2616667)"/>
		<use xlink:href="#b" transform="translate(836 285)scale(3.2616667)"/>
		<use xlink:href="#b" transform="translate(855 285)scale(3.2616667)"/>
		<use xlink:href="#d" transform="translate(912 285)scale(3.2616667)"/>
		<use xlink:href="#b" transform="translate(19 304)scale(3.2616667)"/>
		<use xlink:href="#f" transform="translate(38 304)scale(3.2616667)"/>
		<use xlink:href="#g" transform="translate(95 304)scale(3.2616667)"/>
		<use xlink:href="#a" transform="translate(114 304)scale(3.2616667)"/>
		<use xlink:href="#h" transform="translate(133 304)scale(3.2616667)"/>
		<use xlink:href="#f" transform="translate(152 304)scale(3.2616667)"/>
		<use xlink:href="#a" transform="translate(171 304)scale(3.2616667)"/>
		<use xlink:href="#f" transform="translate(209 304)scale(3.2616667)"/>
		<use xlink:href="#h" transform="translate(228 304)scale(3.2616667)"/>
		<use xlink:href="#a" transform="translate(247 304)scale(3.2616667)"/>
		<use xlink:href="#h" transform="translate(323 304)scale(3.2616667)"/>
		<use xlink:href="#a" transform="translate(361 304)scale(3.2616667)"/>
		<use xlink:href="#f" transform="translate(380 304)scale(3.2616667)"/>
		<use xlink:href="#a" transform="translate(399 304)scale(3.2616667)"/>
		<use xlink:href="#h" transform="translate(418 304)scale(3.2616667)"/>
		<use xlink:href="#a" transform="translate(475 304)scale(3.2616667)"/>
		<use xlink:href="#a" transform="translate(513 304)scale(3.2616667)"/>
		<use xlink:href="#c" transform="translate(551 304)scale(3.2616667)"/>
		<use xlink:href="#f" transform="translate(665 304)scale(3.2616667)"/>
		<use xlink:href="#f" transform="translate(684 304)scale(3.2616667)"/>
		<use xlink:href="#e" transform="translate(703 304)scale(3.2616667)"/>
		<use xlink:href="#d" transform="translate(741 304)scale(3.2616667)"/>
		<use xlink:href="#c" transform="translate(817 304)scale(3.2616667)"/>
		<use xlink:href="#f" transform="translate(893 304)scale(3.2616667)"/>
		<use xlink:href="#c" transform="translate(0 323)scale(3.2616667)"/>
		<use xlink:href="#f" transform="translate(38 323)scale(3.2616667)"/>
		<use xlink:href="#b" transform="translate(57 323)scale(3.2616667)"/>
		<use xlink:href="#e" transform="translate(190 323)scale(3.2616667)"/>
		<use xlink:href="#c" transform="translate(209 323)scale(3.2616667)"/>
		<use xlink:href="#c" transform="translate(247 323)scale(3.2616667)"/>
		<use xlink:href="#a" transform="translate(285 323)scale(3.2616667)"/>
		<use xlink:href="#h" transform="translate(323 323)scale(3.2616667)"/>
		<use xlink:href="#a" transform="translate(361 323)scale(3.2616667)"/>
		<use xlink:href="#d" transform="translate(399 323)scale(3.2616667)"/>
		<use xlink:href="#a" transform="translate(418 323)scale(3.2616667)"/>
		<use xlink:href="#a" transform="translate(437 323)scale(3.2616667)"/>
		<use xlink:href="#f" transform="translate(494 323)scale(3.2616667)"/>
		<use xlink:href="#a" transform="translate(513 323)scale(3.2616667)"/>
		<use xlink:href="#b" transform="translate(551 323)scale(3.2616667)"/>
		<use xlink:href="#e" transform="translate(608 323)scale(3.2616667)"/>
		<use xlink:href="#b" transform="translate(627 323)scale(3.2616667)"/>
		<use xlink:href="#c" transform="translate(665 323)scale(3.2616667)"/>
		<use xlink:href="#c" transform="translate(684 323)scale(3.2616667)"/>
		<use xlink:href="#h" transform="translate(760 323)scale(3.2616667)"/>
		<use xlink:href="#b" transform="translate(779 323)scale(3.2616667)"/>
		<use xlink:href="#f" transform="translate(817 323)scale(3.2616667)"/>
		<use xlink:href="#a" transform="translate(836 323)scale(3.2616667)"/>
		<use xlink:href="#c" transform="translate(855 323)scale(3.2616667)"/>
		<use xlink:href="#b" transform="translate(874 323)scale(3.2616667)"/>
		<use xlink:href="#c" transform="translate(0 342)scale(3.2616667)"/>
		<use xlink:href="#h" transform="translate(19 342)scale(3.2616667)"/>
		<use xlink:href="#h" transform="translate(38 342)scale(3.2616667)"/>
		<use xlink:href="#a" transform="translate(76 342)scale(3.2616667)"/>
		<use xlink:href="#a" transform="translate(114 342)scale(3.2616667)"/>
		<use xlink:href="#b" transform="translate(209 342)scale(3.2616667)"/>
		<use xlink:href="#a" transform="translate(228 342)scale(3.2616667)"/>
		<use xlink:href="#f" transform="translate(247 342)scale(3.2616667)"/>
		<use xlink:href="#a" transform="translate(266 342)scale(3.2616667)"/>
		<use xlink:href="#f" transform="translate(304 342)scale(3.2616667)"/>
		<use xlink:href="#a" transform="translate(323 342)scale(3.2616667)"/>
		<use xlink:href="#e" transform="translate(361 342)scale(3.2616667)"/>
		<use xlink:href="#b" transform="translate(380 342)scale(3.2616667)"/>
		<use xlink:href="#h" transform="translate(437 342)scale(3.2616667)"/>
		<use xlink:href="#h" transform="translate(494 342)scale(3.2616667)"/>
		<use xlink:href="#f" transform="translate(513 342)scale(3.2616667)"/>
		<use xlink:href="#b" transform="translate(532 342)scale(3.2616667)"/>
		<use xlink:href="#b" transform="translate(665 342)scale(3.2616667)"/>
		<use xlink:href="#c" transform="translate(703 342)scale(3.2616667)"/>
		<use xlink:href="#d" transform="translate(741 342)scale(3.2616667)"/>
		<use xlink:href="#h" transform="translate(760 342)scale(3.2616667)"/>
		<use xlink:href="#c" transform="translate(798 342)scale(3.2616667)"/>
		<use xlink:href="#c" transform="translate(817 342)scale(3.2616667)"/>
		<use xlink:href="#a" transform="translate(836 342)scale(3.2616667)"/>
		<use xlink:href="#f" transform="translate(855 342)scale(3.2616667)"/>
		<use xlink:href="#b" transform="translate(893 342)scale(3.2616667)"/>
		<use xlink:href="#b" transform="translate(912 342)scale(3.2616667)"/>
		<use xlink:href="#c" transform="translate(0 361)scale(3.2616667)"/>
		<use xlink:href="#c" transform="translate(95 361)scale(3.2616667)"/>
		<use xlink:href="#a" transform="translate(152 361)scale(3.2616667)"/>
		<use xlink:href="#a" transform="translate(190 361)scale(3.2616667)"/>
		<use xlink:href="#c" transform="translate(247 361)scale(3.2616667)"/>
		<use xlink:href="#c" transform="translate(266 361)scale(3.2616667)"/>
		<use xlink:href="#f" transform="translate(285 361)scale(3.2616667)"/>
		<use xlink:href="#a" transform="translate(304 361)scale(3.2616667)"/>
		<use xlink:href="#a" transform="translate(342 361)scale(3.2616667)"/>
		<use xlink:href="#g" transform="translate(399 361)scale(3.2616667)"/>
		<use xlink:href="#c" transform="translate(418 361)scale(3.2616667)"/>
		<use xlink:href="#f" transform="translate(437 361)scale(3.2616667)"/>
		<use xlink:href="#c" transform="translate(456 361)scale(3.2616667)"/>
		<use xlink:href="#h" transform="translate(475 361)scale(3.2616667)"/>
		<use xlink:href="#c" transform="translate(494 361)scale(3.2616667)"/>
		<use xlink:href="#h" transform="translate(513 361)scale(3.2616667)"/>
		<use xlink:href="#d" transform="translate(551 361)scale(3.2616667)"/>
		<use xlink:href="#a" transform="translate(570 361)scale(3.2616667)"/>
		<use xlink:href="#a" transform="translate(589 361)scale(3.2616667)"/>
		<use xlink:href="#b" transform="translate(627 361)scale(3.2616667)"/>
		<use xlink:href="#g" transform="translate(646 361)scale(3.2616667)"/>
		<use xlink:href="#f" transform="translate(684 361)scale(3.2616667)"/>
		<use xlink:href="#h" transform="translate(703 361)scale(3.2616667)"/>
		<use xlink:href="#a" transform="translate(722 361)scale(3.2616667)"/>
		<use xlink:href="#f" transform="translate(760 361)scale(3.2616667)"/>
		<use xlink:href="#h" transform="translate(798 361)scale(3.2616667)"/>
		<use xlink:href="#a" transform="translate(817 361)scale(3.2616667)"/>
		<use xlink:href="#a" transform="translate(836 361)scale(3.2616667)"/>
		<use xlink:href="#h" transform="translate(0 380)scale(3.2616667)"/>
		<use xlink:href="#d" transform="translate(19 380)scale(3.2616667)"/>
		<use xlink:href="#c" transform="translate(76 380)scale(3.2616667)"/>
		<use xlink:href="#b" transform="translate(114 380)scale(3.2616667)"/>
		<use xlink:href="#h" transform="translate(133 380)scale(3.2616667)"/>
		<use xlink:href="#f" transform="translate(152 380)scale(3.2616667)"/>
		<use xlink:href="#g" transform="translate(190 380)scale(3.2616667)"/>
		<use xlink:href="#d" transform="translate(247 380)scale(3.2616667)"/>
		<use xlink:href="#a" transform="translate(266 380)scale(3.2616667)"/>
		<use xlink:href="#c" transform="translate(285 380)scale(3.2616667)"/>
		<use xlink:href="#a" transform="translate(323 380)scale(3.2616667)"/>
		<use xlink:href="#c" transform="translate(342 380)scale(3.2616667)"/>
		<use xlink:href="#b" transform="translate(361 380)scale(3.2616667)"/>
		<use xlink:href="#c" transform="translate(418 380)scale(3.2616667)"/>
		<use xlink:href="#g" transform="translate(475 380)scale(3.2616667)"/>
		<use xlink:href="#f" transform="translate(513 380)scale(3.2616667)"/>
		<use xlink:href="#a" transform="translate(589 380)scale(3.2616667)"/>
		<use xlink:href="#g" transform="translate(608 380)scale(3.2616667)"/>
		<use xlink:href="#b" transform="translate(665 380)scale(3.2616667)"/>
		<use xlink:href="#a" transform="translate(684 380)scale(3.2616667)"/>
		<use xlink:href="#c" transform="translate(703 380)scale(3.2616667)"/>
		<use xlink:href="#a" transform="translate(722 380)scale(3.2616667)"/>
		<use xlink:href="#a" transform="translate(741 380)scale(3.2616667)"/>
		<use xlink:href="#h" transform="translate(760 380)scale(3.2616667)"/>
		<use xlink:href="#f" transform="translate(798 380)scale(3.2616667)"/>
		<use xlink:href="#f" transform="translate(817 380)scale(3.2616667)"/>
		<use xlink:href="#b" transform="translate(874 380)scale(3.2616667)"/>
		<use xlink:href="#e" transform="translate(893 380)scale(3.2616667)"/>
		<use xlink:href="#b" transform="translate(0 399)scale(3.2616667)"/>
		<use xlink:href="#a" transform="translate(38 399)scale(3.2616667)"/>
		<use xlink:href="#h" transform="translate(76 399)scale(3.2616667)"/>
		<use xlink:href="#a" transform="translate(95 399)scale(3.2616667)"/>
		<use xlink:href="#e" transform="translate(266 399)scale(3.2616667)"/>
		<use xlink:href="#c" transform="translate(285 399)scale(3.2616667)"/>
		<use xlink:href="#f" transform="translate(304 399)scale(3.2616667)"/>
		<use xlink:href="#h" transform="translate(323 399)scale(3.2616667)"/>
		<use xlink:href="#e" transform="translate(399 399)scale(3.2616667)"/>
		<use xlink:href="#a" transform="translate(418 399)scale(3.2616667)"/>
		<use xlink:href="#a" transform="translate(437 399)scale(3.2616667)"/>
		<use xlink:href="#a" transform="translate(494 399)scale(3.2616667)"/>
		<use xlink:href="#a" transform="translate(513 399)scale(3.2616667)"/>
		<use xlink:href="#b" transform="translate(532 399)scale(3.2616667)"/>
		<use xlink:href="#d" transform="translate(570 399)scale(3.2616667)"/>
		<use xlink:href="#a" transform="translate(589 399)scale(3.2616667)"/>
		<use xlink:href="#b" transform="translate(684 399)scale(3.2616667)"/>
		<use xlink:href="#a" transform="translate(741 399)scale(3.2616667)"/>
		<use xlink:href="#a" transform="translate(760 399)scale(3.2616667)"/>
		<use xlink:href="#a" transform="translate(779 399)scale(3.2616667)"/>
		<use xlink:href="#a" transform="translate(798 399)scale(3.2616667)"/>
		<use xlink:href="#b" transform="translate(19 418)scale(3.2616667)"/>
		<use xlink:href="#c" transform="translate(38 418)scale(3.2616667)"/>
		<use xlink:href="#a" transform="translate(76 418)scale(3.2616667)"/>
		<use xlink:href="#a" transform="translate(95 418)scale(3.2616667)"/>
		<use xlink:href="#c" transform="translate(114 418)scale(3.2616667)"/>
		<use xlink:href="#a" transform="translate(133 418)scale(3.2616667)"/>
		<use xlink:href="#h" transform="translate(152 418)scale(3.2616667)"/>
		<use xlink:href="#c" transform="translate(190 418)scale(3.2616667)"/>
		<use xlink:href="#h" transform="translate(323 418)scale(3.2616667)"/>
		<use xlink:href="#f" transform="translate(342 418)scale(3.2616667)"/>
		<use xlink:href="#h" transform="translate(361 418)scale(3.2616667)"/>
		<use xlink:href="#a" transform="translate(380 418)scale(3.2616667)"/>
		<use xlink:href="#a" transform="translate(418 418)scale(3.2616667)"/>
		<use xlink:href="#h" transform="translate(437 418)scale(3.2616667)"/>
		<use xlink:href="#a" transform="translate(456 418)scale(3.2616667)"/>
		<use xlink:href="#h" transform="translate(475 418)scale(3.2616667)"/>
		<use xlink:href="#a" transform="translate(494 418)scale(3.2616667)"/>
		<use xlink:href="#h" transform="translate(513 418)scale(3.2616667)"/>
		<use xlink:href="#f" transform="translate(646 418)scale(3.2616667)"/>
		<use xlink:href="#b" transform="translate(665 418)scale(3.2616667)"/>
		<use xlink:href="#h" transform="translate(722 418)scale(3.2616667)"/>
		<use xlink:href="#a" transform="translate(741 418)scale(3.2616667)"/>
		<use xlink:href="#a" transform="translate(760 418)scale(3.2616667)"/>
		<use xlink:href="#c" transform="translate(779 418)scale(3.2616667)"/>
		<use xlink:href="#a" transform="translate(798 418)scale(3.2616667)"/>
		<use xlink:href="#h" transform="translate(817 418)scale(3.2616667)"/>
		<use xlink:href="#a" transform="translate(836 418)scale(3.2616667)"/>
		<use xlink:href="#e" transform="translate(874 418)scale(3.2616667)"/>
		<use xlink:href="#a" transform="translate(893 418)scale(3.2616667)"/>
		<use xlink:href="#d" transform="translate(912 418)scale(3.2616667)"/>
		<use xlink:href="#c" transform="translate(38 437)scale(3.2616667)"/>
		<use xlink:href="#f" transform="translate(76 437)scale(3.2616667)"/>
		<use xlink:href="#h" transform="translate(152 437)scale(3.2616667)"/>
		<use xlink:href="#h" transform="translate(171 437)scale(3.2616667)"/>
		<use xlink:href="#b" transform="translate(228 437)scale(3.2616667)"/>
		<use xlink:href="#f" transform="translate(247 437)scale(3.2616667)"/>
		<use xlink:href="#h" transform="translate(323 437)scale(3.2616667)"/>
		<use xlink:href="#a" transform="translate(342 437)scale(3.2616667)"/>
		<use xlink:href="#h" transform="translate(361 437)scale(3.2616667)"/>
		<use xlink:href="#f" transform="translate(380 437)scale(3.2616667)"/>
		<use xlink:href="#a" transform="translate(399 437)scale(3.2616667)"/>
		<use xlink:href="#f" transform="translate(418 437)scale(3.2616667)"/>
		<use xlink:href="#a" transform="translate(494 437)scale(3.2616667)"/>
		<use xlink:href="#c" transform="translate(551 437)scale(3.2616667)"/>
		<use xlink:href="#f" transform="translate(646 437)scale(3.2616667)"/>
		<use xlink:href="#d" transform="translate(703 437)scale(3.2616667)"/>
		<use xlink:href="#a" transform="translate(722 437)scale(3.2616667)"/>
		<use xlink:href="#c" transform="translate(741 437)scale(3.2616667)"/>
		<use xlink:href="#a" transform="translate(760 437)scale(3.2616667)"/>
		<use xlink:href="#c" transform="translate(836 437)scale(3.2616667)"/>
		<use xlink:href="#f" transform="translate(893 437)scale(3.2616667)"/>
		<use xlink:href="#a" transform="translate(0 456)scale(3.2616667)"/>
		<use xlink:href="#a" transform="translate(38 456)scale(3.2616667)"/>
		<use xlink:href="#c" transform="translate(57 456)scale(3.2616667)"/>
		<use xlink:href="#f" transform="translate(76 456)scale(3.2616667)"/>
		<use xlink:href="#f" transform="translate(114 456)scale(3.2616667)"/>
		<use xlink:href="#c" transform="translate(152 456)scale(3.2616667)"/>
		<use xlink:href="#f" transform="translate(171 456)scale(3.2616667)"/>
		<use xlink:href="#h" transform="translate(190 456)scale(3.2616667)"/>
		<use xlink:href="#b" transform="translate(247 456)scale(3.2616667)"/>
		<use xlink:href="#c" transform="translate(285 456)scale(3.2616667)"/>
		<use xlink:href="#f" transform="translate(323 456)scale(3.2616667)"/>
		<use xlink:href="#a" transform="translate(418 456)scale(3.2616667)"/>
		<use xlink:href="#f" transform="translate(456 456)scale(3.2616667)"/>
		<use xlink:href="#h" transform="translate(494 456)scale(3.2616667)"/>
		<use xlink:href="#a" transform="translate(513 456)scale(3.2616667)"/>
		<use xlink:href="#a" transform="translate(532 456)scale(3.2616667)"/>
		<use xlink:href="#a" transform="translate(551 456)scale(3.2616667)"/>
		<use xlink:href="#a" transform="translate(570 456)scale(3.2616667)"/>
		<use xlink:href="#a" transform="translate(589 456)scale(3.2616667)"/>
		<use xlink:href="#h" transform="translate(608 456)scale(3.2616667)"/>
		<use xlink:href="#e" transform="translate(646 456)scale(3.2616667)"/>
		<use xlink:href="#c" transform="translate(665 456)scale(3.2616667)"/>
		<use xlink:href="#b" transform="translate(684 456)scale(3.2616667)"/>
		<use xlink:href="#e" transform="translate(722 456)scale(3.2616667)"/>
		<use xlink:href="#c" transform="translate(741 456)scale(3.2616667)"/>
		<use xlink:href="#c" transform="translate(760 456)scale(3.2616667)"/>
		<use xlink:href="#a" transform="translate(798 456)scale(3.2616667)"/>
		<use xlink:href="#a" transform="translate(836 456)scale(3.2616667)"/>
		<use xlink:href="#h" transform="translate(855 456)scale(3.2616667)"/>
		<use xlink:href="#f" transform="translate(874 456)scale(3.2616667)"/>
		<use xlink:href="#c" transform="translate(893 456)scale(3.2616667)"/>
		<use xlink:href="#c" transform="translate(0 475)scale(3.2616667)"/>
		<use xlink:href="#c" transform="translate(19 475)scale(3.2616667)"/>
		<use xlink:href="#a" transform="translate(38 475)scale(3.2616667)"/>
		<use xlink:href="#a" transform="translate(57 475)scale(3.2616667)"/>
		<use xlink:href="#a" transform="translate(76 475)scale(3.2616667)"/>
		<use xlink:href="#c" transform="translate(152 475)scale(3.2616667)"/>
		<use xlink:href="#a" transform="translate(190 475)scale(3.2616667)"/>
		<use xlink:href="#a" transform="translate(228 475)scale(3.2616667)"/>
		<use xlink:href="#g" transform="translate(323 475)scale(3.2616667)"/>
		<use xlink:href="#a" transform="translate(361 475)scale(3.2616667)"/>
		<use xlink:href="#g" transform="translate(399 475)scale(3.2616667)"/>
		<use xlink:href="#a" transform="translate(418 475)scale(3.2616667)"/>
		<use xlink:href="#a" transform="translate(494 475)scale(3.2616667)"/>
		<use xlink:href="#a" transform="translate(608 475)scale(3.2616667)"/>
		<use xlink:href="#h" transform="translate(665 475)scale(3.2616667)"/>
		<use xlink:href="#h" transform="translate(703 475)scale(3.2616667)"/>
		<use xlink:href="#a" transform="translate(760 475)scale(3.2616667)"/>
		<use xlink:href="#c" transform="translate(836 475)scale(3.2616667)"/>
		<use xlink:href="#c" transform="translate(912 475)scale(3.2616667)"/>
		<use xlink:href="#d" transform="translate(0 494)scale(3.2616667)"/>
		<use xlink:href="#b" transform="translate(57 494)scale(3.2616667)"/>
		<use xlink:href="#a" transform="translate(76 494)scale(3.2616667)"/>
		<use xlink:href="#h" transform="translate(95 494)scale(3.2616667)"/>
		<use xlink:href="#a" transform="translate(114 494)scale(3.2616667)"/>
		<use xlink:href="#a" transform="translate(133 494)scale(3.2616667)"/>
		<use xlink:href="#c" transform="translate(152 494)scale(3.2616667)"/>
		<use xlink:href="#e" transform="translate(190 494)scale(3.2616667)"/>
		<use xlink:href="#f" transform="translate(209 494)scale(3.2616667)"/>
		<use xlink:href="#c" transform="translate(228 494)scale(3.2616667)"/>
		<use xlink:href="#c" transform="translate(247 494)scale(3.2616667)"/>
		<use xlink:href="#f" transform="translate(266 494)scale(3.2616667)"/>
		<use xlink:href="#c" transform="translate(285 494)scale(3.2616667)"/>
		<use xlink:href="#f" transform="translate(342 494)scale(3.2616667)"/>
		<use xlink:href="#c" transform="translate(380 494)scale(3.2616667)"/>
		<use xlink:href="#d" transform="translate(418 494)scale(3.2616667)"/>
		<use xlink:href="#h" transform="translate(437 494)scale(3.2616667)"/>
		<use xlink:href="#h" transform="translate(456 494)scale(3.2616667)"/>
		<use xlink:href="#f" transform="translate(475 494)scale(3.2616667)"/>
		<use xlink:href="#c" transform="translate(494 494)scale(3.2616667)"/>
		<use xlink:href="#c" transform="translate(532 494)scale(3.2616667)"/>
		<use xlink:href="#f" transform="translate(589 494)scale(3.2616667)"/>
		<use xlink:href="#a" transform="translate(608 494)scale(3.2616667)"/>
		<use xlink:href="#a" transform="translate(627 494)scale(3.2616667)"/>
		<use xlink:href="#a" transform="translate(646 494)scale(3.2616667)"/>
		<use xlink:href="#c" transform="translate(665 494)scale(3.2616667)"/>
		<use xlink:href="#d" transform="translate(722 494)scale(3.2616667)"/>
		<use xlink:href="#a" transform="translate(741 494)scale(3.2616667)"/>
		<use xlink:href="#c" transform="translate(760 494)scale(3.2616667)"/>
		<use xlink:href="#f" transform="translate(779 494)scale(3.2616667)"/>
		<use xlink:href="#f" transform="translate(798 494)scale(3.2616667)"/>
		<use xlink:href="#c" transform="translate(817 494)scale(3.2616667)"/>
		<use xlink:href="#a" transform="translate(836 494)scale(3.2616667)"/>
		<use xlink:href="#a" transform="translate(893 494)scale(3.2616667)"/>
		<use xlink:href="#b" transform="translate(19 513)scale(3.2616667)"/>
		<use xlink:href="#g" transform="translate(38 513)scale(3.2616667)"/>
		<use xlink:href="#b" transform="translate(76 513)scale(3.2616667)"/>
		<use xlink:href="#c" transform="translate(95 513)scale(3.2616667)"/>
		<use xlink:href="#b" transform="translate(209 513)scale(3.2616667)"/>
		<use xlink:href="#a" transform="translate(228 513)scale(3.2616667)"/>
		<use xlink:href="#c" transform="translate(247 513)scale(3.2616667)"/>
		<use xlink:href="#a" transform="translate(285 513)scale(3.2616667)"/>
		<use xlink:href="#a" transform="translate(304 513)scale(3.2616667)"/>
		<use xlink:href="#c" transform="translate(399 513)scale(3.2616667)"/>
		<use xlink:href="#e" transform="translate(437 513)scale(3.2616667)"/>
		<use xlink:href="#a" transform="translate(475 513)scale(3.2616667)"/>
		<use xlink:href="#f" transform="translate(494 513)scale(3.2616667)"/>
		<use xlink:href="#g" transform="translate(513 513)scale(3.2616667)"/>
		<use xlink:href="#a" transform="translate(570 513)scale(3.2616667)"/>
		<use xlink:href="#f" transform="translate(589 513)scale(3.2616667)"/>
		<use xlink:href="#g" transform="translate(627 513)scale(3.2616667)"/>
		<use xlink:href="#c" transform="translate(665 513)scale(3.2616667)"/>
		<use xlink:href="#h" transform="translate(779 513)scale(3.2616667)"/>
		<use xlink:href="#f" transform="translate(817 513)scale(3.2616667)"/>
		<use xlink:href="#f" transform="translate(855 513)scale(3.2616667)"/>
		<use xlink:href="#a" transform="translate(0 532)scale(3.2616667)"/>
		<use xlink:href="#b" transform="translate(114 532)scale(3.2616667)"/>
		<use xlink:href="#a" transform="translate(133 532)scale(3.2616667)"/>
		<use xlink:href="#a" transform="translate(190 532)scale(3.2616667)"/>
		<use xlink:href="#b" transform="translate(285 532)scale(3.2616667)"/>
		<use xlink:href="#f" transform="translate(304 532)scale(3.2616667)"/>
		<use xlink:href="#b" transform="translate(361 532)scale(3.2616667)"/>
		<use xlink:href="#b" transform="translate(380 532)scale(3.2616667)"/>
		<use xlink:href="#h" transform="translate(475 532)scale(3.2616667)"/>
		<use xlink:href="#d" transform="translate(551 532)scale(3.2616667)"/>
		<use xlink:href="#a" transform="translate(570 532)scale(3.2616667)"/>
		<use xlink:href="#e" transform="translate(665 532)scale(3.2616667)"/>
		<use xlink:href="#h" transform="translate(684 532)scale(3.2616667)"/>
		<use xlink:href="#c" transform="translate(722 532)scale(3.2616667)"/>
		<use xlink:href="#d" transform="translate(760 532)scale(3.2616667)"/>
		<use xlink:href="#h" transform="translate(779 532)scale(3.2616667)"/>
		<use xlink:href="#f" transform="translate(798 532)scale(3.2616667)"/>
		<use xlink:href="#c" transform="translate(817 532)scale(3.2616667)"/>
		<use xlink:href="#a" transform="translate(855 532)scale(3.2616667)"/>
		<use xlink:href="#a" transform="translate(874 532)scale(3.2616667)"/>
		<use xlink:href="#g" transform="translate(893 532)scale(3.2616667)"/>
		<use xlink:href="#h" transform="translate(19 551)scale(3.2616667)"/>
		<use xlink:href="#e" transform="translate(76 551)scale(3.2616667)"/>
		<use xlink:href="#d" transform="translate(95 551)scale(3.2616667)"/>
		<use xlink:href="#d" transform="translate(133 551)scale(3.2616667)"/>
		<use xlink:href="#h" transform="translate(171 551)scale(3.2616667)"/>
		<use xlink:href="#e" transform="translate(247 551)scale(3.2616667)"/>
		<use xlink:href="#d" transform="translate(266 551)scale(3.2616667)"/>
		<use xlink:href="#f" transform="translate(323 551)scale(3.2616667)"/>
		<use xlink:href="#c" transform="translate(418 551)scale(3.2616667)"/>
		<use xlink:href="#b" transform="translate(475 551)scale(3.2616667)"/>
		<use xlink:href="#c" transform="translate(589 551)scale(3.2616667)"/>
		<use xlink:href="#a" transform="translate(684 551)scale(3.2616667)"/>
		<use xlink:href="#f" transform="translate(722 551)scale(3.2616667)"/>
		<use xlink:href="#d" transform="translate(741 551)scale(3.2616667)"/>
		<use xlink:href="#h" transform="translate(779 551)scale(3.2616667)"/>
		<use xlink:href="#c" transform="translate(855 551)scale(3.2616667)"/>
		<use xlink:href="#a" transform="translate(874 551)scale(3.2616667)"/>
		<use xlink:href="#a" transform="translate(912 551)scale(3.2616667)"/>
		<use xlink:href="#b" transform="translate(19 570)scale(3.2616667)"/>
		<use xlink:href="#f" transform="translate(114 570)scale(3.2616667)"/>
		<use xlink:href="#a" transform="translate(152 570)scale(3.2616667)"/>
		<use xlink:href="#a" transform="translate(171 570)scale(3.2616667)"/>
		<use xlink:href="#b" transform="translate(342 570)scale(3.2616667)"/>
		<use xlink:href="#a" transform="translate(361 570)scale(3.2616667)"/>
		<use xlink:href="#b" transform="translate(418 570)scale(3.2616667)"/>
		<use xlink:href="#a" transform="translate(456 570)scale(3.2616667)"/>
		<use xlink:href="#f" transform="translate(494 570)scale(3.2616667)"/>
		<use xlink:href="#b" transform="translate(513 570)scale(3.2616667)"/>
		<use xlink:href="#a" transform="translate(551 570)scale(3.2616667)"/>
		<use xlink:href="#b" transform="translate(646 570)scale(3.2616667)"/>
		<use xlink:href="#a" transform="translate(665 570)scale(3.2616667)"/>
		<use xlink:href="#a" transform="translate(684 570)scale(3.2616667)"/>
		<use xlink:href="#c" transform="translate(703 570)scale(3.2616667)"/>
		<use xlink:href="#c" transform="translate(722 570)scale(3.2616667)"/>
		<use xlink:href="#b" transform="translate(760 570)scale(3.2616667)"/>
		<use xlink:href="#a" transform="translate(779 570)scale(3.2616667)"/>
		<use xlink:href="#c" transform="translate(798 570)scale(3.2616667)"/>
		<use xlink:href="#e" transform="translate(817 570)scale(3.2616667)"/>
		<use xlink:href="#f" transform="translate(855 570)scale(3.2616667)"/>
		<use xlink:href="#d" transform="translate(912 570)scale(3.2616667)"/>
		<use xlink:href="#c" transform="translate(38 589)scale(3.2616667)"/>
		<use xlink:href="#h" transform="translate(95 589)scale(3.2616667)"/>
		<use xlink:href="#g" transform="translate(152 589)scale(3.2616667)"/>
		<use xlink:href="#a" transform="translate(171 589)scale(3.2616667)"/>
		<use xlink:href="#a" transform="translate(228 589)scale(3.2616667)"/>
		<use xlink:href="#a" transform="translate(266 589)scale(3.2616667)"/>
		<use xlink:href="#h" transform="translate(304 589)scale(3.2616667)"/>
		<use xlink:href="#e" transform="translate(361 589)scale(3.2616667)"/>
		<use xlink:href="#f" transform="translate(399 589)scale(3.2616667)"/>
		<use xlink:href="#a" transform="translate(437 589)scale(3.2616667)"/>
		<use xlink:href="#f" transform="translate(456 589)scale(3.2616667)"/>
		<use xlink:href="#a" transform="translate(494 589)scale(3.2616667)"/>
		<use xlink:href="#g" transform="translate(551 589)scale(3.2616667)"/>
		<use xlink:href="#a" transform="translate(589 589)scale(3.2616667)"/>
		<use xlink:href="#d" transform="translate(665 589)scale(3.2616667)"/>
		<use xlink:href="#a" transform="translate(684 589)scale(3.2616667)"/>
		<use xlink:href="#a" transform="translate(741 589)scale(3.2616667)"/>
		<use xlink:href="#b" transform="translate(855 589)scale(3.2616667)"/>
		<use xlink:href="#f" transform="translate(0 608)scale(3.2616667)"/>
		<use xlink:href="#b" transform="translate(95 608)scale(3.2616667)"/>
		<use xlink:href="#e" transform="translate(114 608)scale(3.2616667)"/>
		<use xlink:href="#h" transform="translate(190 608)scale(3.2616667)"/>
		<use xlink:href="#a" transform="translate(209 608)scale(3.2616667)"/>
		<use xlink:href="#a" transform="translate(266 608)scale(3.2616667)"/>
		<use xlink:href="#g" transform="translate(285 608)scale(3.2616667)"/>
		<use xlink:href="#a" transform="translate(323 608)scale(3.2616667)"/>
		<use xlink:href="#f" transform="translate(380 608)scale(3.2616667)"/>
		<use xlink:href="#h" transform="translate(418 608)scale(3.2616667)"/>
		<use xlink:href="#f" transform="translate(437 608)scale(3.2616667)"/>
		<use xlink:href="#b" transform="translate(494 608)scale(3.2616667)"/>
		<use xlink:href="#c" transform="translate(532 608)scale(3.2616667)"/>
		<use xlink:href="#b" transform="translate(627 608)scale(3.2616667)"/>
		<use xlink:href="#b" transform="translate(646 608)scale(3.2616667)"/>
		<use xlink:href="#a" transform="translate(684 608)scale(3.2616667)"/>
		<use xlink:href="#c" transform="translate(722 608)scale(3.2616667)"/>
		<use xlink:href="#f" transform="translate(760 608)scale(3.2616667)"/>
		<use xlink:href="#f" transform="translate(798 608)scale(3.2616667)"/>
		<use xlink:href="#c" transform="translate(836 608)scale(3.2616667)"/>
		<use xlink:href="#g" transform="translate(874 608)scale(3.2616667)"/>
		<use xlink:href="#h" transform="translate(893 608)scale(3.2616667)"/>
		<use xlink:href="#a" transform="translate(912 608)scale(3.2616667)"/>
		<use xlink:href="#f" transform="translate(19 627)scale(3.2616667)"/>
		<use xlink:href="#b" transform="translate(57 627)scale(3.2616667)"/>
		<use xlink:href="#c" transform="translate(76 627)scale(3.2616667)"/>
		<use xlink:href="#c" transform="translate(133 627)scale(3.2616667)"/>
		<use xlink:href="#a" transform="translate(171 627)scale(3.2616667)"/>
		<use xlink:href="#h" transform="translate(190 627)scale(3.2616667)"/>
		<use xlink:href="#c" transform="translate(209 627)scale(3.2616667)"/>
		<use xlink:href="#f" transform="translate(228 627)scale(3.2616667)"/>
		<use xlink:href="#a" transform="translate(247 627)scale(3.2616667)"/>
		<use xlink:href="#c" transform="translate(266 627)scale(3.2616667)"/>
		<use xlink:href="#c" transform="translate(304 627)scale(3.2616667)"/>
		<use xlink:href="#a" transform="translate(380 627)scale(3.2616667)"/>
		<use xlink:href="#a" transform="translate(399 627)scale(3.2616667)"/>
		<use xlink:href="#a" transform="translate(418 627)scale(3.2616667)"/>
		<use xlink:href="#d" transform="translate(513 627)scale(3.2616667)"/>
		<use xlink:href="#a" transform="translate(532 627)scale(3.2616667)"/>
		<use xlink:href="#e" transform="translate(551 627)scale(3.2616667)"/>
		<use xlink:href="#c" transform="translate(589 627)scale(3.2616667)"/>
		<use xlink:href="#d" transform="translate(665 627)scale(3.2616667)"/>
		<use xlink:href="#f" transform="translate(684 627)scale(3.2616667)"/>
		<use xlink:href="#g" transform="translate(760 627)scale(3.2616667)"/>
		<use xlink:href="#f" transform="translate(798 627)scale(3.2616667)"/>
		<use xlink:href="#g" transform="translate(836 627)scale(3.2616667)"/>
		<use xlink:href="#c" transform="translate(912 627)scale(3.2616667)"/>
		<use xlink:href="#a" transform="translate(38 646)scale(3.2616667)"/>
		<use xlink:href="#c" transform="translate(76 646)scale(3.2616667)"/>
		<use xlink:href="#a" transform="translate(95 646)scale(3.2616667)"/>
		<use xlink:href="#g" transform="translate(114 646)scale(3.2616667)"/>
		<use xlink:href="#b" transform="translate(152 646)scale(3.2616667)"/>
		<use xlink:href="#a" transform="translate(171 646)scale(3.2616667)"/>
		<use xlink:href="#c" transform="translate(190 646)scale(3.2616667)"/>
		<use xlink:href="#h" transform="translate(228 646)scale(3.2616667)"/>
		<use xlink:href="#f" transform="translate(247 646)scale(3.2616667)"/>
		<use xlink:href="#a" transform="translate(266 646)scale(3.2616667)"/>
		<use xlink:href="#c" transform="translate(285 646)scale(3.2616667)"/>
		<use xlink:href="#a" transform="translate(304 646)scale(3.2616667)"/>
		<use xlink:href="#a" transform="translate(323 646)scale(3.2616667)"/>
		<use xlink:href="#d" transform="translate(380 646)scale(3.2616667)"/>
		<use xlink:href="#h" transform="translate(399 646)scale(3.2616667)"/>
		<use xlink:href="#f" transform="translate(418 646)scale(3.2616667)"/>
		<use xlink:href="#h" transform="translate(437 646)scale(3.2616667)"/>
		<use xlink:href="#a" transform="translate(456 646)scale(3.2616667)"/>
		<use xlink:href="#a" transform="translate(475 646)scale(3.2616667)"/>
		<use xlink:href="#d" transform="translate(494 646)scale(3.2616667)"/>
		<use xlink:href="#g" transform="translate(532 646)scale(3.2616667)"/>
		<use xlink:href="#a" transform="translate(627 646)scale(3.2616667)"/>
		<use xlink:href="#a" transform="translate(684 646)scale(3.2616667)"/>
		<use xlink:href="#c" transform="translate(722 646)scale(3.2616667)"/>
		<use xlink:href="#b" transform="translate(798 646)scale(3.2616667)"/>
		<use xlink:href="#e" transform="translate(817 646)scale(3.2616667)"/>
		<use xlink:href="#b" transform="translate(855 646)scale(3.2616667)"/>
		<use xlink:href="#a" transform="translate(874 646)scale(3.2616667)"/>
		<use xlink:href="#f" transform="translate(893 646)scale(3.2616667)"/>
		<use xlink:href="#a" transform="translate(912 646)scale(3.2616667)"/>
		<use xlink:href="#a" transform="translate(0 665)scale(3.2616667)"/>
		<use xlink:href="#h" transform="translate(38 665)scale(3.2616667)"/>
		<use xlink:href="#g" transform="translate(76 665)scale(3.2616667)"/>
		<use xlink:href="#h" transform="translate(133 665)scale(3.2616667)"/>
		<use xlink:href="#e" transform="translate(171 665)scale(3.2616667)"/>
		<use xlink:href="#h" transform="translate(209 665)scale(3.2616667)"/>
		<use xlink:href="#a" transform="translate(228 665)scale(3.2616667)"/>
		<use xlink:href="#a" transform="translate(247 665)scale(3.2616667)"/>
		<use xlink:href="#h" transform="translate(285 665)scale(3.2616667)"/>
		<use xlink:href="#e" transform="translate(323 665)scale(3.2616667)"/>
		<use xlink:href="#b" transform="translate(418 665)scale(3.2616667)"/>
		<use xlink:href="#b" transform="translate(456 665)scale(3.2616667)"/>
		<use xlink:href="#a" transform="translate(513 665)scale(3.2616667)"/>
		<use xlink:href="#d" transform="translate(551 665)scale(3.2616667)"/>
		<use xlink:href="#c" transform="translate(570 665)scale(3.2616667)"/>
		<use xlink:href="#a" transform="translate(627 665)scale(3.2616667)"/>
		<use xlink:href="#g" transform="translate(684 665)scale(3.2616667)"/>
		<use xlink:href="#c" transform="translate(722 665)scale(3.2616667)"/>
		<use xlink:href="#g" transform="translate(760 665)scale(3.2616667)"/>
		<use xlink:href="#a" transform="translate(779 665)scale(3.2616667)"/>
		<use xlink:href="#a" transform="translate(836 665)scale(3.2616667)"/>
		<use xlink:href="#f" transform="translate(912 665)scale(3.2616667)"/>
		<use xlink:href="#c" transform="translate(19 684)scale(3.2616667)"/>
		<use xlink:href="#a" transform="translate(38 684)scale(3.2616667)"/>
		<use xlink:href="#c" transform="translate(114 684)scale(3.2616667)"/>
		<use xlink:href="#a" transform="translate(152 684)scale(3.2616667)"/>
		<use xlink:href="#f" transform="translate(209 684)scale(3.2616667)"/>
		<use xlink:href="#c" transform="translate(228 684)scale(3.2616667)"/>
		<use xlink:href="#h" transform="translate(285 684)scale(3.2616667)"/>
		<use xlink:href="#d" transform="translate(380 684)scale(3.2616667)"/>
		<use xlink:href="#h" transform="translate(399 684)scale(3.2616667)"/>
		<use xlink:href="#c" transform="translate(437 684)scale(3.2616667)"/>
		<use xlink:href="#a" transform="translate(475 684)scale(3.2616667)"/>
		<use xlink:href="#a" transform="translate(494 684)scale(3.2616667)"/>
		<use xlink:href="#f" transform="translate(513 684)scale(3.2616667)"/>
		<use xlink:href="#e" transform="translate(532 684)scale(3.2616667)"/>
		<use xlink:href="#e" transform="translate(570 684)scale(3.2616667)"/>
		<use xlink:href="#a" transform="translate(589 684)scale(3.2616667)"/>
		<use xlink:href="#a" transform="translate(608 684)scale(3.2616667)"/>
		<use xlink:href="#a" transform="translate(627 684)scale(3.2616667)"/>
		<use xlink:href="#h" transform="translate(665 684)scale(3.2616667)"/>
		<use xlink:href="#h" transform="translate(703 684)scale(3.2616667)"/>
		<use xlink:href="#h" transform="translate(722 684)scale(3.2616667)"/>
		<use xlink:href="#a" transform="translate(741 684)scale(3.2616667)"/>
		<use xlink:href="#a" transform="translate(779 684)scale(3.2616667)"/>
		<use xlink:href="#a" transform="translate(798 684)scale(3.2616667)"/>
		<use xlink:href="#b" transform="translate(855 684)scale(3.2616667)"/>
		<use xlink:href="#h" transform="translate(874 684)scale(3.2616667)"/>
		<use xlink:href="#b" transform="translate(912 684)scale(3.2616667)"/>
		<use xlink:href="#f" transform="translate(19 703)scale(3.2616667)"/>
		<use xlink:href="#f" transform="translate(38 703)scale(3.2616667)"/>
		<use xlink:href="#h" transform="translate(171 703)scale(3.2616667)"/>
		<use xlink:href="#f" transform="translate(190 703)scale(3.2616667)"/>
		<use xlink:href="#a" transform="translate(209 703)scale(3.2616667)"/>
		<use xlink:href="#c" transform="translate(228 703)scale(3.2616667)"/>
		<use xlink:href="#f" transform="translate(247 703)scale(3.2616667)"/>
		<use xlink:href="#a" transform="translate(266 703)scale(3.2616667)"/>
		<use xlink:href="#f" transform="translate(285 703)scale(3.2616667)"/>
		<use xlink:href="#f" transform="translate(342 703)scale(3.2616667)"/>
		<use xlink:href="#e" transform="translate(399 703)scale(3.2616667)"/>
		<use xlink:href="#f" transform="translate(418 703)scale(3.2616667)"/>
		<use xlink:href="#c" transform="translate(437 703)scale(3.2616667)"/>
		<use xlink:href="#c" transform="translate(456 703)scale(3.2616667)"/>
		<use xlink:href="#a" transform="translate(475 703)scale(3.2616667)"/>
		<use xlink:href="#a" transform="translate(608 703)scale(3.2616667)"/>
		<use xlink:href="#c" transform="translate(627 703)scale(3.2616667)"/>
		<use xlink:href="#b" transform="translate(684 703)scale(3.2616667)"/>
		<use xlink:href="#c" transform="translate(703 703)scale(3.2616667)"/>
		<use xlink:href="#b" transform="translate(741 703)scale(3.2616667)"/>
		<use xlink:href="#a" transform="translate(760 703)scale(3.2616667)"/>
		<use xlink:href="#h" transform="translate(779 703)scale(3.2616667)"/>
		<use xlink:href="#h" transform="translate(798 703)scale(3.2616667)"/>
		<use xlink:href="#c" transform="translate(874 703)scale(3.2616667)"/>
		<use xlink:href="#a" transform="translate(19 722)scale(3.2616667)"/>
		<use xlink:href="#e" transform="translate(95 722)scale(3.2616667)"/>
		<use xlink:href="#e" transform="translate(114 722)scale(3.2616667)"/>
		<use xlink:href="#h" transform="translate(152 722)scale(3.2616667)"/>
		<use xlink:href="#h" transform="translate(171 722)scale(3.2616667)"/>
		<use xlink:href="#a" transform="translate(190 722)scale(3.2616667)"/>
		<use xlink:href="#e" transform="translate(228 722)scale(3.2616667)"/>
		<use xlink:href="#a" transform="translate(266 722)scale(3.2616667)"/>
		<use xlink:href="#h" transform="translate(285 722)scale(3.2616667)"/>
		<use xlink:href="#c" transform="translate(304 722)scale(3.2616667)"/>
		<use xlink:href="#c" transform="translate(323 722)scale(3.2616667)"/>
		<use xlink:href="#f" transform="translate(342 722)scale(3.2616667)"/>
		<use xlink:href="#a" transform="translate(380 722)scale(3.2616667)"/>
		<use xlink:href="#a" transform="translate(418 722)scale(3.2616667)"/>
		<use xlink:href="#a" transform="translate(494 722)scale(3.2616667)"/>
		<use xlink:href="#a" transform="translate(551 722)scale(3.2616667)"/>
		<use xlink:href="#d" transform="translate(589 722)scale(3.2616667)"/>
		<use xlink:href="#a" transform="translate(608 722)scale(3.2616667)"/>
		<use xlink:href="#f" transform="translate(627 722)scale(3.2616667)"/>
		<use xlink:href="#h" transform="translate(665 722)scale(3.2616667)"/>
		<use xlink:href="#g" transform="translate(760 722)scale(3.2616667)"/>
		<use xlink:href="#a" transform="translate(817 722)scale(3.2616667)"/>
		<use xlink:href="#d" transform="translate(855 722)scale(3.2616667)"/>
		<use xlink:href="#a" transform="translate(874 722)scale(3.2616667)"/>
		<use xlink:href="#h" transform="translate(893 722)scale(3.2616667)"/>
		<use xlink:href="#h" transform="translate(912 722)scale(3.2616667)"/>
		<use xlink:href="#f" transform="translate(19 741)scale(3.2616667)"/>
		<use xlink:href="#f" transform="translate(38 741)scale(3.2616667)"/>
		<use xlink:href="#d" transform="translate(57 741)scale(3.2616667)"/>
		<use xlink:href="#h" transform="translate(152 741)scale(3.2616667)"/>
		<use xlink:href="#h" transform="translate(171 741)scale(3.2616667)"/>
		<use xlink:href="#a" transform="translate(190 741)scale(3.2616667)"/>
		<use xlink:href="#f" transform="translate(209 741)scale(3.2616667)"/>
		<use xlink:href="#a" transform="translate(266 741)scale(3.2616667)"/>
		<use xlink:href="#e" transform="translate(323 741)scale(3.2616667)"/>
		<use xlink:href="#h" transform="translate(380 741)scale(3.2616667)"/>
		<use xlink:href="#f" transform="translate(399 741)scale(3.2616667)"/>
		<use xlink:href="#a" transform="translate(418 741)scale(3.2616667)"/>
		<use xlink:href="#f" transform="translate(437 741)scale(3.2616667)"/>
		<use xlink:href="#c" transform="translate(475 741)scale(3.2616667)"/>
		<use xlink:href="#c" transform="translate(513 741)scale(3.2616667)"/>
		<use xlink:href="#e" transform="translate(551 741)scale(3.2616667)"/>
		<use xlink:href="#f" transform="translate(570 741)scale(3.2616667)"/>
		<use xlink:href="#c" transform="translate(646 741)scale(3.2616667)"/>
		<use xlink:href="#b" transform="translate(684 741)scale(3.2616667)"/>
		<use xlink:href="#a" transform="translate(703 741)scale(3.2616667)"/>
		<use xlink:href="#a" transform="translate(722 741)scale(3.2616667)"/>
		<use xlink:href="#a" transform="translate(798 741)scale(3.2616667)"/>
		<use xlink:href="#c" transform="translate(836 741)scale(3.2616667)"/>
		<use xlink:href="#b" transform="translate(874 741)scale(3.2616667)"/>
		<use xlink:href="#f" transform="translate(893 741)scale(3.2616667)"/>
		<use xlink:href="#a" transform="translate(912 741)scale(3.2616667)"/>
		<use xlink:href="#b" transform="translate(0 760)scale(3.2616667)"/>
		<use xlink:href="#a" transform="translate(19 760)scale(3.2616667)"/>
		<use xlink:href="#f" transform="translate(38 760)scale(3.2616667)"/>
		<use xlink:href="#c" transform="translate(114 760)scale(3.2616667)"/>
		<use xlink:href="#c" transform="translate(152 760)scale(3.2616667)"/>
		<use xlink:href="#h" transform="translate(171 760)scale(3.2616667)"/>
		<use xlink:href="#a" transform="translate(190 760)scale(3.2616667)"/>
		<use xlink:href="#h" transform="translate(209 760)scale(3.2616667)"/>
		<use xlink:href="#c" transform="translate(228 760)scale(3.2616667)"/>
		<use xlink:href="#h" transform="translate(266 760)scale(3.2616667)"/>
		<use xlink:href="#b" transform="translate(380 760)scale(3.2616667)"/>
		<use xlink:href="#c" transform="translate(418 760)scale(3.2616667)"/>
		<use xlink:href="#a" transform="translate(437 760)scale(3.2616667)"/>
		<use xlink:href="#a" transform="translate(456 760)scale(3.2616667)"/>
		<use xlink:href="#f" transform="translate(475 760)scale(3.2616667)"/>
		<use xlink:href="#c" transform="translate(494 760)scale(3.2616667)"/>
		<use xlink:href="#a" transform="translate(532 760)scale(3.2616667)"/>
		<use xlink:href="#b" transform="translate(570 760)scale(3.2616667)"/>
		<use xlink:href="#a" transform="translate(589 760)scale(3.2616667)"/>
		<use xlink:href="#f" transform="translate(608 760)scale(3.2616667)"/>
		<use xlink:href="#h" transform="translate(627 760)scale(3.2616667)"/>
		<use xlink:href="#h" transform="translate(646 760)scale(3.2616667)"/>
		<use xlink:href="#a" transform="translate(722 760)scale(3.2616667)"/>
		<use xlink:href="#c" transform="translate(741 760)scale(3.2616667)"/>
		<use xlink:href="#f" transform="translate(760 760)scale(3.2616667)"/>
		<use xlink:href="#h" transform="translate(779 760)scale(3.2616667)"/>
		<use xlink:href="#a" transform="translate(798 760)scale(3.2616667)"/>
		<use xlink:href="#a" transform="translate(817 760)scale(3.2616667)"/>
		<use xlink:href="#a" transform="translate(836 760)scale(3.2616667)"/>
		<use xlink:href="#g" transform="translate(855 760)scale(3.2616667)"/>
		<use xlink:href="#b" transform="translate(152 779)scale(3.2616667)"/>
		<use xlink:href="#c" transform="translate(171 779)scale(3.2616667)"/>
		<use xlink:href="#d" transform="translate(209 779)scale(3.2616667)"/>
		<use xlink:href="#a" transform="translate(228 779)scale(3.2616667)"/>
		<use xlink:href="#c" transform="translate(247 779)scale(3.2616667)"/>
		<use xlink:href="#a" transform="translate(266 779)scale(3.2616667)"/>
		<use xlink:href="#f" transform="translate(323 779)scale(3.2616667)"/>
		<use xlink:href="#c" transform="translate(342 779)scale(3.2616667)"/>
		<use xlink:href="#a" transform="translate(361 779)scale(3.2616667)"/>
		<use xlink:href="#c" transform="translate(418 779)scale(3.2616667)"/>
		<use xlink:href="#a" transform="translate(494 779)scale(3.2616667)"/>
		<use xlink:href="#a" transform="translate(513 779)scale(3.2616667)"/>
		<use xlink:href="#c" transform="translate(532 779)scale(3.2616667)"/>
		<use xlink:href="#d" transform="translate(551 779)scale(3.2616667)"/>
		<use xlink:href="#b" transform="translate(608 779)scale(3.2616667)"/>
		<use xlink:href="#g" transform="translate(646 779)scale(3.2616667)"/>
		<use xlink:href="#d" transform="translate(703 779)scale(3.2616667)"/>
		<use xlink:href="#a" transform="translate(722 779)scale(3.2616667)"/>
		<use xlink:href="#a" transform="translate(760 779)scale(3.2616667)"/>
		<use xlink:href="#a" transform="translate(836 779)scale(3.2616667)"/>
		<use xlink:href="#f" transform="translate(190 798)scale(3.2616667)"/>
		<use xlink:href="#c" transform="translate(247 798)scale(3.2616667)"/>
		<use xlink:href="#f" transform="translate(266 798)scale(3.2616667)"/>
		<use xlink:href="#a" transform="translate(285 798)scale(3.2616667)"/>
		<use xlink:href="#c" transform="translate(304 798)scale(3.2616667)"/>
		<use xlink:href="#c" transform="translate(323 798)scale(3.2616667)"/>
		<use xlink:href="#a" transform="translate(361 798)scale(3.2616667)"/>
		<use xlink:href="#d" transform="translate(380 798)scale(3.2616667)"/>
		<use xlink:href="#a" transform="translate(418 798)scale(3.2616667)"/>
		<use xlink:href="#h" transform="translate(456 798)scale(3.2616667)"/>
		<use xlink:href="#a" transform="translate(494 798)scale(3.2616667)"/>
		<use xlink:href="#a" transform="translate(513 798)scale(3.2616667)"/>
		<use xlink:href="#f" transform="translate(589 798)scale(3.2616667)"/>
		<use xlink:href="#f" transform="translate(627 798)scale(3.2616667)"/>
		<use xlink:href="#a" transform="translate(665 798)scale(3.2616667)"/>
		<use xlink:href="#a" transform="translate(760 798)scale(3.2616667)"/>
		<use xlink:href="#a" transform="translate(798 798)scale(3.2616667)"/>
		<use xlink:href="#a" transform="translate(836 798)scale(3.2616667)"/>
		<use xlink:href="#b" transform="translate(855 798)scale(3.2616667)"/>
		<use xlink:href="#a" transform="translate(912 798)scale(3.2616667)"/>
		<use xlink:href="#c" transform="translate(171 817)scale(3.2616667)"/>
		<use xlink:href="#a" transform="translate(190 817)scale(3.2616667)"/>
		<use xlink:href="#a" transform="translate(247 817)scale(3.2616667)"/>
		<use xlink:href="#h" transform="translate(266 817)scale(3.2616667)"/>
		<use xlink:href="#f" transform="translate(285 817)scale(3.2616667)"/>
		<use xlink:href="#a" transform="translate(342 817)scale(3.2616667)"/>
		<use xlink:href="#h" transform="translate(361 817)scale(3.2616667)"/>
		<use xlink:href="#a" transform="translate(418 817)scale(3.2616667)"/>
		<use xlink:href="#h" transform="translate(494 817)scale(3.2616667)"/>
		<use xlink:href="#a" transform="translate(513 817)scale(3.2616667)"/>
		<use xlink:href="#c" transform="translate(551 817)scale(3.2616667)"/>
		<use xlink:href="#e" transform="translate(570 817)scale(3.2616667)"/>
		<use xlink:href="#f" transform="translate(608 817)scale(3.2616667)"/>
		<use xlink:href="#f" transform="translate(703 817)scale(3.2616667)"/>
		<use xlink:href="#a" transform="translate(722 817)scale(3.2616667)"/>
		<use xlink:href="#c" transform="translate(741 817)scale(3.2616667)"/>
		<use xlink:href="#a" transform="translate(760 817)scale(3.2616667)"/>
		<use xlink:href="#f" transform="translate(836 817)scale(3.2616667)"/>
		<use xlink:href="#a" transform="translate(893 817)scale(3.2616667)"/>
		<use xlink:href="#h" transform="translate(912 817)scale(3.2616667)"/>
		<use xlink:href="#h" transform="translate(152 836)scale(3.2616667)"/>
		<use xlink:href="#f" transform="translate(171 836)scale(3.2616667)"/>
		<use xlink:href="#c" transform="translate(209 836)scale(3.2616667)"/>
		<use xlink:href="#h" transform="translate(228 836)scale(3.2616667)"/>
		<use xlink:href="#f" transform="translate(247 836)scale(3.2616667)"/>
		<use xlink:href="#h" transform="translate(266 836)scale(3.2616667)"/>
		<use xlink:href="#a" transform="translate(285 836)scale(3.2616667)"/>
		<use xlink:href="#h" transform="translate(323 836)scale(3.2616667)"/>
		<use xlink:href="#a" transform="translate(342 836)scale(3.2616667)"/>
		<use xlink:href="#h" transform="translate(361 836)scale(3.2616667)"/>
		<use xlink:href="#f" transform="translate(380 836)scale(3.2616667)"/>
		<use xlink:href="#f" transform="translate(418 836)scale(3.2616667)"/>
		<use xlink:href="#c" transform="translate(437 836)scale(3.2616667)"/>
		<use xlink:href="#a" transform="translate(456 836)scale(3.2616667)"/>
		<use xlink:href="#h" transform="translate(475 836)scale(3.2616667)"/>
		<use xlink:href="#a" transform="translate(494 836)scale(3.2616667)"/>
		<use xlink:href="#f" transform="translate(551 836)scale(3.2616667)"/>
		<use xlink:href="#d" transform="translate(627 836)scale(3.2616667)"/>
		<use xlink:href="#h" transform="translate(646 836)scale(3.2616667)"/>
		<use xlink:href="#e" transform="translate(665 836)scale(3.2616667)"/>
		<use xlink:href="#f" transform="translate(703 836)scale(3.2616667)"/>
		<use xlink:href="#h" transform="translate(722 836)scale(3.2616667)"/>
		<use xlink:href="#a" transform="translate(741 836)scale(3.2616667)"/>
		<use xlink:href="#a" transform="translate(760 836)scale(3.2616667)"/>
		<use xlink:href="#c" transform="translate(779 836)scale(3.2616667)"/>
		<use xlink:href="#c" transform="translate(798 836)scale(3.2616667)"/>
		<use xlink:href="#a" transform="translate(817 836)scale(3.2616667)"/>
		<use xlink:href="#f" transform="translate(836 836)scale(3.2616667)"/>
		<use xlink:href="#c" transform="translate(874 836)scale(3.2616667)"/>
		<use xlink:href="#h" transform="translate(893 836)scale(3.2616667)"/>
		<use xlink:href="#h" transform="translate(912 836)scale(3.2616667)"/>
		<use xlink:href="#f" transform="translate(152 855)scale(3.2616667)"/>
		<use xlink:href="#a" transform="translate(209 855)scale(3.2616667)"/>
		<use xlink:href="#f" transform="translate(228 855)scale(3.2616667)"/>
		<use xlink:href="#a" transform="translate(266 855)scale(3.2616667)"/>
		<use xlink:href="#h" transform="translate(285 855)scale(3.2616667)"/>
		<use xlink:href="#b" transform="translate(323 855)scale(3.2616667)"/>
		<use xlink:href="#f" transform="translate(380 855)scale(3.2616667)"/>
		<use xlink:href="#b" transform="translate(418 855)scale(3.2616667)"/>
		<use xlink:href="#b" transform="translate(456 855)scale(3.2616667)"/>
		<use xlink:href="#c" transform="translate(475 855)scale(3.2616667)"/>
		<use xlink:href="#b" transform="translate(551 855)scale(3.2616667)"/>
		<use xlink:href="#a" transform="translate(570 855)scale(3.2616667)"/>
		<use xlink:href="#g" transform="translate(589 855)scale(3.2616667)"/>
		<use xlink:href="#a" transform="translate(684 855)scale(3.2616667)"/>
		<use xlink:href="#c" transform="translate(703 855)scale(3.2616667)"/>
		<use xlink:href="#d" transform="translate(779 855)scale(3.2616667)"/>
		<use xlink:href="#h" transform="translate(798 855)scale(3.2616667)"/>
		<use xlink:href="#b" transform="translate(836 855)scale(3.2616667)"/>
		<use xlink:href="#h" transform="translate(874 855)scale(3.2616667)"/>
		<use xlink:href="#a" transform="translate(893 855)scale(3.2616667)"/>
		<use xlink:href="#a" transform="translate(912 855)scale(3.2616667)"/>
		<use xlink:href="#b" transform="translate(152 874)scale(3.2616667)"/>
		<use xlink:href="#h" transform="translate(190 874)scale(3.2616667)"/>
		<use xlink:href="#a" transform="translate(209 874)scale(3.2616667)"/>
		<use xlink:href="#f" transform="translate(228 874)scale(3.2616667)"/>
		<use xlink:href="#e" transform="translate(266 874)scale(3.2616667)"/>
		<use xlink:href="#f" transform="translate(285 874)scale(3.2616667)"/>
		<use xlink:href="#a" transform="translate(304 874)scale(3.2616667)"/>
		<use xlink:href="#b" transform="translate(380 874)scale(3.2616667)"/>
		<use xlink:href="#b" transform="translate(399 874)scale(3.2616667)"/>
		<use xlink:href="#b" transform="translate(475 874)scale(3.2616667)"/>
		<use xlink:href="#a" transform="translate(532 874)scale(3.2616667)"/>
		<use xlink:href="#e" transform="translate(570 874)scale(3.2616667)"/>
		<use xlink:href="#e" transform="translate(627 874)scale(3.2616667)"/>
		<use xlink:href="#h" transform="translate(646 874)scale(3.2616667)"/>
		<use xlink:href="#h" transform="translate(665 874)scale(3.2616667)"/>
		<use xlink:href="#h" transform="translate(684 874)scale(3.2616667)"/>
		<use xlink:href="#d" transform="translate(722 874)scale(3.2616667)"/>
		<use xlink:href="#g" transform="translate(741 874)scale(3.2616667)"/>
		<use xlink:href="#h" transform="translate(817 874)scale(3.2616667)"/>
		<use xlink:href="#e" transform="translate(874 874)scale(3.2616667)"/>
		<use xlink:href="#a" transform="translate(912 874)scale(3.2616667)"/>
		<use xlink:href="#g" transform="translate(190 893)scale(3.2616667)"/>
		<use xlink:href="#a" transform="translate(228 893)scale(3.2616667)"/>
		<use xlink:href="#g" transform="translate(247 893)scale(3.2616667)"/>
		<use xlink:href="#b" transform="translate(285 893)scale(3.2616667)"/>
		<use xlink:href="#f" transform="translate(304 893)scale(3.2616667)"/>
		<use xlink:href="#f" transform="translate(323 893)scale(3.2616667)"/>
		<use xlink:href="#a" transform="translate(342 893)scale(3.2616667)"/>
		<use xlink:href="#a" transform="translate(456 893)scale(3.2616667)"/>
		<use xlink:href="#a" transform="translate(494 893)scale(3.2616667)"/>
		<use xlink:href="#h" transform="translate(608 893)scale(3.2616667)"/>
		<use xlink:href="#c" transform="translate(779 893)scale(3.2616667)"/>
		<use xlink:href="#a" transform="translate(817 893)scale(3.2616667)"/>
		<use xlink:href="#a" transform="translate(836 893)scale(3.2616667)"/>
		<use xlink:href="#f" transform="translate(912 893)scale(3.2616667)"/>
		<use xlink:href="#e" transform="translate(209 912)scale(3.2616667)"/>
		<use xlink:href="#a" transform="translate(228 912)scale(3.2616667)"/>
		<use xlink:href="#b" transform="translate(304 912)scale(3.2616667)"/>
		<use xlink:href="#f" transform="translate(323 912)scale(3.2616667)"/>
		<use xlink:href="#a" transform="translate(342 912)scale(3.2616667)"/>
		<use xlink:href="#f" transform="translate(437 912)scale(3.2616667)"/>
		<use xlink:href="#a" transform="translate(475 912)scale(3.2616667)"/>
		<use xlink:href="#f" transform="translate(589 912)scale(3.2616667)"/>
		<use xlink:href="#b" transform="translate(627 912)scale(3.2616667)"/>
		<use xlink:href="#a" transform="translate(646 912)scale(3.2616667)"/>
		<use xlink:href="#h" transform="translate(665 912)scale(3.2616667)"/>
		<use xlink:href="#c" transform="translate(684 912)scale(3.2616667)"/>
		<use xlink:href="#h" transform="translate(703 912)scale(3.2616667)"/>
		<use xlink:href="#f" transform="translate(722 912)scale(3.2616667)"/>
		<use xlink:href="#d" transform="translate(741 912)scale(3.2616667)"/>
		<use xlink:href="#d" transform="translate(817 912)scale(3.2616667)"/>
		<use xlink:href="#h" transform="translate(836 912)scale(3.2616667)"/>
		<use xlink:href="#a" transform="translate(855 912)scale(3.2616667)"/>
		<use xlink:href="#a" transform="translate(874 912)scale(3.2616667)"/>
		<use xlink:href="#a" transform="translate(893 912)scale(3.2616667)"/>
		<use xlink:href="#h" transform="translate(912 912)scale(3.2616667)"/>
	</g>
	<use xlink:href="#i" transform="scale(9.5)"/>
	<use xlink:href="#i" transform="translate(798)scale(9.5)"/>
	<use xlink:href="#i" transform="matrix(9.5 0 0 9.5 0 798)"/>
	<use xlink:href="#j" transform="matrix(9.5 0 0 9.5 38 38)"/>
	<use xlink:href="#j" transform="matrix(9.5 0 0 9.5 836 38)"/>
	<use xlink:href="#j" transform="matrix(9.5 0 0 9.5 38 836)"/>
</svg>