<svg height="931.57001" width="931.57001" xmlns="http://www.w3.org/2000/svg">
	<g fill="#27213c" stroke-width="3.2616667">
		<circle cx="161.7850001" cy="9.7850001" fill="#5a352a" r="6.5233334"/>
		<circle cx="237.7850001" cy="9.7850001" r="6.5233334"/>
		<circle cx="275.7850001" cy="9.7850001" fill="#a33b20" r="6.5233334"/>
		<circle cx="294.7850001" cy="9.7850001" fill="#a33b20" r="6.5233334"/>
		<circle cx="313.7850001" cy="9.7850001" r="6.5233334"/>
		<circle cx="389.7850001" cy="9.7850001" fill="#a33b20" r="6.5233334"/>
		<circle cx="465.7850001" cy="9.7850001" r="6.5233334"/>
		<circle cx="503.7850001" cy="9.7850001" fill="#5a352a" r="6.5233334"/>
		<circle cx="560.7850001" cy="9.7850001" r="9.7850001"/>
		<circle cx="579.7850001" cy="9.7850001" fill="#5a352a" r="6.5233334"/>
		<circle cx="674.7850001" cy="9.7850001" r="6.5233334"/>
		<circle cx="712.7850001" cy="9.7850001" r="6.5233334"/>
		<circle cx="769.7850001" cy="9.7850001" fill="#a33b20" r="6.5233334"/>
		<circle cx="161.7850001" cy="28.7850001" fill="#a47963" r="6.5233334"/>
		<circle cx="180.7850001" cy="28.7850001" fill="#a33b20" r="6.5233334"/>
		<circle cx="199.7850001" cy="28.7850001" fill="#5a352a" r="6.5233334"/>
		<circle cx="256.7850001" cy="28.7850001" r="6.5233334"/>
		<circle cx="275.7850001" cy="28.7850001" fill="#5a352a" r="6.5233334"/>
		<circle cx="294.7850001" cy="28.7850001" r="6.5233334"/>
		<circle cx="313.7850001" cy="28.7850001" r="6.5233334"/>
		<circle cx="389.7850001" cy="28.7850001" r="6.5233334"/>
		<circle cx="408.7850001" cy="28.7850001" fill="#a33b20" r="6.5233334"/>
		<circle cx="446.7850001" cy="28.7850001" fill="#a47963" r="6.5233334"/>
		<circle cx="465.7850001" cy="28.7850001" r="6.5233334"/>
		<circle cx="484.7850001" cy="28.7850001" fill="#a47963" r="6.5233334"/>
		<circle cx="541.7850001" cy="28.7850001" fill="#a47963" r="6.5233334"/>
		<circle cx="579.7850001" cy="28.7850001" r="9.7850001"/>
		<circle cx="598.7850001" cy="28.7850001" fill="#a47963" r="9.7850001"/>
		<circle cx="636.7850001" cy="28.7850001" fill="#a33b20" r="6.5233334"/>
		<circle cx="655.7850001" cy="28.7850001" r="6.5233334"/>
		<circle cx="674.7850001" cy="28.7850001" fill="#a47963" r="6.5233334"/>
		<circle cx="693.7850001" cy="28.7850001" fill="#a33b20" r="6.5233334"/>
		<circle cx="712.7850001" cy="28.7850001" r="6.5233334"/>
		<circle cx="731.7850001" cy="28.7850001" r="6.5233334"/>
		<circle cx="750.7850001" cy="28.7850001" fill="#a33b20" r="6.5233334"/>
		<circle cx="769.7850001" cy="28.7850001" fill="#5a352a" r="6.5233334"/>
		<circle cx="161.7850001" cy="47.7850001" r="9.7850001"/>
		<circle cx="180.7850001" cy="47.7850001" fill="#5a352a" r="6.5233334"/>
		<circle cx="199.7850001" cy="47.7850001" fill="#a47963" r="6.5233334"/>
		<circle cx="218.7850001" cy="47.7850001" r="6.5233334"/>
		<circle cx="237.7850001" cy="47.7850001" fill="#a47963" r="6.5233334"/>
		<circle cx="256.7850001" cy="47.7850001" fill="#a33b20" r="6.5233334"/>
		<circle cx="275.7850001" cy="47.7850001" fill="#5a352a" r="6.5233334"/>
		<circle cx="313.7850001" cy="47.7850001" fill="#a33b20" r="6.5233334"/>
		<circle cx="351.7850001" cy="47.7850001" r="6.5233334"/>
		<circle cx="389.7850001" cy="47.7850001" fill="#5a352a" r="9.7850001"/>
		<circle cx="408.7850001" cy="47.7850001" fill="#5a352a" r="6.5233334"/>
		<circle cx="446.7850001" cy="47.7850001" r="9.7850001"/>
		<circle cx="484.7850001" cy="47.7850001" r="6.5233334"/>
		<circle cx="503.7850001" cy="47.7850001" fill="#a33b20" r="6.5233334"/>
		<circle cx="522.7850001" cy="47.7850001" fill="#a33b20" r="6.5233334"/>
		<circle cx="541.7850001" cy="47.7850001" fill="#a47963" r="6.5233334"/>
		<circle cx="560.7850001" cy="47.7850001" fill="#5a352a" r="9.7850001"/>
		<circle cx="617.7850001" cy="47.7850001" fill="#5a352a" r="9.7850001"/>
		<circle cx="636.7850001" cy="47.7850001" fill="#a33b20" r="6.5233334"/>
		<circle cx="655.7850001" cy="47.7850001" fill="#a47963" r="6.5233334"/>
		<circle cx="750.7850001" cy="47.7850001" fill="#a47963" r="6.5233334"/>
		<circle cx="769.7850001" cy="47.7850001" fill="#5a352a" r="6.5233334"/>
		<circle cx="218.7850001" cy="66.7850001" r="9.7850001"/>
		<circle cx="275.7850001" cy="66.7850001" fill="#a47963" r="6.5233334"/>
		<circle cx="313.7850001" cy="66.7850001" fill="#5a352a" r="6.5233334"/>
		<circle cx="332.7850001" cy="66.7850001" fill="#5a352a" r="6.5233334"/>
		<circle cx="351.7850001" cy="66.7850001" r="6.5233334"/>
		<circle cx="370.7850001" cy="66.7850001" r="9.7850001"/>
		<circle cx="408.7850001" cy="66.7850001" r="6.5233334"/>
		<circle cx="427.7850001" cy="66.7850001" fill="#a47963" r="6.5233334"/>
		<circle cx="484.7850001" cy="66.7850001" fill="#a33b20" r="6.5233334"/>
		<circle cx="503.7850001" cy="66.7850001" r="6.5233334"/>
		<circle cx="541.7850001" cy="66.7850001" r="6.5233334"/>
		<circle cx="598.7850001" cy="66.7850001" r="6.5233334"/>
		<circle cx="674.7850001" cy="66.7850001" r="9.7850001"/>
		<circle cx="693.7850001" cy="66.7850001" r="6.5233334"/>
		<circle cx="712.7850001" cy="66.7850001" fill="#a33b20" r="6.5233334"/>
		<circle cx="750.7850001" cy="66.7850001" r="9.7850001"/>
		<circle cx="180.7850001" cy="85.7850001" fill="#a47963" r="6.5233334"/>
		<circle cx="275.7850001" cy="85.7850001" fill="#5a352a" r="9.7850001"/>
		<circle cx="313.7850001" cy="85.7850001" fill="#5a352a" r="6.5233334"/>
		<circle cx="332.7850001" cy="85.7850001" fill="#a47963" r="6.5233334"/>
		<circle cx="351.7850001" cy="85.7850001" fill="#5a352a" r="6.5233334"/>
		<circle cx="408.7850001" cy="85.7850001" r="6.5233334"/>
		<circle cx="427.7850001" cy="85.7850001" fill="#a47963" r="6.5233334"/>
		<circle cx="446.7850001" cy="85.7850001" r="6.5233334"/>
		<circle cx="465.7850001" cy="85.7850001" r="6.5233334"/>
		<circle cx="484.7850001" cy="85.7850001" r="6.5233334"/>
		<circle cx="503.7850001" cy="85.7850001" fill="#a47963" r="6.5233334"/>
		<g fill="#a33b20">
			<circle cx="541.7850001" cy="85.7850001" r="6.5233334"/>
			<circle cx="560.7850001" cy="85.7850001" r="9.7850001"/>
			<circle cx="598.7850001" cy="85.7850001" r="6.5233334"/>
		</g>
		<circle cx="712.7850001" cy="85.7850001" fill="#a47963" r="9.7850001"/>
		<circle cx="161.7850001" cy="104.7850001" r="6.5233334"/>
		<circle cx="180.7850001" cy="104.7850001" fill="#a47963" r="6.5233334"/>
		<circle cx="237.7850001" cy="104.7850001" r="6.5233334"/>
		<circle cx="256.7850001" cy="104.7850001" fill="#a47963" r="9.7850001"/>
		<circle cx="313.7850001" cy="104.7850001" fill="#5a352a" r="6.5233334"/>
		<circle cx="351.7850001" cy="104.7850001" r="6.5233334"/>
		<circle cx="389.7850001" cy="104.7850001" fill="#a47963" r="6.5233334"/>
		<circle cx="408.7850001" cy="104.7850001" fill="#a33b20" r="6.5233334"/>
		<circle cx="427.7850001" cy="104.7850001" fill="#a47963" r="6.5233334"/>
		<circle cx="503.7850001" cy="104.7850001" fill="#a47963" r="6.5233334"/>
		<circle cx="541.7850001" cy="104.7850001" fill="#a33b20" r="6.5233334"/>
		<circle cx="579.7850001" cy="104.7850001" r="6.5233334"/>
		<circle cx="598.7850001" cy="104.7850001" r="6.5233334"/>
		<circle cx="617.7850001" cy="104.7850001" r="6.5233334"/>
		<circle cx="655.7850001" cy="104.7850001" fill="#a47963" r="6.5233334"/>
		<circle cx="674.7850001" cy="104.7850001" fill="#5a352a" r="9.7850001"/>
		<circle cx="731.7850001" cy="104.7850001" r="6.5233334"/>
		<circle cx="161.7850001" cy="123.7850001" fill="#a47963" r="6.5233334"/>
		<circle cx="199.7850001" cy="123.7850001" r="6.5233334"/>
		<circle cx="237.7850001" cy="123.7850001" fill="#5a352a" r="6.5233334"/>
		<circle cx="275.7850001" cy="123.7850001" fill="#a47963" r="6.5233334"/>
		<circle cx="313.7850001" cy="123.7850001" fill="#a33b20" r="9.7850001"/>
		<circle cx="351.7850001" cy="123.7850001" fill="#a47963" r="9.7850001"/>
		<circle cx="389.7850001" cy="123.7850001" fill="#5a352a" r="6.5233334"/>
		<circle cx="427.7850001" cy="123.7850001" fill="#a33b20" r="6.5233334"/>
		<circle cx="465.7850001" cy="123.7850001" r="6.5233334"/>
		<circle cx="503.7850001" cy="123.7850001" fill="#a47963" r="6.5233334"/>
		<circle cx="541.7850001" cy="123.7850001" fill="#5a352a" r="6.5233334"/>
		<circle cx="579.7850001" cy="123.7850001" r="6.5233334"/>
		<circle cx="617.7850001" cy="123.7850001" r="6.5233334"/>
		<circle cx="655.7850001" cy="123.7850001" fill="#a47963" r="6.5233334"/>
		<circle cx="693.7850001" cy="123.7850001" fill="#5a352a" r="6.5233334"/>
		<circle cx="731.7850001" cy="123.7850001" r="6.5233334"/>
		<circle cx="769.7850001" cy="123.7850001" fill="#5a352a" r="6.5233334"/>
		<circle cx="161.7850001" cy="142.7850001" fill="#5a352a" r="6.5233334"/>
		<circle cx="218.7850001" cy="142.7850001" r="6.5233334"/>
		<circle cx="237.7850001" cy="142.7850001" r="6.5233334"/>
		<circle cx="332.7850001" cy="142.7850001" fill="#a33b20" r="6.5233334"/>
		<circle cx="389.7850001" cy="142.7850001" r="9.7850001"/>
		<circle cx="427.7850001" cy="142.7850001" fill="#a47963" r="6.5233334"/>
		<circle cx="503.7850001" cy="142.7850001" fill="#5a352a" r="6.5233334"/>
		<circle cx="541.7850001" cy="142.7850001" fill="#a47963" r="6.5233334"/>
		<circle cx="579.7850001" cy="142.7850001" fill="#5a352a" r="9.7850001"/>
		<circle cx="617.7850001" cy="142.7850001" r="9.7850001"/>
		<circle cx="655.7850001" cy="142.7850001" r="6.5233334"/>
		<circle cx="693.7850001" cy="142.7850001" r="9.7850001"/>
		<circle cx="712.7850001" cy="142.7850001" fill="#a33b20" r="6.5233334"/>
		<circle cx="731.7850001" cy="142.7850001" fill="#a47963" r="6.5233334"/>
		<circle cx="47.7850001" cy="161.7850001" fill="#5a352a" r="6.5233334"/>
		<circle cx="66.7850001" cy="161.7850001" fill="#5a352a" r="6.5233334"/>
		<circle cx="85.7850001" cy="161.7850001" r="6.5233334"/>
		<circle cx="123.7850001" cy="161.7850001" fill="#a33b20" r="6.5233334"/>
		<circle cx="161.7850001" cy="161.7850001" r="9.7850001"/>
		<circle cx="199.7850001" cy="161.7850001" fill="#5a352a" r="9.7850001"/>
		<circle cx="218.7850001" cy="161.7850001" fill="#a47963" r="6.5233334"/>
		<circle cx="275.7850001" cy="161.7850001" fill="#5a352a" r="6.5233334"/>
		<circle cx="294.7850001" cy="161.7850001" fill="#a47963" r="6.5233334"/>
		<circle cx="313.7850001" cy="161.7850001" fill="#a33b20" r="6.5233334"/>
		<circle cx="427.7850001" cy="161.7850001" r="9.7850001"/>
		<circle cx="446.7850001" cy="161.7850001" r="6.5233334"/>
		<circle cx="465.7850001" cy="161.7850001" r="6.5233334"/>
		<circle cx="484.7850001" cy="161.7850001" fill="#a33b20" r="6.5233334"/>
		<circle cx="503.7850001" cy="161.7850001" fill="#a33b20" r="6.5233334"/>
		<circle cx="541.7850001" cy="161.7850001" fill="#5a352a" r="6.5233334"/>
		<circle cx="598.7850001" cy="161.7850001" fill="#5a352a" r="6.5233334"/>
		<circle cx="655.7850001" cy="161.7850001" r="9.7850001"/>
		<circle cx="674.7850001" cy="161.7850001" r="9.7850001"/>
		<circle cx="712.7850001" cy="161.7850001" r="6.5233334"/>
		<circle cx="750.7850001" cy="161.7850001" r="9.7850001"/>
		<circle cx="769.7850001" cy="161.7850001" fill="#5a352a" r="6.5233334"/>
		<circle cx="788.7850001" cy="161.7850001" r="6.5233334"/>
		<circle cx="807.7850001" cy="161.7850001" r="6.5233334"/>
		<circle cx="826.7850001" cy="161.7850001" fill="#a33b20" r="9.7850001"/>
		<circle cx="883.7850001" cy="161.7850001" fill="#a47963" r="9.7850001"/>
		<circle cx="902.7850001" cy="161.7850001" fill="#5a352a" r="6.5233334"/>
		<circle cx="921.7850001" cy="161.7850001" fill="#a47963" r="9.7850001"/>
		<circle cx="9.7850001" cy="180.7850001" r="9.7850001"/>
		<circle cx="28.7850001" cy="180.7850001" fill="#a47963" r="6.5233334"/>
		<circle cx="47.7850001" cy="180.7850001" r="6.5233334"/>
		<circle cx="85.7850001" cy="180.7850001" fill="#5a352a" r="9.7850001"/>
		<circle cx="180.7850001" cy="180.7850001" r="6.5233334"/>
		<circle cx="218.7850001" cy="180.7850001" fill="#5a352a" r="6.5233334"/>
		<circle cx="275.7850001" cy="180.7850001" r="6.5233334"/>
		<circle cx="294.7850001" cy="180.7850001" r="6.5233334"/>
		<g fill="#a47963">
			<circle cx="313.7850001" cy="180.7850001" r="6.5233334"/>
			<circle cx="351.7850001" cy="180.7850001" r="6.5233334"/>
			<circle cx="389.7850001" cy="180.7850001" r="6.5233334"/>
		</g>
		<circle cx="446.7850001" cy="180.7850001" fill="#5a352a" r="6.5233334"/>
		<circle cx="484.7850001" cy="180.7850001" fill="#a33b20" r="6.5233334"/>
		<circle cx="522.7850001" cy="180.7850001" r="6.5233334"/>
		<circle cx="541.7850001" cy="180.7850001" fill="#a47963" r="6.5233334"/>
		<circle cx="617.7850001" cy="180.7850001" fill="#a47963" r="6.5233334"/>
		<circle cx="712.7850001" cy="180.7850001" fill="#a33b20" r="9.7850001"/>
		<circle cx="788.7850001" cy="180.7850001" fill="#a47963" r="9.7850001"/>
		<circle cx="807.7850001" cy="180.7850001" r="6.5233334"/>
		<circle cx="902.7850001" cy="180.7850001" r="6.5233334"/>
		<circle cx="47.7850001" cy="199.7850001" r="6.5233334"/>
		<circle cx="66.7850001" cy="199.7850001" fill="#a47963" r="9.7850001"/>
		<circle cx="104.7850001" cy="199.7850001" r="9.7850001"/>
		<circle cx="123.7850001" cy="199.7850001" fill="#a33b20" r="6.5233334"/>
		<circle cx="142.7850001" cy="199.7850001" r="6.5233334"/>
		<circle cx="161.7850001" cy="199.7850001" r="6.5233334"/>
		<g fill="#a33b20">
			<circle cx="180.7850001" cy="199.7850001" r="6.5233334"/>
			<circle cx="218.7850001" cy="199.7850001" r="6.5233334"/>
			<circle cx="275.7850001" cy="199.7850001" r="6.5233334"/>
		</g>
		<circle cx="313.7850001" cy="199.7850001" r="6.5233334"/>
		<circle cx="427.7850001" cy="199.7850001" r="9.7850001"/>
		<circle cx="446.7850001" cy="199.7850001" fill="#a47963" r="6.5233334"/>
		<circle cx="465.7850001" cy="199.7850001" fill="#a33b20" r="6.5233334"/>
		<circle cx="484.7850001" cy="199.7850001" fill="#a47963" r="6.5233334"/>
		<circle cx="522.7850001" cy="199.7850001" fill="#a33b20" r="6.5233334"/>
		<circle cx="636.7850001" cy="199.7850001" fill="#a47963" r="6.5233334"/>
		<circle cx="674.7850001" cy="199.7850001" r="6.5233334"/>
		<circle cx="731.7850001" cy="199.7850001" fill="#a33b20" r="6.5233334"/>
		<circle cx="769.7850001" cy="199.7850001" r="6.5233334"/>
		<circle cx="826.7850001" cy="199.7850001" r="6.5233334"/>
		<circle cx="902.7850001" cy="199.7850001" r="6.5233334"/>
		<circle cx="921.7850001" cy="199.7850001" fill="#a33b20" r="9.7850001"/>
		<circle cx="9.7850001" cy="218.7850001" r="6.5233334"/>
		<circle cx="28.7850001" cy="218.7850001" fill="#a33b20" r="6.5233334"/>
		<circle cx="47.7850001" cy="218.7850001" fill="#5a352a" r="6.5233334"/>
		<circle cx="161.7850001" cy="218.7850001" fill="#a33b20" r="9.7850001"/>
		<circle cx="218.7850001" cy="218.7850001" r="9.7850001"/>
		<circle cx="237.7850001" cy="218.7850001" r="6.5233334"/>
		<circle cx="256.7850001" cy="218.7850001" fill="#a47963" r="6.5233334"/>
		<circle cx="275.7850001" cy="218.7850001" r="6.5233334"/>
		<circle cx="294.7850001" cy="218.7850001" fill="#5a352a" r="6.5233334"/>
		<circle cx="313.7850001" cy="218.7850001" fill="#a47963" r="6.5233334"/>
		<circle cx="351.7850001" cy="218.7850001" fill="#a47963" r="6.5233334"/>
		<circle cx="389.7850001" cy="218.7850001" fill="#a33b20" r="6.5233334"/>
		<circle cx="446.7850001" cy="218.7850001" r="6.5233334"/>
		<circle cx="465.7850001" cy="218.7850001" r="6.5233334"/>
		<circle cx="503.7850001" cy="218.7850001" r="6.5233334"/>
		<g fill="#a33b20">
			<circle cx="522.7850001" cy="218.7850001" r="6.5233334"/>
			<circle cx="541.7850001" cy="218.7850001" r="6.5233334"/>
			<circle cx="655.7850001" cy="218.7850001" r="6.5233334"/>
		</g>
		<circle cx="750.7850001" cy="218.7850001" r="6.5233334"/>
		<circle cx="788.7850001" cy="218.7850001" r="6.5233334"/>
		<circle cx="845.7850001" cy="218.7850001" fill="#5a352a" r="6.5233334"/>
		<circle cx="902.7850001" cy="218.7850001" fill="#5a352a" r="6.5233334"/>
		<circle cx="9.7850001" cy="237.7850001" fill="#a33b20" r="6.5233334"/>
		<circle cx="28.7850001" cy="237.7850001" r="6.5233334"/>
		<circle cx="104.7850001" cy="237.7850001" r="9.7850001"/>
		<circle cx="123.7850001" cy="237.7850001" fill="#a47963" r="9.7850001"/>
		<circle cx="180.7850001" cy="237.7850001" fill="#a33b20" r="6.5233334"/>
		<circle cx="237.7850001" cy="237.7850001" r="9.7850001"/>
		<circle cx="256.7850001" cy="237.7850001" r="6.5233334"/>
		<circle cx="275.7850001" cy="237.7850001" fill="#a33b20" r="6.5233334"/>
		<circle cx="351.7850001" cy="237.7850001" fill="#a47963" r="6.5233334"/>
		<circle cx="389.7850001" cy="237.7850001" fill="#a33b20" r="9.7850001"/>
		<circle cx="427.7850001" cy="237.7850001" fill="#a33b20" r="9.7850001"/>
		<circle cx="446.7850001" cy="237.7850001" fill="#a47963" r="6.5233334"/>
		<circle cx="465.7850001" cy="237.7850001" r="6.5233334"/>
		<circle cx="503.7850001" cy="237.7850001" r="6.5233334"/>
		<circle cx="541.7850001" cy="237.7850001" r="6.5233334"/>
		<circle cx="560.7850001" cy="237.7850001" fill="#a33b20" r="6.5233334"/>
		<circle cx="579.7850001" cy="237.7850001" fill="#a47963" r="6.5233334"/>
		<circle cx="674.7850001" cy="237.7850001" fill="#a33b20" r="6.5233334"/>
		<g fill="#a47963">
			<circle cx="693.7850001" cy="237.7850001" r="6.5233334"/>
			<circle cx="731.7850001" cy="237.7850001" r="9.7850001"/>
			<circle cx="750.7850001" cy="237.7850001" r="6.5233334"/>
		</g>
		<circle cx="769.7850001" cy="237.7850001" r="9.7850001"/>
		<circle cx="826.7850001" cy="237.7850001" r="6.5233334"/>
		<circle cx="864.7850001" cy="237.7850001" fill="#a33b20" r="6.5233334"/>
		<circle cx="883.7850001" cy="237.7850001" fill="#a33b20" r="6.5233334"/>
		<circle cx="902.7850001" cy="237.7850001" r="6.5233334"/>
		<circle cx="9.7850001" cy="256.7850001" r="6.5233334"/>
		<circle cx="47.7850001" cy="256.7850001" r="6.5233334"/>
		<circle cx="66.7850001" cy="256.7850001" fill="#5a352a" r="6.5233334"/>
		<circle cx="85.7850001" cy="256.7850001" fill="#5a352a" r="9.7850001"/>
		<circle cx="161.7850001" cy="256.7850001" fill="#a47963" r="6.5233334"/>
		<circle cx="199.7850001" cy="256.7850001" fill="#a33b20" r="6.5233334"/>
		<circle cx="256.7850001" cy="256.7850001" fill="#a47963" r="9.7850001"/>
		<circle cx="313.7850001" cy="256.7850001" r="6.5233334"/>
		<circle cx="351.7850001" cy="256.7850001" fill="#5a352a" r="9.7850001"/>
		<circle cx="446.7850001" cy="256.7850001" r="6.5233334"/>
		<circle cx="484.7850001" cy="256.7850001" r="9.7850001"/>
		<circle cx="503.7850001" cy="256.7850001" fill="#a47963" r="6.5233334"/>
		<circle cx="522.7850001" cy="256.7850001" fill="#a33b20" r="6.5233334"/>
		<circle cx="541.7850001" cy="256.7850001" r="6.5233334"/>
		<circle cx="579.7850001" cy="256.7850001" fill="#a33b20" r="6.5233334"/>
		<circle cx="617.7850001" cy="256.7850001" r="6.5233334"/>
		<g fill="#a33b20">
			<circle cx="674.7850001" cy="256.7850001" r="6.5233334"/>
			<circle cx="693.7850001" cy="256.7850001" r="6.5233334"/>
			<circle cx="712.7850001" cy="256.7850001" r="9.7850001"/>
		</g>
		<circle cx="750.7850001" cy="256.7850001" fill="#a47963" r="9.7850001"/>
		<circle cx="788.7850001" cy="256.7850001" r="6.5233334"/>
		<circle cx="807.7850001" cy="256.7850001" r="6.5233334"/>
		<circle cx="826.7850001" cy="256.7850001" fill="#a33b20" r="6.5233334"/>
		<circle cx="864.7850001" cy="256.7850001" fill="#5a352a" r="9.7850001"/>
		<circle cx="9.7850001" cy="275.7850001" fill="#a47963" r="6.5233334"/>
		<circle cx="28.7850001" cy="275.7850001" r="6.5233334"/>
		<circle cx="47.7850001" cy="275.7850001" fill="#a47963" r="6.5233334"/>
		<circle cx="123.7850001" cy="275.7850001" fill="#a47963" r="9.7850001"/>
		<g fill="#a33b20">
			<circle cx="142.7850001" cy="275.7850001" r="6.5233334"/>
			<circle cx="161.7850001" cy="275.7850001" r="6.5233334"/>
			<circle cx="199.7850001" cy="275.7850001" r="9.7850001"/>
			<circle cx="237.7850001" cy="275.7850001" r="6.5233334"/>
		</g>
		<circle cx="332.7850001" cy="275.7850001" r="6.5233334"/>
		<circle cx="389.7850001" cy="275.7850001" r="6.5233334"/>
		<circle cx="408.7850001" cy="275.7850001" fill="#a47963" r="6.5233334"/>
		<circle cx="427.7850001" cy="275.7850001" r="6.5233334"/>
		<circle cx="446.7850001" cy="275.7850001" r="6.5233334"/>
		<circle cx="465.7850001" cy="275.7850001" r="9.7850001"/>
		<g fill="#a47963">
			<circle cx="541.7850001" cy="275.7850001" r="6.5233334"/>
			<circle cx="579.7850001" cy="275.7850001" r="6.5233334"/>
			<circle cx="636.7850001" cy="275.7850001" r="6.5233334"/>
			<circle cx="655.7850001" cy="275.7850001" r="6.5233334"/>
			<circle cx="674.7850001" cy="275.7850001" r="6.5233334"/>
		</g>
		<circle cx="693.7850001" cy="275.7850001" r="6.5233334"/>
		<circle cx="731.7850001" cy="275.7850001" r="6.5233334"/>
		<circle cx="769.7850001" cy="275.7850001" fill="#5a352a" r="6.5233334"/>
		<circle cx="788.7850001" cy="275.7850001" r="6.5233334"/>
		<circle cx="845.7850001" cy="275.7850001" fill="#a47963" r="6.5233334"/>
		<circle cx="902.7850001" cy="275.7850001" fill="#a47963" r="6.5233334"/>
		<circle cx="921.7850001" cy="275.7850001" r="6.5233334"/>
		<circle cx="9.7850001" cy="294.7850001" r="6.5233334"/>
		<circle cx="47.7850001" cy="294.7850001" fill="#5a352a" r="9.7850001"/>
		<circle cx="66.7850001" cy="294.7850001" r="6.5233334"/>
		<circle cx="85.7850001" cy="294.7850001" r="9.7850001"/>
		<circle cx="180.7850001" cy="294.7850001" fill="#a33b20" r="6.5233334"/>
		<circle cx="275.7850001" cy="294.7850001" fill="#a47963" r="6.5233334"/>
		<circle cx="332.7850001" cy="294.7850001" r="9.7850001"/>
		<circle cx="351.7850001" cy="294.7850001" r="6.5233334"/>
		<circle cx="370.7850001" cy="294.7850001" fill="#a33b20" r="6.5233334"/>
		<circle cx="389.7850001" cy="294.7850001" r="6.5233334"/>
		<circle cx="484.7850001" cy="294.7850001" fill="#a33b20" r="6.5233334"/>
		<circle cx="503.7850001" cy="294.7850001" fill="#a47963" r="6.5233334"/>
		<circle cx="522.7850001" cy="294.7850001" r="6.5233334"/>
		<circle cx="541.7850001" cy="294.7850001" r="6.5233334"/>
		<circle cx="560.7850001" cy="294.7850001" fill="#a47963" r="6.5233334"/>
		<circle cx="579.7850001" cy="294.7850001" r="6.5233334"/>
		<circle cx="598.7850001" cy="294.7850001" r="6.5233334"/>
		<circle cx="617.7850001" cy="294.7850001" r="6.5233334"/>
		<circle cx="636.7850001" cy="294.7850001" r="6.5233334"/>
		<circle cx="769.7850001" cy="294.7850001" fill="#a47963" r="9.7850001"/>
		<circle cx="788.7850001" cy="294.7850001" r="6.5233334"/>
		<circle cx="845.7850001" cy="294.7850001" fill="#a33b20" r="9.7850001"/>
		<circle cx="864.7850001" cy="294.7850001" fill="#a33b20" r="9.7850001"/>
		<circle cx="902.7850001" cy="294.7850001" r="6.5233334"/>
		<circle cx="921.7850001" cy="294.7850001" r="6.5233334"/>
		<circle cx="9.7850001" cy="313.7850001" r="9.7850001"/>
		<circle cx="66.7850001" cy="313.7850001" fill="#a47963" r="6.5233334"/>
		<circle cx="104.7850001" cy="313.7850001" fill="#5a352a" r="9.7850001"/>
		<circle cx="123.7850001" cy="313.7850001" fill="#a33b20" r="6.5233334"/>
		<circle cx="142.7850001" cy="313.7850001" fill="#a47963" r="9.7850001"/>
		<circle cx="180.7850001" cy="313.7850001" fill="#a47963" r="6.5233334"/>
		<circle cx="218.7850001" cy="313.7850001" fill="#5a352a" r="9.7850001"/>
		<circle cx="237.7850001" cy="313.7850001" r="6.5233334"/>
		<circle cx="275.7850001" cy="313.7850001" fill="#5a352a" r="9.7850001"/>
		<circle cx="294.7850001" cy="313.7850001" r="6.5233334"/>
		<circle cx="313.7850001" cy="313.7850001" fill="#a47963" r="9.7850001"/>
		<circle cx="370.7850001" cy="313.7850001" fill="#a47963" r="6.5233334"/>
		<circle cx="408.7850001" cy="313.7850001" r="6.5233334"/>
		<circle cx="427.7850001" cy="313.7850001" r="6.5233334"/>
		<g fill="#a33b20">
			<circle cx="446.7850001" cy="313.7850001" r="6.5233334"/>
			<circle cx="484.7850001" cy="313.7850001" r="6.5233334"/>
			<circle cx="503.7850001" cy="313.7850001" r="6.5233334"/>
		</g>
		<circle cx="522.7850001" cy="313.7850001" fill="#a47963" r="6.5233334"/>
		<circle cx="560.7850001" cy="313.7850001" fill="#5a352a" r="9.7850001"/>
		<circle cx="579.7850001" cy="313.7850001" r="6.5233334"/>
		<circle cx="693.7850001" cy="313.7850001" fill="#5a352a" r="9.7850001"/>
		<circle cx="712.7850001" cy="313.7850001" fill="#a33b20" r="9.7850001"/>
		<circle cx="750.7850001" cy="313.7850001" fill="#a33b20" r="6.5233334"/>
		<circle cx="826.7850001" cy="313.7850001" r="6.5233334"/>
		<circle cx="902.7850001" cy="313.7850001" fill="#a33b20" r="9.7850001"/>
		<circle cx="921.7850001" cy="313.7850001" fill="#a33b20" r="6.5233334"/>
		<circle cx="47.7850001" cy="332.7850001" fill="#a47963" r="9.7850001"/>
		<circle cx="66.7850001" cy="332.7850001" fill="#a47963" r="6.5233334"/>
		<circle cx="161.7850001" cy="332.7850001" fill="#5a352a" r="9.7850001"/>
		<circle cx="180.7850001" cy="332.7850001" r="6.5233334"/>
		<circle cx="237.7850001" cy="332.7850001" r="6.5233334"/>
		<circle cx="351.7850001" cy="332.7850001" fill="#a33b20" r="9.7850001"/>
		<circle cx="370.7850001" cy="332.7850001" r="6.5233334"/>
		<circle cx="408.7850001" cy="332.7850001" fill="#a47963" r="9.7850001"/>
		<circle cx="446.7850001" cy="332.7850001" fill="#5a352a" r="9.7850001"/>
		<circle cx="484.7850001" cy="332.7850001" fill="#a33b20" r="9.7850001"/>
		<circle cx="579.7850001" cy="332.7850001" fill="#5a352a" r="6.5233334"/>
		<circle cx="598.7850001" cy="332.7850001" r="6.5233334"/>
		<circle cx="617.7850001" cy="332.7850001" r="6.5233334"/>
		<circle cx="636.7850001" cy="332.7850001" fill="#5a352a" r="9.7850001"/>
		<circle cx="769.7850001" cy="332.7850001" fill="#a47963" r="6.5233334"/>
		<circle cx="788.7850001" cy="332.7850001" r="9.7850001"/>
		<circle cx="826.7850001" cy="332.7850001" r="6.5233334"/>
		<circle cx="864.7850001" cy="332.7850001" r="6.5233334"/>
		<circle cx="883.7850001" cy="332.7850001" r="9.7850001"/>
		<circle cx="9.7850001" cy="351.7850001" fill="#a47963" r="9.7850001"/>
		<circle cx="28.7850001" cy="351.7850001" fill="#5a352a" r="9.7850001"/>
		<circle cx="85.7850001" cy="351.7850001" r="6.5233334"/>
		<circle cx="123.7850001" cy="351.7850001" r="6.5233334"/>
		<circle cx="180.7850001" cy="351.7850001" fill="#5a352a" r="6.5233334"/>
		<circle cx="237.7850001" cy="351.7850001" fill="#a33b20" r="6.5233334"/>
		<circle cx="256.7850001" cy="351.7850001" r="6.5233334"/>
		<circle cx="275.7850001" cy="351.7850001" fill="#a47963" r="6.5233334"/>
		<circle cx="294.7850001" cy="351.7850001" fill="#a33b20" r="9.7850001"/>
		<circle cx="370.7850001" cy="351.7850001" r="6.5233334"/>
		<circle cx="465.7850001" cy="351.7850001" fill="#a33b20" r="6.5233334"/>
		<circle cx="503.7850001" cy="351.7850001" fill="#5a352a" r="6.5233334"/>
		<circle cx="579.7850001" cy="351.7850001" fill="#5a352a" r="9.7850001"/>
		<circle cx="617.7850001" cy="351.7850001" r="9.7850001"/>
		<circle cx="674.7850001" cy="351.7850001" fill="#a33b20" r="6.5233334"/>
		<circle cx="712.7850001" cy="351.7850001" fill="#a47963" r="6.5233334"/>
		<circle cx="750.7850001" cy="351.7850001" r="9.7850001"/>
		<circle cx="769.7850001" cy="351.7850001" r="6.5233334"/>
		<circle cx="807.7850001" cy="351.7850001" fill="#a47963" r="6.5233334"/>
		<circle cx="826.7850001" cy="351.7850001" fill="#a33b20" r="6.5233334"/>
		<circle cx="845.7850001" cy="351.7850001" r="6.5233334"/>
		<circle cx="864.7850001" cy="351.7850001" r="6.5233334"/>
		<circle cx="902.7850001" cy="351.7850001" fill="#a33b20" r="9.7850001"/>
		<circle cx="921.7850001" cy="351.7850001" r="9.7850001"/>
		<circle cx="47.7850001" cy="370.7850001" fill="#a47963" r="6.5233334"/>
		<circle cx="85.7850001" cy="370.7850001" fill="#a33b20" r="6.5233334"/>
		<circle cx="161.7850001" cy="370.7850001" fill="#a33b20" r="9.7850001"/>
		<circle cx="180.7850001" cy="370.7850001" r="6.5233334"/>
		<circle cx="199.7850001" cy="370.7850001" fill="#5a352a" r="6.5233334"/>
		<circle cx="218.7850001" cy="370.7850001" fill="#a47963" r="6.5233334"/>
		<circle cx="237.7850001" cy="370.7850001" fill="#5a352a" r="6.5233334"/>
		<circle cx="256.7850001" cy="370.7850001" r="6.5233334"/>
		<circle cx="313.7850001" cy="370.7850001" r="9.7850001"/>
		<circle cx="332.7850001" cy="370.7850001" r="6.5233334"/>
		<circle cx="351.7850001" cy="370.7850001" r="6.5233334"/>
		<circle cx="370.7850001" cy="370.7850001" fill="#5a352a" r="6.5233334"/>
		<circle cx="389.7850001" cy="370.7850001" fill="#a33b20" r="9.7850001"/>
		<circle cx="427.7850001" cy="370.7850001" fill="#a33b20" r="9.7850001"/>
		<circle cx="446.7850001" cy="370.7850001" fill="#5a352a" r="6.5233334"/>
		<circle cx="465.7850001" cy="370.7850001" fill="#a47963" r="6.5233334"/>
		<circle cx="541.7850001" cy="370.7850001" r="6.5233334"/>
		<circle cx="560.7850001" cy="370.7850001" r="9.7850001"/>
		<circle cx="712.7850001" cy="370.7850001" fill="#5a352a" r="6.5233334"/>
		<circle cx="731.7850001" cy="370.7850001" fill="#a47963" r="6.5233334"/>
		<circle cx="769.7850001" cy="370.7850001" fill="#a33b20" r="9.7850001"/>
		<circle cx="807.7850001" cy="370.7850001" fill="#a47963" r="6.5233334"/>
		<g fill="#5a352a">
			<circle cx="826.7850001" cy="370.7850001" r="6.5233334"/>
			<circle cx="845.7850001" cy="370.7850001" r="6.5233334"/>
			<circle cx="9.7850001" cy="389.7850001" r="6.5233334"/>
			<circle cx="66.7850001" cy="389.7850001" r="6.5233334"/>
		</g>
		<circle cx="85.7850001" cy="389.7850001" r="6.5233334"/>
		<circle cx="104.7850001" cy="389.7850001" r="6.5233334"/>
		<circle cx="123.7850001" cy="389.7850001" fill="#5a352a" r="6.5233334"/>
		<circle cx="142.7850001" cy="389.7850001" fill="#5a352a" r="6.5233334"/>
		<circle cx="218.7850001" cy="389.7850001" fill="#a47963" r="9.7850001"/>
		<circle cx="237.7850001" cy="389.7850001" fill="#a47963" r="6.5233334"/>
		<g fill="#a33b20">
			<circle cx="256.7850001" cy="389.7850001" r="6.5233334"/>
			<circle cx="332.7850001" cy="389.7850001" r="9.7850001"/>
			<circle cx="351.7850001" cy="389.7850001" r="6.5233334"/>
		</g>
		<circle cx="446.7850001" cy="389.7850001" fill="#5a352a" r="6.5233334"/>
		<circle cx="465.7850001" cy="389.7850001" fill="#a33b20" r="6.5233334"/>
		<circle cx="484.7850001" cy="389.7850001" r="6.5233334"/>
		<circle cx="503.7850001" cy="389.7850001" fill="#a33b20" r="6.5233334"/>
		<circle cx="522.7850001" cy="389.7850001" r="6.5233334"/>
		<circle cx="541.7850001" cy="389.7850001" r="6.5233334"/>
		<circle cx="579.7850001" cy="389.7850001" fill="#a47963" r="9.7850001"/>
		<circle cx="598.7850001" cy="389.7850001" r="6.5233334"/>
		<circle cx="674.7850001" cy="389.7850001" fill="#5a352a" r="6.5233334"/>
		<circle cx="693.7850001" cy="389.7850001" fill="#a47963" r="6.5233334"/>
		<circle cx="712.7850001" cy="389.7850001" fill="#a47963" r="6.5233334"/>
		<circle cx="731.7850001" cy="389.7850001" fill="#a33b20" r="6.5233334"/>
		<circle cx="807.7850001" cy="389.7850001" fill="#a33b20" r="6.5233334"/>
		<circle cx="826.7850001" cy="389.7850001" fill="#5a352a" r="6.5233334"/>
		<circle cx="883.7850001" cy="389.7850001" fill="#a47963" r="6.5233334"/>
		<circle cx="66.7850001" cy="408.7850001" fill="#a33b20" r="9.7850001"/>
		<circle cx="85.7850001" cy="408.7850001" r="6.5233334"/>
		<circle cx="142.7850001" cy="408.7850001" r="6.5233334"/>
		<circle cx="161.7850001" cy="408.7850001" fill="#a47963" r="6.5233334"/>
		<circle cx="199.7850001" cy="408.7850001" fill="#a47963" r="6.5233334"/>
		<circle cx="275.7850001" cy="408.7850001" r="6.5233334"/>
		<circle cx="351.7850001" cy="408.7850001" fill="#a33b20" r="9.7850001"/>
		<circle cx="389.7850001" cy="408.7850001" fill="#5a352a" r="6.5233334"/>
		<circle cx="446.7850001" cy="408.7850001" fill="#a33b20" r="6.5233334"/>
		<circle cx="484.7850001" cy="408.7850001" r="6.5233334"/>
		<circle cx="503.7850001" cy="408.7850001" r="6.5233334"/>
		<circle cx="522.7850001" cy="408.7850001" r="6.5233334"/>
		<circle cx="541.7850001" cy="408.7850001" r="6.5233334"/>
		<circle cx="598.7850001" cy="408.7850001" fill="#a33b20" r="9.7850001"/>
		<circle cx="617.7850001" cy="408.7850001" fill="#a33b20" r="9.7850001"/>
		<circle cx="674.7850001" cy="408.7850001" fill="#a47963" r="9.7850001"/>
		<circle cx="712.7850001" cy="408.7850001" fill="#a33b20" r="9.7850001"/>
		<circle cx="807.7850001" cy="408.7850001" fill="#a47963" r="6.5233334"/>
		<circle cx="28.7850001" cy="427.7850001" fill="#a47963" r="6.5233334"/>
		<circle cx="47.7850001" cy="427.7850001" fill="#a33b20" r="9.7850001"/>
		<circle cx="85.7850001" cy="427.7850001" fill="#a47963" r="6.5233334"/>
		<circle cx="104.7850001" cy="427.7850001" r="6.5233334"/>
		<circle cx="123.7850001" cy="427.7850001" fill="#a33b20" r="6.5233334"/>
		<circle cx="142.7850001" cy="427.7850001" fill="#5a352a" r="6.5233334"/>
		<circle cx="161.7850001" cy="427.7850001" fill="#5a352a" r="6.5233334"/>
		<circle cx="218.7850001" cy="427.7850001" r="6.5233334"/>
		<circle cx="275.7850001" cy="427.7850001" r="9.7850001"/>
		<circle cx="313.7850001" cy="427.7850001" fill="#a33b20" r="6.5233334"/>
		<circle cx="370.7850001" cy="427.7850001" fill="#a47963" r="9.7850001"/>
		<circle cx="389.7850001" cy="427.7850001" fill="#5a352a" r="6.5233334"/>
		<circle cx="427.7850001" cy="427.7850001" r="6.5233334"/>
		<circle cx="446.7850001" cy="427.7850001" r="6.5233334"/>
		<circle cx="465.7850001" cy="427.7850001" fill="#a33b20" r="6.5233334"/>
		<circle cx="484.7850001" cy="427.7850001" r="6.5233334"/>
		<circle cx="503.7850001" cy="427.7850001" r="6.5233334"/>
		<circle cx="655.7850001" cy="427.7850001" fill="#a33b20" r="6.5233334"/>
		<circle cx="693.7850001" cy="427.7850001" r="6.5233334"/>
		<circle cx="731.7850001" cy="427.7850001" fill="#5a352a" r="6.5233334"/>
		<circle cx="769.7850001" cy="427.7850001" fill="#a47963" r="6.5233334"/>
		<circle cx="788.7850001" cy="427.7850001" fill="#5a352a" r="6.5233334"/>
		<circle cx="807.7850001" cy="427.7850001" r="6.5233334"/>
		<circle cx="826.7850001" cy="427.7850001" fill="#a47963" r="6.5233334"/>
		<circle cx="845.7850001" cy="427.7850001" fill="#5a352a" r="6.5233334"/>
		<circle cx="864.7850001" cy="427.7850001" r="9.7850001"/>
		<circle cx="902.7850001" cy="427.7850001" fill="#a47963" r="6.5233334"/>
		<circle cx="921.7850001" cy="427.7850001" fill="#a33b20" r="9.7850001"/>
		<circle cx="28.7850001" cy="446.7850001" r="9.7850001"/>
		<circle cx="66.7850001" cy="446.7850001" r="6.5233334"/>
		<circle cx="85.7850001" cy="446.7850001" r="6.5233334"/>
		<circle cx="161.7850001" cy="446.7850001" fill="#a33b20" r="6.5233334"/>
		<circle cx="180.7850001" cy="446.7850001" r="6.5233334"/>
		<circle cx="199.7850001" cy="446.7850001" r="6.5233334"/>
		<circle cx="218.7850001" cy="446.7850001" r="6.5233334"/>
		<circle cx="294.7850001" cy="446.7850001" fill="#5a352a" r="6.5233334"/>
		<circle cx="332.7850001" cy="446.7850001" fill="#5a352a" r="9.7850001"/>
		<circle cx="351.7850001" cy="446.7850001" r="6.5233334"/>
		<circle cx="389.7850001" cy="446.7850001" fill="#a47963" r="6.5233334"/>
		<circle cx="408.7850001" cy="446.7850001" r="6.5233334"/>
		<circle cx="427.7850001" cy="446.7850001" r="6.5233334"/>
		<circle cx="503.7850001" cy="446.7850001" r="6.5233334"/>
		<circle cx="560.7850001" cy="446.7850001" r="6.5233334"/>
		<circle cx="636.7850001" cy="446.7850001" fill="#5a352a" r="9.7850001"/>
		<circle cx="655.7850001" cy="446.7850001" fill="#a33b20" r="6.5233334"/>
		<circle cx="712.7850001" cy="446.7850001" fill="#a47963" r="6.5233334"/>
		<circle cx="769.7850001" cy="446.7850001" r="6.5233334"/>
		<circle cx="845.7850001" cy="446.7850001" fill="#5a352a" r="6.5233334"/>
		<circle cx="902.7850001" cy="446.7850001" r="9.7850001"/>
		<circle cx="66.7850001" cy="465.7850001" fill="#a47963" r="9.7850001"/>
		<circle cx="85.7850001" cy="465.7850001" r="6.5233334"/>
		<circle cx="123.7850001" cy="465.7850001" fill="#a47963" r="6.5233334"/>
		<circle cx="161.7850001" cy="465.7850001" r="6.5233334"/>
		<circle cx="199.7850001" cy="465.7850001" r="9.7850001"/>
		<circle cx="237.7850001" cy="465.7850001" fill="#a47963" r="9.7850001"/>
		<circle cx="256.7850001" cy="465.7850001" fill="#5a352a" r="9.7850001"/>
		<circle cx="294.7850001" cy="465.7850001" fill="#a33b20" r="9.7850001"/>
		<circle cx="351.7850001" cy="465.7850001" r="6.5233334"/>
		<circle cx="370.7850001" cy="465.7850001" fill="#a33b20" r="6.5233334"/>
		<circle cx="389.7850001" cy="465.7850001" r="6.5233334"/>
		<circle cx="427.7850001" cy="465.7850001" r="6.5233334"/>
		<circle cx="465.7850001" cy="465.7850001" fill="#5a352a" r="6.5233334"/>
		<circle cx="503.7850001" cy="465.7850001" r="6.5233334"/>
		<circle cx="522.7850001" cy="465.7850001" r="6.5233334"/>
		<circle cx="541.7850001" cy="465.7850001" r="6.5233334"/>
		<circle cx="560.7850001" cy="465.7850001" fill="#a33b20" r="6.5233334"/>
		<circle cx="579.7850001" cy="465.7850001" fill="#a47963" r="6.5233334"/>
		<circle cx="598.7850001" cy="465.7850001" fill="#a33b20" r="6.5233334"/>
		<circle cx="617.7850001" cy="465.7850001" fill="#a33b20" r="6.5233334"/>
		<circle cx="674.7850001" cy="465.7850001" r="9.7850001"/>
		<circle cx="693.7850001" cy="465.7850001" fill="#5a352a" r="6.5233334"/>
		<circle cx="712.7850001" cy="465.7850001" r="6.5233334"/>
		<circle cx="731.7850001" cy="465.7850001" r="9.7850001"/>
		<circle cx="769.7850001" cy="465.7850001" r="6.5233334"/>
		<circle cx="807.7850001" cy="465.7850001" r="6.5233334"/>
		<circle cx="845.7850001" cy="465.7850001" r="6.5233334"/>
		<circle cx="864.7850001" cy="465.7850001" fill="#a33b20" r="6.5233334"/>
		<circle cx="883.7850001" cy="465.7850001" r="9.7850001"/>
		<circle cx="921.7850001" cy="465.7850001" r="6.5233334"/>
		<circle cx="28.7850001" cy="484.7850001" fill="#5a352a" r="6.5233334"/>
		<circle cx="85.7850001" cy="484.7850001" r="6.5233334"/>
		<circle cx="161.7850001" cy="484.7850001" r="6.5233334"/>
		<circle cx="275.7850001" cy="484.7850001" r="6.5233334"/>
		<circle cx="351.7850001" cy="484.7850001" r="9.7850001"/>
		<circle cx="408.7850001" cy="484.7850001" fill="#a33b20" r="9.7850001"/>
		<circle cx="427.7850001" cy="484.7850001" fill="#a33b20" r="6.5233334"/>
		<circle cx="503.7850001" cy="484.7850001" fill="#5a352a" r="6.5233334"/>
		<circle cx="617.7850001" cy="484.7850001" r="6.5233334"/>
		<circle cx="712.7850001" cy="484.7850001" r="9.7850001"/>
		<circle cx="769.7850001" cy="484.7850001" fill="#5a352a" r="6.5233334"/>
		<circle cx="845.7850001" cy="484.7850001" r="6.5233334"/>
		<circle cx="864.7850001" cy="484.7850001" fill="#a33b20" r="6.5233334"/>
		<circle cx="921.7850001" cy="484.7850001" r="9.7850001"/>
		<circle cx="66.7850001" cy="503.7850001" fill="#a33b20" r="6.5233334"/>
		<circle cx="85.7850001" cy="503.7850001" fill="#a47963" r="6.5233334"/>
		<circle cx="104.7850001" cy="503.7850001" r="6.5233334"/>
		<circle cx="123.7850001" cy="503.7850001" fill="#a47963" r="6.5233334"/>
		<circle cx="142.7850001" cy="503.7850001" fill="#a47963" r="6.5233334"/>
		<circle cx="161.7850001" cy="503.7850001" r="6.5233334"/>
		<circle cx="199.7850001" cy="503.7850001" fill="#5a352a" r="6.5233334"/>
		<circle cx="256.7850001" cy="503.7850001" fill="#5a352a" r="6.5233334"/>
		<circle cx="275.7850001" cy="503.7850001" fill="#a47963" r="6.5233334"/>
		<circle cx="427.7850001" cy="503.7850001" fill="#a33b20" r="9.7850001"/>
		<circle cx="446.7850001" cy="503.7850001" r="6.5233334"/>
		<circle cx="465.7850001" cy="503.7850001" r="6.5233334"/>
		<g fill="#5a352a">
			<circle cx="484.7850001" cy="503.7850001" r="6.5233334"/>
			<circle cx="503.7850001" cy="503.7850001" r="6.5233334"/>
			<circle cx="541.7850001" cy="503.7850001" r="6.5233334"/>
		</g>
		<circle cx="598.7850001" cy="503.7850001" fill="#a47963" r="6.5233334"/>
		<circle cx="617.7850001" cy="503.7850001" r="6.5233334"/>
		<circle cx="655.7850001" cy="503.7850001" r="9.7850001"/>
		<circle cx="674.7850001" cy="503.7850001" fill="#a47963" r="9.7850001"/>
		<circle cx="731.7850001" cy="503.7850001" r="9.7850001"/>
		<circle cx="750.7850001" cy="503.7850001" fill="#a47963" r="6.5233334"/>
		<circle cx="769.7850001" cy="503.7850001" r="6.5233334"/>
		<circle cx="788.7850001" cy="503.7850001" fill="#a47963" r="6.5233334"/>
		<circle cx="807.7850001" cy="503.7850001" fill="#a47963" r="6.5233334"/>
		<circle cx="826.7850001" cy="503.7850001" r="6.5233334"/>
		<g fill="#a47963">
			<circle cx="845.7850001" cy="503.7850001" r="6.5233334"/>
			<circle cx="864.7850001" cy="503.7850001" r="6.5233334"/>
			<circle cx="883.7850001" cy="503.7850001" r="6.5233334"/>
		</g>
		<circle cx="902.7850001" cy="503.7850001" r="9.7850001"/>
		<circle cx="9.7850001" cy="522.7850001" fill="#5a352a" r="6.5233334"/>
		<circle cx="28.7850001" cy="522.7850001" fill="#a47963" r="6.5233334"/>
		<circle cx="66.7850001" cy="522.7850001" fill="#a47963" r="9.7850001"/>
		<circle cx="142.7850001" cy="522.7850001" r="6.5233334"/>
		<circle cx="199.7850001" cy="522.7850001" fill="#a47963" r="6.5233334"/>
		<circle cx="218.7850001" cy="522.7850001" r="9.7850001"/>
		<circle cx="256.7850001" cy="522.7850001" r="9.7850001"/>
		<circle cx="275.7850001" cy="522.7850001" r="6.5233334"/>
		<circle cx="294.7850001" cy="522.7850001" fill="#a33b20" r="6.5233334"/>
		<circle cx="351.7850001" cy="522.7850001" r="6.5233334"/>
		<circle cx="408.7850001" cy="522.7850001" fill="#5a352a" r="6.5233334"/>
		<circle cx="446.7850001" cy="522.7850001" fill="#a33b20" r="9.7850001"/>
		<circle cx="465.7850001" cy="522.7850001" r="6.5233334"/>
		<circle cx="484.7850001" cy="522.7850001" fill="#a33b20" r="6.5233334"/>
		<circle cx="503.7850001" cy="522.7850001" r="6.5233334"/>
		<g fill="#a33b20">
			<circle cx="522.7850001" cy="522.7850001" r="6.5233334"/>
			<circle cx="579.7850001" cy="522.7850001" r="9.7850001"/>
			<circle cx="598.7850001" cy="522.7850001" r="6.5233334"/>
		</g>
		<circle cx="712.7850001" cy="522.7850001" r="6.5233334"/>
		<circle cx="750.7850001" cy="522.7850001" fill="#a33b20" r="6.5233334"/>
		<circle cx="769.7850001" cy="522.7850001" fill="#a33b20" r="6.5233334"/>
		<circle cx="788.7850001" cy="522.7850001" r="6.5233334"/>
		<circle cx="826.7850001" cy="522.7850001" r="6.5233334"/>
		<circle cx="864.7850001" cy="522.7850001" fill="#a33b20" r="6.5233334"/>
		<circle cx="9.7850001" cy="541.7850001" r="6.5233334"/>
		<circle cx="28.7850001" cy="541.7850001" fill="#a33b20" r="6.5233334"/>
		<circle cx="85.7850001" cy="541.7850001" fill="#a33b20" r="9.7850001"/>
		<circle cx="104.7850001" cy="541.7850001" fill="#a47963" r="6.5233334"/>
		<circle cx="123.7850001" cy="541.7850001" fill="#a33b20" r="6.5233334"/>
		<circle cx="142.7850001" cy="541.7850001" fill="#5a352a" r="6.5233334"/>
		<circle cx="180.7850001" cy="541.7850001" r="9.7850001"/>
		<circle cx="199.7850001" cy="541.7850001" fill="#a47963" r="6.5233334"/>
		<circle cx="294.7850001" cy="541.7850001" fill="#a47963" r="6.5233334"/>
		<circle cx="313.7850001" cy="541.7850001" r="6.5233334"/>
		<g fill="#a47963">
			<circle cx="332.7850001" cy="541.7850001" r="6.5233334"/>
			<circle cx="351.7850001" cy="541.7850001" r="6.5233334"/>
			<circle cx="503.7850001" cy="541.7850001" r="6.5233334"/>
		</g>
		<circle cx="522.7850001" cy="541.7850001" fill="#a33b20" r="6.5233334"/>
		<circle cx="636.7850001" cy="541.7850001" fill="#5a352a" r="6.5233334"/>
		<circle cx="674.7850001" cy="541.7850001" fill="#a33b20" r="6.5233334"/>
		<circle cx="693.7850001" cy="541.7850001" fill="#5a352a" r="6.5233334"/>
		<circle cx="712.7850001" cy="541.7850001" r="6.5233334"/>
		<circle cx="750.7850001" cy="541.7850001" fill="#5a352a" r="6.5233334"/>
		<circle cx="769.7850001" cy="541.7850001" fill="#a33b20" r="6.5233334"/>
		<circle cx="826.7850001" cy="541.7850001" fill="#a47963" r="9.7850001"/>
		<circle cx="864.7850001" cy="541.7850001" r="6.5233334"/>
		<circle cx="883.7850001" cy="541.7850001" r="6.5233334"/>
		<circle cx="902.7850001" cy="541.7850001" fill="#a33b20" r="6.5233334"/>
		<circle cx="9.7850001" cy="560.7850001" fill="#a33b20" r="9.7850001"/>
		<circle cx="28.7850001" cy="560.7850001" r="6.5233334"/>
		<circle cx="142.7850001" cy="560.7850001" r="9.7850001"/>
		<circle cx="199.7850001" cy="560.7850001" fill="#5a352a" r="6.5233334"/>
		<circle cx="218.7850001" cy="560.7850001" r="6.5233334"/>
		<circle cx="275.7850001" cy="560.7850001" r="6.5233334"/>
		<circle cx="294.7850001" cy="560.7850001" r="6.5233334"/>
		<circle cx="351.7850001" cy="560.7850001" r="9.7850001"/>
		<circle cx="389.7850001" cy="560.7850001" r="6.5233334"/>
		<circle cx="484.7850001" cy="560.7850001" r="9.7850001"/>
		<circle cx="503.7850001" cy="560.7850001" r="6.5233334"/>
		<circle cx="560.7850001" cy="560.7850001" r="6.5233334"/>
		<circle cx="598.7850001" cy="560.7850001" fill="#a33b20" r="6.5233334"/>
		<circle cx="674.7850001" cy="560.7850001" fill="#5a352a" r="9.7850001"/>
		<circle cx="693.7850001" cy="560.7850001" r="6.5233334"/>
		<circle cx="712.7850001" cy="560.7850001" r="6.5233334"/>
		<circle cx="750.7850001" cy="560.7850001" fill="#a33b20" r="9.7850001"/>
		<circle cx="769.7850001" cy="560.7850001" fill="#a47963" r="6.5233334"/>
		<circle cx="788.7850001" cy="560.7850001" fill="#a47963" r="6.5233334"/>
		<circle cx="807.7850001" cy="560.7850001" fill="#a33b20" r="6.5233334"/>
		<circle cx="864.7850001" cy="560.7850001" r="6.5233334"/>
		<circle cx="902.7850001" cy="560.7850001" r="6.5233334"/>
		<circle cx="28.7850001" cy="579.7850001" fill="#a33b20" r="6.5233334"/>
		<circle cx="85.7850001" cy="579.7850001" fill="#a47963" r="6.5233334"/>
		<circle cx="123.7850001" cy="579.7850001" r="6.5233334"/>
		<circle cx="161.7850001" cy="579.7850001" r="6.5233334"/>
		<circle cx="180.7850001" cy="579.7850001" fill="#a47963" r="6.5233334"/>
		<circle cx="199.7850001" cy="579.7850001" fill="#5a352a" r="6.5233334"/>
		<circle cx="218.7850001" cy="579.7850001" fill="#5a352a" r="6.5233334"/>
		<circle cx="237.7850001" cy="579.7850001" fill="#a47963" r="6.5233334"/>
		<circle cx="256.7850001" cy="579.7850001" r="6.5233334"/>
		<circle cx="275.7850001" cy="579.7850001" fill="#a33b20" r="6.5233334"/>
		<circle cx="332.7850001" cy="579.7850001" fill="#5a352a" r="6.5233334"/>
		<circle cx="370.7850001" cy="579.7850001" fill="#a47963" r="6.5233334"/>
		<circle cx="389.7850001" cy="579.7850001" fill="#5a352a" r="6.5233334"/>
		<circle cx="408.7850001" cy="579.7850001" fill="#a47963" r="6.5233334"/>
		<circle cx="427.7850001" cy="579.7850001" r="6.5233334"/>
		<circle cx="465.7850001" cy="579.7850001" r="6.5233334"/>
		<circle cx="522.7850001" cy="579.7850001" r="6.5233334"/>
		<circle cx="579.7850001" cy="579.7850001" fill="#a33b20" r="6.5233334"/>
		<circle cx="636.7850001" cy="579.7850001" fill="#a47963" r="9.7850001"/>
		<circle cx="655.7850001" cy="579.7850001" r="9.7850001"/>
		<circle cx="693.7850001" cy="579.7850001" fill="#a47963" r="6.5233334"/>
		<circle cx="731.7850001" cy="579.7850001" r="6.5233334"/>
		<circle cx="769.7850001" cy="579.7850001" r="6.5233334"/>
		<circle cx="788.7850001" cy="579.7850001" fill="#a47963" r="6.5233334"/>
		<circle cx="807.7850001" cy="579.7850001" r="6.5233334"/>
		<circle cx="826.7850001" cy="579.7850001" r="9.7850001"/>
		<circle cx="864.7850001" cy="579.7850001" r="9.7850001"/>
		<circle cx="902.7850001" cy="579.7850001" r="6.5233334"/>
		<circle cx="921.7850001" cy="579.7850001" fill="#a47963" r="9.7850001"/>
		<circle cx="9.7850001" cy="598.7850001" r="6.5233334"/>
		<circle cx="28.7850001" cy="598.7850001" r="6.5233334"/>
		<circle cx="47.7850001" cy="598.7850001" fill="#a33b20" r="9.7850001"/>
		<circle cx="161.7850001" cy="598.7850001" fill="#5a352a" r="9.7850001"/>
		<circle cx="180.7850001" cy="598.7850001" r="6.5233334"/>
		<circle cx="199.7850001" cy="598.7850001" r="6.5233334"/>
		<circle cx="275.7850001" cy="598.7850001" fill="#5a352a" r="6.5233334"/>
		<circle cx="313.7850001" cy="598.7850001" r="6.5233334"/>
		<circle cx="351.7850001" cy="598.7850001" fill="#5a352a" r="9.7850001"/>
		<circle cx="370.7850001" cy="598.7850001" r="6.5233334"/>
		<circle cx="389.7850001" cy="598.7850001" fill="#a33b20" r="6.5233334"/>
		<circle cx="408.7850001" cy="598.7850001" fill="#a33b20" r="6.5233334"/>
		<circle cx="427.7850001" cy="598.7850001" r="6.5233334"/>
		<circle cx="446.7850001" cy="598.7850001" fill="#5a352a" r="6.5233334"/>
		<circle cx="465.7850001" cy="598.7850001" r="6.5233334"/>
		<circle cx="522.7850001" cy="598.7850001" r="9.7850001"/>
		<circle cx="541.7850001" cy="598.7850001" r="6.5233334"/>
		<circle cx="560.7850001" cy="598.7850001" r="6.5233334"/>
		<circle cx="579.7850001" cy="598.7850001" r="6.5233334"/>
		<circle cx="598.7850001" cy="598.7850001" fill="#5a352a" r="9.7850001"/>
		<circle cx="674.7850001" cy="598.7850001" fill="#a47963" r="9.7850001"/>
		<circle cx="693.7850001" cy="598.7850001" fill="#5a352a" r="6.5233334"/>
		<circle cx="769.7850001" cy="598.7850001" fill="#a33b20" r="6.5233334"/>
		<circle cx="788.7850001" cy="598.7850001" fill="#a47963" r="6.5233334"/>
		<circle cx="902.7850001" cy="598.7850001" fill="#a33b20" r="9.7850001"/>
		<circle cx="9.7850001" cy="617.7850001" fill="#a47963" r="6.5233334"/>
		<circle cx="28.7850001" cy="617.7850001" r="6.5233334"/>
		<circle cx="123.7850001" cy="617.7850001" r="9.7850001"/>
		<circle cx="142.7850001" cy="617.7850001" fill="#a47963" r="9.7850001"/>
		<circle cx="237.7850001" cy="617.7850001" r="6.5233334"/>
		<circle cx="275.7850001" cy="617.7850001" fill="#a47963" r="6.5233334"/>
		<circle cx="313.7850001" cy="617.7850001" r="6.5233334"/>
		<circle cx="370.7850001" cy="617.7850001" r="6.5233334"/>
		<circle cx="389.7850001" cy="617.7850001" fill="#a33b20" r="6.5233334"/>
		<circle cx="427.7850001" cy="617.7850001" r="6.5233334"/>
		<circle cx="446.7850001" cy="617.7850001" fill="#a33b20" r="6.5233334"/>
		<circle cx="503.7850001" cy="617.7850001" fill="#5a352a" r="6.5233334"/>
		<circle cx="541.7850001" cy="617.7850001" fill="#5a352a" r="6.5233334"/>
		<circle cx="560.7850001" cy="617.7850001" fill="#a47963" r="6.5233334"/>
		<circle cx="579.7850001" cy="617.7850001" fill="#5a352a" r="6.5233334"/>
		<circle cx="636.7850001" cy="617.7850001" fill="#a33b20" r="6.5233334"/>
		<circle cx="693.7850001" cy="617.7850001" fill="#5a352a" r="6.5233334"/>
		<circle cx="712.7850001" cy="617.7850001" fill="#a47963" r="6.5233334"/>
		<circle cx="750.7850001" cy="617.7850001" fill="#5a352a" r="9.7850001"/>
		<circle cx="769.7850001" cy="617.7850001" fill="#5a352a" r="6.5233334"/>
		<circle cx="788.7850001" cy="617.7850001" fill="#a33b20" r="6.5233334"/>
		<circle cx="845.7850001" cy="617.7850001" r="9.7850001"/>
		<circle cx="864.7850001" cy="617.7850001" r="6.5233334"/>
		<g fill="#a33b20">
			<circle cx="883.7850001" cy="617.7850001" r="6.5233334"/>
			<circle cx="921.7850001" cy="617.7850001" r="6.5233334"/>
			<circle cx="9.7850001" cy="636.7850001" r="9.7850001"/>
		</g>
		<circle cx="28.7850001" cy="636.7850001" r="6.5233334"/>
		<circle cx="47.7850001" cy="636.7850001" fill="#5a352a" r="6.5233334"/>
		<circle cx="66.7850001" cy="636.7850001" r="6.5233334"/>
		<circle cx="85.7850001" cy="636.7850001" fill="#a47963" r="9.7850001"/>
		<circle cx="161.7850001" cy="636.7850001" fill="#a33b20" r="9.7850001"/>
		<circle cx="180.7850001" cy="636.7850001" fill="#a47963" r="6.5233334"/>
		<circle cx="199.7850001" cy="636.7850001" r="6.5233334"/>
		<circle cx="218.7850001" cy="636.7850001" r="6.5233334"/>
		<circle cx="275.7850001" cy="636.7850001" r="6.5233334"/>
		<circle cx="313.7850001" cy="636.7850001" r="6.5233334"/>
		<circle cx="332.7850001" cy="636.7850001" r="6.5233334"/>
		<circle cx="370.7850001" cy="636.7850001" r="9.7850001"/>
		<circle cx="408.7850001" cy="636.7850001" r="6.5233334"/>
		<circle cx="427.7850001" cy="636.7850001" r="6.5233334"/>
		<circle cx="446.7850001" cy="636.7850001" r="6.5233334"/>
		<circle cx="541.7850001" cy="636.7850001" r="9.7850001"/>
		<g fill="#a33b20">
			<circle cx="560.7850001" cy="636.7850001" r="6.5233334"/>
			<circle cx="598.7850001" cy="636.7850001" r="6.5233334"/>
			<circle cx="674.7850001" cy="636.7850001" r="9.7850001"/>
		</g>
		<circle cx="693.7850001" cy="636.7850001" r="6.5233334"/>
		<circle cx="712.7850001" cy="636.7850001" fill="#5a352a" r="6.5233334"/>
		<circle cx="769.7850001" cy="636.7850001" fill="#a47963" r="9.7850001"/>
		<circle cx="788.7850001" cy="636.7850001" r="6.5233334"/>
		<circle cx="826.7850001" cy="636.7850001" fill="#a33b20" r="6.5233334"/>
		<circle cx="883.7850001" cy="636.7850001" fill="#a33b20" r="9.7850001"/>
		<circle cx="902.7850001" cy="636.7850001" r="9.7850001"/>
		<circle cx="47.7850001" cy="655.7850001" fill="#5a352a" r="9.7850001"/>
		<circle cx="66.7850001" cy="655.7850001" fill="#a47963" r="6.5233334"/>
		<circle cx="104.7850001" cy="655.7850001" fill="#a33b20" r="6.5233334"/>
		<circle cx="123.7850001" cy="655.7850001" r="6.5233334"/>
		<circle cx="142.7850001" cy="655.7850001" fill="#5a352a" r="9.7850001"/>
		<circle cx="180.7850001" cy="655.7850001" fill="#a47963" r="6.5233334"/>
		<circle cx="199.7850001" cy="655.7850001" fill="#a33b20" r="6.5233334"/>
		<circle cx="218.7850001" cy="655.7850001" r="6.5233334"/>
		<circle cx="237.7850001" cy="655.7850001" r="6.5233334"/>
		<circle cx="256.7850001" cy="655.7850001" fill="#a33b20" r="6.5233334"/>
		<circle cx="275.7850001" cy="655.7850001" r="6.5233334"/>
		<circle cx="313.7850001" cy="655.7850001" r="9.7850001"/>
		<circle cx="332.7850001" cy="655.7850001" r="6.5233334"/>
		<circle cx="389.7850001" cy="655.7850001" fill="#a33b20" r="9.7850001"/>
		<circle cx="408.7850001" cy="655.7850001" r="6.5233334"/>
		<circle cx="427.7850001" cy="655.7850001" fill="#a33b20" r="6.5233334"/>
		<circle cx="446.7850001" cy="655.7850001" fill="#5a352a" r="6.5233334"/>
		<circle cx="465.7850001" cy="655.7850001" r="6.5233334"/>
		<circle cx="484.7850001" cy="655.7850001" fill="#5a352a" r="6.5233334"/>
		<circle cx="503.7850001" cy="655.7850001" fill="#5a352a" r="6.5233334"/>
		<circle cx="522.7850001" cy="655.7850001" fill="#a33b20" r="9.7850001"/>
		<circle cx="579.7850001" cy="655.7850001" r="6.5233334"/>
		<circle cx="636.7850001" cy="655.7850001" fill="#5a352a" r="9.7850001"/>
		<circle cx="655.7850001" cy="655.7850001" r="9.7850001"/>
		<circle cx="693.7850001" cy="655.7850001" r="9.7850001"/>
		<circle cx="731.7850001" cy="655.7850001" fill="#5a352a" r="6.5233334"/>
		<circle cx="807.7850001" cy="655.7850001" r="9.7850001"/>
		<circle cx="826.7850001" cy="655.7850001" fill="#5a352a" r="6.5233334"/>
		<circle cx="921.7850001" cy="655.7850001" fill="#5a352a" r="6.5233334"/>
		<circle cx="9.7850001" cy="674.7850001" fill="#a47963" r="6.5233334"/>
		<circle cx="66.7850001" cy="674.7850001" fill="#a47963" r="9.7850001"/>
		<circle cx="85.7850001" cy="674.7850001" fill="#a33b20" r="6.5233334"/>
		<circle cx="104.7850001" cy="674.7850001" r="6.5233334"/>
		<circle cx="180.7850001" cy="674.7850001" fill="#a47963" r="9.7850001"/>
		<circle cx="237.7850001" cy="674.7850001" fill="#a33b20" r="6.5233334"/>
		<circle cx="256.7850001" cy="674.7850001" fill="#a47963" r="6.5233334"/>
		<circle cx="332.7850001" cy="674.7850001" fill="#5a352a" r="9.7850001"/>
		<circle cx="370.7850001" cy="674.7850001" r="6.5233334"/>
		<circle cx="408.7850001" cy="674.7850001" fill="#a33b20" r="6.5233334"/>
		<circle cx="427.7850001" cy="674.7850001" r="6.5233334"/>
		<circle cx="560.7850001" cy="674.7850001" fill="#a47963" r="6.5233334"/>
		<circle cx="674.7850001" cy="674.7850001" fill="#a47963" r="6.5233334"/>
		<circle cx="712.7850001" cy="674.7850001" fill="#5a352a" r="6.5233334"/>
		<circle cx="769.7850001" cy="674.7850001" fill="#a33b20" r="6.5233334"/>
		<circle cx="826.7850001" cy="674.7850001" fill="#a33b20" r="6.5233334"/>
		<circle cx="902.7850001" cy="674.7850001" fill="#5a352a" r="6.5233334"/>
		<circle cx="28.7850001" cy="693.7850001" r="6.5233334"/>
		<circle cx="47.7850001" cy="693.7850001" r="9.7850001"/>
		<circle cx="123.7850001" cy="693.7850001" r="6.5233334"/>
		<circle cx="218.7850001" cy="693.7850001" r="6.5233334"/>
		<circle cx="237.7850001" cy="693.7850001" r="6.5233334"/>
		<circle cx="294.7850001" cy="693.7850001" r="6.5233334"/>
		<circle cx="389.7850001" cy="693.7850001" fill="#a33b20" r="9.7850001"/>
		<circle cx="408.7850001" cy="693.7850001" r="6.5233334"/>
		<circle cx="427.7850001" cy="693.7850001" r="6.5233334"/>
		<circle cx="446.7850001" cy="693.7850001" r="6.5233334"/>
		<circle cx="484.7850001" cy="693.7850001" fill="#a33b20" r="6.5233334"/>
		<circle cx="560.7850001" cy="693.7850001" fill="#a33b20" r="9.7850001"/>
		<circle cx="598.7850001" cy="693.7850001" fill="#5a352a" r="9.7850001"/>
		<circle cx="617.7850001" cy="693.7850001" fill="#a33b20" r="6.5233334"/>
		<circle cx="674.7850001" cy="693.7850001" r="6.5233334"/>
		<circle cx="693.7850001" cy="693.7850001" fill="#a47963" r="6.5233334"/>
		<circle cx="712.7850001" cy="693.7850001" fill="#a33b20" r="6.5233334"/>
		<circle cx="750.7850001" cy="693.7850001" r="6.5233334"/>
		<circle cx="826.7850001" cy="693.7850001" fill="#5a352a" r="6.5233334"/>
		<circle cx="845.7850001" cy="693.7850001" fill="#a47963" r="6.5233334"/>
		<circle cx="864.7850001" cy="693.7850001" fill="#a33b20" r="6.5233334"/>
		<circle cx="883.7850001" cy="693.7850001" fill="#5a352a" r="6.5233334"/>
		<circle cx="902.7850001" cy="693.7850001" r="6.5233334"/>
		<circle cx="28.7850001" cy="712.7850001" fill="#5a352a" r="6.5233334"/>
		<circle cx="85.7850001" cy="712.7850001" r="9.7850001"/>
		<circle cx="104.7850001" cy="712.7850001" r="6.5233334"/>
		<circle cx="142.7850001" cy="712.7850001" fill="#a47963" r="6.5233334"/>
		<circle cx="180.7850001" cy="712.7850001" fill="#5a352a" r="9.7850001"/>
		<circle cx="199.7850001" cy="712.7850001" r="6.5233334"/>
		<circle cx="218.7850001" cy="712.7850001" fill="#a33b20" r="6.5233334"/>
		<circle cx="237.7850001" cy="712.7850001" r="6.5233334"/>
		<circle cx="256.7850001" cy="712.7850001" r="6.5233334"/>
		<g fill="#a47963">
			<circle cx="275.7850001" cy="712.7850001" r="6.5233334"/>
			<circle cx="294.7850001" cy="712.7850001" r="6.5233334"/>
			<circle cx="351.7850001" cy="712.7850001" r="6.5233334"/>
			<circle cx="446.7850001" cy="712.7850001" r="6.5233334"/>
		</g>
		<circle cx="503.7850001" cy="712.7850001" fill="#a33b20" r="6.5233334"/>
		<circle cx="522.7850001" cy="712.7850001" fill="#5a352a" r="6.5233334"/>
		<circle cx="541.7850001" cy="712.7850001" r="9.7850001"/>
		<circle cx="579.7850001" cy="712.7850001" r="6.5233334"/>
		<circle cx="617.7850001" cy="712.7850001" r="6.5233334"/>
		<circle cx="636.7850001" cy="712.7850001" fill="#5a352a" r="6.5233334"/>
		<circle cx="674.7850001" cy="712.7850001" fill="#a47963" r="9.7850001"/>
		<circle cx="712.7850001" cy="712.7850001" fill="#5a352a" r="6.5233334"/>
		<circle cx="807.7850001" cy="712.7850001" r="6.5233334"/>
		<circle cx="826.7850001" cy="712.7850001" fill="#a47963" r="6.5233334"/>
		<circle cx="883.7850001" cy="712.7850001" fill="#a33b20" r="6.5233334"/>
		<circle cx="902.7850001" cy="712.7850001" r="6.5233334"/>
		<circle cx="28.7850001" cy="731.7850001" fill="#a47963" r="6.5233334"/>
		<circle cx="104.7850001" cy="731.7850001" fill="#a33b20" r="9.7850001"/>
		<circle cx="123.7850001" cy="731.7850001" fill="#a33b20" r="9.7850001"/>
		<circle cx="161.7850001" cy="731.7850001" r="6.5233334"/>
		<circle cx="237.7850001" cy="731.7850001" fill="#5a352a" r="9.7850001"/>
		<circle cx="275.7850001" cy="731.7850001" fill="#5a352a" r="6.5233334"/>
		<circle cx="294.7850001" cy="731.7850001" r="6.5233334"/>
		<circle cx="313.7850001" cy="731.7850001" fill="#a47963" r="9.7850001"/>
		<g fill="#5a352a">
			<circle cx="351.7850001" cy="731.7850001" r="9.7850001"/>
			<circle cx="389.7850001" cy="731.7850001" r="6.5233334"/>
			<circle cx="408.7850001" cy="731.7850001" r="9.7850001"/>
			<circle cx="446.7850001" cy="731.7850001" r="6.5233334"/>
			<circle cx="503.7850001" cy="731.7850001" r="6.5233334"/>
		</g>
		<circle cx="579.7850001" cy="731.7850001" r="9.7850001"/>
		<circle cx="598.7850001" cy="731.7850001" fill="#a33b20" r="6.5233334"/>
		<circle cx="617.7850001" cy="731.7850001" fill="#a47963" r="6.5233334"/>
		<circle cx="636.7850001" cy="731.7850001" r="6.5233334"/>
		<circle cx="693.7850001" cy="731.7850001" fill="#a33b20" r="9.7850001"/>
		<circle cx="712.7850001" cy="731.7850001" fill="#a33b20" r="6.5233334"/>
		<circle cx="731.7850001" cy="731.7850001" fill="#5a352a" r="6.5233334"/>
		<circle cx="750.7850001" cy="731.7850001" r="9.7850001"/>
		<circle cx="807.7850001" cy="731.7850001" r="9.7850001"/>
		<circle cx="826.7850001" cy="731.7850001" r="6.5233334"/>
		<circle cx="864.7850001" cy="731.7850001" fill="#a47963" r="9.7850001"/>
		<circle cx="883.7850001" cy="731.7850001" r="6.5233334"/>
		<circle cx="902.7850001" cy="731.7850001" fill="#a33b20" r="6.5233334"/>
		<circle cx="921.7850001" cy="731.7850001" fill="#5a352a" r="6.5233334"/>
		<circle cx="28.7850001" cy="750.7850001" r="6.5233334"/>
		<circle cx="47.7850001" cy="750.7850001" fill="#a47963" r="6.5233334"/>
		<circle cx="66.7850001" cy="750.7850001" fill="#a33b20" r="9.7850001"/>
		<circle cx="161.7850001" cy="750.7850001" r="6.5233334"/>
		<circle cx="180.7850001" cy="750.7850001" fill="#5a352a" r="6.5233334"/>
		<circle cx="199.7850001" cy="750.7850001" fill="#5a352a" r="6.5233334"/>
		<circle cx="218.7850001" cy="750.7850001" fill="#a47963" r="9.7850001"/>
		<circle cx="256.7850001" cy="750.7850001" fill="#a33b20" r="9.7850001"/>
		<circle cx="275.7850001" cy="750.7850001" fill="#5a352a" r="6.5233334"/>
		<circle cx="332.7850001" cy="750.7850001" r="6.5233334"/>
		<circle cx="389.7850001" cy="750.7850001" r="6.5233334"/>
		<circle cx="427.7850001" cy="750.7850001" fill="#a33b20" r="6.5233334"/>
		<circle cx="446.7850001" cy="750.7850001" r="6.5233334"/>
		<circle cx="484.7850001" cy="750.7850001" fill="#a47963" r="6.5233334"/>
		<circle cx="503.7850001" cy="750.7850001" r="6.5233334"/>
		<circle cx="522.7850001" cy="750.7850001" r="6.5233334"/>
		<circle cx="541.7850001" cy="750.7850001" fill="#a33b20" r="6.5233334"/>
		<circle cx="560.7850001" cy="750.7850001" r="9.7850001"/>
		<circle cx="617.7850001" cy="750.7850001" r="9.7850001"/>
		<circle cx="655.7850001" cy="750.7850001" r="6.5233334"/>
		<circle cx="712.7850001" cy="750.7850001" r="9.7850001"/>
		<circle cx="731.7850001" cy="750.7850001" fill="#a33b20" r="6.5233334"/>
		<circle cx="788.7850001" cy="750.7850001" fill="#a33b20" r="6.5233334"/>
		<circle cx="883.7850001" cy="750.7850001" fill="#5a352a" r="9.7850001"/>
		<g fill="#a33b20">
			<circle cx="921.7850001" cy="750.7850001" r="9.7850001"/>
			<circle cx="9.7850001" cy="769.7850001" r="9.7850001"/>
			<circle cx="28.7850001" cy="769.7850001" r="6.5233334"/>
		</g>
		<circle cx="47.7850001" cy="769.7850001" fill="#a47963" r="6.5233334"/>
		<circle cx="123.7850001" cy="769.7850001" r="9.7850001"/>
		<circle cx="142.7850001" cy="769.7850001" r="6.5233334"/>
		<circle cx="161.7850001" cy="769.7850001" fill="#a33b20" r="6.5233334"/>
		<circle cx="237.7850001" cy="769.7850001" fill="#5a352a" r="6.5233334"/>
		<circle cx="275.7850001" cy="769.7850001" r="9.7850001"/>
		<circle cx="313.7850001" cy="769.7850001" fill="#5a352a" r="6.5233334"/>
		<circle cx="332.7850001" cy="769.7850001" fill="#5a352a" r="6.5233334"/>
		<circle cx="351.7850001" cy="769.7850001" r="6.5233334"/>
		<circle cx="370.7850001" cy="769.7850001" fill="#a33b20" r="6.5233334"/>
		<circle cx="389.7850001" cy="769.7850001" fill="#5a352a" r="6.5233334"/>
		<circle cx="427.7850001" cy="769.7850001" fill="#5a352a" r="6.5233334"/>
		<circle cx="446.7850001" cy="769.7850001" fill="#a47963" r="6.5233334"/>
		<circle cx="465.7850001" cy="769.7850001" r="6.5233334"/>
		<circle cx="484.7850001" cy="769.7850001" fill="#a47963" r="6.5233334"/>
		<circle cx="503.7850001" cy="769.7850001" fill="#5a352a" r="6.5233334"/>
		<circle cx="579.7850001" cy="769.7850001" fill="#a33b20" r="6.5233334"/>
		<circle cx="598.7850001" cy="769.7850001" r="6.5233334"/>
		<circle cx="636.7850001" cy="769.7850001" r="9.7850001"/>
		<circle cx="655.7850001" cy="769.7850001" fill="#a47963" r="6.5233334"/>
		<circle cx="674.7850001" cy="769.7850001" r="6.5233334"/>
		<circle cx="693.7850001" cy="769.7850001" r="6.5233334"/>
		<circle cx="731.7850001" cy="769.7850001" fill="#a47963" r="6.5233334"/>
		<circle cx="750.7850001" cy="769.7850001" r="6.5233334"/>
		<circle cx="769.7850001" cy="769.7850001" fill="#a47963" r="6.5233334"/>
		<circle cx="788.7850001" cy="769.7850001" r="6.5233334"/>
		<circle cx="807.7850001" cy="769.7850001" r="6.5233334"/>
		<circle cx="826.7850001" cy="769.7850001" r="6.5233334"/>
		<circle cx="845.7850001" cy="769.7850001" r="6.5233334"/>
		<circle cx="864.7850001" cy="769.7850001" r="9.7850001"/>
		<circle cx="161.7850001" cy="788.7850001" r="9.7850001"/>
		<circle cx="180.7850001" cy="788.7850001" r="6.5233334"/>
		<circle cx="199.7850001" cy="788.7850001" fill="#a47963" r="9.7850001"/>
		<circle cx="256.7850001" cy="788.7850001" fill="#a47963" r="6.5233334"/>
		<circle cx="313.7850001" cy="788.7850001" r="9.7850001"/>
		<circle cx="332.7850001" cy="788.7850001" r="6.5233334"/>
		<circle cx="389.7850001" cy="788.7850001" r="6.5233334"/>
		<circle cx="427.7850001" cy="788.7850001" r="6.5233334"/>
		<circle cx="503.7850001" cy="788.7850001" r="6.5233334"/>
		<circle cx="579.7850001" cy="788.7850001" fill="#5a352a" r="9.7850001"/>
		<circle cx="598.7850001" cy="788.7850001" fill="#a33b20" r="6.5233334"/>
		<circle cx="617.7850001" cy="788.7850001" fill="#a47963" r="6.5233334"/>
		<circle cx="655.7850001" cy="788.7850001" fill="#a47963" r="9.7850001"/>
		<circle cx="674.7850001" cy="788.7850001" r="6.5233334"/>
		<circle cx="693.7850001" cy="788.7850001" fill="#a47963" r="6.5233334"/>
		<circle cx="712.7850001" cy="788.7850001" fill="#5a352a" r="6.5233334"/>
		<circle cx="731.7850001" cy="788.7850001" fill="#a33b20" r="6.5233334"/>
		<circle cx="750.7850001" cy="788.7850001" fill="#5a352a" r="6.5233334"/>
		<circle cx="769.7850001" cy="788.7850001" r="6.5233334"/>
		<circle cx="845.7850001" cy="788.7850001" fill="#a47963" r="6.5233334"/>
		<circle cx="902.7850001" cy="788.7850001" r="6.5233334"/>
		<circle cx="180.7850001" cy="807.7850001" r="9.7850001"/>
		<circle cx="218.7850001" cy="807.7850001" fill="#a33b20" r="9.7850001"/>
		<circle cx="237.7850001" cy="807.7850001" r="6.5233334"/>
		<circle cx="256.7850001" cy="807.7850001" fill="#5a352a" r="6.5233334"/>
		<circle cx="389.7850001" cy="807.7850001" fill="#5a352a" r="6.5233334"/>
		<circle cx="427.7850001" cy="807.7850001" r="6.5233334"/>
		<circle cx="465.7850001" cy="807.7850001" fill="#a47963" r="6.5233334"/>
		<circle cx="503.7850001" cy="807.7850001" fill="#5a352a" r="6.5233334"/>
		<circle cx="541.7850001" cy="807.7850001" fill="#a47963" r="6.5233334"/>
		<circle cx="598.7850001" cy="807.7850001" fill="#5a352a" r="9.7850001"/>
		<circle cx="617.7850001" cy="807.7850001" r="6.5233334"/>
		<circle cx="636.7850001" cy="807.7850001" fill="#a47963" r="6.5233334"/>
		<circle cx="769.7850001" cy="807.7850001" r="6.5233334"/>
		<circle cx="807.7850001" cy="807.7850001" fill="#a47963" r="6.5233334"/>
		<circle cx="845.7850001" cy="807.7850001" fill="#5a352a" r="6.5233334"/>
		<circle cx="864.7850001" cy="807.7850001" fill="#a47963" r="9.7850001"/>
		<circle cx="902.7850001" cy="807.7850001" r="6.5233334"/>
		<circle cx="921.7850001" cy="807.7850001" r="9.7850001"/>
		<circle cx="237.7850001" cy="826.7850001" r="6.5233334"/>
		<circle cx="256.7850001" cy="826.7850001" fill="#a47963" r="6.5233334"/>
		<circle cx="294.7850001" cy="826.7850001" fill="#a33b20" r="6.5233334"/>
		<circle cx="332.7850001" cy="826.7850001" r="6.5233334"/>
		<circle cx="351.7850001" cy="826.7850001" fill="#a33b20" r="9.7850001"/>
		<circle cx="389.7850001" cy="826.7850001" fill="#a33b20" r="6.5233334"/>
		<circle cx="427.7850001" cy="826.7850001" r="6.5233334"/>
		<circle cx="503.7850001" cy="826.7850001" fill="#5a352a" r="6.5233334"/>
		<circle cx="541.7850001" cy="826.7850001" fill="#a33b20" r="9.7850001"/>
		<g fill="#5a352a">
			<circle cx="560.7850001" cy="826.7850001" r="6.5233334"/>
			<circle cx="579.7850001" cy="826.7850001" r="9.7850001"/>
			<circle cx="617.7850001" cy="826.7850001" r="9.7850001"/>
			<circle cx="636.7850001" cy="826.7850001" r="6.5233334"/>
		</g>
		<circle cx="674.7850001" cy="826.7850001" fill="#a33b20" r="6.5233334"/>
		<circle cx="750.7850001" cy="826.7850001" fill="#a33b20" r="9.7850001"/>
		<circle cx="769.7850001" cy="826.7850001" fill="#a47963" r="6.5233334"/>
		<circle cx="845.7850001" cy="826.7850001" fill="#a33b20" r="6.5233334"/>
		<circle cx="902.7850001" cy="826.7850001" r="6.5233334"/>
		<circle cx="161.7850001" cy="845.7850001" r="6.5233334"/>
		<g fill="#a47963">
			<circle cx="199.7850001" cy="845.7850001" r="6.5233334"/>
			<circle cx="218.7850001" cy="845.7850001" r="6.5233334"/>
			<circle cx="237.7850001" cy="845.7850001" r="6.5233334"/>
		</g>
		<circle cx="275.7850001" cy="845.7850001" fill="#5a352a" r="6.5233334"/>
		<circle cx="332.7850001" cy="845.7850001" fill="#a33b20" r="9.7850001"/>
		<circle cx="370.7850001" cy="845.7850001" r="6.5233334"/>
		<circle cx="389.7850001" cy="845.7850001" fill="#a33b20" r="6.5233334"/>
		<circle cx="427.7850001" cy="845.7850001" fill="#a33b20" r="6.5233334"/>
		<circle cx="446.7850001" cy="845.7850001" r="6.5233334"/>
		<circle cx="465.7850001" cy="845.7850001" fill="#a47963" r="6.5233334"/>
		<circle cx="484.7850001" cy="845.7850001" fill="#a47963" r="6.5233334"/>
		<circle cx="503.7850001" cy="845.7850001" r="6.5233334"/>
		<circle cx="636.7850001" cy="845.7850001" fill="#a33b20" r="9.7850001"/>
		<circle cx="655.7850001" cy="845.7850001" r="6.5233334"/>
		<circle cx="674.7850001" cy="845.7850001" fill="#5a352a" r="6.5233334"/>
		<circle cx="693.7850001" cy="845.7850001" r="6.5233334"/>
		<circle cx="712.7850001" cy="845.7850001" r="6.5233334"/>
		<circle cx="731.7850001" cy="845.7850001" fill="#5a352a" r="9.7850001"/>
		<circle cx="769.7850001" cy="845.7850001" r="9.7850001"/>
		<circle cx="788.7850001" cy="845.7850001" fill="#a47963" r="6.5233334"/>
		<circle cx="807.7850001" cy="845.7850001" fill="#5a352a" r="6.5233334"/>
		<g fill="#a33b20">
			<circle cx="826.7850001" cy="845.7850001" r="6.5233334"/>
			<circle cx="845.7850001" cy="845.7850001" r="6.5233334"/>
			<circle cx="883.7850001" cy="845.7850001" r="9.7850001"/>
		</g>
		<circle cx="902.7850001" cy="845.7850001" r="6.5233334"/>
		<circle cx="161.7850001" cy="864.7850001" r="6.5233334"/>
		<circle cx="199.7850001" cy="864.7850001" fill="#5a352a" r="9.7850001"/>
		<circle cx="237.7850001" cy="864.7850001" fill="#a33b20" r="6.5233334"/>
		<circle cx="294.7850001" cy="864.7850001" fill="#a47963" r="9.7850001"/>
		<circle cx="313.7850001" cy="864.7850001" r="9.7850001"/>
		<circle cx="351.7850001" cy="864.7850001" fill="#5a352a" r="9.7850001"/>
		<circle cx="370.7850001" cy="864.7850001" r="6.5233334"/>
		<circle cx="389.7850001" cy="864.7850001" fill="#5a352a" r="6.5233334"/>
		<circle cx="408.7850001" cy="864.7850001" fill="#a47963" r="6.5233334"/>
		<circle cx="427.7850001" cy="864.7850001" r="6.5233334"/>
		<circle cx="465.7850001" cy="864.7850001" fill="#5a352a" r="6.5233334"/>
		<circle cx="541.7850001" cy="864.7850001" r="6.5233334"/>
		<circle cx="560.7850001" cy="864.7850001" r="6.5233334"/>
		<circle cx="579.7850001" cy="864.7850001" r="6.5233334"/>
		<circle cx="598.7850001" cy="864.7850001" fill="#5a352a" r="6.5233334"/>
		<circle cx="712.7850001" cy="864.7850001" r="9.7850001"/>
		<circle cx="788.7850001" cy="864.7850001" fill="#a33b20" r="9.7850001"/>
		<circle cx="807.7850001" cy="864.7850001" r="6.5233334"/>
		<circle cx="845.7850001" cy="864.7850001" r="9.7850001"/>
		<circle cx="921.7850001" cy="864.7850001" fill="#a47963" r="6.5233334"/>
		<circle cx="161.7850001" cy="883.7850001" fill="#a47963" r="9.7850001"/>
		<circle cx="180.7850001" cy="883.7850001" fill="#a33b20" r="6.5233334"/>
		<circle cx="218.7850001" cy="883.7850001" fill="#a33b20" r="6.5233334"/>
		<circle cx="237.7850001" cy="883.7850001" r="6.5233334"/>
		<circle cx="256.7850001" cy="883.7850001" fill="#a33b20" r="6.5233334"/>
		<circle cx="275.7850001" cy="883.7850001" r="9.7850001"/>
		<circle cx="389.7850001" cy="883.7850001" fill="#a33b20" r="9.7850001"/>
		<circle cx="408.7850001" cy="883.7850001" r="6.5233334"/>
		<circle cx="446.7850001" cy="883.7850001" r="6.5233334"/>
		<circle cx="465.7850001" cy="883.7850001" fill="#a47963" r="6.5233334"/>
		<circle cx="503.7850001" cy="883.7850001" fill="#a47963" r="9.7850001"/>
		<circle cx="522.7850001" cy="883.7850001" fill="#a33b20" r="6.5233334"/>
		<circle cx="541.7850001" cy="883.7850001" fill="#a47963" r="6.5233334"/>
		<circle cx="598.7850001" cy="883.7850001" fill="#a33b20" r="9.7850001"/>
		<circle cx="636.7850001" cy="883.7850001" r="9.7850001"/>
		<circle cx="655.7850001" cy="883.7850001" r="9.7850001"/>
		<circle cx="693.7850001" cy="883.7850001" r="6.5233334"/>
		<circle cx="731.7850001" cy="883.7850001" r="6.5233334"/>
		<circle cx="750.7850001" cy="883.7850001" r="9.7850001"/>
		<circle cx="807.7850001" cy="883.7850001" r="6.5233334"/>
		<circle cx="826.7850001" cy="883.7850001" r="9.7850001"/>
		<circle cx="902.7850001" cy="883.7850001" r="9.7850001"/>
		<circle cx="921.7850001" cy="883.7850001" fill="#5a352a" r="6.5233334"/>
		<circle cx="180.7850001" cy="902.7850001" fill="#a47963" r="9.7850001"/>
		<circle cx="218.7850001" cy="902.7850001" r="9.7850001"/>
		<circle cx="256.7850001" cy="902.7850001" fill="#a47963" r="9.7850001"/>
		<circle cx="294.7850001" cy="902.7850001" fill="#a47963" r="6.5233334"/>
		<circle cx="332.7850001" cy="902.7850001" fill="#a33b20" r="9.7850001"/>
		<circle cx="351.7850001" cy="902.7850001" fill="#a47963" r="6.5233334"/>
		<circle cx="446.7850001" cy="902.7850001" fill="#a47963" r="6.5233334"/>
		<circle cx="617.7850001" cy="902.7850001" fill="#a33b20" r="6.5233334"/>
		<circle cx="731.7850001" cy="902.7850001" fill="#5a352a" r="9.7850001"/>
		<circle cx="807.7850001" cy="902.7850001" r="9.7850001"/>
		<circle cx="845.7850001" cy="902.7850001" fill="#a47963" r="6.5233334"/>
		<circle cx="921.7850001" cy="902.7850001" fill="#5a352a" r="6.5233334"/>
		<circle cx="294.7850001" cy="921.7850001" r="9.7850001"/>
		<circle cx="351.7850001" cy="921.7850001" fill="#a47963" r="9.7850001"/>
		<circle cx="370.7850001" cy="921.7850001" r="6.5233334"/>
		<circle cx="389.7850001" cy="921.7850001" fill="#a47963" r="9.7850001"/>
		<circle cx="427.7850001" cy="921.7850001" fill="#a47963" r="9.7850001"/>
		<circle cx="446.7850001" cy="921.7850001" fill="#5a352a" r="6.5233334"/>
		<circle cx="465.7850001" cy="921.7850001" fill="#5a352a" r="9.7850001"/>
		<circle cx="598.7850001" cy="921.7850001" fill="#a33b20" r="6.5233334"/>
		<circle cx="636.7850001" cy="921.7850001" fill="#a47963" r="6.5233334"/>
		<circle cx="693.7850001" cy="921.7850001" fill="#a33b20" r="9.7850001"/>
		<circle cx="712.7850001" cy="921.7850001" r="9.7850001"/>
		<circle cx="750.7850001" cy="921.7850001" fill="#5a352a" r="6.5233334"/>
		<circle cx="826.7850001" cy="921.7850001" fill="#a47963" r="9.7850001"/>
		<circle cx="845.7850001" cy="921.7850001" fill="#a47963" r="6.5233334"/>
		<circle cx="864.7850001" cy="921.7850001" r="6.5233334"/>
		<circle cx="883.7850001" cy="921.7850001" r="6.5233334"/>
		<circle cx="902.7850001" cy="921.7850001" fill="#5a352a" r="6.5233334"/>
		<circle cx="921.7850001" cy="921.7850001" fill="#a33b20" r="6.5233334"/>
	</g>
	<path d="m42.75 133h48.45c22.8 0 41.8-19 41.8-41.8v-48.45c0-23.75-19-42.75-42.75-42.75h-48.45c-22.8 0-41.8 19-41.8 41.8v48.45c0 23.75 19 42.75 42.75 42.75zm71.25-87.4v41.8c0 14.25-12.35 26.6-26.6 26.6h-41.8c-15.2 0-26.6-11.4-26.6-26.6v-41.8c0-14.25 12.35-26.6 26.6-26.6h41.8c15.2 0 26.6 11.4 26.6 26.6zm726.75 87.4h48.45c22.8 0 41.8-19 41.8-41.8v-48.45c0-23.75-19-42.75-42.75-42.75h-48.45c-22.8 0-41.8 19-41.8 41.8v48.45c0 23.75 19 42.75 42.75 42.75zm71.25-87.4v41.8c0 14.25-12.35 26.6-26.6 26.6h-41.8c-15.2 0-26.6-11.4-26.6-26.6v-41.8c0-14.25 12.35-26.6 26.6-26.6h41.8c15.2 0 26.6 11.4 26.6 26.6zm-869.25 885.4h48.45c22.8 0 41.8-19 41.8-41.8v-48.45c0-23.75-19-42.75-42.75-42.75h-48.45c-22.8 0-41.8 19-41.8 41.8v48.45c0 23.75 19 42.75 42.75 42.75zm71.25-87.4v41.8c0 14.25-12.35 26.6-26.6 26.6h-41.8c-15.2 0-26.6-11.4-26.6-26.6v-41.8c0-14.25 12.35-26.6 26.6-26.6h41.8c15.2 0 26.6 11.4 26.6 26.6z" fill="#a47963"/>
	<path d="m66.5 86.45 3.8 3.8c2.85 2.85 6.65 4.75 10.45 4.75 7.6 0 14.25-6.65 14.25-14.25 0-3.8-1.9-7.6-3.8-10.45l-4.75-3.8 3.8-3.8c2.85-2.85 4.75-6.65 4.75-10.45 0-7.6-6.65-14.25-14.25-14.25-3.8 0-7.6 1.9-10.45 3.8l-3.8 4.75-3.8-4.75c-2.85-1.9-6.65-3.8-10.45-3.8-7.6 0-14.25 6.65-14.25 14.25 0 3.8 1.9 7.6 3.8 10.45l4.75 3.8-4.75 3.8c-1.9 2.85-3.8 6.65-3.8 10.45 0 7.6 6.65 14.25 14.25 14.25 3.8 0 7.6-1.9 10.45-3.8zm798 0 3.8 3.8c2.85 2.85 6.65 4.75 10.45 4.75 7.6 0 14.25-6.65 14.25-14.25 0-3.8-1.9-7.6-3.8-10.45l-4.75-3.8 3.8-3.8c2.85-2.85 4.75-6.65 4.75-10.45 0-7.6-6.65-14.25-14.25-14.25-3.8 0-7.6 1.9-10.45 3.8l-3.8 4.75-3.8-4.75c-2.85-1.9-6.65-3.8-10.45-3.8-7.6 0-14.25 6.65-14.25 14.25 0 3.8 1.9 7.6 3.8 10.45l4.75 3.8-4.75 3.8c-1.9 2.85-3.8 6.65-3.8 10.45 0 7.6 6.65 14.25 14.25 14.25 3.8 0 7.6-1.9 10.45-3.8zm-798 798 3.8 3.8c2.85 2.85 6.65 4.75 10.45 4.75 7.6 0 14.25-6.65 14.25-14.25 0-3.8-1.9-7.6-3.8-10.45l-4.75-3.8 3.8-3.8c2.85-2.85 4.75-6.65 4.75-10.45 0-7.6-6.65-14.25-14.25-14.25-3.8 0-7.6 1.9-10.45 3.8l-3.8 4.75-3.8-4.75c-2.85-1.9-6.65-3.8-10.45-3.8-7.6 0-14.25 6.65-14.25 14.25 0 3.8 1.9 7.6 3.8 10.45l4.75 3.8-4.75 3.8c-1.9 2.85-3.8 6.65-3.8 10.45 0 7.6 6.65 14.25 14.25 14.25 3.8 0 7.6-1.9 10.45-3.8z" fill="#5a352a"/>
</svg>