<svg preserveAspectRatio="none" viewBox="0 0 85.333336 1365.3333" xmlns="http://www.w3.org/2000/svg">
	<clipPath id="a">
		<path d="m0 1024h64v-1024h-64z"/>
	</clipPath>
	<g clip-path="url(#a)" transform="matrix(1.3333333 0 0 -1.3333333 0 1365.3333)">
		<path fill="#303030" d="m0 0c-2.835.055-2.835 4.266 0 4.32 2.836-.054 2.835-4.266 0-4.32m0-25.924c-2.835.055-2.835 4.266 0 4.321 2.836-.055 2.835-4.266 0-4.321m0-25.923c-2.835.055-2.835 4.266 0 4.32 2.836-.055 2.835-4.266 0-4.32m0-25.924c-2.835.055-2.835 4.267 0 4.321 2.836-.055 2.835-4.266 0-4.321m0-25.923c-2.835.054-2.835 4.266 0 4.32 2.836-.055 2.835-4.266 0-4.32m0-460.143c-2.835.055-2.835 4.266 0 4.32 2.836-.054 2.835-4.266 0-4.32m0-25.924c-2.835.055-2.835 4.267 0 4.321 2.836-.055 2.835-4.266 0-4.321m0-25.924c-2.835.056-2.835 4.267 0 4.322 2.836-.055 2.835-4.267 0-4.322m0-25.922c-2.835.054-2.835 4.265 0 4.32 2.836-.055 2.835-4.266 0-4.32m5.759 1012.264c.102-5.843-.223-5.786.199-8.963.238-.829.94-1.448 1.758-1.691 2.763-.556 5.176-.746 9.137-.99 2.969-.192 6.209-.346 8.403-.516 1.098-.086 1.933-.175 2.536-.28.602-.105.969-.226 1.259-.378 1.318-.749 1.447-2.194 1.261-3.675-.119-.714-.291-1.433-.76-1.942-.873-1.142-3.008-1.349-4.307-.859-1.055.388-1.391 1.506-2.343 2.087-.537.342-1.242.499-1.846.487-.405.009-.82 0-1.39-.008-1.142-.015-2.904-.025-4.655-.012s-3.49.047-4.771.027c-1.477.031-2.801-.195-3.744-1.314-.548-.784-.658-1.518-.714-2.584-.022-.495-.025-1.062-.022-5.311-.002-4.329.001-6.068.017-7.152-.016-1.188.106-2.508 1.212-3.172.847-.5 1.428-.514 2.575-.698 3.707-.664 11.768-.733 15.692-1.141 2.07-.206 4.188-.059 4.921-1.994.953-3.637-1.293-6.256-4.932-5.139-.766.332-1.149.934-1.698 1.534-.553.673-1.624 1.086-2.491 1.04-2.98-.03-7.747-.007-10.816.007-1.292-.001-2.359-.118-3.329-.883-.879-.826-1.077-1.738-1.129-3.015-.022-.495-.025-1.062-.022-5.311-.002-4.33.001-6.067.017-7.152.026-.863-.006-1.6.408-2.328.188-.344.465-.619.804-.844.847-.499 1.428-.514 2.575-.697 3.707-.656 11.768-.741 15.692-1.142 1.585-.061 2.709-.229 3.795-.657 1.318-.747 1.447-2.196 1.261-3.676-.119-.716-.291-1.43-.76-1.941-.412-.461-1.067-.867-1.906-1.028-1.393-.285-2.834.044-3.661 1.201-.437.574-.977 1.102-1.706 1.353-.949.267-1.568.189-2.613.181-2.393-.126-6.975.084-9.426.015-5.444-.136-4.334-2.833-4.48-9.209-.002-4.329.001-6.067.016-7.152.021-.956.008-1.877.611-2.631.875-.906 1.795-1.077 3.177-1.238 3.707-.646 11.768-.747 15.692-1.142 3.34-.248 5.579-.459 5.056-4.332-.118-2.509-2.897-3.635-5.067-2.801-1.055.394-1.391 1.502-2.343 2.087-.537.34-1.242.5-1.846.487-.405.009-.82 0-1.39-.008-1.142-.015-2.904-.025-4.655-.012-3.725-.162-9.314 1.285-9.229-3.871-.022-.495-.025-1.062-.022-5.311-.002-4.329.001-6.067.016-7.152-.069-1.563.329-3.033 1.94-3.503 2.763-.582 5.176-.729 9.137-.991 4.001-.286 7.664-.332 10.939-.796 2.21-.209 2.843-2.071 2.52-4.054-.117-2.513-2.898-3.63-5.067-2.8-.766.328-1.149.937-1.698 1.534-.287.33-.796.707-1.268.851-.949.27-1.568.187-2.613.181-1.142-.015-2.904-.025-4.655-.012-3.726-.165-9.311 1.289-9.229-3.871-.022-.495-.025-1.062-.022-5.311.038-5.505-.089-5.764.094-8.482.056-.462.241-.928.533-1.301.874-.908 1.796-1.075 3.177-1.238 3.707-.628 11.768-.761 15.692-1.142 1.098-.085 1.933-.174 2.536-.279.959-.145 1.403-.363 1.941-.933.689-.833.722-1.949.579-3.121-.186-1.601-.997-2.61-2.666-2.969-1.081-.149-2.276-.139-3.084.597-.731.702-1.243 1.616-2.283 1.957-2.428.484-4.372.007-7.268.169-3.727-.168-9.308 1.293-9.229-3.871-.061-13.71-.004 3.908-.023-105.767.001-100.454.001-100.473.001-100.492-.003-4.217 0-4.781.022-5.274.056-1.045.166-1.821.714-2.584.94-1.189 2.27-1.268 3.744-1.314 2.45.005 7.034.053 9.426.015 1.227.082 2.191-.217 3.236.479.952.63 1.288 1.644 2.343 2.087 1.625.626 4.176.109 4.781-1.657.454-1.354.604-3.167-.293-4.264-1.162-1.239-2.585-.931-4.477-1.213-3.92-.239-11.989-.679-15.692-1.141-1.373-.143-2.324-.316-3.177-1.238-.608-.849-.585-1.576-.611-2.631-.015-1.085-.018-2.823-.017-7.151-.003-4.25.001-4.817.023-5.312.056-1.048.166-1.819.714-2.585.94-1.183 2.27-1.271 3.744-1.313 2.45.001 7.034.056 9.426.015 1.045.038 1.666-.133 2.613.181 1.039.295 1.552 1.306 2.283 1.957 1.29 1.15 3.936.785 4.99-.431.894-1.035 1.001-3.085.625-4.28-.429-1.141-1.134-1.474-2.385-1.715-5.642-.79-14.622-.581-20.076-1.787-1.626-.483-2.001-1.936-1.939-3.503-.016-1.085-.019-2.823-.018-7.151-.003-4.25.001-4.817.023-5.313-.044-5.207 5.498-3.684 9.229-3.87 1.751.013 3.513.003 4.655-.012 1.442.02 2.901-.172 3.881 1.032.549.585.932 1.223 1.698 1.534 1.301.554 3.434.201 4.307-.859.894-1.04 1.001-3.081.625-4.28-.821-2.041-2.787-1.695-4.921-1.991-3.92-.256-11.989-.666-15.692-1.14-2.621-.246-3.935-1.14-3.787-3.871-.016-1.084-.019-2.822-.018-7.15-.003-4.25.001-4.817.023-5.312-.046-5.205 5.499-3.686 9.229-3.871 1.751.013 3.513.003 4.655-.012 1.227.043 2.191-.189 3.236.479.952.619 1.288 1.652 2.343 2.087 1.301.55 3.434.204 4.307-.859 1.124-1.489 1.32-4.636-.501-5.617-1.111-.548-2.189-.463-3.795-.658-2.194-.17-5.434-.325-8.403-.516-2.971-.191-5.672-.419-7.289-.625-1.146-.165-1.729-.221-2.575-.698-1.118-.732-1.218-1.897-1.212-3.171-.016-1.085-.019-2.823-.018-7.151-.003-4.25.001-4.817.023-5.312-.048-5.202 5.5-3.688 9.229-3.871 1.751.012 3.513.003 4.655-.012 1.227.03 2.191-.18 3.236.479.952.615 1.288 1.655 2.343 2.087 1.301.547 3.434.207 4.307-.859 1.008-1.313 1.182-3.775.181-5.062-1.162-1.209-2.585-.953-4.477-1.213-3.92-.273-11.989-.654-15.692-1.141-1.146-.167-1.729-.219-2.575-.697-1.118-.724-1.218-1.905-1.212-3.172-.016-1.085-.019-2.823-.018-7.151-.003-4.25.001-4.817.023-5.313-.05-5.196 5.501-3.689 9.229-3.87 1.751.012 3.513.003 4.655-.012 1.227.017 2.191-.17 3.236.479.952.612 1.288 1.657 2.343 2.087 1.625.633 4.176.104 4.781-1.657.454-1.327.604-3.186-.293-4.264-1.162-1.202-2.585-.958-4.477-1.213-3.92-.282-11.989-.648-15.692-1.14-2.627-.237-3.93-1.142-3.787-3.87-.016-1.085-.019-2.823-.018-7.151.103-5.776-.224-5.828.199-8.962.533-1.596 1.983-1.851 3.606-2.057 1.617-.206 4.318-.433 7.289-.625 2.969-.191 6.209-.345 8.403-.516 1.893-.258 3.316-.011 4.477-1.212.689-.837.722-1.947.579-3.121-.186-1.564-.997-2.639-2.666-2.97-1.081-.176-2.276-.119-3.084.598-.731.664-1.243 1.642-2.283 1.957-2.451.456-4.36.027-7.268.169-2.939-.172-5.645.632-7.975-.749-.973-.758-1.201-1.835-1.254-3.122-.022-.495-.026-1.063-.022-5.312-.002-4.329.001-6.067.016-7.151.024-1.032.003-1.825.611-2.631.855-.956 1.804-1.038 3.177-1.239 3.707-.482 11.768-.865 15.692-1.141 3.324-.185 5.595-.535 5.056-4.333-.106-2.506-2.9-3.63-5.067-2.801-1.055.432-1.391 1.476-2.343 2.087-1.047.663-2.008.457-3.236.48-1.142-.016-2.904-.026-4.655-.013s-3.49.048-4.771.027c-1.475-.038-2.805-.143-3.744-1.313-.548-.769-.658-1.53-.714-2.584-.022-.495-.026-1.063-.022-5.312.102-5.766-.225-5.838.198-8.964.533-1.571 1.983-1.869 3.606-2.057 1.617-.205 4.318-.434 7.289-.625 2.969-.191 6.209-.346 8.403-.516 1.893-.281 3.316.006 4.477-1.213.689-.837.722-1.946.579-3.12-.186-1.558-.997-2.642-2.666-2.97-1.081-.179-2.276-.117-3.084.597-.604.544-.943 1.184-1.66 1.659-1.047.675-2.008.448-3.236.48-1.142-.016-2.904-.026-4.655-.013-3.73-.188-9.277 1.336-9.229-3.87-.022-.495-.026-1.062-.022-5.311-.002-4.33.001-6.068.016-7.153.024-1.053.003-1.808.611-2.631.855-.931 1.804-1.054 3.177-1.238 1.616-.206 4.318-.434 7.289-.625 4.001-.288 7.664-.33 10.939-.796 2.708-.199 2.992-3.116 2.234-5.197-.603-1.773-3.157-2.281-4.781-1.656-.766.304-1.149.953-1.698 1.533-.557.716-1.619 1.054-2.491 1.04-1.895-.014-3.639-.034-6.045-.02-1.751.013-3.49.047-4.771.027-1.475-.052-2.805-.133-3.744-1.313-.548-.765-.658-1.533-.714-2.585-.022-.495-.026-1.062-.022-5.31-.002-4.33.001-6.068.016-7.153-.006-1.303.095-2.428 1.213-3.172.846-.471 1.429-.534 2.575-.697 4.759-.581 13.386-.842 18.228-1.421 1.253-.266 1.957-.575 2.385-1.716.377-1.205.267-3.224-.625-4.279-1.055-1.211-3.7-1.574-4.99-.43-.604.558-.943 1.171-1.66 1.658-1.047.699-2.008.43-3.236.479-1.142-.015-2.904-.024-4.655-.012-3.732-.197-9.272 1.348-9.229-3.871-.022-.495-.026-1.062-.022-5.311-.002-4.329.001-6.068.016-7.151-.006-1.315.095-2.421 1.213-3.172.846-.471 1.429-.536 2.575-.699 4.759-.562 13.386-.853 18.228-1.42 1.253-.278 1.957-.566 2.385-1.715.377-1.203.267-3.226-.625-4.281-1.055-1.205-3.7-1.576-4.99-.43-.731.652-1.243 1.652-2.283 1.958-2.451.437-4.36.041-7.268.169-2.94-.176-5.642.634-7.975-.749-.973-.716-1.201-1.866-1.254-3.122-.072-14.762.004 4.683-.023-105.768.022-110.079-.042-91.458.023-105.766.036-.811.125-1.429.389-2.022.304-.688.915-1.271 1.623-1.511 2.312-.709 4.476-.243 7.217-.338 1.751.013 3.513.003 4.655-.011 1.427-.122 2.936-.057 3.881 1.031.549.59.932 1.22 1.698 1.534 1.301.486 3.434.251 4.307-.858.899-1.092.997-3.043.625-4.281-.229-.612-.556-1.018-1.126-1.337-.29-.152-.657-.273-1.259-.378-.603-.105-1.438-.194-2.536-.279-2.194-.171-5.434-.325-8.403-.516-2.971-.192-5.673-.419-7.289-.625-.808-.103-1.344-.201-1.848-.367-.987-.248-1.764-1.173-1.862-2.172-.057-.41-.069-.789-.078-1.331-.015-1.085-.018-2.822-.017-7.15-.003-4.25.001-4.817.023-5.312.037-.812.125-1.43.388-2.023.726-1.522 2.416-1.932 4.07-1.875 1.281-.02 3.02.014 4.771.026 1.751.013 3.513.003 4.654-.011.571-.009.986-.018 1.391-.009.604-.023 1.309.15 1.846.487.952.576 1.288 1.683 2.343 2.087 1.625.655 4.176.088 4.781-1.656.536-1.546.673-3.968-.975-4.819-.29-.153-.657-.274-1.259-.378-.603-.106-1.438-.195-2.536-.28-3.92-.416-11.989-.552-15.692-1.141-.808-.103-1.344-.2-1.848-.366-.501-.151-1.01-.464-1.329-.873-.603-.746-.589-1.65-.611-2.63-.015-1.085-.018-2.824-.017-7.152-.003-4.25.001-4.816.023-5.312.056-1.068.166-1.803.714-2.584.941-1.11 2.268-1.325 3.744-1.314 2.45-.082 7.034.116 9.425.015.571-.008.986-.017 1.391-.008.604-.024 1.309.151 1.846.487.718.446 1.057 1.147 1.66 1.66 1.29 1.054 3.936.852 4.99-.431.469-.509.641-1.218.76-1.942.187-1.501.057-2.922-1.262-3.675-.289-.153-.656-.274-1.258-.378-.603-.106-1.438-.195-2.536-.28-2.194-.17-5.434-.325-8.403-.516-2.971-.191-5.673-.419-7.289-.625-.808-.103-1.344-.2-1.848-.366-.987-.246-1.764-1.176-1.862-2.173-.057-.409-.069-.788-.078-1.33-.015-1.085-.018-2.823-.017-7.152-.003-4.25.001-4.817.023-5.312.056-1.068.166-1.803.714-2.584.941-1.107 2.268-1.327 3.744-1.314 2.45-.058 7.034.099 9.426.015 1.045-.007 1.664-.099 2.613.181.728.249 1.27.797 1.706 1.353 1.171 1.722 4.277 1.659 5.567.174.899-1.099.997-3.038.625-4.28-.229-.612-.556-1.02-1.127-1.337-.289-.152-.656-.274-1.258-.378-4.854-.691-13.46-.723-18.228-1.421-1.147-.188-1.728-.204-2.575-.698-.505-.331-.855-.795-1.031-1.36-.175-.636-.16-1.067-.182-1.811-.015-1.085-.018-2.823-.017-7.151-.003-4.25.001-4.818.023-5.313.037-.811.125-1.429.388-2.021.305-.693.915-1.268 1.624-1.511 2.312-.71 4.476-.243 7.217-.339 1.751.013 3.513.004 4.654-.012.571-.008.986-.016 1.391-.008.871-.082 1.936.388 2.491 1.04.64.698 1.174 1.518 2.186 1.685 1.196.337 3.079-.082 3.819-1.009.468-.515.641-1.213.76-1.942.187-1.506.057-2.919-1.262-3.675-.289-.153-.656-.273-1.258-.379-3.276-.421-6.938-.539-10.939-.796-2.971-.19-5.673-.419-7.289-.624-1.147-.19-1.728-.203-2.575-.698-.505-.332-.855-.794-1.031-1.359-.175-.637-.16-1.068-.182-1.813-.015-1.084-.018-2.822-.017-7.15-.003-4.25.001-4.818.023-5.313.051-1.289.25-2.207 1.129-3.014.969-.75 2.038-.881 3.329-.883 2.45-.063 7.034.099 9.426.014 1.045-.002 1.664-.105 2.613.179 1.492.472 1.881 2.259 3.454 2.536 1.549.442 3.766-.258 4.293-1.807.536-1.533.673-3.978-.975-4.82-.29-.152-.657-.273-1.259-.378-3.276-.419-6.938-.541-10.939-.795-2.971-.192-5.673-.419-7.289-.625-.808-.103-1.344-.2-1.848-.366-.501-.15-1.01-.465-1.329-.873-.602-.76-.59-1.64-.611-2.631-.015-1.085-.018-2.822-.017-7.15h1.62c-.001 4.32-.001 6.074.017 7.123.017 1.048.052 1.389.26 1.65s.588.441 2.122.641c3.662.418 11.679.897 15.602 1.132 2.235.169 3.477.347 4.417.837 2.835 1.499 2.758 5.845.974 8.122-1.325 1.636-4.285 2.059-6.139 1.29-1.582-.69-1.738-1.721-2.871-2.354-1.78-.247-4.308.008-6.759-.08-2.446.106-5.323-.437-6.987.424-.329.248-.558.63-.617 1.898-.02.434-.02.973-.02 5.242 0 4.32 0 6.074.018 7.122.017 1.048.052 1.389.26 1.65s.588.442 2.122.642c3.661.426 11.68.889 15.602 1.132 3.379.248 5.231.439 6.325 3.083 1.46 4.942-2.25 8.836-7.073 7.165-1.536-.647-1.768-1.748-2.871-2.353-.382-.131-.923-.11-2.076-.095-2.34.085-7.051-.054-9.408-.013-1.194.025-1.819.118-2.262.451-.329.248-.558.63-.617 1.896-.02.436-.02.975-.02 5.243 0 4.321 0 6.075.018 7.123.017 1.048.052 1.389.26 1.65s.588.44 2.122.641c3.644.691 11.693.699 15.602 1.133 2.235.168 3.477.345 4.417.835 2.835 1.482 2.756 5.86.974 8.123-1.325 1.633-4.285 2.061-6.139 1.29-1.497-.624-1.792-1.761-2.871-2.354-1.78-.247-4.309.006-6.759-.08-2.447.106-5.32-.439-6.987.423-.329.249-.558.631-.617 1.897-.02.435-.02.975-.02 5.242 0 4.321 0 6.075.018 7.123.017 1.047.052 1.389.26 1.65.208.262.588.441 2.122.642 3.644.678 11.693.707 15.602 1.132 3.384.257 5.226.429 6.325 3.082.577 1.873.349 4.331-.934 5.876-1.878 2.332-6.416 2.161-8.015-.19-1.004-1.198-1.184-.966-3.071-.968-1.154.017-2.918.028-4.683.015-2.448.107-5.319-.441-6.987.423-.329.248-.558.63-.617 1.896-.02.436-.02.975-.02 5.243 0 4.321 0 6.075.018 7.122.017 1.048.052 1.39.26 1.651.208.26.588.44 2.122.641 1.535.201 4.221.421 7.179.612 4.327.454 9.556.073 12.84 1.356 2.835 1.485 2.756 5.858.974 8.122-1.325 1.632-4.285 2.064-6.139 1.29-1.492-.601-1.795-1.777-2.871-2.353-1.786-.312-4.302.052-6.759-.08-2.448.108-5.317-.441-6.987.422-.329.25-.558.631-.617 1.898-.02.435-.02.975-.02 5.242 0 4.32 0 6.074.018 7.122.017 1.048.052 1.39.26 1.651s.588.441 2.122.641c1.535.201 4.221.421 7.179.613 4.328.453 9.555.073 12.84 1.355 3.751 2.052 2.58 9.113-1.842 9.67-1.924.405-4.212-.246-5.199-1.737-1.004-1.204-1.184-.962-3.071-.967-2.34.079-7.051-.051-9.408-.015-1.194.027-1.819.118-2.262.451-.329.248-.558.63-.617 1.898-.052 13.528-.003-3.857-.02 105.696v100.491c0 4.235 0 4.772.02 5.204.14 2.287.771 2.225 2.879 2.349 2.357.016 7.069-.07 9.408-.015 1.153.016 1.694.036 2.076-.094 1.053-.474 1.413-1.862 2.872-2.353 4.885-1.67 8.529 2.304 7.071 7.165-1.164 2.8-2.881 2.711-6.324 3.084-3.903.227-11.964.688-15.602 1.131-1.534.201-1.914.381-2.122.642-.208.26-.243.602-.26 1.65-.018 1.048-.018 2.802-.018 7.123 0 4.268 0 4.807.02 5.242.134 2.282.778 2.226 2.879 2.349 2.357.016 7.069-.071 9.408-.015 1.153.016 1.694.036 2.076-.095 1.053-.483 1.413-1.854 2.872-2.352.916-.375 2.183-.482 3.322-.258 3.483.536 4.698 4.439 3.749 7.423-1.164 2.787-2.881 2.72-6.324 3.083-3.903.238-11.964.681-15.602 1.132-1.534.2-1.914.381-2.122.641-.208.261-.243.603-.26 1.651-.018 1.048-.018 2.802-.018 7.122 0 4.267 0 4.807.02 5.242.059 1.267.288 1.648.617 1.898 1.667.862 4.546.31 6.987.422 1.765-.013 3.529-.002 4.683.014 1.887-.035 2.067.272 3.071-.968 1.596-2.377 6.14-2.464 8.015-.189 1.782 2.261 1.858 6.632-.974 8.122-.94.49-2.182.667-4.417.837-3.903.248-11.964.672-15.602 1.132-2.375.39-2.307.284-2.382 2.291-.018 1.048-.018 2.802-.018 7.123 0 4.267 0 4.806.02 5.242.059 1.266.288 1.648.617 1.896 1.667.866 4.546.31 6.987.424 2.452-.139 4.975.213 6.759-.081 1.053-.501 1.413-1.841 2.872-2.352 1.852-.78 4.814-.329 6.138 1.289 1.782 2.264 1.858 6.629-.974 8.123-3.324 1.33-8.48.869-12.84 1.356-2.958.191-5.645.411-7.179.611-1.534.201-1.914.381-2.122.642s-.243.603-.26 1.65c-.018 1.048-.018 2.802-.018 7.123 0 4.268 0 4.807.02 5.242.059 1.267.288 1.649.617 1.897 1.667.867 4.546.307 6.987.424 2.452-.125 4.975.201 6.759-.081 1.053-.511 1.413-1.835 2.872-2.353.916-.376 2.183-.483 3.322-.257 2.264.421 3.726 2.101 3.958 4.321.317 2.031-.147 4.343-2.116 5.348-.94.49-2.182.668-4.417.836-3.903.27-11.964.658-15.602 1.132-2.369.39-2.311.29-2.382 2.292-.018 1.048-.018 2.802-.018 7.122 0 4.268 0 4.808.02 5.243.143 2.31.777 2.212 2.879 2.348 2.914-.087 8.897.119 11.484-.108 1.053-.521 1.413-1.829 2.872-2.354 1.852-.784 4.814-.325 6.138 1.29 1.782 2.272 1.858 6.623-.974 8.122-3.324 1.295-8.48.896-12.84 1.357-2.958.19-5.645.411-7.179.611-1.534.205-1.914.385-2.122.646-.208.26-.243.602-.26 1.65-.033.674-.02 13.57 0 14.245.017 1.048.052 1.39.26 1.651s.588.441 2.122.641c3.644.481 11.693.85 15.602 1.132 2.235.169 3.477.347 4.417.836 2.835 1.502 2.753 5.848.974 8.123-1.325 1.612-4.285 2.077-6.139 1.29-1.458-.526-1.817-1.83-2.871-2.353-.382-.131-.923-.111-2.076-.095-2.34.06-7.051-.037-9.408-.014-2.094.134-2.741.042-2.879 2.348-.02.435-.02.975-.02 5.242 0 4.321 0 6.075.018 7.123.017 1.048.052 1.39.26 1.65.208.261.588.441 2.122.642 3.644.469 11.693.858 15.602 1.132 2.235.169 3.477.346 4.417.836 2.835 1.505 2.753 5.845.974 8.122-1.878 2.242-6.416 2.227-8.015-.19-1.004-1.236-1.184-.938-3.071-.967-2.34.059-7.051-.037-9.408-.015-2.095.138-2.739.038-2.879 2.349-.02.435-.02.974-.02 5.242 0 4.321 0 6.074.018 7.122.017 1.048.052 1.39.26 1.651s.588.441 2.122.641c3.644.458 11.693.867 15.602 1.132 4.682.084 7.142 1.749 6.533 6.185-.202 3.528-4.251 5.307-7.281 4.063-1.458-.516-1.817-1.835-2.871-2.352-1.789-.331-4.302.066-6.759-.081-2.446.122-5.314-.451-6.987.423-.329.249-.558.63-.617 1.897-.02.435-.02.975-.02 5.243 0 4.32 0 6.074.018 7.122.017 1.048.052 1.389.26 1.651.208.26.588.44 2.122.641 3.644.445 11.693.875 15.602 1.132 2.235.168 3.477.346 4.417.836 2.835 1.511 2.753 5.84.974 8.122-1.325 1.609-4.285 2.08-6.139 1.29-1.458-.512-1.817-1.839-2.871-2.353-1.789-.355-4.302.084-6.759-.081-2.446.124-5.314-.451-6.987.424-.329.248-.558.63-.617 1.897-.02.435-.02.974-.02 5.242 0 4.321 0 6.075.018 7.123.017 1.047.052 1.389.26 1.65s.588.441 2.122.642c3.644.433 11.693.883 15.602 1.131 3.442.378 5.164.312 6.325 3.083.945 2.957-.264 6.911-3.75 7.423-1.924.468-4.212-.292-5.199-1.737-.394-.462-.614-.743-.995-.873-1.787-.238-4.303-.001-6.759-.081-2.447.124-5.313-.452-6.987.423-.329.249-.558.631-.617 1.897-.02.435-.02.975-.02 5.242 0 4.321 0 6.075.018 7.123.017 1.048.052 1.39.26 1.65.208.261.588.441 2.122.642 3.644.422 11.693.892 15.602 1.132 3.442.39 5.164.302 6.325 3.083 1.418 4.624-1.998 8.912-7.073 7.165-1.458-.502-1.817-1.845-2.871-2.353-1.788-.225-4.302-.01-6.759-.08-2.448.124-5.311-.454-6.987.423-.329.248-.558.63-.617 1.897-.02.433-.02.97-.02 5.204v100.492 100.492c0 4.234 0 4.77.02 5.204.059 1.267.288 1.648.617 1.897.443.333 1.068.425 2.262.451 2.357.041 7.069-.088 9.408-.014 1.153.016 1.694.036 2.076-.095.381-.13.601-.411.995-.873.393-.462.96-1.105 1.876-1.48 1.847-.799 4.822-.313 6.139 1.29 1.782 2.326 1.858 6.584-.974 8.123-3.278 1.21-8.509.954-12.84 1.356-2.958.191-5.644.411-7.179.612-1.534.2-1.914.38-2.122.641s-.243.603-.26 1.651c-.018 1.047-.018 2.801-.018 7.122 0 4.268 0 4.807.02 5.242.059 1.267.288 1.649.617 1.897.443.333 1.068.426 2.262.452 2.357.042 7.069-.089 9.408-.015 1.153.016 1.694.036 2.076-.094.381-.131.601-.412.995-.873.393-.462.96-1.105 1.876-1.48.917-.375 2.184-.482 3.323-.257 2.264.385 3.726 2.128 3.958 4.321.317 2.041-.147 4.335-2.116 5.348-.94.49-2.182.667-4.417.836s-5.465.33-8.423.521c-2.958.19-5.644.411-7.179.611-1.534.201-1.914.381-2.122.642-.208.26-.243.602-.26 1.65-.018 1.048-.018 2.802-.018 7.123 0 4.267 0 4.807.02 5.242.059 1.267.288 1.649.617 1.897.443.333 1.068.425 2.262.451 2.357.043 7.069-.09 9.408-.014 1.153.016 1.694.036 2.076-.095.381-.13.601-.411.995-.873.393-.462.96-1.105 1.876-1.48 1.847-.8 4.822-.311 6.139 1.29 1.782 2.334 1.858 6.579-.974 8.123-3.275 1.188-8.511.971-12.84 1.356-2.958.191-5.645.412-7.179.612s-1.914.38-2.122.641-.243.603-.26 1.651c-.018 1.048-.018 2.802-.018 7.122 0 4.268 0 4.807.02 5.242.059 1.267.288 1.649.617 1.897.443.334 1.068.426 2.262.452 2.357.036 7.068-.085 9.408-.014 1.153.015 1.694.035 2.076-.095.381-.131.601-.411.995-.873 2.532-3.429 8.903-1.9 9.157 2.584.317 2.043-.147 4.334-2.116 5.348-.94.49-2.182.667-4.417.836s-5.465.33-8.423.52c-2.958.191-5.645.412-7.179.612-1.534.201-1.914.381-2.122.642-.208.26-.243.602-.26 1.65-.018 1.048-.018 2.802-.018 7.123 0 4.267 0 4.807.02 5.242.059 1.266.288 1.648.617 1.896.443.334 1.068.426 2.262.452 2.357.037 7.068-.085 9.408-.014 1.153.016 1.694.036 2.076-.094 1.083-.5 1.391-1.847 2.872-2.353 1.846-.803 4.821-.311 6.138 1.289 1.784 2.326 1.859 6.58-.974 8.123-.94.489-2.182.667-4.417.836-3.903.481-11.964.505-15.602 1.132-1.534.2-1.914.38-2.122.641s-.243.603-.26 1.65c-.018 1.048-.018 2.803-.018 7.123 0 4.268 0 4.807.02 5.242.059 1.267.288 1.649.617 1.897.443.334 1.068.425 2.262.452 1.196.026 2.96-.014 4.725-.028 2.451-.034 4.978.136 6.759-.081.381-.13.601-.412.995-.873 1.025-1.533 3.252-2.141 5.199-1.737 3.483.483 4.698 4.476 3.749 7.422-.331.955-.968 1.757-1.907 2.247-.94.49-2.182.668-4.417.836-3.919.321-11.952.622-15.602 1.132-1.534.201-1.914.381-2.122.642s-.243.602-.26 1.65c-.018 1.048-.018 2.802-.018 7.123h-1.617m-3.24.006c-.003-4.342.003-6.048.018-7.206-.11-2.195.709-4.635 2.711-5.85.682-.447 1.242-.604 1.904-.81-.74-.212-1.405-.547-2.061-1.038-3.295-2.884-2.418-5.087-2.571-11.015-.004-4.346.002-6.052.017-7.21-.178-2.839 1.309-5.71 4.168-6.523.155-.051.304-.097.447-.138-.187-.054-.382-.118-.577-.195-1.017-.467-1.944-1.037-2.661-2.004-.97-1.311-1.36-3.025-1.364-4.404-.029-.616-.043-1.236-.03-5.449-.004-4.347.002-6.053.017-7.211-.11-2.189.709-4.639 2.711-5.85.512-.333 1.014-.526 1.457-.673.155-.051.304-.097.447-.137-.187-.054-.382-.118-.577-.195-1.418-.553-2.752-1.75-3.358-3.205-.541-1.202-.621-2.196-.667-3.204-.029-.615-.043-1.236-.03-5.449-.004-4.347.002-6.053.017-7.21-.006-1.241.134-2.713.842-3.89.642-1.18 2.046-2.294 3.326-2.633.155-.052.304-.097.447-.138-.187-.054-.382-.118-.577-.195-.497-.198-1.007-.484-1.484-.843-1.717-1.216-2.58-3.672-2.541-5.566-.029-.615-.043-1.235-.03-5.448-.004-4.347.002-6.053.017-7.211-.18-2.845 1.311-5.703 4.168-6.523.155-.051.304-.097.447-.137-.187-.055-.382-.118-.577-.196-1.017-.483-1.943-1.025-2.661-2.004-.973-1.333-1.358-3.009-1.364-4.404-.029-.615-.043-1.236-.03-5.449-.004-4.347.002-6.053.017-7.211-.11-2.181.709-4.644 2.711-5.85.512-.332 1.014-.526 1.457-.672.155-.051.304-.097.448-.138-.188-.054-.382-.117-.578-.195-1.418-.554-2.751-1.749-3.358-3.205-.541-1.201-.622-2.196-.667-3.204-.028-.612-.042-1.229-.031-5.413 0-.019 0-.038 0-100.494 0-100.456 0-100.475 0-100.494-.012-4.184.003-4.801.031-5.414.046-1.007.124-2.002.667-3.203.564-1.355 1.703-2.426 2.977-3.04.319-.131.678-.258.992-.351-.674-.191-1.247-.385-1.938-.819-2.003-1.199-2.822-3.691-2.711-5.851-.015-1.158-.021-2.864-.018-7.207-.013-4.217.003-4.837.031-5.452-.031-1.711.721-4.18 2.268-5.35.549-.445 1.115-.832 1.772-1.047.515-.242.762-.13.115-.344-2.885-.84-4.34-3.691-4.168-6.523-.015-1.158-.021-2.864-.018-7.207-.013-4.217.003-4.837.031-5.453-.084-2.348 1.29-5.261 3.644-6.243.391-.231 1.498-.296.511-.498-1-.293-2.193-1.057-2.86-1.931-1.046-1.262-1.341-3.09-1.308-4.591-.015-1.159-.021-2.865-.018-7.208.14-6.215-.811-9.086 3.675-11.696.384-.213 1.519-.305.511-.497-2.873-.821-4.346-3.707-4.168-6.523-.015-1.158-.021-2.864-.018-7.207-.013-4.217.003-4.837.031-5.452-.118-2.73 1.744-5.968 4.636-6.595-.674-.196-1.247-.382-1.938-.82-2.003-1.189-2.822-3.697-2.711-5.85-.015-1.157-.021-2.863-.018-7.207.145-6.292-.816-9.056 3.675-11.696.408-.255 1.446-.288.511-.498-2.86-.8-4.353-3.724-4.168-6.522-.015-1.158-.021-2.864-.018-7.207-.003-4.341.003-6.047.018-7.205-.109-2.149.706-4.664 2.711-5.85.512-.332 1.014-.526 1.457-.673.643-.14.299-.17-.13-.333-4.875-2.496-3.919-5.399-4.055-11.856-.004-4.348.002-6.054.017-7.211-.185-3.043 1.479-5.948 4.615-6.66-5.379-2.121-4.544-5.483-4.632-12.053-.004-4.347.002-6.053.017-7.211-.109-2.14.706-4.671 2.711-5.85.682-.428 1.243-.618 1.904-.81-2.848-.65-4.731-3.899-4.602-6.603-.029-.616-.043-1.237-.03-5.45-.004-4.346.002-6.052.017-7.211-.109-2.135.706-4.674 2.711-5.849.682-.427 1.243-.619 1.904-.811-2.848-.646-4.731-3.901-4.602-6.603-.029-.615-.043-1.236-.03-5.449-.004-4.347.002-6.053.017-7.21-.032-1.493.261-3.338 1.308-4.592.79-.997 2.113-1.798 3.307-2.069-.74-.21-1.405-.548-2.061-1.038-1.717-1.136-2.58-3.73-2.541-5.566-.029-.615-.043-1.235-.03-5.448-.004-4.347.002-6.053.017-7.211-.006-1.225.134-2.725.842-3.89.645-1.254 2.043-2.243 3.326-2.633.155-.051.304-.096.448-.137-.188-.054-.382-.119-.578-.196-.594-.238-1.225-.609-1.756-1.058-1.545-1.146-2.3-3.65-2.269-5.35-.094-15.118.004 4.781-.031-105.909.032-110.323-.058-91.235.031-105.906-.038-1.852.82-4.414 2.544-5.566.626-.529 1.342-.801 2.092-1.029-.674-.218-1.247-.365-1.938-.818-2.003-1.156-2.822-3.724-2.711-5.851-.015-1.158-.021-2.864-.018-7.207-.013-4.217.003-4.837.031-5.453.046-1.008.124-2.002.667-3.203.565-1.291 1.702-2.472 2.977-3.04.319-.139.677-.253.991-.351-.153-.043-.313-.092-.48-.147-.998-.256-2.195-1.084-2.86-1.931-1.046-1.251-1.341-3.099-1.308-4.592-.015-1.158-.021-2.864-.018-7.207-.013-4.217.003-4.837.031-5.452.046-1.008.124-2.003.667-3.204.565-1.288 1.702-2.474 2.977-3.04.319-.138.677-.252.991-.351-.153-.043-.313-.092-.48-.146-.998-.256-2.195-1.086-2.86-1.932-1.046-1.25-1.341-3.099-1.308-4.592-.015-1.157-.021-2.863-.018-7.207-.013-4.217.003-4.837.031-5.452.046-1.008.124-2.002.667-3.204.565-1.286 1.702-2.475 2.977-3.04.319-.138.677-.253.991-.351-.153-.043-.313-.09-.48-.146-.998-.254-2.195-1.087-2.86-1.932-1.046-1.25-1.341-3.098-1.308-4.591-.015-1.158-.021-2.864-.018-7.208-.013-4.215.003-4.836.031-5.452.046-1.008.124-2.002.667-3.203.565-1.284 1.702-2.477 2.977-3.04.319-.138.677-.253.991-.35-.674-.214-1.246-.37-1.937-.82-1.145-.719-1.993-1.879-2.389-3.139-.287-1.01-.305-1.824-.322-2.711-.015-1.159-.021-2.865-.018-7.207-.013-4.217.003-4.837.031-5.453.046-1.007.124-2.002.667-3.204.565-1.281 1.702-2.478 2.977-3.04.319-.137.677-.253.991-.35-.674-.214-1.246-.369-1.937-.82-.761-.499-1.444-1.173-1.869-1.96-.707-1.165-.849-2.665-.842-3.89-.015-1.157-.021-2.863-.018-7.205h1.62c-.003 4.334.002 6.056.017 7.177-.01 1.218.129 2.608.958 3.612 1.093 1.243 2.571 1.691 4.234 1.836 1.699.211 4.415.445 7.397.637 3.947.258 7.604.347 10.762.774.496.083.685.158.795.218.21.151.225.17.345.427.185.572.162 2.095-.317 2.685-.157.157-.456.411-.996.508-.405.073-.945.058-1.248-.01-.442-.076-.527-.307-.872-.655-.552-.717-1.426-1.532-2.418-1.834-1.244-.417-1.942-.245-3.152-.265-2.441.127-6.907-.083-9.444-.015-1.67-.088-3.867.429-4.995 1.953-.764 1.057-1.012 2.269-1.039 3.495-.025.554-.037 1.148-.027 5.382-.003 4.335.002 6.057.017 7.178-.01 1.22.129 2.607.958 3.612 1.091 1.255 2.572 1.682 4.234 1.835 3.769.628 11.843.776 15.783 1.151 1.385.108 2.357.178 3.171.479.21.152.225.17.345.427.189.415.115 1.808-.132 2.372-.064.18-.107.235-.185.313-.157.157-.456.411-.996.508-.515.084-1.075.072-1.478-.081-.289-.129-.357-.291-.642-.583-.417-.441-.755-.961-1.433-1.363-.74-.468-1.933-.801-2.683-.746-.481-.01-.89-.001-1.454.007-1.13.015-2.886.023-4.625.012-3.708.129-8.411-1.07-10.327 2.807-.405.897-.485 1.704-.526 2.614-.025.555-.037 1.148-.027 5.381-.003 4.336.002 6.059.017 7.18.009 1.035.06 2.162.624 3.108.96 1.64 2.735 2.164 4.568 2.339 3.769.621 11.843.781 15.783 1.151 1.396.072 2.344.201 3.171.478.21.152.225.17.345.428.185.567.162 2.098-.317 2.685-.157.157-.456.411-.996.507-.405.074-.945.058-1.248-.008-.442-.08-.527-.305-.872-.656-.552-.717-1.426-1.531-2.418-1.834-1.244-.416-1.942-.244-3.152-.267-2.442.164-6.906-.112-9.444-.016-1.67-.083-3.867.425-4.995 1.953-.764 1.054-1.012 2.272-1.039 3.494-.025.556-.037 1.15-.027 5.383-.003 4.336.002 6.058.017 7.179-.009 1.205.127 2.617.958 3.611 1.068 1.407 2.586 1.57 4.234 1.836 4.766.618 13.361.828 18.159 1.411.651.118.723.129.98.378.046.055.11.117.16.268.189.41.115 1.81-.132 2.372-.064.18-.107.234-.185.312-.157.158-.456.411-.996.509-.515.088-1.074.068-1.478-.081-.109-.044-.14-.063-.23-.148-.091-.086-.239-.237-.412-.436-.131-.148-.276-.323-.491-.559-.386-.445-1.239-1.085-1.927-1.275-1.244-.415-1.942-.244-3.152-.267-2.442.157-6.906-.107-9.444-.015-1.67-.081-3.867.422-4.995 1.953-.764 1.052-1.012 2.272-1.039 3.494-.025.556-.037 1.149-.027 5.382-.003 4.336.002 6.058.017 7.18-.009 1.207.127 2.614.958 3.61 1.068 1.401 2.586 1.575 4.234 1.837 3.769.607 11.843.789 15.783 1.15 1.398.095 2.343.185 3.171.479.21.151.225.17.345.428.103.299.157.95.062 1.574-.089.418-.139.865-.379 1.109-.157.157-.456.412-.996.509-.405.073-.945.058-1.248-.009-.209-.062-.314-.077-.46-.221-.752-.79-1.597-1.931-2.83-2.268-1.244-.415-1.942-.245-3.152-.268-2.442.151-6.906-.101-9.444-.015-1.67-.077-3.867.421-4.995 1.953-.765 1.066-1.011 2.262-1.039 3.494-.025.556-.037 1.148-.027 5.383-.003 4.336.002 6.057.017 7.178-.009 1.21.127 2.614.958 3.612 1.068 1.394 2.586 1.578 4.234 1.837 4.763.625 13.363.822 18.159 1.408.496.086.685.166.795.224.218.129.228.186.344.436.209.614.107 1.749-.131 2.353-.064.175-.107.238-.185.321-.156.165-.456.407-.996.504-.515.086-1.075.076-1.478-.08-.289-.131-.358-.289-.642-.583-.131-.149-.276-.323-.491-.56-.386-.448-1.239-1.082-1.927-1.274-1.244-.413-1.942-.245-3.152-.268-1.13.015-2.886.024-4.625.012-4.764.029-10.724-1.069-10.853 5.421-.025.553-.036 1.142-.027 5.344 0 .019 0 .038-.001 100.493.027 110.345-.05 91.248.027 105.837.092 6.438 6.117 5.431 10.855 5.42 1.741-.013 3.492-.002 4.623.012 1.45-.055 2.815.171 4.138-.739 1.01-.627 1.249-1.39 2.075-1.945.404-.191.962-.136 1.478-.08.54.095.84.338.996.504.463.618.524 1.945.316 2.673-.269.565-.358.464-1.139.66-4.774.53-13.422.809-18.158 1.409-3.346.262-5.38 1.984-5.193 5.448-.015 1.121-.02 2.843-.016 7.182.164 5.694-.848 8.422 3.039 10.353 1 .392 2.008.452 3.022.474 2.526-.008 7.008-.052 9.442-.015 1.211-.018 1.908.137 3.152-.268.991-.281 1.868-1.135 2.419-1.834.346-.374.43-.552.872-.656.574-.183 1.944.031 2.244.5.478.533.503 2.169.317 2.684-.282.535-.359.47-1.14.645-4.774.549-13.422.799-18.158 1.411-2.122.14-4.304 1.027-4.941 3.186-.233.797-.233 1.469-.252 2.262-.015 1.121-.02 2.844-.016 7.181-.01 4.232 0 4.825.025 5.38.008 1.547.541 3.4 1.899 4.343 2.751 1.815 5.656.896 8.956 1.077 1.741-.012 3.492-.002 4.623.013 1.45-.025 2.815.148 4.138-.739.961-.585 1.28-1.415 2.075-1.947.776-.301 2.383-.122 2.659.741.246.779.418 2.095-.028 2.638-.257.268-.33.239-.98.378-4.774.564-13.422.789-18.158 1.411-1.276.167-2.16.306-3.231.937-1.566.962-2.028 2.803-1.962 4.512-.015 1.121-.02 2.842-.016 7.18-.01 4.232 0 4.825.025 5.38.113 6.448 6.087 5.428 10.855 5.42 1.741-.013 3.492-.002 4.623.013 1.751.081 3.884-.04 5.08-1.543.442-.463.671-.881 1.133-1.143.632-.314 2.096-.08 2.474.428.239.28.29.65.379 1.109.061.897.171 1.571-.407 2.002-3.437.832-7.303.605-11.557.992-2.982.192-5.698.427-7.396.638-1.821.175-3.635.688-4.569 2.338-.566.98-.613 2.033-.624 3.109-.015 1.121-.02 2.843-.016 7.181-.01 4.232 0 4.825.025 5.38.014 1.467.476 3.213 1.699 4.184 2.731 2.033 5.794 1.045 9.156 1.237 1.741-.014 3.492-.003 4.623.013 1.45.003 2.815.126 4.138-.741.961-.565 1.28-1.428 2.075-1.946.776-.299 2.383-.124 2.659.74.242.845.51 2.308-.213 2.799-3.437.829-7.303.607-11.557.992-2.982.192-5.698.427-7.396.638-2.369.126-4.834 1.361-5.097 3.906-.228 2.954-.062 3.092-.112 8.722-.01 4.231 0 4.825.025 5.38.042.91.124 1.717.527 2.613.89 2.174 3.385 2.895 5.509 2.834 2.526.017 7.008-.068 9.442-.014 1.211-.018 1.908.137 3.152-.268.691-.221 1.542-.791 1.928-1.275.442-.446.671-.894 1.133-1.143.632-.292 2.096-.096 2.474.428.478.559.503 2.15.317 2.684-.283.537-.357.468-1.14.646-5.733.806-14.717.528-20.298 1.844-2.231.618-3.195 2.858-3.053 5.014-.015 1.121-.02 2.843-.017 7.177-.003 4.332.002 6.054.017 7.175-.007 1.254.125 2.582.958 3.611 1.065 1.309 2.587 1.64 4.235 1.836 3.768.502 11.842.867 15.782 1.151 1.42.154 2.321.141 3.171.479.109.06.138.106.185.16.449.513.275 1.91.028 2.639-.3.916-2.157 1.133-2.889.592-.607-.579-.994-1.268-1.845-1.798-.74-.498-1.933-.779-2.683-.746-1.959.001-3.63.039-6.079.018-3.033.103-5.046-.425-7.831.455-3.881 1.906-2.884 4.529-3.049 10.348-.003 4.336.002 6.058.017 7.179-.179 3.432 1.82 5.206 5.193 5.448 4.744.634 13.375.815 18.158 1.411.651.139.723.113.98.378.449.531.275 1.897.028 2.639-.269.885-1.889 1.023-2.659.74-.462-.252-.694-.697-1.133-1.143-.389-.497-1.235-1.045-1.927-1.274-1.244-.404-1.942-.252-3.152-.268-1.13.015-2.886.024-4.625.011-3.033.096-5.046-.421-7.831.455-3.872 1.892-2.889 4.541-3.049 10.349-.003 4.335.002 6.057.017 7.179-.19 3.39 1.82 5.222 5.193 5.447 3.768.488 11.842.876 15.782 1.15 1.42.179 2.321.123 3.171.479.109.06.138.106.185.161.337.444.294 1.04.223 1.841-.089.465-.14.833-.38 1.11-.157.157-.456.411-.996.509-.517.06-1.074.087-1.478-.082-.797-.536-1.114-1.374-2.075-1.946-1.326-.889-2.687-.74-4.137-.739-1.13.015-2.886.023-4.625.012-4.752-.007-10.735-1.034-10.853 5.421-.025.555-.037 1.148-.027 5.382-.003 4.335.002 6.057.017 7.179-.178 3.373 1.771 5.212 5.193 5.447 1.698.211 4.414.446 7.396.638 4.253.386 8.122.164 11.557.991.21.155.225.168.345.427.186.52.16 2.134-.317 2.685-.157.157-.456.411-.996.508-.617.049-1.262.143-1.708-.229-.751-.812-1.597-1.917-2.83-2.269-1.244-.403-1.942-.253-3.152-.268-1.13.015-2.886.024-4.625.012-4.751-.009-10.736-1.031-10.853 5.421-.025.555-.037 1.148-.027 5.382-.003 4.336.002 6.058.017 7.179-.178 3.307 1.722 5.221 5.193 5.447 3.768.475 11.842.886 15.782 1.15 1.42.204 2.321.106 3.171.48.21.153.225.168.345.427.186.514.16 2.137-.317 2.684-.157.158-.456.411-.996.509-.923.091-1.547.132-2.12-.665-.552-.712-1.426-1.534-2.418-1.834-1.244-.402-1.942-.253-3.152-.267-2.441.021-6.906-.008-9.444-.016-1.994-.087-4.668.677-5.508 2.835-.405.896-.485 1.703-.526 2.613-.025.555-.037 1.149-.027 5.382-.003 4.336.002 6.058.017 7.179-.007 1.278.124 2.564.958 3.612 1.065 1.255 2.587 1.676 4.235 1.835 3.768.466 11.842.893 15.782 1.151 1.076.085 1.88.174 2.376.259.648.144.718.12.98.373.347.425.291 1.27.223 1.861-.088.496-.147.795-.38 1.1-.156.165-.456.407-.996.504-.618.039-1.261.154-1.708-.228-.628-.542-.979-1.297-1.845-1.798-1.326-.934-2.687-.708-4.137-.739-2.441.015-6.906-.003-9.444-.015-1.994-.087-4.668.676-5.508 2.834-.404.897-.485 1.704-.526 2.613-.025.553-.036 1.143-.027 5.344 0 .019 0 .038-.001 100.493.001 100.455.001 100.475.001 100.494-.009 4.201.002 4.791.026 5.343.041.91.124 1.717.527 2.613.454 1.051 1.43 1.969 2.487 2.361 2.641.867 4.887.344 7.841.446 3.044-.163 5.213.363 7.775-.255.69-.163 1.543-.833 1.928-1.275.426-.437.682-.9 1.133-1.142.403-.15.963-.165 1.478-.08.54.096.84.339.996.504.463.686.524 1.896.317 2.674-.051.145-.114.228-.16.287-.262.267-.333.219-.98.372-4.788.634-13.409.735-18.158 1.41-1.276.196-2.159.285-3.231.936-1.561.895-2.032 2.852-1.962 4.511-.015 1.122-.02 2.844-.016 7.182-.01 4.231 0 4.824.025 5.38-.047 2.014.998 4.266 3.014 4.973 2.641.868 4.887.343 7.841.447 3.044-.163 5.213.363 7.775-.255 1.273-.333 2.052-1.47 2.831-2.27.45-.363 1.089-.293 1.708-.229 1.077.306 1.21.637 1.375 1.618.095.624.041 1.274-.062 1.575-.117.261-.138.273-.345.427-.11.06-.299.135-.795.218s-1.3.175-2.376.261c-4.959.457-13.237.453-17.922 1.584-.949.255-1.953 1.022-2.429 1.904-.565.926-.614 2.074-.624 3.109-.015 1.122-.02 2.844-.016 7.182-.01 4.231 0 4.824.025 5.379.029 1.229.275 2.451 1.039 3.495 1.172 1.555 3.189 1.978 4.997 1.953 2.526.117 7.008-.141 9.442-.014 1.211-.018 1.908.136 3.152-.268 1.275-.325 2.05-1.475 2.831-2.27.45-.364 1.089-.292 1.708-.229.54.097.839.351.996.508.24.234.29.685.379 1.11.095.624.041 1.274-.062 1.574-.05.151-.114.214-.16.268-.257.244-.33.254-.98.378-4.79.648-13.407.727-18.158 1.412-1.696.312-3.125.426-4.235 1.835-.829.998-.967 2.382-.958 3.611-.015 1.122-.02 2.844-.016 7.182-.01 4.231 0 4.825.025 5.38.042.909.124 1.717.527 2.613.886 2.122 3.391 2.933 5.509 2.834 2.526.123 7.008-.145 9.442-.014 1.211-.018 1.908.136 3.152-.268 1.032-.232 1.838-1.165 2.419-1.835.346-.33.43-.582.872-.655.744-.214 2.199.039 2.429.812.246.57.322 1.947.132 2.372-.05.15-.114.213-.16.267-.257.243-.33.256-.98.378-4.792.654-13.406.723-18.158 1.412-1.69.34-3.131.408-4.235 1.836-.829.995-.967 2.383-.958 3.611-.015 1.121-.02 2.843-.016 7.181-.01 4.231 0 4.825.025 5.38.042.909.124 1.716.527 2.613.575 1.326 1.916 2.355 3.317 2.61 3.42.605 8.248-.018 11.634.21 1.211-.018 1.908.136 3.152-.268.989-.349 1.87-1.086 2.419-1.835.284-.3.354-.447.642-.583.404-.147.963-.165 1.478-.081.54.097.839.351.996.508.24.23.29.688.379 1.11.095.624.041 1.274-.062 1.575-.117.263-.138.272-.345.427-.11.06-.299.135-.795.219-.496.083-1.3.174-2.376.261-2.154.172-5.404.32-8.386.512s-5.698.427-7.396.638c-1.277.184-2.158.292-3.231.936-1.558.904-2.035 2.846-1.962 4.511-.015 1.121-.02 2.843-.016 7.181-.01 4.232 0 4.825.025 5.38.042.91.124 1.717.527 2.613.886 2.118 3.391 2.936 5.509 2.834 2.526.089 7.008-.12 9.442-.014 1.735.169 3.94-.127 5.08-1.543.433-.411.676-.919 1.133-1.143.776-.273 2.383-.143 2.659.74.246.57.322 1.948.132 2.372-.05.15-.114.213-.16.267-.047.055-.076.1-.185.161-.11.06-.298.134-.795.217-.496.084-1.3.176-2.376.262-3.936.406-12.017.558-15.782 1.15-1.277.184-2.158.292-3.231.936-1.558.902-2.035 2.848-1.962 4.511-.015 1.121-.02 2.843-.017 7.178h-1.619m-5.043-.009c.003-4.342-.003-6.048-.018-7.206.11-2.195-.709-4.635-2.711-5.85-.682-.447-1.243-.604-1.905-.811.741-.211 1.406-.546 2.063-1.037 3.294-2.884 2.417-5.088 2.57-11.015.004-4.346-.002-6.053-.017-7.211.178-2.838-1.309-5.71-4.168-6.523-.155-.051-.304-.096-.448-.137.189-.054.383-.118.578-.196 1.017-.466 1.944-1.036 2.661-2.003.97-1.312 1.361-3.025 1.364-4.405.029-.615.043-1.235.029-5.449.005-4.346-.001-6.052-.016-7.21.11-2.189-.709-4.639-2.711-5.851-.512-.332-1.014-.526-1.457-.672-.155-.051-.304-.097-.448-.138.189-.054.383-.117.578-.195 1.418-.553 2.751-1.749 3.358-3.205.541-1.201.622-2.195.668-3.203.028-.615.042-1.236.028-5.449.005-4.347-.001-6.053-.016-7.211.032-1.529-.261-3.31-1.308-4.591-.667-.839-1.859-1.671-2.86-1.931-.155-.052-.304-.098-.447-.138.188-.054.382-.118.577-.195.497-.198 1.007-.484 1.485-.843 1.716-1.216 2.58-3.672 2.54-5.566.029-.615.043-1.235.029-5.449.005-4.346-.001-6.052-.016-7.21.111-2.184-.709-4.643-2.711-5.85-.682-.452-1.243-.601-1.904-.811.839-.218 1.628-.679 2.333-1.253 1.54-1.233 2.305-3.588 2.269-5.35.029-.616.043-1.236.029-5.449.005-4.347-.001-6.053-.016-7.211.111-2.181-.709-4.645-2.711-5.85-.512-.333-1.014-.526-1.457-.673-.155-.051-.304-.096-.448-.137.188-.054.382-.118.578-.196 1.418-.553 2.751-1.748 3.358-3.204.541-1.201.622-2.196.668-3.204.027-.612.042-1.229.03-5.414 0-.018 0-.037 0-100.494 0-100.455 0-100.474 0-100.493.013-4.185-.003-4.801-.031-5.414-.046-1.007-.123-2.002-.667-3.204-.564-1.354-1.702-2.425-2.977-3.04-.318-.131-.678-.258-.992-.35.674-.191 1.247-.386 1.938-.819 2.003-1.199 2.822-3.692 2.711-5.851.015-1.158.021-2.864.018-7.207.013-4.217-.003-4.837-.031-5.452.084-2.355-1.289-5.258-3.644-6.244-.385-.207-1.512-.311-.511-.497 1-.299 2.193-1.055 2.86-1.932 1.047-1.262 1.341-3.09 1.308-4.591.015-1.158.021-2.864.018-7.208.013-4.216-.003-4.837-.031-5.452.084-2.349-1.289-5.261-3.644-6.244-.391-.231-1.498-.295-.511-.497 1-.294 2.193-1.058 2.86-1.931 1.047-1.262 1.341-3.091 1.308-4.592.015-1.158.021-2.864.018-7.207.013-4.217-.003-4.837-.031-5.452-.046-1.008-.123-2.003-.667-3.204-.564-1.342-1.702-2.434-2.977-3.04-.384-.213-1.519-.306-.511-.497 2.874-.822 4.346-3.707 4.168-6.523.015-1.158.021-2.865.018-7.207.013-4.217-.003-4.838-.031-5.453.031-1.719-.721-4.174-2.268-5.35-.435-.349-.886-.676-1.376-.894-.408-.276-1.445-.272-.511-.497 2.867-.811 4.35-3.716 4.168-6.523.015-1.158.021-2.864.018-7.207-.146-6.292.816-9.057-3.675-11.696-.318-.136-.678-.254-.991-.351.674-.197 1.246-.38 1.937-.819 2.003-1.187 2.822-3.699 2.711-5.85.015-1.158.021-2.864.018-7.208.003-4.34-.003-6.046-.018-7.204.109-2.15-.706-4.665-2.711-5.85-.681-.432-1.243-.615-1.904-.81.839-.238 1.628-.665 2.333-1.253 1.545-1.177 2.3-3.628 2.27-5.351.028-.615.042-1.235.029-5.449.004-4.347-.002-6.053-.017-7.211.109-2.144-.706-4.668-2.711-5.85-.681-.43-1.243-.616-1.904-.81.839-.239 1.628-.663 2.333-1.253 1.545-1.17 2.3-3.632 2.27-5.351.028-.615.042-1.235.029-5.448.004-4.347-.002-6.054-.017-7.211.109-2.14-.706-4.672-2.711-5.85-.681-.428-1.243-.618-1.904-.81.839-.242 1.628-.663 2.333-1.254 1.545-1.164 2.3-3.637 2.27-5.35.028-.616.042-1.236.029-5.449-.058-5.784.13-5.733-.132-8.961-.228-2.317-2.238-4.436-4.5-4.91.839-.243 1.628-.661 2.333-1.254 1.545-1.157 2.3-3.64 2.27-5.349.028-.616.042-1.237.029-5.45.004-4.346-.002-6.052-.017-7.21.006-1.225-.134-2.724-.841-3.89-.646-1.248-2.044-2.246-3.327-2.633-.627-.093-.362-.189.13-.333.497-.197 1.007-.483 1.485-.843.764-.559 1.499-1.456 1.873-2.361.542-1.202.622-2.196.668-3.204.028-.615.042-1.235.029-5.449.004-4.347-.002-6.053-.017-7.21.006-1.225-.134-2.725-.841-3.891-.646-1.253-2.044-2.242-3.327-2.632-.155-.052-.304-.097-.448-.137.188-.055.382-.119.578-.197.497-.197 1.007-.483 1.485-.842.764-.562 1.499-1.455 1.873-2.362.542-1.201.622-2.196.668-3.204.027-.612.042-1.228.03-5.413 0-.02 0-.038 0-100.495 0-100.455 0-100.474 0-100.493.013-4.185-.003-4.801-.031-5.413-.046-1.008-.123-2.003-.667-3.204-.564-1.273-1.702-2.485-2.977-3.041-.318-.137-.678-.252-.992-.35.154-.043.313-.092.481-.147 1.281-.316 2.683-1.446 3.327-2.632.707-1.165.848-2.664.841-3.891.015-1.157.021-2.863.018-7.207.014-4.216-.003-4.837-.031-5.452-.046-1.008-.123-2.002-.666-3.204-.63-1.407-1.907-2.701-3.373-3.194-.21-.074-.408-.139-.596-.197.153-.043.313-.091.48-.146.444-.147.945-.34 1.457-.673 1.145-.719 1.993-1.877 2.389-3.139.287-1 .305-1.831.322-2.711.015-1.158.021-2.864.018-7.207.014-4.217-.003-4.837-.031-5.452.031-1.768-.721-4.141-2.268-5.351-.697-.612-1.501-1.003-2.367-1.244.674-.221 1.246-.363 1.937-.819 2.003-1.151 2.822-3.727 2.711-5.851.015-1.158.021-2.864.018-7.207.014-4.217-.003-4.837-.031-5.452-.001-1.394-.394-3.107-1.364-4.405-.738-.965-1.602-1.572-2.675-1.993-.21-.075-.408-.139-.596-.197.153-.043.313-.091.48-.146.444-.147.945-.341 1.457-.673 1.145-.719 1.993-1.878 2.389-3.139.287-1.006.305-1.826.322-2.712.015-1.157.021-2.863.018-7.207.014-4.216-.003-4.836-.031-5.452.031-1.772-.721-4.135-2.268-5.349-.697-.615-1.501-1.002-2.367-1.244 1.206-.325 2.544-1.024 3.34-2.08 1.047-1.249 1.341-3.098 1.308-4.59.015-1.159.021-2.865.018-7.207.014-4.217-.003-4.837-.031-5.454-.046-1.007-.123-2.002-.666-3.203-.566-1.281-1.702-2.479-2.978-3.04-.318-.137-.677-.254-.991-.35.153-.043.313-.092.48-.148.998-.25 2.196-1.089 2.86-1.93 1.047-1.249 1.341-3.1 1.308-4.592.015-1.158.021-2.864.018-7.206h-1.62c.003 4.335-.001 6.056-.017 7.178.01 1.218-.129 2.608-.958 3.611-1.092 1.243-2.571 1.691-4.234 1.836-3.769.634-11.843.77-15.782 1.15-1.077.086-1.881.178-2.377.262-.496.083-.685.157-.795.218-.109.059-.138.105-.185.16-.046.053-.109.117-.16.267-.189.414-.115 1.808.132 2.371.278.896 2.17 1.144 2.89.591.089-.085.238-.236.412-.434.13-.15.275-.325.49-.56.216-.236.502-.531.942-.804.74-.465 1.933-.801 2.684-.746 1.959-.081 3.629.106 6.078.023 3.52.174 7.342-.96 9.814 1.926.764 1.056 1.012 2.269 1.04 3.495.025.554.036 1.148.027 5.381.002 4.336-.002 6.058-.018 7.179.066 1.668-.394 3.588-1.962 4.511-1.071.658-1.955.747-3.23.936-3.769.628-11.843.776-15.782 1.151-1.077.086-1.881.178-2.377.261-.651.115-.723.13-.98.378-.046.054-.109.117-.16.267-.184.57-.162 2.097.317 2.685.157.157.456.411.996.508.405.073.946.058 1.248-.008.21-.064.314-.077.461-.221.089-.086.238-.236.412-.436.13-.148.275-.324.49-.559.386-.454 1.239-1.077 1.928-1.275 1.243-.416 1.941-.243 3.152-.267 1.13.015 2.885.023 4.624.012 3.305.17 6.149-.731 8.952 1.078 1.354.993 1.902 2.751 1.902 4.342.025.555.036 1.149.027 5.382.002 4.336-.002 6.058-.018 7.179.133 2.152-.813 4.408-3.053 5.014-4.664 1.179-12.973 1.091-17.921 1.584-1.397.073-2.345.202-3.172.479-.21.152-.225.17-.345.428-.102.3-.156.95-.062 1.574.168.936.297 1.372 1.375 1.618.515.09 1.075.068 1.478-.081.289-.13.358-.291.643-.583.416-.443.755-.96 1.432-1.363.74-.469 1.933-.8 2.684-.746.48-.01.889-.001 1.454.007 1.13.014 2.885.023 4.624.011 3.033.217 5.046-.507 7.831.455 1.088.37 2.027 1.291 2.496 2.353.404.897.485 1.704.527 2.613.025.556.036 1.149.027 5.383.002 4.335-.002 6.058-.018 7.179.066 1.671-.394 3.585-1.962 4.511-1.071.656-1.955.748-3.23.936-4.766.617-13.361.828-18.159 1.411-.496.083-.685.158-.795.218-.21.151-.225.17-.345.428-.184.566-.162 2.098.317 2.684.157.158.456.411.996.508.405.073.946.058 1.248-.009.21-.062.314-.076.461-.219.089-.086.238-.238.412-.436.13-.148.275-.324.49-.56.386-.444 1.239-1.084 1.928-1.274 1.243-.415 1.941-.244 3.152-.267 2.44.157 6.905-.107 9.443-.015 1.67-.081 3.867.422 4.995 1.952.764 1.052 1.012 2.272 1.04 3.495.025.555.036 1.149.027 5.382-.047 5.672.109 5.727-.114 8.72-.308 2.57-2.697 3.772-5.096 3.906-3.769.607-11.843.79-15.782 1.15-1.399.096-2.343.186-3.172.48-.21.151-.225.17-.345.427-.102.3-.156.951-.062 1.575.168.942.298 1.366 1.375 1.618.515.088 1.075.069 1.478-.081.289-.131.358-.291.643-.583.416-.433.755-.968 1.432-1.363.293-.182.653-.353.986-.472 1.243-.414 1.941-.244 3.152-.268 1.13.015 2.885.024 4.624.012 4.765.032 10.724-1.071 10.854 5.421.025.556.036 1.148.027 5.383.002 4.335-.002 6.057-.018 7.178.009 1.21-.127 2.614-.958 3.612-1.068 1.394-2.586 1.578-4.234 1.836-3.769.597-11.843.797-15.782 1.15-1.401.101-2.344.177-3.172.483-.574.347-.471 1.362-.407 2.009.088.432.146.842.379 1.101.314.478 1.665.67 2.244.498.209-.063.314-.081.461-.222.751-.791 1.596-1.931 2.83-2.269 1.243-.414 1.941-.245 3.152-.268 2.44.145 6.905-.097 9.443-.014 1.67-.076 3.867.417 4.995 1.952.765 1.064 1.011 2.264 1.04 3.495.025.553.036 1.142.027 5.344v100.492 100.494c.008 4.201-.002 4.791-.027 5.344-.041.909-.124 1.716-.527 2.613-.889 2.201-3.385 2.874-5.509 2.834-2.526-.014-7.008-.047-9.441-.015-1.212-.018-1.909.137-3.153-.267-.991-.277-1.868-1.14-2.418-1.835-.346-.375-.431-.549-.873-.657-.572-.183-1.945.031-2.244.498-.462.618-.524 1.946-.317 2.674.27.565.359.464 1.14.659 4.774.531 13.422.81 18.159 1.41 3.346.262 5.379 1.984 5.192 5.448.016 1.121.02 2.843.017 7.181-.164 5.695.847 8.423-3.039 10.353-1 .393-2.009.452-3.023.474-2.526-.007-7.008-.051-9.441-.014-1.212-.019-1.909.137-3.153-.269-.991-.28-1.868-1.135-2.418-1.833-.346-.374-.431-.552-.873-.656-.574-.183-1.944.031-2.244.499-.478.533-.503 2.17-.317 2.685.117.254.138.278.345.428.853.377 1.752.298 3.172.479 3.935.258 12.016.664 15.782 1.149 1.646.152 3.172.558 4.234 1.836.833 1.051.964 2.343.958 3.612.016 1.121.02 2.843.017 7.181.009 4.232-.001 4.825-.026 5.38-.041.909-.124 1.717-.527 2.613-1.966 3.971-6.556 2.591-10.328 2.807-3.043-.164-5.216.363-7.775-.255-1.231-.333-2.081-1.474-2.83-2.269-.451-.399-1.091-.269-1.709-.23-.699.163-.976.373-1.181.822-.256.826-.496 2.328.213 2.798.864.282 1.746.37 3.172.479 3.935.266 12.016.661 15.782 1.15 3.363.265 5.367 1.973 5.192 5.448.016 1.121.02 2.843.017 7.181.009 4.232-.001 4.824-.026 5.38-.041.909-.124 1.717-.527 2.613-1.966 3.964-6.556 2.597-10.328 2.807-1.741-.013-3.492-.002-4.622.013-1.212-.019-1.909.136-3.153-.268-.991-.29-1.868-1.13-2.418-1.835-.573-.796-1.204-.766-2.121-.664-.705.17-.971.366-1.181.821-.245.763-.418 2.107.028 2.639.257.267.33.238.98.378 3.161.452 6.814.488 10.762.773 2.982.193 5.699.427 7.397.638 1.646.174 3.172.542 4.234 1.836.833 1.041.964 2.351.958 3.611.016 1.121.02 2.844.017 7.182.009 4.231-.001 4.824-.026 5.38-.108 6.438-6.086 5.433-10.855 5.42-1.741-.013-3.492-.002-4.622.013-1.451.004-2.816.126-4.139-.74-.961-.566-1.28-1.428-2.075-1.946-.632-.304-2.096-.088-2.474.428-.239.274-.29.654-.379 1.109-.085 1.27-.207 2.069 1.202 2.22 4.774.592 13.422.768 18.159 1.412 3.35.248 5.375 1.99 5.192 5.447.016 1.121.02 2.843.017 7.181.009 4.231-.001 4.825-.026 5.38-.041.909-.124 1.717-.527 2.613-.889 2.173-3.385 2.895-5.509 2.834-2.526.017-7.008-.068-9.441-.014-1.212-.018-1.909.136-3.153-.268-.991-.299-1.868-1.123-2.418-1.834-.346-.365-.431-.558-.873-.656-.574-.181-1.944.029-2.244.5-.478.559-.503 2.15-.317 2.684.283.537.357.468 1.14.646 4.774.605 13.422.756 18.159 1.411 1.275.174 2.159.3 3.23.935 1.567.947 2.028 2.815 1.962 4.512.016 1.121.02 2.843.018 7.177.002 4.332-.002 6.054-.018 7.175.007 1.254-.125 2.582-.958 3.611-1.065 1.309-2.587 1.64-4.234 1.836-3.769.502-11.843.867-15.782 1.15-1.421.155-2.322.141-3.172.48-.109.06-.138.106-.185.16-.449.513-.275 1.91-.028 2.639.3.916 2.157 1.133 2.89.591.606-.578.994-1.267 1.844-1.798.74-.497 1.933-.779 2.684-.746 1.958.002 3.629.04 6.078.019 3.033.102 5.046-.426 7.831.454 3.881 1.907 2.885 4.53 3.05 10.349.002 4.336-.002 6.058-.018 7.179.179 3.432-1.82 5.206-5.192 5.447-4.745.635-13.376.816-18.159 1.411-1.412.167-1.29.944-1.202 2.221.088.458.139.837.379 1.109.354.446 1.601.702 2.244.5.442-.099.527-.291.873-.655.551-.714 1.425-1.534 2.418-1.834 1.243-.405 1.941-.253 3.152-.268 2.44.041 6.905-.022 9.443-.016 3.441-.147 6.079 1.765 6.035 5.448.025.555.036 1.149.027 5.383.002 4.335-.002 6.057-.018 7.178.007 1.264-.125 2.575-.958 3.612-1.065 1.287-2.587 1.654-4.234 1.835-1.698.211-4.415.447-7.397.638-3.947.281-7.603.33-10.762.774-1.416.173-1.288.933-1.202 2.22.088.464.139.833.379 1.11.157.157.456.411.996.508.405.073.946.058 1.248-.009.442-.1.527-.289.873-.656.551-.712 1.425-1.533 2.418-1.834 1.243-.403 1.941-.252 3.152-.267 1.13.015 2.885.023 4.624.012 4.752-.007 10.735-1.034 10.854 5.42.025.556.036 1.149.027 5.382.002 4.336-.002 6.058-.018 7.18.066 1.7-.394 3.563-1.962 4.51-1.071.634-1.956.765-3.23.937-1.698.211-4.415.446-7.397.637-4.253.387-8.122.165-11.557.992-.21.154-.225.168-.345.427-.186.52-.159 2.133.317 2.685.157.157.456.411.996.508.405.073.946.058 1.248-.008.442-.102.527-.29.873-.656.797-1.206 2.663-2.225 4.116-2.109 3.078.083 7.706-.033 10.897-.008 3.428-.165 6.09 1.787 6.035 5.447.025.556.036 1.149.027 5.383-.051 5.608.111 5.77-.114 8.719-.266 2.501-2.726 3.808-5.096 3.907-1.698.211-4.415.446-7.397.638-3.947.282-7.603.328-10.762.773-.496.083-.685.158-.795.218-.21.154-.225.168-.345.428-.188.444-.117 1.785.132 2.371.064.18.107.234.185.313.157.157.456.411.996.509.617.043 1.262.146 1.709-.23.751-.813 1.596-1.916 2.83-2.269 1.243-.402 1.941-.254 3.152-.268 1.13.015 2.885.023 4.624.012 4.751-.011 10.736-1.03 10.854 5.421.025.555.036 1.148.027 5.382-.051 5.6.111 5.776-.114 8.719-.138 1.141-.837 2.35-1.866 2.971-1.071.63-1.956.766-3.23.936-3.769.466-11.844.893-15.782 1.15-1.077.085-1.881.175-2.377.26-.648.144-.717.12-.98.372-.346.425-.291 1.271-.222 1.861.172.927.301 1.368 1.375 1.604.618.039 1.26.154 1.709-.227.751-.814 1.596-1.916 2.83-2.27.665-.237 1.217-.265 1.698-.274 1.958.038 3.629.013 6.078.018 4.75-.013 10.737-1.027 10.854 5.421.083 14.946-.004-4.738.027 105.837-.027 110.201.05 91.348-.027 105.837-.008 1.529-.481 3.167-1.699 4.183-1.202 1.021-2.842 1.272-4.337 1.264-2.526.105-7.008-.132-9.441-.014-1.744.178-3.913-.123-5.081-1.543-.506-.495-.726-1.059-1.363-1.216-.751-.213-2.198.032-2.429.818-.235.559-.342 1.767-.132 2.354.051.145.114.228.16.287.262.267.333.218.98.372 4.788.633 13.409.735 18.159 1.41 1.648.286 3.168.463 4.234 1.836.831.984.966 2.391.958 3.611.016 1.121.02 2.843.017 7.181.009 4.232-.001 4.825-.026 5.38-.029 1.228-.275 2.452-1.039 3.495-1.172 1.556-3.188 1.976-4.997 1.952-3.186-.142-7.819.051-10.897-.008-1.128.051-2.907-.587-3.625-1.549-.429-.439-.679-.897-1.133-1.143-.403-.142-.963-.168-1.478-.081-.54.097-.839.352-.996.509-.48.587-.501 2.129-.317 2.685.051.149.114.212.16.267.257.245.33.253.98.378 5.733.781 14.717.546 20.298 1.845.95.255 1.953 1.022 2.429 1.904.565.926.615 2.073.624 3.109.016 1.122.02 2.844.017 7.182.009 4.231-.001 4.824-.026 5.379-.041.91-.124 1.717-.527 2.613-1.901 3.82-6.591 2.694-10.328 2.807-1.741-.012-3.492-.002-4.622.014-1.212-.018-1.909.136-3.153-.268-.991-.374-1.869-1.069-2.418-1.835-.347-.332-.431-.582-.873-.655-.574-.17-1.945.02-2.244.499-.48.58-.501 2.135-.317 2.684.051.151.114.213.16.267.257.245.33.255.98.379.496.083 1.3.175 2.377.261 3.935.388 12.016.571 15.782 1.15 1.695.313 3.125.427 4.234 1.836.829.998.967 2.382.958 3.611.016 1.121.02 2.844.017 7.181.009 4.232-.001 4.825-.026 5.381-.041.909-.124 1.716-.527 2.613-.886 2.121-3.39 2.933-5.509 2.834-2.526.123-7.008-.145-9.441-.014-1.739.177-3.924-.127-5.081-1.543-.433-.404-.676-.924-1.133-1.143-.403-.149-.963-.165-1.478-.081-.54.097-.839.351-.996.508-.48.575-.501 2.139-.317 2.685.051.15.114.213.16.267.257.243.33.255.98.378.496.083 1.3.175 2.377.261 3.935.394 12.016.567 15.782 1.15 1.689.341 3.13.409 4.234 1.837.829.995.967 2.382.958 3.611.016 1.121.02 2.843.017 7.181.009 4.231-.001 4.824-.026 5.38-.029 1.232-.275 2.448-1.039 3.494-1.172 1.553-3.188 1.979-4.997 1.953-2.526.085-7.008-.118-9.441-.014-1.212-.018-1.909.136-3.153-.268-.989-.35-1.87-1.086-2.418-1.835-.347-.328-.431-.584-.873-.655-.574-.168-1.945.019-2.244.499-.24.229-.29.688-.379 1.11-.094.624-.04 1.274.062 1.574.051.151.114.214.16.268.047.054.076.1.185.16.11.06.299.135.795.218.496.084 1.3.175 2.377.261 2.154.172 5.403.321 8.385.512 2.982.192 5.699.428 7.397.638 1.276.184 2.157.293 3.23.937 1.558.903 2.035 2.846 1.962 4.51.015 1.122.02 2.844.017 7.182.009 4.231-.001 4.825-.026 5.38-.041.909-.124 1.716-.527 2.613-.886 2.118-3.39 2.936-5.509 2.834-2.526.089-7.008-.12-9.441-.014-1.735.169-3.941-.127-5.081-1.543-.433-.411-.676-.919-1.133-1.143-.776-.273-2.383-.143-2.659.74-.246.57-.321 1.947-.132 2.372.051.15.114.213.16.267.047.054.076.1.185.16.11.06.299.135.795.218s1.3.176 2.377.262c3.935.406 12.016.558 15.782 1.15 1.276.184 2.157.291 3.23.935 1.558.903 2.035 2.849 1.962 4.512.015 1.121.02 2.843.018 7.178h1.618m-3.237-.01c-.102-5.843.223-5.786-.199-8.963-.238-.829-.94-1.448-1.757-1.691-2.764-.556-5.177-.746-9.137-.99-2.97-.192-6.209-.346-8.404-.516-1.098-.086-1.933-.175-2.536-.28-.602-.105-.969-.226-1.258-.378-1.319-.749-1.448-2.195-1.262-3.675.119-.714.292-1.433.76-1.942.873-1.142 3.009-1.349 4.307-.859 1.055.388 1.391 1.506 2.343 2.087.537.342 1.242.499 1.847.487.404.009.819 0 1.389-.008 1.142-.015 2.904-.025 4.655-.012s3.491.047 4.771.027c1.477.031 2.801-.196 3.743-1.314.549-.784.66-1.518.715-2.584.022-.495.026-1.062.023-5.311.001-4.329-.001-6.068-.018-7.152.016-1.188-.105-2.508-1.213-3.172-.846-.5-1.427-.514-2.574-.698-3.707-.664-11.768-.733-15.692-1.141-2.07-.206-4.188-.059-4.921-1.994-.952-3.637 1.293-6.256 4.932-5.139.766.331 1.149.934 1.699 1.534.552.673 1.623 1.086 2.491 1.04 2.979-.03 7.746-.007 10.815.007 1.292-.001 2.36-.118 3.328-.883.88-.826 1.079-1.737 1.13-3.015.022-.495.026-1.062.023-5.311.001-4.33-.001-6.067-.018-7.152-.026-.863.006-1.6-.407-2.328-.19-.344-.466-.619-.806-.844-.846-.499-1.427-.514-2.574-.697-3.707-.656-11.768-.741-15.692-1.142-1.585-.061-2.709-.229-3.794-.657-1.319-.747-1.448-2.196-1.262-3.676.119-.716.292-1.43.76-1.942.412-.46 1.067-.866 1.906-1.027 1.393-.286 2.834.044 3.661 1.201.438.574.977 1.102 1.706 1.353.949.266 1.568.189 2.613.181 2.393-.126 6.975.084 9.426.015 5.444-.136 4.334-2.833 4.481-9.209.001-4.329-.001-6.067-.018-7.152-.021-.743-.006-1.177-.181-1.813-.24-.835-.939-1.444-1.757-1.691-2.764-.575-5.177-.733-9.137-.99-2.97-.192-6.209-.346-8.404-.516-2.076-.218-4.181-.05-4.921-1.995-.377-1.241-.267-3.2.625-4.28.873-1.13 3.009-1.358 4.307-.859.766.329 1.149.936 1.699 1.534.552.671 1.623 1.087 2.491 1.04 2.979-.036 7.746-.002 10.815.007 2.723-.015 4.449-.909 4.458-3.898.022-.495.026-1.062.023-5.311.001-4.329-.001-6.068-.018-7.152-.02-.959-.007-1.875-.609-2.631-.32-.411-.829-.722-1.329-.872-.504-.166-1.041-.264-1.849-.367-3.707-.636-11.768-.753-15.692-1.141-1.098-.085-1.933-.174-2.536-.279-.602-.105-.969-.226-1.258-.378-1.65-.839-1.512-3.259-.977-4.819.605-1.707 3.157-2.33 4.782-1.657.766.328 1.149.936 1.699 1.534.552.668 1.623 1.089 2.491 1.04 2.979-.039 7.746 0 10.815.007 1.291.008 2.361-.125 3.328-.883.882-.846 1.076-1.723 1.13-3.015.022-.495.026-1.062.023-5.311.001-4.33-.001-6.067-.018-7.152-.02-.964-.007-1.872-.609-2.631-.874-.908-1.796-1.075-3.178-1.238-3.707-.628-11.768-.761-15.692-1.142-3.336-.241-5.582-.47-5.056-4.333.116-2.519 2.897-3.626 5.067-2.8 1.055.399 1.391 1.499 2.343 2.087.537.34 1.242.5 1.847.487.404.009.819 0 1.389-.008 1.142-.016 2.904-.025 4.655-.012 2.98-.212 7.444 1.004 8.841-1.849.263-.593.351-1.211.388-2.022.061-13.71.004 3.908.023-105.767-.022-110.223.042-91.359-.023-105.766.039-5.21-5.497-3.685-9.229-3.871-1.751.013-3.513.003-4.655-.012-1.227.082-2.191-.217-3.236.479-.952.63-1.288 1.644-2.343 2.087-1.301.562-3.434.195-4.307-.859-.894-1.03-1.001-3.089-.625-4.28.429-1.15 1.134-1.468 2.385-1.715 4.832-.545 13.479-.828 18.228-1.42 1.147-.16 1.73-.225 2.574-.699 1.119-.761 1.219-1.876 1.213-3.171.017-1.085.019-2.823.018-7.151.003-4.25-.001-4.817-.023-5.312-.056-1.048-.166-1.819-.715-2.585-.938-1.183-2.269-1.271-3.743-1.313-3.072-.046-7.833.088-10.815.007-.607.008-1.309.127-1.847.487-.952.626-1.288 1.647-2.343 2.087-1.625.627-4.176.108-4.781-1.657-.536-1.61-.674-3.921.976-4.819 1.11-.585 2.188-.436 3.794-.658 3.92-.248 11.99-.672 15.692-1.141 1.373-.155 2.324-.307 3.178-1.238.606-.839.585-1.583.609-2.631.017-1.085.019-2.823.018-7.151-.17-6.338 1.031-9.015-4.481-9.21-2.45-.003-7.034.059-9.426.015-1.044.032-1.666-.129-2.613.181-1.341.376-1.734 1.884-2.966 2.384-3.734 1.146-5.869-1.625-4.932-5.138.816-2.045 2.787-1.698 4.921-1.995 2.195-.17 5.434-.325 8.404-.516s5.672-.419 7.288-.624c2.621-.246 3.935-1.139 3.787-3.87.017-1.085.019-2.823.018-7.151.003-4.25-.001-4.817-.023-5.312.046-5.205-5.499-3.686-9.229-3.871-2.406.014-4.149-.012-6.044-.02-.872-.029-1.937.35-2.491 1.04-.55.585-.933 1.222-1.699 1.534-2.163.796-4.963-.261-5.067-2.801-.536-3.827 1.747-4.134 5.056-4.332 3.92-.265 11.99-.661 15.692-1.141 1.466-.185 2.62-.342 3.38-1.542.414-.782.379-1.401.407-2.328.017-1.085.019-2.823.018-7.151.003-4.25-.001-4.817-.023-5.312-.037-.812-.125-1.429-.388-2.022-.722-1.615-2.418-1.864-4.07-1.876-3.072-.016-7.833.067-10.815.007-.872-.032-1.937.351-2.491 1.04-.643.722-1.172 1.5-2.187 1.685-1.555.355-3.757-.197-4.293-1.808-.454-1.332-.603-3.182.292-4.264 1.163-1.209 2.586-.953 4.478-1.212 3.92-.274 11.99-.655 15.692-1.142 1.147-.167 1.73-.219 2.574-.697 1.119-.724 1.219-1.904 1.213-3.172.017-1.085.019-2.822.018-7.151.003-4.25-.001-4.817-.023-5.313.033-2.867-1.788-3.987-4.458-3.897-3.072-.006-7.833.06-10.815.007-.872-.034-1.937.353-2.491 1.04-.643.721-1.172 1.501-2.187 1.685-1.555.362-3.757-.202-4.293-1.808-.454-1.327-.603-3.186.292-4.264 1.163-1.202 2.586-.958 4.478-1.213 3.92-.282 11.99-.648 15.692-1.14 1.373-.207 2.324-.271 3.178-1.239.606-.8.585-1.611.609-2.631.017-1.085.019-2.823.018-7.151.001-4.323-.001-6.061-.018-7.145.008-1.262-.094-2.459-1.213-3.172-.845-.48-1.427-.529-2.574-.699-3.707-.491-11.768-.857-15.692-1.14-1.604-.168-2.689-.152-3.794-.657-1.65-.889-1.512-3.224-.977-4.82.69-1.969 3.917-2.516 5.465-1.228.604.529.942 1.193 1.66 1.658 1.047.651 2.009.466 3.236.479 2.393-.051 6.975.031 9.426.015 1.475-.03 2.805-.148 3.743-1.313.549-.771.659-1.53.715-2.584.022-.495.026-1.063.023-5.312.001-4.329-.001-6.067-.018-7.151.147-2.689-1.148-3.649-3.787-3.87-1.616-.205-4.318-.434-7.288-.624-2.97-.192-6.209-.346-8.404-.517-1.893-.27-3.316-.002-4.478-1.212-.687-.837-.721-1.947-.578-3.121.186-1.562.997-2.641 2.666-2.97 1.081-.177 2.276-.118 3.084.597.604.537.942 1.188 1.66 1.659 1.047.663 2.009.457 3.236.48 1.142-.016 2.904-.026 4.655-.013 3.729-.185 9.279 1.331 9.229-3.87.022-.495.026-1.063.023-5.312-.104-5.766.224-5.838-.199-8.964-.533-1.571-1.983-1.869-3.606-2.057-1.616-.205-4.318-.434-7.288-.625s-6.209-.346-8.404-.516c-1.604-.192-2.689-.133-3.794-.658-1.833-1.028-1.621-4.086-.502-5.617 1.055-1.219 3.7-1.568 4.99-.431.604.544.942 1.184 1.66 1.659 1.047.675 2.009.448 3.236.48 2.393-.044 6.975.024 9.426.014 1.475-.044 2.805-.138 3.743-1.313.549-.767.659-1.531.715-2.584.022-.495.026-1.063.023-5.312.001-4.329-.001-6.067-.018-7.152-.022-1.053-.002-1.808-.609-2.631-.856-.931-1.805-1.054-3.178-1.238-4.76-.599-13.386-.828-18.228-1.421-2.708-.199-2.992-3.116-2.234-5.197.604-1.773 3.156-2.281 4.781-1.656 1.231.496 1.625 2.002 2.966 2.384 2.451.446 4.36.036 7.268.169 3.731-.192 9.275 1.342 9.229-3.871.022-.495.026-1.062.023-5.31.001-4.33-.001-6.068-.018-7.153-.022-1.063-.002-1.801-.609-2.631-.856-.919-1.805-1.063-3.178-1.238-1.616-.206-4.318-.433-7.288-.625-2.97-.191-6.209-.346-8.404-.516-1.893-.305-3.316.023-4.478-1.212-1.006-1.328-.821-3.718.182-5.063.875-1.038 3.005-1.422 4.307-.858 1.231.491 1.625 2.006 2.966 2.385 2.451.441 4.36.038 7.268.168 3.732-.197 9.272 1.348 9.229-3.871.022-.495.026-1.062.023-5.311.001-4.329-.001-6.068-.018-7.152.008-1.314-.094-2.42-1.213-3.171-.845-.471-1.427-.536-2.574-.699-4.76-.562-13.386-.853-18.228-1.42-1.252-.278-1.957-.566-2.385-1.715-.377-1.204-.267-3.226.625-4.281 1.055-1.205 3.7-1.576 4.99-.43.731.652 1.243 1.652 2.283 1.958 2.451.437 4.36.041 7.268.169 2.94-.176 5.642.634 7.975-.749.973-.716 1.202-1.866 1.254-3.122.072-14.762-.004 4.683.023-105.768-.022-110.079.042-91.458-.023-105.766-.037-.811-.125-1.429-.388-2.022-.305-.688-.915-1.271-1.623-1.511-2.313-.709-4.477-.243-7.217-.338-1.752.013-3.514.003-4.656-.011-1.218-.086-2.208-.093-3.236.478-.952.579-1.288 1.682-2.343 2.087-1.301.486-3.434.251-4.307-.858-.899-1.092-.997-3.043-.625-4.281.229-.612.556-1.018 1.127-1.337.289-.152.656-.273 1.258-.378.603-.105 1.439-.194 2.536-.279 3.92-.407 11.99-.558 15.692-1.141.808-.103 1.345-.201 1.849-.367.5-.152 1.009-.462 1.329-.872.602-.749.589-1.647.609-2.631.017-1.085.019-2.822.018-7.15.003-4.25-.001-4.817-.023-5.313-.037-.811-.125-1.429-.388-2.022-.726-1.522-2.416-1.932-4.07-1.875-2.45-.079-7.034.112-9.426.015-.57-.009-.985-.018-1.389-.009-.605-.024-1.31.15-1.847.487-.718.438-1.057 1.153-1.66 1.659-1.551 1.244-4.771.772-5.464-1.229-.536-1.545-.674-3.967.976-4.818.289-.153.656-.274 1.258-.378.603-.106 1.439-.195 2.536-.28 3.92-.416 11.99-.552 15.692-1.141 1.147-.199 1.73-.197 2.575-.698.505-.331.855-.795 1.031-1.359.175-.638.16-1.068.181-1.812.017-1.085.019-2.824.018-7.152.003-4.25-.001-4.816-.023-5.312-.013-1.64-.535-2.936-2.012-3.533-2.312-.709-4.476-.243-7.216-.337-1.752.012-3.514.003-4.656-.013-.57-.008-.985-.017-1.389-.008-.872-.076-1.937.384-2.491 1.04-.641.7-1.175 1.517-2.187 1.685-1.196.334-3.078-.08-3.819-1.009-.899-1.097-.997-3.04-.625-4.28.229-.613.556-1.02 1.127-1.337.289-.153.656-.274 1.258-.378 4.852-.684 13.461-.728 18.228-1.421 1.147-.188 1.728-.204 2.575-.698.505-.331.855-.795 1.031-1.359.175-.637.16-1.068.181-1.812.017-1.085.019-2.824.018-7.152.003-4.25-.001-4.817-.023-5.312-.037-.811-.125-1.429-.388-2.022-.726-1.513-2.416-1.938-4.07-1.876-1.28-.019-3.019.015-4.77.028-1.751.012-3.514.003-4.656-.013-1.045-.007-1.664-.099-2.613.181-.727.249-1.27.797-1.706 1.353-1.171 1.722-4.276 1.659-5.567.174-1.007-1.378-1.182-3.729-.182-5.062.183-.218.394-.403.684-.555.289-.152.656-.274 1.258-.378.603-.106 1.439-.194 2.536-.28 4.807-.29 13.049-.587 17.541-1.506.621-.177 1.22-.612 1.531-1.176.412-.736.381-1.436.407-2.328.017-1.085.019-2.823.018-7.151.003-4.25-.001-4.818-.023-5.313-.037-.811-.125-1.429-.388-2.021-.305-.693-.915-1.268-1.623-1.511-2.313-.71-4.477-.243-7.217-.339-1.751.014-3.514.004-4.656-.012-.57-.008-.985-.016-1.389-.008-.605-.019-1.31.148-1.847.488-.952.57-1.288 1.686-2.343 2.087-1.301.47-3.434.261-4.307-.86-.468-.514-.641-1.212-.76-1.941-.187-1.506-.057-2.919 1.262-3.675.289-.153.656-.273 1.258-.379.603-.104 1.439-.194 2.536-.279 4.807-.282 13.049-.593 17.541-1.507.815-.225 1.521-.881 1.757-1.691.175-.637.16-1.068.181-1.813.017-1.084.019-2.822.018-7.15.003-4.25-.001-4.818-.023-5.313-.045-1.344-.288-2.317-1.255-3.122-.97-.647-1.958-.775-3.203-.775-1.28-.021-3.019.013-4.77.027-2.407.102-4.15-.077-6.045-.022-.871-.084-1.937.388-2.491 1.04-.55.59-.933 1.218-1.699 1.533-1.301.467-3.434.265-4.307-.859-.9-1.087-.996-3.044-.625-4.28.229-.612.556-1.019 1.127-1.337.289-.152.656-.273 1.258-.378.603-.104 1.439-.194 2.536-.279 4.807-.274 13.049-.599 17.541-1.507.815-.223 1.521-.881 1.757-1.691.175-.638.16-1.069.181-1.813.017-1.085.019-2.822.018-7.15h-1.62c.001 4.32.001 6.074-.017 7.123-.017 1.047-.052 1.389-.26 1.65s-.588.441-2.122.641c-3.663.418-11.679.895-15.601 1.132-2.236.169-3.478.347-4.418.837-3.75 2.049-2.58 9.112 1.842 9.669 1.924.388 4.212-.234 5.2-1.738 1.003-1.192 1.183-.969 3.07-.966 2.34.086 7.051-.055 9.408-.014 1.194.025 1.819.118 2.262.451.33.248.558.63.617 1.897.02.435.02.974.02 5.243 0 4.32 0 6.074-.018 7.122-.017 1.048-.052 1.389-.26 1.65s-.588.442-2.122.642c-3.661.425-11.68.889-15.601 1.132-2.236.169-3.478.346-4.418.836-2.835 1.501-2.758 5.844-.974 8.123 1.879 2.341 6.416 2.153 8.016-.191 1.003-1.194 1.183-.969 3.07-.968 2.34.085 7.051-.054 9.408-.014 1.194.026 1.819.118 2.262.452.33.248.558.63.617 1.896.02.436.02.975.02 5.243 0 4.321 0 6.075-.018 7.123-.017 1.047-.052 1.389-.26 1.65s-.588.44-2.122.641c-3.643.691-11.693.699-15.601 1.132-2.236.169-3.478.346-4.418.836-3.75 2.05-2.58 9.114 1.842 9.669 1.139.226 2.406.119 3.323-.256 1.497-.625 1.793-1.762 2.872-2.354 1.779-.247 4.307.006 6.758-.08 2.448.106 5.32-.44 6.987.423.33.249.558.631.617 1.897.02.435.02.975.02 5.242 0 4.321 0 6.075-.018 7.122-.017 1.048-.052 1.39-.26 1.651-.208.262-.588.441-2.122.641-3.643.679-11.693.708-15.601 1.133-2.236.168-3.478.346-4.418.835-1.964 1.029-2.436 3.302-2.116 5.349.222 3.552 4.246 5.301 7.281 4.063 1.495-.612 1.794-1.769 2.872-2.352 1.786-.331 4.301.066 6.758-.081 2.448.108 5.319-.44 6.987.424.33.248.558.629.617 1.896.02.436.02.975.02 5.242 0 4.322 0 6.075-.018 7.123-.017 1.048-.052 1.39-.26 1.651-.208.26-.588.44-2.122.641-3.643.667-11.693.716-15.601 1.132-2.236.169-3.478.346-4.418.836-1.963 1.033-2.436 3.305-2.116 5.354.221 3.556 4.246 5.295 7.281 4.063 1.493-.602 1.796-1.777 2.872-2.353.381-.13.922-.111 2.075-.094 2.34.08 7.051-.052 9.408-.015 1.194.027 1.819.118 2.262.451.329.249.558.63.617 1.898.02.434.02.974.02 5.242 0 4.32 0 6.074-.018 7.122-.017 1.048-.052 1.39-.26 1.65-.208.261-.588.442-2.122.642-3.643.655-11.693.725-15.601 1.132-2.236.169-3.478.347-4.418.836-2.835 1.487-2.756 5.856-.974 8.123 1.325 1.63 4.285 2.063 6.139 1.289 1.49-.592 1.797-1.784 2.872-2.353 1.785-.296 4.302.041 6.758-.081 2.449.111 5.316-.441 6.987.424.329.248.558.63.617 1.897.052 13.529.004-3.856.02 105.696-.018 110.099.036 91.472-.02 105.696-.14 2.285-.771 2.225-2.879 2.349-2.357.015-7.068-.07-9.408-.015-1.153.016-1.694.036-2.075-.095-1.055-.473-1.414-1.861-2.872-2.352-1.853-.771-4.815-.335-6.139 1.289-1.781 2.254-1.858 6.638.974 8.123.94.489 2.182.667 4.418.836 3.902.228 11.963.688 15.601 1.132 1.534.2 1.914.381 2.122.641.208.261.243.603.26 1.651.018 1.048.018 2.802.018 7.122 0 4.268 0 4.807-.02 5.242-.059 1.268-.288 1.649-.617 1.898-1.666.86-4.546.311-6.987.422-2.452-.17-4.974.236-6.758-.08-1.055-.483-1.414-1.854-2.872-2.352-.917-.376-2.184-.484-3.323-.258-4.415.545-5.596 7.621-1.842 9.669 3.319 1.268 8.484.915 12.839 1.356 2.958.191 5.646.411 7.18.613 1.534.2 1.914.38 2.122.64.208.262.243.604.26 1.652.018 1.047.018 2.801.018 7.122 0 4.267 0 4.806-.02 5.242-.136 2.286-.778 2.225-2.879 2.349-2.357.018-7.068-.073-9.408-.015-1.887-.035-2.067.271-3.07-.968-1.597-2.377-6.141-2.464-8.016-.189-1.781 2.259-1.858 6.631.974 8.122.94.49 2.182.667 4.418.836 3.902.249 11.963.673 15.601 1.131 1.534.202 1.914.381 2.122.642s.243.603.26 1.65c.018 1.048.018 2.802.018 7.124 0 4.267 0 4.806-.02 5.242-.138 2.292-.777 2.221-2.879 2.347-2.357.021-7.068-.072-9.408-.013-1.153.015-1.694.036-2.075-.095-1.055-.502-1.414-1.842-2.872-2.353-3.026-1.207-7.078.495-7.281 4.064-.597 4.482 1.848 6.076 6.534 6.184 3.902.26 11.963.666 15.601 1.132 2.378.396 2.305.28 2.382 2.292.018 1.048.018 2.802.018 7.122 0 4.268 0 4.808-.02 5.243-.059 1.266-.288 1.648-.617 1.897-1.666.867-4.546.307-6.987.423-2.452-.124-4.974.202-6.758-.08-1.055-.511-1.414-1.835-2.872-2.354-1.853-.781-4.815-.327-6.139 1.29-1.781 2.268-1.858 6.626.974 8.122.94.491 2.182.667 4.418.836 3.902.271 11.963.659 15.601 1.133 1.534.2 1.914.38 2.122.641s.243.602.26 1.65c.018 1.048.018 2.802.018 7.123 0 4.268 0 4.807-.02 5.242-.144 2.311-.776 2.213-2.879 2.349-2.914-.087-8.897.119-11.483-.109-1.055-.52-1.414-1.828-2.872-2.353-1.853-.784-4.815-.325-6.139 1.289-1.781 2.273-1.858 6.624.974 8.123 3.325 1.294 8.48.896 12.839 1.357 2.958.19 5.646.411 7.18.611s1.914.381 2.122.642c.208.26.243.602.26 1.65.018 1.048.018 2.802.018 7.122 0 4.321 0 6.075-.018 7.123-.017 1.048-.052 1.389-.26 1.651-.208.26-.588.44-2.122.641-3.643.481-11.693.85-15.601 1.131-2.236.169-3.478.347-4.418.837-2.835 1.502-2.752 5.847-.974 8.122 1.325 1.613 4.285 2.077 6.139 1.29 1.458-.526 1.817-1.829 2.872-2.353 2.591-.228 8.568-.023 11.482-.109 2.095.134 2.742.043 2.88 2.349.02.435.02.974.02 5.242 0 4.321 0 6.075-.018 7.122-.017 1.048-.052 1.39-.26 1.651s-.588.441-2.122.641c-1.534.201-4.222.421-7.18.612-4.353.474-9.523.056-12.839 1.356-2.835 1.506-2.752 5.845-.974 8.123 1.325 1.611 4.285 2.077 6.139 1.289 1.458-.521 1.817-1.832 2.872-2.352.381-.131.922-.111 2.075-.095 2.34.059 7.051-.036 9.408-.014 2.095.138 2.739.037 2.879 2.348.02.435.02.975.02 5.243 0 4.32 0 6.074-.018 7.122-.017 1.048-.052 1.389-.26 1.65s-.588.442-2.122.642c-3.643.457-11.693.866-15.601 1.132-4.683.084-7.143 1.749-6.534 6.184.202 3.528 4.251 5.308 7.281 4.064 1.458-.516 1.817-1.836 2.872-2.353 1.789-.33 4.302.066 6.758-.081 2.446.123 5.315-.451 6.987.424.329.248.558.63.617 1.897.02.435.02.974.02 5.242 0 4.321 0 6.075-.018 7.123-.017 1.047-.052 1.389-.26 1.65s-.588.441-2.122.641c-3.643.446-11.693.876-15.601 1.132-2.236.169-3.478.347-4.418.836-2.835 1.512-2.752 5.841-.974 8.123 1.325 1.609 4.285 2.079 6.139 1.289 1.458-.511 1.817-1.838 2.872-2.353 1.789-.355 4.302.084 6.758-.08 2.447.123 5.314-.452 6.987.423.329.249.558.631.617 1.897.02.435.02.975.02 5.242 0 4.321 0 6.075-.018 7.123-.017 1.048-.052 1.39-.26 1.65-.208.262-.588.441-2.122.642-3.643.434-11.693.884-15.601 1.132-3.443.378-5.165.312-6.326 3.083-.945 2.956.264 6.911 3.75 7.423 1.924.467 4.212-.292 5.2-1.738.393-.461.613-.742.995-.873.381-.13.922-.11 2.075-.094 2.34.055 7.051-.033 9.408-.015 1.194.027 1.819.119 2.262.452.329.249.558.63.617 1.897.02.435.02.975.02 5.242 0 4.321 0 6.075-.018 7.123-.017 1.048-.052 1.389-.26 1.65s-.588.441-2.122.641c-3.643.423-11.693.893-15.601 1.132-3.443.391-5.165.303-6.326 3.084-1.419 4.624 1.998 8.912 7.073 7.165 1.458-.503 1.817-1.846 2.872-2.353.381-.131.922-.11 2.075-.095 2.34.055 7.051-.032 9.408-.014 1.194.026 1.819.118 2.262.452.329.248.558.63.617 1.896.062 14.58-.003-4.631.02 105.697-.019 109.957.036 91.57-.02 105.695-.059 1.267-.288 1.649-.617 1.897-.443.333-1.068.426-2.262.452-2.357.041-7.068-.088-9.408-.015-1.153.017-1.694.037-2.075-.094-.382-.131-.602-.411-.995-.873-.394-.462-.96-1.105-1.877-1.48-4.976-1.728-8.504 2.408-7.073 7.166.332.954.969 1.757 1.908 2.246.94.49 2.182.667 4.418.836 3.902.439 11.963.536 15.601 1.133 1.534.2 1.914.38 2.122.641s.243.602.26 1.65c.018 1.048.018 2.802.018 7.123 0 4.268 0 4.807-.02 5.242-.059 1.267-.288 1.649-.617 1.897-.443.333-1.068.426-2.262.451-1.196.026-2.96-.014-4.725-.028-2.451-.067-4.979.161-6.758-.08-.382-.131-.602-.412-.995-.873-.394-.462-.96-1.105-1.877-1.48-1.847-.8-4.822-.313-6.139 1.289-1.781 2.331-1.858 6.582.974 8.123.94.489 2.182.667 4.418.836 3.902.449 11.963.528 15.601 1.132 1.534.201 1.914.38 2.122.641s.243.603.26 1.651c.018 1.048.018 2.802.018 7.122 0 4.268 0 4.808-.02 5.243-.059 1.266-.288 1.648-.617 1.896-.443.334-1.068.426-2.262.452-2.357.043-7.068-.09-9.408-.014-1.887.012-2.067.236-3.07-.968-1.028-1.435-3.256-2.213-5.2-1.737-2.26.393-3.728 2.124-3.958 4.321-.317 2.042.147 4.335 2.116 5.348.94.49 2.182.667 4.418.836 3.902.46 11.963.521 15.601 1.133 1.534.2 1.914.38 2.122.641s.243.602.26 1.65c.018 1.048.018 2.802.018 7.123 0 4.267 0 4.807-.02 5.242-.059 1.267-.288 1.649-.617 1.897-.443.333-1.068.425-2.262.452-2.357.035-7.068-.085-9.408-.015-1.153.016-1.694.036-2.075-.094-1.082-.509-1.393-1.84-2.872-2.353-1.847-.802-4.822-.311-6.139 1.289-1.784 2.324-1.859 6.582.974 8.123 3.273 1.176 8.512.98 12.839 1.356 2.958.191 5.646.412 7.18.612s1.914.38 2.122.641.243.603.26 1.651c.018 1.048.018 2.802.018 7.122 0 4.268 0 4.807-.02 5.242-.059 1.267-.288 1.649-.617 1.897-.443.334-1.068.426-2.262.452-2.357.037-7.068-.086-9.408-.014-1.153.015-1.694.035-2.075-.095-1.084-.5-1.392-1.846-2.872-2.352-.917-.376-2.184-.483-3.323-.258-2.26.39-3.728 2.126-3.958 4.321-.317 2.043.147 4.334 2.116 5.349.94.489 2.182.667 4.418.836 2.235.169 5.463.329 8.421.52s5.646.411 7.18.611c1.534.201 1.914.381 2.122.642s.243.603.26 1.65c.018 1.048.018 2.802.018 7.123 0 4.268 0 4.807-.02 5.242-.059 1.267-.288 1.649-.617 1.897-.443.333-1.068.425-2.262.451-1.196.027-2.96-.013-4.725-.028-1.765-.014-3.53-.001-4.683.014-1.153.016-1.694.036-2.075-.094-1.066-.576-1.403-1.787-2.872-2.353-1.846-.797-4.823-.315-6.139 1.289-1.784 2.329-1.859 6.579.974 8.123 3.238 1.223 8.533.945 12.839 1.356 2.958.191 5.646.412 7.18.612s1.914.381 2.122.641c.208.261.243.603.26 1.651.018 1.048.018 2.802.018 7.122h1.618m5.76-115.404c-2.835-.055-2.835-4.267 0-4.321 2.836.055 2.835 4.266 0 4.321m0 51.847c-2.835-.055-2.835-4.266 0-4.321 2.836.055 2.835 4.266 0 4.321m0-563.837c-2.835-.055-2.835-4.267 0-4.321 2.836.055 2.835 4.266 0 4.321m0 615.684c-2.835-.055-2.835-4.266 0-4.321 2.836.055 2.835 4.267 0 4.321m0-488.559c-2.835.054-2.835 4.266 0 4.32 2.836-.055 2.835-4.266 0-4.32m0 410.788c-2.835-.055-2.835-4.266 0-4.32 2.836.055 2.835 4.266 0 4.32m0-511.989c-2.835-.055-2.835-4.267 0-4.322 2.836.056 2.835 4.267 0 4.322m0-51.848c-2.835-.055-2.835-4.266 0-4.32 2.836.054 2.835 4.266 0 4.32m0 511.99c-2.835-.055-2.835-4.266 0-4.321 2.836.056 2.835 4.267 0 4.321m0 103.695c-2.835-.056-2.835-4.267 0-4.321 2.836.054 2.835 4.266 0 4.321m0-486.067c-2.835-.055-2.835-4.266 0-4.321 2.836.055 2.835 4.266 0 4.321m0-358.941c-2.835.054-2.835 4.265 0 4.32 2.836-.055 2.835-4.267 0-4.32m0 333.017c-2.835-.054-2.835-4.265 0-4.32 2.836.055 2.835 4.266 0 4.32m0-358.941c-2.835.055-2.835 4.265 0 4.32 2.836-.055 2.835-4.265 0-4.32m0 333.017c-2.835-.054-2.835-4.265 0-4.32 2.836.055 2.835 4.267 0 4.32" transform="translate(32 653.3301)"/>
	</g>
</svg>