<svg viewBox="0 0 74.192001 74.192001" xmlns="http://www.w3.org/2000/svg">
	<g fill="#6090c0">
		<path d="m13.848 26.895606h-.5c.2-3.4 1.2-7 3-10.5 1.9-3.7 4.7-7.1 8.3-10 3.6-2.8 8-5.1 12.9-6.3-4.9 0-9.8 1-14.3 2.9s-8.7 4.7-12.2 8.1c-3.5 3.5-6.3 7.6-8.1 12.2-1.9 4.5-2.8 9.4-2.9 14.3v3.8c.4 7.2 6.4 12.9 13.7 12.9 7.6 0 13.7-6.2 13.7-13.8.2-7.4-6-13.6-13.6-13.6z"/>
		<path d="m63.748 48.695606c-3.8-6.6-12.2-8.8-18.8-5s-8.8 12.2-5 18.8c.1.1.2.3.2.4-3.1 1.5-6.7 2.5-10.6 2.7-4.1.2-8.5-.5-12.8-2.2s-8.4-4.4-11.9-8c2.5 4.2 5.8 8 9.6 11 3.9 3 8.4 5.2 13.1 6.5s9.7 1.6 14.6 1c4.9-.8 9.7-2.5 13.9-4.9l2.6-1.5c.2-.1.5-.3.7-.5 6.1-4 8-12 4.4-18.3z"/>
		<path d="m72.648 27.695606c-1.3-4.7-3.5-9.2-6.5-13.1s-6.8-7.2-11-9.6l-2.6-1.5c-.2-.1-.5-.3-.7-.4-6.5-3.2-14.4-.9-18 5.4-3.8 6.6-1.5 15 5 18.8 6.6 3.8 15 1.5 18.8-5 .1-.1.1-.3.2-.4 2.9 1.9 5.5 4.6 7.6 7.8 2.2 3.5 3.8 7.6 4.5 12.2.7 4.5.4 9.5-1 14.3 2.4-4.3 4.1-9 4.7-13.9s.3-9.9-1-14.6z"/>
	</g>
</svg>