<svg viewBox="0 0 453.11599 112.706" xmlns="http://www.w3.org/2000/svg">
	<g transform="translate(-1.484893 -.378)">
		<path d="m21.971291 21.472002h403.799899v91.611998h-403.799899z" fill="#f4f4b4" stroke-width=".867936"/>
		<g fill="#5078a0" opacity=".125">
			<path d="m98.84219 9.0523409c-3.431806-2.8196417-8.938307.7030333-11.757372-2.8348652-3.563492-1.8548259-4.888574-8.0006931-9.609645-5.0518208-4.180156 2.6506681-8.158363 5.6297611-12.518447 8.0222564-19.423419 12.1139947-38.48331 24.8962197-58.8721416 35.3737777-5.52828083.484982-6.13536437 8.698609-1.4845947 10.146897 2.1215666.280372-.7645779 5.623586 3.0563876 6.755843 3.1112607 2.199466 7.3970277 1.58213 10.1740247-.858182 9.251772-5.933748 19.201126-10.693911 28.282657-16.909741 8.604498-5.443381 16.25911-12.259192 25.191787-17.197588 9.886132-5.874155 20.147696-11.081913 30.100154-16.8394971-.8552-.1984081-1.710067-.3983287-2.56281-.60708zm-92.6889 46.6293101.080048-.02462zm.1558.0502.1138668-.148877zm-.9376.8424c.6553862-.32934 1.405515-.70629 0 0zm1.2979 2.135-.039929.131342zm-.0288.0059c-.3439789-.453331.7609011.008 0 0zm-.1677-.2709c.1811817-.867775.2349703.621732 0 0zm-.0019.3256.07335-.0756zm.0913-.0272c.4234867.488367-.7827848.0792 0 0zm.031.2606c-.044341-.695431.1273651.278976 0 0z"/>
			<path d="m453.91512 68.181111c.98755-3.349593-4.50325-8.024109-3.23932-9.626593-.16637-1.066212-.26581-6.587453 1.74949-8.973549-.56791-4.163077-5.48079-5.416085-8.69108-7.041835-23.4037-12.365425-47.04145-24.382243-69.35384-38.6752969-4.43475-3.34227526-6.93032 3.1161374-7.1654 6.0704124-3.9488.7441655-4.71536 4.8416825-3.48633 8.1328885 1.93181 5.144992 7.90577 6.200496 11.96144 9.013253 13.31308 8.295316 27.29587 15.489252 41.71121 21.658249 12.71672 6.395676 24.37239 14.636481 36.76187 21.608548 1.17398-.395378-.40073-1.467139-.24804-2.166077zm-85.43389-59.1002401.0637.054138zm.0453.1406.16042.041549zm-1.171-.43954.50784.314063zm-.97111 1.7805501-.12494.01593zm-.0204-.02064c.22755-.44358.30754.63263 0 0zm.12166-.22822c.73181-.4711755-.15056.531608 0 0zm-.25679.114.0976.03091zm.071.06226c-.22909.509134-.3601-.6073135 0 0zm-.18785.1169c.42656-.458831.11218.188353 0 0z"/>
		</g>
	</g>
</svg>