<svg viewBox="0 0 453.11626 104.22786" xmlns="http://www.w3.org/2000/svg">
	<path fill="#f4f4b4" d="M 20.486398,21.094122 H 424.2863 V 104.22786 H 20.486398 Z"/>
	<g fill="#5078a0" opacity=".125">
		<path d="M 97.357297,8.6743409 C 93.925491,5.8546992 88.41899,9.3773742 85.599925,5.8394757 82.036433,3.9846498 80.711351,-2.1612174 75.99028,0.7876549 71.810124,3.438323 67.831917,6.417416 63.471833,8.8099113 44.048414,20.923906 24.988523,33.706131 4.5996914,44.183689 -0.92858943,44.668671 -1.535673,52.882298 3.1150967,54.330586 5.2366633,54.610958 2.3505188,59.954172 6.1714843,61.086429 9.282745,63.285895 13.568512,62.668559 16.345509,60.228247 25.597281,54.294499 35.546635,49.534336 44.628166,43.318506 53.232664,37.875125 60.887276,31.059314 69.819953,26.120918 79.706085,20.246763 89.967649,15.039005 99.920107,9.2814209 99.064907,9.0830128 98.21004,8.8830922 97.357297,8.6743409 Z m -92.6889,46.6293101 0.080048,-0.02462 z m 0.1558,0.0502 0.1138668,-0.148877 z m -0.9376,0.8424 c 0.6553862,-0.32934 1.405515,-0.70629 0,0 z m 1.2979,2.135 -0.039929,0.131342 z m -0.0288,0.0059 c -0.3439789,-0.453331 0.7609011,0.008 0,0 z m -0.1677,-0.2709 c 0.1811817,-0.867775 0.2349703,0.621732 0,0 z m -0.0019,0.3256 0.07335,-0.0756 z m 0.0913,-0.0272 c 0.4234867,0.488367 -0.7827848,0.0792 0,0 z m 0.031,0.2606 c -0.044341,-0.695431 0.1273651,0.278976 0,0 z" transform="translate(-4e-7 .00012042)"/>
		<path d="m 452.43023,67.803111 c 0.98755,-3.349593 -4.50325,-8.024109 -3.23932,-9.626593 -0.16637,-1.066212 -0.26581,-6.587453 1.74949,-8.973549 -0.56791,-4.163077 -5.48079,-5.416085 -8.69108,-7.041835 -23.4037,-12.365425 -47.04145,-24.382243 -69.35384,-38.6752969 -4.43475,-3.34227526 -6.93032,3.1161374 -7.1654,6.0704124 -3.9488,0.7441655 -4.71536,4.8416825 -3.48633,8.1328885 1.93181,5.144992 7.90577,6.200496 11.96144,9.013253 13.31308,8.295316 27.29587,15.489252 41.71121,21.658249 12.71672,6.395676 24.37239,14.636481 36.76187,21.608548 1.17398,-0.395378 -0.40073,-1.467139 -0.24804,-2.166077 z m -85.43389,-59.1002401 0.0637,0.054138 z m 0.0453,0.1406 0.16042,0.041549 z m -1.171,-0.43954 0.50784,0.314063 z m -0.97111,1.7805501 -0.12494,0.01593 z m -0.0204,-0.02064 c 0.22755,-0.44358 0.30754,0.63263 0,0 z m 0.12166,-0.22822 c 0.73181,-0.4711755 -0.15056,0.531608 0,0 z m -0.25679,0.114 0.0976,0.03091 z m 0.071,0.06226 c -0.22909,0.509134 -0.3601,-0.6073135 0,0 z m -0.18785,0.1169 c 0.42656,-0.458831 0.11218,0.188353 0,0 z" transform="translate(-4e-7 .00012042)"/>
	</g>
</svg>