<svg viewBox="0 0 173.91901 143.21899" xmlns="http://www.w3.org/2000/svg">
	<path d="m170.11905 83.618994h-27.1v-44.9c0-4.3-3.5-7.8-7.8-7.8h-44.899996v-27.0999999c.2-1.9-1.2-3.59999996-3-3.79999996-1.9-.2-3.6 1.19999996-3.8 2.99999996v27.7999999h-45c-4.3 0-7.8 3.5-7.8 7.8v45h-26.9000002c-1.9-.2-3.60000002 1.2-3.80000002 3-.2 1.9 1.20000002 3.6 3.00000002 3.8h27.6000002v44.999996c0 4.3 3.5 7.8 7.8 7.8h96.799996c4.3 0 7.8-3.5 7.8-7.8v-44.999996h27.1c2 .1 3.7-1.4 3.8-3.4 0-1.9-1.8-3.4-3.8-3.4zm-121.099996-18.6 37.9-21.9 37.899996 21.9v19.8l-17.4-5.6v-4.1l-20.599996-11.8-14.9 8.7 52.799996 16.9v19.799996l-37.799996 21.9-37.8-21.9v-19.799996l17.5 5.5v4.1l20.4 11.799996 15.199996-8.8-53.199996-16.799996z" fill="#f04e25"/>
</svg>