<svg viewBox="0 0 496.03601 431.42801" xmlns="http://www.w3.org/2000/svg">
	<path fill="#738dca" d="m242.67594.22776903a24.3 24.300014 0 01-2.58.77c-3.38.89999997-9.38 2.70999997-15.08 4.58999997a283.14 283.14016 0 00-70.87 34.740022c-29.77 20.000011-59.399996 47.000026-92.619996 84.270049q-33.94 38.12002-49.35 77.78004c-9.4100004 24.20002-13.6300004 49.20003-11.73000045 69.38004.15 1.55.36 3.25.46 3.74l.21000005.9.28-.7c1-2.53 6.13-12.34 9.4100004-18.12001a374.92 374.92021 0 0152.39-70.74004c15.28-16.41001 27.46-26.32001 39.279996-32.09001 7.45-3.61001 14.3-5.21001 19.66-4.56001 5.05.62 8.17 2.09 11.36 5.31001a17.12 17.12001 0 014.56 7.63l.59 1.93.08 84.66005c.05 55.28003 0 85.56005-.18 87.23005a20.09 20.090011 0 01-2.06 7.73c-3.17 6.67001-10.62 9.84001-21 8.94001a66.06 66.060037 0 01-11.73-2.32c-1-.31001-1.55-.39001-1.44-.21.11.18.75 1.08 1.44 2.09 7.22 10.05 18.63 21.42001 30.44 30.20001 31.23 23.35002 78 40.59003 128 47.24003l6.18.81 1.42-1.52c.77-.82 4.41-4.69 8.09-8.58001 10.46-11.08 12.24-13 27.42-29.10001 7.86-8.35001 14.43-15.20001 14.56-15.20001s3.22 2.47 6.83 5.54l26.67 22.52002 14.56 12.34c.34.26 1.06-.1 4-1.91a284.17 284.17016 0 0040.72-30.49002c5.23-4.64 20-19.43001 24.89-25.00001a383.73 383.73021 0 0038.55-51.16003c7-11 15.05-25.46001 18.76-33.50002l1.19-2.58-7.16 7.11001c-13.61 13.45-23.63 21.91001-34.76 29.15001-18.48 12.11001-33.86 16.00001-45.49 11.52001a20.86 20.860012 0 01-7-4.54l-1.15-1.27001-.18-2.94c-.52-8.81-1-27.94001-1.62-62.75003-.54-31.08002-.62-106.67006-.13-119.58007.41-11.18.77-17.19001 1.21-20.41001.36-2.6.41-2.71 2.53-6.31 5.57-9.480009 12.55-19.690015 23.09-33.680023 9.41-12.550007 24.79-31.830018 34.92-43.840028 1.13-1.34 2.24-2.68 2.45-2.94.39-.46.36-.49-.75-.31-5.64.85-20.18 4.66-29.77 7.81001-38.58 12.600003-76.31 35.770016-102.34 62.780031l-3.87 4.000003-1.24-.880001c-7.4-5.260003-22.14-8.560005-37.14-8.320005l-4.9.08 1.7 1.060001c5.28 3.380002 10.9 9.200005 15.36 16.000012a64.55 64.550036 0 019.28 21.78001l.72 3.17.05 90.84005.08 90.84005-3.3 2.6c-14.95 11.88001-29.82 19.87002-41.67 22.42002-10.85 2.32-21-.1-29.12-7.00001a39.33 39.330022 0 01-8.74-11.39l-.93-1.83v-108.92007c0-59.89003-.08-108.860057-.18-108.800057-5.28 2.680007-7.22 3.300007-10.67 3.300007a12.13 12.130007 0 01-9.54-4.100007c-2.94-3.000002-4.69-6.440004-6.19-12.370007-1.16-4.510002-1.55-8.000004-1.7-15.230008-.15-7.600005.15-10.750006 1.57-16.29001a67.19 67.190038 0 0110.15-21.720009c7.29-10.64001 18.56-21.52002 30.59-29.51002 1.57-1 2.94-1.99999997 3.09-2.10999997.35-.29-.09-.27-.61.02z"/>
</svg>