<svg height="249.40756" width="1000" xmlns="http://www.w3.org/2000/svg">
	<g transform="scale(7.9522863)">
		<path d="m33.995 0h-33.995v5.222h32.298v.004c.934 0 1.685.755 1.685 1.684v17.545l-.007.012c-.008.929-.762 1.675-1.688 1.675h-25.38c-.93 0-1.688-.752-1.688-1.687v-7.091c0-.931.758-1.684 1.688-1.684h21.839v-5.22h-23.54c-2.877 0-5.207 2.327-5.207 5.203v10.492c0 2.875 2.33 5.208 5.207 5.208h28.788c2.879 0 5.207-2.333 5.207-5.208v-20.948c0-2.876-2.328-5.207-5.207-5.207" fill="#0096d7"/>
		<path d="m58.628.01 4.083 12.215c.489 1.489.829 1.835 1.683 1.835h.833v2.149h-8.918v-2.149h.729c.735 0 1.349-.099 1.349-.367 0-.246-.028-.514-.123-.879l-.513-1.761h-4.987l-.291.977c-.271.855-.367 1.221-.367 1.563 0 .395.854.468 1.517.468h.704v2.149h-7.18v-2.15h.829c.855 0 1.196-.346 1.688-1.835l4.08-12.215zm-5.161 8.895h3.549l-1.76-5.257h-.046z"/>
		<path d="m66.642 3.015c0-.686-.171-1.05-.88-1.05h-1.122v-1.955h6.06v6.083c.901-1.028 2.051-1.686 3.149-1.686 3.665 0 5.03 2.861 5.03 6.083 0 3.224-1.365 6.08-5.03 6.08-1.538 0-2.906-.534-3.764-1.879l-.707 1.518h-2.737v-13.194m4.059 7.475c0 2.492.56 3.984 1.928 3.984 1.371 0 1.931-1.492 1.931-3.984s-.56-3.979-1.931-3.979c-1.368 0-1.928 1.487-1.928 3.979"/>
		<path d="m80.35 3.015c0-.686-.174-1.05-.878-1.05h-1.125v-1.955h6.061v6.083c.903-1.028 2.052-1.686 3.151-1.686 3.663 0 5.033 2.861 5.033 6.083 0 3.224-1.37 6.08-5.033 6.08-1.542 0-2.907-.534-3.766-1.879l-.707 1.518h-2.736zm4.057 7.475c0 2.492.563 3.984 1.928 3.984 1.37 0 1.931-1.492 1.931-3.984s-.561-3.979-1.931-3.979c-1.364 0-1.928 1.487-1.928 3.979"/>
		<path d="m106.372 10.49c0 3.909-2.664 6.08-6.304 6.08-3.643 0-6.307-2.171-6.307-6.08 0-3.91 2.664-6.083 6.307-6.083 3.64 0 6.304 2.173 6.304 6.083m-8.284 0c0 2.881.512 4.128 1.98 4.128 1.466 0 1.979-1.247 1.979-4.128 0-2.883-.513-4.128-1.979-4.128-1.468 0-1.98 1.245-1.98 4.128"/>
		<path d="m123.793 10.687v1.907c0 1.119-.243 1.783-1.173 1.783-.563 0-.83-.417-.83-.931v-6.72h3.003v-1.951h-3.003v-4.545h-2.419c-.198 2.027-.831 4.545-3.273 4.545h-3.812v-4.545h-2.418c-.199 2.027-.832 4.545-3.275 4.545v1.951h1.639v6.135c0 2.492 1.391 3.709 3.906 3.709 2.935 0 4.104-1.315 4.104-3.709v-2.175h-1.949v1.907c0 1.119-.247 1.783-1.176 1.783-.563 0-.83-.417-.83-.931v-6.72h5.451v6.135c0 2.492 1.389 3.709 3.905 3.709 2.934 0 4.107-1.315 4.107-3.709v-2.175h-1.957"/>
	</g>
</svg>