<svg viewBox="0 0 1000 249.40756" xmlns="http://www.w3.org/2000/svg">
	<g stroke-width="7.9522863">
		<path fill="#0096d7" d="m270.33797277 0h-270.33797277v41.52683906h256.84294292v.03180915c7.4274354 0 13.39960242 6.00397616 13.39960242 13.39165013v139.52286313l-.055666.09542744c-.06361829 7.38767397-6.05964216 13.32007955-13.42345927 13.32007955h-201.82902629c-7.39562626 0-13.42345927-5.9801193-13.42345927-13.41550699v-56.38966215c0-7.40357855 6.02783302-13.39165013 13.42345927-13.39165013h173.66998051v-41.51093449h-187.1968195c-22.87872769 0-41.40755476 18.50497022-41.40755476 41.37574562v83.43538786c0 22.86282311 18.52882708 41.41550705 41.40755476 41.41550705h228.930418c22.89463226 0 41.40755476-18.55268394 41.40755476-41.41550705v-166.58449341c0-22.8707754-18.51292251-41.40755476-41.40755476-41.40755476"/>
		<path d="m466.2266412.07952286 32.46918496 97.13717715c3.888668 11.8409543 6.59244534 14.59244536 13.38369784 14.59244536h6.62425449v17.08946326h-70.91848922v-17.08946326h5.79721671c5.84493043 0 10.72763422-.78727634 10.72763422-2.91848907 0-1.95626243-.22266402-4.08747516-.97813121-6.99005966l-4.07952287-14.00397617h-39.65805178l-2.31411531 7.76938372c-2.15506959 6.79920479-2.91848907 9.70974157-2.91848907 12.42942349 0 3.14115309 6.7912525 3.72166999 12.06361832 3.72166999h5.59840956v17.08946326h-57.09741563v-17.09741555h6.59244534c6.79920479 0 9.51093441-2.75149106 13.42345927-14.59244536l32.4453281-97.13717715zm-41.04174959 70.73558664h28.22266408l-13.99602389-41.80516908h-.36580517z"/>
		<path d="m529.9562636 23.97614319c0-5.4552684-1.35984096-8.34990061-6.99801194-8.34990061h-8.92246523v-15.54671972h48.19085498v48.37375756c7.16500996-8.17495032 16.3101392-13.4075547 25.04174956-13.4075547 29.14512929 0 40.00000009 22.7514911 40.00000009 48.37375756 0 25.63817103-10.8548708 48.3499007-40.00000009 48.3499007-12.23061633 0-23.10934399-4.24652088-29.93240563-14.94234596l-5.62226641 12.0715706h-21.7654076v-104.92246544m32.27833009 59.44334009c0 19.81709746 4.45328033 31.68190862 15.33200799 31.68190862 10.90258452 0 15.35586485-11.86481116 15.35586485-31.68190862s-4.45328033-31.64214719-15.35586485-31.64214719c-10.87872766 0-15.33200799 11.82504973-15.33200799 31.64214719"/>
		<path d="m638.96620421 23.97614319c0-5.4552684-1.38369782-8.34990061-6.98210737-8.34990061h-8.94632209v-15.54671972h48.19880726v48.37375756c7.18091453-8.17495032 16.31809149-13.4075547 25.05765413-13.4075547 29.12922472 0 40.02385695 22.7514911 40.02385695 48.37375756 0 25.63817103-10.89463223 48.3499007-40.02385695 48.3499007-12.26242547 0-23.11729627-4.24652088-29.94831021-14.94234596l-5.62226641 12.0715706h-21.75745532zm32.26242552 59.44334009c0 19.81709746 4.47713719 31.68190862 15.33200799 31.68190862 10.89463223 0 15.35586485-11.86481116 15.35586485-31.68190862s-4.46123261-31.64214719-15.35586485-31.64214719c-10.84691851 0-15.33200799 11.82504973-15.33200799 31.64214719"/>
		<path d="m845.9005983 83.41948329c0 31.08548715-21.1848907 48.3499007-50.13121284 48.3499007-28.97017899 0-50.15506969-17.26441356-50.15506969-48.3499007 0-31.09343943 21.1848907-48.37375756 50.15506969-48.37375756 28.94632213 0 50.13121284 17.28031813 50.13121284 48.37375756m-65.87673971 0c0 22.91053683 4.07157059 32.82703785 15.74552687 32.82703785 11.65805172 0 15.73757459-9.91650102 15.73757459-32.82703785 0-22.9264414-4.07952287-32.82703785-15.73757459-32.82703785-11.67395629 0-15.74552687 9.90059644-15.74552687 32.82703785"/>
		<path d="m984.43737794 84.98608369v15.16500997c0 8.89860837-1.93240557 14.17892647-9.32803183 14.17892647-4.47713719 0-6.60039763-3.31610339-6.60039763-7.40357855v-53.43936394h23.88071576v-15.51491057h-23.88071576v-36.14314123h-19.23658056c-1.57455269 16.11928433-6.60834992 36.14314123-26.02783306 36.14314123h-30.31411538v-36.14314123h-19.22862827c-1.58250497 16.11928433-6.6163022 36.14314123-26.04373763 36.14314123v15.51491057h13.03379725v48.78727645c0 19.81709746 11.06163024 29.49502989 31.06163029 29.49502989 23.33996029 0 32.63618298-10.45725648 32.63618298-29.49502989v-17.2962227h-15.499006v15.16500997c0 8.89860837-1.96421472 14.17892647-9.35188869 14.17892647-4.47713719 0-6.60039763-3.31610339-6.60039763-7.40357855v-53.43936394h43.34791262v48.78727645c0 19.81709746 11.04572567 29.49502989 31.053678 29.49502989 23.332008 0 32.66003983-10.45725648 32.66003983-29.49502989v-17.2962227h-15.56262429"/>
	</g>
</svg>