<svg viewBox="0 0 211.66667 211.66667" xmlns="http://www.w3.org/2000/svg">
	<path fill="#fff" d="M41.458874 62.36504H253.125884V274.03205H41.458874z" transform="translate(-41.458872 -62.365041)"/>
	<path fill="#016fc7" d="M 41.458872,62.365041 V 274.03171 H 253.12554 V 62.365041 H 41.458872 M 182.21721,102.84629 v 69.85 20.37291 l -0.19641,8.99482 -3.77234,3.96996 -8.99584,8.99545 -13.15363,12.81226 -6.20587,5.77695 -7.09883,-0.0682 c 1.3969,-2.99553 5.33225,-5.59683 7.67292,-7.9375 6.35046,-6.35045 12.96506,-12.4359 19.31458,-18.78541 1.99031,-1.99032 5.64088,-4.37548 6.88244,-6.90388 1.00448,-2.04558 0.26131,-5.91939 0.26131,-8.17737 V 172.4317 102.84629 h 5.29167 m -25.92917,88.9 h -7.9375 l -3.24707,-0.27193 -1.25085,-3.69682 c -7.54981,3.25327 -16.18177,7.25616 -24.34167,3.07598 -9.91388,-5.07871 -9.22014,-25.21207 -1.05833,-31.51093 6.11726,-4.72099 16.5748,-2.78589 23.8125,-2.78589 0,-2.61604 0.43146,-5.94801 -1.23003,-8.19065 -1.75294,-2.36608 -5.12068,-2.39268 -7.7658,-2.39268 -5.90637,0 -11.37179,0.80295 -17.19792,1.5875 l -1.5875,-10.84792 c 8.73722,-1.99816 18.05239,-3.46337 26.9875,-1.96151 3.85573,0.64809 8.0874,1.81761 10.76177,4.88235 4.29483,4.92174 4.0549,11.87317 4.0549,17.98125 v 34.13125 M 142.26512,178.7817 v -11.64166 c -4.15844,0 -11.84418,-1.46522 -15.31807,1.23002 -3.25111,2.52242 -2.18594,12.26659 1.82432,13.62522 4.7415,1.60637 9.27585,-1.87882 13.49375,-3.21358 z" transform="translate(-41.458872 -62.365041)"/>
</svg>