<svg viewBox="0 0 1000.0112 223.40396" xmlns="http://www.w3.org/2000/svg">
	<g fill="#253d7a" stroke-width="10.318294">
		<path fill="#fff" d="m-114.41823 352.83333164c-49.3524002 0-89.35642604-40.01434413-89.35642604-89.35642604 0-49.3627185 40.00402584-89.36674433 89.35642604-89.36674433s89.35642604 40.00402584 89.35642604 89.36674433c0 49.34208191-40.00402584 89.35642604-89.35642604 89.35642604" transform="matrix(1.25 0 0 -1.25 254.71832 441.04166)"/>
		<g fill="#1e3174">
			<path d="m82.14181227 227.1374398-11.39139658 23.29870785h-14.48688478l13.63046637 29.09758908 34.34960073-69.51434668h32.00734799l-55.85292542 106.41256602h-21.11122952l-53.76863003-106.39192943 31.91448334-.01031829 8.04826932 17.10773145z" transform="matrix(1.25 0 0 -1.25 254.71832 441.04166)"/>
			<path d="m251.12244945 248.34978861c16.41640575 5.10755553 24.13448967 17.5410998 24.13448967 32.69867369 0 19.38807443-13.27964438 35.11315448-40.61280518 35.11315448h-55.21319119v-106.41256602l25.59968741.01031829-.01031829 83.9290034h31.37793205c9.2864646-.02063659 13.14550656-5.73697146 13.14550656-12.57800039s-4.05508954-12.33036133-13.33123585-12.33036133h-21.95732963l33.21458839-59.02064168h26.26005823s-22.73120168 38.56978297-22.60738215 38.59041956" transform="matrix(1.25 0 0 -1.25 254.71832 441.04166)"/>
			<path d="m168.19328874 316.38139644h-26.46642411v-106.39192943h26.46642411z" transform="matrix(1.25 0 0 -1.25 254.71832 441.04166)"/>
			<path d="m465.26316398 316.67340416.01031829-59.82546861c0-18.28401697-10.68975258-25.9608277-23.82494085-25.9608277-13.15582485 0-23.75271279 7.64585585-23.75271279 25.94019112v59.8461052h-26.51801558v-60.00087961c0-38.26023415 22.47324433-49.41430997 50.27072837-49.41430997 27.80780233 0 50.33263813 11.15407581 50.33263813 49.41430997l-.01031829 60.00087961z" transform="matrix(1.25 0 0 -1.25 254.71832 441.04166)"/>
			<path d="m348.04321682 232.48437975h-37.35222428v20.95645511h37.36254257c6.13938493-.08254635 11.10248434-4.68450548 11.10248434-10.41115865 0-5.74728976-4.97341771-10.54529647-11.11280264-10.54529647m-37.35222428 61.46607736h36.69185346c5.03532747-.05159147 9.2864646-3.93127001 9.2864646-8.99755237s-4.45750301-9.10073531-9.49283048-9.05946213h-36.48548758zm58.45313551-29.31427325c6.90293869 4.87023477 9.51346707 12.91850409 9.51346707 21.78191863 0 16.66404481-14.02256155 30.01591725-31.24379423 30.01591725h-62.32249576v-106.40224773h64.77824973v-.04127318c18.18083403 0 33.32808962 14.04319813 33.32808962 31.21283935 0 11.20566728-6.73784598 19.49125737-14.05351643 23.43284567" transform="matrix(1.25 0 0 -1.25 254.71832 441.04166)"/>
			<path d="m558.33520769 275.20314874c-21.46205152 4.66386889-28.7158122 6.72752769-28.7158122 13.53760173 0 6.0155654 7.76967538 9.02850725 20.04844524 9.02850725 11.58744416 0 25.56873253-4.93214453 33.80273114-9.86428906l8.36813643 21.65809911c-12.45418086 5.17978359-27.42602545 10.13256471-47.22683164 10.13256471-25.9608277 0-42.18118587-15.17821047-42.18118587-33.73050309 0-18.5729292 13.36219073-26.73469975 39.81829655-32.34785169 20.54372335-4.34400177 26.10528382-6.93389357 26.10528382-13.33123585 0-6.37670569-8.24431691-8.72927672-19.36743784-8.72927672-14.39402013 0-28.25148897 4.78768842-41.31444918 10.41115865l-7.89349491-21.12154782c15.61157882-7.24344239 31.8216187-13.03200532 51.13746506-13.03200532 32.18275899 0 45.31794725 15.38457635 45.31794725 33.30745303 0 15.94176423-11.05089287 28.24117068-37.89909386 34.08132508" transform="matrix(1.25 0 0 -1.25 254.71832 441.04166)"/>
			<path d="m-176.89447 263.46968h-12.45418086c0-22.60738215 18.33560844-40.95330889 40.95330889-40.95330889s40.94299059 18.34592673 40.94299059 40.96362718h13.88842372c0-26.83788269-21.76128205-48.59916474-48.58884645-48.59916474-15.73539835 0-29.71668672 7.48076315-38.59041956 19.06820731 9.74046954-15.21948365 26.79660952-25.31077518 46.21563883-25.31077518 30.28419289 0 54.83141432 24.55753972 54.83141432 54.84173261h13.87810543c0-34.50437514-27.96257674-62.47727017-62.46695188-62.47727017-20.40958553 0-38.5181915 9.78174271-49.91990637 24.90836172 12.26845157-18.75865849 33.46222744-31.15092959 57.54512564-31.15092959 37.95068533 0 68.71983804 30.76915271 68.71983804 68.71983804h12.45418086c-.01031829 22.60738215-18.33560844 40.94299059-40.95330889 40.94299059s-40.94299059-18.33560844-40.94299059-40.95330889h-13.88842372c0 26.8275644 21.75096375 48.58884645 48.58884645 48.58884645 15.72508006 0 29.70636843-7.48076315 38.59041956-19.06820731-9.75078783 15.21948365-26.79660952 25.31077518-46.22595712 25.31077518-30.2738746 0-54.82109602-24.54722143-54.82109602-54.83141432h-13.87810543c0 34.50437514 27.96257674 62.46695188 62.46695188 62.46695188 20.39926724 0 38.5181915-9.78174271 49.90958808-24.90836172-12.26845157 18.75865849-33.45190915 31.15092959-57.53480734 31.15092959-37.95068533 0-68.71983804-30.75883441-68.71983804-68.70951975" transform="matrix(1.25 0 0 -1.25 254.71832 441.04166)"/>
			<path d="m-114.41823 187.12153c-42.16054928 0-76.34505731 34.19482632-76.34505731 76.34505731 0 42.17086758 34.17418973 76.3553756 76.33473901 76.3553756 42.17086758 0 76.36569389-34.18450802 76.36569389-76.34505731s-34.19482632-76.3553756-76.3553756-76.3553756m0 165.71180164c-49.3524002 0-89.35642604-40.01434413-89.35642604-89.35642604 0-49.3627185 40.00402584-89.36674433 89.35642604-89.36674433s89.35642604 40.00402584 89.35642604 89.36674433c0 49.34208191-40.00402584 89.35642604-89.35642604 89.35642604" transform="matrix(1.25 0 0 -1.25 254.71832 441.04166)"/>
		</g>
	</g>
</svg>