<svg height="223.40396" width="1000.0112" xmlns="http://www.w3.org/2000/svg">
	<g fill="#253d7a" transform="matrix(1.25 0 0 -1.25 254.71832 441.04166)">
		<path d="m0 16.06c-4.783 0-8.66-3.878-8.66-8.66 0-4.784 3.877-8.661 8.66-8.661s8.66 3.877 8.66 8.661c0 4.782-3.877 8.66-8.66 8.66" fill="#fff" transform="matrix(10.318294 0 0 10.318294 -114.41823 187.12153)"/>
		<g fill="#1e3174">
			<g transform="matrix(10.318294 0 0 10.318294 -4031.7132 -3082.7257)">
				<path d="m0 0-1.104 2.258h-1.404l1.321 2.82 3.329-6.737h3.102l-5.413 10.313h-2.046l-5.211-10.311 3.093-.001.78 1.658z" transform="translate(398.69527 320.7762)"/>
				<path d="m0 0c1.591.495 2.339 1.7 2.339 3.169 0 1.879-1.287 3.403-3.936 3.403h-5.351v-10.313l2.481.001-.001 8.134h3.041c.9-.002 1.274-.556 1.274-1.219s-.393-1.195-1.292-1.195h-2.128l3.219-5.72h2.545s-2.203 3.738-2.191 3.74" transform="translate(415.07207 322.832)"/>
				<path d="m407.03497 329.4253h-2.565v-10.311h2.565z"/>
				<path d="m0 0 .001-5.798c0-1.772-1.036-2.516-2.309-2.516-1.275 0-2.302.741-2.302 2.514v5.8h-2.57v-5.815c0-3.708 2.178-4.789 4.872-4.789 2.695 0 4.878 1.081 4.878 4.789l-.001 5.815z" transform="translate(435.82557 329.4536)"/>
				<path d="m0 0h-3.62v2.031h3.621c.595-.008 1.076-.454 1.076-1.009 0-.557-.482-1.022-1.077-1.022m-3.62 5.957h3.556c.488-.005.9-.381.9-.872s-.432-.882-.92-.878h-3.536zm5.665-2.841c.669.472.922 1.252.922 2.111 0 1.615-1.359 2.909-3.028 2.909h-6.04v-10.312h6.278v-.004c1.762 0 3.23 1.361 3.23 3.025 0 1.086-.653 1.889-1.362 2.271" transform="translate(424.46517 321.2944)"/>
				<path d="m0 0c-2.08.452-2.783.652-2.783 1.312 0 .583.753.875 1.943.875 1.123 0 2.478-.478 3.276-.956l.811 2.099c-1.207.502-2.658.982-4.577.982-2.516 0-4.088-1.471-4.088-3.269 0-1.8 1.295-2.591 3.859-3.135 1.991-.421 2.53-.672 2.53-1.292 0-.618-.799-.846-1.877-.846-1.395 0-2.738.464-4.004 1.009l-.765-2.047c1.513-.702 3.084-1.263 4.956-1.263 3.119 0 4.392 1.491 4.392 3.228 0 1.545-1.071 2.737-3.673 3.303" transform="translate(444.84567 325.4345)"/>
			</g>
			<path d="m0 0h-1.207c0-2.191 1.777-3.969 3.969-3.969s3.968 1.778 3.968 3.97h1.346c0-2.601-2.109-4.71-4.709-4.71-1.525 0-2.88.725-3.74 1.848.944-1.475 2.597-2.453 4.479-2.453 2.935 0 5.314 2.38 5.314 5.315h1.345c0-3.344-2.71-6.055-6.054-6.055-1.978 0-3.733.948-4.838 2.414 1.189-1.818 3.243-3.019 5.577-3.019 3.678 0 6.66 2.982 6.66 6.66h1.207c-.001 2.191-1.777 3.968-3.969 3.968s-3.968-1.777-3.968-3.969h-1.346c0 2.6 2.108 4.709 4.709 4.709 1.524 0 2.879-.725 3.74-1.848-.945 1.475-2.597 2.453-4.48 2.453-2.934 0-5.313-2.379-5.313-5.314h-1.345c0 3.344 2.71 6.054 6.054 6.054 1.977 0 3.733-.948 4.837-2.414-1.189 1.818-3.242 3.019-5.576 3.019-3.678 0-6.66-2.981-6.66-6.659" transform="matrix(10.318294 0 0 10.318294 -176.89447 263.46968)"/>
			<path d="m0 0c-4.086 0-7.399 3.314-7.399 7.399 0 4.087 3.312 7.4 7.398 7.4 4.087 0 7.401-3.313 7.401-7.399s-3.314-7.4-7.4-7.4m0 16.06c-4.783 0-8.66-3.878-8.66-8.66 0-4.784 3.877-8.661 8.66-8.661s8.66 3.877 8.66 8.661c0 4.782-3.877 8.66-8.66 8.66" transform="matrix(10.318294 0 0 10.318294 -114.41823 187.12153)"/>
		</g>
	</g>
</svg>