<svg xmlns:xlink="http://www.w3.org/1999/xlink" viewBox="0 0 490.04999 72.804123" xmlns="http://www.w3.org/2000/svg">
	<defs>
		<clipPath id="a" clipPathUnits="userSpaceOnUse">
			<path d="M 1472.11,826.5 H 1692 v -38.123 h -219.89 z"/>
		</clipPath>
	</defs>
	<path fill="#002898" d="m 0,0 h -14.17 v 12.425 h -3.31 V -2.038 H 0" transform="matrix(3.025 0 0 -3.0250001 151.64326 66.639138)"/>
	<path fill="#002898" d="M 0,0 V 14.463 H 18.64 V 12.424 H 3.31 V 8.539 h 9.13 V 6.529 H 3.31 V 2.038 H 18.85 V 0" transform="matrix(3.025 0 0 -3.0250001 164.77176 72.801063)"/>
	<path fill="#002898" d="M 0,0 -7.64,6.033 -15.25,0 h -3.76 l 9.47,7.492 -8.89,6.971 h 4.09 l 6.86,-5.427 6.78,5.427 H 3.06 L -5.62,7.631 4.09,0" transform="matrix(3.025 0 0 -3.0250001 284.5315 72.801063)"/>
	<path fill="#002898" d="m 307.79375,72.804088 h 9.9825 V 29.053512 h -9.9825 z"/>
	<path fill="#002898" d="m 393.6735,35.218463 h -45.254 v 31.420675 h 45.254 z m 0.75625,37.585625 h -46.7665 c -4.87025,0 -9.3775,-2.913075 -9.3775,-6.0863 V 35.133763 c 0,-3.161125 4.50725,-6.083276 9.3775,-6.083276 h 46.7665 c 4.87025,0 9.3775,2.922151 9.3775,6.083276 v 31.584025 c 0,3.173225 -4.50725,6.0863 -9.3775,6.0863"/>
	<path fill="#002898" d="M 0,0 -15.79,10.937 V 0 h -3.27 v 14.463 h 2.69 L -0.58,3.553 v 10.91 H 2.68 V 0" transform="matrix(3.025 0 0 -3.0250001 481.943 72.801063)"/>
	<path fill="#002898" d="m 0,0 -15.77,-20.966 h 4.02 L 0,-2.889 11.75,-20.966 h 4.02" transform="matrix(3.025 0 0 -3.0250001 47.70425 9.3819688)"/>
	<path fill="#d4004b" d="M 0,0 C -0.02,0.047 -0.08,0.064 -0.12,0.042 L -0.13,0.04 C -0.32,-0.05 -2.05,-0.842 -3.66,-0.842 -5.28,-0.842 -7,-0.049 -7.19,0.04 -7.2,0.042 -7.2,0.041 -7.2,0.043 L -7.21,0.047 C -7.22,0.052 -7.24,0.042 -7.25,0.038 -7.28,0.031 -7.3,0.025 -7.32,0.003 c 0,-0.004 0,-0.008 0,-0.011 0,-10e-4 0,-10e-4 0,-10e-4 0,-0.007 0,-0.016 0,-0.023 0,-0.005 -0.01,-0.008 -0.01,-0.012 0,-0.03 0.02,-0.058 0.04,-0.076 0.02,-0.011 1.69,-1.148 2.53,-2.618 0.83,-1.435 1,-3.42 1.01,-3.503 0,-0.049 0.04,-0.083 0.09,-0.083 0.05,0 0.09,0.038 0.09,0.087 0.02,0.211 0.2,2.107 1,3.499 0.84,1.455 2.52,2.607 2.53,2.617 0.03,0.016 0.04,0.044 0.04,0.072 0.01,0.002 0.01,0.004 0.01,0.008 0,0.013 0,0.027 -0.01,0.041" transform="matrix(3.025 0 0 -3.0250001 323.8565 5.9606324)"/>
	<g fill="#002898" clip-path="url(#a)" transform="matrix(3.025 0 0 -3.0250001 -4453.133 2500.1612)">
		<path d="m 0,0 c -49.17,7.786 -89.02,-12.792 -89.42,-13.019 -0.03,-0.034 -3.52,-4.94 -3.52,-4.94 -0.02,-0.036 -0.13,-0.252 -0.09,-0.28 0.03,-0.031 0.24,-0.119 0.28,-0.095 0.43,0.276 43.62,25.926 92.72,18.151 0.05,-0.007 0.1,0.026 0.1,0.077 0,0.006 0.01,0.009 0.01,0.015 C 0.08,-0.047 0.04,-0.007 0,0" transform="translate(1570.61 824.741)"/>
	</g>
</svg>