<svg height="297.638" viewBox="0 0 1062.993 297.638" width="1062.993" xmlns="http://www.w3.org/2000/svg">
	<g fill="#0f238c" transform="translate(-354.331 -274.96013)">
		<g>
			<path d="m1065.83 566.929 36.85-178.583 14.03 178.583h79.513l-36.85-283.465h-85.04l-39.687 170.078-39.682-170.078h-85.04l-36.852 283.465h79.371l14.174-178.583 36.851 178.583z"/>
			<path d="m1235.907 566.929h181.417v-59.528h-104.882v-223.937h-76.535z"/>
			<path d="m535.749 283.464h-96.379l-85.039 283.465h85.04l11.338-51.023h73.701l11.339 51.023h85.04zm-48.189 62.362 25.512 116.22-51.024.001z"/>
		</g>
		<g>
			<path d="m824.881 362.835c-70.432-61.604-180.339-36.558-181.417 19.843-15.981-104.645 110.563-126.492 181.41-93.544 1.262 16.802 2.527 34.892.007 73.701z"/>
			<path d="m766.445 396.213c-17.745-6.926-43.562-13.227-43.599-33.403-.015-8.241 3.375-17.189 19.83-22.651-56.693 5.669-75.599 74.633-12.896 108.91 10.928 5.974 29.904 12.311 29.904 32.82 0 23.957-26.32 32.617-43.634 32.251-28.761-.605-51.885-10.652-78.256-29.417v68.032c31.207 13.434 82.039 28.928 132.996 13.256 41.183-12.666 76.768-47.236 76.768-84.123.002-60.022-52.091-74.346-81.113-85.675z"/>
		</g>
	</g>
</svg>