<svg viewBox="0 0 174.42342 166.08588" xmlns="http://www.w3.org/2000/svg">
	<linearGradient id="b" x1="63.07143845" x2="15.92857207" y1="13.01440295" y2="123.72871461" gradientUnits="userSpaceOnUse">
		<stop offset="0" stop-color="#236736"/>
		<stop offset=".49279997" stop-color="#6ba443"/>
		<stop offset="1" stop-color="#86c146"/>
	</linearGradient>
	<linearGradient id="a" x1="14.14285633" x2="109.14288617" y1="143.72871631" y2="124.80014371" gradientUnits="userSpaceOnUse">
		<stop offset="0" stop-color="#2b7a77"/>
		<stop offset=".51048726" stop-color="#4ebaa9"/>
		<stop offset="1" stop-color="#5cc2b1"/>
	</linearGradient>
	<linearGradient id="c" x1="81.28571918" x2="150.57146982" y1=".51440145" y2="165.51445116" gradientUnits="userSpaceOnUse">
		<stop offset="0" stop-color="#29a5e3"/>
		<stop offset=".51549304" stop-color="#356eb9"/>
		<stop offset="1" stop-color="#394da5"/>
	</linearGradient>
	<g stroke-width=".1740876">
		<path fill="url(#a)" d="m32.584587 166.08588c-4.726309 0-7.182393-1.7828-9.540136-5.92414l-21.5366487-39.92317c-1.48414554-2.86105-1.5078023-3.81396-1.5078023-5.87538l33.847684 1.49211 7.746898 7.7469h67.894168l-56.373087 34.9219c-2.747766 1.62508-13.198431 7.56178-20.531076 7.56178z"/>
		<path fill="url(#b)" d="m41.625669 123.6022h-29.277804c-8.8429088 0-12.347865-4.62519-12.347865-9.23901 0-2.9195.93944284-4.5116 2.2383487-7.7563l42.6670253-101.8567358.458516-.8938023.590655-.9170691 1.227939-1.1968522 1.803049-.96370021 2.611314-.57511057 4.492082.11657776 29.649289 11.02036642-10.025574 31.615551z"/>
		<path fill="url(#c)" fill-rule="evenodd" d="m127.59386 166.07957-67.347035-159.4331544c-1.160005-2.7147447-3.019844-6.21741327-7.833942-6.21741327-4.301322 0-6.350369 2.08272307-7.507509 4.32115187.598336-1.6142499 2.408955-4.7501542 7.656727-4.7501542h46.481389c4.28351 0 6.33839 2.5221689 7.27484 4.8314026l68.10509 161.2481674z"/>
	</g>
</svg>