<svg xmlns:xlink="http://www.w3.org/1999/xlink" id="Layer_1" version="1.1" viewBox="0 0 999.98999 301.98001" xmlns="http://www.w3.org/2000/svg">
	<defs id="defs1">
		<style id="style1">
			.cls-1{fill:#00e47c;stroke-width:0}
		</style>
	</defs>
	<path id="path1" d="M 65.08,265.2 C 44.4,250.3 33.45,239.35 23.11,223.54 8.21,200.42 0,172.44 0,144.76 0,64.78 64.48,0 144.46,0 c 79.98,0 144.46,64.78 144.46,144.46 0,32.85 -11.25,65.69 -31.02,90.02 -8.21,10.34 -15.21,16.42 -34.06,30.72 v -84.55 h 14.29 v 57.78 c 10.64,-12.47 15.82,-20.07 20.99,-29.2 10.64,-18.86 16.42,-42.27 16.42,-64.78 0,-72.99 -58.7,-132.3 -131.08,-132.3 -72.38,0 -131.08,59.32 -131.08,133.22 0,33.76 11.86,63.56 37.1,93.06 v -57.78 h 14.6 z m 28.59,14.6 c -2.74,-0.61 -9.12,-3.65 -14.29,-6.39 v -92.76 h 14.29 v 99.14 z m 86.98,-203.77 -36.19,-27.98 -36.19,27.98 -7.91,-10.34 44.1,-34.37 44.1,34.37 z M 122.56,287.4 c -5.17,-0.91 -5.47,-0.91 -7.3,-1.52 -1.52,-0.3 -2.13,-0.3 -6.99,-1.52 V 86.68 h 14.29 z m 28.89,1.22 c -2.13,0.3 -2.74,0.3 -5.78,0.3 -4.56,0 -6.08,0 -8.52,-0.3 V 86.68 h 14.29 v 201.94 z m 28.89,-4.56 c -4.56,1.52 -8.52,2.43 -14.29,3.65 V 86.68 h 14.29 z m 29.2,-10.64 c -4.56,2.13 -7.3,3.35 -14.6,6.69 v -99.45 h 14.6 z" class="cls-1"/>
	<path id="path2" d="m 374.7,14.29 c 4.56,-0.3 8.21,-0.61 9.43,-0.61 17.33,0 28.89,10.04 28.89,25.55 0,10.64 -5.78,18.25 -18.25,24.33 15.81,3.35 24.33,13.38 24.33,28.28 0,11.56 -6.39,21.29 -16.42,25.24 -4.56,1.82 -10.04,2.43 -20.07,2.43 h -9.43 c -5.17,-0.3 -9.12,-0.3 -12.16,-0.3 h -17.64 v -6.08 l 10.34,-1.82 V 22.81 L 343.38,20.99 V 14.6 h 18.55 l 12.77,-0.3 z m -30.72,260.33 v -6.08 l 9.73,-1.82 v -88.8 l -9.73,-1.52 v -6.69 h 34.97 v 6.39 l -9.12,1.82 v 88.5 l 8.82,1.82 v 6.39 h -34.67 z m 32.54,-213.8 c 13.08,0 19.16,-6.69 19.16,-20.98 0,-12.17 -6.39,-19.46 -17.33,-19.46 -3.04,0 -5.17,0.3 -9.43,1.82 v 38.62 z m -7.6,49.88 c 3.04,1.82 5.17,2.43 9.43,2.43 14.29,0 23.11,-8.82 23.11,-23.11 0,-14.29 -8.21,-21.9 -25.85,-21.9 h -6.69 z m 58.09,163.92 v -6.08 l 7.91,-1.52 v -44.4 c 0,-8.52 -2.74,-12.47 -8.52,-12.47 -4.56,0 -8.52,1.82 -14.29,6.69 v 49.57 l 7.91,1.82 v 6.39 H 388.7 v -6.08 l 8.82,-1.82 v -55.35 l -8.82,-1.22 v -6.08 l 18.86,-4.87 h 4.26 v 9.12 c 9.12,-6.99 13.38,-8.82 20.07,-8.82 11.56,0 17.94,7.3 17.94,19.77 v 47.14 l 7.91,1.82 v 6.39 H 427.02 Z M 490.57,80.59 c 0,24.03 -12.47,40.14 -30.72,40.14 -18.25,0 -29.2,-15.21 -29.2,-37.41 0,-23.72 12.47,-40.15 30.72,-40.15 18.25,0 29.2,14.9 29.2,37.41 z m -43.79,2.13 c 0,19.46 4.87,30.41 13.38,30.41 9.12,0 13.99,-11.56 13.99,-34.37 0,-18.25 -4.87,-28.28 -13.38,-28.28 -8.51,0 -13.99,11.86 -13.99,32.24 z m 69.65,126.82 c 4.26,5.47 5.47,9.12 5.47,14.9 0,13.99 -10.95,24.33 -25.55,24.33 -3.04,0 -5.47,-0.3 -8.21,-1.22 -3.65,2.43 -5.78,4.87 -5.78,6.69 0,1.82 1.82,2.74 6.39,3.04 l 18.25,0.91 c 14.29,0.61 20.98,6.08 20.98,17.33 0,16.12 -14.29,26.46 -36.19,26.46 -16.42,0 -27.07,-6.08 -27.07,-15.51 0,-6.08 3.04,-10.04 11.86,-15.82 -6.08,-2.43 -8.52,-5.17 -8.52,-9.43 0,-5.47 3.95,-10.34 13.69,-16.42 -9.12,-5.78 -12.47,-11.56 -12.47,-20.98 0,-14.29 10.95,-25.24 25.24,-25.24 3.04,0 4.26,0.3 9.73,1.52 3.04,0.91 5.17,1.22 6.69,1.22 0.3,0 1.52,0 2.74,-0.3 h 2.74 l 12.47,-0.3 v 8.82 h -12.47 z m -31.63,62.35 c -3.95,3.65 -5.47,6.69 -5.47,11.25 0,6.69 6.08,10.64 16.12,10.64 12.47,0 21.9,-5.17 21.9,-12.47 0,-6.39 -3.35,-7.6 -26.76,-9.12 l -5.78,-0.3 z m 0.61,-48.66 c 0,12.77 3.04,18.55 10.34,18.55 7.3,0 10.34,-5.78 10.34,-17.03 0,-13.38 -3.65,-19.77 -10.95,-19.77 -6.69,0 -9.73,5.78 -9.73,18.25 z M 517.04,80.9 c 1.52,20.68 6.69,29.2 17.64,29.2 5.47,0 9.43,-2.74 13.99,-9.73 l 6.69,2.74 c -7.6,13.69 -13.08,17.64 -24.94,17.64 -18.25,0 -28.59,-13.08 -28.59,-36.8 0,-25.24 10.64,-40.45 28.28,-40.45 17.64,0 25.24,12.16 25.55,37.41 h -38.62 z m 23.11,-7.3 c -0.61,-16.42 -3.65,-22.81 -10.64,-22.81 -6.99,0 -10.64,6.99 -12.47,22.81 z" class="cls-1"/>
	<path id="path3" d="m 552.32,236 c 1.52,20.98 6.69,29.5 17.64,29.5 5.78,0 9.73,-2.74 14.29,-9.73 l 6.69,2.74 c -6.99,13.08 -13.38,17.64 -25.24,17.64 -18.25,0 -28.59,-13.69 -28.59,-37.1 0,-25.24 10.64,-40.15 28.28,-40.15 12.17,0 20.07,6.39 23.72,18.25 1.22,3.95 1.52,8.82 2.13,18.86 h -38.93 z m 23.11,-6.99 c -0.3,-15.81 -3.35,-22.81 -10.34,-22.81 -6.99,0 -10.95,6.69 -12.77,22.81 z M 602.8,119.22 v -6.08 l 7.3,-1.52 V 70.56 c 0,-10.95 -2.43,-14.9 -8.82,-14.9 -4.56,0 -7.91,1.52 -13.99,6.69 v 48.96 l 7.3,1.52 v 6.39 h -31.02 v -6.08 l 9.12,-1.82 V 18.55 l -8.52,-1.82 v -5.17 l 18.86,-3.95 h 4.26 v 45.92 c 8.52,-6.69 13.38,-8.82 19.77,-8.82 11.86,0 17.94,6.99 17.94,20.68 v 45.92 l 7.91,1.52 v 6.39 z m -2.74,155.41 v -6.08 l 8.82,-1.82 v -93.67 l -8.52,-0.91 v -5.17 l 19.16,-4.26 h 3.95 v 103.71 l 8.21,1.82 v 6.39 h -31.63 z m 80.59,0 v -6.08 l 7.3,-1.52 v -41.36 c 0,-10.95 -2.43,-14.9 -8.82,-14.9 -4.26,0 -7.91,1.82 -13.99,7 v 48.66 l 7.3,1.82 v 6.39 h -30.72 v -6.08 l 8.82,-1.82 v -93.06 l -8.52,-1.52 v -5.17 l 19.16,-4.26 h 3.95 v 46.23 c 8.21,-6.69 13.08,-8.82 20.07,-8.82 11.25,0 17.64,6.99 17.64,19.46 v 46.84 l 8.21,1.82 v 6.39 H 680.64 Z M 666.05,58.09 c 6.08,-10.34 9.12,-13.08 14.6,-13.08 5.48,0 8.82,3.35 8.82,8.82 0,3.35 -1.82,6.08 -5.78,9.12 l -7.91,-4.26 c -5.17,2.74 -9.43,8.52 -9.43,12.77 v 39.84 l 10.64,1.52 v 6.39 h -33.76 v -6.08 l 8.82,-1.82 V 55.35 l -8.82,-1.52 v -4.87 l 18.25,-4.87 h 4.56 v 13.99 z m 31.02,61.13 v -6.08 l 8.21,-1.82 V 56.58 l -8.21,-1.82 v -5.17 l 19.16,-4.87 h 3.65 v 66.6 l 8.52,1.52 v 6.39 H 697.08 Z M 721.09,17.34 c 0,5.47 -4.26,9.73 -9.73,9.73 -5.47,0 -9.73,-4.26 -9.73,-9.73 0,-5.47 4.26,-9.73 9.73,-9.73 5.47,0 9.73,4.26 9.73,9.73 z m 14.9,218.67 c 1.52,20.98 6.69,29.5 17.64,29.5 5.78,0 9.73,-2.74 14.29,-9.73 l 6.69,2.74 c -6.99,13.08 -13.38,17.64 -25.24,17.64 -18.25,0 -28.59,-13.69 -28.59,-37.1 0,-25.24 10.64,-40.15 28.28,-40.15 12.17,0 20.07,6.39 23.72,18.25 1.22,3.95 1.52,8.82 2.13,18.86 h -38.93 z m 23.11,-6.99 c -0.31,-15.81 -3.35,-22.81 -10.34,-22.81 -6.99,0 -10.95,6.69 -12.77,22.81 z" class="cls-1"/>
	<path id="path4" d="m 777.38,119.22 v -6.08 l 7.91,-1.52 v -44.4 c 0,-8.52 -2.74,-12.47 -8.51,-12.47 -4.56,0 -8.52,1.82 -14.29,6.69 v 49.57 l 7.91,1.82 v 6.39 h -31.32 v -6.08 l 8.82,-1.82 V 55.97 l -8.82,-1.22 v -6.08 l 18.86,-4.87 h 4.26 v 9.12 c 9.12,-6.99 13.38,-8.82 20.07,-8.82 11.56,0 17.94,7.3 17.94,19.77 v 47.14 l 7.91,1.82 v 6.39 H 777.4 Z m 9.43,155.41 v -6.08 l 8.21,-1.82 v -55.05 l -8.21,-1.82 v -4.87 l 19.16,-4.87 h 3.65 v 66.3 l 8.52,1.82 v 6.39 h -31.32 z m 24.33,-102.19 c 0,5.47 -4.56,10.04 -10.04,10.04 -5.48,0 -9.73,-4.26 -9.73,-9.73 0,-5.47 4.56,-10.04 10.34,-10.04 5.17,0 9.43,4.56 9.43,9.73 z M 866.49,54.13 c 4.26,5.47 5.47,9.12 5.47,14.9 0,13.99 -10.95,24.33 -25.55,24.33 -3.04,0 -5.47,-0.3 -8.21,-1.22 -3.65,2.43 -5.78,4.87 -5.78,6.39 0,2.13 1.82,3.04 6.39,3.35 l 18.25,0.91 c 14.29,0.61 20.99,6.08 20.99,17.33 0,16.12 -14.29,26.46 -36.19,26.46 -16.42,0 -27.07,-6.08 -27.07,-15.51 0,-6.08 3.34,-10.34 11.86,-15.82 -6.08,-2.43 -8.52,-5.47 -8.52,-9.73 0,-5.17 3.95,-10.04 13.69,-16.12 -9.12,-5.78 -12.47,-11.56 -12.47,-20.98 0,-14.29 10.95,-25.24 25.24,-25.24 3.04,0 4.26,0.3 9.73,1.52 3.04,0.91 5.17,1.22 6.69,1.22 0.31,0 1.52,0 2.74,-0.3 h 2.74 l 12.47,-0.3 v 8.82 h -12.47 z m 39.23,220.49 v -6.08 l 8.21,-1.82 v -42.27 c 0,-10.04 -2.74,-13.99 -9.12,-13.99 -4.87,0 -8.21,1.82 -14.29,7.3 v 48.66 l 7.6,1.82 v 6.39 H 867.4 v -6.08 l 8.51,-1.82 v -42.58 c 0,-9.43 -3.04,-13.69 -9.73,-13.69 -4.86,0 -8.51,1.82 -13.69,6.99 v 48.96 l 7,1.82 v 6.39 h -31.02 v -6.08 l 8.82,-1.82 v -55.96 l -8.82,-1.52 v -5.17 l 19.16,-4.87 h 3.96 v 10.04 c 7.6,-6.39 13.38,-8.82 20.68,-8.82 7.3,0 12.77,3.04 17.03,9.73 7.91,-7.3 13.08,-10.04 20.99,-10.04 13.08,0 18.55,6.39 18.55,21.59 v 44.71 l 8.52,1.82 v 6.39 H 905.73 Z M 829.38,127.73 c 0,6.69 6.08,10.64 16.12,10.64 12.47,0 21.9,-5.47 21.9,-12.47 0,-7 -2.43,-7.6 -32.54,-9.43 -3.95,3.65 -5.47,6.69 -5.47,11.25 z m 6.08,-59.91 c 0,12.77 3.04,18.55 10.34,18.55 7.3,0 10.34,-5.78 10.34,-17.03 0,-13.38 -3.65,-19.77 -10.95,-19.77 -6.69,0 -9.73,5.78 -9.73,18.25 z m 67.21,13.08 c 1.52,20.68 6.69,29.2 17.64,29.2 5.47,0 9.43,-2.74 13.99,-9.73 l 6.69,2.74 c -7.6,13.69 -13.08,17.64 -24.94,17.64 -18.25,0 -28.59,-13.08 -28.59,-36.8 0,-25.24 10.64,-40.45 28.28,-40.45 17.64,0 25.24,12.16 25.55,37.41 h -38.62 z m 23.11,-7.3 c -0.61,-16.42 -3.65,-22.81 -10.64,-22.81 -6.99,0 -10.64,6.99 -12.47,22.81 z m 50.79,-15.51 c 6.08,-10.34 9.12,-13.08 14.6,-13.08 5.48,0 8.82,3.35 8.82,8.82 0,3.35 -1.82,6.08 -5.78,9.12 l -7.91,-4.26 c -5.17,2.74 -9.43,8.52 -9.43,12.77 v 39.84 l 10.64,1.52 v 6.39 h -33.76 v -6.08 l 8.82,-1.82 V 55.35 l -8.82,-1.52 V 48.96 L 972,44.09 h 4.56 v 13.99 z" class="cls-1"/>
</svg>