<svg height="35.010235" viewBox="0 0 124.00018 35.010235" width="124.00018" xmlns="http://www.w3.org/2000/svg">
	<g fill="#112f78" transform="translate(-1.9998153 -46.494766)">
		<g clip-rule="evenodd" fill-rule="evenodd">
			<path d="m59.085 77.385s-5.579 0-8.629 0-7.036-1.047-6.776-5.4c.514-8.623 7.472-9.053 9.794-9.053h8.364s-.13.751-.265 1.271c-.134.52-.481.953-1.694.953s-5.267 0-6.564 0-5.072.123-5.506 6.511c-.092 1.357.676 3.547 3.229 3.547h7.2c.933 0 1.222.335 1.112.9-.11.566-.265 1.271-.265 1.271z"/>
			<path d="m73.326 62.668c-3.313-.05-5.268.4-7.041 1.641-2.166 1.516-2.684 4.338-3.018 5.77-.248 1.061-1.257 5.963-1.376 6.511-.119.549-.001.802.424.794.424-.008 3.123 0 3.123 0l.9-4.182h9.37l-.9 4.182h3.07c.503 0 .75-.183.9-1.006s1.218-5.77 1.218-5.77.476-1.718.476-3.176c.001-4.578-4.746-4.728-7.146-4.764zm2.17 8.258c-.616 0-8.629 0-8.629 0s.043-.181.265-1.429c.729-4.109 3.634-4.341 5.717-4.341 3.08 0 3.894.982 3.864 2.435-.009.492-.087 3.335-1.217 3.335z"/>
			<path d="m101.119 62.932s-.192 1.09-.265 1.376-.194.847-1.165.847-6.935 0-6.935 0-2.132 10.145-2.329 11.012-.42 1.218-1.376 1.218-2.859 0-2.859 0l2.594-12.229h-6.247s.257-1.116.318-1.429c.061-.314.15-.794 1.218-.794s17.046-.001 17.046-.001z"/>
			<path d="m103.13 77.385 2.33-11.118h-3.706l-2.329 11.118z"/>
			<path d="m105.724 65.156h-3.706l.476-2.17h3.229c.286 0 .416.299.371.529s-.37 1.641-.37 1.641z"/>
			<path d="m118.853 62.668c-3.313-.05-5.268.4-7.041 1.641-2.166 1.516-2.684 4.338-3.018 5.77-.248 1.061-1.257 5.963-1.376 6.511-.119.549-.001.802.423.794s3.123 0 3.123 0l.9-4.182h9.37l-.9 4.182h3.07c.503 0 .75-.183.9-1.006s1.218-5.77 1.218-5.77.478-1.718.478-3.176c0-4.578-4.747-4.728-7.147-4.764zm2.171 8.258c-.616 0-8.629 0-8.629 0s.043-.181.265-1.429c.729-4.109 3.634-4.341 5.717-4.341 3.08 0 3.894.982 3.865 2.435-.01.492-.089 3.335-1.218 3.335z"/>
		</g>
		<g>
			<path d="m18.912 63.792c-4.755-1.407-9.939-.185-10.729.025-1.196.317-1.899.637-1.85 1.012.038.277.344.467 1.815.432 3.506-.085 6.411.033 8.248.548 2.275.634 2.553 1.805 1.428 4.107-.522 1.063-1.291 2.164-2.458 3.331-2.329 2.336-5.237 3.856-6.878 4.685-1.594.809-2.176.381-1.999-.418.217-.976 4.741-8.802 4.741-8.802.34-.595.399-1.153 0-1.32-.344-.146-.965.336-1.61 1.083-2.642 3.065-7.51 12.392-7.6 12.699-.089.292.14.329.227.331 2.061-.014 14.713-3.756 18.797-11.406 2.151-4.027 1.062-5.361-2.132-6.307"/>
			<path d="m25.214 60.113c-2.555 2.21 1.235 5.849 3.017 7.936 1.733 2.029 3.832 4.603 3.931 5.487.044.405-.036.866-.523 1.167-.793.497-4.07.974-10.848.97-1.469-.002-1.771.143-1.809.406-.02.138-.065.457 1.806.926.051.014 7.768 1.433 11.884 0 4.205-1.434 3.146-3.856 2.393-5.254-1.162-2.155-6.52-8.419-6.962-9.272-.413-.798.187-1.147.187-1.147s.897-1.079 8.043-1.017c1.472.013 1.777-.141 1.811-.407.029-.219-.391-.695-1.791-.995-1.321-.283-8.073-1.449-11.139 1.2"/>
			<path d="m15.998 47.102c-.569.166-1.718.483-1.621.902.062.269.29.397 1.624.395 2.983-.003 5.303.19 6.89.475 3.231.583 2.47 2.213 1.553 3.774-2.228 3.798-8.245 8.071-8.594 8.312-.459.316-.208.501.194.35 4.877-1.814 9.794-4.943 11.779-8.744 1.684-3.224.478-4.754-2.089-5.474-4.583-1.289-9.335-.108-9.736.01"/>
		</g>
	</g>
</svg>