<svg fill="none" viewBox="0 0 139.4404 22.726601" xmlns="http://www.w3.org/2000/svg">
	<g fill="#171717">
		<path d="m27.4993 1.1069h-3.4729v21.0913h3.4729z"/>
		<path d="m11.0757 22.7237c-2.0163 0-3.8913-.5161-5.5715-1.5331-1.6706-1.01-3.0188-2.3913-4.0078-4.1023-.993-1.7152-1.4964-3.6415-1.4964-5.7265s.5034-4.0113 1.4964-5.7264c.989-1.7097 2.3372-3.0896 4.0078-4.1024 1.6802-1.017 3.5552-1.533 5.5715-1.533 2.0162 0 3.9282.516 5.5947 1.5344.9505.5809 1.8091 1.2971 2.5539 2.1291l.5624.6292-2.7172 1.9829-.4567-.4829c-.4869-.5147-1.041-.9646-1.6473-1.3358-1.1535-.7037-2.462-1.0611-3.8898-1.0611-1.4059 0-2.7103.3574-3.8748 1.0625-1.1741.7107-2.1219 1.6821-2.8186 2.8853-.6927 1.1978-1.0438 2.55-1.0438 4.0168s.3511 2.8191 1.0438 4.0168c.6967 1.2047 1.6445 2.1761 2.8186 2.8867 1.1659.7051 2.4689 1.0625 3.8748 1.0625 1.4058 0 2.7377-.3574 3.8912-1.0611.6885-.4209 1.3071-.9411 1.8393-1.5454l.4554-.5175 2.7143 1.9801-.528.6265c-.7887.9355-1.7227 1.7359-2.7748 2.3789-1.6664 1.0183-3.5496 1.5344-5.5947 1.5344z"/>
		<path d="m65.8902 22.7238c-2.0971 0-4.0037-.4829-5.6647-1.435-1.6692-.9577-2.99-2.3168-3.9241-4.0417-.9286-1.711-1.399-3.6897-1.399-5.8837 0-2.0685.4375-3.9823 1.3016-5.6892.8696-1.7194 2.1095-3.1089 3.6828-4.1272 1.5828-1.0253 3.4125-1.5441 5.4383-1.5441 2.0259 0 3.7376.4623 5.2985 1.373 1.5732.919 2.8227 2.285 3.7143 4.0609.8778 1.7511 1.3222 3.9216 1.3222 6.4537v.7617h-17.005c.1316 1.0873.4526 2.0987.9532 3.0095.55 1.0031 1.3113 1.7593 2.5457 2.5306 1.063.6651 2.3194 1.0018 3.7362 1.0018 1.1439 0 2.3304-.247 3.5264-.7327 1.1151-.454 2.521-1.7869 3.1423-2.601l2.4908 2.503-.4293.5327c-.945 1.1729-2.237 2.1167-3.8391 2.8053-1.5842.6802-3.2287 1.0252-4.8897 1.0252zm6.0104-13.3047c-.3183-1.8531-1.0013-3.3061-2.0341-4.3231-1.1686-1.1494-2.6966-1.7317-4.5427-1.7317-1.2701 0-2.4031.3077-3.3646.9134-.9752.6155-1.7611 1.4448-2.333 2.4659-.454.8099-.7585 1.7082-.9067 2.6755h13.1797z"/>
		<path d="m128.3644 22.7237c-2.016 0-3.89-.5161-5.571-1.5331-1.671-1.01-3.019-2.3913-4.008-4.1023-.993-1.7152-1.496-3.6415-1.496-5.7265s.503-4.0113 1.496-5.7264c.989-1.7097 2.337-3.091 4.008-4.1024 1.68-1.017 3.555-1.533 5.571-1.533 2.017 0 3.93.516 5.595 1.5344 1.654 1.0114 2.994 2.3899 3.985 4.0996.993 1.7179 1.496 3.6442 1.496 5.7264 0 2.0823-.503 4.0099-1.496 5.7265-.989 1.7097-2.331 3.0895-3.984 4.0996-1.666 1.0183-3.549 1.5344-5.596 1.5344zm0-19.4024c-1.415 0-2.7.3588-3.82 1.0653-1.133.7147-2.04 1.6903-2.699 2.8977-.66 1.2088-.994 2.5817-.994 4.0789s.341 2.7791 1.013 3.9851c.675 1.2129 1.602 2.2064 2.753 2.9515 1.133.7341 2.394 1.1053 3.749 1.1053s2.7-.3588 3.821-1.0667c1.132-.7147 2.038-1.6958 2.698-2.9156.661-1.224.997-2.59.997-4.0596s-.341-2.7791-1.014-3.9864c-.676-1.213-1.596-2.2065-2.735-2.953-1.117-.7313-2.385-1.1025-3.766-1.1025z"/>
		<path d="m47.3674 22.198v-12.7155c0-1.108-.262-2.1402-.7791-3.0702-.5212-.9355-1.2317-1.7028-2.1095-2.2782-.8531-.5574-1.8201-.8417-2.8762-.8417s-2.0231.2829-2.8763.8417c-.8778.5754-1.5869 1.3413-2.1095 2.2782-.5171.9287-.779 1.9622-.779 3.0688v12.7155h-3.4784v-12.7155c.0412-1.7414.4952-3.48 1.2454-4.7784.8243-1.4255 1.9422-2.5749 3.322-3.418 1.3949-.8514 2.9681-1.2833 4.6758-1.2833 1.7076 0 3.2822.4319 4.6758 1.2833 1.3798.8431 2.4976 1.9939 3.322 3.418.7776 1.3453 1.2207 3.0384 1.2481 4.766l-.0027 12.7279h-3.4798z"/>
		<path d="m109.8974 22.198v-12.7155c0-1.108-.262-2.1402-.779-3.0702-.521-.9355-1.232-1.7028-2.11-2.2782-.853-.5574-1.82-.8417-2.876-.8417s-2.023.2829-2.876.8417c-.878.5754-1.588 1.3427-2.11 2.2782-.493.8886-.762 1.9401-.776 3.044l-.003 12.7417h-3.478v-.7603l-.001-11.9897c-.006-1.0942-.267-2.1153-.78-3.0343-.521-.9356-1.231-1.7028-2.109-2.2782-.853-.5574-1.82-.8417-2.876-.8417s-2.023.2829-2.877.8417c-.877.5754-1.586 1.3413-2.109 2.2782-.517.9286-.779 1.9622-.779 3.0688v12.7155h-3.4785v-12.7155c.0412-1.7414.4955-3.48 1.2455-4.7785.826-1.4254 1.942-2.5762 3.322-3.4193 1.393-.8514 2.967-1.2833 4.676-1.2833s3.282.4319 4.675 1.2833c1.12.6844 2.069 1.5731 2.829 2.6466.758-1.0735 1.709-1.9622 2.828-2.6466 1.393-.8514 2.968-1.2833 4.676-1.2833 1.707 0 3.282.4319 4.675 1.2833 1.38.8431 2.498 1.9939 3.322 3.418.778 1.3453 1.221 3.0384 1.249 4.766l-.003 12.7279h-3.478z"/>
	</g>
</svg>