<svg viewBox="0 0 136.392 133.98" xmlns="http://www.w3.org/2000/svg">
	<path fill="#28539c" fill-rule="evenodd" d="m 109.042,36.457 6.013,-2.828 -3.891,8.134 4.599,9.903 -6.368,-3.537 -7.778,10.254 1.414,-12.729 -7.427,-3.891 7.427,-3.183 -1.061,-10.965 z M 86.274,133.98 C 115.281,126.134 136.392,99.683 136.392,68.196 136.392,30.535 105.858,0 68.195,0 30.531,0 0,30.535 0,68.196 c 0,18.178 7.113,34.694 18.705,46.919 0,0 4.748,-6.158 6.164,-8.277 1.416,-2.123 3.535,-2.387 3.182,-5.307 -0.426,-3.527 -3.182,-7.074 -3.182,-7.074 l -0.707,2.828 c 0,0 -19.857,-20.871 -17.684,-35.01 1.418,-9.195 7.074,-10.256 7.074,-10.256 0,0 -1.414,-8.488 11.672,-14.855 C 38.31,30.799 48.212,31.86 48.212,31.86 l -5.66,4.244 c 0,0 6.809,-1.216 10.258,-0.354 l 2.828,0.708 -3.668,1.77 c 0,0 7.469,0.337 12.51,4.244 3.936,3.051 4.244,4.952 4.244,4.952 h -2.83 c 0,0 2.477,4.244 3.183,8.487 0.707,4.244 0.398,5.394 0.398,5.394 0,0 0,1.989 3.581,4.642 2.62,1.941 5.171,2.388 5.968,3.448 1.201,1.602 -2.52,4.2 -2.52,4.2 0,0 0.265,1.901 1.99,4.023 0.788,0.97 -1.99,2.652 -2.918,3.051 l 2.254,1.856 c 0,0 0.795,0.796 -0.529,1.723 -1.328,0.929 -0.796,2.919 -0.267,5.04 0.531,2.123 1.591,5.439 -5.569,6.232 -7.163,0.797 -7.561,2.123 -8.223,3.051 -0.664,0.932 -4.773,12.6 -2.652,14.459 2.916,2.549 8.042,1.795 17.905,8.486 7.426,5.037 7.779,12.464 7.779,12.464 z" clip-rule="evenodd"/>
</svg>