<svg height="157" viewBox="0 0 559 157" width="559" xmlns="http://www.w3.org/2000/svg" xmlns:xlink="http://www.w3.org/1999/xlink">
	<linearGradient id="a" x1="50%" x2="50%" y1=".94389198%" y2="100%">
		<stop offset="0" stop-color="#490d05"/>
		<stop offset=".46927771" stop-color="#440c05"/>
		<stop offset="1"/>
	</linearGradient>
	<path d="m198.149282 133.757564c2.59213 3.982436 5.183219 7.963821 7.773266 11.944156.343536.526438.730794 1.021353 1.39288 1.941831v-16.360562h4.684572v25.158699c-1.090907.616949-2.392622.728326-3.570847.305528s-2.118166-1.338577-2.578435-2.512155c-2.870081-4.413254-5.740162-8.826507-9.031855-13.167258v15.518892l.006246.015762h-4.825109v-25.18707c3.603998-.832214 4.247345-.586332 6.149282 2.342177zm213.850718 1.377304-2.9436 3.317139c-2.360094-2.795985-5.988838-4.084229-9.520897-3.380023-1.776971.49223-3.399403 1.451045-4.708539 2.782624-2.65411 3.175775-2.741279 7.845764-.20764 11.124208 3.35888 4.122057 6.965095 4.087471 14.250811-.229527l2.974135 2.914681c-3.260879 4.446643-8.850212 6.357159-14.046224 4.801206-5.416856-1.123323-9.402934-5.888114-9.679681-11.570686-.812422-6.065045 2.625041-11.883296 8.229255-13.928842 5.545671-2.214223 11.845089-.536289 15.65238 4.16922zm-51.243513-2.938695c3.067877 8.062904 6.086668 16.147915 9.243513 24.564537-1.444042.13245-2.8979.099615-4.33491-.097904-.716571-.487777-1.234082-1.229578-1.454173-2.084417-1.227151-3.022404-1.187269-3.038195-4.374793-3.038195-1.678128 0-3.374664.088429-5.034386-.028424-1.17614-.231038-2.318112.540578-2.580084 1.74333-1.472581 4.099353-1.681196 4.153043-6.221654 3.319276 3.040266-8.110277 5.994631-16.087908 9.065576-24.002376.39556-.747186 1.118113-1.250917 1.938898-1.351713 1.270101.03474 3.018791-.947462 3.752013.975886zm-318.783487-95.158173c-.077 1.274-.158 2.482-.223 3.691-.0731852 1.378-.070332 1.429037-1.3630166 1.4309273l-35.1059834.0000727v109.383c3.1.535 5.56-.766 7.844-2.717l3.53 2.45c0-.43.012-.716 0-1-.0815572-2.446244.4390285-4.875071 1.516-7.073.835-1.811 1.678-3.619 2.482-5.443.708-1.608.5-2.044-1.165-2.593-.439-.145-.887-.263-1.334-.384-.421-.115-.845-.218-1.326-.342.582-1.357 1.15-2.661 1.7-3.971.594-1.412 1.155-2.838 1.76-4.245.922-2.145.016-3.235-2.237-3.507-.8318997-.036579-1.5805205-.515819-1.962-1.256-.344-.649-.654-1.316-.994-1.967s-.7-1.289-1.047-1.928c.9825066-1.124006 2.6152172-1.412009 3.923-.692.812.391 1.662.708 2.508 1.024.9232492.373237 1.9768917.209218 2.743-.427.5835778-.447663 1.111051-.964056 1.571-1.538.4984284-.697878 1.319784-1.09157 2.176-1.043 2.6766703.073719 5.3367737.445684 7.931 1.109.7837981.174891 1.383113.807831 1.515 1.6.142.614.238 1.238.395 1.847.0327421.310473.192033.593713.4403275.782962s.5636267.267764.8716725.217038c.3021617.003048.5922711-.118341.8022224-.335669s.3212536-.511455.3077776-.813331c.142-1.716.243-3.436.343-5.156.141-2.433.269-4.867.4-7.3-.013467-.715409.4282069-1.360655 1.1-1.607.962-.413 1.889-.906 2.96-1.427 0 .315.009.55 0 .783-.2 4.639333-.4 9.278333-.6 13.917-.017.378 0 .76-.046 1.134-.0713986.226534-.0184804.473922.1393442.651424.1578246.177501.397326.25899.6306558.214576.356.013.71.1 1.066.12.8507331-.02131 1.6078854.536267 1.84 1.355.0499525.271366.2333466.499262.4877479.606102.2544012.106841.5455215.078226.7742521-.076102.5816626-.243312 1.1394038-.54026 1.666-.887 4.137-2.709 8.3-5.384 12.382-8.17 3.4820559-2.354281 7.4645954-3.865195 11.632-4.413 2.438-.35 4.872-.731 7.3-1.161 2.0681544-.412068 4.04531-1.192836 5.837-2.305 14.316-8.41 28.48-17.0663333 42.492-25.969 1.479133-1.0235442 3.205863-1.631353 5-1.76.419614-.0360919.841822-.0290551 1.26.021.296441.021267.571661.1615825.763.389-.021097.3135366-.153357.6092616-.373.834-.204388.2120488-.437691.3941794-.693.541-10.323333 7.2-20.648333 14.3946667-30.975 21.584-2.230489 1.47491-3.826344 3.733088-4.472 6.328-.9242141 3.327295-3.1575601 6.137919-6.19 7.79-2.044 1.247-4 2.645-5.977 3.992-.338629.250107-.6563441.527355-.95.829-.8448133.748516-1.1642759 1.927344-.813 3 .1874996.731465.4350052 1.446221.74 2.137 1.0407056 2.212061 1.5867134 4.624392 1.6 7.069.0013213.105001.0086667.20984.022.314.0255612.070278.0591147.137385.1.2.44-.37.876-.714 1.287-1.085 1.28198-1.326543 2.9336674-2.236365 4.74-2.611 2.2982917-.474257 4.6717648-.447995 6.959.077 1.004728.299144 1.945289.781969 2.774 1.424.794542.533278 1.205891 1.480338 1.053283 2.425004s-.84124 1.714028-1.763283 1.969996c-.55582.179697-1.139507.257612-1.723.23-.557793.05227-1.053166-.355553-1.109-.913.147599-.419615.444466-.770232.834-.985.408105-.115847.698701-.476587.725-.9-.059913-.45052-.384348-.821078-.823-.94-1.9490929-.830889-4.2112938-.064479-5.254 1.78-1.2412495 2.22671-1.1327726 4.960636.281 7.082 1.2264666 2.192393 3.591204 3.498426 6.1 3.369.105494.002442.210979-.00526.315-.023.233411-.084298.493116-.051249.697973.088823.204858.140072.329888.370086.336027.618177 1.089 3.788 4.972 5.662 8.931 4.355.458-.151.9-.34 1.383-.522 1.909 2.144 4.027 3.86 7.282 3.211v-.861c-.004-19.122667-.013667-38.246-.029-57.37-.076184-.8481224.35513-1.6613453 1.1-2.074 1.357-.835 2.651-1.775 4.055-2.727v68.350447h-.564c-5.1 0-10.2-.051447-15.3 0-2.518243.025017-4.924583-1.039241-6.6-2.919447-.105951-.161356-.272256-.273411-.46159-.311014-.189335-.037604-.385839.002393-.54541.111014-1.815409.989512-3.7968145 1.637892-5.846 1.913-3.4177307.464227-6.8596246-.664275-9.339-3.062-1.1083202-.990818-1.8827642-2.300421-2.217-3.749-.992-4.691-4.079-7.2-8.531-8.359-2.0190912-.639138-4.1721706-.727857-6.237-.257-.8629611.152895-1.6236227.657416-2.1001374 1.392952-.4765147.735535-.626052 1.635972-.4128626 2.486048.4026645 1.327374 1.7660677 2.11471 3.117 1.8.3198924-.021113.5893212-.246862.6661071-.558119.0767858-.311257-.0567368-.636413-.3301071-.803881-.0706354-.045587-.1345823-.100783-.19-.164-.2131359-.247364-.351825-.550053-.4-.873.1939051-.353265.5207271-.614578.908-.726 1.6635065-.320193 3.3126767.617645 3.888 2.211.5535517 1.510559.3363763 3.196094-.582 4.517-1.0947304 1.632038-2.8192724 2.734875-4.76 3.044-1.9573173.433406-4.0061924.107059-5.732-.913-.9892381-.558074-1.9473256-1.169648-2.87-1.832-3.1094698-2.255644-6.9992174-3.157385-10.784-2.5-.5.073-1 .161-1.62.263.275.278.5.5.72.728 1.3063284 1.220137 1.849695 3.051895 1.42 4.787-.1838468.809184-.6686322 1.518129-1.356 1.983-2.2605323 1.663322-5.3231636 1.72419-7.648.152-.7160345-.516517-1.4033871-1.071674-2.059-1.663-.271-.225-.522-.473-.825-.751-1.2563494 1.755952-3.0549552 3.050358-5.119 3.684-.5915952.213658-1.2141358.329181-1.843.342-11.044.018-22.0876667.020333-33.131.007-.042 0-.084.008-.126.012v-119.785h-.02c.211 0 .421-.014.632-.014zm431.027 93.962v25h-5v-25zm-306 0v25h-4v-25zm81 0v4.5268l-4.638115.19898v20.27422h-4.977566v-20.299092h-4.384319v-4.700908zm197 0v4.677943h-4.440585v20.322057h-5.144424v-20.253402h-4.414991v-4.746598zm107.971127 0v4.60625c-2.450962 0-4.866636.09375-7.269477-.028125-1.767645-.09375-1.815765.84375-1.735564 2.0875.076994 1.178125-.455545 2.6 1.732356 2.5 2.390009-.103125 4.815307-.021875 7.288726-.021875h.012832v4.6875c-2.45417 0-4.812099.071875-7.157195-.025-.560521-.154419-1.16277.005099-1.565838.414744-.403068.409646-.541147 1.002536-.359002 1.541506.09945 1.4875.022457 2.984375.022457 4.6875h9.021081v4.55h-13.961503v-25zm-268.043517 0v4.601494h-8.234339v4.548568h8.294664v4.641968h-8.288631v6.752802h8.300696v4.455168h-13v-25zm26.07239 0c3.440994.217608 6.832298.196153 10.164596.717185 2.551332.486445 4.442864 2.619508 4.593168 5.179673.6867 2.71492-.397067 5.566281-2.723603 7.165725-.521739.361658-1.102484.652823-1.838509 1.075779h.009317l2.906832 5.421799 2.888199 5.40341c-1.601445.064694-3.205272.043208-4.804348-.064362-.566032-.272668-1.008889-.743593-1.242236-1.32097-1.595788-3.00243-3.34333-5.923889-5.236025-8.753341v10.065116h-4.717391zm207 .269958c-.234403.684132-.446633 1.34383-.687371 1.994366-2.591103 6.929886-5.201212 13.853663-7.766974 20.795765-.041312.578676-.331013 1.114533-.799365 1.478578-.468353.364045-1.072932.523302-1.668202.439434-1.552127-.195466-3.139099.406203-3.911995-1.890524-2.372538-7.070377-5.068173-14.049129-7.6276-21.046207-.209062-.54364-.345269-1.084226-.538493-1.725599h.01267c.130646-.062222.266227-.114307.405454-.155762 4.434651-.332904 4.434651-.332904 5.888583 3.625286 1.404306 3.801409 2.804389 7.604855 4.200248 11.410336.240738.650536.500482 1.288855.931277 2.39446 1.827709-4.886653 3.484368-9.296858 5.131524-13.71928 1.552128-4.175034 1.542625-4.178089 6.430244-3.600853zm-159.535 6.730948-3.465 7.999094h7c-1.044529-2.367013-2.029967-4.59682-3.154536-7.140036zm-327.986 3.722094h-1.217v1.177h1.217zm8.181-1.6h-1.595v1.8h1.595zm277.34-4.062477v4.903178c3.816221.204687 5.056275-.434184 4.998056-2.481052-.055307-1.978638-1.551522-2.710549-4.998056-2.422126zm-224.955-21.432523c-2.8364123 1.015397-5.4935216 2.474917-7.872 4.324-1.9066146 1.367488-2.5994918 3.880678-1.663 6.032.511 1.442 1.08 2.865 1.646 4.287.4837555 1.151246.5644504 2.432145.229 3.635-.4 1.455-.792 2.915-1.126 4.387-.0606656.510863-.0677039 1.026672-.021 1.539.703164-.297345 1.2415028-.886815 1.474-1.614 1.8889894-3.264244 2.035472-7.252993.391-10.647-.4055129-.898567-.7653061-1.817074-1.078-2.752-.3959715-.940293-.1999148-2.025663.5-2.768.7008747-.782155 1.4611375-1.508985 2.274-2.174 1.645-1.31 3.349-2.545 5.028-3.813.164-.123.319-.258.568-.46-.1171937-.004853-.2345657.003195-.35.024zm-62.59 21.235c-.1455114.030378-.2654366.132955-.318.272-.03.618-.015 1.238-.015 1.869h2.114v-2.154c-.621 0-1.2-.015-1.781.013zm6.43-.875v2.067l.004-.005c2.059.3 2.231.161 2.139-1.613.0117366-.061172.0086505-.124265-.009-.184-.0628623-.112549-.1608573-.201412-.279-.253-.617-.023-1.235-.012-1.855-.012zm38.183-1.318c-1.0015597.380984-2.0226676.708446-3.059.981-4.2643881.991732-8.5966958 1.664592-12.961 2.013-1.054.106-2.109.2-3.164.305.0641094.090675.1700789.14234.281.137 4.7802444.05154 9.5583253-.227794 14.3-.836 2.4291282-.259918 4.8081924-.868155 7.064-1.806.426-.196.83-.44 1.405-.749h.004c-.4540077-.055503-.9049172-.133937-1.351-.235-.8374918-.217892-1.7236674-.15105-2.519.19zm-29.24.347h-2.23v2.077h2.23zm30.236-5.822c-3.9548342 1.558288-8.0728912 2.665293-12.276 3.3-2.399.427-4.805.795-7.207 1.191h.004v.051c.1359025.013645.2724146.020321.409.020011 4.8822442-.167798 9.7431645-.726924 14.536-1.672011 2.3901088-.397241 4.6975583-1.189033 6.828-2.343.222-.134.436-.282.654-.423l-.054-.175c-.972 0-2.072-.3-2.894.051zm-15.766-27.998 2.785.19c-.794 3.245-1.569 6.418-2.349 9.591-.26 1.058-.51 2.12-.818 3.164-.089969.38436-.2934469.732781-.584 1-1.3.952-2.654 1.835-4.109 2.826.047-.3.059-.451.1-.6 1.2773333-5.124 2.5563333-10.247667 3.837-15.371.2-.8.3-.86 1.138-.8zm365.355903-63.1877374c5.222058.1124986 10.431697.0374995 16.203282.0374995h.006209l-29.575103 36.1558237 29.711709 37.6558062c-.9966.062499-1.611325.134373-2.229154.134373-5.100976 0-10.205057-.068749-15.306032 0-1.442316.086617-2.820607-.609416-3.613838-1.824978-8.3288-10.9582044-16.688646-21.8955754-25.079539-32.8121134-.37877-.4937441-.801005-.9562387-1.480928-1.7624792v36.1245736h-15.290509v-73.4491335h15.212892v35.1902101c2.607924-3.1718376 4.840183-5.8718058 7.056919-8.5842738 6.752661-8.2780274 13.527055-16.5435549 20.230041-24.8622069.945732-1.3477788 2.517905-2.1058871 4.154051-2.0031013zm-222.338711.3258647c15.747198.6583629 25.134296 8.9924251 28.309708 24.5497572 1.979762 9.0020344 1.819773 18.3491478-.466882 27.2768147-3.271261 12.2280758-11.971951 20.2813198-24.512818 21.0800918-13.76527.851815-27.595472.549155-41.6452.758209v-73.7491182c.184891-.1067249.3852-.1835804.59365-.2277748 12.571786.0624041 25.159032-.2277748 37.721542.3120203zm162.034579-.2790738c.512034.0093785 1.017898.0844062 1.64406.1344247h.006169v12.5952819h-2.439871c-7.47384 0-14.94768-.1094155-22.418435.0593969-10.317786.2344617-14.926088 4.0640026-17.069843 14.2052521-1.395289 6.6381822-1.55326 13.4822911-.465766 20.1793359 1.570031 9.7411016 6.16908 13.6112825 16.098213 13.8051041 7.988958.1563078 15.98717.0625232 23.979213.0781539h2.267136v12.673436c-.319933.096906-.648463.161823-.980883.193821-10.394899-.062523-20.808306.218831-31.181613-.312615-12.584832-.16413-23.370521-9.160645-25.950233-21.6455031-2.786619-10.8125044-2.397465-22.2143719 1.119688-32.8058793 3.14198-10.3339017 12.239521-17.6390411 22.8842-18.375544 6.074085-.5874984 12.17455-.8494183 18.275899-.7846651 4.740937-.1125416 9.488044-.0250092 14.232066 0zm172.116849.0837749c3.937067.1006346 7.846043.6940932 11.635689 1.7665244 6.666848 1.7505594 11.385406 7.6838657 11.591935 14.5761707 1.089443 7.4073417-2.045803 14.8034232-8.125918 19.169134-.453176.359558-.8876.7441288-1.41266 1.1881048.500057.3783176.887601.7284959 1.328275 1.0005094 7.047672 4.3240764 9.088527 10.9993497 8.385323 18.6720059-.909478 9.9456884-7.450842 16.1832384-17.727003 17.1180894-3.859811.350179-7.757126.331419-11.638815.350179-9.419814.043772-18.839628 0-28.259442 0h-2.244004v-12.6564437h2.256505c10.076138-.0646163 20.152277-.1375701 30.228415-.2188614.920239-.0451881 1.833961-.1792119 2.728433-.4002038 2.927868-.4051962 5.442425-2.2865208 6.658395-4.9816343 1.215969-2.6951135.96286-5.8261317-.670218-8.2907476-1.259369-2.1508943-3.512743-3.5269367-6.000678-3.6643656-3.010315-.3260188-6.035635-.4940428-9.063524-.5033812-5.994427-.0719116-11.988855-.0218862-17.983282-.0218862h-2.281508v-12.65957h4.800543c7.244568-.0781647 14.486011-.1500764 21.73058-.2563805.788887-.0375511 1.572566-.1485029 2.340889-.3314187 2.680865-.2582404 5.067367-1.8082244 6.394207-4.1529038 1.326839-2.3446794 1.427255-5.189371.269046-7.6218407-1.40153-3.3251127-4.736243-5.4145107-8.338442-5.2245348-2.353391-.2344944-4.738035-.221988-7.107053-.2282412-7.838385-.0250127-15.676771 0-23.515157 0h-2.447151v-12.6220509c.709455-.0375191 1.397033-.1094307 2.087736-.1094307 11.46067 0 22.924465-.1313168 34.378884.1031775zm-463.05762 52.5271543c1.736-.0019827 3.475.1700173 5.312.2670173l.004.004c-1.437 7.2-5.481 12.29-11.727 15.943.117-.358.194-.587.267-.817.6042513-1.639363.0230983-3.479886-1.413-4.475-1.656929-1.1468526-3.6269244-1.7554492-5.642-1.743-4.244532-.0984254-8.4628608.6904038-12.385 2.316-5.39888 2.098586-10.5027832 4.888523-15.184 8.3l-1.118.789c.06-.251.087-.389.127-.522.789-2.653 1.6-5.3 2.357-7.962.1526679-.677395.6303185-1.235527 1.276-1.491 7.3998739-3.3995947 15.0704775-6.1758903 22.932-8.3 4.94756-1.4048842 10.0524458-2.1806629 15.194-2.3090173zm414.591-52.6669827v73h-16v-73zm-192.05376.0333471h2.016755v12.7779725h-2.158606c-7.733977 0-15.467954 0-23.201932.0370197-1.688645-.0106705-3.373948.1516226-5.029552.4843413-5.629847.914452-10.075376 5.2740763-11.101403 10.8868819-.410135 1.6905671-.659917 3.4181539-1.02688 5.4758332h42.481369v12.6484035h-42.481369c-.028255 3.651376.656829 7.2731034 2.016755 10.6616786 1.521589 3.3974075 4.65171 5.7993026 8.326052 6.3889862 2.74908.4953367 5.53324.770771 8.326052.8236887 7.212829.1141442 14.425657.0462747 21.641569.0524446h2.24495v12.4633047c-.192856.104853-.400971.178764-.616745.219034-10.524746-.04936-21.067995.262223-31.568072-.265308-12.730144-.157528-23.60873-9.216618-26.072878-21.7120647-2.641919-10.4392531-2.273044-21.4137301 1.063884-31.6518584 3.570951-11.1059152 11.748985-16.9889653 23.023076-18.5098587 5.423265-.5580696 10.873623-.8104082 16.32523-.7558192 5.263915-.1141442 10.52783-.0246799 15.791745-.0246799zm-205.11624 15.3046529c1.748.237 3.47.665 5.2 1.021.9903206.2241742 1.8812243.7634885 2.539 1.537 3.819737 3.9791564 6.495688 8.9147752 7.746 14.287 1.347184 5.893292.255147 12.0809046-3.028 17.157-3.0232591 4.7362465-7.0155631 8.7783094-11.714 11.86-2.112 1.454-4.318 2.774-6.483 4.151l-.2502627.121667-.2487373.103239.2304907-.429577c.3828704-.712385.7280093-1.352662 1.0655093-1.994329.7498848-1.2735285 1.1510133-2.722144 1.163-4.2-.0193529-2.2395356-1.2247273-4.3008896-3.167-5.416-1.9231851-1.1475686-4.0817263-1.8437178-6.313-2.036-5.2762348-.4772959-10.5951265-.071738-15.738 1.2-10.424 2.258-20.273 6.13-29.911 10.594-.9511314.460116-1.9261906.869033-2.921 1.225.185-.165.361-.342.555-.5 5.5146981-4.2254257 10.6929321-8.8727303 15.488-13.9 3.0249296-3.0812278 5.5473118-6.6182994 7.475-10.482 1.0732085-2.1004993 1.7151497-4.3945552 1.888-6.747.0621341-1.130482-.0174848-2.264296-.237-3.375-.5694724-2.7594005-2.9019042-4.8051785-5.712-5.01-2.2492015-.1785746-4.5124263-.027648-6.718.448-1.136.178-2.262.414-3.444.493 1.491-.759 2.967-1.548 4.474-2.273 8.0312447-3.8715235 16.6153211-6.4715422 25.445-7.707 7.4966887-1.0854519 15.1075052-1.1285269 22.616-.128zm88.537862-2.2774721c-.138472.0528626-.263952.1351541-.367862.2412481v47.5478023c7.369716 0 14.652143.4010358 21.89716-.1065251 7.762518-.545158 11.322677-4.0134907 12.878298-11.5485767 1.6093-7.8936214 1.632618-16.0308826.068585-23.9336888-1.499507-7.7638017-5.17813-11.3417926-13.018585-11.9433462-7.117201-.545158-14.302986-.2130503-21.457596-.2569136zm-126.360862 17.7414721c.1834518 2.8872876-.4287691 5.769568-1.77 8.333-1.6847128 3.3953879-3.8697419 6.5185434-6.482 9.265-2.8747918 3.1608635-5.9497987 6.1336597-9.206 8.9-.0633333.0506667-.1297778.0968889-.202.1478519l-.11.0790537-.1085195-.7882376c-.2436055-1.8491211-.4177305-3.667043-.8184805-5.433668-1.6-7.071-7.465-9.518-12.971-9.069-1.865.153-3.72.441-5.58.666-.185.022-.373.03-.677.055.0852705-.0909047.1782879-.1742188.278-.249 6.1689302-3.4485506 12.5333601-6.5351038 19.061-9.244 5.4403632-2.1137496 11.1478468-3.4619529 16.959-4.006 1.424-.145 1.474-.087 1.627 1.344zm47.954-12.83c11.879 3.793 21.62 10.684 30.607 18.981l.004.004c-1.216.212-2.348.343-3.446.612-3.909738 1.010203-7.512648 2.96238-10.494 5.686-1.8 1.581-3.419 3.357-5.113 5.051-.161769.1845084-.310147.3803404-.444.586l-.132-.115c.051-1.1.144-2.2.144-3.3-.130948-4.7793557-1.29062-9.4743233-3.4-13.765-2.045047-4.4004186-4.409708-8.6451113-7.075-12.7-.189-.295-.373-.594-.651-1.04zm26.962 20.864c0 .943.016 1.789-.013 2.632-.033137.1841157-.14196.3458995-.3.446-1.558.987-3.129 1.957-4.7 2.928-.06742.0117155-.136265.012728-.204.003h.004c0-1.079-.017-2.123.016-3.165.02532-.2233898.150295-.4233506.34-.544 1.578-.77 3.172-1.507 4.857-2.3zm-.092-38.769-.008.001v31.614c-.223-.155-.393-.262-.551-.385-1.263-.98-2.5-2-3.8-2.931-.543176-.3703384-.844101-1.0050722-.787-1.66.015-2.394 0-4.789 0-7.183v-14.323h-.9c-1.854 0-3.708.012-5.561-.015-.243777-.0162591-.465853-.1458031-.6-.35-.583-1.5-1.12-3.029-1.667-4.548-.010516-.0729563-.010516-.1470437 0-.22zm-80.785 25.599-.007.005c-.052.932-.088 1.805-.162 2.675-.0458894.1548128-.1646818.2773408-.318.328-.957.208-1.921.385-2.987.592.1-1.075.166-2.051.285-3.022.0666436-.1828368.2206787-.3199656.41-.365.899-.099 1.797-.145 2.779-.213zm.6044396-29.4656524c.335865.2207291.5261795.6057689.4975604 1.0066524.1123045 1.0648078.1603915 2.1354117.144 3.206-.156 4.008-.364 8.014-.56 12.02-.1 2.1-.232 4.193-.317 6.291.0448531.5607178-.3042048 1.0778714-.841 1.246-.781.286-1.542.635-2.403.997.087-1.606.166-3.108.25-4.609.238-4.235.45-8.471.728-12.7.142-2.153.375-4.3.643-6.443.0920502-.4416732.3575777-.8278951.737-1.072.3566292-.1853167.7855746-.1633815 1.1214396.0573476zm54.6915604-.7933476c1.523572.1862453 3.024066.5280282 4.478 1.02 3.710596 1.2145744 6.460445 4.360328 7.168 8.2.377121 2.1055923.075988 4.2765487-.86 6.2-1.289487 2.8200814-3.158367 5.3370211-5.485 7.387-.278154.1992545-.627477.2718789-.962.2-.576615-.1718356-1.140078-.385056-1.686-.638.12-.572.265-1.114.344-1.666.458-3.188-1.085-5.389-4.24-6.09-2.3243271-.4400343-4.712387-.4199894-7.029.059-3.3913255.6368185-6.7203736 1.5693803-9.949 2.787-.6515278.2282593-1.33767.3419396-2.028.336-4.2748493-.0989126-8.5514637.0942033-12.8.578-.1774213.0099971-.3551282.0131811-.5327285.0095524l-.2622715-.0106468.0182559-.3893655c.0112527-.3936602.0014968-.7877341-.0292559-1.1805401-.2183731-1.35867-1.113954-2.5124466-2.376-3.061-1.483656-.7693806-3.1206187-1.1971571-4.791-1.252-3.365-.084-6.734-.009-10.1 0-.2626721.015271-.5257615-.0217791-.774-.109.277-.165.549-.34.833-.494 11.9523364-6.1159258 24.8844792-10.0887462 38.209-11.738 4.2603436-.6036066 8.5808879-.653353 12.854-.148zm-35.91-5.584c1.0519362.1915677 1.834746 1.0802969 1.892 2.148.1184581 1.7928771-.0369351 3.5923751-.4599898 5.3366918l-.1230102.4732138-.5201263-.2306751c-.7019097-.2985545-1.4211349-.5551047-2.1538737-.7682305-1.2008854-.1639311-2.42193.0827446-3.465.7-2.2266005 1.1626983-4.2139882 2.7348312-5.858 4.634-1.518 1.631-3.3 1.822-5.38 1.3 1.64-2.516 1.22-4.882-.531-7.192.654-.1 1.211-.162 1.759-.269 1.6571948-.3364298 3.2093748-1.065879 4.526-2.127 1.077-.844 2.115-1.738 3.214-2.551 1.9988279-1.5903514 4.6369252-2.1306041 7.1-1.454zm20.255-25.822c.3284712-.01090223.6386902.15090281.8177227.4265105.1790325.27560768.2007617.62481326.0572773.9204895-2.582 6.266-3.429 13-5.318 19.457-.341 1.164-.575 2.359-.873 3.6.477.136.918.25 1.351.39.3426247.1003073.6769593.2270201 1 .379.458352.1589214.828918.5029896 1.0213467.9483139.1924288.4453243.1890376.9509828-.0093467 1.3936861-.4429152 1.1086155-.9507961 2.190158-1.521 3.239-.155438.221501-.389839.3750247-.655.429-3.173.746-6.352 1.468-9.53 2.1933155-.0877957.0018592-.1755087-.0072145-.261-.0273155h.002c-.093-.966-.246-1.939-.266-2.915-.0311947-1.257883.0021826-2.5165382.1-3.771.0375571-1.1916975.9305096-2.181894 2.112-2.342.8272368-.1498406 1.6616923-.2566509 2.5-.32.2976739.0170392.5559753-.2033545.586-.5 1.69-6.842 3.4-13.677 5.082-20.522.0585742-.36358892-.0121983-.7362061-.2-1.053-.636-1.1-.4-1.743.858-1.881 1.0458883-.09702323 2.0977645-.11206914 3.146-.045zm39.913 7.433c1.729213.86206954 3.116276 2.2833156 3.936 4.033.555586 1.091673.546638 2.3851187-.024 3.469-1.054 1.931-2.2 3.81-3.288 5.725-.230062.3055842-.340652.6846457-.311 1.066.249627.2842315.602411.4570239.98.48 2.035.332 3.968-.3 5.915-.719 2.591-.559 5.17-1.17 7.755-1.757.111-.031.237-.043.431-.074l.004.004c-.217.61-.409 1.155-.6 1.7-.889 2.49-1.789 4.975-2.66 7.47-.149458.5464829-.623573.9419775-1.188.991-2.737.566-5.452 1.238-8.173 1.88-2.204887.6322768-4.556242.5244391-6.694-.307-.71108-.310883-1.372774-.7242732-1.964-1.227-1.170234-.8432556-1.510174-2.436563-.786-3.684.515468-1.0090491 1.082896-1.9906995 1.7-2.941.463-.751.99-1.462 1.463-2.207.261885-.2865482.393037-.6689691.362133-1.0559298-.030903-.3869607-.221088-.7437187-.525133-.9850702-1.881188-2.1550601-4.57111-3.4344926-7.43-3.534-3.141882-.0503019-6.271733.4000024-9.272 1.334-2.89.752-5.775 1.522-8.674 2.232-3.963.971-7.486-.158-10.764-2.35-.0389893-.0477273-.0700523-.1014122-.092-.159.3-.167.6-.36.914-.5 2.4323953-.9835597 3.9173389-3.4611868 3.638-6.07-.1220382-1.54459969-.3354115-3.08062002-.639-4.6-.04-.265-.133-.521-.229-.888.239.132.394.208.54.3.267.168.542.327.791.519 2.3286688 1.74571947 5.3153964 2.36000836 8.144 1.675 4.014-.739 8.029-1.48 12.054-2.154 5.01823-.9218862 10.200829-.09823189 14.686 2.334zm-46.182 19.887c-.3427072.6726577-.6222395 1.3756731-.835 2.1-.177.545.12.8.682.64.9519846-.4031686 1.6359892-1.2520044 1.8331285-2.2578277l.0318715-.2022667-.1301462-.1510268c-.1862512-.1970658-.4065558-.3597372-.6508538-.4798788-.3496522-.0473501-.6996364.0845989-.931.351zm-5.105-.88c-.2669789-.0339359-.5345428.0583269-.723862.2496059-.1893191.1912789-.2788215.4597788-.242138.7263941-.047.352-.073.706-.107 1.059h.002c-.0071445.2927629.0309715.5848729.113.866.1130474.3203779.3387369.5887174.635.755.322109.0232436.6327387-.1244764.818-.389.3187879-.7349352.5319034-1.5113083.633-2.306.0243942-.2927923-.0937625-.5794051-.31741-.7699417s-.5253918-.2616586-.81059-.1910583z" fill="url(#a)" fill-rule="evenodd"/>
</svg>