<svg viewBox="0 0 692.09998 343.50681" xmlns="http://www.w3.org/2000/svg">
	<style id="style1" type="text/css">
		.st0{fill:#d82128}
	</style>
	<path id="path1" d="m 157,322.80682 h -21.2 l 16.6,-72.7 23.1,-8 z" class="st0"/>
	<path id="path2" d="m 111.5,281.20682 c -5.1,0 -8,3.9 -9.2,8.5 10,0 13.1,-2.9 13.1,-5.4 0,-1.7 -1.6,-3.1 -3.9,-3.1 z m -11.5,21.2 c -0.1,0.6 -0.2,1.3 -0.2,1.9 0,3.2 2.4,4.3 8.6,4.3 6.2,-0.1 12.3,-1.1 18.2,-2.8 v 14.9 c -5.9,2 -15.2,3.1 -22.7,3.1 -17.5,0 -25.9,-4.5 -25.9,-19.3 0,-14.6 7.2,-37.3 35.1,-37.3 17.7,0 23,7.5 23,15.4 0,10.2 -9.4,18.9 -36.1,19.8 z" class="st0"/>
	<path id="path3" d="m 195.4,264.60682 c -7.2,0 -11.9,-4.3 -11.9,-10.3 0,-7.8 5.8,-12.1 13,-12.1 7.2,0 11.9,4.3 11.9,10.2 0.1,7.9 -5.6,12.2 -13,12.2 z" class="st0"/>
	<path id="path4" d="m 180.6,269.10682 h 21.8 l -11,53 h -22 l 7.8,-37.2" class="st0"/>
	<path id="path5" d="m 265.1,269.10682 c -7.6,18.2 -16.4,36 -26.4,53 h -27 c -3.5,-17.4 -5,-35.2 -4.5,-53 h 22 c -0.4,8.6 -0.3,17.3 0.2,25.9 0.1,2.2 0.3,4.3 0.5,6.5 h 0.1 c 1,-2.1 2,-4.2 3,-6.5 3.8,-8.7 7.2,-18.2 9.8,-25.9 z" class="st0"/>
	<path id="path6" d="m 294.6,281.20682 c -5.1,0 -8,3.9 -9.2,8.5 10,0 13.1,-2.9 13.1,-5.4 0,-1.7 -1.6,-3.1 -3.9,-3.1 z m -11.5,21.2 c -0.1,0.6 -0.2,1.3 -0.2,1.9 0,3.2 2.4,4.3 8.6,4.3 6.2,-0.1 12.3,-1.1 18.2,-2.8 v 14.9 c -5.9,2 -15.2,3.1 -22.6,3.1 -17.5,0 -25.9,-4.5 -25.9,-19.3 0,-14.6 7.2,-37.3 35.1,-37.3 17.7,0 23,7.5 23,15.4 -0.1,10.2 -9.5,18.9 -36.2,19.8 z" class="st0"/>
	<path id="path7" d="m 361.5,287.70682 c -1.7,-0.4 -3.5,-0.6 -5.3,-0.6 -4.9,0 -8.7,4.6 -10.5,13 l -4.5,21.9 h -22 l 11,-53 h 16.5 l 0.5,7.1 c 5.1,-5.8 9.1,-8.9 15.2,-8.9 1.7,-0.1 3.4,0.1 5.1,0.4 z" class="st0"/>
	<path id="path8" d="m 430.3,269.10682 c -9.7,23.6 -18.3,40.9 -27,52.9 -12.5,17.5 -23.5,21.5 -34.9,21.5 -3,0 -5.9,-0.6 -8.6,-1.6 l 3.5,-15.3 h 7.5 c 3.8,0 5.4,-1.4 7.9,-4.5 -4.2,-14.2 -6.3,-34.2 -6,-53 h 22.2 c -0.4,8.5 -0.4,17.1 0.2,25.6 0.1,2.3 0.3,4.5 0.5,6.8 h 0.1 c 1,-2.1 2,-4.2 3,-6.6 3.7,-8.4 6.9,-17 9.6,-25.8 z" class="st0"/>
	<path id="path9" d="m 514.9,322.00682 h -23.2 l 5.5,-26.7 h -19.6 l -5.6,26.7 h -23.1 l 14.7,-70.6 h 23.2 l -5.3,25.2 h 19.6 l 5.3,-25.2 h 23.2 z" class="st0"/>
	<path id="path10" d="m 560.6,281.20682 c -5.1,0 -8,3.9 -9.2,8.5 10,0 13.1,-2.9 13.1,-5.4 0,-1.7 -1.6,-3.1 -3.9,-3.1 z m -11.5,21.2 c -0.1,0.6 -0.2,1.3 -0.2,1.9 0,3.2 2.4,4.3 8.6,4.3 6.2,-0.1 12.3,-1.1 18.2,-2.8 v 14.9 c -5.9,2 -15.2,3.1 -22.7,3.1 -17.5,0 -25.9,-4.5 -25.9,-19.3 0,-14.6 7.2,-37.3 35,-37.3 17.7,0 23,7.5 23,15.4 0.1,10.2 -9.3,18.9 -36,19.8 z" class="st0"/>
	<path id="path11" d="m 627.5,287.70682 c -1.7,-0.4 -3.5,-0.6 -5.3,-0.6 -4.9,0 -8.7,4.6 -10.5,13 l -4.5,21.9 h -22 l 11,-53 h 16.5 l 0.5,7.1 c 5.1,-5.8 9,-8.9 15.2,-8.9 1.7,-0.1 3.4,0.1 5.1,0.4 z" class="st0"/>
	<path id="path12" d="m 663.6,283.50682 c -8.8,0 -11.2,12.6 -11.2,18.3 0,4.5 2,5.9 6,5.9 8.7,0 11,-12.6 11,-18.4 0.1,-4.5 -1.9,-5.8 -5.8,-5.8 z m -8.2,40.3 c -17.2,0 -25.5,-6.9 -25.5,-20.6 0,-15.3 8.1,-36 36.6,-36 17,0 25.6,7.1 25.6,20.6 -0.1,15.6 -8.2,36 -36.7,36 z" class="st0"/>
	<path id="path13" d="m 30.9,305.30682 h -4.3 l 7.8,-37.2 h 6 c 9.2,0 12.5,5.1 12.5,12 0,14 -8.4,25.2 -22,25.2 z m 20.5,-35.9 14.7,-13.2 c -5.7,-3.2 -13.6,-4.7 -23.4,-4.7 h -28 l -14.7,70.5 h 29.2 c 34,0 47.6,-22.2 47.6,-45.4 0,-6 -1.4,-10.8 -4.1,-14.6 z" class="st0"/>
	<path id="path14" d="m 445.8,91.506825 -0.2,0.1 -28.3,10.799995 -0.9,0.4 -6.9,29.5 c -0.4,0.8 -1.5,1.2 -2.3,0.7 -0.2,-0.1 -0.3,-0.2 -0.5,-0.3 l -20.6,-22.8 -0.1,-0.1 -116.3,46.8 c -0.1,0.1 -0.2,0.1 -0.3,0.1 -0.4,0 -0.8,-0.3 -0.8,-0.7 0,-0.2 0.1,-0.5 0.3,-0.6 l 100.6,-70.499995 -12.7,-27.2 c -0.6,-1.2 0.5,-2.6 2.1,-2.2 v 0 l 30.8,7.1 23.9,-20 v 0 c 0.7,-0.6 1.8,-0.4 2.4,0.3 0.2,0.2 0.3,0.4 0.3,0.7 l 2.3,30 27.6,15.1 c 0.8,0.4 1,1.4 0.6,2.1 -0.2,0.3 -0.6,0.6 -1,0.7 z M 431.7,5.8068245 c -35.7,-13.1 -75,-3.3 -99.2,22.0000005 l -94.6,94.899995 c -1.3,1.3 -0.7,2.9 0.9,3.1 l 25.2,1.4 c 2,0.1 2.3,1.8 1.2,2.9 l -61.6,62.2 c -1.1,1.1 0.2,2.8 1.7,2.3 l 87.9,-26 c 1.9,-0.6 3.3,1 2.5,2.3 l -11.7,19.5 c -0.6,1.1 0.5,2.6 2,2.5 l 126.8,-26.5 c 30.3,-4.5 57.3,-23.4 69.3,-52.1 C 500.2,71.406825 477.6,22.706825 431.7,5.8068245 Z" class="st0"/>
</svg>