<svg xml:space="preserve" id="layer" x="0" y="0" version="1.1" viewBox="0 0 600.09998 147.7" xmlns="http://www.w3.org/2000/svg">
	<style id="style1" type="text/css">
		.st0{fill:#455662}
	</style>
	<g id="g4" transform="translate(131.3 -201.3)">
		<path id="path1" d="m 106.8,233.1 h 73 l -4.3,20.3 h -41.4 l -2.5,11.9 h 39.6 l -4.3,20.3 h -39.5 l -2.4,11.5 h 42 l -4.3,20.3 H 88.9 Z" class="st0"/>
		<path id="path2" d="m 195.8,233.1 h 47.4 c 24.1,0 39.4,8.2 32.1,42.3 -6.8,31.8 -27.2,41.8 -51.3,41.8 h -46.1 z m 18.9,63.1 h 8.1 c 11.7,0 16,-7.7 19,-21.7 3.1,-14.5 1.8,-21.9 -9.8,-21.9 h -8 z" class="st0"/>
		<path id="path3" d="m 314.1,233.1 h 44.5 l 12.1,84.2 h -33.9 l -1.7,-18.2 h -27.3 l -9.1,18.2 h -32.2 z m 2.6,45.7 h 18.7 l -3.3,-27.6 h -0.2 z" class="st0"/>
		<path id="path4" d="m 455.3,314.1 c -11.8,3.3 -22.6,4.6 -35.8,4.6 -28,0 -47.3,-14.7 -40.9,-44.7 6,-28.2 32.4,-42.3 59.4,-42.3 15.8,0 23.1,1.2 30.8,3.1 l -4.8,22.7 c -4,-2.7 -12.1,-4.8 -21.2,-4.8 -16,0 -28.4,8.1 -31.6,23.4 -2.5,11.6 0.1,21.7 13,21.7 2.3,0 4.9,0 7,-0.7 l 4.8,-22.4 h 27.7 z" class="st0"/>
	</g>
	<g id="g6" transform="translate(131.3 -201.3)">
		<path id="polygon4" d="M-71.7 265 35.2 265 30.9 285.3-76 285.3z" class="st0"/>
		<path id="polygon5" d="M-58.2 201.3 48.7 201.3 44.4 221.6-62.6 221.6z" class="st0"/>
		<path id="polygon6" d="M-85.2 328.7 21.8 328.7 17.4 349-89.5 349z" class="st0"/>
		<path id="path6" d="m 57.5,317.6 c 0,0 -188.5,0 -188.8,0 H 57.5 l 18,-84.2 c 0.1,0 -188.8,0 -188.8,0 l -4.4,20.3 H 50.7 l -9.3,43.7 h -168.2 l -4.5,20.3" class="st0"/>
	</g>
</svg>