<svg viewBox="0 0 78.84584 25.505829" xmlns="http://www.w3.org/2000/svg">
	<g stroke-width=".26458332">
		<path fill="#406eb3" d="m12.46188 6.00604h-2.88396c-.87312 0-1.56104-.68792-1.56104-1.56104v-2.88396c0-.84667.68792-1.56104 1.56104-1.56104h2.88396c.84667 0 1.56104.68791 1.56104 1.56104v2.88396c0 .87312-.68792 1.56104-1.56104 1.56104"/>
		<path fill="#632678" d="m4.97417 12.48833h-3.22792c-.97895 0-1.74625-.79375-1.74625-1.74625v-3.25438c0-.9525.79375-1.74625 1.74625-1.74625h3.25438c.97896 0 1.74625.79375 1.74625 1.74625v3.25438c0 .97896-.79375 1.74625-1.77271 1.74625"/>
		<path fill="#982881" d="m4.68313 19.2352h-1.98438c-.58208 0-1.05833-.47625-1.05833-1.05833v-1.98437c0-.58209.47625-1.05834 1.05833-1.05834h1.98438c.58208 0 1.05833.47625 1.05833 1.05834v1.98437c0 .58208-.47625 1.05833-1.05833 1.05833"/>
		<path fill="#ba2f7d" d="m10.00125 25.50583h-2.35479c-.68791 0-1.27-.55563-1.27-1.27v-2.35479c0-.68792.55563-1.27 1.27-1.27h2.35479c.68792 0 1.27.55562 1.27 1.27v2.35479c0 .71437-.55562 1.27-1.27 1.27"/>
		<path fill="#ba2f7d" d="m18.60021 7.19666h-1.61396c-.47625 0-.87312-.39687-.87312-.87312v-1.61396c0-.47625.39687-.87313.87312-.87313h1.61396c.47625 0 .87313.39688.87313.87313v1.61396c.0265.47625-.37042.87312-.87313.87312"/>
		<g fill="#26478d">
			<path d="m54.213129 8.28145c.529167 0 .926042-.42333.926042-.92604 0-.52916-.423333-.92604-.926042-.92604-.529166 0-.9525.42333-.9525.92604s.423334.92604.9525.92604z"/>
			<path d="m20.0025 18.2827c-.13229.21167-.37041.3175-.635.3175-.13229 0-.3175-.0265-.42333-.10583-.21167-.13229-.34396-.39687-.34396-.66146 0-.13229.0265-.26458.10584-.37041l2.16958-3.41313-2.16958-3.41312c-.0794-.10584-.10584-.26459-.10584-.37042 0-.26458.13229-.52917.37042-.66146.13229-.0794.26458-.10583.39687-.10583.26459 0 .50271.10583.66146.3175l1.77271 2.80458 1.799168-2.80458c.132292-.21167.396875-.3175.661458-.3175.132292 0 .264584.0265.396875.10583.238125.13229.370417.39688.370417.66146 0 .13229-.02646.26458-.105833.37042l-2.169585 3.41312 2.169585 3.41313c.07937.10583.105833.23812.105833.37041 0 .26459-.132292.55563-.343958.66146-.132292.0794-.291042.10583-.423334.10583-.264583 0-.47625-.10583-.635-.3175l-1.799166-2.77812z"/>
			<path d="m27.754796 10.53041c.820209-.74083 1.931459-1.19062 3.122083-1.19062 2.619375 0 4.683125 2.09021 4.683125 4.68312 0 2.56646-2.090208 4.65667-4.683125 4.65667-1.190624 0-2.301874-.44979-3.122083-1.19063v3.99521c0 .39688-.370416.74084-.767291.74084-.370417 0-.767292-.34396-.767292-.74084v-11.32416c0-.39688.370417-.74084.767292-.74084.423333 0 .767291.34396.767291.74084zm3.095625.37042c-1.74625 0-3.122083 1.37583-3.122083 3.12208s1.375833 3.12209 3.122083 3.12209 3.122083-1.37584 3.122083-3.12209c.02646-1.74625-1.349375-3.12208-3.122083-3.12208z"/>
			<path d="m48.815629 13.17625v4.68312c0 .39688-.370416.74083-.767291.74083-.423334 0-.767292-.34395-.767292-.74083v-7.69937c0-.39688.370417-.74084.767292-.74084.370416 0 .740833.3175.767291.71438.635-.47625 1.455209-.76729 2.328334-.76729.47625 0 .846666.37041.846666.76729 0 .42333-.370416.79375-.846666.79375-1.190625.0265-2.328334.44979-2.328334 2.24896z"/>
			<path d="m54.213129 9.41916c-.423333 0-.767291.34396-.767291.74084v7.72583c0 .39687.370416.74083.767291.74083.370417 0 .767292-.34396.767292-.74083v-7.72583c0-.39688-.370417-.74084-.767292-.74084z"/>
			<path d="m64.055629 10.16c0-.39688.370417-.74084.767292-.74084.370416 0 .767291.34396.767291.74084v7.72583c0 .39687-.370416.74083-.767291.74083-.423334 0-.767292-.34396-.767292-.74083v-.37042c-.846667.74084-1.931458 1.19063-3.122083 1.19063-2.619375 0-4.683125-2.09021-4.683125-4.68313 0-2.56646 2.090208-4.65666 4.683125-4.65666 1.190625 0 2.275416.44979 3.122083 1.19062zm-3.122083 6.985c1.74625 0 3.122083-1.37584 3.122083-3.12209s-1.375833-3.12208-3.122083-3.12208-3.122084 1.37583-3.122084 3.12208 1.375834 3.12209 3.122084 3.12209z"/>
			<path d="m73.448337 13.28208c0-1.29646-1.11125-2.40771-2.407708-2.40771-1.243542 0-2.407708.50271-2.407708 2.32833v4.68313c0 .39687-.370417.74083-.767292.74083-.423333 0-.767292-.34396-.767292-.74083v-7.72583c0-.39688.370417-.74084.767292-.74084.370417 0 .740833.3175.767292.71438.661458-.50271 1.481666-.76729 2.38125-.76729 2.090208 0 3.96875 1.64041 3.96875 3.70416v4.81542c0 .39687-.370417.74083-.767292.74083-.423333 0-.767292-.34396-.767292-.74083z"/>
			<path d="m18.15042 13.75833c-.0265-2.38125-2.14312-4.39208-4.65667-4.39208-2.61937 0-4.68312 2.0902-4.68312 4.65666 0 2.61938 2.09021 4.68313 4.68312 4.68313 1.24355 0 2.40771-.47625 3.25438-1.32292.15875-.13229.26458-.37042.26458-.58208 0-.42334-.37041-.76729-.76729-.76729-.23812 0-.44979.13229-.60854.3175-.52917.55562-1.29646.8202-2.11667.8202-1.56104 0-2.83104-1.05833-3.09562-2.54h6.985.0265.0264.0265c.0265 0 .0529 0 .0794-.0265.3175-.1323.58208-.4498.58208-.84667zm-4.65667-2.8575c1.4023 0 2.56646.89958 2.96334 2.16958h-5.95313c.39688-1.27 1.56104-2.16958 2.98979-2.16958z"/>
			<path d="m45.984588 13.75833c-.02646-2.38125-2.169584-4.39208-4.656667-4.39208-2.619375 0-4.683125 2.0902-4.683125 4.65666 0 2.61938 2.090208 4.68313 4.683125 4.68313 1.243542 0 2.407708-.47625 3.254375-1.32292.15875-.13229.264583-.37042.264583-.58208 0-.42334-.370416-.76729-.767291-.76729-.238125 0-.449792.13229-.608542.3175-.529167.55562-1.296458.8202-2.116667.8202-1.561041 0-2.831041-1.05833-3.095625-2.54h6.985.02646.02646.05292.02646c.3175-.13229.608542-.47625.608542-.87312zm-4.656667-2.8575c1.402292 0 2.566458.89958 2.963333 2.16958h-5.953125c.396875-1.27 1.561042-2.16958 2.989792-2.16958z"/>
			<path d="m76.623337 18.62666c-.07937 0-.132291-.0529-.132291-.13229v-1.29646h-.291042c-.07937 0-.132292-.0529-.132292-.13229 0-.0794.05292-.13229.132292-.13229h.846667c.07937 0 .132291.0529.132291.13229 0 .0794-.05292.13229-.132291.13229h-.291042v1.29646c0 .0794-.05292.13229-.132292.13229z"/>
			<path d="m78.131462 18.62666c-.07937 0-.105833-.0529-.132291-.10583l-.370417-1.05833v1.03187c0 .0794-.05292.13229-.132292.13229-.07938 0-.132291-.0529-.132291-.13229v-1.37583c0-.10584.07937-.18521.185208-.18521.07937 0 .15875.0529.185208.13229l.370417 1.08479.370417-1.08479c.02646-.0794.105833-.13229.185208-.13229.105833 0 .185208.0794.185208.18521v1.37583c0 .0794-.05292.13229-.132291.13229-.07938 0-.132292-.0529-.132292-.13229v-1.03187c-.05292.15875-.132292.42333-.211667.635-.132291.42333-.15875.42333-.15875.42333.02646.0794-.02646.10583-.07937.10583z"/>
		</g>
	</g>
</svg>