<svg viewBox="0 0 81.269997 105.56" xmlns="http://www.w3.org/2000/svg">
	<path fill="#ed1c24" d="m 13.51,105.56 h 54.25 c 7.49,0 13.509999,-6.02 13.509999,-13.51 V 62.23 H 18.9 V 54.11 H 81.269999 V 48.72 C 81.269999,41.23 75.25,35.21 67.76,35.21 H 13.51 C 6.02,35.21 0,41.23 0,48.72 v 29.82 h 62.23 v 8.12 H 0 v 5.39 c 0,7.49 6.02,13.51 13.51,13.51 z M 27.02,13.51 c 0,7.49 6.09,13.51 13.580001,13.51 C 48.09,27.02 54.11,21 54.11,13.51 54.11,6.02 48.09,0 40.600001,0 33.11,0 27.02,6.02 27.02,13.51 Z"/>
</svg>