<svg viewBox="0 0 94 100.1" xmlns="http://www.w3.org/2000/svg">
	<path fill="#fff" d="m13 99.1c-.2 0-.5-.2-.5-.5v-33.6h-.9c-3.9-.2-6.9-.7-8.8-1.2 3.8-1.5 7-3 9.1-4l.5-.3v-35.9l-.2-.3c-2.4-2.9-5.7-7-7.8-11 1.3-.6 4.1-1.9 7.4-3l.6-.2v-7.7c0-.2.2-.5.5-.5h67.1c.2 0 .5.2.5.5v32l.6.2c6.4 2.7 9.7 6.3 11.1 8.3-2.3-.3-6.3-.7-10.7-.7h-.9v57.5c0 .2-.2.5-.5.5h-67.1z"/>
	<g fill="#2e2d2c">
		<path d="m34.9 10.3c-3 0-5.8 1-6.8 1.5l-.8.3.8.1c2.2.1 4.3.4 6.4.6h.2v-.2c.3-1.1 1.5-1.9 1.5-1.9l.5-.3-.6-.1c-.3.1-.8 0-1.2 0z"/>
		<path d="m81.5 32.7v-31.3c0-.8-.6-1.4-1.4-1.4h-67.1c-.8 0-1.4.6-1.4 1.4v7.2c-4.6 1.4-8.3 3.4-8.3 3.4 2.1 4.3 5.7 8.9 8.3 12v35c-2.6 1.3-6.8 3.2-11.6 5 0 0 4 1.6 11.6 2v32.7c0 .8.6 1.4 1.4 1.4h67.1c.8 0 1.4-.6 1.4-1.4v-56.7c6.6.1 12.5 1 12.5 1s-2.8-6.2-12.5-10.3zm-58.5 42.2h-3.6v4.6h2.8v1.6h-2.8v5.8h-1.8v-13.6h5.4zm3.7 12h-1.8v-13.6h1.8zm5.1.1c-2 0-3.1-1.1-3.1-3.3v-.7h1.7v.8c0 1 .4 1.6 1.3 1.6s1.3-.5 1.3-1.6c0-1.4-.9-2.3-1.9-3.2-1.1-1.1-2.3-2.1-2.3-4.2 0-2.2 1-3.3 3-3.3s3 1.1 3 3.3v.2h-1.7v-.4c0-1-.4-1.6-1.3-1.6s-1.3.5-1.3 1.6c0 1.4.9 2.3 1.9 3.2 1.2 1.1 2.3 2.1 2.3 4.2.2 2.3-.9 3.4-2.9 3.4zm11.6-.1h-1.8v-6h-2.9v6h-1.8v-13.6h1.8v6h2.9v-6h1.8zm7.5 0h-5v-13.6h1.8v12h3.5zm6.9 0-.4-2.5h-3l-.4 2.5h-1.6l2.2-13.5h2.9l2.2 13.5zm10.1-3.2c0 2.1-1.1 3.1-3.1 3.1h-3.2v-13.5h3.1c2.1 0 3 .9 3 3v.5c0 1.4-.4 2.2-1.3 2.6l-.4.2.4.2c1 .4 1.5 1.3 1.5 2.8zm4.8 3.3c-2 0-3.1-1.1-3.1-3.3v-.7h1.7v.8c0 1 .4 1.6 1.3 1.6s1.3-.5 1.3-1.6c0-1.4-.9-2.3-1.9-3.2-1.2-1.1-2.3-2.1-2.3-4.2 0-2.2 1-3.3 3-3.3s3 1.1 3 3.3v.2h-1.7v-.4c0-1-.4-1.6-1.3-1.6s-1.3.5-1.3 1.6c0 1.4.9 2.3 1.9 3.2 1.2 1.1 2.3 2.1 2.3 4.2.2 2.3-.9 3.4-2.9 3.4zm3.7-47.2c0 5.9.4 13.1-5.6 18.3 4.1-16-9.6-29.5-19.4-27.7 2.9-3.8 7.6-4.3 12.2-2.1-2.5-5.1-7.6-12.3-25-14.9 2.8 1.3 4.2 3.3 4.4 5.1-9.5-3.9-18.8-5.5-31.6-4-.5.1-1 .2-1.6.3 1 1.7 1.5 3.2 5.4 7 8-3 15.1-3 20.1-1.5-9.6-.7-16.4 4-16.4 4 3.3 3.9 6.3 4.3 6.3 4.3-.5-1.9 0-3.5 0-3.5s1.1 2 4.1 2.4c-.7-1.6.4-3.6.4-3.6 1.8 2 4.1 2.9 4.1 2.9s-.3-2.3.3-4.2c.8 2 3.2 2.5 3.9 2.4-.2-1.4.2-2 1.2-2.5 0 0 .9.3 1.7 1 4.8 4.4 3.6 11.3-7.5 15.5 5.2.1 14.7-4 21-.4 19 8.6 10.1 31.5-18.9 23.4-10.1-2.8-10.5 3.4-30.3 1.5 8.7-2.8 13.2-6.4 15.3-8.6.7.4 1.9 1.3 2.6 2.5-.4-8.1-7.7-14.8-7.7-14.8 10.8 2.3 10.4 9.2 21.5 14.4 7.2 3.4 31.6-2.9 18-12.9-.6-.5-1.3-.9-1.9-1.3-5.3.6-9.5 3.4-9.5 3.4 1.2-2.6 3.4-4.4 5-5.5-3.3-.3-6.5-.2-8.3 0-2.5.5-5.3.8-8.6.4-2.4-1.2-5.5-3.7-8.3-10.1-4.1-2-11.4-7.9-16.8-18 31-13.9 52.3 0 55.2 2-2-1.9-4.4-4.4-7-5.7 10.2-3.3 17.7-5 23.8-1.7-4.5 3.4-7.5 8.1-8.3 13.4 2.5 2.9 4 6.2 5 10.2-2.5-.4-4.2.4-5.1 1.2 0 0 11.6.4 20 8.4-7.8-1.3-9.6-1.1-13.7-1z"/>
		<path d="m63.3 85.3v-4.7h1.2c1.1 0 1.6.5 1.6 1.9v1.2c0 1.1-.4 1.6-1.3 1.6z"/>
		<path d="m56.1 75.5 1.1 7.3h-2.6l1.1-7.3z"/>
		<path d="m63.3 79v-4.1h1.3c.9 0 1.3.5 1.3 1.6v.8c0 1.1-.5 1.7-1.5 1.7z"/>
	</g>
</svg>