<svg viewBox="0 0 32.113899 30.038601" xmlns="http://www.w3.org/2000/svg">
	<path fill="#3486ef" d="M 16.0683,0.0227 C 7.1968,0.0227 0,7.2421 0,16.0906 c 0,3.938 1.4031,7.627 3.9605,10.547 l 2.1273,-2.15 C 4.0963,22.1336 3.01,19.1916 3.01,16.0686 3.01,8.8715 8.8715,3.01 16.0683,3.01 c 7.1968,0 13.0582,5.8615 13.0582,13.0586 0,3.123 -1.0863,6.065 -3.0778,8.419 l 2.1273,2.127 c 2.5574,-2.92 3.9379,-6.608 3.9379,-10.546 C 32.1139,7.1968 24.8945,0 16.0457,0"/>
	<path fill="#193f70" d="m 4.208,30.0386 c -0.3847,0 -0.7694,-0.135 -1.0636,-0.429 -0.5884,-0.589 -0.5884,-1.539 0,-2.128 l 11.8362,-11.904 c 0.2715,-0.294 0.6563,-0.453 1.0637,-0.453 0.4074,0 0.792,0.159 1.0636,0.43 l 11.8588,11.905 c 0.5884,0.588 0.5884,1.538 0,2.127 -0.5884,0.588 -1.5389,0.588 -2.1273,0 L 16.0443,18.7686 5.2718,29.5866 c -0.2942,0.294 -0.679,0.452 -1.0638,0.452 z"/>
	<path fill="#3486ef" d="m 16.0689,7.4454 c -4.6168,0 -8.3736,3.7572 -8.3736,8.3732 0,1.924 0.6563,3.757 1.8331,5.228 l 2.15,-2.15 c -0.6337,-0.882 -0.9732,-1.946 -0.9732,-3.078 0,-2.964 2.399,-5.3633 5.3637,-5.3633 2.9647,0 5.3636,2.3993 5.3636,5.3633 0,1.132 -0.3396,2.196 -0.9732,3.078 l 2.15,2.15 c 1.1768,-1.471 1.8331,-3.327 1.8331,-5.228 0,-4.616 -3.7567,-8.3732 -8.3735,-8.3732 z"/>
</svg>