<svg viewBox="0 0 1601.2601 1033.9828" xmlns="http://www.w3.org/2000/svg">
	<g fill-rule="evenodd">
		<g fill="#fff">
			<path d="m1229.41665507 1033.98274731c19.2-2.9 39.5-2.5 54.8-16.5 64.8 9.9 130.5-6.1 181.4-41.8 26.8-21.6 51-46.7 70.6-74.1 17.2-24.2 30.8-46.7 39.6-73.7 6.5-16.7 11.7-34 15.6-51.8 18.5-84.1 8.8-178-18.6-257.9-5-14.9-10.7-29.2-16.9-42.9-34.2-70.6-80.7-146.7-152.3-191.3-40.3-25.1-77.4-64-100.2-104.3-12.4-11.1-24.2-25.9-40.3-28.5 4.4 7.2 9.2 14.3 10.4 22.7l-.9 1.2c-17 .5-30.3-8.5-42-19.4l12.9-11.6c-4.9-2.5-10.4-3.4-15.8-4.6-48.9-5.6-89.2 17-132.7 27.9l-.6 2.4c26.6 11.8 32.2 41.2 47.7 61.1 3.9-4.6 10.4-1.3 15.8-1.7 7.7.4 15 6 22.5 4.1.3-6.5-3.4-11.7-4.5-17.5 4.5-2.1 10.1-.2 15.2 0 14.1 8.3 36.6-1.4 45.4 17.5-16 1-31.1 4.3-46.1 8 1 6.1 7 10.9 6.6 17-12.9-5.4-26.5-8.7-40.8-10.4l-.7 2.1c18.2 21.3 43.1 34 68.6 41.5 36.7 8.4 68.9-9 104.3-2.9 86.8 39.7 161 130.6 193.3 216.9q2.4 6.3 4.5 12.7c27.1 78.8 32.2 175.6 5.1 257.8-14.4 34.2-30.3 66.5-55.7 94.3-9.6 11.8-20.2 22.4-31.8 31.3-36.4 28.3-81.3 40.8-127.6 28.1-2.9-2-8.7-2.5-7.7-7.5 1.6-6.8 3.1-13.6 4.4-20.6 7.7-39.4 11.2-80.9 9.2-122.3q-.1-2.7-.2-5.3c-2.6-60.2-14.5-114.3-36.7-166.3-14.2-29.8-31-62.4-52.2-91.6-25.4-34.8-56.8-64.9-97.2-80-24.7-6.5-55.3-7.8-73.9 12.8-13.4 11.7-18.9 27.4-17 44.7-20.9 13.2-44.3 20.3-69.9 22.5-6.2.5-12.6 2.8-19.1 2.8-6.2.2-12.2 0-18.1-.7-30.7-3.8-61.8-20.4-85.4-39.3-.5-12.6-1.2-24.5-1.7-37.8-13.5-7-24.8-20.4-25.7-36.1l1.2-1.2c7.8 2.4 14.5 6.2 21.6 10.3-3.2-18.9-6.8-37.5-16.2-54-8.8-3.7-17.5-6.6-25.7-10.9-9.5-6.3-15.6-17.7-17-28.1 8.5 8.2 23.3 5.3 29.8 14-11.4-33.7-11.6-72.2-30.3-103-9.5-22.8-34.2-33.2-51.2-49.9-6.6-8-9.2-19.2-21.1-20.4-9.7-2.4-10.4-13.3-12.1-20.4 6 .8 11.1 4.9 16.2 5.8-14-37.2-26.4-78.7-64.5-102.5l-6.5 4.2c-14.8 2.1-30.6 3.1-45.4 3.6 6.6-9.7 18.2-13.8 27.4-18.2-10.6-8-19.4-9.9-32.8-12.1-7.7 7.7-21.7 11.7-31.7 13.8l-1.2-1c-.3-8.7-2.3-19.3 10.9-21.5-12.6-6.1-33.6-3.6-46.4 0-3.6 9.4-14 17.9-13.3 29.1-7.5 7.7-12.8 18.2-20.6 23.8-.2-18.7 7.7-35.9 11.1-51.7-10.9 4.2-22 10-32.7 15.1-17.2-10-35.3-19.9-53.7-27.4-1.7-.8-5.4-1.5-4.7 1.7 15.8 11.3 9.7 32.7 11.4 48.9l-10-8.2c-4.8-12.4-18.8-21.3-21.2-34.9-16.5 3.2-27.1 7.5-42.4 14.1l-2.1 1.2c11.4 0 21.1 8.9 26.7 17.9-17.2 1-32.5-5.8-49.5-7.5-1.7-1.7-3.2-3.7-5.8-3.4-8.5 3.1-15.8 9.2-23.3 15-16.7 16.5-33.7 34.7-41.7 56.5 5.6.9 12.6.7 16.7 4.1-9.2 5.6-17.2 15-26.1 20.3-3.2 12.7-2.7 27-3.4 40.8-7.1 10.7-16.5 20.1-21.1 32-15.1 48.7-18.9 102.8-16.8 158-4.8 4.6-11.2 7.6-15.7 11.2l.5 49.4h1.2c2.1-10.4 14.5-16.2 22-23.2h2.5c-1.2 11.1-2.7 22.3-2.9 33.7l-14.1 11.6c-14.1 12.4-2.2 31-3.4 46.6 1 4 1.7 10.1 4.6 11.1 1.7-6.1 7.1-10.4 10.5-15.8 6-1.4 11.4-6.3 16.9-7-3.1 12.2-7.2 24-12.1 35.6-2.3 1.6-5.1 3.6-7.4 6.1-2.5 2.7-4.5 5.7-5 9 11 57.4 28.1 114.1 47.7 168.2-13.3 22.5-20.8 49.1-31.9 72.3-1.6 3.3-3 6.6-4.4 10-11.1 28.2-14.5 59.7-28.4 86.7-5.6-3.8-11.7-6.8-17.9-9.4-26.2-8.7-56.6-3.2-75.7 17-17-3.2-34.4-.3-47.8 8.7-9.6 7.1-16.9 15.8-21.2 25.9-2.9 7.1-4.2 14.7-3.8 23.1-10.9 7.5-16.7 19.1-20.3 30.8-5.1 26.1 4.1 53.4 19.1 73.5z"/>
			<path d="m1068.91665507 488.98274731c-.3 6.3-4.9 13.3-.8 18.6 5.9-6.5 15.6-6.3 23.3-9.2 21.6-1.9 42.2 4.9 62.3 9.8-5-8.1-8.4-17-14-24.3-11.2-2.9-28.1 4.9-30.1-11.6-6.8-5.8-17.5-1.7-24.4-1.3-6.9 4.9-12.4 11-16.3 18z"/>
			<path d="m327.61665507 279.68274731c-.1-.1-.2-.2-.3-.2v.2z"/>
			<path d="m415.81665507 495.08274731 14.6-14c1.2 0 2.1.3 2.9 1.2l-1.3 26.9c7.1 6.6 15.8 8.7 25 9.2.8-7.2 6.3-12.3 9.5-18.6 2.7-5.1 1-12.6 6.3-16.3l1.6 1.7c1.8 8 1.3 17 5.4 24 .5 3.9 1.2 8.7 1.7 12.1 10.7.5 20.3-2.4 28.6-6.3-.5-9.2 2.7-16.7 4.1-25.2 2.2-2.9-2.7-8.2 3.4-8 3.4 7.3 9.5 14.8 12.9 22.5 14-14.3 19.9-32.9 23.2-52.3-4-5.6-10.4-5.6-15.2-9.2-41.2-13.3-94.2-16-133.9 4.6-2.6 16.5.8 34.7 11.2 47.7z"/>
			<path d="m30.41665507 949.98274731c-1.5 18.7 0 36.2 1.1 54.6 4 6 11 13.1 18 13.6l1.3-12.4c2.8-17.2-6.4-35.5 3.3-50.1 6.8 2.2 13.6 5.6 19.5 8.8 2.8-16-1.3-34.7-16.6-44.4z"/>
			<path d="m90.21665507 923.78274731c-9.4 28.4-16.5 63.4-5 93.2 6.5-4.3 13.3-8.5 19.1-14.5-1.2-22.9-4.3-47.2 9.2-66.1 11.9 3.6 19.9 15 24.5 26.2 8-10.2 10.7-24.3 7.6-37.9.4-10.6-11.7-8.1-17.5-12.5 1.9-9 1.6-19.4 11.1-24.5l-29.1 2.9c-7.5 10.6-15.7 21.1-19.9 33.2z"/>
			<path d="m150.21665507 1007.48274731c1.2 2.2 0 6.1 2.4 6.6 3.7-20.4 20.1-33.6 29.1-51.5 4.4-6.1 4.1-14.6 11.1-19.2 9.5 0 16.3 6.8 25.5 7.6 3 2.1-1.5 4.1-1.7 6.5-1.9 16.5-8.2 30.2-7 47.1h1.7c12.8-13.5 21.6-28.2 31-43.7l1.7-13.8c2.2-16.5-15.8-27.2-27.4-33.9l10.4-13.4-14.5-5.1c-17 1.7-32.3 8.8-44.2 22.1-14.7 27.1-17.2 57.8-18.1 90.7z"/>
			<path d="m215.41665507 863.68274731c5.6 1.7 10.7-2.9 16.2-.5 22.4 8.2 45.7 16.7 62.4 35.4l19.9 50.6 9.9-31.2-6.5-17c-5.6-12.1-20.9-11.1-31.3-11.6-4.4-4.9.2-10.5 1.7-15.1 5.1-17.2-16-16.2-24.5-23.2.5-10.4-12.1-6.8-19.2-7.8l-2.4-2.9c-1.4-2.2-5.1-2.2-7-.5-.5-.7-1.5-1.2-1-2.4l-5.4 1.2c-7.4 6.6-12.5 15.1-12.8 25z"/>
			<path d="m229.51665507 807.98274731c.7 3.1 2.6 6.3 5 8.2 11-2.9 21.4-10.4 34-5.9 16.3 14.3 33.2 29.4 52.9 37.2l7-1.3c4.4 1.5 9.2 1.7 12.1 6.6 2.7 6.5-4 10.4-6.3 15.7 11 8 6.6 22.3 13.4 32l17.5-23.3c-4.1-10.2.2-27.6-15.8-28.6-5.3-2.6-9-8-8.7-14-10.4-9.5-23.3-13.6-33.7-23.3-8.5-6.8-13.6-17.2-24.5-19.6-7.5-4.1-15.7-6.3-24.5-8.2-16.3-2.4-17.7 16.9-28.4 24.5z"/>
			<path d="m252.71665507 760.18274731 3 4.6c12.1-.7 23-6 34.9-5.8 8 4.9 18.5 4.6 26.7 8.7 6.5 9 13.6 19.2 23.2 25.2 19.7 2.9 30.6 24 37.4 39.5v-7.5c2.9-10.4-.3-22.5-4.2-32-4.8-4.8-11.8-8-16.9-12.4-1-3.1-.3-4.6.7-7.5-7.5-8-18.7-12.4-27.9-18.6-12.8-18.7-37.6-13.6-57.2-18.7z"/>
			<path d="m252.41665507 582.38274731c2.1 7.5 4.7 17 6.2 25 6.8-15.1 20.2-21.8 32-34.2-6.8-4.6-15.2-6.8-22.8-8.2v-.5c-5.3 5.3-13.5 10.7-15.4 17.9z"/>
			<path d="m296.41665507 662.08274731 10.9-11.1c11-11.1 19.9-24 21.6-38.3-7.7-4.6-17.9-1.5-25.4 1.2-2.8 15.8-6.8 31.3-7.1 48.2z"/>
			<path d="m304.41665507 696.28274731c16.8 1 33 4.3 46.6-5l13.5-43.7c-4.3-.3-8.7-2.2-12.8-.7-8.9 19.9-26.9 39.5-47.3 49.4z"/>
			<path d="m309.31665507 541.68274731c10.9 16 29.1 33.9 47.8 39-2.2-20.4-19.6-34.4-28.6-51.9l-.5-5.8c-7.1-6.8-15.6-11.4-22.8-15-1.2 11.6 2 22.8 4.1 33.7z"/>
			<path d="m368.51665507 698.28274731c12.8 2.2 26.6 0 38.5-3.7 17.2-4.1 26.7-23 32.5-37.8h-21.6l-23.3 22.8c-9.1 4.9-17.9 12.2-26.1 18.7z"/>
			<path d="m365.81665507 519.58274731c3.7 18.9 11.6 36.1 22.6 52.4l2.9-36.1z"/>
			<path d="m445.31665507 613.88274731c1.5-12.1-3.6-26.2-5-38.5-7.3-4.9-17.5-4.4-25-9.2.5 19.1 15.5 35.4 30 47.7z"/>
			<path d="m423.31665507 737.08274731c15.3-4.9 30-10.2 44.1-18 8.9-12.8 22.5-24.5 24.5-39.5-11.2 3.1-20.9-.5-31.3 4.6-6.3 11.4-10.2 24.3-22.3 32.5-1.9 8.2-10.9 13.8-15 20.4z"/>
			<path d="m447.01665507 766.88274731 18.2 23.7c9.7 3.2 21.8 2.2 30.3-3.4l-6.5-21.6c-12.9 4.9-28.1 3.4-42 1.3z"/>
			<path d="m477.31665507 595.18274731 7.1 32c16.9-13.8 20.4-33.9 20-55.2-9.8 11.1-15.4 17.9-27.1 23.2z"/>
			<path d="m525.11665507 651.68274731c.3 4.6 1.5 9 4.2 12.7 18.9 6.7 20.8 29.7 38.3 38.5 11.4 5 24.4-1.3 34.4-5.9-7.5-8.4-16-14.3-23.3-23.2-5.1-2.2-10.2-5.4-9.9-11.7z"/>
			<path d="m540.11665507 766.08274731c8.3 9.5 19.5 14.3 31.1 17-1.9-2.7 1.2 0 1.7-1.7l-14.6-31.9c-7.2.1-14.8 1.6-21.6 1.1.5 5.3 1.8 10.6 3.4 15.5z"/>
			<path d="m565.91665507 616.78274731c-6.8-15.7-9.7-34.9-11.6-52.3-7.3 8.7-14.8 14.3-21.6 23.2-3.2 18 22.5 22.4 33.2 29.1z"/>
			<path d="m595.41665507 600.38274731c8.8 11.3 27.9 7.4 38.7 4.1-5.2-8.8-21.6-13.9-24.5-23.3-1.7-16.7-5.1-32.9-10.4-48.2-8.5 20.6-18.8 45.1-3.8 67.4z"/>
			<path d="m610.71665507 651.68274731c24.3 17.8 48 38.3 82 30.8 2.4-1.7 6.5-1.5 7-4.6-9.9-6.3-20.6-11.2-30.8-16.9l-11.6-17h-5.3c-13.1 4.3-27.2 6-41.3 7.7z"/>
			<path d="m611.21665507 848.28274731h1.7c14.6-11.6 31.8-15.5 49-20.4 4.6 1.7 1.7 6.8 5.8 8.8 10.5-4.4 23.1-3.4 33.7-7.1 12.9.6 23.4.8 33.8 6.4 8.2 10.8 23.7 9.7 34.4 16.9l-1.7-16.9c-22.5-26.5-57.7-28.4-90.2-27.9l-.7-3.4c-7.8 0-16.5 1.7-23.8 5.1-10.4.4-20.3 5.6-30.3 8.7-4.6 9.2-8.3 20.3-11.7 29.8z"/>
			<path d="m630.71665507 550.38274731c9.5 12.4 23.5 21.8 39.5 18.7-8.2-8-17.7-16.5-18.2-27.9 2.5-21.6-21.3-23.3-32.9-34.4 3.8 14.5 3.4 30.8 11.6 43.6z"/>
			<path d="m628.21665507 891.18274731h2.9c12.8-8 31.5-1.9 44.1-10.4 7.1-3.7 7.5 6 12.4 8.7 11.9 7.3 13.4 29 30.1 24 20.1 10.4 15 34.9 15.7 52.9l18.7-11.7c-1.7-9.4 3.6-20.9-2.4-29.1-4.6-10.4-17.2-11.3-23.3-19.8 7.3-12.4-9.2-18.2-12.6-27.2l1-1.2 25.6 3.4c8.8 5.3 11.9 15 14.6 24 20.2 3.4 25 26.1 32.1 40.7 4.1-10 5.8-20.6 9.9-30.3.3-8-10.4-8-15.7-11.6-1.5-12.4-7.1-24.1-18-31.5-22.3-5.6-41.9-18-66.4-18l-20.4 6.3c-11.2 2.7-23.1-.7-31.5 7-12.7 1-13.7 14.8-16.8 23.8z"/>
			<path d="m641.01665507 791.28274731 4.7 2.2c9.9-4.6 19.8-9.9 30.3-13.8 16.2-4.6 28.8 13.8 42.4 2.2 5.1-3.7 9.5 1.7 13.4 4.6 5.8 10.7 19.4 9.9 29.6 12.8-5.1-13.8-11.4-32.7-29.1-34.9-7.1-3.2-15.3-2.8-22.1-7-18.7-20.6-30.8 16.9-51.2 7.7-7.3 8.1-16.2 15.6-18 26.2z"/>
			<path d="m645.71665507 909.38274731c7.7 6.5 15.7 17.7 27.8 16.2 15.1 7 8.8 26.9 17 37.3l8.7-7.8-.7-.4 1.3-1.2.5.7c2.4-7.3-1-20.2-5.2-28.6-5.5-3.9-12.1.2-17.4-3.4-.7-7.8-5.6-11.7-11.2-16.5-3.9-2.9-9 1-13.3.7z"/>
			<path d="m676.01665507 613.88274731c8 13.4 23.5 21.6 35.9 30.8 10.1 4.6 23.5 5.8 34.4 3.4-10.4-8.5-19.9-18.2-28.6-28.4-3.4-4.8-4.1-10.9-8.7-15.2-11.5 2.2-24.3 1.9-33 9.4z"/>
			<path d="m689.41665507 527.18274731c11.2 13.7 28.4 8.2 44.1 8.7v-1.7l-24.2-20.4c-6.8 2.2-14.1 8.2-19.9 13.4z"/>
			<path d="m242.91665507 298.58274731 14 43.6c-.2-24.7 11.2-45.3 8.8-70.5l10.4-15.5-22.1 6.8c-5.8 11.1-10.6 22.3-11.1 35.6z"/>
			<path d="m252.41665507 222.98274731 19.1-11.2v-28.4c-8 4.9-12.4 13.1-18.7 19.7z"/>
			<path d="m645.71665507 267.08274731c-4.6 6.1-11.6 7.5-17.4 8.7 10.1-18.6 15-44.6 7-65.7 5.3-1.9 11.2-2.9 16.3-5.8l-.6-.5 13.4-11.7c17.7-12.1 10.9-35.1 17.5-52.3-8.8-13.6-11.4-30-24-41.5l.7-.4c-10-12.6-27.9-11.2-41.5-17.5-18-6-31.8 6.3-44.6 14.6-5.6.9-2.2 8.2-8.3 8-3.4 9-7.5 18.6-9.9 28.6-24.1-3.5-50-.7-69.1 12.8-10.3-7.5-22.6-8.9-34.5-12.3-8.7-1.7-18.7 1.4-24.9-3.5-9.2-10.3-11.2-29.3-27-31.9-5.6-2-6.8-8-6.8-13.4-10.4-1.6-19.7-6.5-29.8-8.7-15.5-7-27.9 4.2-39.5 11.6-5.1 2.2-11 2.9-15.8 5.9-8.7 13.5-17 27.4-22.5 42.4 1.7 12.3 7 23.3 13.3 33.7 5.6 15.7 23 28.1 37.8 34.4-7 24-7 52.6 0 76.8 0 0-.4.3-.4.3s-.8.7-.8.7c-2.3 0-4.7.4-6.7-.7h-.3c3.4 23.1 14.3 43.4 32 60.8 6.3 2.2 4.8 9.7 7.5 14.5 1.7 2.2 1.9 6.8 1.2 8.7-37.8-1.2-71.5 8.3-101.9 25.5-7.7 3.9-4.3 14.6-5 22 21.3-14 44.4-24.4 69.8-29 10.9-.7 23.3-3.4 33.7-.5l1.2 20.8c-28.8 15.1-60.3 23.8-85.1 48.5.5 7.5-.9 16.3 1.2 22.6l22.1-18c21.3-16.2 43.6-30 68.2-39 6.5 7.8 13.3 16 22.1 20.8 14.7-9.4 30.8-16.4 47.7-20.8 9-5.3 23.3-.5 29.1-11.1l4.2-22.1c-.8-.5-1.2-1.4-2.5-1.2-11.4-6.5-18.9-17.9-17.9-31.2-3.9 1.9-8.2 3.1-12.9 3.3-3.9-.9-7.5-1.9-9.2-5.8-.2-4.8-2.7-12.1 2.2-15.7 15.7-9.7 36.1-10.2 56-8.7 14.8 1.9 36.2 1.1 41.2 18.6-.6 5.1-.2 10.7-5.3 14.1-5.3 2.9-11.4-.3-16.2-2.4-3.9 11.8-10.4 25.2-23.8 29l1.7 14.1c1.7 6.3 2.2 16.7 12.2 14.5 23 5.6 43.3 17.5 63.5 30.4 6.8-6.9 12.1-14.6 16.9-21.6 35.9 12.1 67 39 96.6 63.9l1.2-20.3c-28.1-25-59.5-42.7-91.9-56.5 1.2-6.5 2.6-12.9 2.9-19.9 38.5 2.2 75.1 14.1 106.9 32.8l-.5-17.5c-33.4-17.9-70.1-29.8-110.1-30.3-1.5-2.2-1.9-5.3-1.7-7.5 19.5-3.2 33.2-23.3 37.9-40.8 9.9-11.3 24.3-23.7 20.9-40.6.4-1.4.9-2.9 1.4-4.4 1.3-4.2 2.4-8.7.9-12.6z"/>
			<path d="m679.51665507 329.38274731 19.8-6.3 2.2-11.2c5.6-16.2-6.3-28.3-12.1-41.2z"/>
			<path d="m729.61665507 406.18274731c9.5 10.4 18.7 27.2 35.5 22-1.3-7-5.2-12.8-7.6-19.1-4.4-5.1-5.8-19.6-14.5-14.5-6.6-4.4-8.3-11.7-12.4-17.5-1.9 9-.7 20.1-1 29.1z"/>
			<path d="m733.01665507 477.18274731c3.7 5.1 4.7 11.7 8.2 16.2 6.6 4.4 16.3 3.7 24.3 2.9 7.3-1.6 11.9 6.3 18.7 1.7-8.5-5.3-13.5-15-21.6-22-9.5-7.5-19.6-1-29.6 1.2z"/>
			<path d="m745.91665507 589.88274731c16.7 10 38 19.7 60.3 16.3 2.4-1.3 6.6-1 7-3.9-13.8-4.9-28.3-18.7-42.8-21.6-8-12.4-18.4 3.2-28.6 2.2.2 2.9 3.1 5.1 4.1 7z"/>
			<path d="m796.31665507 803.88274731 3.6 7.8c3.7 25.2 19.7 48.5 10.9 76.1 7.3 5.1 9.5 13.6 14.1 20.3h1.2c5.6-21 1.7-42.9-1.2-64 2.2-19.1-17.2-30.3-28.6-40.2z"/>
			<path d="m800.51665507 555.68274731c12.6 9.7 32.7 10.7 47.2 5.9-9.2-5.1-19.3-10.7-26.9-17.5z"/>
			<path d="m860.31665507 630.18274731c-1.2 10.2 5.6 18.6 12.9 23.7 2.6-6 7-11.1 7.4-17.9-2.1-10.4-7.9-19.9-17.4-26.9-1.7 6.8-3.6 13.3-2.9 21.1z"/>
			<path d="m861.11665507 740.68274731c-1.8 11.3 10.8 12.8 16.2 19.1 4.4 5.3-2.9 9-2.9 14.1 9.2 11.8 14.5 25.4 14.5 41.2 3.7-14.8 9.2-28.9 11.2-44.1-.9-10.7-17.9-8.5-15.3-20.4 4.9-12.1-.9-24-4.1-34.9-1-1.7-3.2-5.1-5.1-4.1-4.4 9.9-15.3 16.9-14.5 29.1z"/>
			<path d="m894.31665507 682.98274731 12.6 24.4c5.6-.6 9.2-6 13.5-9.8 3.5-10.2-5.5-16.8-8.2-25-2.2-5.9 0-13.6-4.1-18.7-3.2-1.9-6.8-5.1-10.5-4.2z"/>
			<path d="m910.51665507 618.48274731c10 6.1 21.3 14.8 26.6 25.4 8.6 24.8 22.2 47.1 32.1 71.1 3.6 16.7 6.5 31.6 11.1 48.1 1.8 4.3.8 12.8 7.6 12.1 1.9-18.4 5.6-36.1 5.8-55.3-6-7.9-14.1-11.3-21.6-16.2v-1.7c1-4.1 4.4-9 9.5-8.2 2.1-2.5 8.7-4.9 5.8-9.2-12.6-12.6-11.9-34.3-32-38.2-7-2.9-8.8-10.2-9.4-17-9.5-7.9-23.6-10.7-35.5-10.9z"/>
			<path d="m922.11665507 749.88274731c12.4 11.3 8.1 27.8 7.1 43.1-2 9.2 9.7 3.9 13.3 8.7 7.5 11.2 3.2 27.4.5 39.6 6.6-10 14.1-18.7 19.2-29.6-.3-4.2 5-6.1 4.8-11.1 2.2-7.1-6-3.9-9.4-4.7-2.9-.7-6.1-2.7-5.2-6.5 6.4-12.2.6-26.7-1.9-38.8-2.9-10 1.3-23.3-3.4-32-7.7 10.7-30.8 13.1-25 31.3z"/>
			<path d="m944.71665507 577.78274731c21.6 21.8 37.4 43.7 60.6 64.8.5-9.4-.7-18.2-1.2-27.4-3.4-6.5-9.7-11.3-15-16.2-17.2-1.7-26.2-24.9-44.4-21.2z"/>
			<path d="m1001.21665507 693.28274731c.5 2.2 1.5 4.1 2.4 6.3 9.5 15.5 18.4 31.5 25 48.2-1.9-17.9 10.2-40.2-5.8-54-2.2-5.8-9.5-3.9-14.1-3.4z"/>
			<path d="m1059.41665507 870.38274731c6.8 3.1 15.5-2.5 22.1-6.3 6.1-1.5 11.2 1.9 15.8 5 1.9 3.9 0 7.5.7 11.2 14.5 4.1 28.8 9.4 41.7 17.9l4.1-4.1c1-10.4-7.3-17.9-15-23.7-5.1-3-12.7-1.3-16.3-5.9 2.5-3.8 2.5-9.7 2.2-14-8 0-13.1-2.5-19.7-6.4-4-1.1-7.7-4.5-11.1 0-12.1 8.3-12.8 20.4-24.5 26.3z"/>
			<path d="m1076.41665507 565.28274731c6.1-1.6 12.4-3.4 17.5-7.7 16.2-14.8 39.7-4.9 58.6-5.1-3.6-6.6-8.7-13.1-13.3-18.7-6.8-2.6-13.1-5.8-20.9-5.8-16.5-9.7-27.6 6.6-40.2 14.5-3.4 6.6-5.1 16.3-1.7 22.8z"/>
			<path d="m1076.91665507 615.18274731c0-.6 0-1.4.7-1.6 2.2 1.9-.3 6.5 3.4 7.5 6.3-3.2 12.1-7.5 17.9-11.6 16.3 0 26-15.8 42-15.8 26.6 4.8 53.1 10.2 76.4 23.3-1.7-15.8-15.3-30.1-29.1-37.2-7.8-2.6-13.8 1.5-19.4 5.9-16.3 10.2-7.8-14.8-19.2-15.3-14.8 4.7-30.1 9.7-46.5 8.3-9.7 3.6-16.6 12.5-27.4 11.6-.5 8-1.7 17.7 1.2 24.9z"/>
			<path d="m1088.11665507 669.28274731c5 5.3 13.5 4.4 20.8 5.3l21.1-8.2c.2-3.9-6.3-4.9-4.9-9.2 5.8-6.5 13.9-1.9 21.1-4.6 10.2-1.5 20.7-11.6 30.8-4.1-.2 1.2.5 2.9-.4 4.1-3.3 7.5 2.1 12.1 7.9 15 11.9 2.2 23.1 13.1 35 8.2-1.2-9.9-3.9-19.1-6.4-28.6-9.9-1.7-16.9-9.9-26.1-13.3-4.2 3.9-9.5 6.8-14.6 6.3-18.7-4.4-41-16-59.9-4.1-6.8 8.2-18.9 5.8-28.1 9.4.5 8.3 1.4 16.3 3.7 23.8z"/>
			<path d="m1096.01665507 813.38274731c-1.4 4.1-5.5 10.9 2 12.8 15.5.5 35.4-7.5 47.5 4.6 4.1 3.2 2.2 9.7 2 13.9l20.3 17c2-10.3 5.6-19.5 5.8-30.4-1.6-7.7-5.5-15.3-12.3-20.4-13.4 0-21.2-15.6-35.5-13.6-7.5-1.7-14 4.9-21.6 4.9-3.3 3.4-5.3 7.6-8.2 11.2z"/>
			<path d="m1101.91665507 699.08274731c3.1 6.5 6.8 17.2 12.8 18 14.3-6.3 35.2-10.2 51.2-3.4 5.3.9 5.3 7 4.1 10.9 8.3 4.8 18.2 8.7 27 14l-2.5-14.5c-.5-15.8-20.4-17.2-21.6-32.8-16.2-5.3-34.4-7-51.6-2.9-5.6 5.1-13.6 4.4-20.4 5.9-.5 1.9.7 3.1 1 4.8z"/>
			<path d="m1106.01665507 777.68274731c9.5-2.7 15.5-13.1 25.7-14.1 15.5.3 29.4 6.5 39 19.9 5.9 3.8 4.7 13.8 12.2 13.8-2.2-11.9 1.7-22.8 1.2-34.9-10.2-17-35.4-3.9-44.9-23.8l-17.9 1.2c-12.9 3.2-9.4 18.2-11.2 28.4-1.4 3.2-4.3 5.6-4.1 9.5z"/>
			<path d="m1195.01665507 883.68274731c7.5 15 24 26.4 25.7 43.6 3.9-4.6 6.5-9.9 9.2-15-.2-4.9-5.8-4.9-8-8.7-2.2-6.3 1.2-11.9 2.2-17.5-3.2-9-10.7-17.5-19.2-22.8z"/>
			<path d="m1224.91665507 845.38274731 17.4 23.7c7.5-11.9 7.5-29.3 4.6-43.6-1.7-2.7-4.9-7-9.2-5.1-6.6 6.8-7.5 17.2-12.8 25z"/>
			<path d="m1153.71665507 181.88274731c6.4 3.2 12.4 6.1 19.9 6.6 5.2-2.7 11.7-4.6 18-2.9 9 5.8 19.9-1.3 30.3-.8-9.2-8.7-19.7-14-30.3-19.1-13.6 2.9-24.5 12.6-37.9 16.2z"/>
			<path d="m1248.61665507 204.68274731c12.8 1.2 22.1 12.6 30.8 22.1 10.9 1.7 19.2 9.4 25.7 17.5l-4.1-12.9c-2.9-12.9-10.9-22.8-19.2-33-11.6.8-23 1.7-33.2 6.3z"/>
		</g>
		<g fill="#f60">
			<path d="m343.51665507 98.38274731 7 .7c19 9.4 49.5 14.3 51.2 41.7-19.1 7.5-37.5 17.7-52.8 33.2-11.7-11.9-35.2-5.4-39.1-26.2 3.7-19.6 10.7-44.3 33.7-49.4z"/>
			<path d="m361.71665507 221.28274731c22.1-1.9 43.4 1.1 66.3-.7 5.5 2.4 11.3 7.2 14 12.8-.7 26.2-8.7 51.2-10 78-9.9 4.2-19.6 12.4-22 23.3-9 2.7-17 8-25.7 12.1-3.9-8.2-3.2-20.6 3.6-27.3 9.5-13.4 34-10.2 32-31.3 6.3-10.2.3-23.3.5-34-2.4-8-4.8 2.7-8.7 2.4-7.8 1.7-15.8 2.2-22.5-1.6-5.2-5.4-11.5-9.7-12.9-17-6.8-3.4-14.8-8.7-18.2-15.8z"/>
			<path d="m388.41665507 379.28274731c10.4 1.4 21.3-3.1 30.3 1.9-1.9 3.4-7 4.9-11.1 5.9l-16.3 7.5c-6.1-1.5-2.7-11.2-2.9-15.3z"/>
			<path d="m430.91665507 176.88274731c10.3-3.4 21.5-10.4 32.7-7-8 8-14.3 18.4-20.4 28.1l-33.2-.7c3.6-8.7 12.8-16 20.9-20.4z"/>
			<path d="m528.11665507 168.88274731c13.8-2.4 13.1 15.5 25.7 16.3 2.2 2.9 5.4 5.5 4.1 9.9-7.3 2.9-17.9 1.4-26.2 3.4-10.9-6.1-3.8-25-21.1-23.8-.9-1.4-2.9-4.3-.5-5.3 5.4-1.9 12.4-1.2 18-.5z"/>
			<path d="m519.41665507 233.88274731c6-8.5 15.3-9.2 24-10.9l62.8 1.2c2.7 2.4-2.4 4.6-2.4 7.5-3.9 3.6-9.5 4.6-12.9 8-8.2.3-7.5 9.9-13.3 14.1-9 8.9-22.1 4.8-32.5 3.4-3.7-2.7-7.8-6.4-9.5-10.5l-2.9 2.9c3.7 13.6 2.7 28.7 5.3 42.4l15 10c.3 22.3 26.5 16.2 37.9 28.6-2.7 8-8 14.8-13.8 21.6-9.2-9-19.6-14.8-30.8-18.7-.9-13.1-15.3-20.8-23.3-27.4-2.2-23.7-2.7-48-6.5-71z"/>
			<path d="m542.21665507 383.38274731h29.1l-3.7 15.3-29.1-12.4c-.7-2.4 2-3.1 3.7-2.9z"/>
			<path d="m594.51665507 108.78274731 21.6-6.8c12.4 5.8 24.1 13.1 35.4 21.3 9 16.6 7.5 38.8 3.4 57.2-6.5 7.3-20.8 0-26.2 11.6h-.9c-8.1-22.7-30.8-43.1-51.9-53.5 3.4-11.6 7-23 18.6-29.8z"/>
		</g>
		<path fill="#fff" d="m1100.41665507 1032.18274731h129.4c19.1-2.9 39.5-2.4 54.8-16.5 64.8 10 130.5-6 181.4-41.6 26.9-21.7 51-46.8 70.5-74.2 17.2-24.1 30.8-46.7 39.6-73.7 6.6-16.7 11.7-34 15.6-51.9 18.5-83.9 8.8-177.9-18.5-257.9q-7.6-22.2-17-42.8c-34.1-70.6-80.6-146.7-152.2-191.3-40.4-25.1-77.4-64-100.2-104.2-12.4-11.2-24.3-26-40.3-28.7 4.4 7.3 9.2 14.3 10.4 22.8l-.9 1.2c-17 .5-30.4-8.4-42-19.4l12.9-11.6c-4.9-2.4-10.5-3.4-15.8-4.6-49-5.6-89.3 16.9-132.6 27.9l-.8 2.4c26.7 11.8 32.3 41.2 47.8 61.1 3.9-4.7 10.4-1.3 15.8-1.8 7.7.5 15 6.1 22.5 4.2.2-6.6-3.4-11.6-4.6-17.4 4.6-2.3 10.2-.3 15.3 0 14 8.2 36.6-1.5 45.3 17.4-16 1-31 4.3-46 8 .9 6 7 10.9 6.5 17-12.9-5.4-26.4-8.7-40.8-10.5l-.6 2.2c18.2 21.3 43.1 33.9 68.6 41.5 36.6 8.4 68.8-9 104.2-2.9 86.9 39.7 161.1 130.6 193.4 216.9q2.3 6.3 4.5 12.6c27 78.8 32.1 175.7 5.1 257.9-14.4 34.2-30.3 66.4-55.7 94.3-9.6 11.8-20.3 22.3-31.8 31.3-36.5 28.3-81.3 40.8-127.6 28.1-2.8-1.9-8.7-2.5-7.8-7.5 1.7-6.8 3.2-13.7 4.5-20.6 7.7-39.5 11.2-80.9 9.2-122.3-.1-1.8-.2-3.6-.2-5.3-2.6-60.2-14.6-114.3-36.7-166.3-14.2-29.8-31-62.4-52.3-91.6-25.3-34.9-56.7-65-97.1-80-24.8-6.6-55.4-7.8-74 12.8-13.4 11.7-18.9 27.4-17 44.6-20.8 13.3-44.3 20.4-69.8 22.6-6.3.5-12.7 2.8-19.2 2.7-6.1.3-12.2 0-18-.7-30.8-3.8-61.9-20.3-85.5-39.3-.5-12.5-1.2-24.4-1.7-37.7-13.5-7.1-24.7-20.4-25.7-36.2l1.3-1.2c7.7 2.4 14.5 6.3 21.5 10.5-3.1-18.9-6.7-37.6-16.2-54.1-8.7-3.6-17.5-6.5-25.7-10.9-9.5-6.3-15.6-17.7-17-28.1 8.5 8.2 23.3 5.3 29.8 14-11.3-33.6-11.6-72.2-30.3-103-9.4-22.8-34.2-33.2-51.2-49.9-6.5-8-9.2-19.1-21.1-20.4-9.6-2.4-10.4-13.3-12.1-20.3 6.1.7 11.2 4.8 16.3 5.8-14.1-37.4-26.5-78.8-64.5-102.5l-6.6 4.1c-14.8 2.2-30.5 3.1-45.3 3.6 6.5-9.7 18.1-13.8 27.4-18.2-10.7-8-19.5-9.9-32.9-12.1-7.7 7.8-21.7 11.6-31.7 13.8l-1.1-.9c-.3-8.7-2.3-19.5 10.8-21.6-12.6-6.1-33.5-3.7-46.4 0-3.6 9.4-13.9 17.9-13.3 29-7.4 7.8-12.8 18.2-20.6 23.8-.2-18.7 7.7-35.9 11.1-51.6-10.9 4.1-22 9.9-32.6 15-17.2-9.9-35.4-19.9-53.8-27.3-1.7-.8-5.4-1.5-4.6 1.6 15.7 11.4 9.6 32.7 11.3 49l-9.9-8.2c-4.9-12.4-18.9-21.4-21.3-35-16.5 3.2-27 7.6-42.3 14.1l-2.1 1.2c11.3 0 21 9 26.6 17.9-17.2 1-32.5-5.8-49.4-7.4-1.7-1.8-3.2-3.7-5.9-3.4-8.5 3.1-15.7 9.2-23.3 15-16.7 16.5-33.7 34.7-41.7 56.5 5.6.9 12.7.7 16.8 4.1-9.2 5.6-17.2 15-26.2 20.4-3.2 12.6-2.7 26.9-3.4 40.7-7 10.6-16.5 20.1-21.1 32-15 48.7-18.9 102.7-16.7 158-4.9 4.6-11.2 7.6-15.8 11.2l.5 49.4h1.2c2.2-10.4 14.6-16.2 22.1-23.3h2.4c-1.2 11.2-2.6 22.3-2.9 33.7l-14.1 11.7c-14 12.3-2.1 30.9-3.3 46.5 1 4.1 1.6 10.2 4.6 11.1 1.7-6 7-10.4 10.4-15.7 6-1.5 11.4-6.3 16.9-7-3.1 12-7.2 23.9-12.1 35.6-2.3 1.5-5 3.6-7.4 6-2.4 2.7-4.4 5.7-4.9 9 10.9 57.5 28.1 114.2 47.7 168.2-13.3 22.5-20.9 49.1-32 72.4-1.6 3.2-3 6.5-4.4 9.9-11.1 28.2-14.5 59.7-28.4 86.8-5.5-3.9-11.6-6.8-17.9-9.5-26.2-8.7-56.5-3.1-75.6 17-17-3.2-34.5-.3-47.9 8.7-9.5 7.2-16.9 15.8-21.2 26-2.8 7-4.2 14.6-3.7 23-10.9 7.5-16.8 19.1-20.4 30.8-5.1 26.2 4.1 53.4 19.1 73.5z"/>
		<g fill="#f60">
			<path d="m1573.21665507 516.48274731q-7.6-22.3-17-42.9c-34.1-70.5-80.6-146.6-152.2-191.3-40.4-25.1-77.4-64-100.2-104.2-12.4-11.2-24.3-26-40.3-28.6 4.4 7.2 9.2 14.3 10.4 22.7l-.9 1.2c-17 .5-30.4-8.4-42-19.4l12.9-11.6c-4.9-2.4-10.5-3.4-15.8-4.6-49-5.5-89.3 17-132.6 27.9l-.8 2.4c26.7 11.9 32.3 41.2 47.8 61.1 3.9-4.6 10.4-1.2 15.8-1.7 7.7.5 15 6 22.5 4.1.2-6.5-3.4-11.6-4.6-17.4 4.6-2.2 10.2-.3 15.3 0 14 8.2 36.6-1.5 45.3 17.4-16 1-31 4.3-46 8 .9 6.1 7 10.9 6.5 17-12.9-5.4-26.4-8.7-40.8-10.5l-.6 2.2c18.2 21.3 43.1 33.9 68.6 41.5 36.6 8.5 68.8-9 104.2-2.9 86.9 39.7 161.1 130.7 193.4 217q2.3 6.2 4.5 12.5c27 78.8 32.1 175.8 5.1 257.9-14.4 34.3-30.3 66.5-55.7 94.3-9.6 11.8-20.3 22.3-31.8 31.3-36.5 28.3-81.3 40.8-127.6 28.1-2.8-1.9-8.7-2.4-7.8-7.5 1.7-6.7 3.2-13.6 4.5-20.6 7.7-39.4 11.2-80.9 9.2-122.3-.1-1.8-.2-3.5-.2-5.3-2.6-60.1-14.6-114.2-36.7-166.2-14.2-29.9-31-62.5-52.3-91.7-25.3-34.9-56.7-65-97.1-80-24.8-6.6-55.4-7.7-74 12.9-13.4 11.6-18.9 27.3-17 44.5-20.8 13.3-44.3 20.5-69.8 22.6-6.3.5-12.7 2.8-19.2 2.8-6.1.3-12.2 0-18-.8-30.8-3.8-61.9-20.3-85.5-39.2-.5-12.6-1.2-24.5-1.7-37.8-13.5-7-24.7-20.4-25.7-36.1l1.3-1.2c7.7 2.4 14.5 6.2 21.5 10.4-3.1-18.9-6.7-37.6-16.2-54.1-8.7-3.6-17.5-6.5-25.7-10.9-9.5-6.3-15.6-17.7-17-28.1 8.5 8.3 23.3 5.3 29.8 14.1-11.3-33.7-11.6-72.3-30.3-103.1-9.4-22.7-34.2-33.2-51.2-49.9-6.5-8-9.2-19.1-21.1-20.4-9.6-2.4-10.4-13.3-12.1-20.3 6.1.7 11.2 4.8 16.3 5.8-14.1-37.3-26.5-78.8-64.5-102.5l-6.6 4.1c-14.8 2.2-30.5 3.1-45.3 3.6 6.5-9.7 18.1-13.8 27.4-18.2-10.7-7.9-19.5-9.9-32.9-12.1-7.7 7.8-21.7 11.6-31.7 13.8l-1.1-.9c-.3-8.7-2.3-19.4 10.8-21.6-12.6-6-33.5-3.6-46.4 0-3.6 9.5-13.9 17.9-13.3 29.1-7.4 7.8-12.8 18.2-20.6 23.7-.2-18.6 7.7-35.8 11.1-51.6-10.9 4.1-22 9.9-32.6 15.1-17.2-10-35.4-19.9-53.8-27.4-1.7-.8-5.4-1.5-4.6 1.6 15.7 11.4 9.6 32.7 11.3 49l-9.9-8.2c-4.9-12.4-18.9-21.3-21.3-34.9-16.5 3.1-27 7.5-42.3 14l-2.1 1.2c11.3 0 21 9 26.6 18-17.2.9-32.5-5.9-49.4-7.5-1.7-1.7-3.2-3.7-5.9-3.4-8.5 3.1-15.7 9.2-23.3 15-16.7 16.5-33.7 34.7-41.7 56.5 5.6 1 12.7.7 16.8 4.1-9.2 5.6-17.2 15.1-26.2 20.4-3.2 12.6-2.7 26.9-3.4 40.7-7 10.7-16.5 20.1-21.1 32-15 48.7-18.9 102.8-16.7 158-4.9 4.6-11.2 7.6-15.8 11.2l.5 49.4h1.2c2.2-10.4 14.6-16.2 22.1-23.2h2.4c-1.2 11.1-2.6 22.2-2.9 33.7l-14.1 11.6c-14 12.3-2.1 31-3.3 46.5 1 4.1 1.6 10.2 4.6 11.2 1.7-6.1 7-10.5 10.4-15.8 6-1.5 11.4-6.3 16.9-7-3.1 12.1-7.2 24-12.1 35.6-2.3 1.5-5 3.6-7.4 6-2.4 2.7-4.4 5.8-4.9 9.1 10.9 57.4 28.1 114.1 47.7 168.1-13.3 22.6-20.9 49.1-32 72.4-1.6 3.3-3 6.6-4.4 10-11.1 28.2-14.5 59.6-28.4 86.7-5.5-3.9-11.6-6.8-17.9-9.4-26.2-8.7-56.5-3.2-75.6 16.9-17-3.1-34.5-.2-47.9 8.7-9.5 7.2-16.9 15.9-21.2 26-2.8 7-4.2 14.7-3.7 23-10.9 7.5-16.8 19.2-20.4 30.8-5.1 26.2 4.1 53.4 19.1 73.5h428.6c-6.3-7.4-12.1-17.9-16.5-26.8-9.2-13.9-2.9-33.5-3.9-49.5 8.8-17.6 17.6-35.3 27.6-52.6 2-3.4 4-6.8 6.1-10.2l19.7-7.5c10.4 0 19.2-7.5 29.1-4.9 13.3 13.4 13.3-13.3 26.2-14.5 30.1-3.9 59.9-1 76.8 24.5 0 3.4 5.4 3.4 4.2 6.5-3.9 1.2-7.5-1.2-11.6-1.2-18.5-4.6-40.1-16.3-58.2-5.8-.7 4.3-1.7 8.7-2.6 13.1-.9 4.6-1.7 9.2-2.1 13.5 11.9 3.4 21.8 11.9 30.8 21.1 6.1-11.9 18.9-17.2 30.3-21.1 10 2.2 20.9 2.4 29.2 8.7 15.2 14.1 7.7 38.1 6.3 56 13.8 7.8 29.1 12.2 43.1 19.7-6.6 5.8-15.2 8.2-23.2 11.2l-23.3-4.7c-2.7-1.9-7.3-1.9-8.3-5.3-7.7 8.2-17.2 19.1-22 29.8h332.2c-4.4-10-9.5-17.7-15.5-26.9-6.8-14.5-4.1-34.4-4.9-49.9l31.1-47.3c16.9-.2 36.1-6.6 54.5-3.4q1.4-.6 2.7-1.4c7.6-5.3 10-17.6 21.4-16.1 20.3-5.5 35.8 3.7 51.1 12.9-.5 1.2-1 2.3-1.5 3.2-6.4 10.2-18.4-1.2-27.1 1.9-3.7 3.8 1.7 8.4 2.4 12.8 3.1 4.4-3.2 3.9-5.3 4.6-5.1.7-10.7-.5-14.6-4.6-1-1.2-.2-2.6-2.1-2.9-4.5 7.3-10.8 13.8-12.4 22.1 5.5 5.3 13 10.6 15.7 17.5 5.6 8-4.4 14-6.3 21-.7 1.5-2.9 1.5-3.6 0-5.2-2.9-9.5-10.2-15.1-8.3-4.9 21.6 1.7 43.2-1.2 64.8 9.5 2.2 20.6-.5 30.8 0l4.1-45.6c4.4-29.5 21.9-54.3 42.5-76.9 22.2-15.2 36.6 14.9 53.1 25.3 2.6.5 1.7 3.4 2.9 5.1-.3 4.8-5.4 6.8-8.8 8.2-10.2 3.6-17.7-7.5-24-14.1-6 6.6-8.7 15.3-15.7 20.4l2.4.7c8 8.1 15.7 16.5 17.5 27.2-1 9.7-5.8 19.1-14.6 24-6.5-11.2-11.9-23.5-16.2-34.9.2.5-.3.7-.7 1.2-13.4 3.6-17 18.6-19.2 30.8.7 11.9-8.2 16.7-5.8 28.6h172.9c19.2-2.9 39.5-2.5 54.8-16.6 64.8 10 130.5-6 181.4-41.6 26.9-21.7 51-46.8 70.5-74.1 17.3-24.2 30.9-46.7 39.6-73.8 6.6-16.7 11.8-34 15.7-51.8 18.4-83.9 8.7-177.9-18.6-257.8z"/>
			<path d="m460.21665507 966.28274731c9.5-6 24.8-7.5 26.9-21.5-3.8-3-7.2-6.6-11.6-7.6l-9.9 2.9c.7-5.8 3.8-12.3 5.8-18.6l32-10.4c-4.4 14.5-6 32.7-7.5 49.4 2.9 24.7 6.5 51.2 19.2 71.7h-34.5c-3.9-22.7-27.7-39.2-20.4-65.9z"/>
			<path d="m534.71665507 937.18274731h1.9l23.3 21.1 3.4-.7c-1.9 24.7-3.1 49-3.4 74.6h-25.2c-5.1-23.9-13.6-49.2-12.6-75.1 4.3-6.5 7.2-14.8 12.6-19.9z"/>
			<path d="m586.61665507 960.48274731c4.6-6 6.5-16.2 15.7-17.4 6.6.2 12.7 1.2 17.6 5.8 8.4 10.6.1 24.3-2.9 34.9-3.5 16.3-9.3 33.2-14.6 48.5h-24.5z"/>
			<path d="m954.51665507 952.98274731c5.3 6.8 7 16 15 22.1 7.1-9.7 8.8-24.8 5.4-37.1l-7-7.1c8.9-2.1 18.4-2.9 27.4-4.6-3.9 12.9-11.2 24.5-10 39.5.3 21.9 3.9 43.7 5.8 66.4h-26.6c-9.7-21.3-19.5-41.6-18.7-66.4 2.9-4.3 4.8-9.4 8.7-12.8z"/>
		</g>
		<g fill="#fff">
			<path d="m1069.21665507 487.28274731c-.2 6.3-4.8 13.3-.7 18.7 5.9-6.6 15.5-6.3 23.3-9.2 21.6-2 42.2 4.8 62.3 9.7-5.1-8.1-8.5-17-14.1-24.3-11.1-2.9-28.1 4.9-30-11.6-6.8-5.8-17.5-1.7-24.5-1.2-6.8 4.8-12.4 10.9-16.3 17.9z"/>
			<path d="m328.01665507 277.98274731c-.1-.1-.2-.2-.4-.3 0 .1.1.2.1.3z"/>
			<path d="m416.21665507 493.48274731 14.5-14.1c1.3 0 2.2.3 2.9 1.2l-1.2 26.9c7.1 6.6 15.7 8.7 25 9.2.7-7.2 6.3-12.3 9.5-18.6 2.6-5.1.9-12.6 6.3-16.2l1.7 1.6c1.6 8.1 1.2 17 5.3 24 .5 3.9 1.2 8.7 1.6 12.1 10.7.5 20.5-2.4 28.7-6.3-.5-9.2 2.7-16.7 4.1-25.1 2.2-3-2.7-8.3 3.4-8.1 3.4 7.3 9.4 14.8 12.8 22.6 14.1-14.3 20-32.9 23.3-52.4-4.1-5.5-10.4-5.5-15.3-9.2-41.2-13.3-94.1-15.9-133.8 4.6-2.7 16.5.7 34.6 11.2 47.8z"/>
			<path d="m30.71665507 948.28274731c-1.5 18.7 0 36.2 1.2 54.6 3.9 6.1 10.9 13.1 18 13.6l1.2-12.4c2.9-17.2-6.3-35.5 3.4-50 6.8 2.1 13.6 5.6 19.4 8.7 2.9-16-1.2-34.7-16.5-44.4z"/>
			<path d="m90.61665507 922.08274731c-9.4 28.4-16.5 63.3-5.1 93.2 6.6-4.4 13.4-8.5 19.2-14.5-1.2-22.9-4.4-47.2 9.2-66.1 11.9 3.6 19.9 15 24.4 26.1 8.1-10.1 10.8-24.2 7.6-37.7.5-10.7-11.6-8.3-17.5-12.6 2-9 1.7-19.4 11.2-24.5l-29.1 2.9c-7.5 10.7-15.7 21.1-19.9 33.2z"/>
			<path d="m150.51665507 1005.88274731c1.2 2.1 0 6 2.5 6.5 3.6-20.4 20.1-33.6 29.1-51.5 4.3-6 4.1-14.6 11.1-19.1 9.5 0 16.3 6.7 25.5 7.5 2.9 2.2-1.5 4.1-1.7 6.5-1.9 16.5-8.2 30.2-7 47.2h1.6c12.9-13.6 21.6-28.3 31.1-43.8l1.6-13.8c2.3-16.5-15.7-27.1-27.4-33.9l10.5-13.4-14.6-5.1c-17 1.7-32.3 8.8-44.1 22.1-14.8 27.1-17.2 57.8-18.2 90.8z"/>
			<path d="m215.81665507 861.98274731c5.5 1.7 10.6-2.9 16.2-.5 22.3 8.3 45.6 16.7 62.3 35.4l19.9 50.7 10-31.4-6.6-16.9c-5.6-12.1-20.8-11.1-31.3-11.6-4.3-4.9.3-10.4 1.7-15 5.1-17.2-16-16.3-24.5-23.3.5-10.4-12.1-6.8-19.1-7.7l-2.4-2.9c-1.5-2.3-5.1-2.3-7.1-.6-.4-.7-1.4-1.2-.9-2.4l-5.3 1.2c-7.6 6.6-12.7 15-12.9 25z"/>
			<path d="m229.81665507 806.28274731c.8 3.1 2.7 6.2 5.1 8.2 10.9-2.9 21.4-10.5 34-5.8 16.2 14.3 33.2 29.3 52.9 37l7-1.2c4.3 1.5 9.2 1.7 12.1 6.6 2.7 6.5-4.1 10.4-6.3 15.7 10.9 8 6.6 22.3 13.4 32l17.4-23.2c-4.1-10.2.3-27.7-15.7-28.7-5.4-2.6-9-7.9-8.8-14-10.4-9.5-23.2-13.6-33.7-23.3-8.5-6.7-13.6-17.2-24.5-19.6-7.5-4.1-15.7-6.3-24.4-8.2-16.3-2.5-17.8 16.9-28.5 24.5z"/>
			<path d="m253.11665507 758.48274731 2.9 4.7c12.2-.8 23-6.1 34.9-5.9 8 4.8 18.5 4.6 26.7 8.7 6.6 9 13.6 19.1 23.3 25.2 19.6 2.9 30.5 24.1 37.3 39.5v-7.5c2.9-10.4-.3-22.5-4.1-32-4.8-4.8-11.9-8-17-12.3-1-3.2-.2-4.7.8-7.5-7.6-8-18.7-12.4-28-18.7-12.8-18.7-37.5-13.6-57.2-18.7z"/>
			<path d="m252.71665507 580.68274731c2.2 7.5 4.8 17 6.3 25 6.7-15 20.1-21.8 32-34.2-6.8-4.6-15.3-6.8-22.8-8.2v-.5c-5.4 5.3-13.6 10.7-15.5 17.9z"/>
			<path d="m296.81665507 660.48274731 10.9-11.2c10.9-11.2 19.9-24 21.5-38.3-7.7-4.6-17.9-1.4-25.4 1.2-2.7 15.7-6.8 31.3-7 48.3z"/>
			<path d="m304.81665507 694.68274731c16.7.9 33 4.3 46.5-5.2l13.7-43.6c-4.5-.2-8.8-2.2-12.9-.7-9 19.8-26.9 39.5-47.3 49.5z"/>
			<path d="m309.71665507 539.98274731c10.9 16 29.1 33.9 47.7 39-2.1-20.4-19.6-34.4-28.6-51.8l-.5-5.9c-7-6.7-15.5-11.4-22.8-15-1.1 11.6 2 22.8 4.2 33.7z"/>
			<path d="m368.81665507 696.58274731c12.8 2.1 26.7 0 38.6-3.7 17.2-4.1 26.6-23 32.4-37.8h-21.5l-23.3 22.8c-9.2 4.8-17.9 12.1-26.2 18.7z"/>
			<path d="m366.21665507 517.88274731c3.6 19 11.7 36.2 22.6 52.4l2.8-36.1z"/>
			<path d="m445.71665507 612.18274731c1.5-12.1-3.6-26.2-5-38.5-7.3-4.9-17.5-4.4-25-9.2.5 19.1 15.4 35.4 30 47.7z"/>
			<path d="m423.61665507 735.28274731c15.3-4.8 30.1-10.1 44.2-17.9 9-12.9 22.5-24.5 24.5-39.5-11.2 3.2-20.9-.5-31.3 4.6-6.3 11.4-10.2 24.3-22.3 32.5-2 8.2-11 13.8-15.1 20.3z"/>
			<path d="m447.41665507 765.18274731 18.2 23.7c9.7 3.1 21.8 2.2 30.3-3.4l-6.5-21.5c-12.9 4.8-28.2 3.4-42 1.2z"/>
			<path d="m477.71665507 593.58274731 7 31.9c17-13.7 20.5-33.9 20-55.2-9.7 11.2-15.3 17.9-27 23.3z"/>
			<path d="m525.51665507 649.98274731c.2 4.6 1.4 9 4.1 12.6 18.9 6.8 20.8 29.8 38.3 38.5 11.4 5.2 24.5-1.2 34.4-5.8-7.5-8.5-15.9-14.3-23.2-23.2-5.1-2.2-10.3-5.4-10-11.7z"/>
			<path d="m540.51665507 764.48274731c8.2 9.4 19.4 14.2 31 16.9-1.9-2.7 1.3 0 1.7-1.7l-14.5-32c-7.3.3-14.9 1.7-21.6 1.2.5 5.4 1.7 10.7 3.4 15.6z"/>
			<path d="m566.21665507 615.08274731c-6.8-15.7-9.6-34.9-11.6-52.3-7.2 8.7-14.7 14.3-21.6 23.2-3.1 18 22.6 22.3 33.2 29.1z"/>
			<path d="m595.81665507 598.58274731c8.8 11.5 27.9 7.6 38.6 4.2-5.1-8.8-21.6-13.9-24.5-23.3-1.6-16.7-5-33-10.4-48.2-8.5 20.6-18.7 45.1-3.7 67.3z"/>
			<path d="m611.11665507 649.98274731c24.2 17.7 48 38.3 81.9 30.8 2.5-1.7 6.6-1.5 7.1-4.6-10-6.3-20.6-11.2-30.8-17l-11.6-16.9h-5.4c-13.1 4.3-27.1 6-41.2 7.7z"/>
			<path d="m611.61665507 846.58274731h1.7c14.5-11.7 31.8-15.6 49-20.4 4.6 1.7 1.7 6.8 5.8 8.7 10.4-4.3 23.1-3.3 33.7-7 12.9.5 23.3.7 33.7 6.3 8.3 10.9 23.8 9.7 34.5 17l-1.7-17c-22.6-26.4-57.7-28.3-90.2-27.8l-.8-3.4c-7.7 0-16.4 1.6-23.7 5-10.4.5-20.4 5.6-30.3 8.7-4.7 9.3-8.3 20.5-11.7 29.9z"/>
			<path d="m631.11665507 548.68274731c9.4 12.4 23.5 21.9 39.5 18.7-8.2-8-17.7-16.5-18.2-27.9 2.4-21.6-21.3-23.3-33-34.4 3.9 14.5 3.4 30.8 11.7 43.6z"/>
			<path d="m628.61665507 889.48274731h2.9c12.8-8 31.5-1.9 44.1-10.4 7-3.7 7.5 6 12.4 8.7 11.9 7.2 13.3 29.1 30.1 24 20 10.4 15 34.9 15.7 52.8l18.7-11.6c-1.7-9.5 3.7-20.9-2.4-29.1-4.7-10.4-17.3-11.4-23.3-19.8 7.3-12.4-9.2-18.3-12.7-27.2l1.1-1.2 25.7 3.4c8.7 5.3 11.9 15 14.5 24 20.1 3.4 25 26.1 32 40.7 4.2-9.9 5.8-20.6 10-30.3.2-8-10.5-8-15.8-11.7-1.4-12.3-7-23.9-17.9-31.4-22.3-5.7-42-18-66.5-18l-20.3 6.3c-11.2 2.7-23.1-.7-31.6 7-12.6 1-13.6 14.8-16.7 23.8z"/>
			<path d="m641.41665507 789.58274731 4.6 2.2c10-4.6 19.9-9.9 30.4-13.8 16.2-4.6 28.8 13.8 42.4 2.2 5.1-3.6 9.5 1.7 13.3 4.6 5.9 10.7 19.4 9.9 29.6 12.8-5.1-13.8-11.4-32.7-29.1-34.9-7-3.1-15.3-2.9-22-7-18.7-20.6-30.8 17-51.3 7.8-7.2 7.9-16.2 15.5-17.9 26.1z"/>
			<path d="m646.01665507 907.68274731c7.8 6.5 15.8 17.7 27.9 16.2 15.1 7 8.8 26.9 17 37.4l8.7-7.8-.7-.5 1.2-1.2.5.7c2.4-7.3-1-20.1-5.1-28.6-5.6-3.9-12.1.2-17.5-3.4-.7-7.8-5.5-11.7-11.1-16.5-3.9-2.9-9 1-13.4.7z"/>
			<path d="m676.41665507 612.18274731c7.9 13.3 23.5 21.6 35.8 30.8 10.3 4.6 23.6 5.8 34.5 3.4-10.5-8.5-19.9-18.2-28.6-28.4-3.4-4.8-4.2-10.9-8.8-15.3-11.4 2.2-24.2 2-32.9 9.5z"/>
			<path d="m689.71665507 525.48274731c11.2 13.8 28.4 8.2 44.2 8.7v-1.7l-24.3-20.4c-6.8 2.2-14 8.3-19.9 13.4z"/>
			<path d="m243.31665507 296.88274731 14 43.6c-.3-24.7 11.2-45.3 8.8-70.5l10.4-15.5-22.1 6.8c-5.8 11.1-10.7 22.3-11.1 35.6z"/>
			<path d="m252.71665507 221.28274731 19.2-11.2v-28.3c-8.1 4.8-12.4 13.1-18.7 19.6z"/>
			<path d="m646.11665507 265.38274731c-4.6 6-11.6 7.5-17.5 8.7 10.2-18.6 15.1-44.6 7.1-65.7 5.3-1.9 11.1-2.9 16.2-5.8l-.5-.5 13.3-11.6c17.7-12.2 10.9-35.2 17.5-52.4-8.7-13.5-11.4-30-24-41.4l.7-.5c-9.9-12.6-27.9-11.1-41.5-17.4-17.9-6.1-31.7 6.3-44.6 14.5-5.6 1-2.2 8.2-8.2 8-3.4 8.9-7.6 18.6-10 28.6-24-3.4-50-.7-69.1 12.8-10.2-7.5-22.6-8.9-34.5-12.3-8.7-1.8-18.6 1.4-24.9-3.4-9.2-10.4-11.2-29.4-27-32-5.6-2-6.7-8-6.7-13.4-10.5-1.7-19.7-6.5-29.9-8.7-15.5-7-27.8 4.2-39.5 11.6-5.1 2.2-10.9 2.9-15.8 5.8-8.7 13.6-16.9 27.4-22.5 42.5 1.7 12.3 7 23.2 13.3 33.7 5.6 15.7 23.1 28.1 37.9 34.4-7.1 24-7.1 52.5 0 76.8 0 0-.4.3-.4.2 0 .1-.8.8-.8.8-2.3 0-4.8.4-6.7-.8h-.3c3.4 23.2 14.3 43.5 31.9 60.9 6.4 2.2 4.9 9.7 7.5 14.5 1.7 2.2 2 6.8 1.3 8.7-37.9-1.2-71.6 8.3-101.9 25.5-7.8 3.9-4.4 14.5-5.1 22.1 21.3-14.1 44.4-24.5 69.8-29.1 10.9-.7 23.3-3.4 33.8-.5l1.1 20.9c-28.8 15-60.3 23.7-85 48.4.4 7.5-1 16.2 1.2 22.5l22.1-17.9c21.3-16.2 43.6-30 68.1-39 6.6 7.7 13.3 16 22.1 20.8 14.7-9.4 30.8-16.5 47.8-20.8 8.9-5.3 23.3-.5 29.1-11.1l4.1-22.1c-.7-.5-1.2-1.5-2.4-1.2-11.4-6.6-19-18-18-31.3-3.9 1.9-8.2 3.2-12.8 3.4-3.9-1-7.6-2-9.2-5.9-.3-4.8-2.7-12.1 2.2-15.7 15.7-9.7 36.1-10.2 56-8.7 14.7 2 36.1 1.2 41.2 18.7-.7 5.1-.2 10.7-5.3 14-5.4 2.9-11.4-.2-16.3-2.4-3.8 11.9-10.4 25.2-23.7 29.1l1.6 14c1.7 6.3 2.2 16.7 12.2 14.5 23 5.7 43.4 17.5 63.5 30.3 6.8-6.7 12.1-14.5 17-21.5 35.9 12.1 66.9 39 96.5 64l1.2-20.4c-28.1-25-59.4-42.6-91.9-56.4 1.2-6.6 2.7-12.9 2.9-19.9 38.6 2.2 75.2 14 106.9 32.7l-.4-17.5c-33.5-17.9-70.1-29.8-110.1-30.2-1.5-2.2-2-5.4-1.7-7.6 19.4-3.1 33.2-23.2 37.8-40.7 10-11.4 24.3-23.7 20.9-40.7.4-1.4.9-2.9 1.4-4.4 1.3-4.1 2.4-8.6 1-12.5z"/>
			<path d="m679.81665507 327.68274731 19.9-6.3 2.2-11.1c5.6-16.3-6.3-28.4-12.2-41.3z"/>
			<path d="m730.01665507 404.48274731c9.4 10.4 18.7 27.1 35.4 22.1-1.2-7.1-5.1-12.9-7.5-19.2-4.4-5.1-5.9-19.6-14.6-14.5-6.5-4.4-8.2-11.7-12.4-17.5-1.9 9-.7 20.1-.9 29.1z"/>
			<path d="m733.41665507 475.48274731c3.6 5.1 4.6 11.7 8.2 16.3 6.6 4.3 16.3 3.6 24.3 2.9 7.3-1.7 11.9 6.2 18.7 1.6-8.5-5.3-13.6-15-21.6-22-9.5-7.5-19.7-.9-29.6 1.2z"/>
			<path d="m746.31665507 588.18274731c16.7 10 37.9 19.7 60.3 16.3 2.4-1.2 6.5-1 7-3.9-13.8-4.9-28.3-18.7-42.9-21.6-8-12.3-18.4 3.2-28.6 2.2.2 2.9 3.1 5.1 4.2 7z"/>
			<path d="m796.61665507 802.18274731 3.7 7.8c3.6 25.2 19.6 48.4 10.9 76.1 7.3 5.1 9.4 13.6 14.1 20.4h1.2c5.5-21.1 1.7-42.9-1.2-64 2.1-19.2-17.3-30.3-28.7-40.3z"/>
			<path d="m800.81665507 554.08274731c12.6 9.7 32.7 10.6 47.3 5.8-9.2-5.1-19.4-10.7-27-17.5z"/>
			<path d="m860.71665507 628.38274731c-1.2 10.2 5.5 18.7 12.8 23.8 2.7-6 7-11.2 7.5-17.9-2.2-10.4-8-19.9-17.5-26.9-1.6 6.7-3.6 13.3-2.8 21z"/>
			<path d="m861.41665507 738.98274731c-1.7 11.4 10.9 12.8 16.2 19.1 4.4 5.4-2.9 9-2.9 14.1 9.2 11.9 14.6 25.4 14.6 41.2 3.6-14.8 9.2-28.9 11.1-44.1-1-10.7-17.9-8.5-15.3-20.4 4.9-12.1-.9-23.9-4.1-34.9-.9-1.7-3.1-5.1-5-4.1-4.4 9.9-15.3 17-14.6 29.1z"/>
			<path d="m894.61665507 681.28274731 12.6 24.5c5.6-.8 9.2-6.1 13.6-10 3.4-10.2-5.6-16.7-8.2-25-2.3-5.8 0-13.5-4.2-18.6-3.2-2-6.8-5.1-10.4-4.1z"/>
			<path d="m910.81665507 616.78274731c10 6.1 21.4 14.8 26.7 25.5 8.5 24.7 22.1 46.9 32 71 3.7 16.7 6.6 31.6 11.2 48.1 1.7 4.3.7 12.8 7.5 12.1 1.9-18.4 5.6-36.1 5.8-55.3-6-8-14-11.3-21.6-16.2v-1.7c1-4.1 4.4-9 9.5-8.2 2.2-2.4 8.7-4.9 5.8-9.2-12.6-12.6-11.9-34.3-31.9-38.2-7.1-2.9-8.8-10.2-9.5-16.9-9.5-8.1-23.5-10.7-35.5-11z"/>
			<path d="m922.51665507 748.18274731c12.4 11.4 8 27.9 7.1 43.1-2 9.3 9.6 3.9 13.3 8.8 7.5 11.1 3.2 27.4.5 39.5 6.6-10 14.1-18.7 19.1-29.6-.2-4.1 5.1-6.1 4.9-11.2 2.2-7-6-3.9-9.5-4.6-2.9-.7-6-2.7-5-6.5 6.2-12.2.4-26.7-2-38.8-2.9-10 1.3-23.3-3.4-32-7.8 10.7-30.9 13.1-25 31.3z"/>
			<path d="m945.01665507 576.08274731c21.7 21.9 37.4 43.8 60.7 64.9.5-9.5-.7-18.2-1.2-27.4-3.4-6.6-9.7-11.4-15.1-16.3-17.2-1.7-26.2-24.8-44.4-21.2z"/>
			<path d="m1001.51665507 691.58274731c.5 2.2 1.5 4.1 2.5 6.3 9.4 15.5 18.4 31.5 25 48.2-2-17.9 10.1-40.2-5.9-54-2.1-5.9-9.4-3.9-14-3.4z"/>
			<path d="m1059.81665507 868.58274731c6.7 3.2 15.5-2.4 22-6.3 6.1-1.4 11.2 2 15.8 5.2 1.9 3.8 0 7.5.7 11.1 14.6 4.1 28.9 9.5 41.7 17.9l4.1-4.1c1-10.4-7.2-17.9-15-23.8-5.1-2.9-12.6-1.1-16.2-5.8 2.4-3.8 2.4-9.7 2.1-14-8 0-13.1-2.5-19.6-6.3-4.1-1.2-7.8-4.7-11.2 0-12.1 8.2-12.8 20.3-24.4 26.1z"/>
			<path d="m1076.81665507 563.68274731c6-1.8 12.3-3.5 17.4-7.8 16.3-14.8 39.8-4.9 58.7-5.1-3.6-6.6-8.7-13.1-13.3-18.7-6.8-2.7-13.1-5.8-20.9-5.8-16.5-9.7-27.6 6.6-40.3 14.5-3.4 6.6-5 16.3-1.6 22.9z"/>
			<path d="m1077.21665507 613.58274731c0-.8 0-1.5.7-1.7 2.2 1.9-.2 6.6 3.4 7.5 6.3-3.2 12.2-7.5 18-11.6 16.2 0 25.9-15.8 41.9-15.8 26.7 4.9 53.2 10.2 76.4 23.3-1.7-15.7-15.3-30.1-29.1-37.1-7.8-2.7-13.8 1.4-19.4 5.8-16.2 10.2-7.7-14.8-19.1-15.3-14.8 4.6-30.1 9.7-46.6 8.2-9.7 3.7-16.5 12.7-27.4 11.7-.5 8-1.7 17.7 1.2 25z"/>
			<path d="m1088.41665507 667.58274731c5.1 5.4 13.5 4.4 20.9 5.4l21-8.3c.3-3.8-6.3-4.9-4.8-9.2 5.8-6.6 13.8-1.9 21.1-4.6 10.2-1.5 20.6-11.6 30.8-4.1-.3 1.2.4 2.9-.5 4.1-3.2 7.5 2.1 12.1 8 15 11.9 2.2 23 13.1 34.9 8.2-1.2-9.9-3.9-19-6.3-28.5-9.9-1.7-17-10-26.2-13.4-4.1 3.9-9.5 6.8-14.6 6.3-18.6-4.4-41-16-59.9-4.1-6.8 8.3-18.9 5.8-28.1 9.4.5 8.3 1.5 16.3 3.7 23.8z"/>
			<path d="m1096.41665507 811.68274731c-1.5 4.1-5.6 10.9 2 12.8 15.5.5 35.4-7.5 47.5 4.6 4.1 3.2 2.1 9.7 1.9 13.9l20.4 16.9c1.9-10.2 5.6-19.4 5.8-30.3-1.7-7.8-5.6-15.3-12.3-20.3-13.4 0-21.1-15.7-35.5-13.7-7.5-1.7-14 5-21.6 5-3.3 3.3-5.3 7.5-8.2 11.1z"/>
			<path d="m1102.21665507 697.38274731c3.1 6.6 6.8 17.2 12.9 17.9 14.3-6.2 35.2-10.1 51.1-3.3 5.4.9 5.4 7 4.2 10.9 8.2 4.8 18.2 8.7 26.9 14l-2.4-14.6c-.5-15.7-20.4-17.1-21.6-32.7-16.3-5.3-34.5-7-51.7-2.9-5.6 5.1-13.6 4.4-20.3 5.9-.5 1.9.6 3.1.9 4.8z"/>
			<path d="m1106.31665507 775.98274731c9.5-2.7 15.6-13.1 25.8-14.1 15.5.2 29.3 6.6 39 19.9 5.8 3.8 4.6 13.8 12.1 13.8-2.2-11.9 1.7-22.8 1.2-34.9-10.1-17-35.4-3.9-44.8-23.8l-18 1.2c-12.8 3.2-9.4 18.2-11.1 28.5-1.5 3.1-4.4 5.5-4.2 9.4z"/>
			<path d="m1195.41665507 881.98274731c7.5 15 24 26.4 25.7 43.6 3.8-4.6 6.5-9.9 9.2-15-.3-4.9-5.9-4.9-8-8.8-2.3-6.2 1.1-11.8 2.1-17.4-3.1-9-10.7-17.4-19.1-22.8z"/>
			<path d="m1225.21665507 843.68274731 17.4 23.8c7.5-11.9 7.5-29.4 4.6-43.7-1.6-2.7-4.8-7-9.1-5.1-6.6 6.8-7.6 17.2-12.9 25z"/>
			<path d="m1154.11665507 180.28274731c6.3 3.1 12.4 6 19.9 6.5 5.1-2.7 11.7-4.6 18-2.9 8.9 5.8 19.9-1.2 30.3-.7-9.2-8.7-19.7-14.1-30.3-19.2-13.6 2.9-24.5 12.6-37.9 16.3z"/>
			<path d="m1248.91665507 202.98274731c12.9 1.2 22.1 12.6 30.8 22.1 10.9 1.6 19.2 9.4 25.7 17.4l-4.1-12.8c-2.9-12.9-10.9-22.8-19.1-33-11.7.7-23.1 1.7-33.3 6.3z"/>
		</g>
		<g fill="#f60">
			<path d="m343.91665507 96.68274731 7 .8c18.9 9.4 49.5 14.3 51.2 41.6-19.2 7.6-37.6 17.7-52.9 33.2-11.6-11.8-35.1-5.3-39.1-26.1 3.7-19.7 10.7-44.4 33.8-49.5z"/>
			<path d="m362.11665507 219.58274731c22.1-1.9 43.4 1.2 66.2-.7 5.6 2.4 11.4 7.2 14.1 12.8-.8 26.2-8.8 51.2-10 78.1-9.9 4-19.6 12.3-22.1 23.2-8.9 2.7-17 8-25.7 12.1-3.8-8.2-3.1-20.6 3.7-27.4 9.4-13.3 34-10.2 32-31.3 6.3-10.1.3-23.2.5-33.9-2.5-8-4.9 2.7-8.8 2.4-7.7 1.7-15.7 2.2-22.5-1.7-5.1-5.3-11.4-9.7-12.9-17-6.8-3.3-14.7-8.7-18.2-15.7z"/>
			<path d="m388.81665507 377.58274731c10.3 1.5 21.3-3.2 30.3 1.9-1.9 3.5-7.1 4.9-11.2 5.9l-16.3 7.5c-6-1.5-2.6-11.2-2.8-15.3z"/>
			<path d="m431.21665507 175.18274731c10.4-3.4 21.6-10.4 32.7-7-8 8-14.3 18.4-20.3 28.1l-33.2-.7c3.6-8.8 12.8-16 20.8-20.4z"/>
			<path d="m528.51665507 167.28274731c13.8-2.5 13 15.5 25.6 16.1 2.3 2.9 5.4 5.6 4.2 10-7.3 2.9-18 1.5-26.2 3.4-11-6.1-3.9-25-21.1-23.8-1-1.4-2.9-4.3-.5-5.3 5.3-1.9 12.4-1.2 18-.4z"/>
			<path d="m519.71665507 232.18274731c6.1-8.5 15.3-9.2 24-10.9l62.9 1.1c2.6 2.5-2.5 4.7-2.5 7.6-3.8 3.6-9.4 4.6-12.8 8-8.3.2-7.5 9.9-13.3 14.1-9 8.9-22.2 4.8-32.6 3.4-3.6-2.7-7.7-6.4-9.5-10.5l-2.9 2.9c3.7 13.6 2.7 28.6 5.4 42.5l15.1 9.9c.2 22.3 26.4 16.2 37.8 28.6-2.7 8-8 14.8-13.8 21.6-9.2-9-19.7-14.8-30.8-18.7-1-13-15.3-20.8-23.3-27.4-2.2-23.7-2.7-48-6.5-71z"/>
			<path d="m542.51665507 381.68274731h29.2l-3.7 15.3-29.2-12.4c-.6-2.4 2-3.1 3.7-2.9z"/>
			<path d="m594.91665507 107.08274731 21.6-6.7c12.4 5.8 24 13 35.4 21.3 9 16.4 7.5 38.7 3.4 57.2-6.6 7.2-20.9 0-26.2 11.6h-1c-8-22.8-30.8-43.2-51.9-53.5 3.4-11.7 7.1-23.1 18.7-29.9z"/>
		</g>
	</g>
</svg>