<svg id="svg1" version="1.2" viewBox="0 0 1545 659" xmlns="http://www.w3.org/2000/svg">
	<style id="style1">
		.s0{fill:#eb1700}
	</style>
	<path id="Layer" fill-rule="evenodd" d="M 416.5,450.2 C 416.5,568 357.8,658.1 208.2,658.1 58.2,658.1 0,568 0,450.2 v -38.5 l 111.1,-28.2 v 86.4 c 0,82 29.1,129.9 97.1,129.9 68.1,0 96.8,-44.8 96.8,-120.5 V 13.9 h 111.5 z" class="s0"/>
	<path id="path460" fill-rule="evenodd" d="m 747.4,0 c 107.5,0 168.9,54.2 168.9,122.3 0,47.9 -29.2,82 -97.2,119.2 l 1.8,3.5 c 27.7,-10.7 70.3,-21.9 107.9,-21.9 71.6,0 117.3,46.1 117.3,114.7 0,54.6 -27.7,117.8 -76.1,175.6 l 114.6,126.7 v 4.5 H 944 L 889.8,585.9 C 823.6,633 750.1,659 687,659 577.7,659 506.9,581.5 506.9,488.7 506.9,418.9 547.2,350.3 635,307.8 L 634.1,306 C 582.2,249.5 562.5,202.5 562.5,155.9 562.5,69.4 623.4,0 747,0 Z m 223.4,386.1 c 0,-73 -44.7,-115.1 -117.3,-115.1 -25.5,0 -56,4.5 -87.3,17 l 176,194.5 c 19.7,-30.5 28.6,-63.6 28.6,-96.4 z M 828.9,134.4 c 0,-56 -32.3,-86.5 -84.2,-86.5 -52,0 -85.1,29.6 -85.1,81.6 0,28.2 9.4,51.5 43.9,89.1 l 38.5,43.5 c 61.8,-27.8 86.9,-76.6 86.9,-127.7 z m 34.5,422 -202.9,-222.7 c -34,24.7 -54.6,67.7 -54.6,114.7 0,74.4 52.8,144.7 138.8,144.7 38.5,0 80.6,-14.3 118.7,-36.7 z" class="s0"/>
	<path id="path462" fill-rule="evenodd" d="m 1545,450.2 c 0,117.8 -58.2,207.9 -208.2,207.9 -149.6,0 -208.3,-90.1 -208.3,-207.9 v -39 L 1240,383.5 v 86.4 c 0,82 28.7,129.5 96.8,129.5 68,0 97.1,-44.8 97.1,-120.5 V 13.4 H 1545 Z" class="s0"/>
</svg>