<svg viewBox="0 0 1467.4 174.3149" xmlns="http://www.w3.org/2000/svg">
	<style id="style1">
		.s0{fill:#ff8000}
	</style>
	<path id="path1" d="M 817.6,75.4 V 64.1 c 0,-0.7 -0.3,-1.3 -0.8,-1.8 -0.5,-0.5 -1.2,-0.7 -1.8,-0.8 h -62.2 c -0.7,0 -1.4,0.3 -1.9,0.8 -0.5,0.5 -0.8,1.2 -0.8,1.9 v 11.1 c 0,0.7 0.3,1.4 0.8,1.8 0.5,0.5 1.1,0.8 1.8,0.9 h 20.4 c 0.3,0 0.7,0.1 0.9,0.4 0.3,0.2 0.4,0.5 0.4,0.9 V 143 c 0,0.7 0.3,1.4 0.8,1.9 0.5,0.5 1.1,0.8 1.9,0.8 h 13.5 c 0.7,0 1.4,-0.3 1.9,-0.7 0.4,-0.5 0.7,-1.2 0.7,-1.8 V 79 q 0.2,-0.5 0.5,-0.8 0.4,-0.2 0.8,-0.3 H 815 c 0.7,0 1.3,-0.3 1.8,-0.7 0.5,-0.5 0.8,-1.1 0.8,-1.8 z" class="s0"/>
	<path id="path2" d="m 852.3,90.8 c -2.2,-2.6 -5,-4.6 -8.2,-5.8 -4.2,-1.4 -8.7,-2.1 -13.1,-2 -4.8,0 -9.5,0.8 -14,2.4 -3.6,1.2 -6.9,3 -9.8,5.3 -0.5,0.5 -0.8,1.2 -0.7,1.9 0,0.7 0.3,1.3 0.8,1.8 l 5.6,5.7 q 0.4,0.4 0.9,0.6 0.5,0.2 1.1,0.2 0.5,0 1,-0.2 0.5,-0.2 0.9,-0.6 2.1,-1.8 4.6,-3.1 c 2.5,-1.2 5.3,-1.8 8.1,-1.8 3,-0.1 5.9,0.9 8.2,2.8 2.1,1.7 3.2,4.8 3.4,9.8 q -0.1,0.5 -0.5,0.8 c -0.2,0.3 -0.6,0.4 -0.9,0.4 -2.1,0 -4.4,0 -6.7,0.1 q -4.5,0.1 -8.8,0.7 -4.3,0.6 -8.5,1.9 c -2.6,0.7 -5.1,1.9 -7.3,3.5 -2.1,1.5 -3.9,3.4 -5.1,5.7 -1.3,2.6 -2,5.5 -1.9,8.4 0,2.7 0.5,5.4 1.7,7.8 1.1,2.1 2.7,4 4.6,5.5 2,1.6 4.3,2.7 6.7,3.4 2.5,0.8 5.2,1.2 7.8,1.2 3.6,0 7.2,-0.7 10.6,-2 2.6,-1.1 4.9,-2.8 6.6,-4.9 h 0.2 q 0.3,-0.1 0.6,-0.1 0.3,0.1 0.5,0.3 0.3,0.3 0.3,0.7 v 2.1 c 0.1,0.6 0.3,1.3 0.8,1.8 0.5,0.4 1.2,0.7 1.9,0.8 h 11.4 c 0.7,-0.1 1.3,-0.4 1.8,-0.8 0.5,-0.5 0.8,-1.2 0.8,-1.9 v -26.7 q 0,-8.2 -1.2,-16.3 c -0.7,-3.3 -2.2,-6.5 -4.3,-9.2 m -11.1,33.2 c 0.1,1.6 -0.3,3.3 -1.1,4.7 -0.8,1.4 -1.9,2.5 -3.1,3.4 q -2.1,1.3 -4.4,2 -2.5,0.7 -5.2,0.7 c -2,0 -4,-0.5 -5.8,-1.5 -0.8,-0.5 -1.6,-1.2 -2.1,-2 -0.4,-0.9 -0.7,-1.8 -0.6,-2.8 -0.1,-0.9 0.1,-1.7 0.4,-2.5 q 0.6,-1.3 1.6,-2.1 c 1.4,-1.2 3,-2 4.8,-2.5 q 2.9,-0.9 5.9,-1 3.1,-0.2 5.1,-0.2 h 3.1 c 0.4,0 0.7,0.1 1,0.4 0.2,0.2 0.3,0.6 0.3,0.9 z" class="s0"/>
	<path id="path3" d="m 1032.3,90.8 c -2.2,-2.6 -5,-4.6 -8.2,-5.8 -4.2,-1.4 -8.6,-2.1 -13.1,-2 -4.7,0 -9.5,0.8 -14,2.4 -3.5,1.2 -6.8,3 -9.8,5.3 -0.5,0.5 -0.7,1.2 -0.7,1.9 0,0.6 0.3,1.3 0.8,1.8 l 5.6,5.7 c 0.6,0.5 1.3,0.8 2,0.8 0.7,0 1.4,-0.3 1.9,-0.8 q 2.1,-1.8 4.6,-3.1 c 2.5,-1.2 5.3,-1.8 8.2,-1.8 2.9,-0.1 5.8,0.9 8.1,2.8 2.1,1.7 3.3,4.8 3.4,9.8 q -0.1,0.5 -0.4,0.8 c -0.3,0.3 -0.6,0.4 -0.9,0.4 -2.1,0 -4.4,0 -6.8,0.1 q -4.4,0.1 -8.8,0.7 -4.3,0.6 -8.5,1.9 c -2.6,0.7 -5.1,1.9 -7.3,3.5 -2.1,1.5 -3.8,3.4 -5.1,5.7 -1.3,2.6 -1.9,5.5 -1.8,8.4 -0.1,2.7 0.5,5.4 1.7,7.8 1,2.1 2.6,4 4.5,5.5 2,1.6 4.3,2.7 6.7,3.4 6.1,1.8 12.6,1.5 18.5,-0.8 2.6,-1.1 4.8,-2.7 6.6,-4.9 h 0.2 q 0.3,-0.1 0.6,-0.1 0.3,0.1 0.5,0.3 0.3,0.3 0.3,0.7 v 2.1 c 0,0.6 0.3,1.3 0.8,1.8 0.5,0.4 1.2,0.7 1.8,0.8 h 11.4 c 0.7,-0.1 1.4,-0.4 1.9,-0.8 0.5,-0.5 0.7,-1.2 0.7,-1.9 v -26.7 q 0.1,-8.2 -1.1,-16.3 c -0.7,-3.3 -2.2,-6.5 -4.3,-9.2 m -11.2,33.2 c 0.1,1.6 -0.3,3.3 -1.1,4.7 -0.8,1.4 -1.8,2.5 -3.1,3.4 q -2.1,1.3 -4.4,2 -2.5,0.7 -5.1,0.7 c -2.1,0 -4.1,-0.5 -5.8,-1.5 -0.9,-0.5 -1.6,-1.2 -2.1,-2 -0.5,-0.9 -0.8,-1.8 -0.7,-2.8 -0.1,-0.9 0.1,-1.7 0.4,-2.5 0.4,-0.9 0.9,-1.6 1.6,-2.1 1.4,-1.2 3,-2 4.8,-2.5 q 2.9,-0.9 5.9,-1 3.1,-0.2 5.1,-0.2 h 3.2 c 0.3,0 0.6,0.1 0.9,0.4 0.2,0.2 0.4,0.6 0.4,0.9 z" class="s0"/>
	<path id="path4" d="m 1187.7,90.8 c -2.2,-2.6 -5,-4.6 -8.2,-5.8 -4.2,-1.4 -8.7,-2.1 -13.1,-2 -4.8,0 -9.5,0.8 -14,2.4 -3.6,1.2 -6.9,3 -9.8,5.3 -0.5,0.5 -0.8,1.2 -0.7,1.9 0,0.7 0.3,1.3 0.8,1.8 l 5.6,5.7 c 0.5,0.5 1.2,0.8 2,0.8 0.7,0 1.4,-0.3 1.9,-0.8 q 2.1,-1.8 4.6,-3.1 c 2.5,-1.2 5.3,-1.8 8.1,-1.8 3,-0.1 5.9,0.9 8.2,2.8 2.1,1.7 3.2,4.8 3.4,9.8 q -0.1,0.5 -0.5,0.9 -0.4,0.3 -0.9,0.3 c -2.1,0 -4.4,0 -6.7,0.1 q -4.4,0.1 -8.8,0.7 -4.3,0.6 -8.5,1.9 c -2.6,0.7 -5.1,1.9 -7.3,3.5 -2.1,1.5 -3.9,3.4 -5.1,5.7 -1.3,2.6 -2,5.5 -1.9,8.4 0,2.7 0.6,5.4 1.7,7.8 1.1,2.1 2.7,4.1 4.6,5.5 2,1.6 4.3,2.8 6.7,3.5 6.1,1.7 12.6,1.4 18.5,-0.9 2.6,-1.1 4.9,-2.7 6.6,-4.9 h 0.2 q 0.3,-0.1 0.6,0 0.3,0 0.5,0.2 0.2,0.2 0.2,0.3 0.1,0.2 0.1,0.4 v 2.1 c 0,0.7 0.3,1.3 0.8,1.8 0.5,0.5 1.2,0.7 1.9,0.8 h 11.3 c 0.7,0 1.4,-0.3 1.9,-0.8 0.5,-0.5 0.8,-1.2 0.8,-1.9 v -26.7 q 0,-8.2 -1.2,-16.3 c -0.7,-3.3 -2.2,-6.5 -4.3,-9.2 m -11.2,33.2 c 0.1,1.6 -0.3,3.3 -1.1,4.7 -0.8,1.4 -1.8,2.5 -3.1,3.4 q -2.1,1.3 -4.4,2 c -1.7,0.5 -3.4,0.7 -5.1,0.7 -2.1,0 -4.1,-0.5 -5.8,-1.5 -0.9,-0.5 -1.6,-1.2 -2.1,-2 -0.5,-0.9 -0.7,-1.8 -0.7,-2.8 0,-0.9 0.1,-1.7 0.5,-2.5 0.3,-0.8 0.8,-1.6 1.5,-2.1 1.4,-1.2 3,-2 4.8,-2.5 q 2.9,-0.9 5.9,-1 3.1,-0.2 5.2,-0.2 h 3.1 q 0.5,0 0.9,0.4 c 0.2,0.2 0.4,0.6 0.4,0.9 z" class="s0"/>
	<path id="path5" d="m 973.1,91.3 c -2.4,-2.7 -5.4,-4.8 -8.7,-6.2 -3.6,-1.4 -7.5,-2.2 -11.4,-2.1 -4.3,0 -8.6,0.7 -12.7,2.1 -3.8,1.4 -7.3,3.5 -10.3,6.2 -3,2.7 -5.4,6 -7,9.6 -3.4,9.2 -3.4,19.2 0,28.4 1.6,3.6 4,6.9 7,9.6 2.9,2.7 6.5,4.8 10.3,6.2 4.1,1.4 8.4,2.2 12.7,2.1 4.8,0 9.5,-1 13.8,-3 3.4,-1.4 6.4,-3.5 9,-6.1 0.5,-0.5 0.7,-1.2 0.7,-1.9 0,-0.6 -0.2,-1.3 -0.7,-1.8 l -8.2,-6 -0.6,-0.4 c -0.5,-0.3 -1.1,-0.4 -1.7,-0.3 -0.6,0.1 -1.2,0.3 -1.6,0.8 q -1.7,1.8 -3.9,3.3 c -2.2,1.3 -4.8,2 -7.5,1.9 -3.3,0.1 -6.4,-1 -8.9,-3.1 -2.8,-2.8 -4.4,-6.4 -4.7,-10.3 q 0,-0.4 0.4,-0.8 0.3,-0.4 0.8,-0.5 H 978 c 0.7,0 1.4,-0.3 1.9,-0.8 0.4,-0.5 0.7,-1.2 0.7,-1.9 v -2.9 c 0.1,-4.3 -0.6,-8.5 -1.9,-12.5 -1.2,-3.5 -3,-6.8 -5.5,-9.6 m -12.1,15.5 h -21 c -0.3,-0.1 -0.7,-0.2 -0.9,-0.4 -0.3,-0.3 -0.4,-0.6 -0.4,-0.9 q 0.2,-1.5 0.8,-2.9 c 0.6,-1.3 1.5,-2.4 2.6,-3.4 1.1,-1 2.4,-1.9 3.9,-2.4 1.7,-0.7 3.5,-1 5.3,-1 1.5,0 3,0.2 4.4,0.8 1.3,0.5 2.6,1.4 3.6,2.4 1.8,1.8 2.8,4 3,6.5 0,0.3 -0.1,0.6 -0.4,0.9 -0.3,0.2 -0.6,0.3 -0.9,0.4" class="s0"/>
	<path id="path6" d="m 903.7,116 -0.4,-0.6 q -0.4,-0.6 -0.4,-1.4 0,-0.7 0.4,-1.4 l 21.1,-25.9 q 0.3,-0.3 0.4,-0.7 0,-0.4 -0.1,-0.7 -0.2,-0.4 -0.5,-0.6 -0.4,-0.2 -0.8,-0.2 h -16.6 c -0.8,0 -1.7,0.2 -2.4,0.6 -0.8,0.4 -1.5,0.9 -2,1.6 l -0.9,1.1 -16.2,20.6 -0.2,0.2 -0.1,0.1 h -0.2 q -0.2,0.2 -0.6,0.1 -0.3,0 -0.5,-0.2 -0.2,-0.3 -0.2,-0.5 V 58.4 c -0.1,-0.7 -0.4,-1.3 -0.8,-1.8 -0.5,-0.5 -1.1,-0.8 -1.8,-0.8 h -13 c -0.7,0 -1.3,0.3 -1.8,0.8 -0.5,0.5 -0.7,1.1 -0.8,1.8 v 84.7 c 0.1,0.7 0.3,1.3 0.8,1.8 0.5,0.5 1.2,0.8 1.8,0.8 h 12.9 c 0.7,0 1.3,-0.3 1.8,-0.8 0.5,-0.4 0.8,-1.1 0.8,-1.7 v -24 q 0.1,-0.3 0.3,-0.5 0.2,-0.2 0.5,-0.3 0.3,0 0.6,0.1 h 0.1 q 0.1,0.1 0.1,0.1 v 0.1 l 0.4,0.4 15.7,23.4 0.9,1.1 q 0.8,1 1.9,1.5 c 0.8,0.4 1.6,0.6 2.4,0.6 h 17.6 q 0.3,0 0.5,-0.2 0.3,-0.3 0.4,-0.8 0.1,-0.4 -0.1,-0.8 z" class="s0"/>
	<path id="path7" d="m 1137.8,88.8 q 0.3,-0.9 0.3,-1.8 0,-0.2 0,-0.3 c -0.1,-0.6 -0.5,-1.1 -0.9,-1.5 -0.5,-0.4 -1.1,-0.7 -1.7,-0.7 h -10.3 c -1.3,0 -2.5,0.4 -3.5,1.2 -0.9,0.8 -1.6,1.9 -1.9,3.1 l -0.3,1.2 -8.7,31.5 c -0.2,0.3 -0.5,0.4 -0.9,0.4 q -0.3,0 -0.5,-0.2 -0.3,-0.1 -0.4,-0.4 l -0.2,-0.5 -8.6,-31.8 -0.2,-0.6 c -0.3,-1.1 -1,-2.1 -2,-2.7 -0.9,-0.7 -2.1,-1.1 -3.3,-1.1 h -11.2 c -1.2,0 -2.4,0.4 -3.4,1.2 -1,0.7 -1.7,1.8 -2,3 v 0.3 l -0.2,1 -7.9,31.4 q -0.1,0.2 -0.3,0.3 -0.2,0.1 -0.4,0.2 -0.2,0 -0.4,0 -0.2,0 -0.4,-0.2 -0.2,-0.1 -0.4,-0.3 l -9.4,-31.4 -0.4,-1.5 q 0,-0.1 0,-0.3 c -0.4,-1.1 -1.1,-2 -2,-2.6 -1,-0.7 -2.1,-1.1 -3.3,-1.1 h -11.3 c -0.6,0.1 -1.2,0.3 -1.7,0.7 -0.4,0.4 -0.7,0.9 -0.9,1.5 q 0,0.2 0,0.3 0,1 0.3,1.8 l 18.7,53.3 q 0.1,0.3 0.3,0.6 c 0.4,0.9 1,1.6 1.8,2.2 0.8,0.5 1.7,0.8 2.7,0.9 h 11 c 1.1,-0.1 2.1,-0.5 3,-1.2 0.9,-0.7 1.5,-1.6 1.8,-2.6 l 0.5,-1.6 8.6,-30.5 q 0.1,-0.2 0.4,-0.3 0.2,-0.2 0.4,-0.2 0.3,0 0.5,0.2 0.2,0.1 0.4,0.3 l 9.9,31.1 q 0.3,0.9 0.7,1.8 c 0.4,0.8 1,1.6 1.8,2.1 0.8,0.5 1.7,0.9 2.7,0.9 h 10.6 c 1,0 1.9,-0.4 2.7,-0.9 0.8,-0.5 1.4,-1.3 1.8,-2.1 0.2,-0.3 0.5,-1.3 0.8,-2 L 1138,89.4 q 0,-0.2 0.1,-0.4" class="s0"/>
	<path id="path8" d="m 1257,86.6 q -0.1,-0.2 -0.1,-0.4 -0.4,-0.7 -1,-1.2 -0.6,-0.4 -1.4,-0.5 h -11 c -1,0.1 -2,0.4 -2.9,0.9 -0.8,0.6 -1.5,1.4 -1.9,2.3 q -0.1,0.3 -0.2,0.5 l -0.1,0.3 q -0.1,0.2 -0.1,0.4 l -0.3,1.1 -10,32.2 -0.1,0.3 q -0.2,0.5 -0.5,0.8 -0.4,0.2 -0.9,0.2 -0.4,0 -0.7,-0.2 -0.4,-0.2 -0.5,-0.6 l -11.9,-32.7 -0.1,-0.5 -0.8,-2.2 c -0.5,-0.8 -1.2,-1.5 -2,-2 -0.8,-0.5 -1.8,-0.8 -2.7,-0.8 h -12.4 q -0.7,0.1 -1.2,0.5 -0.5,0.4 -0.8,1 -0.1,0.3 -0.2,0.5 -0.1,0.7 0.1,1.4 l 23.6,56.7 c 0.4,1.2 0.3,2.5 -0.2,3.6 v 0.2 l -0.4,1.1 c -0.6,1.5 -1.2,2.9 -1.8,4.1 q -0.8,1.8 -2.1,3.1 c -0.9,0.9 -2,1.6 -3.2,1.9 -1.6,0.5 -3.3,0.7 -5,0.7 h -7.8 c -0.7,0 -1.4,0.3 -1.9,0.8 -0.4,0.5 -0.7,1.2 -0.7,1.8 v 9.7 c 0,0.7 0.3,1.4 0.8,1.9 0.5,0.5 1.1,0.8 1.8,0.8 h 10.5 c 3.5,0.1 7.1,-0.3 10.5,-1.3 2.4,-0.7 4.7,-1.9 6.6,-3.7 1.8,-1.7 3.2,-3.7 4.3,-5.9 q 1.6,-3.7 3.4,-8.3 L 1257,87.7 q 0.1,-0.5 0,-1.1 z" class="s0"/>
	<path id="path9" d="m 1254.5,133.3 c -0.9,0 -1.8,0.2 -2.6,0.5 -0.8,0.3 -1.5,0.9 -2.1,1.5 -1.2,1.2 -1.9,2.9 -1.9,4.6 0,1.8 0.7,3.4 1.9,4.6 1.3,1.3 3,1.9 4.7,1.9 1.8,0 3.4,-0.7 4.7,-1.9 l 0.1,-0.1 c 1.2,-1.3 1.9,-2.9 1.9,-4.6 0,-1.7 -0.7,-3.3 -1.9,-4.5 q -0.9,-1 -2.1,-1.5 c -0.8,-0.3 -1.7,-0.5 -2.6,-0.5" class="s0"/>
	<path id="path10" d="m 1367.1,91.4 c -2.8,-2.7 -6.1,-4.7 -9.7,-6.1 -7.8,-2.9 -16.5,-2.9 -24.4,0 -3.6,1.4 -6.8,3.4 -9.6,6.1 -2.7,2.6 -4.8,5.8 -6.2,9.3 -1.6,3.6 -2.4,10.7 -2.4,15.1 0,4.7 0.8,9.3 2.4,13.7 1.4,3.6 3.6,6.7 6.3,9.4 2.7,2.7 6,4.7 9.6,6.1 7.9,2.9 16.5,2.9 24.4,0 3.6,-1.4 6.9,-3.5 9.7,-6.1 2.6,-2.7 4.8,-5.8 6.2,-9.3 1.6,-4.4 2.4,-9.1 2.3,-13.7 0,-4.5 -0.7,-11.6 -2.3,-15.2 -1.4,-3.5 -3.6,-6.6 -6.2,-9.3 m -3.1,34.3 c -0.9,2.4 -2.3,4.7 -4.1,6.6 -1.8,1.9 -4,3.4 -6.4,4.5 -5.4,2.1 -11.3,2.1 -16.7,0 -2.4,-1.1 -4.6,-2.6 -6.4,-4.5 -1.8,-1.9 -3.2,-4.2 -4.1,-6.6 -1,-3.2 -1.5,-6.6 -1.4,-9.9 -0.1,-3.9 0.4,-7.7 1.4,-11.4 0.9,-2.5 2.3,-4.7 4.1,-6.6 1.8,-1.9 4,-3.4 6.4,-4.4 5.3,-2.2 11.3,-2.2 16.7,0 2.4,1 4.6,2.5 6.4,4.4 1.8,1.9 3.2,4.2 4.1,6.6 0.9,3.7 1.4,7.6 1.3,11.4 0.1,3.3 -0.4,6.7 -1.3,9.9 z" class="s0"/>
	<path id="path11" d="m 1277.3,97.9 c 1.7,-1.9 3.7,-3.5 6.1,-4.5 2.6,-1.1 5.5,-1.6 8.4,-1.5 2.7,-0.1 5.3,0.4 7.8,1.5 1.8,0.9 3.5,2.1 4.9,3.5 0.5,0.4 1.2,0.7 1.8,0.7 0.7,0 1.3,-0.2 1.8,-0.6 l 3.5,-3.1 c 0.5,-0.5 0.8,-1.1 0.9,-1.8 0,-0.7 -0.2,-1.4 -0.6,-1.9 -2.4,-2.2 -5.1,-3.8 -8.1,-4.9 -3.8,-1.5 -7.9,-2.2 -12,-2.2 -4.1,-0.1 -8.2,0.7 -12,2.2 -3.5,1.4 -6.7,3.5 -9.4,6.2 -2.6,2.7 -4.7,5.9 -6,9.4 -2.9,9.3 -2.9,19.2 0,28.5 1.3,3.5 3.4,6.7 6,9.4 2.6,2.7 5.7,4.8 9.3,6.2 7.7,2.9 16.2,2.9 23.9,0 2.9,-1.2 5.6,-2.9 7.9,-5.1 0.5,-0.5 0.7,-1.2 0.7,-1.8 -0.1,-0.7 -0.3,-1.3 -0.8,-1.8 l -2.9,-2.8 c -0.6,-0.5 -1.2,-0.8 -1.9,-0.8 -0.7,0 -1.4,0.3 -1.9,0.8 -1.6,1.7 -3.7,3 -5.9,3.8 -2.2,0.9 -4.6,1.3 -7,1.2 -2.7,0.1 -5.4,-0.5 -7.9,-1.6 -2.3,-1.1 -4.4,-2.6 -6,-4.5 -1.7,-2 -3,-4.3 -3.9,-6.7 -1,-3.4 -1.4,-7 -1.4,-10.5 0,-3.6 0.4,-7.1 1.2,-10.6 0.7,-2.4 1.9,-4.7 3.5,-6.7 z" class="s0"/>
	<path id="path12" d="m 1466.4,97 c -0.7,-2.7 -1.9,-5.3 -3.7,-7.5 -1.8,-2.1 -4.1,-3.6 -6.7,-4.6 -3.3,-1.2 -6.8,-1.7 -10.2,-1.6 -3.8,-0.2 -7.6,0.8 -10.8,2.8 -2.3,1.6 -4.4,3.7 -6,6 l -0.3,0.4 -0.1,0.2 q -0.2,0.1 -0.4,0.2 -0.2,0.1 -0.4,0.1 -0.2,0 -0.5,-0.2 -0.2,-0.1 -0.3,-0.3 c 0,-0.1 -0.2,-0.3 -0.3,-0.5 q -0.4,-0.6 -0.9,-1.4 c -0.8,-1.4 -1.9,-2.5 -3.2,-3.5 -1.6,-1.2 -3.3,-2.1 -5.2,-2.8 -4.6,-1.4 -9.6,-1.5 -14.3,-0.2 q -2.9,0.8 -5.5,2.4 -2.3,1.4 -4.2,3.4 c -0.4,0.5 -0.7,0.9 -1.1,1.4 l -0.1,0.1 q 0,0.1 -0.1,0.2 -0.2,0.2 -0.5,0.2 -0.3,0.1 -0.5,0 -0.3,0 -0.5,-0.2 -0.1,-0.2 -0.2,-0.5 v -3.9 c 0,-0.7 -0.3,-1.4 -0.8,-1.8 -0.5,-0.5 -1.2,-0.8 -1.9,-0.8 h -3.4 c -0.7,0 -1.4,0.3 -1.9,0.8 -0.4,0.5 -0.7,1.2 -0.7,1.9 V 143 c 0,0.7 0.3,1.4 0.8,1.9 0.5,0.5 1.1,0.8 1.8,0.8 h 4.2 c 0.7,0 1.4,-0.3 1.9,-0.8 0.5,-0.5 0.8,-1.2 0.8,-1.9 v -29.5 c -0.1,-3 0.3,-5.9 1,-8.8 0.6,-2.5 1.6,-4.8 3.1,-6.9 1.4,-1.9 3.3,-3.4 5.5,-4.4 2.5,-1.1 5.3,-1.7 8,-1.6 q 5.9,0 8.4,3.9 2.6,3.9 2.6,13.3 v 34 c 0,0.7 0.3,1.4 0.8,1.9 0.5,0.5 1.2,0.8 1.9,0.8 h 4.1 c 0.7,0 1.4,-0.3 1.9,-0.8 0.5,-0.5 0.8,-1.2 0.8,-1.9 v -34.5 c 0,-2.4 0.4,-4.7 1.2,-6.8 0.6,-2 1.7,-3.7 3.1,-5.3 1.3,-1.4 2.9,-2.5 4.7,-3.3 1.8,-0.8 3.7,-1.2 5.7,-1.2 2.4,-0.1 4.7,0.3 6.8,1.3 1.7,0.8 3.2,2 4.3,3.5 1.1,1.5 1.8,3.1 2.2,4.9 q 0.6,2.8 0.6,5.6 v 35.9 c 0,0.7 0.3,1.3 0.8,1.8 0.5,0.5 1.2,0.8 1.9,0.8 h 4.1 c 0.7,0 1.4,-0.3 1.9,-0.8 0.5,-0.5 0.8,-1.2 0.8,-1.9 v -36.2 c 0,-3.3 -0.3,-6.6 -1,-9.8 z" class="s0"/>
	<path id="path13" d="m 241.4,61.6 h -23.2 c -7.6,0 -7.6,0 -9.1,8.7 -1.6,8.6 -1.6,8.9 5.3,8.9 h 13.8 l -7.8,44.3 c -1.9,9.9 -6.3,16.7 -19.8,20.7 -3.4,1 -4.4,2.2 -4.4,3.8 0,1.8 0.6,3.4 2.2,7.1 2.2,5.2 3.5,6.2 5.4,6.2 1.8,0 5.3,-1 6.5,-1.3 19.2,-6.2 27,-20.7 30.2,-38 l 8.7,-49.9 c 1.6,-10.5 1.6,-10.5 -7.8,-10.5 z" class="s0"/>
	<path id="path14" d="m 320.1,61.6 c -9.4,0 -9.4,0 -10.6,7.7 l -6.9,40.3 c -1.9,11.7 -5,18.6 -16.6,18.6 -11.3,0 -15.4,-6.9 -13.5,-17.4 L 279,72.4 c 1.9,-10.8 1.6,-10.8 -8.1,-10.8 -9.4,0 -9.7,0 -11,7.4 l -6.9,40.2 c -4.1,23 10.4,37.2 30.7,37.2 22.9,0 34.6,-10.2 38.3,-34.4 l 6.9,-39.9 c 1.6,-10.5 1,-10.5 -8.8,-10.5 z" class="s0"/>
	<path id="path15" d="m 363.1,127.5 c 7.6,-0.3 11.6,-3.7 11.6,-7.1 0,-4.3 -5.3,-5.9 -12.5,-8 -14.1,-4.4 -27,-9.3 -27,-24.2 0,-17.6 14.8,-27.2 33.3,-27.2 7.8,0 16.6,0.3 22.3,0.9 5,0.6 6.2,2.2 4.7,9.9 -1.6,7.7 -3.5,8.4 -7.9,8 -5.3,-0.3 -12.2,-0.9 -20.4,-0.9 -9.4,0 -12.2,3.4 -12.2,6.5 0,4 3.7,6.2 12.5,8.7 16.3,4.6 27,11.1 27,25.1 0,16.4 -12.2,26 -32,26.6 -9.4,0.3 -18.9,-0.2 -28.2,-1.6 -6.3,-0.9 -6.6,-0.9 -5,-9.9 1.5,-8 1.5,-8.6 7.5,-8 11.6,1.2 18.8,1.5 26.3,1.2 z" class="s0"/>
	<path id="path16" d="m 465.7,61.6 h -53 c -7.5,0 -7.5,0 -9.1,9 -1.6,8.9 -1.2,8.9 5.3,8.9 h 17.3 l -9.7,55.4 c -1.9,10.9 -1.6,10.9 8.1,10.9 9.1,0 9.4,0 10.7,-7.8 l 10,-58.4 H 462 c 7.5,0 7.5,0 9.1,-9 1.5,-9 1.5,-9 -5.4,-9 z" class="s0"/>
	<path id="path17" d="m 559.2,79.2 c 7.6,0 7.6,0 9.1,-8.9 1.6,-9 1.6,-9 -5.3,-9 h -38 c -13.5,0 -13.1,0 -15.3,13.3 l -9.8,56 c -2.5,14.6 -2.2,14.6 11.3,14.6 h 37.1 c 7.8,0 7.5,0 9.1,-8.7 1.5,-9 1.5,-9 -5.4,-9 h -32 l 2.5,-16.1 h 26.7 c 7.2,0 7.2,0 8.5,-8.3 1.2,-8.7 1.2,-8.7 -8.5,-8.7 h -23.6 l 2.6,-15.2 z" class="s0"/>
	<path id="path18" d="m 632.7,71.8 c -1.9,-10.5 -1.9,-10.5 -17,-10.5 -14.1,0 -13.8,0 -18.2,8.6 l -31.7,65.3 c -4.7,9.3 -3.7,10.3 7.9,10.3 9.1,0 9.1,0 12.8,-8.4 l 5.1,-11.1 h 30.7 l 1.6,11.1 c 1.2,8.4 1.5,8.4 10.6,8.4 10.4,0 11.3,-0.7 9.4,-10.9 z M 599.5,109 611.7,82.4 c 1,-2.2 1,-2.2 2.5,-2.2 1.6,0 1.6,0 1.9,2.5 l 3.8,26.3 z" class="s0"/>
	<path id="path19" d="m 707.6,61.6 h -53.3 c -7.5,0 -7.5,0 -9.1,9 -1.6,8.9 -1.3,8.9 5.3,8.9 h 17.3 l -9.7,55.4 c -1.9,10.9 -1.6,10.9 8.1,10.9 9.1,0 9.5,0 10.7,-7.8 L 687,79.6 h 16.6 c 7.5,0 7.5,0 9.1,-9 1.9,-9 1.9,-9 -5.1,-9 z" class="s0"/>
	<path id="path20" d="M 164.7,81.3 C 164.2,79.9 157,66.8 143.7,50.4 143.3,50 143.1,49.5 143.1,49 Q 141.9,34.6 139,20.4 c -0.2,-0.9 -0.7,-1.8 -1.4,-2.4 -0.7,-0.7 -1.7,-1.1 -2.6,-1.2 l -13.9,-1.6 q -0.2,0 -0.4,0 c -0.8,0 -1.5,0.3 -2.1,0.8 -0.5,0.6 -0.8,1.3 -0.8,2.1 v 4.7 q 0,0.1 -0.1,0.1 0,0.1 -0.1,0.1 -0.1,0 -0.1,-0.1 C 108.8,15.2 99.5,8.2 89.5,2.1 87.5,0.7 85.1,0 82.6,0 80.2,0 77.8,0.7 75.8,2.1 27.9,31.3 1.5,78.7 0.5,81.3 q -0.5,0.9 -0.5,2 0,1 0.5,1.9 0.5,1 1.3,1.7 0.8,0.6 1.8,0.9 l 13.8,2.6 c 0.9,0.3 1.7,0.8 2.4,1.5 0.6,0.7 1,1.6 1.1,2.5 0.1,2.4 2.7,56.1 6,70 0.2,1 0.8,1.9 1.7,2.5 0.8,0.6 1.8,1 2.8,1 h 0.2 c 8,-0.2 15.4,-0.4 23.4,-0.5 h 0.6 c 0.4,0 0.8,-0.1 1.1,-0.4 0.3,-0.3 0.5,-0.7 0.5,-1.1 -0.4,-4.7 -1.1,-15.4 -1.6,-26.8 0,-0.2 -0.1,-0.6 -0.1,-0.9 q 0,-0.7 -0.4,-1.3 -0.4,-0.6 -1,-0.9 c -2.1,-1.3 -3.9,-3 -5.1,-5.1 -1.3,-2 -2,-4.4 -2.1,-6.8 -0.8,-18.8 -1.1,-40.6 -0.1,-57.6 0,-0.7 0.3,-1.4 0.9,-1.9 0.5,-0.5 1.2,-0.8 1.9,-0.8 0.8,0 1.5,0.4 2,0.9 0.5,0.5 0.8,1.2 0.8,1.9 v 0.2 c -0.7,11.4 -0.8,24.8 -0.5,38 q 0,0.7 0.2,1.3 0.3,0.6 0.8,1 0.4,0.5 1,0.7 0.7,0.2 1.3,0.2 0.7,0 1.3,-0.2 0.6,-0.3 1,-0.8 0.5,-0.4 0.7,-1 0.3,-0.6 0.2,-1.3 C 58.2,91.4 58.3,77.9 59,66.5 q 0,-0.5 0.2,-1 0.2,-0.5 0.6,-0.9 0.4,-0.4 0.9,-0.6 0.5,-0.2 1.1,-0.2 0.5,0 1,0.3 0.6,0.2 0.9,0.6 0.4,0.4 0.6,0.9 0.2,0.5 0.2,1 0,0.1 0,0.2 c -0.7,11.3 -0.7,24.7 -0.5,37.8 0,0.9 0.4,1.7 1,2.3 0.6,0.6 1.5,0.9 2.4,0.9 0.8,0 1.7,-0.3 2.3,-1 0.6,-0.6 0.9,-1.4 0.9,-2.3 -0.3,-13.2 -0.2,-26.7 0.5,-38 q 0,-0.5 0.2,-1 0.3,-0.5 0.7,-0.9 0.4,-0.4 0.9,-0.6 0.5,-0.2 1,-0.2 0.6,0 1.1,0.3 0.5,0.2 0.9,0.6 0.4,0.4 0.6,0.9 0.2,0.5 0.2,1 0,0.1 0,0.2 c -1,16.6 -0.7,37.5 0,55.9 0,0 0,0.2 0,0.2 0,0 0,0.2 0,0.3 v 0.1 c 0,2.4 -0.6,4.8 -1.7,6.9 -1.2,2.1 -2.8,3.9 -4.8,5.2 q -0.5,0.4 -0.9,1 -0.3,0.5 -0.3,1.2 c 0,0 -0.4,2.8 0.9,16.5 0.6,5.9 1,10.1 1.3,11.9 0,0.4 0.2,0.7 0.4,0.9 0.3,0.3 0.7,0.4 1,0.4 h 1.3 q 4,0 8.2,0 h 1.1 10.3 l 7.9,0.1 c 0.3,0 0.7,-0.2 0.9,-0.4 0.3,-0.2 0.5,-0.6 0.5,-0.9 1.8,-16.4 2.3,-25.6 2.3,-25.6 0,-0.4 -0.2,-0.8 -0.5,-1.1 -0.2,-0.2 -0.6,-0.4 -1,-0.5 l -9.5,-1.3 c -0.6,0 -1.2,-0.3 -1.7,-0.7 -0.5,-0.4 -0.9,-1 -1,-1.6 q -0.2,-0.7 -0.1,-1.4 c 3.8,-54.6 22,-73 22,-73 q 0.4,-0.4 0.9,-0.8 0.5,-0.3 1.2,-0.5 0.7,-0.1 1.3,0.1 0.7,0.2 1.2,0.7 0.5,0.4 0.7,1 0.2,0.7 0.3,1.3 c 1.5,17.2 0.8,46.4 -0.2,69.2 -0.8,19.4 -1.8,34.5 -1.8,34.5 0,0.3 0.1,0.6 0.3,0.8 0.2,0.2 0.5,0.4 0.8,0.4 5.2,0.1 10.2,0.2 15.7,0.3 h 0.1 c 1,0 2.1,-0.4 2.9,-1 0.8,-0.6 1.4,-1.5 1.7,-2.5 3.3,-13.9 5.8,-67.6 6,-70 0.1,-0.9 0.5,-1.8 1.1,-2.5 0.6,-0.7 1.4,-1.2 2.3,-1.5 l 13.8,-2.6 q 1,-0.3 1.9,-0.9 0.8,-0.7 1.2,-1.6 0.5,-1 0.5,-2 0,-1.1 -0.5,-2 z" class="s0"/>
</svg>