<svg viewBox="0 0 786.01365 130.98222" xmlns="http://www.w3.org/2000/svg">
	<path fill="#1d4b00" d="m 84.988172,130.98223 c -17.5592,0 -26.1495,-12.255 -27.8937,-14.787 -5.183,5.101 -13.0072,14.787 -27.1005,14.787 C 13.719272,130.98223 0,118.68223 0,98.740426 v -66.4989 C 0,12.254226 13.741772,0 29.993972,0 c 16.2522,0 29.994,13.015326 29.994,31.937926 3.1729,-1.128 6.5396,-1.7124 10.001,-1.7124 16.7434,0 29.9937,13.7266 29.9937,30.2256 0,4.6253 -0.8741,8.7387 -2.7851,12.68 10.618098,4.7567 17.784098,15.4616 17.784098,27.625104 0,16.667 -13.457,30.226 -29.993498,30.226 z m -20.642,-22.094 c 4.3132,7.552 11.5739,12.018 20.642,12.018 11.0241,0 19.997498,-9.042 19.997498,-20.15 0,-8.788504 -5.606698,-16.435504 -13.674198,-19.126404 l -26.9653,27.262404 z m -34.3477,-98.813004 c -9.9514,0 -19.9975,6.8542 -19.9975,22.1663 v 66.4989 c 0,15.311804 10.0416,22.165804 19.9975,22.165804 7.9007,0 12.268,-4.018 19.3124,-11.117 l 3.1189,-3.144 c -1.609,-4.833 -2.4383,-10.197104 -2.4383,-15.968604 v -58.4397 c 0,-15.3121 -10.0416,-22.1663 -19.9975,-22.1663 z m 29.994,32.9164 v 47.6895 c 0,2.7 0.2253,5.2687 0.6535,7.6878 l 21.7327,-21.899 c 6.3142,-6.3604 7.6077,-11.0039 7.6077,-16.0143 0,-10.7049 -8.5362,-20.1504 -19.9974,-20.1504 -3.5651,0 -6.9768,0.9242 -9.9965,2.691 z"/>
	<path fill="#1d4b00" d="m 160.97567,30.225526 h 12.57 v 44.011 c 9.74,-4.2131 16.446,-11.5838 20.742,-22.9546 h 12.885 c -3.561,10.8453 -8.59,19.267 -15.292,25.3737 l 20.425,27.271604 h -14.873 l -15.292,-20.530604 c -2.722,1.2639 -5.552,2.3149 -8.59,3.1575 v 17.373104 h -12.57 V 30.225526 Z m 55.725,58.8565 v -58.8565 h 11.943 v 58.2268 c 0,4.947 1.361,6.4238 4.084,6.4238 1.573,0 3.037,-0.3171 4.921,-1.1597 v 10.215804 c -2.199,0.842 -4.714,1.472 -7.648,1.472 -8.068,0 -13.305,-4.213 -13.305,-16.317704 z m 24.982,-11.4751 c 0,-16.7391 10.474,-27.7973 27.024,-27.7973 18.433,0 27.97,13.8987 22.94,31.1678 h -37.29 c 1.05,8.7388 5.868,13.8987 14.246,13.8987 5.553,0 10.79,-2.632 13.724,-6.0025 l 9.113,6.528 c -5.237,5.685604 -12.782,10.002604 -23.044,10.002604 -16.342,0 -26.713,-11.053604 -26.713,-27.797304 z m 38.652,-5.1599 c 0.734,-7.579 -3.561,-12.5305 -11.836,-12.5305 -8.274,0 -12.673,4.4215 -13.931,12.5305 z m 27.673,-44.1151 c 4.295,0 7.648,3.3705 7.648,7.6877 0,4.3173 -3.353,7.6878 -7.648,7.6878 -4.295,0 -7.649,-3.3705 -7.649,-7.6878 0,-4.3172 3.354,-7.6877 7.649,-7.6877 z m -6.076,22.9545 h 11.944 v 52.645804 h -11.944 z m 23.536,0 h 11.943 v 9.6856 c 3.457,-6.9493 9.848,-11.1624 17.807,-11.1624 16.866,0 16.865,16.7391 16.865,24.6398 v 29.482804 h -11.943 V 74.766526 c 0,-6.0025 0,-14.5284 -9.217,-14.5284 -7.959,0 -13.512,7.1578 -13.512,17.8989 v 25.795204 h -11.943 z m 105.828,43.5897 c 0.839,0 1.884,-0.1042 2.826,-0.5255 v 9.898604 c -1.884,0.843 -3.56,1.16 -5.656,1.16 -6.287,0 -9.848,-5.056 -9.848,-12.109604 v -1.6852 c -3.457,8.738804 -10.578,13.794804 -20.322,13.794804 -11.105,0 -18.019,-6.528404 -18.019,-15.688504 0,-10.6324 9.217,-17.0562 23.986,-17.0562 4.084,0 8.275,0.5255 11.944,1.3681 0,-7.7919 -3.561,-13.7945 -11.525,-13.7945 -5.656,0 -9.847,2.7363 -10.474,8.4217 h -12.047 c 0.419,-11.475 9.532,-18.8457 22.729,-18.8457 16.342,0 23.256,10.0027 23.256,24.2185 v 17.3734 c 0,2.5278 1.361,3.4746 3.141,3.4746 z m -30.589,0.9468 c 7.649,0 13.931,-4.947 15.924,-12.6347 -3.457,-1.1598 -7.649,-1.7895 -11.417,-1.7895 -8.59,0 -12.781,3.1576 -12.781,8.0004 0,4.2131 3.141,6.4238 8.274,6.4238 z m 40.694,-44.5365 h 11.943 v 9.6856 c 3.457,-6.9493 9.848,-11.1624 17.808,-11.1624 16.865,0 16.865,16.7391 16.865,24.6398 v 29.482804 h -11.944 V 74.766526 c 0,-6.0025 0,-14.5284 -9.217,-14.5284 -7.959,0 -13.512,7.1578 -13.512,17.8989 v 25.795204 h -11.943 z m 54.165,43.0642 27.551,-33.0615 h -25.663 v -10.0027 h 41.167 v 7.6878 l -29.331,35.3764 h 30.377 v 9.581604 h -44.101 z m 48.391,-16.7391 c 0,-16.7391 10.475,-27.7974 27.024,-27.7974 18.434,0 27.971,13.8987 22.941,31.1679 h -37.291 c 1.05,8.7387 5.868,13.8986 14.246,13.8986 5.553,0 10.79,-2.632 13.724,-6.0025 l 9.113,6.528 c -5.237,5.685104 -12.781,10.003104 -23.044,10.003104 -16.342,0 -26.713,-11.054104 -26.713,-27.797704 z m 38.652,-5.1599 c 0.735,-7.5791 -3.56,-12.5306 -11.835,-12.5306 -8.275,0 -12.674,4.4215 -13.931,12.5306 z m 27.673,-44.1152 c 4.295,0 7.648,3.3705 7.648,7.6878 0,4.3173 -3.353,7.6877 -7.648,7.6877 -4.295,0 -7.648,-3.3704 -7.648,-7.6877 0,-4.3173 3.353,-7.6878 7.648,-7.6878 z m -6.075,22.9546 h 11.943 v 52.645204 h -11.943 z m 19.578,56.963204 h 12.466 c 0.942,4.421 5.657,7.687 13.305,7.687 7.017,0 11.416,-2.845 11.416,-7.266 0,-9.794404 -27.97,-4 -27.97,-14.741404 0,-3.5788 3.141,-5.3683 7.54,-6.7364 -9.951,-1.581 -16.342,-8.2133 -16.342,-17.7947 0,-11.5837 9.532,-19.4798 23.778,-19.4798 7.333,0 13.305,2.1065 17.492,5.5812 1.046,-2.9492 0.735,-7.3707 0,-10.7412 h 9.74 c 1.045,6.1068 -0.942,12.8477 -5.237,16.5308 1.153,2.3149 1.78,5.0557 1.78,7.8961 0,20.7439 -25.559,17.8989 -25.559,21.8991 0,5.0557 27.235,-0.3172 27.235,17.690304 0,10.528 -9.847,17.691 -23.778,17.691 -14.982,0 -23.883,-8.422 -25.875,-18.216 z m 24.198,-29.378804 c 6.81,0 11.313,-3.683 11.313,-9.2643 0,-5.5812 -4.399,-9.2642 -11.313,-9.2642 -6.914,0 -11.313,3.683 -11.313,9.2642 0,5.5813 4.503,9.2643 11.313,9.2643 z m 31.342,-1.2639 c 0,-16.7391 10.474,-27.7974 27.023,-27.7974 18.434,0 27.971,13.8987 22.941,31.1679 h -37.291 c 1.05,8.7387 5.868,13.8986 14.247,13.8986 5.552,0 10.789,-2.632 13.724,-6.0025 l 9.113,6.528 c -5.237,5.685104 -12.782,10.003104 -23.045,10.003104 -16.342,0 -26.712,-11.054104 -26.712,-27.797704 z m 38.651,-5.1599 c 0.735,-7.5791 -3.56,-12.5306 -11.835,-12.5306 -8.275,0 -12.674,4.4215 -13.931,12.5306 z m 21.422,-21.1652 h 11.944 v 9.6856 c 3.456,-6.9493 9.847,-11.1624 17.807,-11.1624 16.865,0 16.865,16.7391 16.865,24.6398 v 29.482804 h -11.944 V 74.766526 c 0,-6.0025 0,-14.5284 -9.216,-14.5284 -7.96,0 -13.512,7.1578 -13.512,17.8989 v 25.795204 h -11.944 z"/>
</svg>