<svg height="106.11229pt" viewBox="0 0 255.48018 141.48305" width="191.61014pt" xmlns="http://www.w3.org/2000/svg">
	<path d="m46.547 0s25.279 38.841 25.279 38.841h-20.654s-2.813-4.348-2.813-4.348h-24.894s-2.815 4.348-2.815 4.348h-20.65s25.277-38.841 25.277-38.841z" fill="none" stroke="#161413" stroke-width=".354" transform="translate(91.872359 102.46482)"/>
	<path d="m14.0264 141.129c-.5264-4.449-.7959-8.977-.7959-13.566 0-63.1469 51.1914-114.3335 114.3355-114.3335 63.143 0 114.331 51.1866 114.331 114.3335 0 4.589-.271 9.117-.796 13.566h13.313c.469-4.454.712-8.991.712-13.566 0-70.4507-57.112-127.563-127.56-127.563-70.4527 0-127.566 57.1123-127.566 127.563 0 4.574.24218 9.121.71289 13.566z" fill="#161413" transform="translate(.17705851 .17705593)"/>
	<path d="m14.0264 141.129s-.5957-6.731-.5957-6.731-.2002-6.835-.2002-6.835.1484-5.884.1484-5.884.4414-5.807.4414-5.807.7275-5.722.7275-5.722 1.0049-5.63 1.0049-5.63 1.2774-5.5322 1.2774-5.5322 1.54-5.4253 1.54-5.4253 1.7979-5.3125 1.7979-5.3125 2.0468-5.1923 2.0468-5.1923 2.2901-5.0645 2.2901-5.0645 2.5254-4.9297 2.5254-4.9297 2.7529-4.7881 2.7529-4.7881 2.9736-4.6386 2.9736-4.6386 3.1885-4.4825 3.1885-4.4825 3.3936-4.3193 3.3936-4.3193 3.5937-4.1484 3.5937-4.1484 3.7861-3.9707 3.7861-3.9707 3.9707-3.7862 3.9707-3.7862 4.1485-3.5937 4.1485-3.5937 4.3193-3.3936 4.3193-3.3936 4.4834-3.1875 4.4834-3.1875 4.6387-2.9736 4.6387-2.9736 4.7881-2.7529 4.7881-2.7529 4.9297-2.5254 4.9297-2.5254 5.0644-2.2891 5.0644-2.2891 5.1924-2.0478 5.1924-2.0478 5.3125-1.7969 5.3125-1.7969 5.4259-1.541 5.4259-1.541 5.5307-1.2764 5.5307-1.2764 5.631-1.0059 5.631-1.0059 5.722-.7265 5.722-.7265 5.806-.4414 5.806-.4414 5.884-.1485 5.884-.1485 5.883.1485 5.883.1485 5.807.4414 5.807.4414 5.721.7265 5.721.7265 5.63 1.0059 5.63 1.0059 5.531 1.2764 5.531 1.2764 5.426 1.541 5.426 1.541 5.313 1.7969 5.313 1.7969 5.191 2.0478 5.191 2.0478 5.065 2.2891 5.065 2.2891 4.929 2.5254 4.929 2.5254 4.788 2.7529 4.788 2.7529 4.639 2.9736 4.639 2.9736 4.482 3.1875 4.482 3.1875 4.32 3.3936 4.32 3.3936 4.148 3.5937 4.148 3.5937 3.971 3.7862 3.971 3.7862 3.785 3.9707 3.785 3.9707 3.594 4.1484 3.594 4.1484 3.394 4.3193 3.394 4.3193 3.188 4.4825 3.188 4.4825 2.973 4.6386 2.973 4.6386 2.753 4.7881 2.753 4.7881 2.526 4.9297 2.526 4.9297 2.289 5.0645 2.289 5.0645 2.047 5.1923 2.047 5.1923 1.798 5.3125 1.798 5.3125 1.541 5.4253 1.541 5.4253 1.276 5.5322 1.276 5.5322 1.006 5.63 1.006 5.63.726 5.722.726 5.722.442 5.807.442 5.807.149 5.884.149 5.884-.202 6.835-.202 6.835-.594 6.731-.594 6.731h13.313s.712-13.566.712-13.566-.166-6.565-.166-6.565-.494-6.478-.494-6.478-.811-6.384-.811-6.384-1.121-6.282-1.121-6.282-1.425-6.1713-1.425-6.1713-1.719-6.0538-1.719-6.0538-2.006-5.9267-2.006-5.9267-2.283-5.793-2.283-5.793-2.554-5.6504-2.554-5.6504-2.818-5.5-2.818-5.5-3.071-5.3427-3.071-5.3427-3.318-5.1748-3.318-5.1748-3.557-5.002-3.557-5.002-3.786-4.8184-3.786-4.8184-4.01-4.6289-4.01-4.6289-4.224-4.4297-4.224-4.4297-4.429-4.2246-4.429-4.2246-4.629-4.0088-4.629-4.0088-4.819-3.7871-4.819-3.7871-5.001-3.5566-5.001-3.5566-5.175-3.3174-5.175-3.3174-5.342-3.0722-5.342-3.0722-5.5-2.8165-5.5-2.8165-5.651-2.5546-5.651-2.5546-5.792-2.28426-5.792-2.28426-5.927-2.00586-5.927-2.00586-6.054-1.71875-6.054-1.71875-6.171-1.42481-6.171-1.42481-6.281-1.12109-6.281-1.12109-6.384-.81152-6.384-.81152-6.478-.49317-6.478-.49317-6.564-.16504-6.564-.16504-6.565.16504-6.565.16504-6.478.49317-6.478.49317-6.385.81152-6.385.81152-6.282 1.12109-6.282 1.12109-6.1714 1.42481-6.1714 1.42481-6.0528 1.71875-6.0528 1.71875-5.9277 2.00586-5.9277 2.00586-5.793 2.28426-5.793 2.28426-5.6504 2.5546-5.6504 2.5546-5.5009 2.8165-5.5009 2.8165-5.3418 3.0722-5.3418 3.0722-5.1758 3.3174-5.1758 3.3174-5.001 3.5566-5.001 3.5566-4.8193 3.7871-4.8193 3.7871-4.6289 4.0088-4.6289 4.0088-4.4297 4.2246-4.4297 4.2246-4.2246 4.4297-4.2246 4.4297-4.0088 4.6289-4.0088 4.6289-3.7871 4.8184-3.7871 4.8184-3.5567 5.002-3.5567 5.002-3.3183 5.1748-3.3183 5.1748-3.0713 5.3427-3.0713 5.3427-2.8174 5.5-2.8174 5.5-2.5547 5.6504-2.5547 5.6504-2.28417 5.793-2.28417 5.793-2.00586 5.9267-2.00586 5.9267-1.71875 6.0538-1.71875 6.0538-1.4248 6.1713-1.4248 6.1713-1.1211 6.282-1.1211 6.282-.81152 6.384-.81152 6.384-.49317 6.478-.49317 6.478-.16503 6.565-.16503 6.565.17968 6.831.17968 6.831.53321 6.735.53321 6.735h13.31351" fill="none" stroke="#161413" stroke-width=".354" transform="translate(.17705851 .17705593)"/>
	<path d="m119.75 0v.25h-4v.25h-3.25v.25h-2v.25h-2v.25h-1.75v.25h-1.5v.25h-1.5v.25h-1.5v.25h-1.25v.25h-1.25v.25h-1.25v.25h-1v.25h-1v.25h-1.25v.25h-1v.25h-1v.25h-.75v.25h-1v.25h-.75v.25h-1v.25h-.75v.25h-1v.25h-.75v.25h-.75v.25h-.75v.25h-.75v.25h-.75v.25h-.75v.25h-.75v.25h-.5v.25h-.75v.25h-.5v.25h-.75v.25h-.75v.25h-.5v.25h-.75v.25h-.5v.25h-.75v.25h-.5v.25h-.5v.25h-.75v.25h-.5v.25h-.5v.25h-.5v.25h-.5v.25h-.75v.25h-.5v.25h-.5v.25h-.5v.25h-.5v.25h-.5v.25h-.5v.25h-.5v.25h-.5v.25h-.5v.25h-.5v.25h-.5v.25h-.5v.25h-.5v.25h-.5v.25h-.25v.25h-.5v.25h-.5v.25h-.5v.25h-.25v.25h-.5v.25h-.5v.25h-.5v.25h-.25v.25h-.5v.25h-.5v.25h-.5v.25h-.25v.25h-.5v.25h-.25v.25h-.5v.25h-.25v.25h-.5v.25h-.25v.25h-.5v.25h-.5v.25h-.25v.25h-.5v.25h-.25v.25h-.5v.25h-.25v.25h-.5v.25h-.25v.25h-.25v.25h-.5v.25h-.25v.25h-.5v.25h-.25v.25h-.25v.25h-.5v.25h-.25v.25h-.5v.25h-.25v.25h-.5v.25h-.25v.25h-.25v.25h-.25v.25h-.5v.25h-.25v.25h-.25v.25h-.25v.25h-.5v.25h-.25v.25h-.25v.25h-.5v.25h-.25v.25h-.25v.25h-.25v.25h-.5v.25h-.25v.25h-.25v.25h-.25v.25h-.25v.25h-.25v.25h-.5v.25h-.25v.25h-.25v.25h-.25v.25h-.25v.25h-.25v.25h-.25v.25h-.5v.25h-.25v.25h-.25v.25h-.25v.25h-.25v.25h-.25v.25h-.25v.25h-.25v.25h-.25v.25h-.25v.25h-.25v.25h-.25v.25h-.25v.25h-.5v.25h-.25v.25h-.25v.25h-.25v.25h-.25v.25h-.25v.25h-.25v.25h-.25v.25h-.25v.25h-.25v.25h-.25v.25h-.25v.25h-.25v.25h-.25v.5h-.25v.25h-.25v.25h-.25v.25h-.25v.25h-.25v.25h-.25v.25h-.25v.25h-.25v.25h-.25v.25h-.25v.25h-.25v.25h-.25v.25h-.25v.5h-.25v.25h-.25v.25h-.25v.25h-.25v.25h-.25v.25h-.25v.5h-.25v.25h-.25v.25h-.25v.25h-.25v.25h-.25v.25h-.25v.25h-.25v.5h-.25v.25h-.25v.25h-.25v.5h-.25v.25h-.25v.25h-.25v.25h-.25v.5h-.25v.25h-.25v.25h-.25v.25h-.25v.5h-.25v.25h-.25v.25h-.25v.5h-.25v.25h-.25v.25h-.25v.5h-.25v.25h-.25v.5h-.25v.25h-.25v.25h-.25v.5h-.25v.25h-.25v.5h-.25v.25h-.25v.25h-.25v.5h-.25v.25h-.25v.5h-.25v.25h-.25v.5h-.25v.5h-.25v.25h-.25v.5h-.25v.25h-.25v.5h-.25v.25h-.25v.5h-.25v.25h-.25v.5h-.25v.5h-.25v.25h-.25v.5h-.25v.5h-.25v.5h-.25v.25h-.25v.5h-.25v.5h-.25v.5h-.25v.25h-.25v.5h-.25v.5h-.25v.5h-.25v.25h-.25v.5h-.25v.5h-.25v.5h-.25v.5h-.25v.5h-.25v.5h-.25v.5h-.25v.5h-.25v.5h-.25v.5h-.25v.5h-.25v.5h-.25v.75h-.25v.5h-.25v.5h-.25v.5h-.25v.75h-.25v.5h-.25v.5h-.25v.5h-.25v.75h-.25v.5h-.25v.75h-.25v.5h-.25v.75h-.25v.5h-.25v.75h-.25v.5h-.25v.75h-.25v.75h-.25v.75h-.25v.75h-.25v.75h-.25v.75h-.25v.75h-.25v.75h-.25v.75h-.25v.75h-.25v1h-.25v.75h-.25v1h-.25v.75h-.25v1h-.25v1h-.25v1h-.25v1.25h-.25v1h-.25v1h-.25v1.25h-.25v1.25h-.25v1.5h-.25v1.25h-.25v1.5h-.25v1.75h-.25v1.75h-.25v2h-.25v2.5h-.25v3.25h-.25v5.5h-.25v5h.25v5.5h.25v4h9v-2.75h-.25v-5.25h-.25v-9.5h.25v-3.25h.25v-3h.25v-2h.25v-2h.25v-1.75h.25v-1.25h.25v-1.5h.25v-1.25h.25v-1.5h.25v-1h.25v-1.25h.25v-1h.25v-1h.25v-1.25h.25v-.75h.25v-1h.25v-.75h.25v-1h.25v-.75h.25v-1h.25v-.75h.25v-.75h.25v-.75h.25v-.75h.25v-.75h.25v-.75h.25v-.5h.25v-.75h.25v-.75h.25v-.5h.25v-.75h.25v-.5h.25v-.75h.25v-.75h.25v-.5h.25v-.75h.25v-.5h.25v-.5h.25v-.5h.25v-.5h.25v-.75h.25v-.5h.25v-.5h.25v-.5h.25v-.5h.25v-.75h.25v-.25h.25v-.5h.25v-.5h.25v-.5h.25v-.5h.25v-.5h.25v-.5h.25v-.5h.25v-.5h.25v-.5h.25v-.5h.25v-.25h.25v-.5h.25v-.5h.25v-.5h.25v-.25h.25v-.5h.25v-.5h.25v-.5h.25v-.25h.25v-.5h.25v-.5h.25v-.25h.25v-.5h.25v-.25h.25v-.5h.25v-.25h.25v-.5h.25v-.5h.25v-.25h.25v-.5h.25v-.25h.25v-.5h.25v-.25h.25v-.5h.25v-.25h.25v-.25h.25v-.5h.25v-.25h.25v-.5h.25v-.25h.25v-.25h.25v-.5h.25v-.25h.25v-.5h.25v-.25h.25v-.25h.25v-.5h.25v-.25h.25v-.25h.25v-.25h.25v-.5h.25v-.25h.25v-.25h.25v-.5h.25v-.25h.25v-.25h.25v-.25h.25v-.5h.25v-.25h.25v-.25h.25v-.25h.25v-.25h.25v-.25h.25v-.5h.25v-.25h.25v-.25h.25v-.25h.25v-.25h.25v-.25h.25v-.5h.25v-.25h.25v-.25h.25v-.25h.25v-.25h.25v-.25h.25v-.25h.25v-.25h.25v-.25h.25v-.25h.25v-.25h.25v-.25h.25v-.5h.25v-.25h.25v-.25h.25v-.25h.25v-.25h.25v-.25h.25v-.25h.25v-.25h.25v-.25h.25v-.25h.25v-.25h.25v-.25h.25v-.25h.25v-.25h.25v-.25h.5v-.25h.25v-.25h.25v-.25h.25v-.25h.25v-.25h.25v-.25h.25v-.25h.25v-.25h.25v-.25h.25v-.25h.25v-.25h.25v-.25h.5v-.25h.25v-.25h.25v-.25h.25v-.25h.25v-.25h.25v-.25h.25v-.25h.5v-.25h.25v-.25h.25v-.25h.25v-.25h.25v-.25h.5v-.25h.25v-.25h.25v-.25h.25v-.25h.5v-.25h.25v-.25h.25v-.25h.5v-.25h.25v-.25h.25v-.25h.25v-.25h.5v-.25h.25v-.25h.25v-.25h.5v-.25h.25v-.25h.25v-.25h.5v-.25h.25v-.25h.5v-.25h.25v-.25h.25v-.25h.5v-.25h.25v-.25h.5v-.25h.25v-.25h.5v-.25h.25v-.25h.5v-.25h.25v-.25h.5v-.25h.25v-.25h.5v-.25h.5v-.25h.25v-.25h.5v-.25h.25v-.25h.5v-.25h.25v-.25h.5v-.25h.5v-.25h.5v-.25h.25v-.25h.5v-.25h.5v-.25h.5v-.25h.25v-.25h.5v-.25h.5v-.25h.5v-.25h.5v-.25h.5v-.25h.5v-.25h.25v-.25h.5v-.25h.5v-.25h.5v-.25h.5v-.25h.5v-.25h.5v-.25h.5v-.25h.75v-.25h.5v-.25h.5v-.25h.5v-.25h.5v-.25h.75v-.25h.5v-.25h.5v-.25h.75v-.25h.5v-.25h.75v-.25h.5v-.25h.75v-.25h.5v-.25h.75v-.25h.5v-.25h.75v-.25h.75v-.25h.75v-.25h.75v-.25h.75v-.25h.75v-.25h.75v-.25h.75v-.25h.75v-.25h1v-.25h.75v-.25h1v-.25h.75v-.25h1v-.25h1v-.25h1v-.25h1.25v-.25h1v-.25h1v-.25h1.25v-.25h1.5v-.25h1.5v-.25h1.25v-.25h1.75v-.25h2v-.25h1.75v-.25h2.75v-.25h3.25v-.25h14v.25h3.25v.25h2.5v.25h2v.25h2v.25h1.75v.25h1.25v.25h1.5v.25h1.25v.25h1.25v.25h1.25v.25h1v.25h1v.25h1.25v.25h1v.25h.75v.25h1v.25h.75v.25h1v.25h.75v.25h1v.25h.75v.25h.75v.25h.75v.25h.75v.25h.75v.25h.75v.25h.75v.25h.5v.25h.75v.25h.5v.25h.75v.25h.5v.25h.75v.25h.75v.25h.5v.25h.75v.25h.5v.25h.5v.25h.5v.25h.5v.25h.75v.25h.5v.25h.5v.25h.5v.25h.5v.25h.5v.25h.5v.25h.5v.25h.5v.25h.5v.25h.5v.25h.5v.25h.5v.25h.5v.25h.5v.25h.5v.25h.5v.25h.25v.25h.5v.25h.5v.25h.25v.25h.5v.25h.5v.25h.5v.25h.25v.25h.5v.25h.5v.25h.25v.25h.5v.25h.5v.25h.25v.25h.5v.25h.25v.25h.5v.25h.25v.25h.5v.25h.25v.25h.5v.25h.5v.25h.25v.25h.25v.25h.5v.25h.25v.25h.5v.25h.25v.25h.25v.25h.5v.25h.25v.25h.5v.25h.25v.25h.25v.25h.5v.25h.25v.25h.25v.25h.5v.25h.25v.25h.25v.25h.25v.25h.5v.25h.25v.25h.25v.25h.25v.25h.5v.25h.25v.25h.25v.25h.5v.25h.25v.25h.25v.25h.25v.25h.25v.25h.25v.25h.25v.25h.5v.25h.25v.25h.25v.25h.25v.25h.25v.25h.25v.25h.5v.25h.25v.25h.25v.25h.25v.25h.25v.25h.25v.25h.25v.25h.25v.25h.25v.25h.25v.25h.25v.25h.25v.25h.25v.25h.25v.25h.25v.25h.25v.25h.25v.25h.25v.25h.25v.25h.25v.25h.25v.25h.25v.25h.25v.25h.25v.25h.25v.25h.25v.25h.25v.25h.25v.25h.25v.25h.25v.25h.25v.25h.25v.25h.25v.25h.25v.25h.25v.5h.25v.25h.25v.25h.25v.25h.25v.25h.25v.25h.25v.5h.25v.25h.25v.25h.25v.25h.25v.25h.25v.25h.25v.25h.25v.5h.25v.25h.25v.25h.25v.25h.25v.5h.25v.25h.25v.25h.25v.5h.25v.25h.25v.25h.25v.25h.25v.5h.25v.25h.25v.25h.25v.25h.25v.5h.25v.25h.25v.5h.25v.25h.25v.5h.25v.25h.25v.25h.25v.5h.25v.25h.25v.5h.25v.25h.25v.25h.25v.5h.25v.25h.25v.5h.25v.5h.25v.25h.25v.5h.25v.25h.25v.5h.25v.25h.25v.5h.25v.25h.25v.5h.25v.5h.25v.25h.25v.5h.25v.5h.25v.5h.25v.25h.25v.5h.25v.5h.25v.5h.25v.25h.25v.5h.25v.5h.25v.5h.25v.5h.25v.5h.25v.5h.25v.25h.25v.5h.25v.5h.25v.5h.25v.5h.25v.5h.25v.5h.25v.75h.25v.5h.25v.5h.25v.5h.25v.5h.25v.75h.25v.5h.25v.5h.25v.5h.25v.75h.25v.5h.25v.75h.25v.75h.25v.5h.25v.75h.25v.5h.25v.75h.25v.75h.25v.75h.25v.75h.25v.75h.25v.5h.25v.75h.25v.75h.25v1h.25v.75h.25v1h.25v.75h.25v1h.25v.75h.25v1h.25v1.25h.25v1h.25v1h.25v1.25h.25v1h.25v1.5h.25v1.25h.25v1.5h.25v1.5h.25v2h.25v1.75h.25v2.25h.25v3.25h.25v5.5h.25v4h-.25v5.25h-.25v4.75h8.75v-.5h.25v-5.5h.25v-12.75h-.25v-3.25h-.25v-3h-.25v-2h-.25v-1.75h-.25v-2h-.25v-1.5h-.25v-1.25h-.25v-1.5h-.25v-1.25h-.25v-1.25h-.25v-1h-.25v-1.25h-.25v-1h-.25v-1h-.25v-1.25h-.25v-.75h-.25v-1h-.25v-.75h-.25v-1h-.25v-.75h-.25v-1h-.25v-.75h-.25v-.75h-.25v-.75h-.25v-.75h-.25v-.75h-.25v-.75h-.25v-.75h-.25v-.75h-.25v-.75h-.25v-.5h-.25v-.75h-.25v-.5h-.25v-.75h-.25v-.5h-.25v-.75h-.25v-.5h-.25v-.75h-.25v-.5h-.25v-.5h-.25v-.75h-.25v-.5h-.25v-.5h-.25v-.5h-.25v-.5h-.25v-.75h-.25v-.5h-.25v-.5h-.25v-.5h-.25v-.5h-.25v-.5h-.25v-.5h-.25v-.5h-.25v-.5h-.25v-.5h-.25v-.5h-.25v-.5h-.25v-.5h-.25v-.5h-.25v-.5h-.25v-.25h-.25v-.5h-.25v-.5h-.25v-.5h-.25v-.25h-.25v-.5h-.25v-.5h-.25v-.25h-.25v-.5h-.25v-.5h-.25v-.5h-.25v-.25h-.25v-.5h-.25v-.25h-.25v-.5h-.25v-.5h-.25v-.25h-.25v-.5h-.25v-.25h-.25v-.5h-.25v-.25h-.25v-.5h-.25v-.5h-.25v-.25h-.25v-.5h-.25v-.25h-.25v-.25h-.25v-.5h-.25v-.25h-.25v-.5h-.25v-.25h-.25v-.25h-.25v-.5h-.25v-.25h-.25v-.5h-.25v-.25h-.25v-.25h-.25v-.5h-.25v-.25h-.25v-.5h-.25v-.25h-.25v-.25h-.25v-.25h-.25v-.5h-.25v-.25h-.25v-.25h-.25v-.25h-.25v-.5h-.25v-.25h-.25v-.25h-.25v-.5h-.25v-.25h-.25v-.25h-.25v-.25h-.25v-.25h-.25v-.5h-.25v-.25h-.25v-.25h-.25v-.25h-.25v-.25h-.25v-.25h-.25v-.5h-.25v-.25h-.25v-.25h-.25v-.25h-.25v-.25h-.25v-.25h-.25v-.25h-.25v-.5h-.25v-.25h-.25v-.25h-.25v-.25h-.25v-.25h-.25v-.25h-.25v-.25h-.25v-.25h-.25v-.25h-.25v-.25h-.25v-.25h-.25v-.25h-.25v-.25h-.25v-.25h-.25v-.25h-.25v-.25h-.25v-.25h-.25v-.25h-.25v-.25h-.25v-.25h-.25v-.25h-.25v-.25h-.25v-.25h-.25v-.25h-.25v-.25h-.25v-.25h-.25v-.25h-.25v-.25h-.25v-.25h-.25v-.25h-.25v-.25h-.25v-.25h-.25v-.25h-.25v-.25h-.25v-.25h-.25v-.25h-.5v-.25h-.25v-.25h-.25v-.25h-.25v-.25h-.25v-.25h-.25v-.25h-.5v-.25h-.25v-.25h-.25v-.25h-.25v-.25h-.25v-.25h-.25v-.25h-.25v-.25h-.5v-.25h-.25v-.25h-.25v-.25h-.25v-.25h-.5v-.25h-.25v-.25h-.25v-.25h-.25v-.25h-.5v-.25h-.25v-.25h-.25v-.25h-.25v-.25h-.5v-.25h-.25v-.25h-.25v-.25h-.5v-.25h-.25v-.25h-.25v-.25h-.5v-.25h-.25v-.25h-.25v-.25h-.5v-.25h-.25v-.25h-.5v-.25h-.25v-.25h-.5v-.25h-.25v-.25h-.25v-.25h-.5v-.25h-.25v-.25h-.5v-.25h-.25v-.25h-.5v-.25h-.25v-.25h-.5v-.25h-.25v-.25h-.5v-.25h-.25v-.25h-.5v-.25h-.5v-.25h-.25v-.25h-.5v-.25h-.25v-.25h-.5v-.25h-.5v-.25h-.25v-.25h-.5v-.25h-.5v-.25h-.5v-.25h-.25v-.25h-.5v-.25h-.5v-.25h-.25v-.25h-.5v-.25h-.5v-.25h-.5v-.25h-.5v-.25h-.5v-.25h-.5v-.25h-.25v-.25h-.5v-.25h-.5v-.25h-.5v-.25h-.5v-.25h-.5v-.25h-.5v-.25h-.5v-.25h-.5v-.25h-.75v-.25h-.5v-.25h-.5v-.25h-.5v-.25h-.5v-.25h-.75v-.25h-.5v-.25h-.5v-.25h-.5v-.25h-.75v-.25h-.5v-.25h-.75v-.25h-.5v-.25h-.75v-.25h-.5v-.25h-.75v-.25h-.5v-.25h-.75v-.25h-.75v-.25h-.75v-.25h-.75v-.25h-.75v-.25h-.75v-.25h-.75v-.25h-.75v-.25h-.75v-.25h-.75v-.25h-1v-.25h-.75v-.25h-1v-.25h-.75v-.25h-1v-.25h-.75v-.25h-1.25v-.25h-1v-.25h-1v-.25h-1.25v-.25h-1v-.25h-1.25v-.25h-1.5v-.25h-1.25v-.25h-1.5v-.25h-1.5v-.25h-2v-.25h-2v-.25h-2v-.25h-3.25v-.25h-3.75v-.25z" fill="#858788" transform="translate(2.2893585 2.3538159)"/>
	<path d="m32.0371 13.246s13.2452-13.246 13.2452-13.246h18.7851v38.812h-20.0185v-15.4s-12.0118 12.011-12.0118 12.011-12.0107-12.011-12.0107-12.011v15.4h-20.0264v-38.812h18.794s13.2431 13.246 13.2431 13.246" fill="#161413" transform="translate(24.058859 102.49382)"/>
	<path d="m32.0371 13.246s13.2452-13.246 13.2452-13.246h18.7851v38.812h-20.0185v-15.4s-12.0118 12.011-12.0118 12.011-12.0107-12.011-12.0107-12.011v15.4h-20.0264v-38.812h18.794s13.2431 13.246 13.2431 13.246" fill="none" stroke="#161413" stroke-width=".354" transform="translate(24.058859 102.49382)"/>
	<path d="m0 0v34.5h15.5v-18.25h.25v.25h.25v.25h.25v.25h.25v.25h.25v.25h.25v.25h.25v.25h.25v.25h.25v.25h.25v.25h.25v.25h.25v.25h.25v.25h.25v.25h.25v.25h.25v.25h.25v.25h.25v.25h.25v.25h.25v.25h.25v.25h.25v.25h.25v.25h.25v.25h.25v.25h.25v.25h.25v.25h.25v.25h.25v.25h.25v.25h.25v.25h.25v.25h.25v.25h.25v.25h.25v.25h.25v.25h.25v.25h.25v.25h.25v.25h.25v.25h.25v.25h.25v.25h.25v.25h.25v.25h.25v.25h.25v.25h.25v.25h.25v.25h.25v.25h.25v.25h.25v.25h.25v.25h.25v.25h.25v.25h.25v.25h.25v.25h.5v-.25h.25v-.25h.25v-.25h.25v-.25h.25v-.25h.25v-.25h.25v-.25h.25v-.25h.25v-.25h.25v-.25h.25v-.25h.25v-.25h.25v-.25h.25v-.25h.25v-.25h.25v-.25h.25v-.25h.25v-.25h.25v-.25h.25v-.25h.25v-.25h.25v-.25h.25v-.25h.25v-.25h.25v-.25h.25v-.25h.25v-.25h.25v-.25h.25v-.25h.25v-.25h.25v-.25h.25v-.25h.25v-.25h.25v-.25h.25v-.25h.25v-.25h.25v-.25h.25v-.25h.25v-.25h.25v-.25h.25v-.25h.25v-.25h.25v-.25h.25v-.25h.25v-.25h.25v-.25h.25v-.25h.25v-.25h.25v-.25h.25v-.25h.25v-.25h.25v-.25h.25v-.25h.25v-.25h.25v-.25h.25v-.25h.25v18.25h15.75v-34.5h-16v.25h-.25v.25h-.25v.25h-.25v.25h-.25v.25h-.25v.25h-.25v.25h-.25v.25h-.25v.25h-.25v.25h-.25v.25h-.25v.25h-.25v.25h-.25v.25h-.25v.25h-.25v.25h-.25v.25h-.25v.25h-.25v.25h-.25v.25h-.25v.25h-.25v.25h-.25v.25h-.25v.25h-.25v.25h-.25v.25h-.25v.25h-.25v.25h-.25v.25h-.25v.25h-.25v.25h-.25v.25h-.25v.25h-.25v.25h-.25v.25h-.25v.25h-.25v.25h-.25v.25h-.25v.25h-.25v.25h-.25v.25h-.25v.25h-.25v.25h-.25v.25h-.25v.25h-.25v.25h-.25v.25h-.25v.25h-.25v.25h-.25v.25h-.25v.25h-.25v.25h-.25v.25h-.25v.25h-.25v.25h-.25v.25h-.5v-.25h-.25v-.25h-.25v-.25h-.25v-.25h-.25v-.25h-.25v-.25h-.25v-.25h-.25v-.25h-.25v-.25h-.25v-.25h-.25v-.25h-.25v-.25h-.25v-.25h-.25v-.25h-.25v-.25h-.25v-.25h-.25v-.25h-.25v-.25h-.25v-.25h-.25v-.25h-.25v-.25h-.25v-.25h-.25v-.25h-.25v-.25h-.25v-.25h-.25v-.25h-.25v-.25h-.25v-.25h-.25v-.25h-.25v-.25h-.25v-.25h-.25v-.25h-.25v-.25h-.25v-.25h-.25v-.25h-.25v-.25h-.25v-.25h-.25v-.25h-.25v-.25h-.25v-.25h-.25v-.25h-.25v-.25h-.25v-.25h-.25v-.25h-.25v-.25h-.25v-.25h-.25v-.25h-.25v-.25h-.25v-.25h-.25v-.25h-.25v-.25h-.25v-.25h-.25v-.25h-.25v-.25h-.25v-.25h-.25v-.25z" fill="#858788" transform="translate(26.289359 104.60382)"/>
	<path d="m46.547 0s25.279 38.841 25.279 38.841h-20.654s-2.813-4.348-2.813-4.348h-24.894s-2.815 4.348-2.815 4.348h-20.65s25.277-38.841 25.277-38.841zm-4.775 24.213s-5.862-9.059-5.862-9.059-5.862 9.059-5.862 9.059z" fill="#161413" fill-rule="evenodd" transform="translate(91.872359 102.46482)"/>
	<path d="m11.724 9.059s-5.862-9.059-5.862-9.059-5.862 9.059-5.862 9.059z" fill="none" stroke="#161413" stroke-width=".354" transform="translate(121.92036 117.61882)"/>
	<path d="m22.25 0v.25h-.25v.25h-.25v.5h-.25v.25h-.25v.5h-.25v.25h-.25v.5h-.25v.25h-.25v.5h-.25v.5h-.25v.25h-.25v.5h-.25v.25h-.25v.5h-.25v.25h-.25v.5h-.25v.25h-.25v.5h-.25v.25h-.25v.5h-.25v.25h-.25v.5h-.25v.5h-.25v.25h-.25v.5h-.25v.25h-.25v.5h-.25v.25h-.25v.5h-.25v.25h-.25v.5h-.25v.25h-.25v.5h-.25v.25h-.25v.5h-.25v.25h-.25v.5h-.25v.5h-.25v.25h-.25v.5h-.25v.25h-.25v.5h-.25v.25h-.25v.5h-.25v.25h-.25v.5h-.25v.25h-.25v.5h-.25v.25h-.25v.5h-.25v.5h-.25v.25h-.25v.5h-.25v.25h-.25v.5h-.25v.25h-.25v.5h-.25v.25h-.25v.5h-.25v.25h-.25v.5h-.25v.25h-.25v.5h-.25v.5h-.25v.25h-.25v.5h-.25v.25h-.25v.5h-.25v.25h-.25v.5h-.25v.25h-.25v.5h-.25v.25h-.25v.5h-.25v.25h-.25v.5h-.25v.25h-.25v.5h-.25v.5h-.25v.25h-.25v.5h-.25v.25h-.25v.5h-.25v.25h-.25v.5h-.25v.25h-.25v.5h-.25v.25h-.25v.5h-.25v.5h15.5v-.25h.25v-.5h.25v-.5h.25v-.25h.25v-.5h.25v-.25h.25v-.5h.25v-.25h.25v-.5h.25v-.25h.25v-.5h27.5v.5h.25v.25h.25v.5h.25v.25h.25v.5h.25v.25h.25v.5h.25v.5h.25v.25h.25v.5h.25v.25h15.5v-.5h-.25v-.5h-.25v-.25h-.25v-.5h-.25v-.25h-.25v-.5h-.25v-.25h-.25v-.5h-.25v-.25h-.25v-.5h-.25v-.25h-.25v-.5h-.25v-.25h-.25v-.5h-.25v-.5h-.25v-.25h-.25v-.5h-.25v-.25h-.25v-.5h-.25v-.25h-.25v-.5h-.25v-.25h-.25v-.5h-.25v-.25h-.25v-.5h-.25v-.25h-.25v-.5h-.25v-.25h-.25v-.5h-.25v-.5h-.25v-.25h-.25v-.5h-.25v-.25h-.25v-.5h-.25v-.25h-.25v-.5h-.25v-.25h-.25v-.5h-.25v-.25h-.25v-.5h-.25v-.25h-.25v-.5h-.25v-.5h-.25v-.25h-.25v-.5h-.25v-.25h-.25v-.5h-.25v-.25h-.25v-.5h-.25v-.25h-.25v-.5h-.25v-.25h-.25v-.5h-.25v-.25h-.25v-.5h-.25v-.5h-.25v-.25h-.25v-.5h-.25v-.25h-.25v-.5h-.25v-.25h-.25v-.5h-.25v-.25h-.25v-.5h-.25v-.25h-.25v-.5h-.25v-.25h-.25v-.5h-.25v-.25h-.25v-.5h-.25v-.5h-.25v-.25h-.25v-.5h-.25v-.25h-.25v-.5h-.25v-.25h-.25v-.5h-.25v-.25h-.25v-.5h-.25v-.25h-.25v-.5h-.25v-.25h-.25v-.5h-.25v-.5h-.25v-.25h-.25v-.5h-.25v-.25h-.25v-.5h-.25v-.25h-.25v-.25zm9.25 9.5v-.25h.5v.5h.25v.25h.25v.5h.25v.25h.25v.5h.25v.5h.25v.25h.25v.5h.25v.25h.25v.5h.25v.25h.25v.5h.25v.25h.25v.5h.25v.25h.25v.5h.25v.5h.25v.25h.25v.5h.25v.25h.25v.5h.25v.25h.25v.5h.25v.25h.25v.5h.25v.25h.25v.5h.25v.5h.25v.25h.25v.5h.25v.25h.25v.5h.25v.25h.25v.5h.25v.25h.25v.5h.25v.25h.25v.5h.25v.25h-19.5v-.25h.25v-.5h.25v-.25h.25v-.5h.25v-.25h.25v-.5h.25v-.25h.25v-.5h.25v-.25h.25v-.5h.25v-.25h.25v-.5h.25v-.5h.25v-.25h.25v-.5h.25v-.25h.25v-.5h.25v-.25h.25v-.5h.25v-.25h.25v-.5h.25v-.25h.25v-.5h.25v-.5h.25v-.25h.25v-.5h.25v-.25h.25v-.5h.25v-.25h.25v-.5h.25v-.25h.25v-.5h.25v-.5h.25v-.25h.25v-.5h.25v-.25h.25v-.5h.25v-.25h.25z" fill="#b4b6b8" transform="translate(96.039359 104.60382)"/>
	<path d="m43.742 0h20.02v38.812h-20.02s-23.717-17.557-23.717-17.557v17.557h-20.025v-38.812h19.871s23.871 17.714 23.871 17.714z" fill="#161413" transform="translate(167.29836 102.49382)"/>
	<path d="m43.742 0h20.02v38.812h-20.02s-23.717-17.557-23.717-17.557v17.557h-20.025v-38.812h19.871s23.871 17.714 23.871 17.714z" fill="none" stroke="#161413" stroke-width=".354" transform="translate(167.29836 102.49382)"/>
	<path d="m0 0v34.5h15.5v-19.5h.5v.25h.25v.25h.25v.25h.5v.25h.25v.25h.25v.25h.5v.25h.25v.25h.25v.25h.5v.25h.25v.25h.5v.25h.25v.25h.25v.25h.5v.25h.25v.25h.25v.25h.5v.25h.25v.25h.25v.25h.5v.25h.25v.25h.25v.25h.5v.25h.25v.25h.25v.25h.5v.25h.25v.25h.25v.25h.5v.25h.25v.25h.5v.25h.25v.25h.25v.25h.5v.25h.25v.25h.25v.25h.5v.25h.25v.25h.25v.25h.5v.25h.25v.25h.25v.25h.5v.25h.25v.25h.25v.25h.5v.25h.25v.25h.5v.25h.25v.25h.25v.25h.5v.25h.25v.25h.25v.25h.5v.25h.25v.25h.25v.25h.5v.25h.25v.25h.25v.25h.5v.25h.25v.25h.25v.25h.5v.25h.25v.25h.25v.25h.5v.25h.25v.25h.5v.25h.25v.25h.25v.25h.5v.25h.25v.25h.25v.25h.5v.25h.25v.25h.25v.25h.5v.25h17.25v-34.5h-15.5v19.75h-.5v-.25h-.25v-.25h-.25v-.25h-.5v-.25h-.25v-.25h-.25v-.25h-.5v-.25h-.25v-.25h-.25v-.25h-.5v-.25h-.25v-.25h-.25v-.25h-.5v-.25h-.25v-.25h-.25v-.25h-.5v-.25h-.25v-.25h-.25v-.25h-.5v-.25h-.25v-.25h-.5v-.25h-.25v-.25h-.25v-.25h-.5v-.25h-.25v-.25h-.25v-.25h-.5v-.25h-.25v-.25h-.25v-.25h-.5v-.25h-.25v-.25h-.25v-.25h-.5v-.25h-.25v-.25h-.25v-.25h-.5v-.25h-.25v-.25h-.25v-.25h-.5v-.25h-.25v-.25h-.25v-.25h-.5v-.25h-.25v-.25h-.5v-.25h-.25v-.25h-.25v-.25h-.5v-.25h-.25v-.25h-.25v-.25h-.5v-.25h-.25v-.25h-.25v-.25h-.5v-.25h-.25v-.25h-.25v-.25h-.5v-.25h-.25v-.25h-.25v-.25h-.5v-.25h-.25v-.25h-.25v-.25h-.5v-.25h-.25v-.25h-.25v-.25h-.5v-.25h-.25v-.25h-.5v-.25h-.25v-.25h-.25v-.25h-.5v-.25h-.25v-.25h-.25v-.25h-.5v-.25h-.25v-.25h-.25v-.25h-.5v-.25h-.25v-.25h-.25v-.25h-.5v-.25z" fill="#858788" transform="translate(169.53936 104.60382)"/>
	<g fill="#161413">
		<path d="m0 0s1.275 1.27 1.275 1.27v34.218s-1.275 1.276-1.275 1.276z" transform="translate(168.32436 103.51982)"/>
		<path d="m23.9598 0s.688 1.276.688 1.276-22.2962 34.269-22.2962 34.269-2.3516 1.274-2.3516 1.274 23.9598-36.819 23.9598-36.819" transform="translate(93.739559 103.47482)"/>
		<path d="m0 1.276s1.2745-1.276 1.2745-1.276h15.4336s1.2695 1.276 1.2695 1.276h-17.9776" transform="translate(69.129159 139.00782)"/>
		<path d="m0 1.7s1.866-1.7 1.866-1.7h7.838s1.553 1.704 1.553 1.704-11.257-.004-11.257-.004" transform="translate(242.42436 138.58982)"/>
		<path d="m0 1.704s1.55371-1.704 1.55371-1.704h7.83402s1.88667 1.704 1.88667 1.704z" transform="translate(1.8030285 138.58982)"/>
	</g>
	<path d="m0 0s1.7041 1.699 1.7041 1.699h14.9375s.7031-1.699.7031-1.699z" fill="#fff" transform="translate(25.082359 103.51982)"/>
	<path d="m.7031 0s-.7031 1.699-.7031 1.699 14.372 14.371 14.372 14.371v-2.404s-13.6689-13.666-13.6689-13.666" fill="#fff" fill-rule="evenodd" transform="translate(41.723959 103.51982)"/>
	<path d="m0 13.666v1.787s14.1914-14.183 14.1914-14.183-.5253-1.27-.5253-1.27-13.6661 13.666-13.6661 13.666" fill="#161413" transform="translate(56.095959 103.51982)"/>
	<path d="m17.3447 0s-1.7012 1.699-1.7012 1.699h-14.9355s-.708-1.699-.708-1.699z" fill="#fff" transform="translate(69.762059 103.51982)"/>
	<path d="m1.7012 0s-1.7012 1.699-1.7012 1.699v33.364s1.7012 1.701 1.7012 1.701v-36.764" fill="#fff" transform="translate(85.405559 103.51982)"/>
	<g fill="#161413">
		<path d="m0 19.922s1.2745-1.276 1.2745-1.276v-18.646s-1.2745 3.077-1.2745 3.077z" transform="translate(69.129159 120.36182)"/>
		<g fill-rule="evenodd">
			<path d="m0 16.111v-1.803s14.3077-14.308 14.3077-14.308-1.2745 3.077-1.2745 3.077-13.0332 13.034-13.0332 13.034" transform="translate(56.095959 120.36182)"/>
			<path d="m14.7392 16.574v-1.803s-14.7392-14.771-14.7392-14.771 1.7021 3.54 1.7021 3.54 13.0371 13.034 13.0371 13.034" transform="translate(41.356759 119.89882)"/>
		</g>
	</g>
	<path d="m1.7021 20.385s-1.7021-1.701-1.7021-1.701v-18.684s1.7021 3.54 1.7021 3.54z" fill="#fff" transform="translate(41.356759 119.89882)"/>
	<path d="m17.9765 1.276s-1.2724-1.276-1.2724-1.276h-15.4297s-1.2744 1.276-1.2744 1.276z" fill="#161413" transform="translate(25.082359 139.00782)"/>
	<path d="m0 0s1.2744 1.27 1.2744 1.27v34.218s-1.2744 1.276-1.2744 1.276z" fill="#161413" transform="translate(25.082359 103.51982)"/>
	<path d="m20.106 1.273s-2.344-1.273-2.344-1.273h-15.419s-2.343 1.273-2.343 1.273z" fill="#fff" transform="translate(117.73136 127.67282)"/>
	<g fill="#161413">
		<path d="m18.2348 1.274s-.692-1.274-.692-1.274h-15.1912s-2.3516 1.274-2.3516 1.274z" transform="translate(93.739559 139.01982)"/>
		<path d="m.692 5.621s-.692-1.274-.692-1.274 2.813-4.347 2.813-4.347.688 1.275.688 1.275-2.809 4.346-2.809 4.346" transform="translate(111.28236 134.67282)"/>
		<path d="m26.687 1.275s.692-1.275.692-1.275h-27.379s.688 1.275.688 1.275z" transform="translate(114.09536 134.67282)"/>
		<path d="m0 1.275s.692-1.275.692-1.275 2.812 4.347 2.812 4.347-.687 1.274-.687 1.274-2.817-4.346-2.817-4.346" transform="translate(140.78236 134.67282)"/>
	</g>
	<g fill="#fff">
		<path d="m24.888 36.819s-3.144-1.704-3.144-1.704-21.744-33.409-21.744-33.409.926-1.706.926-1.706 23.962 36.819 23.962 36.819" fill-rule="evenodd" transform="translate(136.94436 103.47482)"/>
		<path d="m0 0s.919 1.706.919 1.706h18.326s.926-1.706.926-1.706z" transform="translate(117.69936 103.47482)"/>
		<path d="m0 0s1.7 1.699 1.7 1.699h16.244s.564-1.699.564-1.699z" transform="translate(168.32436 103.51982)"/>
		<path d="m25.792 18.716s1.702 3.383 1.702 3.383-27.494-20.4-27.494-20.4.564-1.699.564-1.699 25.228 18.716 25.228 18.716" transform="translate(186.26836 103.51982)"/>
	</g>
	<path d="m0 18.716s1.277 2.53 1.277 2.53v-19.976s-1.277-1.27-1.277-1.27z" fill="#161413" transform="translate(212.06036 103.51982)"/>
	<path d="m17.977 0s-1.7 1.699-1.7 1.699h-14.575s-1.702-1.699-1.702-1.699z" fill="#fff" transform="translate(212.06036 103.51982)"/>
	<path d="m1.7 0s-1.7 1.699-1.7 1.699v33.364s1.7 1.701 1.7 1.701v-36.764" fill="#fff" transform="translate(228.33736 103.51982)"/>
	<path d="m0 1.276s.418-1.276.418-1.276h16.972s1.271 1.276 1.271 1.276z" fill="#161413" transform="translate(211.37636 139.00782)"/>
	<path d="m26.777 21.422s.418-1.276.418-1.276-27.195-20.146-27.195-20.146 1.703 2.857 1.703 2.857 25.074 18.565 25.074 18.565" fill="#161413" fill-rule="evenodd" transform="translate(184.59936 118.86182)"/>
	<path d="m1.703 21.422s-1.703-1.701-1.703-1.701v-19.721s1.703 2.857 1.703 2.857z" fill="#fff" transform="translate(184.59936 118.86182)"/>
	<path d="m17.978 1.276s-1.276-1.276-1.276-1.276h-15.427s-1.275 1.276-1.275 1.276z" fill="#161413" transform="translate(168.32436 139.00782)"/>
	<path d="m120.25 0v.25h-3.5v.25h-3.25v.25h-2v.25h-1.75v.25h-2v.25h-1.5v.25h-1.5v.25h-1.5v.25h-1.25v.25h-1.25v.25h-1.25v.25h-1v.25h-1v.25h-1.25v.25h-1v.25h-1v.25h-.75v.25h-1v.25h-.75v.25h-1v.25h-.75v.25h-1v.25h-.75v.25h-.75v.25h-.75v.25h-.75v.25h-.75v.25h-.75v.25h-.75v.25h-.75v.25h-.5v.25h-.75v.25h-.5v.25h-.75v.25h-.5v.25h-.75v.25h-.5v.25h-.75v.25h-.5v.25h-.75v.25h-.5v.25h-.5v.25h-.5v.25h-.75v.25h-.5v.25h-.5v.25h-.5v.25h-.5v.25h-.75v.25h-.5v.25h-.5v.25h-.25v.25h-.5v.25h-.5v.25h-.5v.25h-.5v.25h-.5v.25h-.5v.25h-.5v.25h-.5v.25h-.5v.25h-.5v.25h-.25v.25h-.5v.25h-.5v.25h-.5v.25h-.25v.25h-.5v.25h-.5v.25h-.5v.25h-.25v.25h-.5v.25h-.5v.25h-.25v.25h-.5v.25h-.25v.25h-.5v.25h-.5v.25h-.25v.25h-.5v.25h-.25v.25h-.5v.25h-.25v.25h-.5v.25h-.25v.25h-.5v.25h-.25v.25h-.5v.25h-.25v.25h-.5v.25h-.25v.25h-.25v.25h-.5v.25h-.25v.25h-.5v.25h-.25v.25h-.25v.25h-.5v.25h-.25v.25h-.5v.25h-.25v.25h-.25v.25h-.25v.25h-.5v.25h-.25v.25h-.25v.25h-.5v.25h-.25v.25h-.25v.25h-.25v.25h-.5v.25h-.25v.25h-.25v.25h-.25v.25h-.5v.25h-.25v.25h-.25v.25h-.25v.25h-.25v.25h-.5v.25h-.25v.25h-.25v.25h-.25v.25h-.25v.25h-.25v.25h-.25v.25h-.5v.25h-.25v.25h-.25v.25h-.25v.25h-.25v.25h-.25v.25h-.25v.25h-.25v.25h-.25v.25h-.25v.25h-.5v.25h-.25v.25h-.25v.25h-.25v.25h-.25v.25h-.25v.25h-.25v.25h-.25v.25h-.25v.25h-.25v.25h-.25v.25h-.25v.25h-.25v.25h-.25v.25h-.25v.25h-.25v.25h-.25v.25h-.25v.25h-.25v.25h-.25v.25h-.25v.25h-.25v.5h-.25v.25h-.25v.25h-.25v.25h-.25v.25h-.25v.25h-.25v.25h-.25v.25h-.25v.25h-.25v.25h-.25v.25h-.25v.5h-.25v.25h-.25v.25h-.25v.25h-.25v.25h-.25v.25h-.25v.5h-.25v.25h-.25v.25h-.25v.25h-.25v.25h-.25v.25h-.25v.5h-.25v.25h-.25v.25h-.25v.25h-.25v.5h-.25v.25h-.25v.25h-.25v.25h-.25v.5h-.25v.25h-.25v.25h-.25v.5h-.25v.25h-.25v.25h-.25v.25h-.25v.5h-.25v.25h-.25v.5h-.25v.25h-.25v.25h-.25v.5h-.25v.25h-.25v.5h-.25v.25h-.25v.25h-.25v.5h-.25v.25h-.25v.5h-.25v.25h-.25v.5h-.25v.25h-.25v.5h-.25v.25h-.25v.5h-.25v.25h-.25v.5h-.25v.5h-.25v.25h-.25v.5h-.25v.25h-.25v.5h-.25v.25h-.25v.5h-.25v.5h-.25v.5h-.25v.25h-.25v.5h-.25v.5h-.25v.5h-.25v.25h-.25v.5h-.25v.5h-.25v.5h-.25v.25h-.25v.5h-.25v.5h-.25v.5h-.25v.5h-.25v.5h-.25v.5h-.25v.5h-.25v.5h-.25v.5h-.25v.5h-.25v.5h-.25v.5h-.25v.5h-.25v.5h-.25v.5h-.25v.75h-.25v.5h-.25v.5h-.25v.5h-.25v.5h-.25v.75h-.25v.5h-.25v.75h-.25v.5h-.25v.75h-.25v.5h-.25v.75h-.25v.5h-.25v.75h-.25v.5h-.25v.75h-.25v.75h-.25v.75h-.25v.75h-.25v.75h-.25v.75h-.25v.75h-.25v.75h-.25v.75h-.25v.75h-.25v1h-.25v.75h-.25v1h-.25v.75h-.25v1h-.25v1h-.25v1h-.25v1.25h-.25v1h-.25v1h-.25v1.25h-.25v1.25h-.25v1.5h-.25v1.25h-.25v1.5h-.25v1.75h-.25v1.75h-.25v2h-.25v2.25h-.25v3.25h-.25v5.25h-.25v6h.25v5.25h.25v5h.25v.25h.25v-.25h.25v-.25h.25v-.25h.25v-.25h.25v-.25h.25v-.25h.25v-2h-.25v-5.75h-.25v-9h.25v-3.75h.25v-3.25h.25v-2h.25v-2h.25v-2h.25v-1.5h.25v-1.25h.25v-1.5h.25v-1.25h.25v-1.5h.25v-1h.25v-1h.25v-1.25h.25v-1h.25v-1h.25v-1h.25v-.75h.25v-1h.25v-.75h.25v-1h.25v-.75h.25v-1h.25v-.75h.25v-.75h.25v-.75h.25v-.75h.25v-.75h.25v-.75h.25v-.75h.25v-.5h.25v-.75h.25v-.5h.25v-.75h.25v-.75h.25v-.5h.25v-.75h.25v-.5h.25v-.75h.25v-.5h.25v-.5h.25v-.75h.25v-.5h.25v-.5h.25v-.5h.25v-.5h.25v-.75h.25v-.5h.25v-.5h.25v-.5h.25v-.5h.25v-.5h.25v-.5h.25v-.5h.25v-.5h.25v-.5h.25v-.5h.25v-.5h.25v-.5h.25v-.5h.25v-.5h.25v-.25h.25v-.5h.25v-.5h.25v-.5h.25v-.25h.25v-.5h.25v-.5h.25v-.25h.25v-.5h.25v-.5h.25v-.5h.25v-.25h.25v-.5h.25v-.5h.25v-.25h.25v-.5h.25v-.25h.25v-.5h.25v-.25h.25v-.5h.25v-.25h.25v-.5h.25v-.5h.25v-.25h.25v-.5h.25v-.25h.25v-.25h.25v-.5h.25v-.25h.25v-.5h.25v-.25h.25v-.25h.25v-.5h.25v-.25h.25v-.5h.25v-.25h.25v-.25h.25v-.5h.25v-.25h.25v-.5h.25v-.25h.25v-.25h.25v-.25h.25v-.5h.25v-.25h.25v-.25h.25v-.25h.25v-.5h.25v-.25h.25v-.25h.25v-.5h.25v-.25h.25v-.25h.25v-.25h.25v-.25h.25v-.5h.25v-.25h.25v-.25h.25v-.25h.25v-.25h.25v-.25h.25v-.5h.25v-.25h.25v-.25h.25v-.25h.25v-.25h.25v-.25h.25v-.25h.25v-.5h.25v-.25h.25v-.25h.25v-.25h.25v-.25h.25v-.25h.25v-.25h.25v-.25h.25v-.25h.25v-.25h.25v-.25h.25v-.25h.25v-.25h.25v-.25h.25v-.25h.25v-.25h.25v-.25h.25v-.25h.25v-.25h.25v-.25h.25v-.25h.25v-.25h.25v-.25h.25v-.25h.25v-.25h.25v-.25h.25v-.25h.25v-.25h.25v-.25h.25v-.25h.25v-.25h.25v-.25h.25v-.25h.25v-.25h.25v-.25h.5v-.25h.25v-.25h.25v-.25h.25v-.25h.25v-.25h.25v-.25h.25v-.25h.5v-.25h.25v-.25h.25v-.25h.25v-.25h.25v-.25h.25v-.25h.5v-.25h.25v-.25h.25v-.25h.25v-.25h.25v-.25h.5v-.25h.25v-.25h.25v-.25h.5v-.25h.25v-.25h.25v-.25h.25v-.25h.5v-.25h.25v-.25h.25v-.25h.25v-.25h.5v-.25h.25v-.25h.25v-.25h.5v-.25h.25v-.25h.5v-.25h.25v-.25h.25v-.25h.5v-.25h.25v-.25h.5v-.25h.25v-.25h.25v-.25h.5v-.25h.25v-.25h.5v-.25h.25v-.25h.5v-.25h.25v-.25h.5v-.25h.5v-.25h.25v-.25h.5v-.25h.25v-.25h.5v-.25h.25v-.25h.5v-.25h.25v-.25h.5v-.25h.5v-.25h.5v-.25h.25v-.25h.5v-.25h.5v-.25h.5v-.25h.25v-.25h.5v-.25h.5v-.25h.5v-.25h.25v-.25h.5v-.25h.5v-.25h.5v-.25h.5v-.25h.5v-.25h.5v-.25h.5v-.25h.5v-.25h.5v-.25h.5v-.25h.5v-.25h.5v-.25h.5v-.25h.5v-.25h.5v-.25h.75v-.25h.5v-.25h.5v-.25h.5v-.25h.5v-.25h.75v-.25h.5v-.25h.5v-.25h.75v-.25h.75v-.25h.5v-.25h.75v-.25h.5v-.25h.75v-.25h.5v-.25h.75v-.25h.75v-.25h.75v-.25h.75v-.25h.75v-.25h.75v-.25h.75v-.25h.75v-.25h.75v-.25h.75v-.25h1v-.25h.75v-.25h1v-.25h1v-.25h.75v-.25h1v-.25h1.25v-.25h1v-.25h1v-.25h1.25v-.25h1v-.25h1.5v-.25h1.5v-.25h1.25v-.25h1.5v-.25h1.75v-.25h2v-.25h2v-.25h3v-.25h3.25v-.25h14v.25h3.25v.25h3v.25h1.75v.25h2v.25h2v.25h1.5v.25h1.25v.25h1.5v.25h1.25v.25h1.25v.25h1v.25h1.25v.25h1v.25h1v.25h1.25v.25h.75v.25h1v.25h.75v.25h1v.25h.75v.25h1v.25h.75v.25h.75v.25h.75v.25h.75v.25h.75v.25h.75v.25h.75v.25h.75v.25h.5v.25h.75v.25h.5v.25h.75v.25h.75v.25h.5v.25h.75v.25h.5v.25h.75v.25h.5v.25h.5v.25h.5v.25h.75v.25h.5v.25h.5v.25h.5v.25h.75v.25h.5v.25h.5v.25h.5v.25h.5v.25h.5v.25h.5v.25h.5v.25h.5v.25h.5v.25h.5v.25h.5v.25h.5v.25h.5v.25h.25v.25h.5v.25h.5v.25h.5v.25h.25v.25h.5v.25h.5v.25h.5v.25h.25v.25h.5v.25h.5v.25h.25v.25h.5v.25h.5v.25h.25v.25h.5v.25h.25v.25h.5v.25h.25v.25h.5v.25h.5v.25h.25v.25h.5v.25h.25v.25h.5v.25h.25v.25h.5v.25h.25v.25h.5v.25h.25v.25h.25v.25h.5v.25h.25v.25h.5v.25h.25v.25h.25v.25h.5v.25h.25v.25h.5v.25h.25v.25h.25v.25h.25v.25h.5v.25h.25v.25h.25v.25h.5v.25h.25v.25h.25v.25h.25v.25h.5v.25h.25v.25h.25v.25h.25v.25h.5v.25h.25v.25h.25v.25h.25v.25h.25v.25h.5v.25h.25v.25h.25v.25h.25v.25h.25v.25h.25v.25h.25v.25h.5v.25h.25v.25h.25v.25h.25v.25h.25v.25h.25v.25h.25v.25h.25v.25h.25v.25h.25v.25h.5v.25h.25v.25h.25v.25h.25v.25h.25v.25h.25v.25h.25v.25h.25v.25h.25v.25h.25v.25h.25v.25h.25v.25h.25v.25h.25v.25h.25v.25h.25v.25h.25v.25h.25v.25h.25v.25h.25v.25h.25v.25h.25v.5h.25v.25h.25v.25h.25v.25h.25v.25h.25v.25h.25v.25h.25v.25h.25v.25h.25v.25h.25v.25h.25v.5h.25v.25h.25v.25h.25v.25h.25v.25h.25v.25h.25v.5h.25v.25h.25v.25h.25v.25h.25v.25h.25v.25h.25v.5h.25v.25h.25v.25h.25v.5h.25v.25h.25v.25h.25v.25h.25v.5h.25v.25h.25v.25h.25v.25h.25v.5h.25v.25h.25v.25h.25v.5h.25v.25h.25v.25h.25v.5h.25v.25h.25v.5h.25v.25h.25v.25h.25v.5h.25v.25h.25v.5h.25v.25h.25v.5h.25v.25h.25v.5h.25v.25h.25v.5h.25v.25h.25v.5h.25v.25h.25v.5h.25v.25h.25v.5h.25v.5h.25v.25h.25v.5h.25v.25h.25v.5h.25v.5h.25v.25h.25v.5h.25v.5h.25v.5h.25v.25h.25v.5h.25v.5h.25v.5h.25v.25h.25v.5h.25v.5h.25v.5h.25v.5h.25v.5h.25v.5h.25v.5h.25v.5h.25v.5h.25v.5h.25v.5h.25v.5h.25v.5h.25v.5h.25v.5h.25v.5h.25v.75h.25v.5h.25v.5h.25v.5h.25v.75h.25v.5h.25v.5h.25v.75h.25v.5h.25v.75h.25v.5h.25v.75h.25v.75h.25v.5h.25v.75h.25v.75h.25v.75h.25v.5h.25v.75h.25v.75h.25v.75h.25v.75h.25v.75h.25v1h.25v.75h.25v1h.25v.75h.25v1h.25v1h.25v.75h.25v1.25h.25v1h.25v1h.25v1.25h.25v1h.25v1.5h.25v1.25h.25v1.5h.25v1.25h.25v1.75h.25v2h.25v2h.25v2.5h.25v3.25h.25v6.25h.25v3h-.25v5.75h-.25v4.25h.25v.25h.25v.25h.25v.25h.25v.5h.25v.25h.5v-2.25h.25v-5h.25v-5.25h.25v-.25h-.25v-7.5h-.25v-3.5h-.25v-2.75h-.25v-2h-.25v-1.75h-.25v-2h-.25v-1.5h-.25v-1.25h-.25v-1.5h-.25v-1.25h-.25v-1.25h-.25v-1h-.25v-1.25h-.25v-1h-.25v-1h-.25v-1.25h-.25v-.75h-.25v-1h-.25v-.75h-.25v-1h-.25v-.75h-.25v-1h-.25v-.75h-.25v-.75h-.25v-.75h-.25v-.75h-.25v-.75h-.25v-.75h-.25v-.75h-.25v-.75h-.25v-.75h-.25v-.5h-.25v-.75h-.25v-.5h-.25v-.75h-.25v-.5h-.25v-.75h-.25v-.5h-.25v-.75h-.25v-.5h-.25v-.75h-.25v-.5h-.25v-.5h-.25v-.5h-.25v-.75h-.25v-.5h-.25v-.5h-.25v-.5h-.25v-.5h-.25v-.75h-.25v-.5h-.25v-.25h-.25v-.5h-.25v-.5h-.25v-.5h-.25v-.5h-.25v-.5h-.25v-.5h-.25v-.5h-.25v-.5h-.25v-.5h-.25v-.5h-.25v-.5h-.25v-.25h-.25v-.5h-.25v-.5h-.25v-.5h-.25v-.25h-.25v-.5h-.25v-.5h-.25v-.25h-.25v-.5h-.25v-.5h-.25v-.5h-.25v-.25h-.25v-.5h-.25v-.25h-.25v-.5h-.25v-.25h-.25v-.5h-.25v-.25h-.25v-.5h-.25v-.5h-.25v-.25h-.25v-.5h-.25v-.25h-.25v-.5h-.25v-.25h-.25v-.5h-.25v-.25h-.25v-.25h-.25v-.5h-.25v-.25h-.25v-.5h-.25v-.25h-.25v-.25h-.25v-.5h-.25v-.25h-.25v-.5h-.25v-.25h-.25v-.25h-.25v-.5h-.25v-.25h-.25v-.25h-.25v-.25h-.25v-.5h-.25v-.25h-.25v-.25h-.25v-.5h-.25v-.25h-.25v-.25h-.25v-.25h-.25v-.5h-.25v-.25h-.25v-.25h-.25v-.25h-.25v-.5h-.25v-.25h-.25v-.25h-.25v-.25h-.25v-.25h-.25v-.25h-.25v-.5h-.25v-.25h-.25v-.25h-.25v-.25h-.25v-.25h-.25v-.25h-.25v-.25h-.25v-.5h-.25v-.25h-.25v-.25h-.25v-.25h-.25v-.25h-.25v-.25h-.25v-.25h-.25v-.25h-.25v-.25h-.25v-.25h-.25v-.25h-.25v-.25h-.25v-.25h-.25v-.25h-.25v-.25h-.25v-.25h-.25v-.5h-.25v-.25h-.25v-.25h-.25v-.25h-.25v-.25h-.25v-.25h-.5v-.25h-.25v-.25h-.25v-.25h-.25v-.25h-.25v-.25h-.25v-.25h-.25v-.25h-.25v-.25h-.25v-.25h-.25v-.25h-.25v-.25h-.25v-.25h-.25v-.25h-.25v-.25h-.25v-.25h-.25v-.25h-.5v-.25h-.25v-.25h-.25v-.25h-.25v-.25h-.25v-.25h-.25v-.25h-.5v-.25h-.25v-.25h-.25v-.25h-.25v-.25h-.25v-.25h-.25v-.25h-.25v-.25h-.5v-.25h-.25v-.25h-.25v-.25h-.25v-.25h-.5v-.25h-.25v-.25h-.25v-.25h-.5v-.25h-.25v-.25h-.25v-.25h-.25v-.25h-.5v-.25h-.25v-.25h-.25v-.25h-.25v-.25h-.5v-.25h-.25v-.25h-.5v-.25h-.25v-.25h-.25v-.25h-.5v-.25h-.25v-.25h-.5v-.25h-.25v-.25h-.25v-.25h-.5v-.25h-.25v-.25h-.5v-.25h-.25v-.25h-.25v-.25h-.5v-.25h-.25v-.25h-.5v-.25h-.5v-.25h-.25v-.25h-.5v-.25h-.25v-.25h-.5v-.25h-.25v-.25h-.5v-.25h-.5v-.25h-.25v-.25h-.5v-.25h-.25v-.25h-.5v-.25h-.5v-.25h-.5v-.25h-.25v-.25h-.5v-.25h-.5v-.25h-.25v-.25h-.5v-.25h-.5v-.25h-.5v-.25h-.25v-.25h-.5v-.25h-.5v-.25h-.5v-.25h-.5v-.25h-.5v-.25h-.5v-.25h-.5v-.25h-.5v-.25h-.5v-.25h-.5v-.25h-.5v-.25h-.5v-.25h-.5v-.25h-.5v-.25h-.5v-.25h-.75v-.25h-.5v-.25h-.5v-.25h-.5v-.25h-.75v-.25h-.5v-.25h-.5v-.25h-.75v-.25h-.5v-.25h-.75v-.25h-.5v-.25h-.75v-.25h-.5v-.25h-.75v-.25h-.5v-.25h-.75v-.25h-.75v-.25h-.75v-.25h-.75v-.25h-.75v-.25h-.75v-.25h-.75v-.25h-.75v-.25h-.75v-.25h-.75v-.25h-1v-.25h-.75v-.25h-1v-.25h-.75v-.25h-1v-.25h-.75v-.25h-1.25v-.25h-1v-.25h-1v-.25h-1.25v-.25h-1v-.25h-1.25v-.25h-1.5v-.25h-1.25v-.25h-1.5v-.25h-1.5v-.25h-2v-.25h-2v-.25h-2v-.25h-3.25v-.25h-3.25v-.25z" fill="#fff" transform="translate(1.0393585 1.1038159)"/>
	<path d="m111 0v.25h-3.25v.25h-3v.25h-2v.25h-2v.25h-1.75v.25h-1.5v.25h-1.5v.25h-1.25v.25h-1.5v.25h-1v.25h-1v.25h-1.25v.25h-1v.25h-1v.25h-1v.25h-.75v.25h-1v.25h-.75v.25h-1v.25h-.75v.25h-1v.25h-.75v.25h-.75v.25h-.75v.25h-.75v.25h-.5v.25h-.75v.25h-.75v.25h-.75v.25h-.5v.25h-.75v.25h-.5v.25h-.75v.25h-.5v.25h-.75v.25h-.75v.25h-.5v.25h-.5v.25h-.5v.25h-.5v.25h-.75v.25h-.5v.25h-.5v.25h-.5v.25h-.75v.25h-.5v.25h-.5v.25h-.5v.25h-.25v.25h-.5v.25h-.5v.25h-.5v.25h-.5v.25h-.5v.25h-.5v.25h-.5v.25h-.5v.25h-.5v.25h-.25v.25h-.5v.25h-.5v.25h-.5v.25h-.25v.25h-.5v.25h-.5v.25h-.25v.25h-.5v.25h-.5v.25h-.25v.25h-.5v.25h-.25v.25h-.5v.25h-.5v.25h-.25v.25h-.5v.25h-.25v.25h-.5v.25h-.25v.25h-.5v.25h-.25v.25h-.5v.25h-.25v.25h-.5v.25h-.25v.25h-.25v.25h-.5v.25h-.25v.25h-.5v.25h-.25v.25h-.25v.25h-.5v.25h-.25v.25h-.5v.25h-.25v.25h-.25v.25h-.25v.25h-.5v.25h-.25v.25h-.25v.25h-.5v.25h-.25v.25h-.25v.25h-.25v.25h-.5v.25h-.25v.25h-.25v.25h-.25v.25h-.5v.25h-.25v.25h-.25v.25h-.25v.25h-.25v.25h-.25v.25h-.25v.25h-.5v.25h-.25v.25h-.25v.25h-.25v.25h-.25v.25h-.25v.25h-.5v.25h-.25v.25h-.25v.25h-.25v.25h-.25v.25h-.25v.25h-.25v.25h-.25v.25h-.25v.25h-.25v.25h-.25v.25h-.25v.25h-.25v.25h-.25v.25h-.25v.25h-.25v.25h-.25v.25h-.25v.25h-.25v.25h-.25v.25h-.25v.25h-.25v.25h-.25v.25h-.25v.25h-.25v.25h-.25v.25h-.25v.25h-.25v.25h-.25v.25h-.25v.25h-.25v.25h-.25v.5h-.25v.25h-.25v.25h-.25v.25h-.25v.25h-.25v.25h-.25v.25h-.25v.5h-.25v.25h-.25v.25h-.25v.25h-.25v.25h-.25v.25h-.25v.5h-.25v.25h-.25v.25h-.25v.25h-.25v.25h-.25v.5h-.25v.25h-.25v.25h-.25v.5h-.25v.25h-.25v.25h-.25v.25h-.25v.5h-.25v.25h-.25v.25h-.25v.25h-.25v.5h-.25v.25h-.25v.5h-.25v.25h-.25v.25h-.25v.5h-.25v.25h-.25v.5h-.25v.25h-.25v.25h-.25v.5h-.25v.25h-.25v.5h-.25v.25h-.25v.5h-.25v.25h-.25v.5h-.25v.25h-.25v.5h-.25v.5h-.25v.25h-.25v.5h-.25v.25h-.25v.5h-.25v.25h-.25v.5h-.25v.5h-.25v.25h-.25v.5h-.25v.5h-.25v.5h-.25v.25h-.25v.5h-.25v.5h-.25v.5h-.25v.25h-.25v.5h-.25v.5h-.25v.5h-.25v.5h-.25v.5h-.25v.5h-.25v.5h-.25v.5h-.25v.5h-.25v.5h-.25v.5h-.25v.5h-.25v.5h-.25v.5h-.25v.5h-.25v.75h-.25v.5h-.25v.5h-.25v.5h-.25v.5h-.25v.75h-.25v.5h-.25v.75h-.25v.5h-.25v.75h-.25v.5h-.25v.75h-.25v.75h-.25v.5h-.25v.75h-.25v.75h-.25v.75h-.25v.75h-.25v.75h-.25v.75h-.25v.75h-.25v.75h-.25v1h-.25v.75h-.25v1h-.25v.75h-.25v1h-.25v1h-.25v1h-.25v1h-.25v1.25h-.25v1h-.25v1h-.25v1.5h-.25v1.5h-.25v1.25h-.25v1.5h-.25v2h-.25v1.75h-.25v2h-.25v3.5h-.25v4.5h-.25v6.5h.25v5.25h.25v3.5h.25v.25h.25v.25h.25v.25h.5v.25h.25v.25h.25v.25h.5v-.75h-.25v-4.75h-.25v-4.5h-.25v-8.25h.25v-3.5h.25v-3h.25v-2h.25v-1.75h.25v-2h.25v-1.25h.25v-1.5h.25v-1.5h.25v-1.25h.25v-1h.25v-1.25h.25v-1h.25v-1h.25v-1h.25v-1h.25v-1h.25v-.75h.25v-1h.25v-.75h.25v-1h.25v-.75h.25v-.75h.25v-.75h.25v-.75h.25v-.5h.25v-.75h.25v-.75h.25v-.75h.25v-.75h.25v-.5h.25v-.75h.25v-.5h.25v-.75h.25v-.5h.25v-.75h.25v-.5h.25v-.5h.25v-.75h.25v-.5h.25v-.5h.25v-.5h.25v-.75h.25v-.5h.25v-.5h.25v-.5h.25v-.5h.25v-.5h.25v-.5h.25v-.5h.25v-.5h.25v-.5h.25v-.5h.25v-.5h.25v-.5h.25v-.5h.25v-.25h.25v-.5h.25v-.5h.25v-.5h.25v-.25h.25v-.5h.25v-.5h.25v-.5h.25v-.25h.25v-.5h.25v-.5h.25v-.25h.25v-.5h.25v-.5h.25v-.25h.25v-.5h.25v-.25h.25v-.5h.25v-.25h.25v-.5h.25v-.25h.25v-.5h.25v-.5h.25v-.25h.25v-.25h.25v-.5h.25v-.25h.25v-.5h.25v-.25h.25v-.25h.25v-.5h.25v-.25h.25v-.5h.25v-.25h.25v-.25h.25v-.5h.25v-.25h.25v-.25h.25v-.5h.25v-.25h.25v-.25h.25v-.5h.25v-.25h.25v-.25h.25v-.25h.25v-.5h.25v-.25h.25v-.25h.25v-.25h.25v-.5h.25v-.25h.25v-.25h.25v-.25h.25v-.25h.25v-.25h.25v-.5h.25v-.25h.25v-.25h.25v-.25h.25v-.25h.25v-.25h.25v-.5h.25v-.25h.25v-.25h.25v-.25h.25v-.25h.25v-.25h.25v-.25h.25v-.25h.25v-.25h.25v-.25h.25v-.25h.25v-.25h.25v-.25h.25v-.25h.25v-.25h.25v-.5h.25v-.25h.25v-.25h.25v-.25h.25v-.25h.25v-.25h.5v-.25h.25v-.25h.25v-.25h.25v-.25h.25v-.25h.25v-.25h.25v-.25h.25v-.25h.25v-.25h.25v-.25h.25v-.25h.25v-.25h.25v-.25h.25v-.25h.25v-.25h.5v-.25h.25v-.25h.25v-.25h.25v-.25h.25v-.25h.25v-.25h.25v-.25h.5v-.25h.25v-.25h.25v-.25h.25v-.25h.25v-.25h.25v-.25h.5v-.25h.25v-.25h.25v-.25h.5v-.25h.25v-.25h.25v-.25h.25v-.25h.5v-.25h.25v-.25h.25v-.25h.25v-.25h.5v-.25h.25v-.25h.25v-.25h.5v-.25h.25v-.25h.5v-.25h.25v-.25h.25v-.25h.5v-.25h.25v-.25h.5v-.25h.25v-.25h.25v-.25h.5v-.25h.25v-.25h.5v-.25h.25v-.25h.5v-.25h.5v-.25h.25v-.25h.5v-.25h.25v-.25h.5v-.25h.25v-.25h.5v-.25h.25v-.25h.5v-.25h.5v-.25h.25v-.25h.5v-.25h.5v-.25h.5v-.25h.25v-.25h.5v-.25h.5v-.25h.5v-.25h.25v-.25h.5v-.25h.5v-.25h.5v-.25h.5v-.25h.5v-.25h.5v-.25h.5v-.25h.5v-.25h.5v-.25h.5v-.25h.5v-.25h.5v-.25h.5v-.25h.5v-.25h.5v-.25h.75v-.25h.5v-.25h.5v-.25h.5v-.25h.5v-.25h.75v-.25h.5v-.25h.75v-.25h.5v-.25h.75v-.25h.5v-.25h.75v-.25h.75v-.25h.5v-.25h.75v-.25h.75v-.25h.75v-.25h.75v-.25h.75v-.25h.75v-.25h.75v-.25h.75v-.25h1v-.25h.75v-.25h1v-.25h.75v-.25h1v-.25h1v-.25h1v-.25h1.25v-.25h1v-.25h1v-.25h1.25v-.25h1.5v-.25h1.5v-.25h1.25v-.25h1.75v-.25h2v-.25h2v-.25h2.5v-.25h3.5v-.25h13v.25h3.25v.25h2.75v.25h2v.25h2v.25h1.5v.25h1.5v.25h1.5v.25h1.25v.25h1.25v.25h1.25v.25h1v.25h1v.25h1.25v.25h1v.25h.75v.25h1v.25h.75v.25h1v.25h.75v.25h1v.25h.75v.25h.75v.25h.75v.25h.75v.25h.75v.25h.75v.25h.5v.25h.75v.25h.75v.25h.5v.25h.75v.25h.5v.25h.75v.25h.5v.25h.75v.25h.5v.25h.5v.25h.75v.25h.5v.25h.5v.25h.5v.25h.5v.25h.75v.25h.5v.25h.5v.25h.5v.25h.5v.25h.5v.25h.5v.25h.5v.25h.5v.25h.5v.25h.5v.25h.5v.25h.25v.25h.5v.25h.5v.25h.5v.25h.25v.25h.5v.25h.5v.25h.5v.25h.25v.25h.5v.25h.5v.25h.5v.25h.25v.25h.5v.25h.25v.25h.5v.25h.25v.25h.5v.25h.5v.25h.25v.25h.5v.25h.25v.25h.5v.25h.25v.25h.5v.25h.25v.25h.5v.25h.25v.25h.25v.25h.5v.25h.25v.25h.5v.25h.25v.25h.25v.25h.5v.25h.25v.25h.5v.25h.25v.25h.25v.25h.25v.25h.5v.25h.25v.25h.25v.25h.25v.25h.5v.25h.25v.25h.25v.25h.5v.25h.25v.25h.25v.25h.25v.25h.5v.25h.25v.25h.25v.25h.25v.25h.25v.25h.25v.25h.25v.25h.5v.25h.25v.25h.25v.25h.25v.25h.25v.25h.25v.25h.5v.25h.25v.25h.25v.25h.25v.25h.25v.25h.25v.25h.25v.25h.25v.25h.25v.25h.25v.25h.25v.25h.25v.25h.25v.25h.25v.25h.25v.25h.25v.25h.25v.25h.25v.25h.25v.25h.25v.25h.25v.25h.25v.25h.25v.25h.25v.25h.25v.25h.25v.25h.25v.25h.25v.25h.25v.25h.25v.25h.25v.25h.25v.5h.25v.25h.25v.25h.25v.25h.25v.25h.25v.25h.25v.5h.25v.25h.25v.25h.25v.25h.25v.25h.25v.25h.25v.25h.25v.5h.25v.25h.25v.25h.25v.25h.25v.5h.25v.25h.25v.25h.25v.25h.25v.5h.25v.25h.25v.25h.25v.25h.25v.5h.25v.25h.25v.25h.25v.5h.25v.25h.25v.25h.25v.5h.25v.25h.25v.5h.25v.25h.25v.25h.25v.5h.25v.25h.25v.5h.25v.25h.25v.5h.25v.25h.25v.5h.25v.25h.25v.5h.25v.25h.25v.5h.25v.25h.25v.5h.25v.25h.25v.5h.25v.5h.25v.25h.25v.5h.25v.5h.25v.25h.25v.5h.25v.5h.25v.5h.25v.25h.25v.5h.25v.5h.25v.25h.25v.5h.25v.5h.25v.5h.25v.5h.25v.5h.25v.5h.25v.5h.25v.5h.25v.5h.25v.5h.25v.5h.25v.5h.25v.5h.25v.5h.25v.5h.25v.75h.25v.5h.25v.5h.25v.5h.25v.5h.25v.75h.25v.5h.25v.75h.25v.5h.25v.75h.25v.5h.25v.75h.25v.5h.25v.75h.25v.75h.25v.75h.25v.75h.25v.75h.25v.75h.25v.75h.25v.5h.25v1h.25v.75h.25v1h.25v.75h.25v1h.25v.75h.25v1h.25v1h.25v1.25h.25v1h.25v1h.25v1.25h.25v1.5h.25v1.25h.25v1.5h.25v1.5h.25v2h.25v1.75h.25v2.25h.25v3.25h.25v6h.25v2.75h-.25v4.5h-.25v4.75h-.25v2.5h.5v-.25h.25v-.25h.25v-.25h.25v-.25h.25v-.25h.25v-.25h.25v-.25h.25v-5.25h.25v-13h-.25v-3.25h-.25v-2.5h-.25v-2h-.25v-2h-.25v-1.75h-.25v-1.25h-.25v-1.5h-.25v-1.25h-.25v-1.25h-.25v-1.25h-.25v-1h-.25v-1h-.25v-1.25h-.25v-1h-.25v-.75h-.25v-1h-.25v-.75h-.25v-1h-.25v-.75h-.25v-1h-.25v-.75h-.25v-.75h-.25v-.75h-.25v-.75h-.25v-.75h-.25v-.75h-.25v-.75h-.25v-.5h-.25v-.75h-.25v-.5h-.25v-.75h-.25v-.75h-.25v-.5h-.25v-.75h-.25v-.5h-.25v-.75h-.25v-.5h-.25v-.5h-.25v-.5h-.25v-.5h-.25v-.75h-.25v-.5h-.25v-.5h-.25v-.5h-.25v-.75h-.25v-.5h-.25v-.25h-.25v-.5h-.25v-.5h-.25v-.5h-.25v-.5h-.25v-.5h-.25v-.5h-.25v-.5h-.25v-.5h-.25v-.5h-.25v-.5h-.25v-.25h-.25v-.5h-.25v-.5h-.25v-.5h-.25v-.25h-.25v-.5h-.25v-.5h-.25v-.5h-.25v-.25h-.25v-.5h-.25v-.5h-.25v-.25h-.25v-.5h-.25v-.25h-.25v-.5h-.25v-.25h-.25v-.5h-.25v-.5h-.25v-.25h-.25v-.5h-.25v-.25h-.25v-.5h-.25v-.25h-.25v-.5h-.25v-.25h-.25v-.25h-.25v-.5h-.25v-.25h-.25v-.5h-.25v-.25h-.25v-.25h-.25v-.5h-.25v-.25h-.25v-.5h-.25v-.25h-.25v-.25h-.25v-.5h-.25v-.25h-.25v-.25h-.25v-.25h-.25v-.5h-.25v-.25h-.25v-.25h-.25v-.5h-.25v-.25h-.25v-.25h-.25v-.25h-.25v-.5h-.25v-.25h-.25v-.25h-.25v-.25h-.25v-.25h-.25v-.25h-.25v-.5h-.25v-.25h-.25v-.25h-.25v-.25h-.25v-.25h-.25v-.25h-.25v-.5h-.25v-.25h-.25v-.25h-.25v-.25h-.25v-.25h-.25v-.25h-.25v-.25h-.25v-.25h-.25v-.25h-.25v-.25h-.25v-.25h-.25v-.25h-.25v-.5h-.25v-.25h-.25v-.25h-.25v-.25h-.25v-.25h-.25v-.25h-.25v-.25h-.25v-.25h-.25v-.25h-.25v-.25h-.25v-.25h-.25v-.25h-.25v-.25h-.25v-.25h-.25v-.25h-.25v-.25h-.5v-.25h-.25v-.25h-.25v-.25h-.25v-.25h-.25v-.25h-.25v-.25h-.25v-.25h-.25v-.25h-.25v-.25h-.25v-.25h-.25v-.25h-.25v-.25h-.5v-.25h-.25v-.25h-.25v-.25h-.25v-.25h-.25v-.25h-.25v-.25h-.5v-.25h-.25v-.25h-.25v-.25h-.25v-.25h-.25v-.25h-.25v-.25h-.5v-.25h-.25v-.25h-.25v-.25h-.5v-.25h-.25v-.25h-.25v-.25h-.25v-.25h-.5v-.25h-.25v-.25h-.25v-.25h-.25v-.25h-.5v-.25h-.25v-.25h-.25v-.25h-.5v-.25h-.25v-.25h-.5v-.25h-.25v-.25h-.5v-.25h-.25v-.25h-.25v-.25h-.5v-.25h-.25v-.25h-.5v-.25h-.25v-.25h-.25v-.25h-.5v-.25h-.5v-.25h-.25v-.25h-.5v-.25h-.25v-.25h-.5v-.25h-.25v-.25h-.5v-.25h-.25v-.25h-.5v-.25h-.5v-.25h-.25v-.25h-.5v-.25h-.5v-.25h-.25v-.25h-.5v-.25h-.5v-.25h-.5v-.25h-.25v-.25h-.5v-.25h-.5v-.25h-.5v-.25h-.25v-.25h-.5v-.25h-.5v-.25h-.5v-.25h-.5v-.25h-.5v-.25h-.5v-.25h-.5v-.25h-.5v-.25h-.5v-.25h-.5v-.25h-.5v-.25h-.5v-.25h-.5v-.25h-.75v-.25h-.5v-.25h-.5v-.25h-.5v-.25h-.5v-.25h-.75v-.25h-.5v-.25h-.5v-.25h-.75v-.25h-.5v-.25h-.75v-.25h-.75v-.25h-.5v-.25h-.75v-.25h-.5v-.25h-.75v-.25h-.75v-.25h-.75v-.25h-.75v-.25h-.75v-.25h-.75v-.25h-.75v-.25h-.75v-.25h-.75v-.25h-1v-.25h-.75v-.25h-1v-.25h-.75v-.25h-1v-.25h-1v-.25h-1.25v-.25h-1v-.25h-1v-.25h-1.25v-.25h-1.25v-.25h-1.5v-.25h-1.25v-.25h-1.5v-.25h-1.75v-.25h-2v-.25h-2v-.25h-3v-.25h-3.25v-.25z" fill="#fff" transform="translate(10.539359 10.603816)"/>
	<g fill="#161413">
		<path d="m10.055 15.535s-2.344-1.273-2.344-1.273-7.711-11.919-7.711-11.919v-2.343s10.055 15.535 10.055 15.535" fill-rule="evenodd" transform="translate(127.78236 113.41082)"/>
		<path d="m18.233 1.274s-2.351-1.274-2.351-1.274h-15.195s-.687 1.274-.687 1.274z" transform="translate(143.59936 139.01982)"/>
	</g>
</svg>