<svg viewBox="0 0 920.41411 196.34666" xmlns="http://www.w3.org/2000/svg">
	<clipPath id="a">
		<path d="m0 595.276h841.89v-595.276h-841.89z"/>
	</clipPath>
	<g fill="#231f20">
		<path d="m561.604 368.694h-22.433v-142.459h22.433z" transform="matrix(1.3333333 0 0 -1.3333333 -101.0528 495.02345)"/>
		<g clip-path="url(#a)" transform="matrix(1.3333333 0 0 -1.3333333 -101.0528 495.02345)">
			<path d="m0 0c28.177 0 50.253-22.847 50.253-52.025 0-29.188-22.076-52.036-50.253-52.036-28.176 0-50.262 22.848-50.262 52.036 0 29.178 22.086 52.025 50.262 52.025m0-125.704c40.192 0 72.889 33.034 72.889 73.64 0 40.587-32.697 73.62-72.889 73.62-40.191 0-72.878-33.033-72.878-73.62 0-40.606 32.687-73.64 72.878-73.64" transform="translate(387.3403 349.7116)"/>
			<path d="m0 0-.005-.013c-.185.438-.618.745-1.123.745-.526 0-.966-.333-1.137-.799l-.005.002-62.584-143.176h22.21l41.523 94.993 41.56-94.993h22.193z" transform="translate(703.4682 369.4387)"/>
			<path d="m0 0-.002-.006c-.241.602-.823 1.076-1.512 1.09-.718.015-1.338-.47-1.585-1.102l-.009.005-27.399-73.864-6.403-17.196-33.788 91.086c-.242.599-.822 1.07-1.509 1.084-.704.015-1.309-.456-1.564-1.068l-58.141-143.248h23.378l18.105 43.589 17.701 46.437 34.556-89.656c.193-.479.658-.823 1.208-.835.573-.011 1.068.342 1.266.847l34.644 89.528 35.849-89.91h23.378z" transform="translate(207.7016 369.4035)"/>
		</g>
	</g>
</svg>