<svg fill-rule="evenodd" stroke-linejoin="round" stroke-miterlimit="2" viewBox="0 0 942.08197 842.336" xmlns="http://www.w3.org/2000/svg">
	<path fill="#004489" fill-rule="nonzero" d="m 313.726,250.453 c 6.377,-4.828 14.855,-4.386 22.338,-3.307 3.775,1.26 7.509,3.264 10.069,6.418 2.379,2.738 3.236,6.445 4.288,9.848 -1.786,0.042 -3.556,-0.056 -5.326,0 -1.3,-2.918 -2.337,-6.071 -4.758,-8.271 -5.698,-4.758 -14.135,-5.477 -20.815,-2.49 -4.385,1.964 -7.33,6.141 -8.894,10.567 -1.728,6.073 -2.392,12.601 -0.788,18.782 1.369,6.446 5.339,12.974 11.95,15.021 6.735,2.034 15.061,0.636 19.653,-5.048 3.237,-3.789 4.164,-8.907 4.607,-13.72 l -17.552,-0.042 -0.139,-4.965 22.228,-0.055 c 0.372,9.307 0.234,18.513 0.11,27.835 -1.079,-0.07 -3.223,0.068 -4.302,0 l -0.483,-8.112 c -7.663,12.863 -28.686,12.697 -36.929,0.553 -3.375,-4.523 -4.527,-10.452 -5.215,-15.588 -0.688,-5.136 -0.214,-9.64 1.134,-14.495 1.348,-4.855 4.164,-10.054 8.824,-12.931 z m 320.851,10.456 c 2.667,-6.299 8.45,-12.048 15.008,-13.997 6.616,-1.968 14.688,-1.079 20.399,3.554 4.303,2.864 5.975,8.077 6.986,12.89 h -5.311 c -1.038,-2.766 -1.549,-5.849 -3.888,-7.883 -7.481,-7.565 -21.948,-5.616 -26.817,3.983 -4.164,9.115 -4.26,20.082 -0.083,29.211 1.922,3.472 5.053,6.48 8.671,8.05 3.486,1.512 7.694,1.764 11.369,0.802 2.96,-0.775 5.726,-2.682 7.663,-5.048 1.989,-2.43 2.698,-5.691 3.527,-8.733 h 5.103 c -0.47,4.868 -2.281,9.77 -5.767,13.31 -5.726,5.382 -14.448,6.519 -21.646,4.828 -5.864,-1.379 -11.539,-5.901 -14.037,-11.383 -4.282,-9.387 -4.777,-21.077 -1.177,-29.584 z m -419.23,-13.071 6.652,0.015 19.848,53.317 c -1.591,0.015 -3.61,-0.04 -5.2,0 -2.324,-5.339 -4.315,-10.456 -6.058,-16.029 -7.967,-0.264 -15.933,-0.07 -23.887,-0.153 l -6.03,16.182 c -1.867,-0.111 -3.624,0.111 -5.49,0 l 20.276,-53.332 m 2.49,7.247 c -2.822,8.563 -6.516,16.431 -9.35,24.994 l 19.889,-0.028 c -2.92,-8.23 -6.694,-16.529 -8.978,-24.966 z m 202.457,-7.247 h 34.93 v 4.453 h -29.694 v 19.192 c 8.935,-0.153 18,0.013 26.948,0 v 4.301 h -26.948 v 20.802 h 30.828 c 0.043,1.078 -0.055,3.264 0,4.343 h -36.106 z m 103.29,0.028 h 6.036 l 29.17,44.321 v -44.321 h 5.477 v 53.631 h -5.062 l -30.207,-44.33 c -0.498,14.772 0.139,29.558 -0.346,44.33 h -5.068 z m 215.21,0 h 5.864 l 15.235,24.563 15.304,-24.563 h 5.933 l -18.692,29.675 v 23.463 h -5.09 V 277.541 Z M 343.962,4.121 C 349.593,2.668 355.166,0.953 360.919,0 335.194,9.279 309.455,18.601 284.351,29.473 l 78.726,118.116 0.153,-130.454 h 62.28 l 0.153,126.36 c 10.484,-2.24 20.995,-4.481 31.313,-7.358 -0.485,-13.235 -1.259,-26.638 1.245,-39.722 3.996,-23.803 16.804,-46.596 37.039,-60.248 13.263,-9.557 29.045,-14.799 44.936,-17.98 17.857,-3.458 36.154,-3.458 54.26,-2.448 15.74,1.258 31.479,4.163 46.181,10.055 8.437,3.762 16.652,8.492 23.015,15.311 11.356,10.954 16.86,26.79 17.497,42.323 -22.698,0.096 -45.408,-0.042 -68.119,0.083 -1.494,-7.179 -3.928,-14.578 -9.473,-19.695 -5.381,-5.505 -13.195,-7.497 -20.595,-8.326 -11.176,-0.913 -22.89,0.359 -32.89,5.739 -8.714,4.508 -15.449,12.337 -19.46,21.216 -4.702,10.444 -6.1,21.991 -6.528,33.32 10.263,-3.417 20.332,-7.401 30.303,-11.55 4.066,-1.77 8.105,-3.636 12.42,-4.73 -29.694,19.197 -62.488,33.001 -95.778,44.633 -22.6,7.648 -45.504,14.398 -68.755,19.751 -15.474,3.209 -27.701,6.213 -41.77,8.616 -28.814,4.924 -57.869,8.769 -87.052,10.262 -30.607,1.039 -61.782,-0.012 -91.325,-8.809 -10.262,-2.919 -19.987,-7.69 -28.575,-13.997 l -5.934,-5.547 47.938,-13.733 -0.221,-55.173 c -5.975,5.741 -11.714,12.337 -13.638,20.623 -1.106,6.915 -0.691,14.191 2.256,20.621 l 0.234,2.228 c -13.61,6.707 -26.651,14.522 -40.276,21.202 -5.726,-8.339 -7.481,-19.142 -4.232,-28.769 5.022,-15.684 17.344,-27.426 29.571,-37.786 8.368,-6.513 16.984,-12.765 26.266,-17.938 l 0.082,-48.534 h 81.852 l 4.024,7.097 C 301.861,16.21 322.899,10.041 343.962,4.121 m -86.041,78.09 0.083,76.541 h 50.081 z"/>
	<g fill="#0b89c6">
		<path d="m 769.513,170.274 h 65.151 V 365.18 h -65.151 z" transform="translate(-53.167 -152.224)"/>
		<path fill-rule="nonzero" d="m 559.573,292.402 c 6.446,-2.503 12.516,-5.905 19.17,-7.856 1.853,10.594 5.85,21.327 13.942,28.768 8.837,8.907 21.659,13.084 34.064,12.586 9.89,0.526 20.277,-1.092 28.479,-6.984 9.197,-6.155 14.204,-16.971 15.546,-27.704 l 68.781,-0.013 c -1.507,19.598 -9.35,39.597 -25.102,52.06 -18.838,15.103 -43.402,20.11 -66.902,22.102 -17.04,0.76 -34.231,1.451 -51.147,-1.094 -18.45,-2.406 -36.748,-8.394 -51.989,-19.265 -12.531,-9.267 -22.877,-21.826 -28.133,-36.625 14.563,-4.951 29.086,-10.041 43.291,-15.975 z M 453.96,326.011 c 8.256,-1.909 16.431,-4.177 24.536,-6.667 0.345,15.506 0.249,30.961 0.028,46.48 h -83.803 l -16.099,-25.18 c 7.981,-1.451 16.086,-2.185 24.066,-3.679 17.275,-2.724 34.245,-6.971 51.272,-10.954 z m -205.196,12.946 c 8.394,0.995 16.652,2.947 25.089,3.555 12.337,1.494 24.77,1.715 37.178,2.102 l -0.07,21.21 h -62.17 z" transform="translate(-53.167 -152.224)"/>
	</g>
	<path fill="#fff" d="M 0,371.286 H 942.035 V 842.303 H 0 Z"/>
	<path d="m 710.075,610.358 v 25.907 H 703.01 V 610.358 H 471.028 V 842.333 H 942.045 V 610.358 Z"/>
	<g fill-rule="nonzero">
		<path fill="#0b89c6" d="m 288.639,759.03 28.673,-31.137 -25.548,-118.699 35.765,112.005 121.789,37.817 h 15.953 v -3.534 h 58.876 V 523.515 L 292.18,523.5 v 58.884 h -3.536 z m 124.235,-22.956 -5.821,-1.811 c -9.736,-46.931 -46.592,-83.918 -93.428,-93.778 l -1.874,-5.849 c 51.295,9.501 91.714,50.039 101.126,101.432 z" transform="translate(-53.167 -152.224)"/>
		<path fill="#004489" d="M 524.094,994.523 V 762.545 h -58.88 V 759.02 H 288.582 l 31.087,28.707 118.516,-25.587 -111.852,35.819 -37.755,121.963 v 15.724 h 3.536 v 58.88 z m -212.6,-111.081 1.808,-5.826 c 46.883,-9.742 83.823,-46.662 93.668,-93.567 l 5.833,-1.868 c -9.496,51.371 -49.97,91.852 -101.309,101.261 z" transform="translate(-53.167 -152.224)"/>
		<path fill="#0b89c6" d="m 288.676,759.03 -28.673,31.138 25.548,118.698 -35.765,-112.005 -121.789,-37.817 h -15.953 v 3.534 H 53.168 v 231.968 l 231.967,0.014 v -58.883 h 3.536 z m -124.235,22.956 5.821,1.812 c 9.736,46.93 46.592,83.917 93.428,93.777 l 1.874,5.85 C 214.269,873.923 173.85,833.386 164.437,781.993 Z" transform="translate(-53.167 -152.224)"/>
		<path fill="#004489" d="M 53.221,523.537 V 755.515 H 112.1 v 3.525 h 176.633 l -31.087,-28.706 -118.517,25.587 111.853,-35.819 37.755,-121.964 v -15.724 h -3.536 v -58.88 z m 212.6,111.081 -1.808,5.827 c -46.883,9.741 -83.823,46.661 -93.668,93.566 l -5.833,1.868 c 9.496,-51.371 49.97,-91.852 101.308,-101.261 z" transform="translate(-53.167 -152.224)"/>
	</g>
	<path d="m 471.054,371.323 v 231.96 h 231.982 v -25.884 h 7.065 v 25.884 h 231.981 v -231.96 z"/>
	<g fill="#fff">
		<path d="m 840.186,618.835 c -2.186,0 -2.688,-1.706 -3.814,-6.636 -2.287,-9.97 -5.76,-9.97 -18.674,-9.964 l -11.621,0.04 c 0.089,5.247 0.056,14.57 0.018,24.445 -0.078,21.2 -0.178,47.448 0.775,51.63 0.379,1.656 4.132,2.994 6.039,3.345 l 3.575,0.458 c 3.702,0.44 5.386,0.635 6.406,2.202 0.87,1.338 0.681,2.732 -0.479,3.63 -0.692,0.535 -2.063,0.535 -9.452,0.279 l -14.531,-0.34 c -7.026,0 -11.593,0.217 -14.933,0.379 -3.831,0.19 -5.866,0.29 -7.806,-0.111 -0.736,-0.295 -1.205,-0.853 -1.383,-1.589 -0.207,-0.848 0.007,-1.751 0.602,-2.487 1.026,-1.255 2.002,-1.361 4.6,-1.64 a 111.4,111.4 0 0 0 4.243,-0.524 c 2.275,-0.407 6.993,-2.219 7.222,-3.524 0.501,-3.245 0.669,-47.043 0.747,-68.096 l 0.033,-8.007 -17.61,0.056 c -4.918,0.05 -8.069,1.823 -12.022,6.758 -0.903,1.36 -3.451,4.812 -5.253,7.059 -1.054,1.311 -2.821,2.61 -4.327,1.98 -0.557,-0.234 -1.461,-0.915 -1.243,-2.889 l 6.128,-24.412 c 0.206,-0.953 0.982,-2.576 2.61,-2.576 1.829,0 2.147,0.591 3.496,3.106 l 0.58,1.087 c 1.137,1.84 2.03,3.29 9.92,3.129 l 59.681,0.251 c 0.273,0 0.808,-0.151 0.903,-0.452 2.325,-4.662 3.714,-7.271 5.492,-7.271 1.299,0.004 2.855,0.714 2.855,4.054 l -0.018,24.133 c -0.139,1.561 -1.165,2.498 -2.76,2.498 m -176.199,70.865 c -0.674,0.752 -0.775,0.802 -0.881,0.808 l -3.412,0.301 c -13.21,-12.97 -42.545,-45.06 -60.07,-64.238 l -11.537,-12.59 0.451,65.769 c 0.307,1.484 2.95,1.958 4.361,2.214 1.834,0.262 3.201,0.413 4.193,0.524 2.788,0.301 3.764,0.408 4.79,1.662 1.115,1.383 0.803,2.794 0.04,3.519 -0.764,0.719 -2.487,0.697 -8.347,0.49 -2.448,-0.089 -6.151,-0.223 -9.819,-0.195 -3.251,0.022 -6.474,0.134 -9.061,0.223 -5.911,0.206 -7.009,0.206 -7.606,-0.196 -0.468,-0.312 -0.792,-0.825 -0.886,-1.421 -0.079,-0.53 -0.019,-1.35 0.736,-2.275 1.014,-1.25 1.979,-1.355 4.594,-1.64 l 4.244,-0.524 c 2.046,-0.373 4.427,-1.578 4.545,-2.303 0.674,-4.048 0.457,-51.386 0.317,-69.268 -0.184,-4.745 -0.474,-6.139 -0.764,-6.942 -1.477,-4.148 -8.191,-4.6 -11.057,-4.79 -0.703,-0.051 -1.121,-0.078 -1.411,-0.145 l -0.909,-4.299 20.481,-1.232 c 1.74,0.953 5.113,3.462 8.213,6.724 l 61.024,67.186 -2.593,-65.02 c -0.312,-1.784 -3.044,-2.281 -4.349,-2.515 -2.047,-0.295 -3.519,-0.457 -4.394,-0.552 -2.61,-0.279 -3.586,-0.385 -4.612,-1.645 -1.115,-1.377 -0.803,-2.788 -0.04,-3.513 0.77,-0.725 2.493,-0.697 8.387,-0.485 2.782,0.095 6.25,0.218 9.774,0.19 3.268,-0.026 6.49,-0.139 9.078,-0.223 5.9,-0.206 6.998,-0.212 7.606,0.2 0.468,0.318 0.786,0.837 0.875,1.428 0.078,0.518 0.008,1.332 -0.73,2.258 -1.026,1.26 -2.002,1.366 -4.612,1.645 l -4.237,0.519 c -2.515,0.457 -4.551,1.656 -4.528,2.074 0.022,0.429 2.085,69.624 2.046,75.59 l 0.206,12.401 -0.106,0.285 z" transform="translate(-53.167 -152.224)"/>
		<path d="m 705.588,639.145 c 3.497,0.217 13.16,0.713 23.303,0.295 l -11.71,-31.265 -11.593,30.969 z m 63.816,47.007 a 2.63,2.63 0 0 1 -1.132,1.795 c -1.31,0.541 -3.552,0.474 -8.113,0.29 -2.526,-0.106 -5.978,-0.25 -9.547,-0.217 -3.094,0.025 -5.927,0.117 -8.805,0.212 -6.083,0.195 -7.873,0.228 -8.698,-0.335 -0.809,-0.63 -1.361,-2.058 -0.792,-3.457 0.625,-1.5 1.762,-1.628 4.249,-1.907 1.082,-0.117 2.375,-0.268 4.043,-0.519 0.847,-0.167 2.843,-0.563 3.278,-1.277 -0.162,-1.132 -3.657,-10.784 -8.609,-24.138 l -3.708,-9.959 c -15.234,-0.82 -25.522,-0.407 -28.689,-0.234 l -4.054,10.884 -1.293,3.48 -6.747,18.178 c -0.252,0.752 -0.257,1.343 -0.019,1.75 0.486,0.831 1.958,1.116 2.833,1.289 1.483,0.223 2.598,0.323 3.524,0.406 2.576,0.24 3.993,0.374 4.969,2.716 0.267,0.719 0.217,1.427 -0.134,1.996 -0.346,0.558 -0.954,0.903 -1.707,0.976 -3.25,0.312 -6.367,0.206 -9.969,0.083 -2.264,-0.078 -5.242,-0.178 -8.543,-0.145 l -8.063,0.184 c -4.991,0.151 -5.922,0.151 -6.496,-0.2 -0.608,-0.374 -1.277,-1.104 -1.344,-2.058 -0.044,-0.557 0.107,-1.383 1.043,-2.163 1.31,-1.071 2.32,-1.16 4.773,-1.383 1.205,-0.112 2.771,-0.257 4.924,-0.541 1.667,-0.228 5.319,-1.818 6.279,-3.736 0.769,-1.533 8.754,-22.761 16.482,-43.291 l 0.329,-0.881 16.985,-44.707 4.851,-0.702 c 0.948,0.937 10.149,24.925 23.091,58.73 l 12.323,32.002 c 1.059,1.778 4.087,2.291 5.71,2.57 4.215,0.681 4.946,0.943 6.022,2.147 0.747,0.836 0.82,1.639 0.753,2.164 M 894.49,596.851 c -9.936,0 -18.139,3.162 -24.378,9.401 -9.156,9.157 -12.418,23.325 -12.418,33.529 0,10.01 3.496,25.187 13.343,35.035 6.128,6.128 13.717,9.234 22.567,9.234 12.808,0 22.522,-4.171 28.873,-12.396 5.749,-7.45 8.665,-18.022 8.665,-31.421 0,-14.465 -3.892,-25.695 -11.576,-33.379 -8.704,-8.704 -19.449,-10.003 -25.076,-10.003 m 43.987,71.997 c -0.575,0.887 -14.404,21.635 -44.129,21.635 -15.273,0 -28.287,-4.94 -37.631,-14.286 -9.15,-9.144 -14.391,-22.181 -14.391,-35.77 0,-13.021 4.695,-25.098 13.221,-34.02 9.747,-10.193 23.882,-15.579 40.885,-15.579 14.381,0 27.54,5.247 37.07,14.77 9,9 13.958,21.095 13.958,34.054 0,7.929 -0.697,16.717 -8.978,29.196 M 755.278,854.737 c -2.186,0 -2.688,-1.707 -3.814,-6.636 -2.286,-9.97 -5.76,-9.97 -18.674,-9.965 l -11.621,0.04 c 0.09,5.247 0.056,14.571 0.019,24.446 -0.078,21.2 -0.179,47.447 0.775,51.629 0.379,1.657 4.132,2.995 6.039,3.346 l 3.574,0.457 c 3.702,0.441 5.386,0.636 6.407,2.203 0.87,1.338 0.68,2.732 -0.48,3.63 -0.691,0.535 -2.063,0.535 -9.452,0.279 l -14.531,-0.34 c -7.026,0 -11.593,0.217 -14.933,0.379 -3.83,0.19 -5.866,0.29 -7.806,-0.111 a 2.22,2.22 0 0 1 -1.383,-1.59 c -0.207,-0.847 0.007,-1.751 0.602,-2.487 1.026,-1.254 2.002,-1.36 4.6,-1.639 a 113.5,113.5 0 0 0 4.244,-0.524 c 2.275,-0.407 6.992,-2.219 7.221,-3.524 0.502,-3.245 0.669,-47.044 0.747,-68.096 l 0.033,-8.007 -17.609,0.055 c -4.918,0.051 -8.069,1.824 -12.022,6.759 -0.904,1.36 -3.452,4.812 -5.253,7.059 -1.054,1.31 -2.822,2.61 -4.327,1.979 -0.558,-0.234 -1.461,-0.914 -1.244,-2.888 l 6.129,-24.412 c 0.206,-0.953 0.981,-2.576 2.609,-2.576 1.829,0 2.147,0.591 3.496,3.106 l 0.58,1.087 c 1.138,1.84 2.03,3.29 9.92,3.128 l 59.681,0.251 c 0.273,0 0.809,-0.15 0.903,-0.451 2.326,-4.662 3.714,-7.271 5.493,-7.271 1.299,0.003 2.855,0.713 2.855,4.054 l -0.019,24.133 c -0.139,1.561 -1.165,2.498 -2.76,2.498 m 185.201,70.875 c -0.674,0.753 -0.775,0.803 -0.881,0.809 l -3.412,0.301 c -13.21,-12.97 -42.545,-45.06 -60.07,-64.238 l -11.537,-12.591 0.452,65.77 c 0.306,1.483 2.949,1.957 4.36,2.214 1.834,0.262 3.201,0.413 4.193,0.524 2.788,0.301 3.764,0.407 4.79,1.662 1.115,1.383 0.803,2.793 0.04,3.518 -0.763,0.725 -2.487,0.697 -8.347,0.491 -2.448,-0.089 -6.151,-0.223 -9.819,-0.196 -3.251,0.022 -6.474,0.134 -9.061,0.224 -5.911,0.206 -7.009,0.206 -7.606,-0.196 -0.468,-0.312 -0.792,-0.825 -0.886,-1.422 -0.079,-0.53 -0.019,-1.349 0.736,-2.275 1.015,-1.249 1.979,-1.355 4.594,-1.639 l 4.244,-0.524 c 2.046,-0.374 4.427,-1.578 4.545,-2.303 0.674,-4.048 0.457,-51.386 0.317,-69.268 -0.184,-4.745 -0.474,-6.139 -0.764,-6.942 -1.477,-4.149 -8.19,-4.6 -11.057,-4.79 -0.703,-0.051 -1.121,-0.078 -1.411,-0.145 l -0.909,-4.299 20.481,-1.233 c 1.74,0.954 5.113,3.463 8.213,6.725 l 61.024,67.186 -2.593,-65.02 c -0.312,-1.785 -3.044,-2.281 -4.349,-2.515 -2.047,-0.295 -3.519,-0.457 -4.394,-0.552 -2.61,-0.279 -3.586,-0.385 -4.612,-1.645 -1.115,-1.377 -0.803,-2.788 -0.04,-3.513 0.77,-0.725 2.493,-0.697 8.387,-0.485 2.782,0.095 6.25,0.218 9.774,0.19 3.268,-0.026 6.49,-0.14 9.078,-0.224 5.9,-0.206 6.998,-0.211 7.606,0.201 0.468,0.318 0.786,0.836 0.875,1.427 0.079,0.519 0.008,1.333 -0.73,2.259 -1.026,1.26 -2.002,1.366 -4.612,1.645 l -4.237,0.518 c -2.515,0.457 -4.55,1.656 -4.528,2.075 0.022,0.429 2.085,69.624 2.046,75.589 l 0.206,12.402 -0.106,0.284 z M 778.791,875.039 c 3.496,0.217 13.159,0.714 23.302,0.295 l -11.709,-31.265 z m 63.815,47.007 c -0.111,0.848 -0.658,1.484 -1.132,1.796 -1.31,0.541 -3.552,0.474 -8.113,0.29 -2.526,-0.106 -5.978,-0.251 -9.546,-0.218 -3.095,0.026 -5.928,0.117 -8.805,0.212 -6.084,0.195 -7.874,0.229 -8.699,-0.334 -0.808,-0.631 -1.361,-2.058 -0.792,-3.458 0.625,-1.5 1.762,-1.628 4.249,-1.907 1.082,-0.117 2.376,-0.267 4.043,-0.518 0.847,-0.168 2.844,-0.563 3.279,-1.277 -0.162,-1.132 -3.658,-10.784 -8.61,-24.139 l -3.708,-9.959 c -15.234,-0.82 -25.521,-0.407 -28.689,-0.234 l -4.054,10.885 -1.293,3.479 -6.747,18.178 c -0.251,0.753 -0.257,1.344 -0.018,1.751 0.485,0.831 1.957,1.115 2.832,1.288 1.484,0.223 2.599,0.324 3.524,0.407 2.576,0.24 3.993,0.374 4.969,2.715 0.267,0.72 0.217,1.428 -0.134,1.997 -0.346,0.557 -0.954,0.903 -1.706,0.975 -3.251,0.313 -6.368,0.206 -9.97,0.084 -2.264,-0.078 -5.242,-0.179 -8.543,-0.145 l -8.063,0.184 c -4.991,0.15 -5.922,0.15 -6.496,-0.201 -0.607,-0.374 -1.277,-1.104 -1.343,-2.057 -0.045,-0.558 0.106,-1.383 1.042,-2.164 1.311,-1.07 2.32,-1.16 4.773,-1.383 1.205,-0.111 2.772,-0.256 4.924,-0.541 1.667,-0.228 5.32,-1.817 6.279,-3.735 0.769,-1.534 8.754,-22.762 16.483,-43.291 l 0.329,-0.881 16.984,-44.707 4.852,-0.703 c 0.947,0.937 10.148,24.925 23.09,58.731 l 12.323,32.001 c 1.059,1.779 4.087,2.292 5.71,2.571 4.216,0.68 4.946,0.942 6.022,2.147 0.747,0.836 0.82,1.639 0.753,2.163 M 618.137,832.753 c -9.937,0 -18.139,3.161 -24.379,9.401 -9.156,9.156 -12.418,23.325 -12.418,33.529 0,10.009 3.496,25.187 13.343,35.035 6.129,6.128 13.717,9.234 22.567,9.234 12.808,0 22.522,-4.171 28.873,-12.396 5.749,-7.45 8.665,-18.022 8.665,-31.422 0,-14.464 -3.892,-25.694 -11.576,-33.378 -8.704,-8.704 -19.449,-10.004 -25.075,-10.004 m 43.986,71.998 c -0.574,0.887 -14.403,21.635 -44.128,21.635 -15.273,0 -28.288,-4.94 -37.631,-14.286 -9.151,-9.145 -14.392,-22.181 -14.392,-35.771 0,-13.02 4.695,-25.097 13.221,-34.019 9.747,-10.193 23.882,-15.58 40.885,-15.58 14.381,0 27.541,5.247 37.071,14.771 8.999,9 13.957,21.095 13.957,34.053 0,7.93 -0.697,16.718 -8.977,29.197" transform="translate(-53.167 -152.224)"/>
	</g>
</svg>