<svg xmlns:xlink="http://www.w3.org/1999/xlink" viewBox="0 0 995.72996 596.1887" xmlns="http://www.w3.org/2000/svg">
	<defs>
		<path id="a" d="m560.71 342.818731h-386.06c-8.76 0-15.86 7.1-15.86 15.86v.03l1.33 151.62s-83.19-150.26-87.53-157.93c-4.07-7.21-12.83-13.86-24.95-13.86h-31.75c-8.78 0-15.89 7.11-15.89 15.89v.01l.02 222.36c-.01 8.78 7.1 15.89 15.88 15.9h20.36c8.78-.02 15.89-7.16 15.87-15.94l-1.28-155.87s83.99 151.76 87.59 157.74c4.84 8.08 13.04 14.08 24.93 14.08h29.17c8.77-.01 15.88-7.12 15.87-15.9 0 0 0 0 0-.01l-.01-196.31 352.33.01c5.98.02 10.85-4.82 10.87-10.8 0-.01 0-.01 0-.02v-16.04c-.02-5.98-4.89-10.83-10.89-10.82z"/>
	</defs>
	<g fill-rule="evenodd" clip-rule="evenodd">
		<g fill="#2463a9">
			<path d="m401.38 161.368731c4.19 0 7.57-3.41 7.57-7.59.11-4.19-3.19-7.67-7.38-7.78s-7.67 3.19-7.78 7.38v.41c0 4.17 3.37 7.58 7.59 7.58zm91.64 155.58c11.26 0 18.83-1.52 24.94-3.77 6.07-2.26 10.73-4.97 14.13-7.76 3.22-2.64 5.27-5.31 8.7-7.07 3.03-1.57 7.3-1.94 12.09-1.94 6.88 0 14.62 2.13 20.27 5.24l.81-10.53c-3.77-1.86-17.06-6.52-28.6-6.52-13.11 0-18.07 3.54-22.91 7.91-5.63 5.11-12.76 11.18-32.01 11.18-5.13 0-17.44-1.39-22.44-1.39-3.04 0-5.37.76-5.37.76.92 2.88 2.88 10.81 2.88 10.81 4.61.6 12.65 3.08 27.51 3.08zm-59.19-31.21c3.9 0 15.24 1.73 28.34 2.99 7.44.7 15.4 1.25 22.92 1.25 14.71 0 30.82-7 45.07-14.3l-2.79-10.14c-6.65 3.64-19.32 7.7-29.87 9.38-2.6.42-10.14.53-12.29.18-3.56-.55-7.83-1.83-12.41-2.67-6.44-1.21-13.48-1.5-17.65-1.68-4.6-.21-12.86.57-16.91.84-14.9.89-24.75 4.4-34.18 10.76-4.76 3.22-10.84 8.48-15.53 14.85 2.41.18 9.3 2.1 9.3 2.1 10.15-8.65 25.42-13.56 36-13.56z"/>
			<path d="m254.25 290.628731c7.26 0 10.17 2.35 14.17 4.76 2.8 1.73 5.01 3.64 7.1 5.53 4.48 4 3.2 7.67-.31 10.44-1.81 1.44-3.35 3.17-7.91 6.13-2.2 1.45-5.99 3.77-8.58 4.87-4.56 1.89-6.55 2.1-8.2 2.1-1.68 0-4.34-.26-5.84-1.75l-11.6 7.09c3.48 2.72 7.44 3.64 14.09 3.64 7.52 0 13.51-1.62 20.92-4.52 9.6-3.8 20.4-11.27 23.99-13.31 7.34-4.19 14.75-6.91 22.68-6.91 6.99 0 14.87 4.14 23.7 8.36 10.42 5 23.15 9.9 34.85 9.9 7.02 0 14.88-1.02 23.1-2.7 14.61-2.98 30.32-7.91 45.7-13.12l-4.99-8.98c-3.75 1.38-16.58 4.99-30.39 8.06-11.44 2.51-23.05 4.78-29.07 4.78-4.92 0-10.71-.36-15.9-1.96-8.8-2.65-16.71-5.42-16.71-12.49 0-4.89 2.09-8.35 8.02-10.73 9.58-3.85 24.51-3.61 32.37-3.61 1.47-1.57 7.41-8.72 7.41-8.72-6.29-1.27-12.7-1.92-19.12-1.94-9.84 0-18.94 1.26-26.48 4.43-6.99 2.94-12.49 7.18-16.47 12.91-1.6 2.28-3.25 4.45-5.65 4.45-3.99 0-10.9-3.25-18.12-3.25-3.15 0-5.81.65-8.59.65-7.31 0-16.84-5.31-25.33-9.84-5.34-2.85-10.84-5.53-17.23-5.53-2.65 0-6.28.66-9.51 2.02-6.2 2.59-12.49 6.78-15.66 9.43l5.68 3.9c3.32-1.73 9.35-4.09 17.88-4.09zm513.07 81.52c-27.32-23.04-53.74-48.24-72.38-68.85-32.18-35.53-76.02-103.34-90.99-141.71-5.53-14.12-16.95-9.32-11.1 5.03 14.14 34.68 46.74 85.66 80.78 127.7-7.93-3.51-17.77-8.23-23.09-10.58-1.81 2.96-6.29 8.82-10.9 13.64-5.34 5.55-10.84 10.05-12.54 11.63-3.75 3.49-6.49 3.75-9.01-.12-1.14-1.84-3.58-5.13-4.84-10.85l-7.23-9.16c-3.88-4.87-22.04-29.72-27.6-38.08-5.55-8.32-12.74-17.23-24.4-17.23-14.43 0-19.4 15.98-20.53 30.56l9.58-4.16c2.23-9.03 6.66-13.75 10.95-13.75 3.06 0 6.81 4.45 6.81 7.78-1.39 3.9-3.91 11.97-5.14 18.2l9.44 3.2c0-4.59 1.93-12.92 4.58-17.23 0 0 2.61 2.22 3.59 4.03.62 1.17 5.29 8.3 10.69 17.78 4.82 8.46 10.18 18.91 15.1 27.23 2.38 4.01 5.11 7.6 6.94 10.42 2.43 3.73 4.62 6.33 6.94 7.65 2.17 1.2 4.51 1.23 6.4 1.23 6.1 0 8.9-2.02 13.04-5.55 7.76-6.69 14.44-15.98 21.35-24.31l16.29 7.35c6.3 3 12.66 5.87 19.07 8.62 13.89 15.77 29.44 31.22 45.75 45.91l11.08 9.77c3.02 2.61 6.05 5.18 9.12 7.72z"/>
			<path d="m828.46 367.418731c-27.9-61.07-64.66-136.18-96.11-182.19l-7.34-10.32c-10.5-14.16-21.86-25.9-32.99-37.29l-8.64-8.51c-21.79-21.11-46.24-42.22-64.88-57.26-16.44-13.24-28.12-43.79-65.78-43.79-33.94 0-45.54 23.07-49.34 36.59-2.52 8.87-3.61 11.94-5.98 15.27l-21.56 25.67 25.43-2.04-12.89 21.39c7.39-1.54 51.98-10.5 61.15 3.9 11.13 17.42 3.54 36.32 24.35 75.95l9 15.66c10.36 16.66 22.63 33.02 33.53 45.93l-10.42 22.49 7.23 9.16 16.2-34.17c-8.27-7.39-33.03-40.67-43.26-59.19-23.26-42.11-14.12-63.77-28.31-83.07-13.15-17.91-50.74-9.45-50.74-9.45l13.87-19.45-24 2.93 11.1-13.35c2.36-3.45 2.91-5.55 3.88-8.88 4.71-17.09 17.07-34.04 40.54-34.04 28.49 0 36.64 21.87 56.44 39.28 20.05 17.65 62.09 51.59 100.55 95.48 31.01 35.38 70.77 117.64 101.3 182.56-33.38-16.27-89.93-72.2-113.61-114.11l-11.18-1.31c25.43 48.24 80 104.41 133.98 134.99z"/>
			<path d="m751.15 165.788731c8.9-6.39 19.44-11.61 30.54-15.82 6.83 8.28 22.94 15.53 35.72 17.23l-2.04 13.52c-14.18-7.15-39.23-14.43-64.22-14.93l-11.2 9.63c33.91.63 55.49 7.49 83.43 19.25l5.55-35.69c-11.08-1.52-28.55-4.69-34.59-13.28 25.56-7.78 52.08-10.72 67.75-10.5v-43.97c-6.99 4.09-15.79 7.91-24.09 10.48-10.16 3.11-19.39 4.48-21.94 0-2.81-4.92 11.2-13.7 25.65-21.37l-32.51-27c-4.92 6.63-16.11 25.17-27.52 37.42-8.1 8.7-16.45 14.4-21.22 10.85-2.5-1.89-2.6-7.33-.53-14.19 3.95-13.18 14.35-31.48 20.68-39.55l-44.93-4.25c0 18.36-8.62 38.58-19.24 54.92-9.15 14.06-22.44 24.28-33.07 30.56l8.64 8.51c13.15-9.14 25.95-20.32 35.85-36.25 7.97-12.8 15.37-28.28 18.15-46.41l15.56 1.81c-6.47 11.86-13.78 30.28-14.33 42.32.39 8.19 1.97 9.66 6.19 12.78 7.8 5.84 17.47 1.91 26.68-5.97 10.16-8.67 20.15-23.21 30.28-36.36l13.13 10.95c-16.65 10.26-21.36 21.24-16.28 28.51 1.98 2.83 6.26 4.95 11.57 5.11 5.27.13 11.5-1.42 18.31-3.04 4.79-1.16 9.98-2.83 14.77-4.3v17.49c-37.84 2.7-102.42 18.02-126.88 50.62l7.34 10.32c2.12-3.48 4.68-6.74 7.59-9.8zm-494.78-85.95 5.08 3.82c13.31-10.84 28.86-30.56 37.64-49.13l-4.53-3.22c-8.49 7.78-28.73 33.15-38.19 48.53z"/>
			<path d="m248.57 67.978731c-7.46-26.34 11.68-42.11 31.66-40.65 7.49-14.43 19.25-17.31 31.74-9.82 11.63 7 10.66 24.77.97 33.1 3.46 15.84-10.6 38.42-32.44 37.29 2.59 21.87-24.23 34.31-40.49 20.03-13.52-11.85-10.69-31.6 8.56-39.95zm-9.25-4.03c-6.94 1.52-10.55 5-13.64 12.52 2.07-17.1-9.3-33.5-28.02-32.24 1.83-30.56-28.44-48.76-55.21-33.88-15.81-13.54-33.49-10.79-44.13 1.81-10.16 12.04-9.82 32.37 10.72 43.21-5.19 21.11 14.14 42.08 36.87 37.21 1.31 6.5 6.07 9.98 12.36 12.57-9.45.55-13.33 9.95-13.33 9.95-30.14-7.72-45.69 12.31-46.2 33.34-22 6.68-28.15 34.18-11.31 50.23 17.41 16.65 38.18 9.82 47.24-7.21 19.43 7.39 40.23-4.61 40.77-26.08 21.66 2.04 29.96-15.03 27.95-33.02l-6.87-.55c-2.96 16.71-10.89 23.91-29.02 23.91-.79 16.05-17.94 29.98-37.37 26.3-5.45 12.83-21.45 17.02-32.37 6.29-10.89-10.74-7.28-30.93 11.94-34.57-.79-19.69 18.38-31.89 45.75-30.59 7.78-9.64 14.06-13.73 25.72-12.6l.11-5.6c-10.92-1.47-23.23-11.82-24.14-22.94-23.31 1.85-39.26-11.5-38.47-32.45-14.98-7.02-12.28-22.39-7.44-28.23 8.35-10.08 20.03-9.27 29.46-1.13 26.63-10.18 48.08 10.84 48.08 33.81 0 0 12.45-.24 19.44 7.04 9.25 9.66 9.25 18.07 11.44 27.44 2.07 8.85 6.52 20.61 17.39 29.09 19.22 14.98 49 10.92 52.04-20.68 25.58 2.27 42.4-17.81 33.96-42.37 17.91-12.78 14.35-39.13-2.49-49.32-14.49-9.57-34-5.58-43.57 8.91-.88 1.33-1.65 2.72-2.31 4.16-26.21-6.03-47.57 20.11-35.35 45.67zm118.27 153.12c2.3-9.22-9.85-10.59-11.52-2.09-1.78 9.09-12.83 24.59-23.3 34.31l3.74 4.03c13.74-10.27 28.13-24.49 31.08-36.25zm61.04-152.29c4.27-.16 7.59-3.75 7.43-8.01-.15-4.04-3.39-7.28-7.43-7.43-4.27 0-7.7 3.48-7.7 7.72.01 4.27 3.44 7.72 7.7 7.72zm113.71 7.05c.12-5.06 4.32-9.06 9.38-8.93 4.88.12 8.82 4.05 8.93 8.93.02 5.06-4.08 9.18-9.14 9.19-.01 0-.01 0-.02 0-5.03 0-9.15-4.11-9.15-9.19zm-14.51 164.75c-59.6-4.58-118.94-.84-118.94-.84l4.18-10.92c56.99-4.14 115.6 0 115.6 0z"/>
			<path d="m157.67 278.058731s3.38 4.51 8.64 10.11c1.78 2.52 3.74 4.32 6.23 6.65 10.93 10.66 27 18.64 43.58 21.84 4.71.9 8.9 1.6 13.57 1.6 7.07 0 13.58-3.8 17.75-7.52l-6.49-7.57c-2.09.62-6.44.62-9.32.62-24.04 0-54.55-15.73-61.57-33.96-.71-1.78-1.55-2.77-.84-4.45.68-1.68 1.57-5.21 2.07-8.45 1.42 1.62 4.32 4.06 8.01 6.44 8.96 5.74 25.98 13.67 29.31 15.8 6.97-2 13.73-4.69 20.16-8.04 5-2.59 11.84-4.92 19.75-4.92 17.57 0 37.76 10 56.73 19.35l12.96-5.08c-16.84-11.86-53.44-28.44-73.82-28.44-12 0-23.29 8.8-31.32 8.8-9.88 0-38.16-13.8-38.16-25.3 0-8.85 18.3-13.88 47.73-17.5-5.13 7.57-9.95 15.36-14.43 23.34l7.49 4.16c46.09-66.86 94.01-110.27 134.35-136.7 14.66-9.62 17.99-15.24 23.1-25.74 12.49-25.56 24.28-45.23 44.78-45.23 9.56 0 17.39 5.4 22.76 12.05l14.82 4.45-15.01 10.18 15.35 6.13c-20.04 5.63-47.4 25.14-58.5 53.76-21.35 1.13-31.64 18.44-38.6 32.95-4.72 9.77-12.2 13.67-23.12 21.08l-87.28 60.94 12.02 1.68 80.63-54.11c15.93-10.73 23.47-18.64 27.29-26.3 7.46-14.98 15.53-26.11 31.35-26.11 7.78 0 16.07 3.32 22.73 9.64l14.17 4.61-15.45 9.45 12.96 7.99c-37.03 11.61-59.95 38.16-73.25 88.91l9.79 2.2c4.9-16.78 9.77-32.21 18.43-45.83 21.42-.23 43.14-1.02 64.43-1.02 56.83 0 104.01 2.41 129.47 9.92l-9-15.66c-27.23-4.66-66.75-7.04-120.46-7.04-17.99 0-36.25.65-54.37.86 11.71-12.39 28.52-22.84 54.45-30.87l-18.38-10.14 20.42-11.37-27.84-10.37c-4.87-4.37-10.92-8.38-18.54-10.32 8.93-27.42 39.28-43.44 68.4-54.5l-20.4-8.36 20.55-11.26-31.66-10.11c-8.28-9.74-16.21-14.17-28.42-14.17-29.38 0-41.74 25.53-53.37 48.16-6.16 11.94-10.01 16.97-20.43 23.78-22.6 14.79-51.38 37.42-78.87 66.41-14.35-10.36-43.72-40.7-51.64-57.25-3.15 3.9-6.26 12.39-6.26 12.39 3.02 3.16 37.55 38.12 50.41 52.95-.97 1.07-1.93 2.15-2.9 3.25-13.7 2.72-49.26 6.16-61.36 4.51l-6.81 12.08c9.03-.89 44.39-5.06 59.05-5.92-4.49 5.46-8.85 11.03-13.07 16.71-45.43 5.18-75.81 14.51-75.81 31.32 0 2.78 1.12 5.92 1.12 8.87 0 7.04-2.65 9.64-7.65 12.78-3.25 2.07-3.46 3.49-2.07 5.42 7.54 12.18-15.87 18.23.44 40.02l13.83.84c0 .01-13.49-7.84-4.61-25.39zm-17.92-241.91-4.5 4.61c6.47 9.25 35.12 34.91 49.65 44.45l5.34-6.63c-9.53-11.21-36.62-35.38-50.49-42.43zm-19.78 129.38 4.24 4.63c10.92-5.29 31.45-20.48 42.55-31.87l-3.06-4.53c-13.04 5.45-33.2 20.37-43.73 31.77z"/>
		</g>
		<g fill="#fff">
			<path d="m752.68 354.758731c.01-7.97-6.44-14.44-14.41-14.45h-.01l-21.36-.01c-7.98.01-14.44 6.5-14.43 14.48v.01l.01 223.46c-.02 7.97 6.43 14.44 14.39 14.46h.03 21.36c7.98-.02 14.43-6.5 14.41-14.48v-223.47zm27.23 5.94v10.63c.02 4.4 3.6 7.96 8 7.94h147.41c6.71 0 12.17-5.42 12.17-12.15v-17.99c0-6.71-5.52-12.8-12.2-12.15 0 0-142.48 13.98-147.08 14.5-5.31.59-8.3 4.83-8.3 9.22zm-119.33 232.02c-36.67 0-59.75-27.8-59.75-58.76l-.03-89.41h-10.5c-5.58.01-10.12-4.51-10.12-10.09 0-.01 0-.01 0-.02v-14.97c0-5.59 4.56-10.08 10.14-10.08l10.49.01-.02-54.97c-.01-7.77 6.27-14.07 14.03-14.09h.03 20.84c7.78.02 14.08 6.34 14.07 14.13l.01 54.93h32.48c5.6 0 10.16 4.5 10.16 10.09v14.97c0 5.58-4.53 10.1-10.1 10.09-.01 0-.01 0-.02 0h-32.52l.02 82.7c0 16.24 9.84 27.32 27.44 27.32l2.96-.02c6.07 0 11 4.89 11 10.96v16.25c0 6.05-4.9 10.96-10.95 10.96-.01 0-.03 0-.04 0h-19.6zm-343.41-189.76c-59.28 0-92.53 46.39-92.53 95.27 0 52.09 35.61 97.96 92.91 97.96 39.22 0 77.88-20.67 85.19-54.61.99-4.58-2.1-10.58-8.55-10.6h-28.02c-5.09 0-9.25 2.43-11.75 6.11-8.02 11.76-19.77 18.02-37.14 18.02-24.54 0-41.56-19.34-42.84-40.79h119.18c10.98 0 15.88-5.95 15.88-16.1.01-47.67-28.21-95.26-92.33-95.26zm0 38.26c21.88 0 40.77 15.57 42.69 36.64h-85.04c1.9-21.07 20.47-36.64 42.35-36.64zm543.08-38.26c-59.27 0-92.52 46.39-92.52 95.27 0 52.09 35.62 97.96 92.91 97.96 39.22 0 77.88-20.67 85.19-54.61.99-4.58-2.1-10.58-8.55-10.6h-28.03c-5.09 0-9.25 2.43-11.76 6.11-8.01 11.76-19.77 18.02-37.14 18.02-24.54 0-41.55-19.34-42.84-40.79h119.19c10.97 0 15.88-5.95 15.88-16.1.01-47.67-28.21-95.26-92.33-95.26zm0 38.26c21.89 0 40.78 15.57 42.7 36.64h-85.06c1.91-21.07 20.47-36.64 42.36-36.64z"/>
			<use xlink:href="#a"/>
			<path d="m498.23 439.358731c16.79 0 29.34 6.09 33.86 16.61 2.17 5.05 6.38 6.03 12.16 6.03h23.08c3.81 0 8.2-3.28 8.2-8.27 0-26.83-32-50.79-77.33-50.79-46.87 0-77.66 22.33-77.66 57.91 0 27.21 21.51 43.41 47.95 50.32 12.05 3.15 32.63 8.23 42.64 10.87 10.8 2.83 20.46 6.13 20.46 15.38 0 14.6-15.39 19.57-32.2 19.57-15.93 0-31.79-7.11-36.34-18.47-2.63-6.58-7.25-7.53-14.24-7.53h-23.48c-4.09 0-8.81 3.51-8.81 8.86v3.03c0 25.97 34.84 53.17 82.91 53.17 34.08 0 81.57-14.17 81.57-59.88 0-26.47-17.71-44.79-46.53-52.12-11.27-2.86-38.36-9.75-44.26-11.27-10.5-2.72-20.31-6.14-20.31-15.15 0-13.64 12.61-18.27 28.33-18.27z"/>
		</g>
		<g fill="#2463a9">
			<path d="m752.68 354.758731c.01-7.97-6.44-14.44-14.41-14.45h-.01l-21.36-.01c-7.98.01-14.44 6.5-14.43 14.48v.01l.01 223.46c-.02 7.97 6.43 14.44 14.39 14.46h.03 21.36c7.98-.02 14.43-6.5 14.41-14.48v-223.47zm27.23 5.94v10.63c.02 4.4 3.6 7.96 8 7.94h147.41c6.71 0 12.17-5.42 12.17-12.15v-17.99c0-6.71-5.52-12.8-12.2-12.15 0 0-142.48 13.98-147.08 14.5-5.31.59-8.3 4.83-8.3 9.22zm-119.33 232.02c-36.67 0-59.75-27.8-59.75-58.76l-.03-89.41h-10.5c-5.58.01-10.12-4.51-10.12-10.09 0-.01 0-.01 0-.02v-14.97c0-5.59 4.56-10.08 10.14-10.08l10.49.01-.02-54.97c-.01-7.77 6.27-14.07 14.03-14.09h.03 20.84c7.78.02 14.08 6.34 14.07 14.13l.01 54.93h32.48c5.6 0 10.16 4.5 10.16 10.09v14.97c0 5.58-4.53 10.1-10.1 10.09-.01 0-.01 0-.02 0h-32.52l.02 82.7c0 16.24 9.84 27.32 27.44 27.32l2.96-.02c6.07 0 11 4.89 11 10.96v16.25c0 6.05-4.9 10.96-10.95 10.96-.01 0-.03 0-.04 0h-19.6zm-251.07-94.5c0-47.66-28.22-95.26-92.33-95.26-59.28 0-92.53 46.39-92.53 95.27 0 52.09 35.61 97.96 92.91 97.96 39.22 0 77.88-20.67 85.19-54.61.99-4.58-2.1-10.58-8.55-10.6h-28.03c-5.09 0-9.25 2.43-11.75 6.11-8.02 11.76-19.77 18.02-37.14 18.02-24.54 0-41.56-19.34-42.84-40.79h119.18c10.98 0 15.89-5.96 15.89-16.1zm-134.7-20.37c1.91-21.07 20.48-36.64 42.37-36.64 21.88 0 40.77 15.57 42.69 36.64zm677.78 20.37c0-47.66-28.22-95.26-92.34-95.26-59.27 0-92.52 46.39-92.52 95.27 0 52.09 35.62 97.96 92.91 97.96 39.22 0 77.88-20.67 85.19-54.61.99-4.58-2.1-10.58-8.55-10.6h-28.03c-5.09 0-9.25 2.43-11.76 6.11-8.01 11.76-19.77 18.02-37.14 18.02-24.54 0-41.55-19.34-42.84-40.79h119.19c10.98 0 15.89-5.96 15.89-16.1zm-134.7-20.37c1.91-21.07 20.47-36.64 42.36-36.64s40.78 15.57 42.7 36.64z"/>
			<use xlink:href="#a"/>
			<path d="m498.23 439.358731c16.79 0 29.34 6.09 33.86 16.61 2.17 5.05 6.38 6.03 12.16 6.03h23.08c3.81 0 8.2-3.28 8.2-8.27 0-26.83-32-50.79-77.33-50.79-46.87 0-77.66 22.33-77.66 57.91 0 27.21 21.51 43.41 47.95 50.32 12.05 3.15 32.63 8.23 42.64 10.87 10.8 2.83 20.46 6.13 20.46 15.38 0 14.6-15.39 19.57-32.2 19.57-15.93 0-31.79-7.11-36.34-18.47-2.63-6.58-7.25-7.53-14.24-7.53h-23.48c-4.09 0-8.81 3.51-8.81 8.86v3.03c0 25.97 34.84 53.17 82.91 53.17 34.08 0 81.57-14.17 81.57-59.88 0-26.47-17.71-44.79-46.53-52.12-11.27-2.86-38.36-9.75-44.26-11.27-10.5-2.72-20.31-6.14-20.31-15.15 0-13.64 12.61-18.27 28.33-18.27zm470.92 143.97h-5.23v-24.47h9.14c6.31 0 10.04 1.8 10.04 7.39 0 4.5-2.65 6.13-5.89 6.38l6.25 10.7h-6.2l-5.65-10.28h-2.47v10.28zm4.62-14.43c2.35 0 3.73-.49 3.73-3.2 0-2.52-2.71-2.7-4.68-2.7h-3.68v5.9zm-.84 24.94c-12.08 0-22.85-8.36-22.85-22.73 0-14.36 10.77-22.72 22.85-22.72 12.03 0 22.8 8.36 22.8 22.72 0 14.38-10.77 22.73-22.8 22.73zm0-40.16c-9.01 0-16.29 6.98-16.29 17.44 0 10.47 7.28 17.51 16.29 17.45v.07c8.79 0 16.24-7.04 16.24-17.51-.01-10.47-7.45-17.45-16.24-17.45z"/>
		</g>
	</g>
</svg>