<svg viewBox="0 0 135.59007 181.47739" xmlns="http://www.w3.org/2000/svg">
	<linearGradient id="a" x1="-558.21259" x2="-555.74518" y1="254.03709" y2="254.03709" gradientTransform="matrix(73.2704 0 0 -73.2704 40900.471 18761.885)" gradientUnits="userSpaceOnUse">
		<stop offset="0" stop-color="#c95222"/>
		<stop offset=".00217" stop-color="#c95222"/>
		<stop offset=".00606" stop-color="#c95222"/>
		<stop offset=".00995" stop-color="#c85222"/>
		<stop offset=".0138" stop-color="#c85222"/>
		<stop offset=".0177" stop-color="#c85122"/>
		<stop offset=".0216" stop-color="#c75122"/>
		<stop offset=".0255" stop-color="#c75122"/>
		<stop offset=".0294" stop-color="#c65122"/>
		<stop offset=".0333" stop-color="#c65123"/>
		<stop offset=".0372" stop-color="#c65123"/>
		<stop offset=".0411" stop-color="#c55123"/>
		<stop offset=".045" stop-color="#c55023"/>
		<stop offset=".0489" stop-color="#c55023"/>
		<stop offset=".0527" stop-color="#c45023"/>
		<stop offset=".0566" stop-color="#c45023"/>
		<stop offset=".0605" stop-color="#c45023"/>
		<stop offset=".0644" stop-color="#c35023"/>
		<stop offset=".0683" stop-color="#c35023"/>
		<stop offset=".0722" stop-color="#c34f23"/>
		<stop offset=".0761" stop-color="#c24f23"/>
		<stop offset=".08" stop-color="#c24f23"/>
		<stop offset=".0838" stop-color="#c14f23"/>
		<stop offset=".0877" stop-color="#c14f23"/>
		<stop offset=".0916" stop-color="#c14f24"/>
		<stop offset=".0955" stop-color="#c04f24"/>
		<stop offset=".0994" stop-color="#c04e24"/>
		<stop offset=".1033" stop-color="#c04e24"/>
		<stop offset=".1072" stop-color="#bf4e24"/>
		<stop offset=".1111" stop-color="#bf4e24"/>
		<stop offset=".115" stop-color="#bf4e24"/>
		<stop offset=".1189" stop-color="#be4e24"/>
		<stop offset=".1227" stop-color="#be4e24"/>
		<stop offset=".1266" stop-color="#be4e24"/>
		<stop offset=".1305" stop-color="#bd4d24"/>
		<stop offset=".1344" stop-color="#bd4d24"/>
		<stop offset=".1383" stop-color="#bc4d24"/>
		<stop offset=".1422" stop-color="#bc4d24"/>
		<stop offset=".1461" stop-color="#bc4d24"/>
		<stop offset=".15" stop-color="#bb4d25"/>
		<stop offset=".1539" stop-color="#bb4d25"/>
		<stop offset=".1577" stop-color="#bb4c25"/>
		<stop offset=".1616" stop-color="#ba4c25"/>
		<stop offset=".1655" stop-color="#ba4c25"/>
		<stop offset=".1694" stop-color="#ba4c25"/>
		<stop offset=".1733" stop-color="#b94c25"/>
		<stop offset=".1772" stop-color="#b94c25"/>
		<stop offset=".1811" stop-color="#b84c25"/>
		<stop offset=".185" stop-color="#b84b25"/>
		<stop offset=".1889" stop-color="#b84b25"/>
		<stop offset=".1928" stop-color="#b74b25"/>
		<stop offset=".1966" stop-color="#b74b25"/>
		<stop offset=".2005" stop-color="#b74b25"/>
		<stop offset=".2044" stop-color="#b64b25"/>
		<stop offset=".2083" stop-color="#b64b26"/>
		<stop offset=".2122" stop-color="#b64a26"/>
		<stop offset=".2161" stop-color="#b54a26"/>
		<stop offset=".22" stop-color="#b54a26"/>
		<stop offset=".2239" stop-color="#b54a26"/>
		<stop offset=".2278" stop-color="#b44a26"/>
		<stop offset=".2316" stop-color="#b44a26"/>
		<stop offset=".2355" stop-color="#b34a26"/>
		<stop offset=".2394" stop-color="#b34926"/>
		<stop offset=".2433" stop-color="#b34926"/>
		<stop offset=".2472" stop-color="#b24926"/>
		<stop offset=".2511" stop-color="#b24926"/>
		<stop offset=".255" stop-color="#b24926"/>
		<stop offset=".2589" stop-color="#b14926"/>
		<stop offset=".2628" stop-color="#b14926"/>
		<stop offset=".2666" stop-color="#b14827"/>
		<stop offset=".2705" stop-color="#b04827"/>
		<stop offset=".2744" stop-color="#b04827"/>
		<stop offset=".2783" stop-color="#af4827"/>
		<stop offset=".2822" stop-color="#af4827"/>
		<stop offset=".2861" stop-color="#af4827"/>
		<stop offset=".29" stop-color="#ae4827"/>
		<stop offset=".2939" stop-color="#ae4727"/>
		<stop offset=".2978" stop-color="#ae4727"/>
		<stop offset=".3016" stop-color="#ad4727"/>
		<stop offset=".3055" stop-color="#ad4727"/>
		<stop offset=".3094" stop-color="#ad4727"/>
		<stop offset=".3133" stop-color="#ac4727"/>
		<stop offset=".3172" stop-color="#ac4727"/>
		<stop offset=".3211" stop-color="#ac4627"/>
		<stop offset=".325" stop-color="#ab4628"/>
		<stop offset=".3289" stop-color="#ab4628"/>
		<stop offset=".3328" stop-color="#aa4628"/>
		<stop offset=".3367" stop-color="#aa4628"/>
		<stop offset=".3405" stop-color="#aa4628"/>
		<stop offset=".3444" stop-color="#a94628"/>
		<stop offset=".3483" stop-color="#a94528"/>
		<stop offset=".3522" stop-color="#a94528"/>
		<stop offset=".3561" stop-color="#a84528"/>
		<stop offset=".36" stop-color="#a84528"/>
		<stop offset=".3639" stop-color="#a84528"/>
		<stop offset=".3678" stop-color="#a74528"/>
		<stop offset=".3717" stop-color="#a74528"/>
		<stop offset=".3755" stop-color="#a74528"/>
		<stop offset=".3794" stop-color="#a64428"/>
		<stop offset=".3833" stop-color="#a64429"/>
		<stop offset=".3872" stop-color="#a54429"/>
		<stop offset=".3911" stop-color="#a54429"/>
		<stop offset=".395" stop-color="#a54429"/>
		<stop offset=".3989" stop-color="#a44429"/>
		<stop offset=".4028" stop-color="#a44429"/>
		<stop offset=".4067" stop-color="#a44329"/>
		<stop offset=".4105" stop-color="#a34329"/>
		<stop offset=".4144" stop-color="#a34329"/>
		<stop offset=".4183" stop-color="#a34329"/>
		<stop offset=".4222" stop-color="#a24329"/>
		<stop offset=".4261" stop-color="#a24329"/>
		<stop offset=".43" stop-color="#a14329"/>
		<stop offset=".4339" stop-color="#a14229"/>
		<stop offset=".4378" stop-color="#a14229"/>
		<stop offset=".4417" stop-color="#a0422a"/>
		<stop offset=".4455" stop-color="#a0422a"/>
		<stop offset=".4494" stop-color="#a0422a"/>
		<stop offset=".4533" stop-color="#9f422a"/>
		<stop offset=".4572" stop-color="#9f422a"/>
		<stop offset=".4611" stop-color="#9f412a"/>
		<stop offset=".465" stop-color="#9e412a"/>
		<stop offset=".4689" stop-color="#9e412a"/>
		<stop offset=".4728" stop-color="#9e412a"/>
		<stop offset=".4767" stop-color="#9d412a"/>
		<stop offset=".4805" stop-color="#9d412a"/>
		<stop offset=".4844" stop-color="#9c412a"/>
		<stop offset=".4883" stop-color="#9c402a"/>
		<stop offset=".4922" stop-color="#9c402a"/>
		<stop offset=".4961" stop-color="#9b402a"/>
		<stop offset=".5" stop-color="#9b402a"/>
		<stop offset=".5039" stop-color="#9b402b"/>
		<stop offset=".5078" stop-color="#9a402b"/>
		<stop offset=".5117" stop-color="#9a402b"/>
		<stop offset=".5156" stop-color="#9a3f2b"/>
		<stop offset=".5195" stop-color="#993f2b"/>
		<stop offset=".5233" stop-color="#993f2b"/>
		<stop offset=".5272" stop-color="#983f2b"/>
		<stop offset=".5311" stop-color="#983f2b"/>
		<stop offset=".535" stop-color="#983f2b"/>
		<stop offset=".5389" stop-color="#973f2b"/>
		<stop offset=".5428" stop-color="#973e2b"/>
		<stop offset=".5467" stop-color="#973e2b"/>
		<stop offset=".5506" stop-color="#963e2b"/>
		<stop offset=".5544" stop-color="#963e2b"/>
		<stop offset=".5583" stop-color="#963e2b"/>
		<stop offset=".5622" stop-color="#953e2c"/>
		<stop offset=".5661" stop-color="#953e2c"/>
		<stop offset=".57" stop-color="#953d2c"/>
		<stop offset=".5739" stop-color="#943d2c"/>
		<stop offset=".5778" stop-color="#943d2c"/>
		<stop offset=".5817" stop-color="#933d2c"/>
		<stop offset=".5856" stop-color="#933d2c"/>
		<stop offset=".5895" stop-color="#933d2c"/>
		<stop offset=".5933" stop-color="#923d2c"/>
		<stop offset=".5972" stop-color="#923c2c"/>
		<stop offset=".6011" stop-color="#923c2c"/>
		<stop offset=".605" stop-color="#913c2c"/>
		<stop offset=".6089" stop-color="#913c2c"/>
		<stop offset=".6128" stop-color="#913c2c"/>
		<stop offset=".6167" stop-color="#903c2c"/>
		<stop offset=".6206" stop-color="#903c2d"/>
		<stop offset=".6245" stop-color="#903b2d"/>
		<stop offset=".6284" stop-color="#8f3b2d"/>
		<stop offset=".6322" stop-color="#8f3b2d"/>
		<stop offset=".6361" stop-color="#8e3b2d"/>
		<stop offset=".64" stop-color="#8e3b2d"/>
		<stop offset=".6439" stop-color="#8e3b2d"/>
		<stop offset=".6478" stop-color="#8d3b2d"/>
		<stop offset=".6517" stop-color="#8d3b2d"/>
		<stop offset=".6556" stop-color="#8d3a2d"/>
		<stop offset=".6595" stop-color="#8c3a2d"/>
		<stop offset=".6633" stop-color="#8c3a2d"/>
		<stop offset=".6672" stop-color="#8c3a2d"/>
		<stop offset=".6711" stop-color="#8b3a2d"/>
		<stop offset=".675" stop-color="#8b3a2d"/>
		<stop offset=".6789" stop-color="#8a3a2e"/>
		<stop offset=".6828" stop-color="#8a392e"/>
		<stop offset=".6867" stop-color="#8a392e"/>
		<stop offset=".6906" stop-color="#89392e"/>
		<stop offset=".6945" stop-color="#89392e"/>
		<stop offset=".6984" stop-color="#89392e"/>
		<stop offset=".7022" stop-color="#88392e"/>
		<stop offset=".7061" stop-color="#88392e"/>
		<stop offset=".71" stop-color="#88382e"/>
		<stop offset=".7139" stop-color="#87382e"/>
		<stop offset=".7178" stop-color="#87382e"/>
		<stop offset=".7217" stop-color="#87382e"/>
		<stop offset=".7256" stop-color="#86382e"/>
		<stop offset=".7295" stop-color="#86382e"/>
		<stop offset=".7334" stop-color="#85382e"/>
		<stop offset=".7372" stop-color="#85372f"/>
		<stop offset=".7411" stop-color="#85372f"/>
		<stop offset=".745" stop-color="#84372f"/>
		<stop offset=".7489" stop-color="#84372f"/>
		<stop offset=".7528" stop-color="#84372f"/>
		<stop offset=".7567" stop-color="#83372f"/>
		<stop offset=".7606" stop-color="#83372f"/>
		<stop offset=".7645" stop-color="#83362f"/>
		<stop offset=".7684" stop-color="#82362f"/>
		<stop offset=".7722" stop-color="#82362f"/>
		<stop offset=".7761" stop-color="#81362f"/>
		<stop offset=".78" stop-color="#81362f"/>
		<stop offset=".7839" stop-color="#81362f"/>
		<stop offset=".7878" stop-color="#80362f"/>
		<stop offset=".7917" stop-color="#80352f"/>
		<stop offset=".7956" stop-color="#803530"/>
		<stop offset=".7995" stop-color="#7f3530"/>
		<stop offset=".8034" stop-color="#7f3530"/>
		<stop offset=".8073" stop-color="#7f3530"/>
		<stop offset=".8111" stop-color="#7e3530"/>
		<stop offset=".815" stop-color="#7e3530"/>
		<stop offset=".8189" stop-color="#7e3430"/>
		<stop offset=".8228" stop-color="#7d3430"/>
		<stop offset=".8267" stop-color="#7d3430"/>
		<stop offset=".8306" stop-color="#7c3430"/>
		<stop offset=".8345" stop-color="#7c3430"/>
		<stop offset=".8384" stop-color="#7c3430"/>
		<stop offset=".8422" stop-color="#7b3430"/>
		<stop offset=".8461" stop-color="#7b3330"/>
		<stop offset=".85" stop-color="#7b3330"/>
		<stop offset=".8539" stop-color="#7a3331"/>
		<stop offset=".8578" stop-color="#7a3331"/>
		<stop offset=".8617" stop-color="#7a3331"/>
		<stop offset=".8656" stop-color="#793331"/>
		<stop offset=".8695" stop-color="#793331"/>
		<stop offset=".8734" stop-color="#783231"/>
		<stop offset=".8773" stop-color="#783231"/>
		<stop offset=".8812" stop-color="#783231"/>
		<stop offset=".885" stop-color="#773231"/>
		<stop offset=".8889" stop-color="#773231"/>
		<stop offset=".8928" stop-color="#773231"/>
		<stop offset=".8967" stop-color="#763231"/>
		<stop offset=".9006" stop-color="#763231"/>
		<stop offset=".9045" stop-color="#763131"/>
		<stop offset=".9084" stop-color="#753131"/>
		<stop offset=".9123" stop-color="#753132"/>
		<stop offset=".9161" stop-color="#753132"/>
		<stop offset=".92" stop-color="#743132"/>
		<stop offset=".9239" stop-color="#743132"/>
		<stop offset=".9278" stop-color="#733132"/>
		<stop offset=".9317" stop-color="#733032"/>
		<stop offset=".9356" stop-color="#733032"/>
		<stop offset=".9395" stop-color="#723032"/>
		<stop offset=".9434" stop-color="#723032"/>
		<stop offset=".9473" stop-color="#723032"/>
		<stop offset=".9512" stop-color="#713032"/>
		<stop offset=".955" stop-color="#713032"/>
		<stop offset=".9589" stop-color="#712f32"/>
		<stop offset=".9628" stop-color="#702f32"/>
		<stop offset=".9667" stop-color="#702f32"/>
		<stop offset=".9706" stop-color="#702f33"/>
		<stop offset=".9745" stop-color="#6f2f33"/>
		<stop offset=".9784" stop-color="#6f2f33"/>
		<stop offset=".9823" stop-color="#6e2f33"/>
		<stop offset=".9862" stop-color="#6e2e33"/>
		<stop offset="1" stop-color="#6d2e33"/>
	</linearGradient>
	<linearGradient id="b" x1="-555.06598" x2="-552.59808" y1="256.19312" y2="256.19312" gradientTransform="matrix(45.2844 -7.9848 -7.9848 -45.2844 27170.26 7306.1285)" gradientUnits="userSpaceOnUse">
		<stop offset="0" stop-color="#fddb63"/>
		<stop offset=".00346" stop-color="#fddb63"/>
		<stop offset=".0112" stop-color="#fdda62"/>
		<stop offset=".019" stop-color="#fdd962"/>
		<stop offset=".0267" stop-color="#fdd861"/>
		<stop offset=".0345" stop-color="#fdd761"/>
		<stop offset=".0422" stop-color="#fdd660"/>
		<stop offset=".05" stop-color="#fdd65f"/>
		<stop offset=".0578" stop-color="#fcd55f"/>
		<stop offset=".0655" stop-color="#fcd45e"/>
		<stop offset=".0733" stop-color="#fcd35e"/>
		<stop offset=".081" stop-color="#fcd25d"/>
		<stop offset=".0888" stop-color="#fcd15c"/>
		<stop offset=".0966" stop-color="#fcd05c"/>
		<stop offset=".1043" stop-color="#fccf5b"/>
		<stop offset=".1121" stop-color="#fcce5b"/>
		<stop offset=".1198" stop-color="#fccd5a"/>
		<stop offset=".1276" stop-color="#fccc5a"/>
		<stop offset=".1354" stop-color="#fccc59"/>
		<stop offset=".1431" stop-color="#fccb58"/>
		<stop offset=".1509" stop-color="#fcca58"/>
		<stop offset=".1586" stop-color="#fbc957"/>
		<stop offset=".1664" stop-color="#fbc857"/>
		<stop offset=".1741" stop-color="#fbc756"/>
		<stop offset=".1819" stop-color="#fbc655"/>
		<stop offset=".1897" stop-color="#fbc555"/>
		<stop offset=".1974" stop-color="#fbc454"/>
		<stop offset=".2052" stop-color="#fbc354"/>
		<stop offset=".2129" stop-color="#fbc353"/>
		<stop offset=".2207" stop-color="#fbc252"/>
		<stop offset=".2285" stop-color="#fbc152"/>
		<stop offset=".2362" stop-color="#fbc051"/>
		<stop offset=".244" stop-color="#fbbf51"/>
		<stop offset=".2517" stop-color="#fbbe50"/>
		<stop offset=".2595" stop-color="#fabd4f"/>
		<stop offset=".2672" stop-color="#fabc4f"/>
		<stop offset=".275" stop-color="#fabb4e"/>
		<stop offset=".2828" stop-color="#faba4e"/>
		<stop offset=".2905" stop-color="#fab94d"/>
		<stop offset=".2983" stop-color="#fab94c"/>
		<stop offset=".306" stop-color="#fab84c"/>
		<stop offset=".3138" stop-color="#fab74b"/>
		<stop offset=".3216" stop-color="#fab64b"/>
		<stop offset=".3293" stop-color="#fab54a"/>
		<stop offset=".3371" stop-color="#fab449"/>
		<stop offset=".3448" stop-color="#fab349"/>
		<stop offset=".3526" stop-color="#f9b248"/>
		<stop offset=".3604" stop-color="#f9b148"/>
		<stop offset=".3681" stop-color="#f9b047"/>
		<stop offset=".3759" stop-color="#f9af47"/>
		<stop offset=".3836" stop-color="#f9af46"/>
		<stop offset=".3914" stop-color="#f9ae45"/>
		<stop offset=".3991" stop-color="#f9ad45"/>
		<stop offset=".4069" stop-color="#f9ac44"/>
		<stop offset=".4147" stop-color="#f9ab44"/>
		<stop offset=".4224" stop-color="#f9aa43"/>
		<stop offset=".4302" stop-color="#f9a942"/>
		<stop offset=".4379" stop-color="#f9a842"/>
		<stop offset=".4457" stop-color="#f9a741"/>
		<stop offset=".4535" stop-color="#f8a641"/>
		<stop offset=".4612" stop-color="#f8a640"/>
		<stop offset=".469" stop-color="#f8a53f"/>
		<stop offset=".4767" stop-color="#f8a43f"/>
		<stop offset=".4845" stop-color="#f8a33e"/>
		<stop offset=".4922" stop-color="#f8a23e"/>
		<stop offset=".5" stop-color="#f8a13d"/>
		<stop offset=".5078" stop-color="#f8a03c"/>
		<stop offset=".5155" stop-color="#f89f3c"/>
		<stop offset=".5233" stop-color="#f89e3b"/>
		<stop offset=".531" stop-color="#f89d3b"/>
		<stop offset=".5388" stop-color="#f89c3a"/>
		<stop offset=".5465" stop-color="#f89c39"/>
		<stop offset=".5543" stop-color="#f79b39"/>
		<stop offset=".5621" stop-color="#f79a38"/>
		<stop offset=".5698" stop-color="#f79938"/>
		<stop offset=".5776" stop-color="#f79837"/>
		<stop offset=".5853" stop-color="#f79736"/>
		<stop offset=".5931" stop-color="#f79636"/>
		<stop offset=".6009" stop-color="#f79535"/>
		<stop offset=".6086" stop-color="#f79435"/>
		<stop offset=".6164" stop-color="#f79334"/>
		<stop offset=".6241" stop-color="#f79234"/>
		<stop offset=".6319" stop-color="#f79233"/>
		<stop offset=".6396" stop-color="#f79132"/>
		<stop offset=".6474" stop-color="#f79032"/>
		<stop offset=".6552" stop-color="#f68f31"/>
		<stop offset=".6629" stop-color="#f68e31"/>
		<stop offset=".6707" stop-color="#f68d30"/>
		<stop offset=".6784" stop-color="#f68c2f"/>
		<stop offset=".6862" stop-color="#f68b2f"/>
		<stop offset=".694" stop-color="#f68a2e"/>
		<stop offset=".7017" stop-color="#f6892e"/>
		<stop offset=".7095" stop-color="#f6892d"/>
		<stop offset=".7172" stop-color="#f6882c"/>
		<stop offset=".725" stop-color="#f6872c"/>
		<stop offset=".7328" stop-color="#f6862b"/>
		<stop offset=".7405" stop-color="#f6852b"/>
		<stop offset=".7483" stop-color="#f5842a"/>
		<stop offset=".756" stop-color="#f58329"/>
		<stop offset=".7638" stop-color="#f58229"/>
		<stop offset=".7715" stop-color="#f58128"/>
		<stop offset=".7793" stop-color="#f58028"/>
		<stop offset=".7871" stop-color="#f57f27"/>
		<stop offset=".7948" stop-color="#f57f26"/>
		<stop offset=".8026" stop-color="#f57e26"/>
		<stop offset=".8103" stop-color="#f57d25"/>
		<stop offset=".8181" stop-color="#f57c25"/>
		<stop offset=".8259" stop-color="#f57b24"/>
		<stop offset=".8336" stop-color="#f57a23"/>
		<stop offset=".8414" stop-color="#f57923"/>
		<stop offset=".8491" stop-color="#f47822"/>
		<stop offset=".8569" stop-color="#f47722"/>
		<stop offset=".8647" stop-color="#f47621"/>
		<stop offset=".8724" stop-color="#f47521"/>
		<stop offset=".8802" stop-color="#f47520"/>
		<stop offset=".8879" stop-color="#f4741f"/>
		<stop offset=".8957" stop-color="#f4731f"/>
		<stop offset=".9034" stop-color="#f4721e"/>
		<stop offset=".9112" stop-color="#f4711e"/>
		<stop offset=".919" stop-color="#f4701d"/>
		<stop offset=".9267" stop-color="#f46f1c"/>
		<stop offset=".9345" stop-color="#f46e1c"/>
		<stop offset=".9422" stop-color="#f46d1b"/>
		<stop offset=".95" stop-color="#f36c1b"/>
		<stop offset=".9578" stop-color="#f36c1a"/>
		<stop offset=".9655" stop-color="#f36b19"/>
		<stop offset=".9733" stop-color="#f36a19"/>
		<stop offset=".981" stop-color="#f36918"/>
		<stop offset=".9888" stop-color="#f36818"/>
		<stop offset=".9965" stop-color="#f36717"/>
		<stop offset="1" stop-color="#f36717"/>
	</linearGradient>
	<linearGradient id="c" x1="-555.06598" x2="-552.59808" y1="256.15689" y2="256.15689" gradientTransform="matrix(45.2844 -7.9848 -7.9848 -45.2844 27170.26 7306.1285)" gradientUnits="userSpaceOnUse">
		<stop offset="0" stop-color="#996f5b"/>
		<stop offset=".00346" stop-color="#996f5b"/>
		<stop offset=".0112" stop-color="#996f5b"/>
		<stop offset=".019" stop-color="#996e5a"/>
		<stop offset=".0267" stop-color="#996e5a"/>
		<stop offset=".0345" stop-color="#996d5a"/>
		<stop offset=".0422" stop-color="#996d5a"/>
		<stop offset=".05" stop-color="#996d59"/>
		<stop offset=".0578" stop-color="#996c59"/>
		<stop offset=".0655" stop-color="#996c59"/>
		<stop offset=".0733" stop-color="#996c59"/>
		<stop offset=".081" stop-color="#996b58"/>
		<stop offset=".0888" stop-color="#996b58"/>
		<stop offset=".0966" stop-color="#996a58"/>
		<stop offset=".1043" stop-color="#996a58"/>
		<stop offset=".1121" stop-color="#996a57"/>
		<stop offset=".1198" stop-color="#996957"/>
		<stop offset=".1276" stop-color="#996957"/>
		<stop offset=".1354" stop-color="#996956"/>
		<stop offset=".1431" stop-color="#996856"/>
		<stop offset=".1509" stop-color="#996856"/>
		<stop offset=".1586" stop-color="#996756"/>
		<stop offset=".1664" stop-color="#996755"/>
		<stop offset=".1741" stop-color="#9a6755"/>
		<stop offset=".1819" stop-color="#9a6655"/>
		<stop offset=".1897" stop-color="#9a6655"/>
		<stop offset=".1974" stop-color="#9a6654"/>
		<stop offset=".2052" stop-color="#9a6554"/>
		<stop offset=".2129" stop-color="#9a6554"/>
		<stop offset=".2207" stop-color="#9a6454"/>
		<stop offset=".2285" stop-color="#9a6453"/>
		<stop offset=".2362" stop-color="#9a6453"/>
		<stop offset=".244" stop-color="#9a6353"/>
		<stop offset=".2517" stop-color="#9a6352"/>
		<stop offset=".2595" stop-color="#9a6352"/>
		<stop offset=".2672" stop-color="#9a6252"/>
		<stop offset=".275" stop-color="#9a6252"/>
		<stop offset=".2828" stop-color="#9a6151"/>
		<stop offset=".2905" stop-color="#9a6151"/>
		<stop offset=".2983" stop-color="#9a6151"/>
		<stop offset=".306" stop-color="#9a6051"/>
		<stop offset=".3138" stop-color="#9a6050"/>
		<stop offset=".3216" stop-color="#9a6050"/>
		<stop offset=".3293" stop-color="#9a5f50"/>
		<stop offset=".3371" stop-color="#9a5f50"/>
		<stop offset=".3448" stop-color="#9a5e4f"/>
		<stop offset=".3526" stop-color="#9a5e4f"/>
		<stop offset=".3604" stop-color="#9a5e4f"/>
		<stop offset=".3681" stop-color="#9a5d4f"/>
		<stop offset=".3759" stop-color="#9a5d4e"/>
		<stop offset=".3836" stop-color="#9a5d4e"/>
		<stop offset=".3914" stop-color="#9a5c4e"/>
		<stop offset=".3991" stop-color="#9a5c4d"/>
		<stop offset=".4069" stop-color="#9a5b4d"/>
		<stop offset=".4147" stop-color="#9a5b4d"/>
		<stop offset=".4224" stop-color="#9a5b4d"/>
		<stop offset=".4302" stop-color="#9a5a4c"/>
		<stop offset=".4379" stop-color="#9a5a4c"/>
		<stop offset=".4457" stop-color="#9a5a4c"/>
		<stop offset=".4535" stop-color="#9a594c"/>
		<stop offset=".4612" stop-color="#9a594b"/>
		<stop offset=".469" stop-color="#9a584b"/>
		<stop offset=".4767" stop-color="#9a584b"/>
		<stop offset=".4845" stop-color="#9a584b"/>
		<stop offset=".4922" stop-color="#9a574a"/>
		<stop offset=".5" stop-color="#9a574a"/>
		<stop offset=".5078" stop-color="#9b574a"/>
		<stop offset=".5155" stop-color="#9b5649"/>
		<stop offset=".5233" stop-color="#9b5649"/>
		<stop offset=".531" stop-color="#9b5549"/>
		<stop offset=".5388" stop-color="#9b5549"/>
		<stop offset=".5465" stop-color="#9b5548"/>
		<stop offset=".5543" stop-color="#9b5448"/>
		<stop offset=".5621" stop-color="#9b5448"/>
		<stop offset=".5698" stop-color="#9b5448"/>
		<stop offset=".5776" stop-color="#9b5347"/>
		<stop offset=".5853" stop-color="#9b5347"/>
		<stop offset=".5931" stop-color="#9b5247"/>
		<stop offset=".6009" stop-color="#9b5247"/>
		<stop offset=".6086" stop-color="#9b5246"/>
		<stop offset=".6164" stop-color="#9b5146"/>
		<stop offset=".6241" stop-color="#9b5146"/>
		<stop offset=".6319" stop-color="#9b5145"/>
		<stop offset=".6396" stop-color="#9b5045"/>
		<stop offset=".6474" stop-color="#9b5045"/>
		<stop offset=".6552" stop-color="#9b4f45"/>
		<stop offset=".6629" stop-color="#9b4f44"/>
		<stop offset=".6707" stop-color="#9b4f44"/>
		<stop offset=".6784" stop-color="#9b4e44"/>
		<stop offset=".6862" stop-color="#9b4e44"/>
		<stop offset=".694" stop-color="#9b4e43"/>
		<stop offset=".7017" stop-color="#9b4d43"/>
		<stop offset=".7095" stop-color="#9b4d43"/>
		<stop offset=".7172" stop-color="#9b4c43"/>
		<stop offset=".725" stop-color="#9b4c42"/>
		<stop offset=".7328" stop-color="#9b4c42"/>
		<stop offset=".7405" stop-color="#9b4b42"/>
		<stop offset=".7483" stop-color="#9b4b41"/>
		<stop offset=".756" stop-color="#9b4b41"/>
		<stop offset=".7638" stop-color="#9b4a41"/>
		<stop offset=".7715" stop-color="#9b4a41"/>
		<stop offset=".7793" stop-color="#9b4a40"/>
		<stop offset=".7871" stop-color="#9b4940"/>
		<stop offset=".7948" stop-color="#9b4940"/>
		<stop offset=".8026" stop-color="#9b4840"/>
		<stop offset=".8103" stop-color="#9b483f"/>
		<stop offset=".8181" stop-color="#9b483f"/>
		<stop offset=".8259" stop-color="#9b473f"/>
		<stop offset=".8336" stop-color="#9c473f"/>
		<stop offset=".8414" stop-color="#9c473e"/>
		<stop offset=".8491" stop-color="#9c463e"/>
		<stop offset=".8569" stop-color="#9c463e"/>
		<stop offset=".8647" stop-color="#9c453e"/>
		<stop offset=".8724" stop-color="#9c453d"/>
		<stop offset=".8802" stop-color="#9c453d"/>
		<stop offset=".8879" stop-color="#9c443d"/>
		<stop offset=".8957" stop-color="#9c443c"/>
		<stop offset=".9034" stop-color="#9c443c"/>
		<stop offset=".9112" stop-color="#9c433c"/>
		<stop offset=".919" stop-color="#9c433c"/>
		<stop offset=".9267" stop-color="#9c423b"/>
		<stop offset=".9345" stop-color="#9c423b"/>
		<stop offset=".9422" stop-color="#9c423b"/>
		<stop offset=".95" stop-color="#9c413b"/>
		<stop offset=".9578" stop-color="#9c413a"/>
		<stop offset=".9655" stop-color="#9c413a"/>
		<stop offset=".9733" stop-color="#9c403a"/>
		<stop offset=".981" stop-color="#9c403a"/>
		<stop offset=".9888" stop-color="#9c3f39"/>
		<stop offset=".9965" stop-color="#9c3f39"/>
		<stop offset="1" stop-color="#9c3f39"/>
	</linearGradient>
	<linearGradient id="d" x1="-564.70752" x2="-562.24042" y1="262.6658" y2="262.6658" gradientTransform="matrix(26.2212 26.2212 26.2212 -26.2212 7965.901 21739.102)" gradientUnits="userSpaceOnUse">
		<stop offset="0" stop-color="#2c3696"/>
		<stop offset=".00428" stop-color="#2c3696"/>
		<stop offset=".012" stop-color="#2c3696"/>
		<stop offset=".0198" stop-color="#2c3696"/>
		<stop offset=".0275" stop-color="#2c3695"/>
		<stop offset=".0353" stop-color="#2c3695"/>
		<stop offset=".043" stop-color="#2c3695"/>
		<stop offset=".0507" stop-color="#2c3595"/>
		<stop offset=".0585" stop-color="#2c3594"/>
		<stop offset=".0662" stop-color="#2b3594"/>
		<stop offset=".074" stop-color="#2b3594"/>
		<stop offset=".0817" stop-color="#2b3594"/>
		<stop offset=".0895" stop-color="#2b3593"/>
		<stop offset=".0972" stop-color="#2b3593"/>
		<stop offset=".105" stop-color="#2b3593"/>
		<stop offset=".1127" stop-color="#2b3593"/>
		<stop offset=".1205" stop-color="#2b3592"/>
		<stop offset=".1282" stop-color="#2b3592"/>
		<stop offset=".1359" stop-color="#2b3592"/>
		<stop offset=".1437" stop-color="#2b3492"/>
		<stop offset=".1514" stop-color="#2b3492"/>
		<stop offset=".1592" stop-color="#2b3491"/>
		<stop offset=".1669" stop-color="#2b3491"/>
		<stop offset=".1747" stop-color="#2a3491"/>
		<stop offset=".1824" stop-color="#2a3491"/>
		<stop offset=".1902" stop-color="#2a3490"/>
		<stop offset=".1979" stop-color="#2a3490"/>
		<stop offset=".2057" stop-color="#2a3490"/>
		<stop offset=".2134" stop-color="#2a3490"/>
		<stop offset=".2212" stop-color="#2a348f"/>
		<stop offset=".2289" stop-color="#2a348f"/>
		<stop offset=".2367" stop-color="#2a338f"/>
		<stop offset=".2444" stop-color="#2a338f"/>
		<stop offset=".2521" stop-color="#2a338f"/>
		<stop offset=".2599" stop-color="#2a338e"/>
		<stop offset=".2676" stop-color="#2a338e"/>
		<stop offset=".2754" stop-color="#2a338e"/>
		<stop offset=".2831" stop-color="#29338e"/>
		<stop offset=".2909" stop-color="#29338d"/>
		<stop offset=".2986" stop-color="#29338d"/>
		<stop offset=".3064" stop-color="#29338d"/>
		<stop offset=".3141" stop-color="#29338d"/>
		<stop offset=".3219" stop-color="#29328c"/>
		<stop offset=".3296" stop-color="#29328c"/>
		<stop offset=".3373" stop-color="#29328c"/>
		<stop offset=".3451" stop-color="#29328c"/>
		<stop offset=".3528" stop-color="#29328b"/>
		<stop offset=".3606" stop-color="#29328b"/>
		<stop offset=".3683" stop-color="#29328b"/>
		<stop offset=".3761" stop-color="#29328b"/>
		<stop offset=".3838" stop-color="#29328b"/>
		<stop offset=".3916" stop-color="#28328a"/>
		<stop offset=".3993" stop-color="#28328a"/>
		<stop offset=".4071" stop-color="#28328a"/>
		<stop offset=".4148" stop-color="#28318a"/>
		<stop offset=".4225" stop-color="#283189"/>
		<stop offset=".4303" stop-color="#283189"/>
		<stop offset=".438" stop-color="#283189"/>
		<stop offset=".4458" stop-color="#283189"/>
		<stop offset=".4535" stop-color="#283188"/>
		<stop offset=".4613" stop-color="#283188"/>
		<stop offset=".469" stop-color="#283188"/>
		<stop offset=".4768" stop-color="#283188"/>
		<stop offset=".4845" stop-color="#283187"/>
		<stop offset=".4922" stop-color="#283187"/>
		<stop offset=".5" stop-color="#273087"/>
		<stop offset=".5077" stop-color="#273087"/>
		<stop offset=".5155" stop-color="#273087"/>
		<stop offset=".5232" stop-color="#273086"/>
		<stop offset=".531" stop-color="#273086"/>
		<stop offset=".5387" stop-color="#273086"/>
		<stop offset=".5465" stop-color="#273086"/>
		<stop offset=".5542" stop-color="#273085"/>
		<stop offset=".562" stop-color="#273085"/>
		<stop offset=".5697" stop-color="#273085"/>
		<stop offset=".5775" stop-color="#273085"/>
		<stop offset=".5852" stop-color="#273084"/>
		<stop offset=".5929" stop-color="#272f84"/>
		<stop offset=".6007" stop-color="#272f84"/>
		<stop offset=".6084" stop-color="#272f84"/>
		<stop offset=".6162" stop-color="#262f83"/>
		<stop offset=".6239" stop-color="#262f83"/>
		<stop offset=".6317" stop-color="#262f83"/>
		<stop offset=".6394" stop-color="#262f83"/>
		<stop offset=".6472" stop-color="#262f83"/>
		<stop offset=".6549" stop-color="#262f82"/>
		<stop offset=".6627" stop-color="#262f82"/>
		<stop offset=".6704" stop-color="#262f82"/>
		<stop offset=".6781" stop-color="#262f82"/>
		<stop offset=".6859" stop-color="#262e81"/>
		<stop offset=".6936" stop-color="#262e81"/>
		<stop offset=".7014" stop-color="#262e81"/>
		<stop offset=".7091" stop-color="#262e81"/>
		<stop offset=".7169" stop-color="#262e80"/>
		<stop offset=".7246" stop-color="#252e80"/>
		<stop offset=".7324" stop-color="#252e80"/>
		<stop offset=".7401" stop-color="#252e80"/>
		<stop offset=".7479" stop-color="#252e80"/>
		<stop offset=".7556" stop-color="#252e7f"/>
		<stop offset=".7634" stop-color="#252e7f"/>
		<stop offset=".7711" stop-color="#252d7f"/>
		<stop offset=".7788" stop-color="#252d7f"/>
		<stop offset=".7866" stop-color="#252d7e"/>
		<stop offset=".7943" stop-color="#252d7e"/>
		<stop offset=".8021" stop-color="#252d7e"/>
		<stop offset=".8098" stop-color="#252d7e"/>
		<stop offset=".8176" stop-color="#252d7d"/>
		<stop offset=".8253" stop-color="#252d7d"/>
		<stop offset=".8331" stop-color="#242d7d"/>
		<stop offset=".8408" stop-color="#242d7d"/>
		<stop offset=".8486" stop-color="#242d7c"/>
		<stop offset=".8563" stop-color="#242d7c"/>
		<stop offset=".864" stop-color="#242c7c"/>
		<stop offset=".8718" stop-color="#242c7c"/>
		<stop offset=".8795" stop-color="#242c7c"/>
		<stop offset=".8873" stop-color="#242c7b"/>
		<stop offset=".895" stop-color="#242c7b"/>
		<stop offset=".9028" stop-color="#242c7b"/>
		<stop offset=".9105" stop-color="#242c7b"/>
		<stop offset=".9183" stop-color="#242c7a"/>
		<stop offset=".926" stop-color="#242c7a"/>
		<stop offset=".9338" stop-color="#242c7a"/>
		<stop offset=".9415" stop-color="#232c7a"/>
		<stop offset=".9492" stop-color="#232c79"/>
		<stop offset=".957" stop-color="#232b79"/>
		<stop offset=".9647" stop-color="#232b79"/>
		<stop offset=".9725" stop-color="#232b79"/>
		<stop offset=".9802" stop-color="#232b78"/>
		<stop offset=".988" stop-color="#232b78"/>
		<stop offset=".9957" stop-color="#232b78"/>
		<stop offset="1" stop-color="#232b78"/>
	</linearGradient>
	<path fill="url(#a)" d="m2.8020751 126.46738c-5.14 10.27-3.49999991 24.97 7.3499999 35.61 12.34 12.11 31.63 19.4 57.89 19.4 26.35 0 45.630005-7.52 57.430005-19.4 11.59-11.65 12.02-26.81 7.29-35.96-1.92-3.7-4.51-7.12-8.04-10.36 2.64 2.69 4.79 5.63 6.38 8.72.06.11.11.26.17.37.23.46.46.95.66 1.43.98 2.27 1.63 4.59 1.95 6.95.72 5.22-.23 10.36-2.9 15.41-1.64 3.07-3.9 6.11-6.86 9.01-12.02 11.79-32.520005 19.06-56.280005 19.06-22.33 0-41.73-6.4-53.99-16.93-.8-.69-1.58-1.41-2.3-2.12-10.4999999-10.31-12.42999981-22.1-7.1799999-32.81.11-.23.23-.46.34-.69 1.61-3.04 3.76-5.91 6.3399999-8.55.03-.03.08-.08.11-.12-3.2999999 3.28-5.9499999 6.15-8.3599999 10.98"/>
	<path fill="#f36717" d="m105.14208 103.12738c-11.140005-4.619996-24.110005-6.999996-37.280005-6.999996s-26.15 2.38-37.28 6.999996c-12.2 5.05-21.6399999 12.57-26.1499999 21.73-5.24999991 10.7-3.33 22.5 7.1799999 32.8 12.03 11.8 32.52 19.06 56.28 19.06s44.260005-7.26 56.280005-19.06c10.5-10.3 12.43-22.1 7.15-32.8-4.57-9.16-13.98-16.67-26.18-21.73"/>
	<path fill="url(#b)" d="m70.162075 126.17738s-1.06.29-2.24.6c.08 2.76.17 5.57.26 8.38 1.86-2.9 3.18-5.91 3.96-9.01-.26-.03-.55-.03-.8-.03-.4 0-.81.03-1.18.06m-2.32-1.78c0 .34.03.69.03 1.03.32-.46.63-.86.95-1.24-.11-.06-.23-.11-.34-.17-.21.15-.41.26-.64.38m0-.72c-12.46.2-22.3.78-34.55 1.81 10.76.03 19.11.43 30.05 1.29-7.78 4.79-15.38 9.9-22.79 15.24 7.69-4.34 15.53-8.44 23.48-12.26-.2-.89-.4-1.78-.6-2.67l-.06-.32c1.49-.92 3.01-1.84 4.5-2.76-.03-.1-.03-.21-.03-.33 0-.03 0-.03 0 0m0 0c.11.06.2.11.31.18-.11.06-.23.14-.31.2.06-.03.08-.06.14-.09l.2-.11c.11-.06.23-.15.34-.2-.25-.01-.45-.01-.68.02m.66-.03h.83c.34-.37.69-.75 1.09-1.12-.66.38-1.29.75-1.92 1.12m4.28-5.48c0 .03.03.08.03.11-.01-.02-.01-.08-.03-.11zm-14.04 3.1c1.55-.17 3.13-.34 4.68-.49-6.28-3.5-12.71-6.77-19.29-9.67 5.03 3.16 9.87 6.57 14.61 10.16m4.68-.49c1.66.92 3.33 1.86 4.99 2.84.03.03.06.03.08.06 0-6.14 0-12.28 0-18.46-1.86 5.12-3.52 10.34-5.07 15.56m4.99-18.68c-16.88 0-43.88 5.77-48.13 25.23-.72 3.27-.66 6.26 0 8.98 2.41 8.61 10.99 14.52 20.78 18.25 10.31-3.64 18.34-8.92 23.76-15.04-.54-2.44-1.09-4.88-1.66-7.35-9.99 4.71-19.06 9.21-28.96 14.46 7-6.95 13.63-12.94 21.15-19.31-10.68-.69-20.89-.83-31.8-.98 10.7-2.33 21.3-4.13 32.17-5.51-5.11-4.02-10.11-7.75-15.59-11.25l-.83-.52c8.24 2.09 16.05 4.59 24.02 7.52 1.58-4.71 3.24-9.39 5.14-13.98-.02-.16-.02-.33-.05-.5zm-37.85 1.03c-11.88 4.94-21.1499999 12.17-25.7999999 21.04-.11.23-.23.46-.34.69-5.27999991 10.7-3.33 22.5 7.1799999 32.8.75.72 1.49 1.44 2.3 2.12 8.9-.52 16.96-1.98 24.02-4.16-9.44-4.02-17.42-10.1-19.49-18.74-.83-3.01-.95-6.37-.11-10.05 4.5-20.12 32.43-26.12 49.94-26.12h.11c0-1.609996.17-3.159996.37-4.589996-.31 0-.6 0-.92 0-13.15.01-26.13 2.39-37.26 7.009996"/>
	<g fill-rule="evenodd" clip-rule="evenodd">
		<path fill="#fff" d="m39.322075 109.04738c8.24 2.09 16.04 4.59 24.02 7.52 1.58-4.74 3.24-9.44 5.17-14.03 1.92 4.62 3.59 9.3 5.17 14.03 7.95-2.93 15.64-5.34 23.88-7.4-5.8 3.64-10.91 7.38-16.27 11.59 10.88 1.38 21.070005 3.19 31.770005 5.51-10.68-.23-20.750005.14-31.400005.83 7.52 6.37 13.95 12.54 20.950005 19.49-9.590005-5.48-18.570005-10.07-28.560005-14.78-1.92 8.35-3.76 16.73-5.54 25.11-1.75-8.38-3.39-16.36-5.31-24.71-9.99 4.71-19.06 9.21-28.96 14.46 7-6.95 13.63-12.94 21.15-19.31-10.68-.69-20.89-.83-31.8-.98 10.71-2.32 21.3-4.13 32.17-5.51-5.39-4.27-10.67-8.17-16.44-11.82m29.19 14.61c0-6.14 0-12.28 0-18.45-1.87 5.14-3.53 10.33-5.08 15.56 1.7.94 3.39 1.92 5.08 2.89m-24.39-12.57c6.6 2.9 13 6.17 19.29 9.67-1.55.14-3.13.32-4.68.49-4.74-3.56-9.59-6.97-14.61-10.16m24.39 12.57c12.71.03 25.4.66 38.030005 1.92-11.110005-2.01-21.870005-3.53-32.980005-4.82-1.72.95-3.38 1.9-5.05 2.9m24.34-12.57c-6.6 2.9-13.03 6.17-19.31 9.67-.26-.86-.52-1.72-.77-2.58 6.59-2.64 13.31-5.02 20.08-7.09m-25.03 12.57c.26 8.9.6 18.37.66 26.98 1.66-7.98 3.39-15.93 5.22-23.88-1.72-1.06-4.13-2.09-5.88-3.1m28.67 18.37c-7.4-5.34-14.98-10.45-22.76-15.27 1.58-.11 3.19-.26 4.76-.34 6.18 4.99 12.18 10.21 18 15.61m-27.98-18.37c-12.77.17-22.76.75-35.21 1.84 10.76.03 19.11.43 30.05 1.29 1.69-1.06 3.41-2.1 5.16-3.13m-27.98 18.37c7.43-5.34 15.01-10.45 22.79-15.24.23 1 .46 1.98.69 2.98-7.98 3.82-15.79 7.93-23.48 12.26m29.22 32.27c0-3.47 0-6.92-.03-10.36-.37-.26-.86-.52-1.23-.78-.37.26-.92.52-1.29.78v10.36c.4.26.92.55 1.29.83.37-.26.89-.55 1.26-.83m-61.5099998-25.07c-.2.37-.4.77-.6 1.18.37.14 1.12.37 1.44.52 3.6199998-1.92 7.1999998-3.87 10.7599998-5.74.14-.55.23-.86.37-1.26-.37-.09-.75-.2-1.09-.29-3.65 1.81-7.27 3.67-10.8799998 5.59m-2.67-21.27c-.34.26-.66.52-1 .8l.55.75c3.39-.49 6.7699998-.89 10.1599998-1.23.32-.32.69-.66 1-.95l-.6-.6c-3.37.34-6.7299998.74-10.1099998 1.23m13.0099998-17.15c-.34.14-.69.29-1.03.43l.09.77c2.5.34 4.99.77 7.46 1.26.32-.2.75-.46 1.06-.6l-.14-.66c-2.47-.45-4.97-.85-7.44-1.2m76.2-10.58c-1.32.83-2.61 1.69-3.9 2.53l.37.43h1c1.26-.89 2.53-1.75 3.85-2.58l-.37-.37c-.32-.01-.64-.01-.95-.01m-27.18-3.599996c0 1.03 0 2.04-.03 3.04l.75.26.75-.26c0-1-.03-2.04-.03-3.04l-.72-.23zm-27.28 4.059996c1.32.83 2.58 1.69 3.85 2.61.32 0 .8-.09 1.12-.09l.37-.43c-1.26-.89-2.55-1.72-3.87-2.55-.32 0-.63 0-.95 0zm-7.95 67.28c2.53-3.04 5.11-6.06 7.66-9.04-.14-.29-.37-.8-.49-1.12-.52.09-1.15.2-1.66.32-2.61 2.98-5.17 6-7.69 9.01.11.37.37.72.49 1.09.51-.15 1.17-.15 1.69-.26m95.530005-18.74c-3.59-1.92-7.23-3.79-10.88-5.6-.34.09-.72.2-1.09.29.14.4.23.72.37 1.26 3.56 1.87 7.15 3.82 10.76 5.74.32-.14 1.06-.37 1.44-.52-.2-.39-.4-.79-.6-1.17m2.67-21.27c-3.36-.49-6.74-.89-10.1-1.23l-.6.6c.32.29.69.63 1 .95 3.39.34 6.77.75 10.16 1.23l.55-.75c-.35-.29-.67-.55-1.01-.8m-12.98-17.15c-2.5.34-4.99.75-7.49 1.21l-.11.66c.32.14.75.4 1.06.6 2.47-.49 4.97-.92 7.46-1.26l.11-.77c-.35-.15-.69-.29-1.03-.44m-13.82 57.16c.43.06 1.18.17 1.69.26.17-.34.32-.72.49-1.09-2.53-3.01-5.08-6.03-7.690005-9.01-.52-.11-1.15-.23-1.66-.32-.11.32-.34.83-.49 1.12 2.58 2.98 5.130005 6 7.660005 9.04"/>
		<path fill="#c4161d" d="m68.242075 123.80738.26-.17v.37c-1.72 1.03-3.42 2.04-5.11 3.07l-.06-.32c1.55-.95 3.1-1.89 4.65-2.81zm5.31-3.05c-.26-.86-.52-1.72-.77-2.58v.31c.23.78.46 1.55.69 2.32z"/>
		<path fill="#c82128" d="m68.502075 102.84738c1.92 4.62 3.59 9.3 5.17 14.03 7.69-2.84 15.1-5.14 23.05-7.2l.83-.52c-8.24 2.1-15.9 4.48-23.88 7.4-1.58-4.74-3.24-9.41-5.17-14.03-1.92 4.62-3.59 9.3-5.17 14.03-7.95-2.93-15.78-5.42-24.02-7.52l.83.52c7.95 2.07 15.5 4.48 23.19 7.32 1.58-4.74 3.24-9.41 5.17-14.03"/>
		<path fill="#c95222" d="m8.2020752 149.82738-.34.63-.23-.09c.2-.4.4-.77.6-1.18 3.6199998-1.92 7.2299998-3.79 10.8799998-5.6.37.09.72.2 1.09.29l-.2.63c-.29-.09-.69-.14-.98-.23-3.64 1.82-7.2 3.63-10.8199998 5.55m-2.5-21.4c3.36-.49 6.6599998-.89 10.0699998-1.26l.34.34.2-.2-.6-.6c-3.39.34-6.7399998.78-10.1299998 1.26-.32.29-.66.55-.98.8l.23.32zm12.9299998-17.02c2.47.34 7.52 1.35 7.58 1.32l-.14-.66c-2.5-.49-4.97-.89-7.46-1.23-.34.14-.69.29-1.03.43l.06.52z"/>
		<path fill="#a61b20" d="m73.702075 126.75738c7.81 4.79 15.38 9.93 22.76 15.27v.46c-9.76-7.03-17.48-12.08-22.79-15.35-1.84 7.95-3.53 15.84-5.19 23.82v-.32c1.64-7.89 3.42-16.05 5.22-23.88m8.27.63-.34-.29v.49c7.26 6.14 13.06 11.65 19.800005 18.34l1.15.66c-7.100005-7.06-13.440005-13.12-20.610005-19.2m-.73-6.62v.37c10.33 1.32 19.800005 2.96 29.990005 5.11.52 0 1.26.03 1.78.03-10.7-2.32-20.890005-4.13-31.770005-5.51m-12.74 2.87h.52-.52l.26.17.32.17c12.54.03 25 .66 37.450005 1.92v-.34c-12.630005-1.26-25.320005-1.89-38.030005-1.92m5.05-2.88.46.06c6.14-3.39 12.43-6.57 18.86-9.41v-.32c-6.61 2.9-13.04 6.17-19.32 9.67m22.18-19.99.06.06.32-.2-.37-.37c-.32 0-.63 0-.95 0-1.32.83-2.61 1.66-3.87 2.55l.29.32c1.18-.8 2.38-1.61 3.59-2.35.3-.01.61-.01.93-.01m-56.24 57.47.46.86.14-.14c-.06-.14-.34-.83-.49-1.12-.52.11-1.15.23-1.66.32-2.58 2.98-5.17 5.97-7.69 9.01l.2.43c1.64-1.92 5.14-6.14 7.69-9.07.37-.15.92-.2 1.35-.29m88.470005-8.41.34.63.23-.09c-.2-.4-.4-.77-.6-1.18-3.62-1.92-7.23-3.79-10.88-5.6-.37.09-.75.2-1.09.29l.2.63.98-.23c3.62 1.82 7.2 3.63 10.82 5.55m2.51-21.4.86.66.23-.32c-.32-.26-.66-.52-.98-.8-3.39-.49-6.74-.92-10.13-1.26l-.6.6.2.2.34-.34c3.39.37 6.69.77 10.08 1.26m-11.93-16.65.06-.52c-.34-.14-.69-.29-1.03-.43-2.5.34-4.99.75-7.46 1.23l-.14.66c.06.03 5.11-.98 7.58-1.32zm-21.860005 46.46c.4.09.98.14 1.35.32 2.550005 2.93 6.080005 7.12 7.720005 9.04l.17-.43c-2.53-3.04-5.11-6.03-7.690005-9.01-.52-.09-1.15-.2-1.66-.32-.14.29-.43.98-.49 1.12l.14.14zm-27.17 6.07.23 9.99-.03-10.36c-.37-.26-.86-.52-1.23-.77-.37.26-.92.52-1.29.77v10.36l.23-9.99c.32-.2.75-.4 1.03-.6z"/>
		<path fill="#c93e25" d="m55.342075 127.78738c-7.29 6.14-13.26 11.54-20.03 18.22l-1.09.63c6.89-6.83 13.72-13.03 21.12-19.31zm8.08-7.01-.49.06c-1.41.14-2.81.29-4.22.46-4.74-3.59-9.59-7-14.61-10.19v.37c5.02 3.19 9.87 6.6 14.61 10.19 1.55-.17 3.13-.34 4.68-.49 1.52.83 2.96 1.64 4.48 2.53h.6c-1.64-1.01-3.39-2.01-5.05-2.93m-22.89 21.69c7.69-4.33 15.53-8.44 23.48-12.25v-.43c-7.98 3.82-15.79 7.92-23.48 12.25zm14.85-21.6c-10.76 1.38-21.24 3.19-31.83 5.45.52 0 1.15.03 1.69.03 10.19-2.15 20.15-3.85 30.48-5.17v-.37zm7.95 5.91c-10.02-.86-19.98-1.35-30.02-1.29v.32c9.9-.09 19.75.4 29.62 1.26zm-21.51-26.11c1.21.75 2.38 1.61 3.56 2.41l.29-.32c-1.26-.89-2.55-1.75-3.87-2.55-.32 0-.63 0-.95 0l-.52.46.32.2.23-.2zm-23.52 26.19c-5.6 25.05 31.83 34.41 49.97 34.41s55.560005-9.36 49.940005-34.41c-4.53-20.12-32.460005-26.12-49.970005-26.12s-45.44 5.97-49.94 26.12m1.83-.14c-5.25 24.08 30.68 32.98 48.13 32.98s53.380005-8.9 48.130005-32.98c-4.24-19.46-31.250005-25.23-48.130005-25.23-16.87 0-43.88 5.77-48.13 25.23"/>
		<path fill="#fff" d="m18.472075 127.48738c4.51-20.15 31.28-26.23 49.94-26.23 18.63 0 45.430005 6.08 49.940005 26.23 5.63 25.05-31.800005 34.38-49.940005 34.38s-55.57-9.33-49.94-34.38m1.83-.15c4.25-19.46 31.25-25.23 48.13-25.23 16.85 0 43.880005 5.77 48.130005 25.23 5.25 24.08-30.680005 32.98-48.130005 32.98s-53.38-8.93-48.13-32.98"/>
	</g>
	<path fill="url(#c)" d="m67.892075 125.45738c0 .43.03.89.03 1.32 1.17-.31 2.24-.6 2.24-.6.37-.06.75-.06 1.15-.06.26 0 .54 0 .8.03.03-.08.03-.14.06-.23-1.09-.57-2.3-1.15-3.36-1.69-.28.37-.6.77-.92 1.23m2.5-2.93c-.38.37-.75.75-1.09 1.12 1.09 0 2.18.03 3.27.03.11-.83.2-1.7.23-2.56-.77.5-1.58.96-2.41 1.41"/>
	<path fill="#8a223a" d="m89.262075 111.70738c-.23-.06-.43-.12-.6-.14 2.9-.86 5.85-1.66 8.87-2.44l-.83.52s0 0-.03 0c-2.5.69-4.97 1.37-7.41 2.06"/>
	<path fill="#7c1e33" d="m121.05208 145.64738c-.66-.32-1.26-.63-1.78-.89.6.29 1.18.58 1.78.89m-36.840005-16.35c-.75-.63-1.49-1.29-2.21-1.89l-.34-.29v.49c.55.49 1.09.95 1.64 1.41.28.08.59.17.91.28m28.820005-3.04c-3.85-.83-7.63-1.58-11.37-2.3.09.11.17.26.26.4 3.07.57 6.17 1.21 9.33 1.87.52 0 1.26.03 1.78.03m-21.840005-1.57c-.63-.17-1.38-.34-2.18-.46-6.54-.37-13.12-.55-19.66-.57-.11.11-.2.2-.29.32l.03.03c7.37.02 14.75.25 22.1.68m15.320005 1.24v-.34c-1.32-.11-2.67-.26-4.02-.37.09.12.17.26.26.37 1.26.08 2.5.22 3.76.34m-15.400005-13.76c.57-.26 1.15-.52 1.72-.77v-.32c-.72.32-1.46.63-2.18.98.2.05.35.08.46.11"/>
	<path fill="#9c3f39" d="m130.43208 149.69738c-1.64-.55-6.08-2.44-9.36-4.05-.6-.32-1.18-.6-1.78-.89-.89-.46-1.55-.86-1.87-1.15 0 0-.6-.32-1.49-.8 2.3-3.62 3.44-7.81 2.9-12.66l1.03.23 8.18 1.23 5.77 1.21c.03.14.03.26.06.4.14 1.09.23 2.18.23 3.27 0 4.08-1 8.15-3.13 12.14-.16.38-.34.73-.54 1.07m-39.780005-37.62c.75-.34 1.46-.69 2.18-1-.92.29-1.81.57-2.73.86.2.06.38.11.55.14m-1.69 12.14c-.66-.09-1.41-.17-2.21-.23-7.86-.69-10.88-1.75-11.65-2.01-1.41-.49-1.43-.75-2.27-.86-.03.86-.11 1.72-.23 2.55 5.45.09 10.9.27 16.36.55m17.560005 1.35c-1.43-.26-2.87-.52-4.28-.75.09.11.17.26.26.37 1.32.12 2.67.24 4.02.38m-33.810005.6c-.17-.09-.34-.17-.52-.29-.03.09-.03.14-.06.23.21.04.38.04.58.06m7.84 1.9c-.69-.55-1.38-1.09-2.04-1.66-1.03.06-2.04.11-3.04.2 1.03.23 1.72.43 1.72.43 1.03.23 2.47.71 3.36 1.03m33.200005 13.63c2.32-3.53 3.5-7.63 3.01-12.37-1.18-.66-2.44-1.64-3.16-2.73-1.12-1.75-3.87-4.79-5.4-6.69-2.1-2.61-6.86-5.02-7.55-6.11-.690005-1.09-1.840005-2.98-2.150005-3.73-.32-.72-.98-1.29-2.09-1.29-.06 0-.14 0-.2 0-1.26.09-1.35.52-2.41.57-.14 0-.29 0-.43 0-1 0-2.12-.17-2.12-.17-.66-.11-1.09-.2-1.55-.2-.63 1.09-1.64 1.75-4.08 1.75l-.43-.06c.23.52 2.35.83 2.84.83h.06.03c.11 0 .29.03.52.09 2.9-.86 5.85-1.66 8.87-2.44l-.83.52c-.03 0-.03 0-.03 0-1.41.89-2.78 1.81-4.13 2.73.23.11.55.26.98.52 2.64 1.49 6.540005 5.65 7.320005 9.27.11.52.43 1.12.83 1.75 3.76.69 7.55 1.46 11.39 2.3-.52 0-1.26-.03-1.78-.03-1.52-.03-3.04-.03-4.56-.03-1.18 0-2.3.03-3.44.03.86 1.15 1.66 2.27 1.84 3.1-3.47-.23-7.810005-2.04-9.700005-2.9-4.53.14-9.07.4-13.75.69.86.75 1.72 1.49 2.55 2.21 3.53 1.15 9.24 3.16 11.11 4.51 1.81 1.32 11.140005 4.79 13.600005 5.65 1.14.39 3.09 1.34 4.84 2.23m18.52-14.55c-.11-.29-.2-.57-.37-.8-.2-.49-.43-.95-.66-1.43 0-.03-.03-.03-.03-.06v-.03c0-.03 0-.03 0-.03-.06-.09-.09-.2-.14-.29-.29-.6-.63-1.21-.98-1.78-.11-.03-1.52-.43-5.08-.43-.34 0-.72 0-1.09 0-.03 0-.03 0-.06 0-.77 0-1.64.2-1.64.2l-2.24 1.32c-.29.46.72 1.06.72 1.06s2.81.17 2.81.92c2.07 1.12 6.49 1.24 8.76 1.35m-28.82 23.68c.86-.49 1.69-1.03 2.53-1.58-.49-.09-1.18-.17-2.1-.17-.8 0-.75.83-.43 1.75m19.66 7.81c.34-.32.66-.63 1.03-.92 1.29-1.26 2.41-2.53 3.44-3.82-4.97-.11-12.03-.2-17.39-2.98-.17-.55-.57-.83-1-1-1.46 1.12-3.04 2.12-4.74 3.07.14.23.23.4.23.4 1.64 1.09 7.52 2.76 8.75 2.93 1.23.14 5.34 1.38 5.34 1.38s2.13.28 4.34.94"/>
	<path fill="#892f3b" d="m114.18208 141.91738c-.14-.06-.29-.14-.43-.2 2.32-3.53 3.5-7.61 3.04-12.34.03.03.06.03.09.06.63 4.73-.46 8.89-2.7 12.48m-10.51 9.51c1.06-.63 2.07-1.26 3.04-1.95-.17-.06-.43-.14-.75-.2-.8.55-1.66 1.06-2.53 1.58.1.17.16.37.24.57"/>
	<path fill="#987a8f" d="m92.532075 112.42738c-.6-.26-.69-.11-1.41-.23h-.03c.57-.26 1.15-.52 1.75-.77v-.32c-.92.29-1.84.57-2.73.86-.29-.06-.57-.14-.86-.2 2.44-.72 4.91-1.38 7.43-2.04-1.42.86-2.8 1.78-4.15 2.7m-22.13 10.1c.2-.17.37-.37.6-.57.32-.29.52-.6.69-.89l.72.03c.17 0 .32.03.46.03-.86.48-1.66.94-2.47 1.4m40.850005 3.7c-1.52-.03-3.04-.03-4.56-.03-1.15 0-2.3 0-3.42.03-.17-.23-.32-.43-.49-.66 1.26.11 2.5.23 3.76.34v-.34c-1.35-.14-2.7-.26-4.02-.37 1.35.11 2.7.26 4.02.37-1.44-.26-2.87-.52-4.31-.75-.11-.14-.2-.32-.32-.46 3.08.58 6.18 1.21 9.34 1.87m1.77.03c-3.85-.83-7.63-1.61-11.39-2.3 3.79.72 7.55 1.47 11.39 2.3m-47.290005 1.06c.66-.17 1.23-.49 1.55-1 .2-.32.4-.6.57-.86 0 .46.03.89.03 1.32-.72.2-1.55.4-2.15.54m18.48 1.98c-.75-.63-1.46-1.26-2.21-1.89l-.34-.29v.49c.55.46 1.09.95 1.64 1.41-1.18-.37-1.95-.63-1.95-.63s-.32-.11-.77-.29c-.69-.57-1.35-1.12-2.04-1.66-1 .06-2.04.14-3.04.2-.77-.17-1.75-.34-2.76-.43-.17-.09-.34-.17-.52-.29-1.09-.57-2.3-1.15-3.36-1.69.06-.09.14-.17.2-.23l.03.03c7.38.03 14.75.26 22.1.69 1.58.43 2.47.89 2.47.89l.77.37s.37.17.98.46c-4.53.14-9.1.4-13.75.69.86.71 1.69 1.43 2.55 2.17m31.690005 13.5c2.3-3.62 3.44-7.81 2.93-12.66h-.03c-.52-.11-1.18-.37-1.89-.75.6 4.79-.49 8.95-2.73 12.51.63.32 1.23.64 1.72.9m15.37-17.94c0-.03-.03-.03-.03-.06.03.03.03.06.03.06m-26.84 28.1c1.66-.95 3.27-1.95 4.76-3.07-.37-.14-.77-.17-1.12-.17-.43 0-.77.06-.77.06s-.11-.14-.55-.32c-.98.69-2.01 1.32-3.07 1.95.23.6.55 1.18.75 1.55"/>
	<path fill="#f9a93f" d="m92.152075 71.657384-1.69-1.58c-.11-.52.46-1.23.6-2.12l-.52-.2c-.4-1.52-.75-4.28 0-5.74.34-.72.77-1.66.55-2.5-1.38-4.68-4.08-8.75-5.97-13.17-.52-1.21-.43-2.07-.52-3.3-1.46-1.64-3.19-5.88-3.99-8.5-1.72 4.33-2.87 9.33-2.87 10.48 0 4.88 4.97 7.26 3.24 15.38-.34 1.58-.92 3.73-1.49 5.97 1.03 5.65 1.03 9.76 2.55 16.33 2.12 2.09 3.87 4.79 4.82 8.21.57 2.12 2.35 7.09 4.65 7.81 1.41.46-4.79 1.609996-6.54-.6-1.69-2.12-4.62-3.82-6-6.06-1.09-1.78-2.81-5.63-3.9-7.43l-1.32 6.95c1.81 7.43.72 9.069996-.89 15.099996-.69 2.61-5.94-9.589996-5.97-10.529996 0-2.64-.17-3.62-.77-5.97-1.09-2.15-.98-5.19-.83-7.52.26-3.87.23-11.16.37-13.09-1.32-3.27-4.74-9.16-5.08-12.46-.52-5.17.34-10.39-.37-15.56-.89 2.58-1.84 5.85-3.85 7.84-3.01 2.96-5.77 6.23-8.47 9.5-.98 1.35-.11 1.98-1.64 4.13-1.49 2.09-.69 1.15-1 3.16-.06.34-.23.63-.34.75-.8.66-1.64 1.23-2.78.77-2.21-1.12-2.38-2.76-2.53-4.85-.29-4.02 2.7-4.22 4.39-6.66 3.3-4.79 4.99-12.83 8.55-16.44.23-.72 1.06-3.3 2.64-7.12.06-4.76 1.23-9.01 6.14-10.96 2.01-.8 4.65-1 4.74-3.79 0-.34-.06-1.18-.26-1.49-.8-.66-1.38-.66-1.78-1.12-.8-1.03-1.46-7.5799996-1.38-8.0099996 1.15-5.57 3.82-7.40000004 7.18-7.26000004 3.99.2 7.15 2.12000004 6.97 7.46000004-.14 4.3099996-4.59 9.8399996 2.07 11.9399996 2.55.8 3.01.26 5.22 2.44 2.44 2.47 3.04 6.83 3.44 10.88l2.5 5.8c4.59 7.72 2.93 10.16 4.59 17.99.43 2.04 1.18 3.82 1.35 8.27.18 2.05-1.49 6.79-3.81 6.87"/>
	<path fill="url(#d)" d="m64.542075 7.4473844c.03.34.2 5.6299996.98 6.7499996 1.52 1.15 2.38.8 2.3 3.65-.08 2.38-1.61 3.79-3.67 4.53-3.36 1.17-5.08 1.86-6.2 5.34-.34 1.09-.66 2.67-.66 4.99v.15c-.95 2.38-2.18 5.11-2.9 7.66-4.13 4.16-6.2 13.57-10.39 17.56-2.78 2.64-3.62 2.81-2.61 6.89.11.4 1.43 1.47 1.72 1.64l1.29-.8c.2-2.07-.08-1.89 1.24-3.79 1.21-1.75.63-2.67 1.69-4.19 2.64-3.3 5.14-6.63 8.09-9.64 1.98-2.01 4.68-8.81 5.31-11.19.11-.34.31-.52.4-.23.4 4.53 1.06 8.32.89 12.8-.34 9.39-.08 8.41 3.82 17.16.31-3.53 1.17-8.64 3.21-10.36-2.41 9.13-2.56 22.16-2.81 26.14-.15 2.04-.69 5.25.29 7.12.31 1.26.34 3.18.37 4.65 0 .89.06 16.009996.06 16.009996l-1.4 7.03c-.49 2.04-3.13 5.43-5.05 6.49-.6.34-2.07 1.12-2.07 1.78 0 1.12 7.14 3.19 8.78.66 1.23-1.89 2.24-2.93 3.7-4.34 2.24-2.15-.26-4.39.06-7.29.52-5.08 2.7-9.5 3.42-14.32.43-2.899996.34-5.449996-.95-8.759996l.95-9.18c1.06 1.58 2.04 4.11 3.04 6.2 1.78 3.73 1.81 4.08 4.91 7.15 1.03 1.03 2.12 2.24 2.9 3.5 1.46 2.299996 2.44 4.589996 2.32 7.349996-1.06 1.92-1.52 1.81-2.9 2.98.06.06-.38 1.12.92 1.12 4.65 0 4.08-2.44 5.82-5.56 1.15-2.04 4.39-5.139996.83-6.199996-1.12-.34-2.18-1.01-2.84-2.1-2.47-4.13-2.58-4.04-3.87-7.86-.78-2.32-2.38-4.19-4.25-5.68-1.15-2.61-1.61-4.45-1.98-7.23-.49-3.76-.83-6.43-1.49-10.27 1.81-7.2 2.76-8.73-.34-15.64-.72-1.58-1.12-3.27-1.12-5.17 0-2.3 1.26-7.46 2.49-10.16.43-1.09 1.03-2.12 1.87-2.44.75 2.79 3.33 8.53 4.82 9.93.08 1.12.06 2.27.49 3.33 1.89 4.53 4.59 8.64 5.94 13.43.46 1.64-.15 2.44-.63 3.76-.15.63-.17 2.47.11 3.85l.66.34c-.11.4-.4 1.58-.63 2.09.09.66.89 1.01.89 1.01 1.03-.23 2.53-3.99 2.47-5.48-.17-4.59-1.12-6.66-1.41-8.01-1.52-7.78-.66-9.93-4.99-17.48l-2.47-6.14c-.31-3.13-1.55-10.3-5.57-11.59-.69-.2-1.35-.26-2.38-.57-5.25-1.69-5.25-5.74-3.82-10.16 1.29-3.9299996 1.44-8.5499996-4.33-9.0399996-.17-.03-.34-.03-.52-.03-3.05.09-4.06 2.79-4.8 5.86"/>
</svg>