<svg fill="none" height="26.193501" viewBox="0 0 200 26.193501" width="200" xmlns="http://www.w3.org/2000/svg">
	<g fill="#1c59b5">
		<path d="m.001291 21.531 3.386289-3.7225c1.5918 2.2468 3.58897 3.2865 5.61971 3.2865 1.86161 0 2.97961-.9732 2.97961-2.5487s-1.0496-2.3146-3.89364-3.4872c-4.0292-1.5768-6.90683-3.353-6.90683-7.5462 0-4.19316 3.62254-7.5129 8.6329-7.5129 3.65607 0 6.22907 1.34145 8.09197 3.38752l-3.2507 3.95786c-1.0496-1.34145-2.5059-2.21359-4.401-2.21359-1.55699 0-2.67499.83889-2.67499 2.07932s1.2187 1.87854 4.16479 3.08569c4.2654 1.6433 6.6693 3.7226 6.6693 8.0155 0 4.7955-3.7917 7.8812-9.00604 7.8812-4.46943 0-7.65174-1.945-9.41266-4.6612z"/>
		<path d="m48.3233 25.7561-1.6589-4.7954h-9.3443l-1.7609 4.7954h-6.7041l10.4622-25.286801h5.6546l10.3267 25.286801h-6.974zm-9.2771-9.5244h5.9593l-1.2523-3.6216c-.5758-1.6764-1.1167-3.3197-1.6254-4.96294-.5422 1.64324-1.1167 3.28654-1.726 4.92974l-1.3543 3.6561z"/>
		<path d="m84.8817.469299h6.1284v25.286801h-5.0788l-12.7976-15.92988.102 15.92988h-6.162v-25.286801h5.2144l12.7976 15.828901-.2027-15.828901z"/>
		<path d="m106.39 25.7561v-25.286801h7.313c8.668 0 14.728 4.225131 14.728 12.643401 0 8.4183-5.959 12.6434-14.321 12.6434h-7.719zm6.264-5.4668h1.354c4.808 0 7.99-2.4821 7.99-7.1766 0-4.69443-2.709-7.00904-7.99-7.00904h-1.354z"/>
		<path d="m140.075 13.0795c0-7.47838 6.229-13.0462358 13.745-13.0462358s13.678 5.5333358 13.678 13.1127358-6.229 13.0462-13.78 13.0462-13.645-5.2648-13.645-13.1127zm20.956.0665c0-4.15864-3.08-7.37863-7.245-7.37863s-7.245 3.25324-7.245 7.34413c0 4.3261 3.284 7.3441 7.178 7.3441 4.165 0 7.314-3.119 7.314-7.3109z"/>
		<path d="m177.79 25.7561v-.0665l11.952-19.71894h-9.853v-5.501361h20.111v.066497l-11.85 19.619204h11.172v5.6011z"/>
	</g>
</svg>