<svg xml:space="preserve" id="Ebene_1" x="0" y="0" version="1.1" viewBox="0 0 1144.2834 294.17851" xmlns="http://www.w3.org/2000/svg">
	<style id="style1" type="text/css">
		.st0{fill:#7a00e6}
	</style>
	<path id="path1" d="m 467.15845,194.60052 c 0,-27.5 0,-54.9 0,-82.4 0,-1.8 -0.1,-3.6 0.2,-5.3 0.9,-6.6 4.3,-11.299999 10.8,-13.499999 20.7,-7.2 41.9,-12 63.8,-13.8 15.4,-1.3 30.8,-1.2 46.1,1.1 11.2,1.7 22,4.7 32,10 19.6,10.299999 30.5,26.799999 34.2,48.399999 1,5.6 1.3,11.2 1.3,16.8 0,41 0,81.9 0,122.9 0,0.8 0,1.6 0,2.4 -0.2,5.8 -2.8,8.6 -8.6,8.7 -12.2,0.1 -24.4,0.1 -36.6,0 -5.5,0 -8.2,-2.8 -8.6,-8.3 -0.1,-1.4 0,-2.9 0,-4.3 0,-37.3 0,-74.5 0,-111.8 0,-4.8 -0.3,-9.7 -1.8,-14.3 -4.1,-12.2 -13.2,-18.6 -25.2,-21.3 -9.9,-2.2 -19.8,-1.5 -29.8,-0.5 -4.6,0.4 -9.2,1.4 -13.7,2.5 -7.8,1.8 -10.1,4.8 -10.1,12.8 0,44.3 0,88.7 0,133 0,1.3 0,2.6 0,3.9 -0.2,5.4 -3,8.3 -8.5,8.4 -6.4,0.1 -12.9,0 -19.3,0 -5.6,0 -11.3,0.1 -16.9,0 -6.6,-0.1 -9.3,-2.9 -9.3,-9.5 0,-28.7 0,-57.3 0,-85.9 z"/>
	<path id="path2" d="m 159.05845,289.90052 c -6.1,0 -12.2,0.1 -18.3,0 -6.2,-0.1 -8.3,-2.9 -6.6,-9.1 1.2,-4.5 2.2,-9 2.3,-13.7 0.2,-11.9 -4.7,-21.1 -14.2,-27.9 -7,-5 -14.8,-8.4 -22.900002,-11 -13.4,-4.3 -27,-8.3 -40.4,-12.6 -10.9,-3.5 -21.3,-7.9 -30.8,-14.4 -16,-11 -23.9999999,-26.2 -24.8999999,-45.5 -1.7,-34.9 17.6999999,-60.599999 49.5999999,-71.999999 14.7,-5.2 30,-7 45.5,-6.6 24.700002,0.7 48.400002,5.6 70.800002,16.2 3.2,1.5 6.3,3.1 9.4,4.9 6.4,3.599999 8,8.099999 5.3,14.899999 -1,2.5 -2.2,5 -3.3,7.5 -3.1,6.5 -6.1,13.1 -9.3,19.6 -3.6,7.4 -9.4,9.4 -16.6,5.5 -12,-6.5 -24.4,-12.1 -37.8,-15.3 -13.1,-3.1 -26.300002,-4.4 -39.600002,-1.4 -4.1,0.9 -8,2.4 -11.5,4.8 -10.2,7.1 -10.6,19.5 -0.9,27.2 4.3,3.4 9.3,5.6 14.5,7.5 12.5,4.6 25.500002,7.7 38.200002,11.6 11.8,3.6 23.5,7.7 34.4,13.6 7.5,4.1 14.5,8.9 20.5,15 12.7,12.9 18.2,28.8 18.7,46.6 0.3,8 -0.4,16 -2.6,23.8 -0.3,1.2 -0.7,2.5 -1.1,3.7 -2,5.4 -4.4,7.1 -10.1,7.2 -6.1,0 -12.2,-0.1 -18.3,-0.1 z"/>
	<path id="path3" d="m 943.75845,180.10052 c 0,-31.8 -0.1,-63.6 0,-95.399999 0,-14.1 2.2,-27.8 7.8,-40.9 9.8,-22.7 27.6,-35.7000001 51.29995,-41.0000001 16.7,-3.7 33.5,-3.7 50.2,-0.2 0.3,0.1 0.6,0.1 0.9,0.2 8.2,1.9 10,4.6 8.4,13.0000001 -1.4,7.3 -2.7,14.5 -4.1,21.7 -1.4,7.5 -4,9.4 -11.7,8.3 -6,-0.8 -12.1,-1.9 -18.2,-1.8 -3.4,0.1 -6.8,0.5 -10,1.3 -12.2,2.9 -19.29995,11.8 -20.69995,25.3 -0.3,2.9 -0.4,5.8 -0.5,8.7 -0.1,3.4 -0.1,3.5 3.29995,3.5 9.2,0 18.3,0 27.5,0 6.8,0 13.5,0 20.3,0 7.3,0 9.8,2.6 9.9,9.9 0.1,8.699999 0.1,17.299999 0,25.999999 0,7.3 -2.6,9.7 -10,9.7 -15.3,0 -30.5,0 -45.8,0 -1.1,0 -2.2,0 -3.39995,0 -1.2,0 -1.7,0.6 -1.7,1.8 0,1.3 0,2.6 0,3.9 0,48 -0.1,96 0.1,144.1 0,8 -2,12 -11.6,11.7 -10.6,-0.3 -21.2,-0.3 -31.8,0 -7.4,0.2 -10.3,-4.1 -10.2,-10.2 0.1,-33.1 0,-66.4 0,-99.6 z"/>
	<path id="path4" d="m 1142.5584,186.30052 c 0,30.3 0,60.7 0,91 0,1 0,1.9 0,2.9 -0.1,7.2 -2.6,9.7 -10,9.7 -9.3,0 -18.6,0 -28,0 -2.6,0 -5.1,0.1 -7.7,0 -4.9,-0.2 -7.7,-2.8 -8.2,-7.7 -0.2,-1.4 -0.1,-2.9 -0.1,-4.3 0,-61 0,-122 0,-183.099999 0,-9.8 2.2,-11.9 11.8,-11.9 10.8,0 21.5,0 32.3,0 7.2,0 9.8,2.6 9.9,9.9 0,31.199999 0,62.299999 0,93.499999 z"/>
	<path id="path5" d="m 1144.2584,29.000521 c 0.1,13.7 -6.7,23.7 -18.6,27.1 -6.6,1.9 -13.3,1.8 -19.9,-0.1 -13.3,-3.9 -19.4,-15 -19,-28.9 0.1,-2.2 0.4,-4.5 0.9,-6.7 2.5,-10.3 8.9,-16.9000001 19.2,-19.3000001 6.8,-1.6 13.7,-1.3 20.4,1.1 10.5,3.8 15.6,11.7000001 16.9,22.5000001 0.2,1.4 0.1,2.9 0.1,4.3 z" class="st0"/>
	<path id="path6" d="m 57.558448,265.30052 c -0.2,3.1 -0.3,5.9 -1,8.8 -2.9,10.9 -10,17.3 -20.9,19.4 -5.7,1.1 -11.5,0.8 -17.1,-1 -8.8999999,-2.9 -14.8999999,-8.7 -17.2999999,-17.8 -1.80000003,-6.8 -1.70000003,-13.7 0.5,-20.4 2.9,-8.7 8.9999999,-14.2 17.8999999,-16.5 6.2,-1.6 12.4,-1.4 18.6,0.2 10.8,2.8 18.1,11.5 19.1,22.7 0.1,1.6 0.2,3.2 0.2,4.6 z" class="st0"/>
	<path id="path7" d="m 416.85845,109.20052 c -0.4,-7.7 -3.8,-13.099999 -11.4,-15.499999 -0.5,-0.1 -0.9,-0.3 -1.4,-0.5 -20,-7.4 -40.5,-12.2 -61.8,-13.8 -15.1,-1.1 -30.2,-1.2 -45,2.3 -36.5,8.6 -61.5,30.199999 -73.1,66.099999 -9,27.9 -8,56.1 1.3,83.7 6.9,20.6 19.7,36.9 38.7,48 15,8.8 31.4,13 48.5,14 19.7,1.2 39.1,-0.3 58.4,-4.7 12.1,-2.8 23.8,-6.6 35.2,-11.4 6.4,-2.7 9.9,-7.4 10.5,-14.3 0.1,-1.6 0.1,-3.2 0.1,-4.8 0,-24.2 0,-48.5 0,-72.7 0,-24.1 0,-48.2 0,-72.2 0,-1.3 0.1,-2.8 0,-4.2 z m -61.5,130.4 c -15.2,4.8 -30.8,6.8 -46.5,2.7 -15.6,-4.1 -26.2,-14.1 -31.4,-29.2 -6.1,-17.5 -6.2,-35.4 -0.1,-52.9 6.8,-19.4 21.3,-29.5 41.6,-31.3 10.8,-0.9 21.5,0.1 32,2.9 1.2,0.3 2.5,0.7 3.7,1.1 6.2,2.3 8.3,5.2 8.4,11.9 0.1,14 0,27.9 0,41.9 0,13.8 -0.1,27.6 0,41.4 0,5.8 -2.4,9.8 -7.7,11.5 z"/>
	<path id="path8" d="m 899.25845,152.20052 c -9.2,-32 -28.8,-54.799999 -60.2,-66.499999 -20,-7.4 -40.7,-8.8 -61.7,-5 -31.6,5.7 -55.5,22.499999 -69.7,51.399999 -15.8,32.2 -16.6,65.6 -4.2,99 10.7,28.9 31.5,47.9 60.7,57.5 17.5,5.7 35.6,6.9 53.8,4.2 32.5,-4.7 57.1,-21.2 72.7,-50.2 9.4,-17.5 13,-36.4 13.1,-60.3 -0.1,-7.5 -1.3,-18.9 -4.5,-30.1 z m -55.1,62.3 c -8.1,22.1 -27.4,31.5 -48.6,29.5 -5.5,-0.5 -10.8,-1.5 -15.9,-3.6 -12.3,-5.1 -20.6,-14.1 -25,-26.5 -6.5,-18.5 -6.5,-37.2 0.2,-55.6 7,-19.3 23.2,-30 43.8,-29.7 4.8,0.1 9.6,0.5 14.3,1.7 15.3,4 25.8,13.5 31.2,28.1 6.8,18.7 6.8,37.6 0,56.1 z"/>
</svg>