<svg fill-rule="evenodd" stroke-linejoin="round" stroke-miterlimit="2" clip-rule="evenodd" viewBox="0 0 141.8237 92.550308" xmlns="http://www.w3.org/2000/svg">
	<path fill="#fff" fill-rule="nonzero" d="m 108.4166,68.924616 -0.682,0.16 c 2.824,-8.186 13.218,-38.35 13.146,-38.492 l -8.758,-27.4319998 c 0,0 -4.49,-4.84 -22.380002,-0.256 -17.758,4.556 -32.95,14.5299998 -32.95,14.5299998 0,0 -1.406,0.852 -3.604,2.29 l -2.398,-2.18 c 0,0 -4.872,2.414 -10.048,6.222 -3.32,2.446 -5.424,4.908 -6.026,5.65 -0.444,0.274 -0.68,0.426 -0.68,0.426 l -11.642,15.594 -2.598,19.652 7.352,-6.172 -0.88,8.58 c 0,0 -5.146,23.794 1.876,24.626 0.862,0.102 1.832,0.192 2.91,0.258 l -0.01,0.02 c 0,0 3.208,0.184 5.518,0.144 2.31,-0.042 4.804,-0.186 4.804,-0.186 l 0.002,-0.032 c 7.36,-0.452 16.786,-1.816 27.942,-4.896 9.23,-2.548 18.026,-6.252 24.8,-9.486 l 0.04,0.106 c 0,0 1.814,-0.732 6.888002,-3.472 5.028,-2.714 6.5,-3.742 8.052,-4.668 1.554,-0.924 -0.674,-0.986 -0.674,-0.986"/>
	<path fill="#0059a3" fill-rule="nonzero" d="m 36.712598,88.127616 c -9.442,-0.274 -16.728,-3.25 -20.288,-9.12 -5.946,-9.808 -0.008,-25.212 13.762,-40.098 0.482,-3.42 2.138,-6.57 4.496,-9.514 -24.652,14.884 -38.904,34.046 -33.568,47.954 3.518,9.168 14.866,14.274 30.268,15.078 a 54.908,54.908 0 0 0 5.33,-4.3"/>
	<path fill="#0059a3" fill-rule="nonzero" d="m 69.374944,81.229761 c -7.772319,3.122615 -15.286252,5.211987 -22.137147,6.220053 a 61.667999,61.667999 0 0 1 -6.096802,4.935764 C 50.088483,91.888841 59.96293,90.16781 70.202948,87.184095 a 119.67,119.67 0 0 1 -0.828004,-5.954334"/>
	<path fill="#0059a3" fill-rule="nonzero" d="m 94.491598,67.869616 a 140.408,140.408 0 0 1 -14.682,8.608 c -0.302,3.058 -0.674,5.76 -1.1,7.966 a 161.304,161.304 0 0 0 16.436,-6.846 209.088,209.088 0 0 1 -0.654,-9.728"/>
	<path fill="#0059a3" fill-rule="nonzero" d="m 140.70957,23.147593 c -1.51408,-3.942989 -4.48002,-7.138255 -8.59021,-9.557203 2.89382,12.064705 -7.19561,29.571256 -25.32032,44.994221 a 203.95,203.95 0 0 1 -0.44524,12.99684 c 25.13857,-14.950706 39.7463,-34.375834 34.35577,-48.433858"/>
	<path fill="#bcd4f0" fill-rule="nonzero" d="m 77.469598,11.738616 c 6.56,-1.626 12.922,-2.7239998 18.924,-3.2999998 v -0.264 l 7.220002,-4.342 v 4.16 c 11.74,-0.306 21.698,1.588 28.506,5.5979998 a 15.362,15.362 0 0 0 -1.81,-4.4359998 c -7.046,-11.632 -28.684,-11.946 -52.840002,-2.268 z"/>
	<path fill="#bcd4f0" fill-rule="nonzero" d="m 70.251598,10.050616 a 139.46,139.46 0 0 0 -13.182,7.142 c -1.334,0.818 -2.632,1.658 -3.914,2.506 l 0.202,0.174 a 165.244,165.244 0 0 1 5.096,-2.09 161.166,161.166 0 0 1 11.798,-4.06 z"/>
	<path fill="#89b4e1" fill-rule="nonzero" d="M 37.249554,56.049677 C 31.31179,49.604865 29.469585,43.96164 30.184983,38.910305 16.414036,53.796456 10.478268,69.198722 16.424093,79.007295 19.982129,84.878458 27.267287,87.85244 36.711915,88.12735 48.47615,77.245361 47.00678,66.639694 37.249554,56.049677"/>
	<path fill="#89b4e1" fill-rule="nonzero" d="m 132.1196,13.590616 c -6.808,-4.0099998 -16.764,-5.9039998 -28.506,-5.5979998 v 8.5659998 l -7.218002,4.342 V 8.4386162 c -6.004,0.576 -12.366,1.6719998 -18.926,3.2999998 v 4.82 l -7.218,4.342 v -7.178 a 160.224,160.224 0 0 0 -11.798,4.06 c -1.728,0.672 -3.422,1.374 -5.096,2.09 l 2.316,1.998 c -11.87,6.808 -18.938,15.274 -5.1,29.754 11.434,11.966 8.538,24.822 -3.336,35.826 6.852,-1.01 14.366,-3.098 22.138,-6.22 -1.946,-16.918 -1.676,-40.7 0.876,-52.206 l 7.218,-4.342 c 3.624,14.518 3.786,37.176 2.34,51.796 a 141.62,141.62 0 0 0 9.858,-5.51 145.458,145.458 0 0 0 4.824,-3.098 c -0.648,-14.454 -0.024,-30.154 1.904,-38.846 l 7.218002,-4.342 c 2.338,9.362 3.232,22.11 3.188,33.904 18.122,-15.426 28.212,-32.932 25.318,-44.996"/>
</svg>