<svg viewBox="0 0 355.78243 70.019661" xmlns="http://www.w3.org/2000/svg">
	<g fill="#234086">
		<g fill-rule="evenodd">
			<path d="m36.601538.03885521c6.7-.3 14.7 1.09999999 16.2 5.49999999 2.4 7.2999998-9.9 17.8999998-20.7 23.0999998-2.6 1.3-4.2 1.6-4.9 1.5s-.7-.6-.5-1a17.1 17.1 0 014.5-4.1c12-8.8 16-15.2999998 13.7-17.8999998s-7.6-2.8-14-2.8c-1.7 0-6.2.4-6.7-1.1s5.7-2.89999999 12.4-3.19999999z"/>
			<path d="m21.601538 33.238855c5.6-.3 12.3.6 16.2 3.2a5.7 5.7 0 012.4 6.4c-2.2 7.8-10.4 17.2-28.7 24.4-5.7999996 2.3-10.2999996 3.2-11.29999955 2.6-1-.6 1.99999995-5.8 2.89999995-7.5a128.6 128.6 0 0110.0999996-15.8c1.3-1.8 3.3-5 5.1-4.7s-.2 3.6-1.5 5.7-7.9999996 13.4-6 14c4.2 1.3 24.2-12.3 21.2-19.9-1.3-3.5-10-3.8-15.4-3.8-2.5 0-7.9999996.5-8.2999996-1.2s8.2999996-3.1 13.2999996-3.4z"/>
			<path d="m65.101538 24.038855c3.4.6 6.2 1 6.8 2.3s-3 1.5-4.8 1.6c-8.9.1-14.3.3-14.6 3s3.8 7.1 8 12 8 9 6.7 13.2-8.6 6.3-15.3 6.3a84.9 84.9 0 01-15-1.4c-3.2-.5-2.8-2-1.9-2.4s6.4-.6 10.1-.8 12.1-.1 13.5-2.2-2.5-6.9-6.3-11.5-10.2-11.6-7.4-15.9 14.3-5.2 20.2-4.2z"/>
		</g>
		<path d="m146.10154 31.138855h-6.9l-6.6 31.4h8.1l6.4-30.3a.9.9 0 00-1-1.1z"/>
		<path d="m340.20154 30.438855c-11.2 0-19 3.9-21.3 14.8l-3.4 15.9c-.2 1 .5 1.4 1.4 1.4h6.5l1.7-8.2h20.2l-1.8 8.2h6.5a1.8 1.8 0 001.9-1.4l3.4-15.9c2.3-10.9-3.8-14.8-15.1-14.8zm7.2 13.9-1.1 4.9h-20.1l1-4.9c1.2-5.7 4.8-8.3 11.8-8.3s9.6 2.6 8.4 8.3z"/>
		<path d="m95.801538 37.138855c-1 4.4 2.8 6.5 10.400002 10.8 7.6 4.3 10.3 5.1 9.5 7.6s-2.8 2.1-6.6 2.1h-14.900002a2.6 2.6 0 00-2.9 2.1l-.6 2.8h18.800002c8.6 0 13.9-.5 15.9-5.3a6.1 6.1 0 00-1.4-7.2 20.2 20.2 0 00-5.3-3.5c-10.7-5.6-13.6-6.2-12.9-8.9s1.6-1.6 5.6-1.6h12.6c1.7 0 2.7-.6 3-2l.6-2.9h-16c-9 0-14.400002 0-15.800002 6z"/>
		<path d="m290.00154 57.638855h-18.4l5.4-25.5c.1-.5-.3-1-1-1h-7.4l-6.6 31.4h29l.6-3c.3-1.4-.2-1.9-1.6-1.9z"/>
		<path d="m311.00154 31.138855h-6.8l-6.7 31.4h8.1l6.4-30.3a.9.9 0 00-1-1.1z"/>
		<path d="m196.80154 29.838855a8.9 8.9 0 00-8.8 5.9c-3.6 8.3-4.7 11.5-5.2 12.6s-.6 1.5-1.3 1.5-.8-.5-1.2-1.5-1.7-4.3-5.2-12.6a8.9 8.9 0 00-8.8-5.9c-5.5 0-8.7 3-10.1 8.3l-5.3 24.4h6.8a2.8 2.8 0 002.9-2.5s3.9-18.9 4.3-20.6.7-3.4 2-3.4 1.6 1.1 2.6 3.7c.4.9 1.3 3.1 3.3 8.4s4.1 8.4 8.7 8.4 6.8-3.1 8.8-8.4 2.9-7.5 3.2-8.4c1.1-2.6 1.4-3.7 2.7-3.7s1.6 1.7 2 3.4 4.3 20.6 4.3 20.6a2.7 2.7 0 002.8 2.5h6.9l-5.3-24.4c-1.4-5.3-4.7-8.3-10.1-8.3z"/>
		<path d="m257.00154 31.138855h-6.8l-1.9 9.2-1.1 4.9-.9 4.2c-1.2 5.8-5.3 8.4-12.3 8.4s-9.6-2.5-8.4-8.4l.4-1.9 1.5-7.2 1.9-9.2h-6.8a1.8 1.8 0 00-2 1.4l-3.3 16c-2.3 11.2 3.8 14.6 15.9 14.6 14.1 0 19.6-4.4 21.8-14.6l3.4-16c.2-1.1-.5-1.4-1.4-1.4z"/>
	</g>
</svg>