<svg xml:space="preserve" id="layer" x="0" y="0" version="1.1" viewBox="0 0 600.01428 208.6508" xmlns="http://www.w3.org/2000/svg">
	<style id="style1" type="text/css">
		.st0{fill:#e41b23}.st1{fill:#fff}
	</style>
	<g id="sioux_x5F_logo_x5F_fullcolor" transform="translate(-21.299999 -216.5492)">
		<g id="g13">
			<g id="g12">
				<path id="path1" d="m 30.8,398.6 h -9.5 v -5.9 h 26 v 5.9 h -9.5 v 25.6 h -6.9 v -25.6 z"/>
				<path id="path2" d="m 54.8,392.7 h 23.7 v 5.9 H 61.7 v 6.9 h 15.4 v 5.3 H 61.7 v 7.9 h 17.1 v 5.9 h -24 z"/>
				<path id="path3" d="m 108,403.2 c -0.3,-3.3 -3.6,-5.6 -6.9,-5.6 -6.2,0 -8.5,5.3 -8.5,10.8 0,5.3 2.3,10.5 8.5,10.5 4.3,0 6.6,-3 7.2,-7.2 h 6.6 c -0.7,7.9 -6.2,12.8 -13.8,12.8 -9.9,0 -15.4,-7.2 -15.4,-16.4 0,-9.5 5.9,-16.8 15.4,-16.8 6.9,0 12.8,3.9 13.5,11.5 H 108 Z"/>
				<path id="path4" d="m 122.8,392.7 h 6.9 v 12.2 h 12.8 v -12.2 h 6.9 v 31.5 h -6.9 v -13.5 h -12.8 v 13.5 h -6.9 z"/>
				<path id="path5" d="m 160,392.7 h 6.9 l 13.1,21 v 0 -21 h 6.6 v 31.5 h -6.9 l -13.1,-21 v 0 21 H 160 Z"/>
				<path id="path6" d="m 209.9,392 c 9.9,0 15.4,7.2 15.4,16.8 0,9.2 -5.6,16.4 -15.4,16.4 -9.9,0 -15.4,-7.2 -15.4,-16.4 -0.1,-9.5 5.5,-16.8 15.4,-16.8 z m 0,27 c 6.2,0 8.5,-5.3 8.5,-10.5 0,-5.6 -2.3,-10.8 -8.5,-10.8 -6.2,0 -8.5,5.3 -8.5,10.8 -0.1,5.2 2.2,10.5 8.5,10.5 z"/>
				<path id="path7" d="m 233.5,392.7 h 6.9 v 25.6 h 15.4 v 5.9 h -22.3 z"/>
				<path id="path8" d="m 275.9,392 c 9.9,0 15.4,7.2 15.4,16.8 0,9.2 -5.6,16.4 -15.4,16.4 -9.9,0 -15.4,-7.2 -15.4,-16.4 -0.3,-9.5 5.6,-16.8 15.4,-16.8 z m 0,27 c 6.2,0 8.5,-5.3 8.5,-10.5 0,-5.6 -2.3,-10.8 -8.5,-10.8 -6.2,0 -8.5,5.3 -8.5,10.8 0,5.2 2.3,10.5 8.5,10.5 z"/>
				<path id="path9" d="m 321.6,420.6 c -2.3,3.3 -5.6,4.3 -8.5,4.3 -9.9,0 -15.4,-7.2 -15.4,-16.4 0,-9.5 5.6,-16.8 15.4,-16.8 6.6,0 12.5,3.9 13.1,11.2 h -6.6 c -0.7,-3.6 -3.3,-5.3 -6.6,-5.3 -6.2,0 -8.5,5.3 -8.5,10.8 0,5.3 2.3,10.5 8.5,10.5 4.6,0 7.2,-2.3 7.6,-6.9 h -6.9 v -5.3 h 13.1 v 17.1 h -4.3 z"/>
				<path id="path10" d="m 335.4,392.7 h 6.9 v 31.5 h -6.9 z"/>
				<path id="path11" d="m 351.2,392.7 h 23.7 v 5.9 h -16.8 v 6.9 h 15.1 v 5.3 h -15.4 v 7.9 h 17.1 v 5.9 h -24 v -31.9 z"/>
				<path id="path12" d="m 388,413.7 c 0,4.3 3.3,5.9 6.9,5.9 2.3,0 6.2,-0.7 6.2,-3.9 0,-3.2 -4.6,-3.9 -9.5,-5.3 -4.6,-1.3 -9.5,-3 -9.5,-8.9 0,-6.6 6.2,-9.5 11.8,-9.5 6.6,0 12.8,3 12.8,10.2 h -6.6 c -0.3,-3.9 -3,-4.9 -6.2,-4.9 -2.3,0 -4.9,1 -4.9,3.6 0,2.3 1.6,2.6 9.5,4.9 2.3,0.7 9.5,2 9.5,9.2 0,5.9 -4.6,10.2 -13.1,10.2 -6.9,0 -13.5,-3.6 -13.5,-11.2 h 6.6 z"/>
			</g>
		</g>
		<g id="g15">
			<path id="path13" d="m 555.2,390.1 c 2,0.7 5.6,1.6 7.2,-0.7 4.6,-9.2 -6.9,-14.1 -10.8,-20.4 -2,-3.3 -4.6,-6.2 -4.3,-10.2 1.3,-5.3 6.6,-7.9 10.8,-9.5 9.2,-2.6 9.2,7.6 14.5,12.2 4.6,2 6.9,7.2 12.8,6.9 3,0.3 5.3,-1.3 6.2,-3.6 1.6,-7.2 -3.9,-10.5 -8.9,-14.1 -6.2,-4.6 -13.5,-7.9 -16.8,-15.1 1.6,-2 0.3,-5.6 3.6,-6.6 6.9,-1.3 11.5,4.3 18.7,2.6 6.2,-0.3 10.5,-3.9 12.8,-9.5 -2.3,-10.2 -11.8,-2 -17.7,-6.9 -3.9,-3.9 -11.2,-4.6 -12.2,-10.8 3.6,-3.9 9.9,-3.9 12.5,-9.5 0.7,-3 0.3,-6.9 -1.6,-8.9 -5.6,-1.6 -9.2,1.6 -14.5,1.6 -1.3,1.6 -3.9,2.3 -6.6,2.3 -1.6,-1.6 -4.6,-3 -4.9,-5.6 3.9,-5.6 8.9,-7.9 11.5,-14.1 0.7,-4.3 2,-9.9 -2.3,-12.2 -14.1,-1.6 -12.5,15.4 -25.3,16.4 -2,-0.7 -3.3,-2.3 -4.3,-3.9 -2,-8.5 1.3,-16.4 -0.3,-24.6 -1,-2 -3.3,-4.3 -5.6,-4.3 -1.6,0.7 -3.3,1.3 -3.9,3 -2.6,7.2 2,17.1 -3.9,23.3 -0.7,0.3 -1,0.7 -1.6,1 -2,1 -3.9,1.3 -5.9,0.7 -2,-1.3 -4.3,-1.6 -5.3,-4.3 -0.7,-7.9 -6.6,-13.5 -10.2,-20 -1.3,-1.6 -3,0 -3.9,1 -4.3,8.5 -1.3,19.4 1,27.9 -0.3,0.7 -0.3,2.3 -1.6,1.6 -7.9,-5.6 -15.1,-11.2 -23,-16.1 l -0.3,-1.6 c 6.2,-11.2 16.1,-21.4 26.9,-26.6 6.9,-1.6 16.4,1.6 22.3,-1.3 2,-0.7 3.6,-2.3 4.6,-4.6 1,-2.3 0.7,-5.6 -1,-6.9 -1.3,-0.7 -2.6,-1 -3.9,-1.3 -5.9,-1.6 -13.1,-0.7 -18.1,0.7 -18.4,3.6 -32.5,17.7 -44.7,31.5 -8.5,10.8 -15.8,22.7 -21,34.8 -5.9,16.1 -8.2,36.1 -3.9,53.5 2,8.5 5.9,15.8 7.6,24.6 3.6,5.6 2.6,14.8 10.8,16.1 2.3,1.3 3.9,-0.7 5.9,-1.6 -1,-10.2 -5.6,-19.4 -7.2,-29.6 -0.3,-3 -3.9,-6.2 -1,-8.5 14.5,5.6 30.2,1 45.7,0.7 2.6,0.7 3,3.6 4.3,5.6 0,14.1 -15.1,16.8 -23.3,25.3 -3.6,8.5 -11.2,13.1 -16.8,19.4 l -0.3,3.6 c 2,2 3.9,4.9 6.9,3.6 11.5,-6.6 16.4,-20.7 28.3,-27.9 1.6,-1.3 2.3,-4.3 4.3,-4.6 0.7,0.3 0.7,1 0.7,1.6 -5.6,6.2 -8.9,13.5 -12.5,20.7 -2.3,6.6 -8.5,10.8 -8.2,18.1 2.6,1.6 6.6,4.3 10.5,2.3 3.3,-2.3 2,-6.9 3.6,-10.2 6.2,-11.8 9.5,-25.3 17.4,-36.5 2.3,-1.3 3.9,-2.6 6.6,-1.3 2.3,1.6 4.3,3.9 4.3,6.9 -1.3,10.5 -4.3,20.7 -6.9,30.6 -0.3,3.6 -3.6,8.9 0.7,11.5 2,1 4.3,1 6.2,0 0.3,-0.7 0.7,-1 0.7,-1.6 4.3,-9.2 4.9,-19.7 8.5,-28.9 1.3,-4.3 -3.3,-11.8 3,-13.8 3,-1 5.6,0.3 7.6,2.3 7.3,6.7 7.6,17.9 15.5,23.8 m -66.7,-95 c 0,2.3 -2.3,2.6 -3.6,3.6 -10.2,1 -20.7,-4.9 -30.2,0.3 -2.6,1.6 -2.6,4.9 -2.6,7.6 5.9,10.2 20,12.2 30.9,10.8 1.3,0 3,1 3.3,2.3 0,2.3 1.3,4.6 -1.3,6.2 -3.9,2 -7.9,1.3 -12.5,1.6 -9.5,0.7 -21,3.9 -26.9,-5.3 -4.6,-16.4 1.6,-33.2 12.2,-45.3 1.6,-2.6 3.6,-6.2 7.2,-7.6 6.2,7.6 12.8,13.1 20.7,19.1 2.1,1.5 3.1,4.1 2.8,6.7 m 32.8,54.9 c -0.7,-0.3 -1,-0.7 -1.6,-1 -8.9,-4.3 -14.8,-14.1 -20.4,-22.3 -5.6,-8.5 -4.3,-20 1.3,-27.9 4.3,-6.6 11.5,-10.5 19.1,-12.2 2,-0.3 4.3,-0.7 6.2,-0.7 15.1,-1.6 24.6,9.2 32.9,18.7 3.6,7.9 3.9,19.7 -0.3,26.9 -2.6,3.6 -5.9,7.2 -9.5,9.5 -7.3,8 -17.2,11.3 -27.7,9" class="st0"/>
			<path id="path14" d="m 620.2,318.5 c -0.3,-8.5 -5.3,-15.1 -7.6,-22.7 -2.6,-3.6 -4.6,-8.5 -7.2,-12.5 -1.6,-1.6 -3.3,-1 -5.3,-0.3 v 9.9 c 1,3.3 1.6,6.6 2.6,9.5 3.3,5.9 5.9,11.5 7.2,18.4 3.3,18.4 -5.9,32.2 -13.5,46.3 -8.2,18.4 -25.3,33.8 -38.1,46.7 -2.6,1.6 -6.9,2.3 -6.9,6.2 0.3,2.6 1.3,3.6 3.6,4.9 3,0.3 5.9,-0.7 8.5,-1.6 4.9,-3.6 12.2,-3.6 14.8,-10.2 13.5,-13.1 24,-30.6 32.2,-47.3 9.7,-13.8 12.7,-30.3 9.7,-47.3" class="st0"/>
			<path id="path15" d="m 559.4,248.2 c 5.6,0.3 14.5,3 17.7,-2 1,-3 -0.3,-5.9 -2,-7.9 -6.6,-2 -10.8,-9.2 -19.1,-6.2 -2,2.3 -4.9,4.9 -4.3,9.2 0.8,3.2 4.1,5.9 7.7,6.9" class="st0"/>
		</g>
		<path id="rect15" d="M21.299999 225.2H407.599989V371.09999H21.299999z"/>
		<g id="g20">
			<path id="path16" d="m 130.1,244.9 h 15.1 V 351 h -15.1 z" class="st1"/>
			<path id="path17" d="m 172.4,270.2 c 0,-17.4 13.1,-26 25.6,-26 12.5,0 25.6,8.5 25.6,26 v 56.2 c 0,17.4 -13.1,26 -25.6,26 -12.5,0 -25.6,-8.5 -25.6,-26 z m 15.5,55.8 c 0,7.2 4.9,10.8 10.2,10.8 5.3,0 10.2,-3.3 10.2,-10.8 v -56.2 c 0,-7.2 -4.9,-10.8 -10.2,-10.8 -5.3,0 -10.2,3.3 -10.2,10.8 z" class="st1"/>
			<path id="path18" d="m 301.2,327.3 c 0,13.8 -11.2,24.6 -24.6,24.6 -13.5,0 -24.6,-10.8 -24.6,-24.6 v -82.1 h 15.1 V 326 c 0,7.6 3.9,11.2 9.5,11.2 5.3,0 9.5,-3.6 9.5,-11.2 v -81.1 h 15.1 z" class="st1"/>
			<path id="path19" d="M 343.6,295.5 323.9,244.9 H 340 l 11.5,31.5 11.5,-31.5 h 16.1 l -20.4,50.6 22,55.5 H 364.6 L 351.5,315.2 338.3,351 h -16.1 z" class="st1"/>
			<path id="path20" d="m 87,291.8 -11.5,-4.6 c -7.9,-3.3 -8.5,-5.9 -8.5,-14.1 0,-6.9 2,-13.8 10.2,-13.8 7.9,0 10.8,5.9 10.8,12.8 v 3.3 l 15.1,-2.6 v -4.9 c 0,-11.8 -10.2,-24 -25.3,-24 -17.4,0 -26,12.8 -26,28.9 0,13.1 3.3,22 16.4,27.3 l 10.8,4.6 c 7.6,3 8.9,4.9 8.9,16.1 0,9.5 -0.7,15.8 -11.2,15.8 -7.9,0 -10.8,-5.3 -10.8,-10.8 v -4.6 l -15.1,2.6 v 3 c 0,14.5 11.2,25.3 26,25.3 19.7,0 26.3,-13.1 26.3,-31.2 -0.3,-15.6 -2.9,-24.1 -16.1,-29.1 z" class="st1"/>
		</g>
	</g>
</svg>