<svg viewBox="0 0 733.79774 546.96435" xmlns="http://www.w3.org/2000/svg">
	<g fill="#231f20" fill-rule="evenodd">
		<path d="m187.7344 591.02871c-21.087-23.883-38.55-59.944-35.179-105.536 3.146-42.544 23.047-71.676 47.356-94.261 24.096-22.387 60.927-38.424 105.086-35.63 40.939 2.589 73.108 22.437 94.712 46.905 21.793 24.681 39.16 59.26 35.629 105.085-3.285 42.643-21.897 73.247-46.454 95.163-23.741 21.188-59.826 39.239-105.987 35.63-43.296-3.385-73.826-23.189-95.163-47.356m97.418 61.789c50.346 2.976 88.661-17.244 115.008-41.043 26.321-23.777 46.548-59.246 49.611-105.987 3.337-50.939-16.865-87.484-41.042-114.105-24.382-26.849-58.248-47.762-105.086-50.514-48.737-2.863-88.641 16.316-115.007 41.042-26.466 24.82-48.094 57.934-50.513 105.086-2.623 51.119 16.857 89.533 40.59 115.458 17.787 19.429 42.131 35.818 72.162 44.65 10.588 3.115 23.047 4.749 34.277 5.413" transform="matrix(1.3333333 0 0 -1.3333333 -40.896746 870.81261)"/>
		<path d="m289.2119 427.31191c31.8-.513 44.397 37.374 25.257 57.729-20.904 22.23-65.481 7.421-59.083-30.668-10.728 30.355 8.296 58.515 35.63 61.337 29.828 3.08 50.964-18.549 50.964-44.65 0-26.218-22.855-49.512-52.768-43.748" transform="matrix(1.3333333 0 0 -1.3333333 -40.896746 870.81261)"/>
		<path d="m572.4463 288.40131c8.652.774 9.107 18.44-3.157 14.883-8.263-2.397-5.356-15.647 3.157-14.883m-3.607 16.236c6.017 1.618 11.952-1.314 12.176-8.118.375-11.347-18.298-12.298-18.492-.451-.063 3.883 1.081 7.161 6.316 8.569" transform="matrix(1.3333333 0 0 -1.3333333 -40.896746 870.81261)"/>
		<path d="m31.6846 304.18641h18.041v-22.1c0-5.97-1.428-16.655 1.803-20.296 2.545-2.865 10.89-2.254 16.688-2.254 5.107 0 13.98-1.099 17.138 1.804 3.458 3.179 2.255 13.296 2.255 20.295v22.551h18.492v-60.436c-25.169 3.793-64.065-9.128-73.064 10.825-5.274 11.693.218 31.633-1.804 48.257-.039.641-.074 1.278.451 1.354" transform="matrix(1.3333333 0 0 -1.3333333 -40.896746 870.81261)"/>
		<path d="m139.4761 268.10541c-1.047-2.411-.155-6.761-.451-9.923 12.431.799 28.121-1.661 38.336 1.354 1.03 1.863.894 3.963.451 6.314-8.758 4.773-25.96 1.101-38.336 2.255m0 22.1c-1.046-2.261-.155-6.46-.451-9.472 11.916.562 26.105-1.149 36.532.902 1.006 1.47 1.258 4.829.451 6.766-8.91 3.868-24.712.846-36.532 1.804m-18.041 13.981c14.805-.865 38.261 1.124 55.024 0 5.706-.383 12.01-1.717 14.883-4.511 4.925-4.788 6.299-22.895-4.059-24.354 11.225-1.531 12.478-20.4 6.315-27.061-2.137-2.307-7.382-4.061-11.727-4.509-18.34-1.894-45.365 1.096-61.337.451v58.631c-.02.771.335 1.168.901 1.353" transform="matrix(1.3333333 0 0 -1.3333333 -40.896746 870.81261)"/>
		<path d="m226.9717 304.18641v-60.436h-18.491c.301 19.996-.601 41.192.451 60.436z" transform="matrix(1.3333333 0 0 -1.3333333 -40.896746 870.81261)"/>
		<path d="m241.8555 304.18641c15.194-1.07 40.818 1.396 56.827 0 9.364-.816 16.075-5.535 14.433-17.59-4.634.913-11.072-1.227-14.884 0-2.574.829-1.606 3.087-4.059 3.609h-34.728c-2.963-11.732 11.505-9.021 21.649-9.021 12.893 0 27.203 2.077 32.022-4.51 4.634-6.335 3.019-24.472-.903-28.414-6.339-6.373-20.606-4.51-35.629-4.51-20.687 0-39.645-2.043-35.63 18.04h15.785c1.705-.25.518-3.39 2.255-3.608 12.05.279 25.227-.571 36.532.452 1.654 1.502 1.806 4.509 1.805 7.666-15.386 3.355-34.189-3.351-46.906 1.354-11.575 4.282-8.837 19.35-9.02 35.178-.039.641-.074 1.278.451 1.354" transform="matrix(1.3333333 0 0 -1.3333333 -40.896746 870.81261)"/>
		<path d="m344.6855 285.69521c-3.659-4.862-3.094-22.434 1.804-25.257 3.263-1.882 13.391-.902 18.492-.902 4.914 0 14.902-.981 18.04 1.805 5.268 4.675.687 18.35 2.255 27.51-11.077-2.394-34.842 4.48-40.591-3.156m59.083 18.491c-2.083-14.084 3.715-41.831-2.256-51.866-6.743-11.337-35.1-9.845-54.121-8.569-7.823.524-17.128 2.894-20.295 8.569-4.947 8.86-4.734 37.903 1.353 45.101 12.082 14.285 51.322 3.138 75.319 6.765" transform="matrix(1.3333333 0 0 -1.3333333 -40.896746 870.81261)"/>
		<path d="m479.9893 303.73531v-14.884h-43.298c-1.046-2.411-.154-6.761-.45-9.922h41.492v-15.334c-12.786-.751-28.706-.751-41.492 0-.287-6.478.583-14.114-.452-19.844h-18.04c.302 19.995-.601 41.191.451 60.435 20.447-.299 42.092.6 61.789-.451" transform="matrix(1.3333333 0 0 -1.3333333 -40.896746 870.81261)"/>
		<path d="m556.21 304.18641v-15.335h-25.258c-1.052-14.131-.149-30.217-.45-45.101h-18.491v44.651c-7.668 1.051-17.288.15-25.708.45.299 4.964-.598 11.123.451 15.335z" transform="matrix(1.3333333 0 0 -1.3333333 -40.896746 870.81261)"/>
		<path d="m569.2891 296.51941c1.742-.089 3.323-.017 4.51.45v2.706h-4.51zm-1.804 4.961c2.851-.156 6.553.54 8.117-.902.073-3.793-.428-5.636-.45-9.472-2.487-.533-.638 3.271-2.256 3.608h-3.156c-1.304-.2.401-3.407-.901-3.608-2.964.946-.593 7.226-1.354 10.374" transform="matrix(1.3333333 0 0 -1.3333333 -40.896746 870.81261)"/>
		<path d="m183.2236 453.01941c-19.669 40.598-4.794 91.728 15.334 117.714 21.65 27.948 56.166 49.643 103.733 46.454 42.458-2.847 75.639-28.03 94.262-56.828 9.73-15.046 17.018-33.81 18.49-56.827 1.506-23.52-4.134-43.998-13.53-61.788-16.963-32.122-46.539-56.489-88.849-62.24-47.714-6.485-84.995 13.085-102.378 46.004-9.021 17.081-14.498 40.218-8.57 61.788 9.442 34.358 45.919 64.733 92.006 54.121 19.689-4.534 33.823-15.559 45.101-30.217-9.219 8.622-26.289 17.694-45.101 16.687-33.206-1.778-58.619-29.788-55.474-64.946 1.474-16.486 10.665-30.08 20.295-38.335 10.203-8.747 25.069-15.621 44.2-14.433 32.419 2.014 54.435 27.584 56.826 60.435 2.191 30.099-9.038 53.237-24.354 68.554-15.257 15.256-38.515 26.593-66.75 25.708-28.49-.893-48.568-12.845-63.592-28.865-17.06-18.192-29.738-48.875-21.649-82.986" transform="matrix(1.3333333 0 0 -1.3333333 -40.896746 870.81261)"/>
		<path d="m275.6812 481.88421c-11.963-9.81-6.332-33 11.275-32.923 15.509.066 24.509 20.587 11.726 31.57 19.937-9.723 11.97-43.611-11.726-43.748-13.154-.076-25.921 9.916-23.903 27.06 1.032 8.779 6.307 13.658 12.628 18.041" transform="matrix(1.3333333 0 0 -1.3333333 -40.896746 870.81261)"/>
	</g>
</svg>