<svg viewBox="0 0 44.063999 43.057049" xmlns="http://www.w3.org/2000/svg">
	<path fill="#bcbcb6" d="m 22.032,7.56 c 3.888,0 7.344,1.584 9.864,4.104 2.592,2.52 4.104,6.048 4.104,9.936 0,3.815 -1.512,7.344 -4.104,9.863 -2.521,2.521 -5.977,4.104 -9.864,4.104 -3.888,0 -7.344,-1.584 -9.936,-4.104 -2.521,-2.52 -4.104,-6.048 -4.104,-9.863 0,-3.889 1.584,-7.416 4.104,-9.937 2.592,-2.519 6.048,-4.103 9.936,-4.103 z m 0,0.216 a 13.77,13.77 0 0 0 -9.72,4.032 c -2.521,2.52 -4.104,5.976 -4.104,9.792 0,3.815 1.584,7.271 4.104,9.72 2.448,2.52 5.903,4.032 9.72,4.032 3.816,0 7.272,-1.513 9.72,-4.032 2.521,-2.448 4.032,-5.904 4.032,-9.72 0,-3.816 -1.512,-7.272 -4.032,-9.792 a 13.768,13.768 0 0 0 -9.72,-4.032 z"/>
	<radialGradient id="a" cx="-1039.188" cy="1145.92" r="44.665001" gradientTransform="matrix(1 0 0 -1 1045.93 1163.232)" gradientUnits="userSpaceOnUse">
		<stop offset="0" stop-color="#fff"/>
		<stop offset=".041" stop-color="#fafaf8"/>
		<stop offset=".225" stop-color="#f8f8f5"/>
		<stop offset=".287" stop-color="#dadad7"/>
		<stop offset=".413" stop-color="#a3a4a1"/>
		<stop offset=".52" stop-color="#7e7f7d"/>
		<stop offset=".6" stop-color="#686866"/>
		<stop offset=".646" stop-color="#5f5f5d"/>
		<stop offset=".739" stop-color="#565754"/>
		<stop offset=".899" stop-color="#3b3a37"/>
		<stop offset="1"/>
	</radialGradient>
	<path fill="url(#a)" d="m 22.032,0.144 c 4.896,0 9.432,1.655 13.032,4.392 L 37.44,2.16 41.616,6.336 39.24,8.784 c 2.664,3.6 4.176,7.992 4.176,12.744 0,11.808 -9.576,21.456 -21.384,21.456 -11.808,0 -21.384,-9.648 -21.384,-21.456 0,-11.809 9.576,-21.384 21.384,-21.384 z m 0,5.04 c -9,0 -16.344,7.344 -16.344,16.344 0,9.072 7.344,16.344 16.344,16.344 9,0 16.344,-7.272 16.344,-16.344 0,-9 -7.344,-16.344 -16.344,-16.344 z"/>
	<linearGradient id="b" x1="-1032.338" x2="-1016.324" y1="1144.546" y2="1139.032" gradientTransform="matrix(1 0 0 -1 1045.93 1163.232)" gradientUnits="userSpaceOnUse">
		<stop offset="0" stop-color="#dcdbd3"/>
		<stop offset="1" stop-color="#fff"/>
	</linearGradient>
	<path fill="url(#b)" d="m 22.032,5.112 c 4.536,0 8.64,1.8 11.664,4.824 A 16.422,16.422 0 0 1 38.52,21.6 c 0,4.535 -1.872,8.64 -4.824,11.664 -3.024,2.951 -7.128,4.823 -11.664,4.823 A 16.555,16.555 0 0 1 10.368,33.264 C 7.416,30.24 5.544,26.135 5.544,21.6 5.544,16.992 7.416,12.887 10.368,9.936 13.32,6.912 17.496,5.112 22.032,5.112 Z m 0,0.216 c -4.464,0 -8.568,1.8 -11.52,4.752 C 7.56,13.032 5.76,17.064 5.76,21.6 c 0,4.464 1.8,8.567 4.752,11.52 2.951,2.88 7.056,4.752 11.52,4.752 4.464,0 8.568,-1.872 11.521,-4.752 A 16.28,16.28 0 0 0 38.305,21.6 c 0,-4.536 -1.801,-8.568 -4.752,-11.521 A 16.283,16.283 0 0 0 22.032,5.328 Z"/>
	<radialGradient id="c" cx="-1011.188" cy="1127.921" r="49.019001" gradientTransform="matrix(1 0 0 -1 1045.93 1163.232)" gradientUnits="userSpaceOnUse">
		<stop offset="0" stop-color="#bbbcb7"/>
		<stop offset="1" stop-color="#808079"/>
	</radialGradient>
	<path fill="url(#c)" d="m 22.032,0 c 4.896,0 9.504,1.656 13.104,4.464 L 35.064,4.536 A 21.524,21.524 0 0 0 22.032,0.144 c -11.808,0 -21.384,9.575 -21.384,21.384 0,11.808 9.576,21.456 21.384,21.456 11.808,0 21.384,-9.648 21.384,-21.456 0,-4.752 -1.512,-9.145 -4.176,-12.744 l 0.072,-0.072 c 2.664,3.601 4.248,7.992 4.248,12.816 0,5.976 -2.448,11.376 -6.336,15.264 -3.889,3.889 -9.216,6.265 -15.192,6.265 A 21.44,21.44 0 0 1 6.84,36.792 C 2.952,32.832 0.504,27.504 0.504,21.528 0.504,15.624 2.952,10.224 6.84,6.336 10.728,2.448 16.056,0 22.032,0 Z"/>
	<radialGradient id="d" cx="-1016.187" cy="1133.921" r="34.422001" gradientTransform="matrix(1 0 0 -1 1045.93 1163.232)" gradientUnits="userSpaceOnUse">
		<stop offset="0" stop-color="#fff"/>
		<stop offset=".157" stop-color="#f1f1f2"/>
		<stop offset=".298" stop-color="#e4e4e5"/>
		<stop offset=".335" stop-color="#cecfce"/>
		<stop offset=".4" stop-color="#aeafac"/>
		<stop offset=".464" stop-color="#969694"/>
		<stop offset=".526" stop-color="#858683"/>
		<stop offset=".586" stop-color="#7c7c79"/>
		<stop offset=".64" stop-color="#787976"/>
		<stop offset=".738" stop-color="#5e5e5b"/>
		<stop offset=".846" stop-color="#43423f"/>
		<stop offset=".937" stop-color="#1f1f1e"/>
		<stop offset="1"/>
	</radialGradient>
	<path fill="url(#d)" d="m 22.032,5.256 c 9,0 16.344,7.272 16.344,16.345 0,9 -7.344,16.344 -16.344,16.344 -9,0 -16.344,-7.345 -16.344,-16.345 0,-9.072 7.344,-16.344 16.344,-16.344 z m 0,2.304 c -7.704,0 -13.968,6.264 -13.968,14.04 0,7.703 6.264,13.968 13.968,13.968 C 29.736,35.568 36,29.303 36,21.6 36,13.824 29.736,7.56 22.032,7.56 Z"/>
	<linearGradient id="e" x1="-1043.3571" x2="-1043.3571" y1="1136.424" y2="1136.545" gradientTransform="matrix(1 0 0 -1 1045.93 1163.232)" gradientUnits="userSpaceOnUse">
		<stop offset="0" stop-color="#fff"/>
		<stop offset=".17" stop-color="#f8f8f5"/>
		<stop offset=".427" stop-color="#b1b1ac"/>
		<stop offset=".435" stop-color="#adaea8"/>
		<stop offset=".534" stop-color="#898984"/>
		<stop offset=".633" stop-color="#6c6c67"/>
		<stop offset=".731" stop-color="#53534e"/>
		<stop offset=".825" stop-color="#3e3e3a"/>
		<stop offset=".916" stop-color="#252523"/>
		<stop offset="1" stop-color="#1b1a19"/>
	</linearGradient>
	<path fill="url(#e)" d="m 2.494,26.717 c 0,0.021 0.005,0.039 0.016,0.057 0.009,0.017 0.024,0.024 0.046,0.024 0.016,0 0.03,-0.004 0.047,-0.012 a 0.237,0.237 0 0 0 0.05,-0.036 v -0.159 c -0.06,0.01 -0.101,0.024 -0.124,0.045 a 0.108,0.108 0 0 0 -0.035,0.081 z" opacity=".67"/>
	<linearGradient id="f" x1="-1040.338" x2="-1040.338" y1="1136.88" y2="1136.929" gradientTransform="matrix(1 0 0 -1 1045.93 1163.232)" gradientUnits="userSpaceOnUse">
		<stop offset="0" stop-color="#fff"/>
		<stop offset=".17" stop-color="#f8f8f5"/>
		<stop offset=".427" stop-color="#b1b1ac"/>
		<stop offset=".435" stop-color="#adaea8"/>
		<stop offset=".534" stop-color="#898984"/>
		<stop offset=".633" stop-color="#6c6c67"/>
		<stop offset=".731" stop-color="#53534e"/>
		<stop offset=".825" stop-color="#3e3e3a"/>
		<stop offset=".916" stop-color="#252523"/>
		<stop offset="1" stop-color="#1b1a19"/>
	</linearGradient>
	<path fill="url(#f)" d="m 5.542,26.262 h 0.101 v 0.085 H 5.542 Z" opacity=".67"/>
	<linearGradient id="g" x1="-1040.338" x2="-1040.338" y1="1136.776" y2="1136.827" gradientTransform="matrix(1 0 0 -1 1045.93 1163.232)" gradientUnits="userSpaceOnUse">
		<stop offset="0" stop-color="#fff"/>
		<stop offset=".17" stop-color="#f8f8f5"/>
		<stop offset=".427" stop-color="#b1b1ac"/>
		<stop offset=".435" stop-color="#adaea8"/>
		<stop offset=".534" stop-color="#898984"/>
		<stop offset=".633" stop-color="#6c6c67"/>
		<stop offset=".731" stop-color="#53534e"/>
		<stop offset=".825" stop-color="#3e3e3a"/>
		<stop offset=".916" stop-color="#252523"/>
		<stop offset="1" stop-color="#1b1a19"/>
	</linearGradient>
	<path fill="url(#g)" d="m 5.542,26.364 h 0.101 v 0.087 H 5.542 Z" opacity=".67"/>
	<linearGradient id="h" x1="-1042.344" x2="-1042.344" y1="1136.424" y2="1136.545" gradientTransform="matrix(1 0 0 -1 1045.93 1163.232)" gradientUnits="userSpaceOnUse">
		<stop offset="0" stop-color="#fff"/>
		<stop offset=".17" stop-color="#f8f8f5"/>
		<stop offset=".427" stop-color="#b1b1ac"/>
		<stop offset=".435" stop-color="#adaea8"/>
		<stop offset=".534" stop-color="#898984"/>
		<stop offset=".633" stop-color="#6c6c67"/>
		<stop offset=".731" stop-color="#53534e"/>
		<stop offset=".825" stop-color="#3e3e3a"/>
		<stop offset=".916" stop-color="#252523"/>
		<stop offset="1" stop-color="#1b1a19"/>
	</linearGradient>
	<path fill="url(#h)" d="m 3.507,26.717 c 0,0.021 0.006,0.039 0.016,0.057 0.009,0.017 0.024,0.024 0.046,0.024 0.016,0 0.031,-0.004 0.047,-0.012 0.016,-0.008 0.032,-0.02 0.05,-0.036 v -0.159 c -0.06,0.01 -0.101,0.024 -0.124,0.045 a 0.108,0.108 0 0 0 -0.035,0.081 z" opacity=".67"/>
	<linearGradient id="i" x1="-1039.812" x2="-1039.812" y1="1136.682" y2="1136.759" gradientTransform="matrix(1 0 0 -1 1045.93 1163.232)" gradientUnits="userSpaceOnUse">
		<stop offset="0" stop-color="#fff"/>
		<stop offset=".17" stop-color="#f8f8f5"/>
		<stop offset=".427" stop-color="#b1b1ac"/>
		<stop offset=".435" stop-color="#adaea8"/>
		<stop offset=".534" stop-color="#898984"/>
		<stop offset=".633" stop-color="#6c6c67"/>
		<stop offset=".731" stop-color="#53534e"/>
		<stop offset=".825" stop-color="#3e3e3a"/>
		<stop offset=".916" stop-color="#252523"/>
		<stop offset="1" stop-color="#1b1a19"/>
	</linearGradient>
	<path fill="url(#i)" d="m 5.98,26.411 h 0.276 v 0.131 H 5.98 Z" opacity=".67"/>
	<linearGradient id="j" x1="-1040.3979" x2="-1040.3979" y1="1134.5229" y2="1136.0649" gradientTransform="matrix(1 0 0 -1 1045.93 1163.232)" gradientUnits="userSpaceOnUse">
		<stop offset="0" stop-color="#fff"/>
		<stop offset=".17" stop-color="#f8f8f5"/>
		<stop offset=".427" stop-color="#b1b1ac"/>
		<stop offset=".435" stop-color="#adaea8"/>
		<stop offset=".534" stop-color="#898984"/>
		<stop offset=".633" stop-color="#6c6c67"/>
		<stop offset=".731" stop-color="#53534e"/>
		<stop offset=".825" stop-color="#3e3e3a"/>
		<stop offset=".916" stop-color="#252523"/>
		<stop offset="1" stop-color="#1b1a19"/>
	</linearGradient>
	<path fill="url(#j)" d="M 8.769,25.958 H 1.113 c 0.189,0.899 0.451,1.771 0.749,2.625 h 8.09 A 13.953,13.953 0 0 1 8.769,25.958 Z m -3.264,0.167 0.059,0.037 -0.021,0.024 v 0.061 H 5.639 L 5.66,26.213 5.7,26.26 5.679,26.284 v 0.064 H 5.69 l 0.029,-0.037 0.042,0.054 H 5.677 l 0.002,0.115 -0.037,0.022 v -0.034 h -0.1 v 0.099 h 0.076 l 0.026,-0.041 0.04,0.058 H 5.542 v 0.091 H 5.666 L 5.695,26.628 5.74,26.69 H 5.542 c 0,0.038 0.001,0.079 0.005,0.122 l -0.042,0.02 C 5.507,26.78 5.509,26.733 5.509,26.69 H 5.403 A 0.072,0.072 0 0 0 5.363,26.7 L 5.339,26.673 h 0.17 V 26.582 H 5.432 c -0.015,0 -0.024,0.003 -0.032,0.01 L 5.379,26.566 h 0.13 V 26.467 H 5.432 c -0.015,0 -0.024,0.003 -0.032,0.011 L 5.379,26.45 h 0.13 V 26.363 H 5.395 c -0.015,0 -0.024,0.003 -0.031,0.01 L 5.343,26.346 H 5.51 V 26.262 H 5.437 c -0.015,0 -0.025,0.004 -0.032,0.011 L 5.384,26.246 H 5.508 A 1.45,1.45 0 0 0 5.505,26.125 Z m -3.15,0.693 H 2.149 V 26.797 H 2.21 c 0.01,0 0.016,-0.002 0.02,-0.007 0.004,-0.005 0.005,-0.011 0.005,-0.02 V 26.288 A 0.034,0.034 0 0 0 2.23,26.268 0.027,0.027 0 0 0 2.21,26.26 H 2.15 v -0.02 h 0.03 a 0.147,0.147 0 0 0 0.087,-0.028 h 0.005 v 0.557 c 0,0.009 0.002,0.016 0.006,0.02 0.005,0.004 0.01,0.007 0.018,0.007 h 0.062 v 0.021 H 2.355 Z M 2.731,26.8 C 2.722,26.813 2.71,26.82 2.697,26.82 A 0.041,0.041 0 0 1 2.668,26.81 0.077,0.077 0 0 1 2.652,26.776 0.317,0.317 0 0 1 2.603,26.812 0.118,0.118 0 0 1 2.548,26.824 0.094,0.094 0 0 1 2.475,26.795 0.087,0.087 0 0 1 2.449,26.731 c 0,-0.041 0.014,-0.074 0.041,-0.101 0.027,-0.025 0.081,-0.044 0.162,-0.056 V 26.533 A 0.119,0.119 0 0 0 2.64,26.477 C 2.631,26.461 2.614,26.455 2.585,26.455 c -0.029,0 -0.051,0.006 -0.062,0.02 -0.012,0.013 -0.018,0.024 -0.013,0.038 a 0.042,0.042 0 0 1 0,0.027 0.023,0.023 0 0 1 -0.021,0.014 0.021,0.021 0 0 1 -0.017,-0.008 0.043,0.043 0 0 1 -0.008,-0.024 c 0,-0.021 0.012,-0.04 0.034,-0.059 a 0.133,0.133 0 0 1 0.084,-0.026 c 0.035,0 0.062,0.008 0.079,0.024 0.019,0.018 0.026,0.041 0.026,0.072 v 0.223 c 0,0.019 0.001,0.029 0.004,0.032 0.003,0.003 0.007,0.005 0.015,0.005 0.009,0 0.016,-0.005 0.019,-0.015 0.003,-0.01 0.005,-0.024 0.005,-0.042 H 2.743 C 2.744,26.766 2.74,26.788 2.731,26.8 Z m 0.343,0.018 H 2.963 v -0.021 h 0.014 c 0.009,0 0.015,-0.002 0.019,-0.007 C 3,26.785 3,26.78 3,26.771 V 26.544 A 0.12,0.12 0 0 0 2.987,26.482 0.043,0.043 0 0 0 2.948,26.46 0.078,0.078 0 0 0 2.899,26.481 0.184,0.184 0 0 0 2.853,26.539 v 0.233 c 0,0.009 0.002,0.016 0.007,0.02 0.004,0.004 0.01,0.007 0.017,0.007 H 2.89 V 26.82 H 2.779 v -0.021 h 0.013 c 0.01,0 0.016,-0.002 0.02,-0.007 0.004,-0.005 0.005,-0.011 0.005,-0.02 V 26.481 C 2.817,26.475 2.816,26.468 2.814,26.465 2.812,26.462 2.808,26.46 2.803,26.46 H 2.779 v -0.02 h 0.019 c 0.01,0 0.019,-0.001 0.026,-0.003 C 2.831,26.435 2.84,26.43 2.847,26.422 H 2.852 V 26.5 a 0.256,0.256 0 0 1 0.047,-0.05 0.08,0.08 0 0 1 0.05,-0.017 c 0.03,0 0.052,0.01 0.066,0.029 a 0.167,0.167 0 0 1 0.021,0.092 v 0.216 c 0,0.009 0.002,0.016 0.007,0.02 0.005,0.004 0.011,0.007 0.018,0.007 h 0.013 z m 0.281,-0.026 c -0.016,0.021 -0.035,0.03 -0.061,0.03 -0.026,0 -0.046,-0.01 -0.059,-0.03 C 3.222,26.772 3.214,26.74 3.214,26.697 V 26.461 H 3.138 v -0.02 h 0.021 a 0.063,0.063 0 0 0 0.052,-0.025 c 0.014,-0.017 0.021,-0.043 0.025,-0.079 l 0.002,-0.026 h 0.016 v 0.131 h 0.105 v 0.02 H 3.254 v 0.25 c 0,0.032 0.005,0.054 0.014,0.064 0.009,0.012 0.021,0.017 0.04,0.017 A 0.05,0.05 0 0 0 3.35,26.772 0.146,0.146 0 0 0 3.371,26.71 l 0.014,0.007 a 0.172,0.172 0 0 1 -0.03,0.075 z M 3.744,26.8 C 3.735,26.813 3.724,26.82 3.71,26.82 3.698,26.82 3.689,26.817 3.682,26.81 3.674,26.803 3.669,26.791 3.665,26.776 A 0.317,0.317 0 0 1 3.616,26.812 0.113,0.113 0 0 1 3.562,26.824 0.095,0.095 0 0 1 3.462,26.731 0.14,0.14 0 0 1 3.503,26.63 C 3.53,26.605 3.584,26.586 3.665,26.574 V 26.533 A 0.119,0.119 0 0 0 3.653,26.477 C 3.645,26.461 3.627,26.455 3.599,26.455 c -0.03,0 -0.052,0.006 -0.063,0.02 -0.012,0.013 -0.017,0.024 -0.013,0.038 0.003,0.01 0.003,0.019 0,0.027 -0.003,0.008 -0.011,0.014 -0.021,0.014 A 0.021,0.021 0 0 1 3.485,26.546 0.043,0.043 0 0 1 3.478,26.522 c 0,-0.021 0.011,-0.04 0.034,-0.059 a 0.13,0.13 0 0 1 0.084,-0.026 c 0.034,0 0.062,0.008 0.079,0.024 0.018,0.018 0.025,0.041 0.025,0.072 v 0.223 c 0,0.019 10e-4,0.029 0.004,0.032 0.003,0.003 0.007,0.005 0.016,0.005 0.009,0 0.015,-0.005 0.018,-0.015 0.003,-0.01 0.005,-0.024 0.005,-0.042 H 3.756 A 0.115,0.115 0 0 1 3.744,26.8 Z m 0.328,-0.29 c -0.004,0.008 -0.011,0.011 -0.02,0.011 -0.01,0 -0.017,-0.003 -0.021,-0.011 A 0.036,0.036 0 0 1 4.027,26.484 L 4.025,26.466 C 4.024,26.463 4.019,26.46 4.01,26.46 c -0.015,0 -0.031,0.011 -0.052,0.034 a 0.309,0.309 0 0 0 -0.054,0.095 v 0.183 c 0,0.009 0.002,0.016 0.006,0.02 0.004,0.004 0.01,0.007 0.018,0.007 H 3.986 V 26.82 H 3.792 v -0.021 h 0.054 c 0.009,0 0.015,-0.002 0.019,-0.007 0.004,-0.005 0.005,-0.011 0.005,-0.02 v -0.28 A 0.048,0.048 0 0 0 3.865,26.47 C 3.861,26.465 3.855,26.462 3.846,26.462 H 3.792 v -0.02 h 0.021 a 0.199,0.199 0 0 0 0.084,-0.018 h 0.008 v 0.122 a 0.333,0.333 0 0 1 0.057,-0.083 0.087,0.087 0 0 1 0.062,-0.028 c 0.018,0 0.031,0.005 0.041,0.015 0.01,0.01 0.015,0.02 0.015,0.034 -0.001,0.012 -0.003,0.021 -0.008,0.026 z m 0.745,0.18 v 0.135 c 0,0.047 -0.02,0.08 -0.058,0.098 C 4.758,26.89 4.73,26.865 4.677,26.85 v -0.014 l 0.076,0.008 C 4.77,26.845 4.776,26.831 4.776,26.802 V 26.69 H 4.564 A 0.125,0.125 0 0 0 4.511,26.7 L 4.49,26.674 h 0.287 l -0.002,-0.098 0.034,0.02 0.07,-0.077 H 4.662 l -0.023,0.01 -0.021,-0.027 h 0.261 l 0.029,-0.034 0.047,0.067 C 4.931,26.531 4.886,26.554 4.818,26.606 l 0.026,0.017 -0.026,0.021 v 0.029 h 0.177 l 0.037,-0.047 0.053,0.064 z m 0.269,-0.202 c -0.025,0 -0.046,0.014 -0.058,0.041 A 0.414,0.414 0 0 1 4.817,26.273 H 4.802 c 0,0.104 0.001,0.168 0.002,0.188 l -0.045,0.015 c 0.002,-0.05 0.003,-0.111 0.003,-0.187 A 0.584,0.584 0 0 1 4.485,26.565 L 4.483,26.55 A 0.648,0.648 0 0 0 4.725,26.272 H 4.562 a 0.125,0.125 0 0 0 -0.053,0.01 L 4.488,26.255 h 0.274 l -0.003,-0.121 0.068,0.037 -0.025,0.023 v 0.061 H 4.996 L 5.033,26.208 5.08,26.272 H 4.83 a 0.324,0.324 0 0 0 0.256,0.202 z m 0.681,0.364 c -0.035,0.014 -0.052,0.029 -0.048,0.051 a 2.29,2.29 0 0 1 -0.166,0 A 0.415,0.415 0 0 1 5.394,26.869 0.311,0.311 0 0 1 5.285,26.791 0.402,0.402 0 0 1 5.161,26.922 L 5.153,26.912 A 0.458,0.458 0 0 0 5.266,26.76 0.65,0.65 0 0 1 5.203,26.588 l 0.011,-0.006 a 0.785,0.785 0 0 0 0.063,0.142 c 0.018,-0.059 0.03,-0.136 0.037,-0.229 H 5.237 L 5.216,26.532 5.18,26.485 5.211,26.467 a 3.97,3.97 0 0 0 0.09,-0.198 H 5.215 l -0.03,0.01 -0.021,-0.027 h 0.141 l 0.023,-0.037 0.037,0.055 -0.029,0.017 c -0.029,0.061 -0.062,0.125 -0.095,0.192 h 0.071 l 0.021,-0.03 0.04,0.047 -0.023,0.023 a 1.169,1.169 0 0 1 -0.047,0.235 0.209,0.209 0 0 0 0.094,0.064 0.49,0.49 0 0 0 0.141,0.028 c 0.053,0.005 0.13,0 0.232,-0.008 z m 0.65,-0.007 C 6.386,26.852 6.367,26.869 6.362,26.9 A 0.694,0.694 0 0 1 6.231,26.833 0.394,0.394 0 0 1 6.131,26.73 0.491,0.491 0 0 1 6.064,26.56 H 5.98 v 0.27 l 0.142,-0.078 0.005,0.01 A 0.562,0.562 0 0 0 5.964,26.905 L 5.933,26.848 A 0.083,0.083 0 0 0 5.946,26.807 V 26.32 c 0,-0.036 -10e-4,-0.067 -0.003,-0.094 L 5.98,26.259 H 6.114 A 0.264,0.264 0 0 0 6.069,26.142 l 0.005,-0.011 c 0.044,0.025 0.069,0.047 0.075,0.067 0.006,0.02 0,0.041 -0.018,0.061 H 6.25 l 0.021,-0.033 0.042,0.047 -0.024,0.02 v 0.192 L 6.291,26.573 6.254,26.59 V 26.56 H 6.08 a 0.516,0.516 0 0 0 0.071,0.147 0.584,0.584 0 0 0 0.164,-0.135 l 0.039,0.067 H 6.323 c -0.053,0.023 -0.105,0.052 -0.161,0.08 a 0.299,0.299 0 0 0 0.123,0.087 0.387,0.387 0 0 0 0.133,0.024 z" opacity=".67"/>
	<linearGradient id="k" x1="-1039.812" x2="-1039.812" y1="1136.832" y2="1136.901" gradientTransform="matrix(1 0 0 -1 1045.93 1163.232)" gradientUnits="userSpaceOnUse">
		<stop offset="0" stop-color="#fff"/>
		<stop offset=".17" stop-color="#f8f8f5"/>
		<stop offset=".427" stop-color="#b1b1ac"/>
		<stop offset=".435" stop-color="#adaea8"/>
		<stop offset=".534" stop-color="#898984"/>
		<stop offset=".633" stop-color="#6c6c67"/>
		<stop offset=".731" stop-color="#53534e"/>
		<stop offset=".825" stop-color="#3e3e3a"/>
		<stop offset=".916" stop-color="#252523"/>
		<stop offset="1" stop-color="#1b1a19"/>
	</linearGradient>
	<path fill="url(#k)" d="m 5.98,26.276 h 0.276 v 0.118 H 5.98 Z" opacity=".67"/>
	<linearGradient id="l" x1="-1823.484" x2="-1823.484" y1="1134.524" y2="1136.066" gradientTransform="rotate(180 -892.47 581.616)" gradientUnits="userSpaceOnUse">
		<stop offset="0" stop-color="#fff"/>
		<stop offset=".17" stop-color="#f8f8f5"/>
		<stop offset=".427" stop-color="#b1b1ac"/>
		<stop offset=".435" stop-color="#adaea8"/>
		<stop offset=".534" stop-color="#898984"/>
		<stop offset=".633" stop-color="#6c6c67"/>
		<stop offset=".731" stop-color="#53534e"/>
		<stop offset=".825" stop-color="#3e3e3a"/>
		<stop offset=".916" stop-color="#252523"/>
		<stop offset="1" stop-color="#1b1a19"/>
	</linearGradient>
	<path fill="url(#l)" d="m 35.306,25.958 h 7.655 a 20.88,20.88 0 0 1 -0.749,2.625 h -8.09 c 0.48,-0.827 0.88,-1.703 1.184,-2.625 z" opacity=".86"/>
	<path d="m 43.344,16.128 c 0.504,1.729 0.72,3.528 0.72,5.4 0,1.944 -0.288,3.815 -0.72,5.616 H 0.792 v -0.072 h 42.48 c 0.504,-1.8 0.72,-3.672 0.72,-5.616 0,-1.872 -0.216,-3.672 -0.648,-5.328 z"/>
	<radialGradient id="m" cx="-1043.936" cy="1145.9189" r="27.789" gradientTransform="matrix(1 0 0 -1 1045.93 1163.232)" gradientUnits="userSpaceOnUse">
		<stop offset="0" stop-color="#1e71b8"/>
		<stop offset=".082" stop-color="#1c69ab"/>
		<stop offset=".166" stop-color="#1b64a4"/>
		<stop offset=".242" stop-color="#1a63a1"/>
		<stop offset=".392" stop-color="#185d98"/>
		<stop offset=".685" stop-color="#0f4d80"/>
		<stop offset=".837" stop-color="#004472"/>
		<stop offset=".933" stop-color="#014472"/>
		<stop offset=".968" stop-color="#064271"/>
		<stop offset=".993" stop-color="#0d3f6f"/>
		<stop offset="1" stop-color="#0f3d6e"/>
	</radialGradient>
	<path fill="url(#m)" d="m 0.72,16.056 h 42.624 c 0.432,1.728 0.647,3.527 0.647,5.399 0,1.944 -0.216,3.816 -0.72,5.616 H 0.792 A 20.735,20.735 0 0 1 0,21.456 c 0,-1.872 0.288,-3.672 0.72,-5.4 z"/>
	<linearGradient id="n" x1="-1003.294" x2="-1014.121" y1="1151.811" y2="1162.639" gradientTransform="matrix(1 0 0 -1 1045.93 1163.232)" gradientUnits="userSpaceOnUse">
		<stop offset=".006" stop-color="#121209"/>
		<stop offset=".646" stop-color="#454441"/>
		<stop offset=".65" stop-color="#484845"/>
		<stop offset=".655" stop-color="#535350"/>
		<stop offset=".66" stop-color="#646561"/>
		<stop offset=".664" stop-color="#7b7b77"/>
		<stop offset=".669" stop-color="#969792"/>
		<stop offset=".674" stop-color="#bbbbb7"/>
		<stop offset=".678" stop-color="#e8e7e2"/>
		<stop offset=".68" stop-color="#fbfaf5"/>
		<stop offset=".682" stop-color="#f8f7f2"/>
		<stop offset=".684" stop-color="#f0f0ea"/>
		<stop offset=".685" stop-color="#e4e3dd"/>
		<stop offset=".686" stop-color="#d2d2cc"/>
		<stop offset=".687" stop-color="#bbbcb5"/>
		<stop offset=".689" stop-color="#a0a19a"/>
		<stop offset=".689" stop-color="#83847d"/>
		<stop offset=".69" stop-color="#6d6d67"/>
		<stop offset=".706" stop-color="#5f5f5b"/>
		<stop offset=".732" stop-color="#4d4d4b"/>
		<stop offset=".762" stop-color="#3b3a3a"/>
		<stop offset=".8" stop-color="#242324"/>
		<stop offset=".853" stop-color="#101010"/>
		<stop offset="1"/>
	</linearGradient>
	<path fill="url(#n)" d="M 38.304,0.719 43.056,5.472 39.528,9 l 0.216,0.288 -2.52,2.015 -0.792,0.289 5.184,-5.256 -4.176,-4.176 -5.184,5.184 0.216,-0.72 z"/>
	<radialGradient id="o" cx="-1004.186" cy="1161.92" r="11.613" gradientTransform="matrix(1 0 0 -1 1045.93 1163.232)" gradientUnits="userSpaceOnUse">
		<stop offset="0" stop-color="#575652"/>
		<stop offset="1" stop-color="#52524e"/>
	</radialGradient>
	<path fill="url(#o)" d="m 33.552,0.216 c 4.176,2.232 7.56,5.688 9.863,9.792 V 0.216 Z"/>
	<path fill="none" stroke="#a7a79c" stroke-linecap="round" stroke-width=".34" d="m 33.552,0.216 c 4.176,2.232 7.56,5.688 9.863,9.792"/>
	<path fill="none" stroke="#c2c2b9" stroke-linecap="round" stroke-width=".236" d="m 33.552,0.216 a 24.642,24.642 0 0 1 9.792,9.792"/>
	<path fill="none" stroke="#e0e0d8" stroke-linecap="round" stroke-width=".132" d="m 33.48,0.216 c 4.176,2.232 7.56,5.688 9.864,9.864"/>
	<path fill="none" stroke="#fff" stroke-linecap="round" stroke-width=".028" d="m 33.48,0.216 c 4.104,2.305 7.56,5.688 9.792,9.864"/>
	<linearGradient id="p" x1="-1012.522" x2="-1002.37" y1="1163.124" y2="1163.124" gradientTransform="matrix(1 0 0 -1 1045.93 1163.232)" gradientUnits="userSpaceOnUse">
		<stop offset="0" stop-color="#5d5e60"/>
		<stop offset=".019" stop-color="#5b5b5d"/>
		<stop offset=".205" stop-color="#484846"/>
		<stop offset=".41" stop-color="#343431"/>
		<stop offset=".649" stop-color="#222120"/>
		<stop offset="1" stop-color="#1b1a19"/>
	</linearGradient>
	<path fill="url(#p)" d="m 43.416,0 c 0.072,0 0.145,0.072 0.145,0.216 H 33.407 C 33.408,0.072 33.48,0 33.552,0 Z"/>
	<linearGradient id="q" x1="-1002.478" x2="-1002.478" y1="1153.007" y2="1163.231" gradientTransform="matrix(1 0 0 -1 1045.93 1163.232)" gradientUnits="userSpaceOnUse">
		<stop offset="0" stop-color="#5d5e60"/>
		<stop offset=".386" stop-color="#464543"/>
		<stop offset=".742" stop-color="#2a2927"/>
		<stop offset="1" stop-color="#1b1a19"/>
	</linearGradient>
	<path fill="url(#q)" d="m 43.56,10.008 c 0,0.145 -0.072,0.217 -0.145,0.217 L 43.344,10.08 V 0 h 0.071 c 0.072,0 0.145,0.072 0.145,0.216 z"/>
	<path fill="#fff" d="m 37.44,24.222 c -1.922,0 -3.485,-1.177 -3.485,-2.622 0,-1.446 1.563,-2.622 3.485,-2.622 1.962,0 3.558,1.176 3.558,2.622 0,1.446 -1.596,2.622 -3.558,2.622 z m 0,-4.464 c -0.691,0 -1.194,0.775 -1.194,1.843 0,1.009 0.514,1.77 1.194,1.77 0.646,0 1.194,-0.811 1.194,-1.77 10e-4,-1.017 -0.536,-1.843 -1.194,-1.843 z m -21.888,4.464 c -1.923,0 -3.486,-1.177 -3.486,-2.622 0,-1.383 1.596,-2.551 3.486,-2.551 1.962,0 3.558,1.145 3.558,2.551 0,1.446 -1.596,2.622 -3.558,2.622 z m 0,-4.392 c -0.682,0 -1.194,0.761 -1.194,1.771 0,1.009 0.514,1.77 1.194,1.77 0.646,0 1.193,-0.811 1.193,-1.77 0,-0.959 -0.545,-1.771 -1.193,-1.771 z m 12.816,4.248 -2.258,-4.191 -1.125,0.017 -0.03,-0.678 4.926,-0.03 0.03,0.678 -1.254,0.03 1.754,2.907 1.459,-2.951 -0.837,0.043 -0.03,-0.678 3.414,-0.03 0.03,0.678 -1.182,0.03 -2.214,4.176 h -2.683 z m -9,0 -0.03,-0.822 1.183,-0.029 -0.03,-3.354 -1.122,0.03 -0.03,-0.678 4.566,-0.03 0.03,0.678 -1.183,0.03 0.03,3.354 1.194,-0.029 c 0.388,0 1.41,-0.254 1.481,-1.412 l 0.75,-0.028 0.03,2.292 h -6.869 z m -12.888,0 -2.258,-4.191 -1.125,0.017 -0.03,-0.678 4.926,-0.03 0.03,0.678 -1.254,0.03 1.754,2.907 1.532,-2.951 -0.91,0.044 -0.03,-0.678 3.414,-0.03 0.03,0.678 -1.183,0.03 -2.214,4.176 z"/>
	<path fill="#39393c" d="m 37.44,19.008 c 1.944,0 3.528,1.152 3.528,2.593 0,1.439 -1.584,2.592 -3.528,2.592 -1.872,0 -3.456,-1.152 -3.456,-2.592 0,-1.441 1.584,-2.593 3.456,-2.593 m 0,4.392 c 0.647,0 1.224,-0.792 1.224,-1.8 0,-1.08 -0.576,-1.872 -1.224,-1.872 -0.72,0 -1.225,0.792 -1.225,1.872 10e-4,1.008 0.505,1.8 1.225,1.8 M 15.552,19.08 c 1.943,0 3.527,1.152 3.527,2.521 0,1.439 -1.584,2.592 -3.527,2.592 -1.872,0 -3.456,-1.152 -3.456,-2.592 0,-1.369 1.584,-2.521 3.456,-2.521 m 0,4.32 c 0.647,0 1.224,-0.792 1.224,-1.8 0,-1.009 -0.576,-1.801 -1.224,-1.801 -0.721,0 -1.225,0.792 -1.225,1.801 10e-4,1.008 0.505,1.8 1.225,1.8 m 18.864,-4.176 v 0.647 h -1.151 l -2.232,4.176 h -2.664 l -2.231,-4.176 h -1.152 v -0.647 h 4.896 v 0.647 h -1.224 l 1.729,2.952 1.512,-2.952 h -0.864 v -0.647 h 3.381 m -10.512,0 v 0.647 h -1.152 v 3.384 h 1.225 c 0.432,0 1.439,-0.288 1.512,-1.439 h 0.72 v 2.231 h -6.841 v -0.792 h 1.152 v -3.384 h -1.152 v -0.647 h 4.536 m -11.376,0 v 0.647 H 11.376 L 9.145,24.047 H 6.48 L 4.248,19.871 H 3.096 v -0.647 h 4.896 v 0.647 H 6.768 l 1.728,2.952 1.584,-2.952 H 9.144 v -0.647 h 3.384 M 37.44,18.948 c -1.938,0 -3.517,1.189 -3.517,2.652 0,1.462 1.577,2.651 3.517,2.651 1.979,0 3.588,-1.188 3.588,-2.651 0,-1.464 -1.61,-2.652 -3.588,-2.652 z m 0,4.392 c -0.664,0 -1.164,-0.748 -1.164,-1.739 0,-1.051 0.489,-1.812 1.164,-1.812 0.642,0 1.164,0.813 1.164,1.812 0,0.942 -0.533,1.739 -1.164,1.739 z M 15.552,19.02 c -1.906,0 -3.517,1.182 -3.517,2.58 0,1.462 1.577,2.651 3.517,2.651 1.979,0 3.588,-1.188 3.588,-2.651 0,-1.423 -1.609,-2.58 -3.588,-2.58 z m 0,4.32 c -0.664,0 -1.164,-0.748 -1.164,-1.739 0,-0.992 0.5,-1.74 1.164,-1.74 0.631,0 1.163,0.797 1.163,1.74 0.001,0.942 -0.532,1.739 -1.163,1.739 z m 18.924,-4.176 h -3.505 v 0.769 h 0.826 L 30.381,22.7 28.762,19.932 h 1.18 v -0.769 h -5.017 v 0.769 H 26.1 l 2.215,4.144 0.017,0.032 h 2.736 l 0.017,-0.032 2.216,-4.144 h 1.176 v -0.768 z m -10.512,0 h -4.656 v 0.769 h 1.152 v 3.264 h -1.152 v 0.913 h 6.961 v -2.353 h -0.837 l -0.004,0.057 c -0.071,1.135 -1.072,1.384 -1.452,1.384 h -1.164 v -3.264 h 1.152 z m -11.376,0 H 9.084 v 0.769 H 9.98 l -1.486,2.77 -1.621,-2.77 H 8.054 V 19.164 H 3.036 v 0.769 h 1.176 l 2.216,4.144 0.017,0.032 H 9.18 l 0.017,-0.032 2.215,-4.144 h 1.176 z"/>
	<linearGradient id="r" x1="-1040.0439" x2="-1033.543" y1="1150.5439" y2="1141.751" gradientTransform="matrix(1 0 0 -1 1045.93 1163.232)" gradientUnits="userSpaceOnUse">
		<stop offset="0" stop-color="#fff"/>
		<stop offset=".109" stop-color="#d5ddf0"/>
		<stop offset=".338" stop-color="#94add9"/>
		<stop offset=".542" stop-color="#668fc9"/>
		<stop offset=".714" stop-color="#447dbf"/>
		<stop offset=".848" stop-color="#2a74ba"/>
		<stop offset=".927" stop-color="#1e71b8"/>
		<stop offset=".947" stop-color="#4079bc"/>
		<stop offset=".967" stop-color="#5580c0"/>
		<stop offset=".985" stop-color="#6085c2"/>
		<stop offset="1" stop-color="#6486c3"/>
	</linearGradient>
	<path fill="url(#r)" d="m 0.798,16.139 c -0.432,1.728 -0.72,3.527 -0.72,5.399 0,0.155 0.053,1.072 0.058,1.227 l 0.125,1.391 C 0.259,24.044 0.203,21.777 0.203,21.664 c 0,-1.872 0.312,-3.607 0.744,-5.336 l 15.083,-0.062 6.51,-0.125 z"/>
</svg>