<svg xml:space="preserve" xmlns:xlink="http://www.w3.org/1999/xlink" viewBox="0 0 123.85 111.3" xmlns="http://www.w3.org/2000/svg">
	<g transform="translate(-45.675 -39.3)">
		<defs>
			<path id="a" d="M 101.7,150.6 H 84.2 c -2.7,0 -5.3,-0.7 -7.6,-2 -2.3,-1.3 -4.2,-3.2 -5.5,-5.5 L 47.7,102.6 C 45,97.9 45,92.1 47.7,87.4 l 5,-8.7 c 2.5,-4.3 7.1,-6.9 12,-6.9 H 84.4 L 74.2,89.6 c -1.9,3.4 -1.9,7.5 0,10.9 l 10.3,17.9 9.1,17 z m 17.9,-87.2 c 3.9,0 7.5,2.1 9.4,5.4 l 10.3,17.8 9.9,-17.1 c 2.5,-4.3 2.5,-9.6 0,-13.9 l -5,-8.7 c -2.7,-4.7 -7.7,-7.6 -13.1,-7.6 H 84.3 c -5.4,0 -10.4,2.9 -13.1,7.6 l -9.5,16.5 h 34 z m 47.9,24 -9.6,-16.5 -16.4,28.3 c -0.2,0.4 -0.4,0.8 -0.6,1.2 l -12,20.7 c -1.9,3.4 -5.5,5.4 -9.4,5.4 H 98.3 l 8.8,16.6 c 2.4,4.6 7.1,7.4 12.3,7.4 H 131 c 5.4,0 10.4,-2.9 13.1,-7.6 l 23.4,-40.5 c 2.7,-4.5 2.7,-10.3 0,-15 z"/>
		</defs>
		<clipPath id="b">
			<use xlink:href="#a" overflow="visible"/>
		</clipPath>
		<g clip-path="url(#b)">
			<path fill="#fff" d="M25.700001 13.4H182.200001V168.00001H25.700001z"/>
			<linearGradient id="c" x1="86.125198" x2="31.823299" y1="19.535" y2="93.7845" gradientUnits="userSpaceOnUse">
				<stop offset="0" stop-color="#f69826"/>
				<stop offset=".6067" stop-color="#da5c25"/>
			</linearGradient>
			<path fill="url(#c)" d="M79.7 17 37.6 46.9 41.8 88.8 79.7 67.2z"/>
			<linearGradient id="d" x1="72.694603" x2="51.730598" y1="69.635696" y2="98.300697" gradientUnits="userSpaceOnUse">
				<stop offset="0" stop-color="#f5b231"/>
				<stop offset=".603" stop-color="#f6af2e"/>
			</linearGradient>
			<path fill="url(#d)" d="M73.1 70.8 46.5 86.3 45.9 89.3 71.7 90.2z"/>
			<linearGradient id="e" x1="21.8458" x2="21.8979" y1="81.839699" y2="81.839699" gradientUnits="userSpaceOnUse">
				<stop offset=".4759" stop-color="#f9c927"/>
				<stop offset=".9917" stop-color="#f8ba36"/>
			</linearGradient>
			<path fill="url(#e)" d="M73.1 70.8 94.7 68.3 77.5 95.4 71.7 90.2z"/>
			<linearGradient id="f" x1="51.743099" x2="52.020199" y1="91.0215" y2="130.3627" gradientUnits="userSpaceOnUse">
				<stop offset=".313" stop-color="#ffe782"/>
				<stop offset=".9901" stop-color="#ffdf61"/>
			</linearGradient>
			<path fill="url(#f)" d="M71.7 90.2 45.9 89.3 31.8 98.7 58.7 134.2z"/>
			<linearGradient id="g" x1="79.584" x2="79.801598" y1="91.464401" y2="122.3672" gradientUnits="userSpaceOnUse">
				<stop offset=".3125" stop-color="#4bc4e5"/>
				<stop offset=".9905" stop-color="#48c3e7"/>
			</linearGradient>
			<path fill="url(#g)" d="M72.3 116.2 91.7 125.3 85 105.9 77.5 95.4 71.7 90.2 67.8 104.6z"/>
			<linearGradient id="h" x1="55.702" x2="69.554497" y1="139.6512" y2="111.392" gradientUnits="userSpaceOnUse">
				<stop offset=".3109" stop-color="#2963a5"/>
				<stop offset=".9893" stop-color="#2d64a8"/>
			</linearGradient>
			<path fill="url(#h)" d="M72.3 116.2 67.8 104.6 58.7 134.2 61.6 128.2z"/>
			<linearGradient id="i" x1="67.027397" x2="77.832298" y1="112.0051" y2="135.5544" gradientUnits="userSpaceOnUse">
				<stop offset=".00082443" stop-color="#10aed0"/>
				<stop offset="1" stop-color="#25538d"/>
			</linearGradient>
			<path fill="url(#i)" d="M88.1 125.3 91.7 125.3 72.3 116.2 61.6 128.2 58.7 134.2 62.8 131.2 78.4 132.3z"/>
			<linearGradient id="j" x1="71.615097" x2="89.459801" y1="116.2429" y2="155.13499" gradientUnits="userSpaceOnUse">
				<stop offset="0" stop-color="#235a92"/>
				<stop offset="1" stop-color="#10aed0"/>
			</linearGradient>
			<path fill="url(#j)" d="M88.1 125.3 78.4 132.3 62.8 131.2 64.2 134.8 86.7 151.4 91.7 125.3z"/>
			<linearGradient id="k" x1="80.534203" x2="99.7603" y1="118.7097" y2="160.61259" gradientUnits="userSpaceOnUse">
				<stop offset=".3146" stop-color="#2f599f"/>
				<stop offset=".9929" stop-color="#304a93"/>
			</linearGradient>
			<path fill="url(#k)" d="M91.7 125.3 86.7 151.4 88.5 158.7 106.3 152.2z"/>
			<linearGradient id="l" x1="61.246799" x2="81.328499" y1="123.8722" y2="167.63989" gradientUnits="userSpaceOnUse">
				<stop offset=".3154" stop-color="#55d9e3"/>
				<stop offset=".9929" stop-color="#54d8e4"/>
			</linearGradient>
			<path fill="url(#l)" d="M86.7 151.4 64.2 134.8 61.2 151.7 88.5 158.7z"/>
			<linearGradient id="m" x1="93.694199" x2="124.9086" y1="124.9672" y2="124.9672" gradientUnits="userSpaceOnUse">
				<stop offset=".03737437" stop-color="#ff7bab"/>
				<stop offset=".9525" stop-color="#7824c0"/>
			</linearGradient>
			<path fill="url(#m)" d="M104 105.1 93.7 124.7 102.2 144.8 124.9 124.9z"/>
			<linearGradient id="n" x1="102.1905" x2="141.5316" y1="143.2525" y2="143.2525" gradientUnits="userSpaceOnUse">
				<stop offset="0" stop-color="#ca4ea5"/>
				<stop offset="1" stop-color="#ca3b85"/>
			</linearGradient>
			<path fill="url(#n)" d="M102.2 144.8 112 161.6 141.5 157.6 124.9 124.9z"/>
			<linearGradient id="o" x1="127.9377" x2="155.6427" y1="123.1571" y2="137.0097" gradientUnits="userSpaceOnUse">
				<stop offset="0" stop-color="#d8478d"/>
				<stop offset=".358" stop-color="#d84589"/>
				<stop offset=".7016" stop-color="#d8417e"/>
				<stop offset="1" stop-color="#d93a6d"/>
			</linearGradient>
			<path fill="url(#o)" d="M165.4 114.3 141.5 157.6 124.9 124.9z"/>
			<linearGradient id="p" x1="131.3235" x2="160.59399" y1="112.6598" y2="127.2951" gradientUnits="userSpaceOnUse">
				<stop offset="0" stop-color="#662d90"/>
				<stop offset=".1495" stop-color="#752b8f"/>
				<stop offset=".4233" stop-color="#8a288e"/>
				<stop offset=".6014" stop-color="#92278e"/>
			</linearGradient>
			<path fill="url(#p)" d="M133.8 103.2 165.4 114.3 124.9 124.9z"/>
			<linearGradient id="q" x1="143.9982" x2="166.71561" y1="94.041199" y2="105.3999" gradientUnits="userSpaceOnUse">
				<stop offset="0" stop-color="#ec1c24"/>
				<stop offset=".1495" stop-color="#dd2027"/>
				<stop offset=".4233" stop-color="#c8252b"/>
				<stop offset=".6014" stop-color="#c0272d"/>
			</linearGradient>
			<path fill="url(#q)" d="M136.8 104.8 161.5 113.1 161 88.2z"/>
			<linearGradient id="r" x1="180.8913" x2="139.0567" y1="111.2017" y2="52.743999" gradientUnits="userSpaceOnUse">
				<stop offset="0" stop-color="#ec1c24"/>
				<stop offset=".08327097" stop-color="#d11b24"/>
				<stop offset=".2524" stop-color="#a11925"/>
				<stop offset=".4013" stop-color="#7d1725"/>
				<stop offset=".5227" stop-color="#681625"/>
				<stop offset=".6014" stop-color="#601625"/>
			</linearGradient>
			<path fill="url(#r)" d="M161.5 113.1 178.9 119.5 176.7 76.3 161 88.2z"/>
			<linearGradient id="s" x1="150.46181" x2="132.45351" y1="89.999397" y2="51.489399" gradientUnits="userSpaceOnUse">
				<stop offset="0" stop-color="#e64639"/>
				<stop offset=".5586" stop-color="#d53731"/>
				<stop offset="1" stop-color="#cd302e"/>
			</linearGradient>
			<path fill="url(#s)" d="M139.6 91.8 140.1 23.9 157.9 62.2 161.5 70.8 161 88.2 136.8 104.8z"/>
			<path fill="#ef543f" d="m 169.5,64.4 c -0.8,0 -8,6.4 -8,6.4 L 161,88.2 176.7,76.3 Z"/>
			<path fill="#fdcc4b" d="M138.2 40 110.1 54 121.3 70.8 140.1 42.8z"/>
			<path fill="#fabd48" d="M140.1 42.8 139.6 73 121.3 70.8z"/>
			<path fill="#e0982d" d="M139.6 73 139.6 91.8 117.7 77.4 121.3 70.8z"/>
			<path fill="#ffd638" d="M80 32.2 139.3 33.6 138.2 39.9 109.9 53.9 80.3 39.9z"/>
			<path fill="#f59826" d="M117.1 64.2 106.3 70.8 96.3 66.3 79.5 40.6 80.4 40.1 109.8 54z"/>
			<path fill="#d65a26" d="M96.3 66.3 79.5 40.6 79.3 65.4z"/>
		</g>
	</g>
</svg>