<svg height="1639.8" viewBox="0 0 1596.9 1639.8" width="1596.9" xmlns="http://www.w3.org/2000/svg">
	<path d="m331.5 1639.8c-60.7 0-94.4-14.2-112.4-24.6-24.9-14.4-70.9-51-112.2-159.5-66.1-173.7-105.1-385.9-106.9-635.3v-.9c1.8-249.5 40.8-461.6 106.9-635.4 41.3-108.5 87.3-145.2 112.2-159.5 18-10.4 51.7-24.6 112.4-24.6 23.1 0 50.2 2.1 81.8 7.2 183.6 29.7 387 102 603.8 225.2l.9.4c215.1 126.2 379.4 266.1 496.9 410.2 73.3 90 82 148.1 82 176.9s-8.7 86.9-82 176.9c-117.5 144.1-281.8 284-496.9 410.2l-.9.5c-216.8 123.2-420.2 195.5-603.8 225.2-31.6 5.1-58.6 7.1-81.8 7.1z" fill="#ff6900"/>
</svg>