<svg viewBox="0 0 279.871 170.258" xmlns="http://www.w3.org/2000/svg">
	<path d="m145.43835 115.22727c-4.79194 18.49335-13.15885 32.28846-25.10075 41.38535-11.94216 9.09692-26.261366 13.64537-42.957658 13.64538-26.953888-.00001-46.588982-8.44179-58.905342-25.32537-12.31642-16.88353-18.47461-37.19247-18.4746-60.926872-.00001-26.27987 7.24382-46.85086 21.731522-61.71303 14.487634-14.8618806 33.11196-22.29289261 55.873035-22.29306061 16.022447.000168 29.723963 4.08067301 41.104583 12.24152961 11.38036 8.161166 19.3542 20.103197 23.92152 35.826127l-21.33844 5.053842c-3.59398-11.45525-9.05961-20.065492-16.39691-25.83075-7.337544-5.764978-16.509323-8.647537-27.515368-8.647686-17.969289.000149-31.595931 5.896293-40.87997 17.688449-9.284134 11.792418-13.926177 27.609057-13.926143 47.449964-.000034 22.910817 4.885342 39.944117 14.656143 51.099957 9.770703 11.15591 22.517604 16.73385 38.240741 16.73383 12.877839.00002 23.341154-3.48151 31.389977-10.4446 8.04858-6.96304 13.68268-17.44507 16.90229-31.44613zm134.4322 7.18769h-34.70305l-9.65845 47.84304h-17.07076l9.88307-47.84304h-35.3769l-9.65845 47.84304h-17.07075l9.99537-47.84304h-19.09229v-16.62153h22.2369l8.53538-40.879965h-30.77228v-16.621526h34.0292l9.88307-48.29227161h16.73384l-9.65846 48.29227161h35.26459l9.88307-48.29227161h16.73383l-9.65845 48.29227161h19.54152v16.621526h-23.02306l-8.19845 40.879965h31.22151zm-39.75689-57.501495h-35.4892l-8.19846 40.879965h35.15228z" fill="#6a1577"/>
</svg>