<svg enable-background="new 0 0 1200 500" height="450" viewBox="0 0 738.79499 450" width="738.79498" xmlns="http://www.w3.org/2000/svg">
	<g fill="#5586a4">
		<g transform="translate(-390.963)">
			<path d="m812.443 316.39099c-9.121 3.757-18.332 5.639-27.623 5.639-14.67 0-27.857-2.5-39.572-7.483-11.717-4.989-21.594-11.86-29.643-20.619-8.049-8.752-14.217-19.04-18.51-30.858-4.291-11.817-6.437-24.561-6.437-38.217 0-14.001 2.141-27.004 6.42-39 4.281-11.991 10.434-22.451 18.463-31.383 8.031-8.932 17.897-15.932 29.605-21.015 11.709-5.076 24.896-7.617 39.566-7.617 9.834 0 19.354 1.449 28.562 4.343 9.211 2.898 17.525 7.154 24.949 12.767 7.422 5.613 13.545 12.533 18.373 20.755 4.83 8.228 7.785 17.665 8.857 28.323h-40.234c-2.506-10.479-7.336-18.344-14.488-23.586-7.158-5.243-15.83-7.864-26.02-7.864-9.48 0-17.529 1.794-24.144 5.384s-11.982 8.408-16.098 14.446c-4.115 6.044-7.107 12.915-8.98 20.619-1.883 7.704-2.816 15.667-2.816 23.895 0 7.883.939 15.543 2.82 22.982 1.883 7.438 4.881 14.136 8.996 20.089 4.115 5.951 9.488 10.719 16.115 14.309 6.623 3.59 14.682 5.385 24.178 5.385 13.963 0 24.744-3.44 32.355-10.325 7.613-6.883 12.045-16.863 13.301-29.939h-42.381v-30.791h80.357v101.199h-26.738l-4.281-21.23c-7.511 9.436-15.831 16.036-24.952 19.792z"/>
			<path d="m936.709 130.57399v152.374h93.354v34.737h-135.37v-187.111z"/>
		</g>
		<path d="m738.008 340.94499c-64.285 38.205-160.568 59.951-267.996 59.951-193.548 0-350.451-78.75-350.451-175.897s156.903-175.897 350.451-175.897c107.822 0 204.496 22.149 268.783 60.593-70.17-64.413-195.985-109.673-339.838-109.695-220.318-.035-398.937998 100.675-398.956998 224.938-.019 124.261 178.567998 225.032 398.886998 225.062 143.281.024 268.769-45.092 339.121-109.055z"/>
	</g>
</svg>