<svg viewBox="0 0 63.882 31.637001" xmlns="http://www.w3.org/2000/svg">
	<g fill="#76713e" transform="translate(0 -1090.8827)">
		<path d="m0 1111.9741v-2.2309l2.288737-.4345v-15.7462l-2.288737-.4345v-2.2453h7.518066l6.185384 15.2536h.08691l5.99707-15.2536h7.604981v2.2453l-2.303223.4345v15.7462l2.303223.4345v2.2309h-8.242351v-2.2309l2.419109-.4345v-4.9107l.02897-9.2274-.07243-.014-6.53304 16.34h-2.650878l-6.721355-16.2531-.07243.014.188314 8.8943v5.1569l2.5060219.4345v2.2309z"/>
		<path d="m29.34798 1122.5197v-2.2308l2.303223-.4345v-15.7461l-2.303223-.4345v-2.2454h16.064616v5.4322h-2.839193l-.246256-2.6219h-7.025553v5.9681h7.40218v2.8247h-7.40218v6.707h7.416666l.246257-2.68h2.810221v5.4612z"/>
		<path d="m48.295246 1111.9741v-2.2309l2.303223-.4345v-15.7462l-2.303223-.4345v-2.2453h8.430664v2.2453l-2.477051.4345v15.6158h6.590983l.246257-3.2013h2.795735v5.9971z"/>
	</g>
</svg>