<svg height="149.20599" viewBox="0 0 137.42599 149.20599" width="137.42599" xmlns="http://www.w3.org/2000/svg">
	<path clip-rule="evenodd" d="m137.426 68.712994c0-18.354-7.148-35.609-20.127-48.587-12.979-12.9780003-30.232-20.12600035-48.586-20.12600035-37.889 0-68.713 30.82400035-68.713 68.71300035 0 18.354 7.147 35.608996 20.126 48.586996 12.978 12.977 30.233 20.125 48.587 20.125 6.498 0 17.797-1.557 25.936-5.619l-10.238-15.178c-6.172 1.967-10.908 2.633-15.697 2.633-13.502 0-26.197-5.258-35.744-14.805-9.548-9.548996-14.806-22.241996-14.806-35.743996s5.258-26.196 14.806-35.744c9.547-9.548 22.242-14.806 35.744-14.806s26.195 5.258 35.742 14.806c9.549 9.547 14.807 22.242 14.807 35.744 0 12.151-4.426 23.9-12.295 33.030996l-14.75-21.408996-15.225 10.487 40.221 58.384996 15.225-10.488-14.914-21.65c12.682-12.818 19.901-30.258996 19.901-48.354996z" fill="#35b9ab" fill-rule="evenodd"/>
</svg>