<svg height="365.10001" viewBox="0 0 335.20001 365.10001" width="335.20001" xmlns="http://www.w3.org/2000/svg" xmlns:xlink="http://www.w3.org/1999/xlink">
	<linearGradient id="a" gradientTransform="matrix(-38.3825 -98.9416 -98.9416 38.3825 345.8643 502.0046)" gradientUnits="userSpaceOnUse" x1="1.1334" x2="1.6875" y1="-.011572" y2="-.011572">
		<stop offset="0" stop-color="#39daba"/>
		<stop offset="1" stop-color="#00635e"/>
	</linearGradient>
	<g transform="translate(-82.5 -67.399994)">
		<path d="m376.2 345.3-97.6-15.9c-9 2.8-18.6 4.3-28.6 4.3-53.9 0-97.8-44-97.8-98.1 0-54.2 43.8-98.2 97.8-98.2s97.9 44.1 97.9 98.2c0 21.4-6.9 41.3-18.6 57.4l61.6 32.8c17.2-26.7 26.8-57.9 26.8-90.3 0-92.6-75.2-168.1-167.6-168.1s-167.6 75.5-167.6 168.1 75.2 168 167.6 168c24.8 0 50.3-6.2 72.8-17l53.2-41z" fill="#40abba"/>
		<path d="m278.5 329.4 77.9 103.1 56.2-42.8-34.8-44.1z" fill="#74d1d3"/>
		<path d="m278.8 329.4 9 69.6c11.8-2.8 23.4-6.9 34.3-12z" fill="url(#a)"/>
	</g>
</svg>