<svg preserveAspectRatio="xMidYMid" viewBox="0 0 254.3 101.305" xmlns="http://www.w3.org/2000/svg">
	<linearGradient id="a" gradientTransform="matrix(.7488243 0 0 1.3354268 -.176599 -.00052)" gradientUnits="userSpaceOnUse" x1="148.63573" x2="148.63573" y1="1.124897" y2="91.960251">
		<stop offset="0" stop-color="#0994dc"/>
		<stop offset=".35000601" stop-color="#66cef5"/>
		<stop offset=".84616101" stop-color="#127bca"/>
		<stop offset="1" stop-color="#127bca"/>
	</linearGradient>
	<linearGradient id="b" gradientTransform="matrix(.75757098 0 0 1.3200083 -.176599 -.00052)" gradientUnits="userSpaceOnUse" x1="153.02457" x2="153.02457" y1="-1.188608" y2="93.049744">
		<stop offset="0" stop-color="#0e76bc"/>
		<stop offset=".360001" stop-color="#36aee8"/>
		<stop offset=".84616101" stop-color="#00adef"/>
		<stop offset="1" stop-color="#00adef"/>
	</linearGradient>
	<linearGradient id="c" gradientTransform="matrix(.73341406 0 0 1.3634863 -.176599 -.00052)" gradientUnits="userSpaceOnUse" x1="192.15369" x2="192.15369" y1="70.34584" y2="-2.247255">
		<stop offset="0" stop-color="#1c63b7"/>
		<stop offset=".5" stop-color="#33bdf2"/>
		<stop offset="1" stop-color="#33bdf2" stop-opacity=".419608"/>
	</linearGradient>
	<linearGradient id="d" gradientTransform="matrix(.72094583 0 0 1.3870668 -.176599 -.00052)" gradientUnits="userSpaceOnUse" x1="186.45285" x2="186.45285" y1="-10.218084" y2="82.895401">
		<stop offset="0" stop-color="#166ab8"/>
		<stop offset=".39999399" stop-color="#36aee8"/>
		<stop offset=".84616101" stop-color="#0798dd"/>
		<stop offset="1" stop-color="#0798dd"/>
	</linearGradient>
	<linearGradient id="e" gradientTransform="matrix(.79604184 0 0 1.2562154 -.176599 -.00052)" gradientUnits="userSpaceOnUse" x1="156.07475" x2="156.07475" y1="-10.742076" y2="98.585373">
		<stop offset="0" stop-color="#124379"/>
		<stop offset=".389999" stop-color="#1487cb"/>
		<stop offset=".78022802" stop-color="#165197"/>
		<stop offset="1" stop-color="#165197"/>
	</linearGradient>
	<linearGradient id="f" gradientTransform="matrix(.79243711 0 0 1.2619298 -.176599 -.00052)" gradientUnits="userSpaceOnUse" x1="87.175957" x2="111.6796" y1="22.715433" y2="22.715433">
		<stop offset="0" stop-color="#33bdf2" stop-opacity=".698039"/>
		<stop offset="1" stop-color="#1dacd8"/>
	</linearGradient>
	<linearGradient id="g" gradientTransform="matrix(.89555684 0 0 1.1166237 -.176599 -.00052)" gradientUnits="userSpaceOnUse" x1="239.97688" x2="239.97688" y1="83.67662" y2="-2.672897">
		<stop offset="0" stop-color="#136ab4"/>
		<stop offset=".60000002" stop-color="#59caf5" stop-opacity=".54902"/>
		<stop offset="1" stop-color="#59caf5" stop-opacity=".235294"/>
	</linearGradient>
	<linearGradient id="h" gradientTransform="matrix(.85224268 0 0 1.1733747 -.176599 -.00052)" gradientUnits="userSpaceOnUse" x1=".206574" x2="84.716026" y1="44.065475" y2="44.065475">
		<stop offset="0" stop-color="#05a1e6" stop-opacity=".247059"/>
		<stop offset="1" stop-color="#05a1e6"/>
	</linearGradient>
	<linearGradient id="i" gradientTransform="matrix(.81513755 0 0 1.2267868 -.176599 -.00052)" gradientUnits="userSpaceOnUse" x1="49.151291" x2="49.151291" y1="78.141998" y2="-2.333438">
		<stop offset="0" stop-color="#318ed5"/>
		<stop offset="1" stop-color="#38a7e4"/>
	</linearGradient>
	<linearGradient id="j" gradientTransform="matrix(.89345708 0 0 1.1192479 -.176599 -.00052)" gradientUnits="userSpaceOnUse" x1="51.797993" x2="51.797993" y1="85.960434" y2=".217809">
		<stop offset="0" stop-color="#05a1e6"/>
		<stop offset="1" stop-color="#05a1e6" stop-opacity=".54902"/>
	</linearGradient>
	<linearGradient id="k" gradientTransform="matrix(.80475829 0 0 1.2426091 -.176599 -.00052)" gradientUnits="userSpaceOnUse" x1="63.918819" x2="63.918819" y1="81.367058" y2="16.106119">
		<stop offset="0" stop-color="#1959a6"/>
		<stop offset=".5" stop-color="#05a1e6"/>
		<stop offset=".91758698" stop-color="#7ec5ea"/>
		<stop offset="1" stop-color="#7ec5ea"/>
	</linearGradient>
	<linearGradient id="l" gradientTransform="matrix(.85678149 0 0 1.1671587 -.176599 -.00052)" gradientUnits="userSpaceOnUse" x1="63.664349" x2="45.568501" y1="82.188759" y2="6.853135">
		<stop offset="0" stop-color="#165096"/>
		<stop offset="1" stop-color="#0d82ca"/>
	</linearGradient>
	<linearGradient id="m" gradientTransform="matrix(.75668743 0 0 1.3215496 -.176599 -.00052)" gradientUnits="userSpaceOnUse" x1="262.19904" x2="262.19904" y1="34.959679" y2=".189225">
		<stop offset="0" stop-color="#05a1e6"/>
		<stop offset=".87362701" stop-color="#0495d6"/>
		<stop offset="1" stop-color="#0495d6"/>
	</linearGradient>
	<linearGradient id="n" gradientTransform="matrix(.79101053 0 0 1.2642057 -.176599 -.00052)" gradientUnits="userSpaceOnUse" x1="278.12665" x2="254.50664" y1="-3.161799" y2="80.653885">
		<stop offset="0" stop-color="#38a7e4" stop-opacity=".329412"/>
		<stop offset=".96153301" stop-color="#0e88d3"/>
		<stop offset="1" stop-color="#0e88d3"/>
	</linearGradient>
	<linearGradient id="o" gradientTransform="matrix(.84637541 0 0 1.1815088 -.176599 -.00052)" gradientUnits="userSpaceOnUse" x1="240.17139" x2="240.17139" y1="-.236077" y2="84.61055">
		<stop offset="0" stop-color="#168cd4"/>
		<stop offset=".5" stop-color="#1c87cc"/>
		<stop offset="1" stop-color="#154b8d"/>
	</linearGradient>
	<linearGradient id="p" gradientTransform="matrix(2.7638878 0 0 -.36180918 -.176599 8.54045)" gradientUnits="userSpaceOnUse" x1="27.284046" x2="35.638676" y1="30.072889" y2="3.601481">
		<stop offset="0" stop-color="#97d6ee"/>
		<stop offset=".70329303" stop-color="#55c1ea"/>
		<stop offset="1" stop-color="#55c1ea"/>
	</linearGradient>
	<linearGradient id="q" gradientTransform="matrix(1.8807335 0 0 -.53170744 -.176599 11.77535)" gradientUnits="userSpaceOnUse" x1="47.194923" x2="56.891903" y1="4.92271" y2="20.47193">
		<stop offset="0" stop-color="#7accec"/>
		<stop offset="1" stop-color="#3fb7ed"/>
	</linearGradient>
	<linearGradient id="r" gradientTransform="matrix(.80338876 0 0 1.2447274 -.176599 -.00052)" gradientUnits="userSpaceOnUse" x1="236.12985" x2="236.12985" y1="4.229332" y2="83.002914">
		<stop offset="0" stop-color="#1da7e7"/>
		<stop offset="1" stop-color="#37abe7" stop-opacity="0"/>
	</linearGradient>
	<path d="m88.322893 20.68801c9.1648 28.02608 12.636917 78.02207 39.436317 78.02207 2.0407 0 4.10191-.19961 6.1713-.59317-24.36197-5.68037-27.24926-55.13252-42.115081-80.74184-1.16561 1.05933-2.322957 2.16353-3.492536 3.31294" fill="url(#a)"/>
	<path d="m91.815429 17.37507c14.865821 25.60932 17.753111 75.06147 42.115081 80.74184 1.91392-.35168 3.83198-.88336 5.75408-1.55407-21.86726-10.71481-27.91177-58.73539-44.793758-81.85422-1.022461.85096-2.048891 1.74251-3.075403 2.66645" fill="url(#b)"/>
	<path d="m113.23461 2.14494c-2.03666 0-4.10208.19953-6.17535.59317-5.42291 1.02238-10.931446 3.35741-16.485188 6.89086 1.517124 1.49679 2.960608 3.21021 4.31838 5.07933 5.647878-4.68674 11.258898-8.15052 16.849578-10.2323 2.09782-.777 4.18779-1.36166 6.28561-1.74607-1.51315-.38481-3.10813-.58499-4.79303-.58499" fill="#14559a"/>
	<path d="m156.75477 86.68618c2.237-1.77879 4.47814-3.7461 6.72332-5.89294-9.31208-27.89557-12.6451-78.60707-39.63269-78.60707-1.93029 0-3.87694.17993-5.81954.53979 24.5828 6.11419 27.73185 59.59842 38.72891 83.96022" fill="url(#c)"/>
	<path d="m118.02667 2.72791c-1.51316-.38441-3.10805-.58459-4.79303-.58459l10.61265.0389c-1.93037 0-3.87702.17993-5.81962.54408" fill="#3092c4"/>
	<path d="m156.28344 92.61226c-1.05511-1.00602-2.05691-2.11022-3.04268-3.28806-4.53954 3.21442-9.06264 5.65185-13.55698 7.23864 1.59887.78129 3.27559 1.36207 5.05479 1.72193 1.37802.28135 2.80547.42531 4.30622.42531 5.04264 0 9.02992-.59706 12.42427-2.22477-1.8688-1.01031-3.58246-2.31898-5.18562-3.87305" fill="#1969bc"/>
	<path d="m111.74009 4.48061c22.01867 11.51636 23.93259 63.66745 41.50165 84.84359 1.17784-.83006 2.34337-1.70945 3.5089-2.63802-10.99698-24.3618-14.14198-77.85033-38.72065-83.96022-2.09798.39259-4.19192.97369-6.2899 1.75465" fill="url(#d)"/>
	<path d="m94.890832 14.70862c16.881988 23.11883 22.926498 71.13941 44.793758 81.85422 4.4945-1.58679 9.01768-4.02422 13.55715-7.23864-17.56906-21.17614-19.48298-73.32723-41.50165-84.84359-5.59052 2.07749-11.20146 5.54127-16.849258 10.22801" fill="url(#e)"/>
	<path d="m77.521718 20.01301c-2.646035 5.98335-5.349266 13.84749-8.616911 24.11253 6.49843-9.15687 12.976445-17.04564 19.4176-23.43753-.887413-2.72794-1.840284-5.24298-2.866795-7.48436-2.633722 2.01633-5.28794 4.28622-7.933894 6.80936" fill="url(#f)"/>
	<path d="m87.801981 11.47849c-.777073.55615-1.558035 1.12478-2.34321 1.72581 1.02635 2.24113 1.975089 4.75641 2.862744 7.48403 1.169337-1.14511 2.330735-2.25329 3.492213-3.31261-1.24719-2.14303-2.572233-4.12241-4.011747-5.89723" fill="#2b74b1"/>
	<path d="m90.574072 9.62897c-.924273.58499-1.844253 1.20231-2.772739 1.84846 1.439514 1.77491 2.764557 3.75429 4.016041 5.90153 1.026592-.92848 2.052941-1.824 3.075402-2.67066-1.357772-1.8688-2.801256-3.58254-4.318704-5.07933" fill="#125a9e"/>
	<path d="m240.76012.01074c-12.45311 48.02447-38.46319 86.59791-60.26913 96.32308h-.0413c-.39664.17993-.78931.34357-1.17777.50284-.0535.0324-.10207.0365-.14331.0559-.11455.0462-.22084.0818-.33539.1276-.0535.0324-.10208.0429-.15109.0624-.1839.0656-.36399.12111-.54392.19305-.0778.0324-.15117.0527-.22513.0786-.0818.0324-.17604.0624-.26994.0884-.0817.0324-.16745.0559-.26175.0915-.0778.0324-.15959.0462-.23291.0786-.15968.0462-.30655.0851-.46623.14064-.0656 0-.12662.0357-.19629.0527-.0982.0324-.20877.0559-.31506.0851-.0737.0324-.1348.0429-.21266.0591-.11058.0324-.23331.0624-.34357.0884-.1472.0324-.27804.0624-.41714.0916.9856.36407 2.01212.54797 3.12045.54797 20.67718 0 41.52579-37.056 76.02204-98.67868h-13.54484z" fill="url(#g)"/>
	<path d="m64.414437 4.09386c.01296 0 .02916-.0324.03727-.0324.0162 0 .04132 0 .04942-.0324h.02592c.114471-.0389.220841-.0851.335312-.1276.02916 0 .04456 0 .06562-.0324.02917 0 .05752-.0324.08604-.0365.122734-.0389.245387-.0851.359939-.12759h.01944c.274147-.0817.527554-.18317.793357-.27804.03727 0 .07372-.0324.11844-.0324.110583-.0357.225135-.0753.339443-.10143.05347-.0324.10637-.0324.155383-.0494.11844-.0356.233316-.0753.343574-.10143.04942 0 .09422-.0324.130836-.0356.380354-.10467.756577-.20286 1.136932-.29448.05347 0 .09819-.0324.155382-.0357.110258-.0324.212739-.0494.331261-.0656.04942-.0324.106369-.0324.163645-.0494.110258-.0324.216547-.0356.335312-.0624h.07777c.229022-.0462.462177-.0851.6912-.12759h.139017c.110259-.0324.208446-.0357.319028-.0559.06076 0 .122653-.0324.179929-.0324.102076 0 .204476-.0324.306552-.0462.05347 0 .106289 0 .167858-.0324.241094-.0324.490694-.0454.744264-.0656-.715668-.0689-1.45183-.11455-2.200225-.11455-23.286376-.00001-55.369576 43.20688-69.822356 99.16127h2.7850451c4.6253772-8.24863 8.7804519-16.05169 12.5797269-23.37637 10.121851-39.63252 30.737709-66.6611 49.051123-73.82189" fill="url(#h)"/>
	<path d="m77.521961 20.01301c2.646117-2.52314 5.300172-4.79303 7.933894-6.80903-.601033-1.31687-1.222643-2.53562-1.889459-3.65222-2.130552 2.58463-4.077205 5.99543-6.044435 10.46125" fill="#0d82ca"/>
	<path d="m79.434913 4.42139c1.521337 1.27595 2.882997 3.03053 4.130511 5.13264.392588-.48259.789469-.92848 1.20239-1.34562-1.729782-1.61531-3.598906-2.94035-5.627382-3.93819.08182.0454.163564.0818.248628.1178 0 0 .0324.0324.04618.0324" fill="#0d82ca"/>
	<path d="m15.363727 77.91413c21.233393-40.91698 31.293902-66.81259 49.051115-73.82221-18.309314 7.16532-38.929264 34.19357-49.051115 73.82221" fill="url(#i)"/>
	<path d="m84.766437 8.20736c-.412841.42143-.805428.86311-1.202309 1.3457.666734 1.11627 1.288101 2.33106 1.893671 3.65189.785175-.60104 1.566137-1.16966 2.34321-1.72581-.960891-1.18603-1.97517-2.28602-3.034572-3.27178" fill="#127bca"/>
	<path d="m25.003002 101.1066c-.130868.0324-.261736.0324-.384429.0462h-.07364c-.110582 0-.225094.0324-.32717.0324h-.05331c-.265665.0324-.527562.0324-.781124.0527h-.08179c21.491049-.60142 31.314336-11.36144 36.189192-26.96747 3.705195-11.83117 6.747949-21.79776 9.4144-30.16094-9.001317 12.66974-18.043545 27.7726-27.134785 44.69153-4.384097 8.15473-11.0502 11.56124-16.767514 12.28954" fill="url(#j)"/>
	<path d="m25.003002 101.09842c5.717314-.72831 12.383425-4.13084 16.767514-12.28954 9.091232-16.91472 18.137511-32.0218 27.130645-44.69153 3.271696-10.26924 5.970876-18.12917 8.620962-24.11252-17.924861 17.06199-35.919287 45.43198-52.519121 81.0854" fill="url(#k)"/>
	<path d="m15.362714 77.9151c-3.799112 7.32468-7.9541793 15.12774-12.5797267 23.37637h8.1017357c1.07149-8.19176 2.592835-16.00292 4.477991-23.37248" fill="#05a1e6"/>
	<path d="m71.277262 2.32552c-.06562 0-.114552.0324-.171747.0324-.09819.0324-.200587.0324-.302663.0429-.06076 0-.11844 0-.179929.0324-.110582.0324-.212658.0356-.319028.0559-.04942 0-.09811 0-.139018.0324-.233316.0389-.462177.0818-.691199.12103h-.07777c-.11844.0324-.225053.0494-.335311.0656-.05752.0324-.114552.0324-.167858.0454-.110259.0324-.220841.0462-.327129.0656-.05752.0324-.102076.0324-.155464.0356-.380273.0916-.756577.18981-1.136931.29448-.04051 0-.08174.0324-.130836.0389-.114471.0324-.225053.0656-.343494.10143-.04942.0324-.106369.0324-.155463.0454-.114471.0324-.229023.0656-.339443.10143-.04456 0-.08174.0324-.122653.0324-.261755.0981-.519375.19629-.789309.27811-.114471.0357-.237205.0817-.359858.12428-.04942.0324-.09422.0397-.15117.0624-.114552.0356-.229023.0818-.335393.12435-.04051.0324-.08174.0357-.110258.0527-17.757172 7.00962-27.817681 32.90523-49.051074 73.82222-1.885327 7.36956-3.410763 15.18072-4.478153 23.37215h1.136915c3.202188 0 4.105997-.0324 7.790761-.0324h.188119.54801.188128.05331.18812.106329.07364.147225.458045.458038.384421.102084.674787c.253553-.0324.515297-.0324.781124-.0526h.04909c.110582 0 .22084-.0324.327169-.0324h.07753c.118433 0 .253554-.0324.384422-.0462 16.599841-35.65347 34.594218-64.02346 52.519079-81.08545 1.9712-4.46583 3.913803-7.87662 6.040466-10.45704-1.243301-2.10203-2.605124-3.86057-4.126461-5.13685s-.04132 0-.04456-.0324c-.08603-.0357-.167453-.0786-.253488-.12104-.08611-.0462-.159673-.0818-.249354-.12759-.07777-.0324-.167778-.0753-.245388-.11779-.106288-.0324-.192324-.0786-.286217-.12112-.07777-.0324-.147281-.0656-.225135-.0981-.159676-.0624-.318946-.1276-.470278-.1963-.06967-.0324-.134805-.0494-.200587-.0753-.110259-.0397-.237205-.0916-.351676-.14072-.05752-.0324-.122734-.0389-.188112-.0624-.167534-.0559-.33126-.11447-.486724-.16688h-.04051c-.188188-.0624-.372168-.10791-.564411-.16033-.04456-.0324-.08182-.0324-.126623-.0389-.167858-.0462-.315058-.0916-.47441-.13416-.04051 0-.07777-.0324-.110258-.0324-.384405-.10142-.781124-.18317-1.181894-.25843-.04132 0-.08174-.0324-.122653-.0324-.171747-.0324-.339443-.0624-.51119-.0818-.04132-.0324-.06562-.0324-.102076-.0324-.204476-.0324-.404901-.0559-.605327-.0786h-.106288c-.163565-.0324-.314734-.0357-.466228-.0527-.257782.0324-.503008.0462-.744344.0689" fill="url(#l)"/>
	<path d="m192.11785 26.59731c-4.08555 13.08687-7.39411 23.88351-10.27314 32.76622 11.20964-15.42611 22.25167-34.83163 32.7663-57.22613-12.26499 3.85207-18.80838 12.66965-22.49316 24.45991" fill="url(#m)"/>
	<path d="m182.20044 95.51591c-.57252.29116-1.14503.56831-1.70945.81791 21.80594-9.72517 47.81602-48.29861 60.26913-96.32308h-2.52347c-28.61108 51.10805-37.81274 85.32196-56.03621 95.50517" fill="url(#n)"/>
	<path d="m167.96149 91.22208c4.74394-5.79086 8.60849-15.63447 13.88444-31.85823-6.08567 8.35922-12.21161 15.54488-18.34216 21.40517 0 .0324 0 .0324-.0324.0527 1.33752 4.00786 2.80547 7.54519 4.4783 10.39975" fill="#079ae1"/>
	<path d="m167.96149 91.22208c-1.61555 1.97128-3.32476 3.47229-5.22661 4.58467-.41713.24215-.83816.4702-1.26777.67889 2.00823 1.08362 4.19994 1.80763 6.65366 2.09782.35961.0357.71558.0689 1.08791.0949h.0656c.16689 0 .34358 0 .52351.0324h.0721.5359.57681.18001.40895c.0656 0 .13408 0 .19953-.0324.1276 0 .26176 0 .39259-.0324h.0462.1472c.13416 0 .28136-.0324.42531-.0462h.0324c.0429 0 .0883-.0324.13084-.0324.15052-.0324.3076-.0462.45415-.0689h.13416c.1668-.0324.33928-.0527.51103-.0851h.0324.0494c.34357-.0656.67889-.13084 1.01817-.2159-2.81365-1.03064-5.16926-3.45989-7.19773-6.9197" fill="#1969bc"/>
	<path d="m127.75969 98.71073c2.04087 0 4.10208-.19953 6.17138-.59706 1.91401-.34747 3.8319-.87948 5.75401-1.55018 1.59919.78129 3.27591 1.36207 5.05081 1.72192 1.37811.28136 2.80944.42532 4.31053.42532z" fill="#1e5cb3"/>
	<path d="m149.04674 98.71073c5.03842 0 9.02991-.59706 12.42037-2.22477 2.0079 1.08363 4.19994 1.80764 6.65366 2.09815.35993.0357.7159.0689 1.08791.0949h.0656c.16689 0 .34358 0 .52351.0324h.0753.5359-21.37673z" fill="#1e5cb3"/>
	<path d="m170.42177 98.71073h.58078.17993.40506c.0689 0 .13408 0 .19953-.0324.1276 0 .26176 0 .39688-.0324h.0429.15052c.13408 0 .28136-.0324.42135-.0454h.0357c.0429 0 .0851-.0324.12759-.0324.15052-.0324.30761-.0454.45383-.0689.0494 0 .0883 0 .14064-.0324.16689-.0324.33961-.0494.51143-.0817h.0324.0494c.34357-.0656.67888-.13092 1.01816-.21598.98544.36383 2.01212.54805 3.12021.54805l-7.86026.0324z" fill="#1d60b5"/>
	<path d="m163.48449 80.82233v-.0324c-2.2451 2.14691-4.48624 4.11422-6.7234 5.89302-1.16966.92848-2.33503 1.80763-3.51279 2.63801.98544 1.17776 1.98756 2.28197 3.04267 3.28806 1.60316 1.55375 3.3165 2.86275 5.18562 3.87273.42532-.20941.85064-.43779 1.26356-.67888 1.90574-1.11239 3.61527-2.61315 5.23082-4.58435-1.67283-2.85456-3.14086-6.3923-4.4783-10.40008" fill="#175fab"/>
	<path d="m230.24556.01074h-10.60852-1.05519-.99783-.0389c-.68707.0324-1.35348.0559-2.01211.0982-.31077.66681-.62979 1.33355-.93667 2.00425-10.5143 22.39449-21.55632 41.80002-32.76597 57.22613-5.27157 16.22343-9.14033 26.06736-13.88435 31.85831 2.02848 3.4598 4.38821 5.89294 7.19368 6.92358.0818-.0324.1472-.0324.22084-.0494h.0454c.0494 0 .10207-.0324.15546-.0324.11447-.0324.23721-.0527.35168-.0883.0737-.0324.1348-.0357.20877-.0591.10629-.0324.21654-.0559.31473-.0818.0656-.0324.13084-.0429.1963-.0559.16356-.0527.31076-.0916.46622-.14072.0737-.0324.1515-.0591.23324-.0786.09-.0324.17993-.0559.26175-.0949.0942-.0324.18811-.0494.26993-.0851.0737-.0324.15117-.0527.22085-.0818.18381-.0656.36399-.12103.54797-.19305.0494 0 .0982-.0454.15149-.0559.11026-.0462.22481-.0818.33539-.13092.0405-.0324.0899-.0357.14291-.0527.38448-.16032.78112-.32388 1.17784-.50284h.0413c.56433-.24863 1.13693-.52772 1.70539-.8179 18.22752-10.18323 27.42934-44.39714 56.04042-95.50519h-7.99117z" fill="url(#o)"/>
	<path d="m72.022417 2.25649c.04537 0 .08603 0 .130835.0324.110258 0 .220841 0 .331261.0356h.110582c.200264.0324.40077.0494.605246.0786.03727 0 .06967 0 .102076.0324.167534.0324.339443.0591.51119.0851.03727 0 .08612.0324.126946.0324.392669.0786.793438.16032 1.177843.26175.03646 0 .07372.0324.10637.0324.163565.0389.310765.0883.474329.13407.04942 0 .08571.0324.130917.0397.192324.0494.372172.0982.560283.16032.0081 0 .01944 0 .04132.0324.159271.0486.322916.11123.490693.1668.06562.0324.126623.0462.188112.0624.114552.0494.241498.0981.351757.14396.06562 0 .130835.0454.200182.0689.15117.0689.310845.13084.466228.1963.08182.0324.151169.0689.229023.0981.09001.0462.183898.0884.282086.12112.08174.0389.171747.0817.249276.11771.08603.0462.167534.0818.2496.12759 2.028475.99792 3.897438 2.32717 5.627382 3.93851.637972-.6707 1.304544-1.27206 1.995744-1.81184-3.782967-2.68282-8.068861-4.21234-13.013226-4.21234-.572597 0-1.145114.0324-1.725812.0753" fill="#7dcbec"/>
	<path d="m84.766518 8.20736c1.059241.98544 2.073438 2.08575 3.034491 3.27178.928324-.64616 1.848547-1.26785 2.77282-1.84855-1.210572-1.21057-2.486521-2.29841-3.815696-3.23508-.691119.5359-1.35364 1.14114-1.991615 1.81185" fill="#5ec5ed"/>
	<path d="m72.021443 2.25582c.580729-.0491 1.153278-.0695 1.725827-.0695 4.944372 0 9.230311 1.52953 13.013226 4.20824 3.991485-3.14902 8.817257-4.24913 15.520174-4.24913h-32.459451c.748403 0 1.480448.045 2.200224.11042" fill="url(#p)"/>
	<path d="m102.28067 2.1454c-6.702917 0-11.528689 1.10011-15.520174 4.24913 1.325042.93653 2.601009 2.02437 3.811541 3.23491 5.557817-3.53345 11.062463-5.87272 16.489413-6.89513 2.06936-.38852 4.13463-.58891 6.17127-.58891z" fill="url(#q)"/>
	<path d="m181.84471 59.37171c2.88316-8.89089 6.18346-19.68324 10.27719-32.7744 3.68891-11.79447 10.22007-20.61172 22.48482-24.45991.32397-.65863.62987-1.33751.94493-2.00425-19.99441 1.19842-29.33922 11.36915-34.04233 26.43151-8.22424 26.29631-13.20547 43.34194-18.00255 54.20403 6.12626-5.8564 12.25252-13.04595 18.33794-21.39698" fill="url(#r)"/>
</svg>