<svg viewBox="0 0 74.695999 66.103996" xmlns="http://www.w3.org/2000/svg">
	<g fill="#df1f1f" stroke="#df1f1f" transform="matrix(1 0 0 .99999741 -3.237392 -16.94787)">
		<path d="m54.341278 23.416146v8.952351c-2.858078-2.661838-5.912242-4.651247-9.162496-5.968234-3.222329-1.316877-6.654761-1.975343-10.297304-1.975401-7.173114.000058-12.665004 2.199615-16.475684 6.598681-3.810717 4.371145-5.716067 10.703628-5.716054 18.997472-.000013 8.265884 1.905337 14.598367 5.716054 18.997472 3.81068 4.371107 9.30257 6.556654 16.475684 6.55665 3.642543.000004 7.074975-.658461 10.297304-1.975401 3.250254-1.316925 6.304418-3.306334 9.162496-5.968234v8.86829c-2.970159 2.017433-6.122391 3.530506-9.456705 4.539223-3.306388 1.00871-6.808869 1.51307-10.507453 1.51307-9.498761 0-16.980059-2.900055-22.443915-8.700172-5.4638833-5.828119-8.1958173-13.771743-8.1958133-23.830898-.000004-10.087112 2.73193-18.030739 8.1958133-23.8309 5.463856-5.828072 12.945154-8.742138 22.443915-8.7422 3.754625.000062 7.285124.50442 10.591511 1.513073 3.334317.980758 6.458528 2.465808 9.372647 4.455158"/>
		<g font-family="Bitstream Vera Sans" font-size="40">
			<text x="25.666044" y="62.539062">+</text>
			<text x="57.233311" y="62.539062">+</text>
		</g>
	</g>
</svg>