<svg viewBox="0 0 362.73372 411.37969" xmlns="http://www.w3.org/2000/svg">
	<path fill="#264de4" d="m0-.00027h362.734l-33.046 370.199-148.543 41.181-148.134-41.123z"/>
	<path fill="#2965f1" d="m329.637 30.27373h-148.27v349.629l120.03-33.277z"/>
	<g fill="#ebebeb">
		<path d="m79.747 213.00673h101.62v-45.41h-105.69z"/>
		<path d="m181.367 121.09573v-45.411h-.157-113.711l4.128 45.411z"/>
		<path d="m181.367 332.77873v-47.246l-.199.053-50.574-13.656-3.233-36.217h-24.575-21.01l6.362 71.301 93.02 25.823z"/>
	</g>
	<path fill="#fff" d="m181.21 75.68473v45.411h63.988l-4.132 46.501h-59.856v45.41h55.918l-5.271 58.894-50.647 13.67v47.244l93.094-25.801.683-7.672 10.671-119.551 1.108-12.194 8.198-91.912z"/>
</svg>