<svg viewBox="0 0 113.928 113.92299" xmlns="http://www.w3.org/2000/svg">
	<path d="m111.77988 51.887359-49.745005-49.7387681c-2.8622-2.86479249-7.5082-2.86479249-10.374 0l-10.329 10.3299731 13.102 13.101965c3.0459-1.028397 6.5371-.338879 8.9639 2.088394 2.4394 2.442394 3.124 5.963384 2.0698 9.019476l12.628 12.627967c3.0551-1.052797 6.58-.372619 9.0195 2.071194 3.4106 3.409591 3.4106 8.934477 0 12.344968-3.4111 3.411591-8.936 3.411591-12.349 0-2.5645-2.566494-3.1988-6.334484-1.8999-9.494175l-11.777-11.776969-.001 30.990918c.8315.411619 1.6162.960997 2.3091 1.650895 3.4096 3.409191 3.4096 8.933077 0 12.347968-3.4106 3.409091-8.938 3.409091-12.345 0-3.4101-3.414591-3.4101-8.938477 0-12.347968.84275-.841247 1.8179-1.477996 2.8584-1.904794v-31.278918c-1.041-.424998-2.015-1.056997-2.859-1.904994-2.583-2.580994-3.2051-6.371984-1.8804-9.543875l-12.916-12.917966-34.106 34.10491c-2.8657 2.866992-2.8657 7.51298 0 10.377972l49.742 49.738868c2.8638 2.86479 7.5082 2.86479 10.376 0l49.511995-49.503868c2.86481-2.866193 2.86481-7.513581 0-10.378973" fill="#f05133" stroke-width=".999999"/>
</svg>