<svg viewBox="0 0 256.775 354.41699" xmlns="http://www.w3.org/2000/svg">
	<path d="m81.486328 272.1626c-6.77558 2.24246-16.399824 4.51487-18.03125 12.62304.257435 7.96549 9.334324 11.28126 15.600397 13.7589 29.076205 9.1581 60.946555 7.50545 89.968345-1.07356 6.22026-1.8781 12.23808-4.34776 18.19884-6.91776-8.6108-2.84286-16.66394-7.67098-24.63868-11.19726-25.89551 5.46692-52.67609 6.81577-78.695308 1.55664-1.969527-.31566-5.595064-2.22125-2.289063-4.04297 3.484998-3.14231 9.120273-6.31747-.113281-4.70703z" fill="#5382a1"/>
	<path d="m73.130859 234.37744c-7.205924 2.85542-16.831036 5.22349-19.791015 13.27539-.961475 7.56292 7.966976 10.82854 13.707031 12.8418 28.450795 8.0507 58.716595 6.54141 87.720765 2.62705 13.46807-1.97375 26.73169-5.15033 39.75384-9.08994-7.284-2.35379-14.59889-5.46953-20.02343-11.05078-32.52653 6.58082-66.35318 9.04738-99.203128 3.41797-3.197702-.2741-6.101488-3.67241-2.744141-6.21485 1.586913-1.95107 7.165927-6.10916 5.554223-6.62317-1.658048.27218-3.316096.54435-4.974145.81653z" fill="#5382a1"/>
	<path d="m204.67773 75.592278c-24.38186 7.102276-49.51138 16.88142-67.24218 35.779302-10.6279 11.02631-14.61143 28.17046-8.14195 42.34124 3.46286 10.09152 11.79967 17.22247 16.89585 26.29157 4.80027 10.09957-1.58477 21.07875-8.99848 27.87669-5.67296 5.43109 2.59497 3.04086 5.51559.90743 12.48544-7.77247 26.2452-19.35383 26.31102-35.37201-.34992-17.44775-21.17207-27.05517-19.19531-45.05468 3.41207-14.0723 16.69131-22.58587 27.43554-30.837901 10.11241-7.7608 22.01128-13.041005 31.85735-21.009605 4.09124-2.386418-3.92738-.410473-4.43743-.922036z" fill="#e76f00"/>
	<g fill="#5382a1" transform="translate(-.516877 6.611816)">
		<path d="m233.36401 295.44169s9.7671 8.04771-10.75665 14.27363c-39.0265 11.82254-162.432466 15.39258-196.714124.47104-12.323374-5.36111 10.786444-12.80094 18.055913-14.36207 7.581324-1.64399 11.913775-1.33771 11.913775-1.33771-13.704844-9.65446-88.582517 18.95703-38.034153 27.15089 137.852739 22.35578 251.292389-10.06685 215.535239-26.19578"/>
		<path d="m88.900887 190.47982s-62.772131 14.90944-22.229178 20.32361c17.118487 2.2919 51.243751 1.77338 83.030571-.88995 25.97795-2.19136 52.06296-6.85056 52.06296-6.85056s-9.16015 3.92285-15.78729 8.448c-63.744 16.76474-186.88558636 8.96559-151.434706-8.18269 29.980858-14.49239 54.357643-12.84841 54.357643-12.84841"/>
		<path d="m201.50644 253.42231c64.79872-33.67191 34.83834-66.03031 13.9264-61.67086-5.12558 1.06682-7.41096 1.99121-7.41096 1.99121s1.90277-2.98077 5.53704-4.27101c41.37053-14.54452 73.18714 42.89722-13.35482 65.64771 0 .00093 1.00259-.89554 1.30234-1.69705"/>
	</g>
	<path d="m159.97852 7.4575125c5.16803 17.4796765.3002 36.9568835-11.99024 50.3203125-18.96034 22.456009-48.032477 34.958089-63.919921 60.292975-8.035519 13.31139-2.609606 29.81896 5.953125 41.41211 11.712356 16.07908 26.274556 30.06199 41.800786 42.39062-6.06718-21.91945-28.51106-36.62713-29.9375-60.07812-.25703-18.1494 14.7219-32.18246 28.03002-42.771757 18.80603-15.305988 37.9969-34.112925 42.58716-58.947 2.77649-14.74462-2.95937-30.3521268-14.34179-40.07617178.60612 2.48567708 1.21224 4.97135418 1.81836 7.45703128z" fill="#e76f00"/>
	<path d="m252.91992 318.77588c-8.77346 9.4187-22.58668 11.99458-34.34765 15.53125-49.41749 11.44805-100.65769 12.72555-151.072555 8.50401-9.659242-.83137-19.064438-2.43026-28.669637-3.7169 10.551023 10.24254 26.175513 10.65405 39.851462 12.80237 42.448 3.92806 85.55545 3.60212 127.67393-3.38636 16.05368-3.4451 34.00644-6.52681 45.98633-18.7539 4.00743-4.27204 5.13792-10.38392 4.0332-16.0293-1.15169 1.68294-2.30339 3.36589-3.45508 5.04883z" fill="#5382a1"/>
</svg>