<svg viewBox="0 0 88.907249 120.54835" xmlns="http://www.w3.org/2000/svg">
	<path fill="#3174b9" fill-rule="evenodd" d="m 28.631246,93.225 c 0,0 -4.604,2.679 3.28,3.584 9.554,1.091 14.434,0.934 24.959,-1.057 0,0 2.771,1.735 6.639,3.236 -23.601,10.113 -53.413,-0.585 -34.878,-5.763 z m -2.885,-13.197 c 0,0 -5.165,3.823 2.726,4.639 10.206,1.054 18.262,1.14 32.211,-1.544 0,0 1.926,1.955 4.957,3.023 -28.531,8.345 -60.3069994,0.657 -39.894,-6.118 z" clip-rule="evenodd"/>
	<path fill="#ca3132" fill-rule="evenodd" d="m 50.056246,57.639 c 5.818,6.697 -1.525,12.72 -1.525,12.72 0,0 14.766,-7.621 7.984,-17.168 -6.332,-8.899 -11.189,-13.32 15.102,-28.566 -10e-4,-0.001 -41.27,10.303 -21.561,33.014 z" clip-rule="evenodd"/>
	<path fill="#3174b9" fill-rule="evenodd" d="m 81.269246,102.987 c 0,0 3.408,2.81 -3.754,4.983 -13.619,4.125 -56.694,5.369 -68.6589994,0.164 -4.298,-1.872 3.7659994,-4.467 6.3029994,-5.015 2.646,-0.572 4.156,-0.468 4.156,-0.468 -4.783,-3.368 -30.916,6.615 -13.2719994,9.479 48.1119994,7.801 87.7039994,-3.512 75.2259994,-9.143 z m -50.423,-36.634 c 0,0 -21.9079994,5.205 -7.757,7.097 5.977,0.799 17.883,0.615 28.982,-0.316 9.068,-0.761 18.17,-2.389 18.17,-2.389 0,0 -3.195,1.371 -5.51,2.949 -22.251,5.853 -65.22899944,3.127 -52.855,-2.856 10.462,-5.061 18.97,-4.485 18.97,-4.485 z m 39.304,21.967 c 22.617,-11.75 12.16,-23.044 4.859,-21.522 -1.785,0.373 -2.586,0.695 -2.586,0.695 0,0 0.666,-1.042 1.932,-1.49 14.441,-5.075 25.545,14.972 -4.656,22.911 -0.001,0 0.347,-0.314 0.451,-0.594 z" clip-rule="evenodd"/>
	<path fill="#ca3132" fill-rule="evenodd" d="m 56.515246,0 c 0,0 12.523,12.531 -11.881,31.794 -19.571,15.458 -4.462,24.269 -0.006,34.34 -11.426,-10.307 -19.807,-19.382 -14.185,-27.826 8.254,-12.395 31.125,-18.406 26.072,-38.308 z" clip-rule="evenodd"/>
	<path fill="#3174b9" fill-rule="evenodd" d="m 33.071246,120.17 c 21.706,1.388 55.045,-0.771 55.836,-11.044 0,0 -1.518,3.894 -17.941,6.983 -18.529,3.488 -41.386,3.082 -54.938,0.845 0,0 2.777,2.298 17.043,3.216 z" clip-rule="evenodd"/>
</svg>