<svg viewBox="0 0 397.31799 450.168" xmlns="http://www.w3.org/2000/svg">
	<g stroke-width="1.333333">
		<path fill="#fff" d="m1.33372-.00033621.0625 5.00000001c.03444 2.75 8.00162 93.8006602 17.70507 202.3339862l17.64258 197.33398 79.29492 22.20117c43.61211 12.21062 80.19493 22.26265 81.29493 22.33985 1.1.0771 38.16591-9.87392 82.36914-22.11329 70.87044-19.6232 80.43786-22.57875 80.94531-25.00781.707-3.38418 35.41255-394.8990462 35.37695-399.0878862l-.0254-3.00000001h-197.33397z"/>
		<path fill="#eaebec" d="m116.66667 428.19695-80-22.36163-1.04545-5.91717c-.92931-5.25978-35.62122-392.7342962-35.62122-397.8539162 0-1.85291001 20.25565-2.06327001 198.66667-2.06327001 188.32331 0 198.66587.12147 198.65133 2.33333001-.0628 9.5533502-35.97164 402.1585762-36.85409 402.9400162-1.11511.98746-155.95653 44.12552-161.13057 44.89017-1.46667.21676-38.66667-9.66863-82.66667-21.96753zm132.44436-79.01302c26.88893-7.41602 49.27699-13.86602 49.75121-14.33333.47423-.46731 3.62071-32.34964 6.99216-70.84964 3.37146-38.5 6.47022-72.55 6.88612-75.66667l.75622-5.66666h-58.08171-58.08169v24.66666 24.66667h31.35873 31.35873l-.6238 3c-.34309 1.65-1.67673 15.82935-2.96364 31.50967-1.36361 16.6149-2.98028 29.1501-3.87486 30.04469-.84427.84427-13.62206 4.75671-28.3951 8.69431l-26.86006 7.15929v25.12935c0 17.15185.45852 25.12936 1.44436 25.12936.7944 0 23.4444-6.06767 50.33333-13.4837zm63.62125-197.5163c-.88136-6.53338-8.73228-94.162826-8.73228-97.466956 0-2.00692-4.61566-2.19971-52.66666-2.19971h-52.66667v25.79372 25.793726l23.66667.91218c13.01666.50169 26.71548 1.26522 30.4418 1.69674l6.77512.78459 1.64474 20.17619c.9046 11.0969 1.98248 22.42618 2.39528 25.17618l.75055 5h24.57795 24.57796z"/>
		<path fill="#f0be25" d="m116.0386 426.86873-79.29473-22.2011-17.64265-197.33334c-9.70346-108.533326-17.67083-199.5833262-17.70527-202.3333262l-.0626-5.00000001h197.33332 197.33333l.0256 3.00000001c.0356 4.18884-34.67072 395.7037862-35.37772 399.0879662-.50745 2.42906-10.07454 5.38483-80.94498 25.00803-44.20323 12.23937-81.26951 22.19028-82.36951 22.11315-1.1-.0772-37.68263-10.13076-81.29473-22.34138zm133.13264-76.74193c27.41084-7.62076 50.2269-14.48533 50.70234-15.2546.47542-.76927 3.75001-34.28 7.27684-74.46829 3.52682-40.18828 6.70121-74.11962 7.05418-75.40295.60635-2.20456-4.05766-2.33333-84.51377-2.33333h-85.15553l3.62565-38.33334c1.99411-21.08333 3.67367-38.38792 3.73235-38.45464.0587-.0667 12.5567-.46537 27.77337-.8859 24.95099-.68958 76.40477 1.30088 78.12613 3.02224.64308.64308 4.87387 42.15037 4.87387 47.81645 0 2.79381.37699 2.83519 25.83621 2.83519h25.83623l-.60884-5.66667c-.33487-3.11667-2.52341-27.26667-4.86345-53.666666l-4.25462-48-99.63942-.34182c-79.26871-.27194-99.64168.00065-99.65038 1.33333-.007.92135-.58701 6.77516-1.29109 13.00849-1.70375 15.08355-14.697967 160.822506-14.697967 164.847586v3.15241h84.783857 84.78387l-.75581 5c-.4157 2.75-1.73364 16.7-2.92876 31s-2.55774 26.3694-3.02806 26.82091c-1.24218 1.19249-51.11936 14.51707-54.22958 14.48731-1.44404-.0138-14.32552-3.22779-28.62552-7.14216l-26-7.11703-.95343-11.19119c-.52439-6.15514-1.32215-14.94117-1.7728-19.5245l-.81936-8.33334h-25.2272-25.227207l.0559 5c.1044 9.35062 6.16783 72.33478 7.04834 73.21528 1.01833 1.01835 97.912237 28.25511 100.895817 28.36171 1.1.0393 24.42706-6.16372 51.83791-13.78448z"/>
		<path fill="#e4a126" d="m116.0386 426.86873-79.29473-22.2011-17.64265-197.33334c-9.70346-108.533326-17.67083-199.5833262-17.70527-202.3333262l-.0626-5.00000001h197.33332 197.33333l.0256 3.00000001c.0356 4.18884-34.67072 395.7037862-35.37772 399.0879662-.50745 2.42906-10.07454 5.38483-80.94498 25.00803-44.20323 12.23937-81.26951 22.19028-82.36951 22.11315-1.1-.0772-37.68263-10.13076-81.29473-22.34138zm147.87439-29.70081c34.88119-9.62484 64.07555-18.17484 64.87636-19 1.24625-1.28417 31.37211-331.454206 31.25089-342.500286l-.0402-3.66667h-80.66666-80.66667v9.33333 9.33334h-46.66671c-36.43861 0-46.66906.36529-46.6776 1.66666-.007.91667-.58701 6.76667-1.29109 13-1.70375 15.08355-14.697967 160.822506-14.697967 164.847586v3.15241h54.666657 54.66667v38.66667c0 30.05784-.37107 38.66108-1.66667 38.64155-.91666-.0139-13.36666-3.22779-27.66666-7.14216l-26-7.11703-.95343-11.19119c-.52439-6.15514-1.32215-14.94117-1.7728-19.5245l-.81936-8.33334h-25.2272-25.227207l.0559 5c.15972 14.30148 6.3465 72.67926 7.79746 73.576.8819.54504 24.075687 7.2095 51.541737 14.80988l49.93823 13.81888v25.06428c0 13.78536.41084 25.0643.91299 25.0643.50213 0 29.45213-7.87487 64.33333-17.49971zm-115.89253-252.47532c1.91684-20.88627 3.7464-38.21141 4.06569-38.50032.31928-.28889 10.93052-.81163 23.58052-1.16161l23-.63635v39.13665 39.13666h-27.06569-27.06568z"/>
	</g>
</svg>