<svg viewBox="0 0 1024 1024" xmlns="http://www.w3.org/2000/svg">
	<g fill-rule="evenodd">
		<path fill="#202020" d="m177.14 566.86s-3.3971 16.632-2.8572 34.286c5.3538 175.06 151.68 317.14 338.57 317.14s336.83-141.24 338.57-317.14c0.22-20.91-6.9-37.15-6.9-37.15s40 8.5714 111.43 60c62.857 11.429 40-40 40-40s-14.286-40-105.71-111.43c-91.429-71.429-88.968-95.546-98.929-139.66-10.039-44.457-23.928-103.2-23.928-103.2s-21.127-92.299-69.141-140.01c-48.014-47.713-114.01-77.131-186.81-77.131-73.337 0-139.77 29.92-187.86 78.273-48.094 48.353-74.997 121.73-74.997 121.73s-15.356 58.208-15.001 104.99c0.3477 45.802-10.713 86.435-102.14 157.86-91.429 71.429-105.71 111.43-105.71 111.43s-21.786 48.216 41.071 36.788c71.428-47.146 110.36-56.788 110.36-56.788z"/>
		<path fill="#f8f8f8" d="m786.71 659.55c0 86.755-30.552 167.17-79.941 224.06-49.389 56.893-336.44 56.893-385.83 0-49.389-56.893-79.95-135.48-79.95-222.23 0-173.51 122.24-314.33 272.87-314.33 149.51 0 271.12 140.29 272.86 312.5z"/>
		<path fill="#e0c000" d="m883.23 903.47c0 16.9-4.7789 23.005-13.42 37.655h-314.52c-8.6405-14.65-13.42-20.754-13.42-37.655 0-67.602 76.464-122.47 170.68-122.47 94.213 0 170.68 54.864 170.68 122.46"/>
		<path fill="#e0c000" d="m487.91 903.47c0 16.9-4.779 23.005-13.42 37.655h-314.52c-8.6405-14.65-13.42-20.754-13.42-37.655 0-67.602 76.464-122.47 170.68-122.47 94.213 0 170.68 54.864 170.68 122.46"/>
		<path fill="#f8f8f8" d="m507.18 269.02a77.137 97.386 0 1 1 0 -0.002" transform="matrix(1.2217 0 0 1.2251 -116.54 -48.017)"/>
		<path fill="#f8f8f8" d="m692.31 306.62a77.137 79.066 0 1 1 0 -0.001" transform="matrix(1.3219 0 0 1.1067 -206.15 -47.326)"/>
		<path d="m509.11 296.02a26.998 39.533 0 1 1 0 -0.00069" transform="translate(50.23 -3.0358)"/>
		<path stroke="#202020" stroke-width="2.3" d="m509.11 296.02a26.998 39.533 0 1 1 0 -0.00069" transform="translate(-7.7853 -3.8569)"/>
		<path fill="#e0c000" d="m513.15 491.77l9.5069-0.17903s10.343-11.44 46.297-49.028c23.969-27.238 31.596-45.215 31.596-45.215s4.9028-17.977-18.522-36.499c-30.744-15.265-46.297-15.253-69.027-15.164-22.73 0.0895-39.61 2.8133-69.027 15.343-29.417 12.529-24.514 37.588-24.514 37.588s2.179 11.985 38.133 49.573 55.557 43.58 55.557 43.58z"/>
	</g>
</svg>