<svg viewBox="0 0 275.67001 281.48999" xmlns="http://www.w3.org/2000/svg">
	<filter id="a" color-interpolation-filters="sRGB">
		<feGaussianBlur stdDeviation="2.7976342"/>
	</filter>
	<filter id="b" color-interpolation-filters="sRGB">
		<feGaussianBlur stdDeviation="1.4139868"/>
	</filter>
	<filter id="c" color-interpolation-filters="sRGB">
		<feGaussianBlur stdDeviation="1.3061249"/>
	</filter>
	<g transform="translate(-91.247594 -695.100053)">
		<g stroke="#000">
			<g stroke-width="3">
				<path d="m93.68465 877.31227c2.0233-6.07134 3.25262-11.94248 12.62691-19.86738 20.60734-11.17779 35.20681-24.09254 39.64849-49.41374 2.87344-10.13078 4.65882-17.6127 5.40307-27.48939 8.58674-113.95185 149.72023-106.24675 156.97895 2.0184l3.53553 28.01809c13.15218 21.95266 28.01849 33.53205 42.42641 47.88548 5.89856 8.21836 13.10625 16.94456 10.6066 21.90506-11.25863-5.87049-22.82177-15.06776-37.37565-15.79201-27.56255 133.63935-164.03653 122.80641-194.45436 2.03767-13.13198-1.21425-26.26397 5.54121-39.39595 10.69782z"/>
				<g fill="#fff">
					<path d="m232.85714 811.0366c63.82329-17.73209 137.29684 137.03763-.35714 150.56959-129.42856-9.07325-77.36525-160.21577.35714-150.56959z"/>
					<path d="m201.42857 747.99909c-31.55098-1.13417-45.90286 56.76513-.35714 68.08051 48.0686-5.33994 38.87267-64.58606.35714-68.08051z"/>
					<path d="m262.14286 806.71403c-49.98016-5.68409-30.39998-48.47919-.71429-47.54829 30.71307 7.11937 33.90991 46.1738.71429 47.54829z"/>
				</g>
				<path d="m231.78571 842.37525c-9.64348 1.13138-22.60185-18.97001-25.71429-32.41929 17.21318-18.54448 38.38197-18.31357 53.92858-.18011-2.00667 12.27814-16.71526 34.29222-28.21429 32.5994z" fill="#fc0"/>
				<path d="m235 771.41303c-1.36189-23.08465 53.14252-36.52802 53.21428 10.44621-21.22935-37.28639-45.71614-19.08533-53.21428-10.44621z" fill="#fff" opacity=".300412"/>
				<path d="m171.07143 777.17645c-8.31684-40.46292 57.85941-65.13246 63.21428-3.96235-17.00173-35.99348-53.1171-33.15948-63.21428 3.96235z" fill="#fff" opacity=".203416"/>
				<path d="m240.17857 772.67378c6.5824-.53478 11.47399 17.84044 0 21.25265-9.77557-3.58286-7.21653-21.16268 0-21.25265z"/>
				<path d="m223.39286 770.33239c9.75944 1.2007 11.10409 23.65407-1.42858 25.75531-11.04237-2.42681-8.72923-26.00755 1.42858-25.75531z"/>
			</g>
			<path d="m458.92857 506.29075c24.60071-35.84158 60.68785-18.74344 62.14286 12.85715 12.49927-27.268 35.4478-24.24456 54.64286-7.5-5.25338-80.69832-114.79909-77.46888-116.78572-5.35715z" fill="#fff" filter="url(#a)" opacity=".234568" stroke-width="2.987182" transform="matrix(1 0 0 1.0086001 -287.14286 246.35955)"/>
			<g stroke-width="3">
				<path d="m249.64286 972.05241c5.05952 3.03717 50.11904 4.95052 75.71428 0 4.89594-1.02421 13.37491-6.89473 7.85714-22.3333-7.03559-18.62177-45.01693-32.04633-63.57142-27.7365-23.0552 5.51341-38.61995 39.20326-20 50.0698z" fill="#fc0"/>
				<path d="m214.17313 972.10979c-5.21377 2.9798-51.64701 4.85698-78.02257 0-5.0452-1.00484-13.78267-6.76442-8.09666-21.91126 7.25008-18.26988 44.24647-31.44076 65.50948-27.21237 23.50022 4.95267 39.60874 38.56724 20.60975 49.12363z" fill="#fc0"/>
				<g fill="#fff">
					<path d="m238.16552 773.39033c3.04699-.3536 5.31131 11.79609 0 14.05224-4.52511-2.36899-3.34053-13.99275 0-14.05224z" opacity=".662551"/>
					<path d="m221.91892 775.01409c5.71422.54582 6.50152 10.75284-.83644 11.70805-6.46537-1.1032-5.11102-11.82272.83644-11.70805z" opacity=".596708"/>
				</g>
			</g>
		</g>
		<g fill="#fff">
			<path d="m160.35472 810.57825s6.19691 16.54985 22.72843 11.71666c-16.3719 9.46504-29.1177 26.54926-34.85026 67.75286-10.75896-29.54635-5.55899-52.97967 12.12183-79.46952z" opacity=".201646"/>
			<path d="m303.64664 814.1804s-5.99614 16.54984-21.99207 11.71665c15.84148 9.46505 28.17434 26.54926 33.72117 67.75287 10.41039-29.54636 5.37889-52.97968-11.7291-79.46952z" opacity=".201646"/>
			<path d="m253.57143 810.31618s-9.53143 26.17521-20.71429 26.65586c-11.86598.51-24.28571-26.29565-24.28571-26.29565s13.49847 19.37706 23.57143 19.09136c9.60593-.27247 21.42857-19.45157 21.42857-19.45157z" opacity=".44856" stroke="#fff"/>
		</g>
		<path d="m447.5 648.07647c9.44244-32.316 18.31524-47.05324 48.57143-63.21429-5.34801-4.92019-7.87212-8.903-8.92857-15-34.53105 28.95877-41.24277 57.29415-39.64286 78.21429z" fill="#666" filter="url(#b)" opacity=".485597" transform="matrix(1 0 0 1.0086001 -287.14286 246.35955)"/>
		<g fill="#fff">
			<path d="m541.44176 694.76818c3.59417 14.06023 72.27041 17.02018 74.24622 3.53554 1.48881-7.5753-39.48085-27.43197-55.80349-23.46811-24.02508 5.83436-18.44273 19.93257-18.44273 19.93257z" filter="url(#c)" opacity=".613169" transform="matrix(1 0 0 1.0086001 -287.14286 246.35955)"/>
			<path d="m541.44176 694.76818c3.59417 14.06023 72.27041 17.02018 74.24622 3.53554 1.48881-7.5753-39.48085-27.43197-55.80349-23.46811-24.02508 5.83436-18.44273 19.93257-18.44273 19.93257z" filter="url(#c)" opacity=".613169" transform="matrix(-.96892997 0 0 1.0086001 732.48934 245.63912)"/>
		</g>
	</g>
</svg>