<svg viewBox="0 0 163.88901 152.24699" xmlns="http://www.w3.org/2000/svg">
	<g transform="translate(-.042603)">
		<path d="m144.618 79.1998c11.536 6.787 19.289 19.3223 19.314 33.6772.037 21.607-17.448 39.154-39.055 39.191-21.608.038-39.1545-17.448-39.1923-39.055-.025-14.3543 7.6836-26.9166 19.1963-33.7439l11.242 18.9975c.282.4765.122 1.0888-.336 1.4003-4.251 2.8941-7.039 7.7761-7.029 13.3061.015 8.864 7.214 16.038 16.078 16.022 8.865-.015 16.038-7.214 16.023-16.078-.01-5.53-2.815-10.402-7.076-13.2815-.459-.3099-.621-.9216-.341-1.3991z" fill="#128dff"/>
		<path d="m58.2668 78.9714c-5.6491-3.1662-12.1641-4.9714-19.1006-4.9714-21.6074 0-39.1235975 17.5162-39.1235975 39.124 0 21.607 17.5161975 39.123 39.1235975 39.123 21.7136 0 39.6567-18.434 39.1109-40.127h-22.0242c-.5783 0-1.0337.489-1.0374 1.068-.0559 8.645-7.2692 15.986-16.0493 15.986-8.8646 0-16.0507-7.186-16.0507-16.05 0-8.865 7.1861-16.0511 16.0507-16.0511 2.3214 0 4.5278.4928 6.5201 1.3796.4869.2167 1.0679.0525 1.3384-.4066z" fill="#8bda67"/>
		<path d="m61.431 72.834c-11.5248-6.8072-19.2553-19.3561-19.2553-33.7105 0-21.6073 17.5162-39.1235 39.1235-39.1235 21.6078 0 39.1238 17.5162 39.1238 39.1235 0 14.3544-7.731 26.9033-19.256 33.7105l-11.2079-19.0171c-.2811-.477-.1205-1.089.3377-1.3998 4.2563-2.8864 7.0531-7.7634 7.0531-13.2936 0-8.8645-7.1861-16.0506-16.0507-16.0506-8.8645 0-16.0507 7.1861-16.0507 16.0506 0 5.5302 2.7968 10.4072 7.0531 13.2936.4583.3108.6188.9228.3377 1.3998z" fill="#ff2a44"/>
	</g>
</svg>