<svg viewBox="0 0 255.384 254.054" xmlns="http://www.w3.org/2000/svg">
	<linearGradient id="a" x1="24.714943" x2="151.13554" y1="22.898218" y2="148.33669" gradientTransform="scale(.9988868 1.0011144)" gradientUnits="userSpaceOnUse">
		<stop offset="0" stop-color="#387eb8"/>
		<stop offset="1" stop-color="#366994"/>
	</linearGradient>
	<linearGradient id="b" x1="102.48344" x2="238.25964" y1="103.26587" y2="231.90547" gradientTransform="scale(.99888677 1.0011145)" gradientUnits="userSpaceOnUse">
		<stop offset="0" stop-color="#ffe052"/>
		<stop offset="1" stop-color="#ffc331"/>
	</linearGradient>
	<path fill="url(#a)" d="m126.91587.07227555c-64.832287.00000462-60.783741 28.11518945-60.783741 28.11518945l.07227 29.127047h61.867881v8.745341h-86.441563s-41.4861659-4.704909-41.4861659 60.711467c-.00000463 65.41635 36.2100509 63.09655 36.2100509 63.09655h21.610389v-30.35573s-1.164855-36.21005 35.631847-36.21005h61.361942s34.47544.5573 34.47544-33.31903v-56.013551c0-.000005 5.23432-33.89723345-62.51835-33.89723345zm-34.114063 19.58667445c6.1554-.000005 11.130433 4.975035 11.130433 11.130434.00001 6.1554-4.975033 11.130435-11.130433 11.130435-6.1554.000005-11.130435-4.975035-11.130435-11.130435-.000005-6.155399 4.975035-11.130434 11.130435-11.130434z" transform="translate(-.144551 -.07227)"/>
	<path fill="url(#b)" d="m128.7571 254.12627c64.8323 0 60.78374-28.11519 60.78374-28.11519l-.0723-29.12705h-61.86787v-8.74534h86.44156s41.48617 4.7049 41.48617-60.71148c.00002-65.416353-36.21005-63.096551-36.21005-63.096551h-21.61039v30.355724s1.16487 36.210047-35.63185 36.210047h-61.36195s-34.475435-.55729-34.475435 33.31906v56.01355s-5.234323 33.89723 62.518355 33.89723zm34.11406-19.58667c-6.1554 0-11.13043-4.97504-11.13043-11.13044s4.97503-11.13043 11.13043-11.13043 11.13043 4.97503 11.13043 11.13043c.00003 6.1554-4.97503 11.13044-11.13043 11.13044z" transform="translate(-.144551 -.07227)"/>
</svg>