<svg viewBox="0 0 19.971001 16" xmlns="http://www.w3.org/2000/svg">
	<path fill="#674500" d="M 18.114731,8 A 15.544832,13.65 0 0 0 17.602264,4.49 15.727042,13.81 0 0 0 16.099028,1.22 1.0590984,0.93 0 0 1 15.985146,0.95 a 0.51246698,0.45 0 0 1 0,-0.21 0.40997358,0.36 0 0 1 0.113882,-0.15 L 16.258462,0.48 17.237843,0 a 17.697193,15.54 0 0 1 1.252697,2 15.704266,13.79 0 0 1 0.842724,2 15.009588,13.18 0 0 1 0.478302,2 18.403259,16.16 0 0 1 0.159435,2 18.460199,16.21 0 0 1 -0.148046,2 15.009588,13.18 0 0 1 -0.478303,2 15.453726,13.57 0 0 1 -0.842723,2 17.640252,15.49 0 0 1 -1.252697,2 l -0.956606,-0.5 -0.159434,-0.11 a 0.39858543,0.35 0 0 1 -0.113881,-0.15 0.50107882,0.44 0 0 1 0,-0.21 1.0363221,0.91 0 0 1 0.113881,-0.27 15.510667,13.62 0 0 0 1.491849,-3.23 15.590384,13.69 0 0 0 0.48969,-3.53 z"/>
	<path fill="#674500" d="M 1.8562699,8 A 15.544832,13.65 0 0 1 2.3687369,4.49 15.727042,13.81 0 0 1 3.871973,1.22 1.0590984,0.93 0 0 0 3.985855,0.95 a 0.51246698,0.45 0 0 0 0,-0.21 A 0.40997358,0.36 0 0 0 3.871973,0.59 L 3.712539,0.48 2.733158,0 A 17.697193,15.54 0 0 0 1.4804609,2 15.704266,13.79 0 0 0 0.637737,4 15.009588,13.18 0 0 0 0.159435,6 18.403259,16.16 0 0 0 0,8 a 18.460199,16.21 0 0 0 0.148046,2 15.009588,13.18 0 0 0 0.478303,2 15.453726,13.57 0 0 0 0.8427229,2 17.640252,15.49 0 0 0 1.2526971,2 l 0.956606,-0.5 0.159434,-0.11 a 0.39858543,0.35 0 0 0 0.113881,-0.15 0.50107882,0.44 0 0 0 0,-0.21 A 1.0363221,0.91 0 0 0 3.837809,14.76 15.510667,13.62 0 0 1 2.3459599,11.53 15.590384,13.69 0 0 1 1.8562699,8 Z"/>
	<path fill="#00a8a8" d="m 15.771162,6.79 -0.54,0.94 -1.75,-1 -0.34,-0.23 a 1.38,1.38 0 0 1 -0.27,-0.26 1.84,1.84 0 0 1 0.1,0.76 v 2 h -1 V 7 a 2.16,2.16 0 0 1 0.12,-0.76 1.82,1.82 0 0 1 -0.58,0.48 l -1.7400003,1 -0.54,-0.94 1.7300003,-1 a 2.25,2.25 0 0 1 0.75,-0.29 1.77,1.77 0 0 1 -0.75,-0.28 L 9.1711617,4.2 l 0.54,-0.94 1.7500003,1 0.33,0.24 a 1.64,1.64 0 0 1 0.27,0.27 2,2 0 0 1 -0.09,-0.77 V 2 h 1 v 2 a 2.93,2.93 0 0 1 0,0.4 1.36,1.36 0 0 1 -0.1,0.36 2.24,2.24 0 0 1 0.59,-0.49 l 1.74,-1 0.54,0.94 -1.73,1 -0.36,0.18 a 1.29,1.29 0 0 1 -0.36,0.1 2.11,2.11 0 0 1 0.36,0.1 2,2 0 0 1 0.36,0.19 z"/>
	<path fill="#bf4095" d="m 4.9711617,11.51 a 1.53,1.53 0 0 1 0.11,-0.59 1.5,1.5 0 0 1 0.31,-0.48 1.5,1.5 0 0 1 1.65,-0.32 1.51,1.51 0 0 1 0.8,0.8 1.47,1.47 0 0 1 0.12,0.59 1.46,1.46 0 0 1 -0.12,0.59 1.56,1.56 0 0 1 -0.32,0.48 1.46,1.46 0 0 1 -0.48,0.32 1.57,1.57 0 0 1 -1.18,0 1.4,1.4 0 0 1 -0.47,-0.32 1.5,1.5 0 0 1 -0.42,-1.07 z"/>
</svg>