<svg viewBox="0 0 19.971001 16" xmlns="http://www.w3.org/2000/svg">
	<path d="m1.5911617 8a13.63 13.63 0 00.45 3.51 13.39 13.39 0 001.33 3.19.91.91 0 01.1.27.41.41 0 010 .21.38.38 0 01-.1.15l-.14.11-.83.5a14.89 14.89 0 01-1.11-2 13.62 13.62 0 01-.74000001-2 13.22 13.22 0 01-.42-2 16.4 16.4 0 010-4.14 13.22 13.22 0 01.42-2 13.84 13.84 0 01.74000001-2 14.94 14.94 0 011.08-1.8l.83.51.14.11a.4.4 0 01.1.15.41.41 0 010 .21.93.93 0 01-.1.27 13.6 13.6 0 00-1.75 6.75zm3.38 3.51a1.53 1.53 0 01.11-.59 1.5 1.5 0 01.31-.48 1.5 1.5 0 011.65-.32 1.51 1.51 0 01.8.8 1.47 1.47 0 01.12.59 1.46 1.46 0 01-.12.59 1.56 1.56 0 01-.32.48 1.46 1.46 0 01-.48.32 1.57 1.57 0 01-1.18 0 1.4 1.4 0 01-.47-.32 1.5 1.5 0 01-.42-1.07zm10.8000003-4.72-.54.94-1.75-1-.34-.23a1.38 1.38 0 01-.27-.26 1.84 1.84 0 01.1.76v2h-1v-2a2.16 2.16 0 01.12-.76 1.82 1.82 0 01-.58.48l-1.7400003 1-.54-.94 1.7300003-1a2.25 2.25 0 01.75-.29 1.77 1.77 0 01-.75-.28l-1.7900003-1.01.54-.94 1.7500003 1 .33.24a1.64 1.64 0 01.27.27 2 2 0 01-.09-.77v-2h1v2a2.93 2.93 0 010 .4 1.36 1.36 0 01-.1.36 2.24 2.24 0 01.59-.49l1.74-1 .54.94-1.73 1-.36.18a1.29 1.29 0 01-.36.1 2.11 2.11 0 01.36.1 2 2 0 01.36.19zm2.57 1.21a13.65 13.65 0 00-.45-3.51 13.81 13.81 0 00-1.32-3.27.93.93 0 01-.1-.27.45.45 0 010-.21.36.36 0 01.1-.15l.14-.11.86-.48a15.54 15.54 0 011.1 2 13.79 13.79 0 01.74 2 13.18 13.18 0 01.42 2 16.16 16.16 0 01.14 2 16.21 16.21 0 01-.13 2 13.18 13.18 0 01-.42 2 13.57 13.57 0 01-.74 2 15.49 15.49 0 01-1.1 2l-.84-.5-.14-.11a.35.35 0 01-.1-.15.44.44 0 010-.21.91.91 0 01.1-.27 13.62 13.62 0 001.31-3.23 13.69 13.69 0 00.43-3.53z" fill="#42247a"/>
</svg>