<svg xml:space="preserve" viewBox="0 0 82.315002 85" xmlns="http://www.w3.org/2000/svg">
	<path fill="#323232" stroke="#323232" stroke-linejoin="round" stroke-miterlimit="10" stroke-width="4" d="M 2,40.59 H 80.314 L 71.278,31.994 H 11.036 Z"/>
	<path fill="#e0e0e0" d="m 10.467,1.91 v 81.18 h 61.38 V 20.653 L 53.104,1.91 Z"/>
	<path fill="#323232" d="M 53.895,0 H 8.557 v 85 h 65.2 V 19.862 Z m 1.119,6.522 12.222,12.221 H 55.014 Z M 12.377,81.18 V 3.82 H 51.193 V 22.563 H 69.937 V 81.18 Z"/>
	<path fill="#5ea048" stroke="#323232" stroke-miterlimit="10" stroke-width="4" d="M 2,42.5 H 80.315 V 73.062 H 2 Z"/>
	<path fill="#fff" stroke="#323333" stroke-miterlimit="10" stroke-width="4" d="m 41.157,27.762 a 14.738,14.738 0 1 0 0,29.476 14.738,14.738 0 1 0 0,-29.476 z"/>
	<path fill="#ba3937" d="M 46.333,48.499 41.45,45.28 a 0.531,0.531 0 0 0 -0.585,0 l -4.883,3.219 A 0.532,0.532 0 0 1 35.157,48.055 V 37.574 c 0,-0.294 0.238,-0.532 0.532,-0.532 h 10.936 c 0.294,0 0.532,0.238 0.532,0.532 v 10.481 a 0.532,0.532 0 0 1 -0.824,0.444 z"/>
</svg>