<svg xml:space="preserve" viewBox="0 0 49.599998 85" xmlns="http://www.w3.org/2000/svg">
	<path fill="#66503a" d="M 40.7,20.1 H 38.6 V 13.3 H 11 v 6.8 H 8.9 C 4,20.1 0.1,24 0.1,28.9 V 76.2 C 0.1,81.1 4,85 8.9,85 h 31.9 c 4.9,0 8.8,-3.9 8.8,-8.8 V 28.9 c 0,-4.8 -4,-8.8 -8.9,-8.8 z"/>
	<path fill="#f5e6c8" d="M 24.8,32.7 H 0 V 73.5 H 49.6 V 32.7 H 24.8"/>
	<path fill="#e15b64" d="m 38.9,48.6 h -9.6 v -9.5 h -9 v 9.5 h -9.6 v 9 h 9.6 v 9.6 h 9 v -9.6 h 9.6 z"/>
	<path fill="#f8b26a" d="m 1.5,10.8 c 0,3.1 2.5,5.6 5.6,5.6 h 35.4 c 3.1,0 5.6,-2.5 5.6,-5.6 V 8.2 H 1.5 Z"/>
	<path fill="#f5e6c8" d="M 42.5,0 H 7.1 C 4,0 1.5,2.5 1.5,5.6 V 8.2 H 48 V 5.6 C 48.1,2.5 45.6,0 42.5,0 Z"/>
</svg>