<svg fill="#2391cd" version="1.0" viewBox="0 0 1025.6996 1279.4053" xmlns="http://www.w3.org/2000/svg">
	<path d="m 501.04981,1.5053198 c -18.3,4.9 -32.6,19.6000002 -36.3,37.2000002 -0.6,3.2 -0.9,9.4 -0.7,14.2 0.7,10.9 5.2,21.4 12.8,29.5 10.3,10.8 21.3,15.6 36,15.6 14.6,0 25.7,-4.8 35.8,-15.5 8.5,-9 13.2,-20.7 13.2,-33.1 0,-14 -4.6,-25.1 -14.5,-35 -12.1,-12.1000002 -30.4,-17.2000002 -46.3,-12.9000002 z"/>
	<path d="m 333.44981,4.0053198 c -38.6,4.1 -57.5,14.1000002 -147.1,78.3000002 -43.2,30.9 -71.1,49.7 -96.499998,64.7 -26.5,15.8 -33,19.2 -58.6,30.7 -25.5999999,11.5 -30.79999995,14.2 -31.19999995,16.3 -0.6,3 4.30000005,8.3 10.39999995,11.5 9,4.6 20.3,6 36.4,4.5 21.1,-2.1 30.6,-4.8 52.2,-14.9 29.699998,-13.9 83.599998,-46.8 115.799998,-70.7 12.7,-9.4 32.1,-28.6 38,-37.5 8.5,-12.9 9.8,-12.1 9.8,5.4 0.1,27.2 7.9,46.5 26.1,64.6 9.9,9.9 19.3,15.3 33.6,19.5 8.1,2.4 10.6,2.7 24.3,2.7 15.1,0 15.2,0 15.2,2.2 0,1.2 -1.3,3.5 -3,5.1 -8,7.6 -6,20.9 5.4,36.9 14.2,19.9 38.7,34.6 62.7,37.6 14.8,1.8 34.2,-1.4 46.9,-7.7 l 5.5,-2.8 -0.3,-14.5 c -0.6,-36.6 -1.5,-62.1 -2.2,-62.5 -0.4,-0.3 -4.2,0.4 -8.3,1.5 -24.6,6.2 -45.1,2 -58,-12 -6.5,-7 -10.4,-14.7 -11.5,-22.7 -1.3,-9.9 -0.6,-11.4 11.5,-23.2 16.9,-16.5 23.1,-27.5 24.1,-42.4 0.6,-10 -1.1,-18.2 -5.8,-28.3 -4.7,-10.1 -10.3,-18.5 -16.6,-24.6 -14.7,-14.5000002 -45,-21.30000011 -78.8,-17.7000002 z"/>
	<path d="m 656.34981,4.0053198 c -3.8,0.5 -11,2 -15.9,3.4 -21.5,6.1000002 -33.2,16.6000002 -43.6,38.8000002 -4.7,10.1 -6.4,18.4 -5.8,28.4 1,14.9 7.2,25.9 24.1,42.4 12.1,11.8 12.8,13.3 11.5,23.2 -1.1,8 -5,15.7 -11.5,22.7 -12.9,14 -33.4,18.2 -58,12 -4.1,-1.1 -7.9,-1.8 -8.3,-1.5 -0.7,0.4 -1.7,27.1 -2.2,61.5 l -0.3,15.5 5.5,2.8 c 12.7,6.3 32.1,9.5 46.9,7.7 24,-3 48.5,-17.7 62.7,-37.6 11.4,-16 13.4,-29.3 5.4,-36.9 -1.7,-1.6 -3,-3.9 -3,-5.1 0,-2.2 0.1,-2.2 15.3,-2.2 13.6,0 16.1,-0.3 24.2,-2.7 14.3,-4.2 23.7,-9.6 33.6,-19.5 18.2,-18.1 26,-37.4 26.1,-64.6 0,-17.5 1.3,-18.3 9.8,-5.4 5.9,8.9 25.3,28.1 38,37.5 32.2,23.9 86.1,56.8 115.8,70.7 21.6,10.1 31.1,12.8 52.2,14.9 16.1,1.5 27.39999,0.1 36.39999,-4.5 6.1,-3.2 11,-8.5 10.4,-11.5 -0.4,-2.1 -5.6,-4.8 -31.19999,-16.3 -25.6,-11.5 -32.1,-14.9 -58.6,-30.7 -25.4,-15 -53.3,-33.8 -96.5,-64.7 -44.1,-31.6 -59.1,-41.8 -78.4,-53.4 -25.2,-15.1 -36.5,-19.7000002 -58.1,-23.4000002 -11.5,-2 -36.9,-2.8 -46.5,-1.5 z"/>
	<path d="m 480.54981,106.60532 c -0.3,0.5 -0.1,16.5 0.4,35.8 0.4,19.2 1.3,53.9 1.9,77 5.6,229.5 5.6,225.1 4.3,224.9 -3.4,-0.6 -26.8,-8.5 -35.8,-12.1 -27.2,-10.9 -44.5,-23.4 -55.6,-40.2 -7.4,-11.2 -10.1,-20.5 -10.7,-37.4 -0.5,-17 -0.1,-17.9 6.6,-11.6 6,5.7 8.5,7.3 16.1,9.9 8.3,2.8 21.6,2.8 29.7,0 17.1,-5.9 33.4,-20.8 33.4,-30.4 0,-5.9 -9.8,-12.8 -23,-16.3 -8.1,-2.1 -30.5,-2.3 -40.5,-0.4 -15.7,3 -28.7,9.9 -40.3,21.3 -14.7,14.5 -22.3,32 -22.3,51.5 0.1,36.9 26.3,70.7 77.9,100.1 l 12.2,6.9 -8.7,6.4 c -18.5,13.4 -35.4,33.4 -42.9,50.8 -10,23 -11,49.5 -2.8,74 10,30 29.3,53 64.1,76.4 5.1,3.4 9.2,6.5 9.3,6.8 0,0.3 -1,1.1 -2.3,1.6 -5,2.3 -23.6,17.2 -31.7,25.3 -13.5,13.7 -21.8,27.4 -26.2,43.9 -2.8,10.3 -3.1,31.1 -0.5,42.8 7.1,33.2 24.9,62.7 51.7,85.8 l 9,7.8 -5.3,5.6 c -11.7,12.4 -20,27.1 -23.9,42.3 -1.7,6.8 -1.9,10.3 -1.6,21.7 0.5,15.7 2.8,23.99998 10.1,37.09998 6.1,10.8 27.3,31.7 43,42.2 l 3.7,2.5 -8.1,7.3 c -20.3,18.3 -28.9,35.4 -28.9,57 0,10.3 2,19.4 6.4,29.5 2.9,6.5 11.3,18.9 15.6,23 2.5,2.4 3,2.6 3.6,1.2 0.3,-0.9 -0.1,-5.8 -1,-10.9 -4.7,-26.2 -4.7,-35.3 0.3,-46.2 3.5,-7.7 5.1,-9.9 13.2,-18.2 6.3,-6.4 21.6,-18 22.5,-17.1 0.6,0.5 1.2,22 3.4,120.2 0.7,26.9 1.5,54.8 1.8,62 l 0.7,13 h 3.5 3.5 l 0.7,-13 c 0.3,-7.2 1.1,-35.1 1.8,-62 2.2,-98.2 2.8,-119.7 3.4,-120.2 0.9,-0.9 16.2,10.7 22.5,17.1 8.1,8.2 9.7,10.4 13.4,18.3 3,6.5 3.2,7.4 3.2,18.8 0,8.5 -0.7,15.6 -2.4,24.3 -1.3,6.7 -2,12.9 -1.7,13.9 0.6,1.4 1.1,1.2 3.6,-1.2 4.3,-4.1 12.7,-16.5 15.6,-23 11.1,-25.1 7.9,-51.3 -8.8,-72.2 -2.7,-3.4 -8.6,-9.7 -13.1,-13.8 l -8.2,-7.6 2.9,-2.2 c 21.4,-16.2 37.1,-31.8 43.3,-42.7 7.3,-13 9.6,-21.39998 10.1,-37.09998 0.3,-11.4 0.1,-14.9 -1.6,-21.7 -3.9,-15.2 -12.2,-29.9 -23.9,-42.3 l -5.3,-5.6 9.9,-8.6 c 31.8,-27.7 51,-65.1 52.8,-102.7 1.2,-25.3 -8.5,-48.5 -28.8,-69.1 -8.1,-8.1 -26.6,-22.9 -31.6,-25.2 -1.3,-0.6 -2.3,-1.3 -2.3,-1.6 0,-0.3 2.1,-1.9 4.8,-3.6 10.6,-6.7 29.2,-21.5 38.2,-30.5 34,-34 44.9,-81.7 28,-122.3 -7.2,-17.4 -24.7,-38.2 -43.3,-51.6 l -8.7,-6.4 12.2,-6.9 c 51.6,-29.4 77.8,-63.2 77.9,-100.1 0,-34.1 -25.3,-64.5 -60.2,-72.3 -10.5,-2.3 -34.2,-2.4 -42.9,-0.1 -13.2,3.5 -23,10.4 -23,16.3 0,9.6 16.3,24.5 33.4,30.4 8.1,2.8 21.4,2.8 29.7,0 7.6,-2.6 10.1,-4.2 16.1,-9.9 6.7,-6.3 7.1,-5.4 6.6,11.6 -0.6,16.8 -3.2,26.2 -10.7,37.4 -5.1,7.8 -15.5,18.4 -23.1,23.6 -8,5.4 -23.2,13.1 -35,17.6 -9.6,3.7 -30.3,10.5 -33.4,11.1 -0.4,0 -0.7,-4.4 -0.7,-9.9 0.2,-13 4,-172.1 7,-292 0.5,-19.2 0.7,-35.3 0.5,-35.7 -0.7,-1 -64.1,-1 -64.7,-0.1 z m 11.2,480 c 0.6,31.3 1.4,59.5 1.7,62.7 l 0.5,5.9 -2.8,-1.8 c -20,-12.7 -33,-27.1 -39.9,-44 -2.6,-6.4 -2.9,-8.1 -2.9,-19.5 0,-11.4 0.3,-13.1 2.8,-19.8 4.9,-12.4 16.3,-25.5 30.7,-35.1 4.1,-2.7 7.8,-5 8.1,-5 0.3,-0.1 1.1,25.4 1.8,56.6 z m 52.6,-51.2 c 10.9,7.2 23.3,20.4 27.9,29.5 4.6,9.2 6,16.3 5.3,28 -1.1,22.9 -15.4,42.9 -43,60.5 l -2.8,1.8 0.5,-5.9 c 0.3,-3.2 1.1,-31.4 1.8,-62.7 0.6,-31.2 1.4,-56.7 1.6,-56.7 0.3,0 4.2,2.5 8.7,5.5 z m -46.7,285 c 0.5,19.2 0.7,35.2 0.6,35.4 -0.2,0.2 -3.9,-2.2 -8.3,-5.4 -9.3,-6.7 -15.8,-14.2 -20.7,-24 -4.6,-9.3 -6.4,-16.4 -6.4,-25.6 0,-16.5 7.5,-29.6 25.5,-44.8 l 7,-5.9 0.7,17.6 c 0.4,9.8 1.1,33.4 1.6,52.7 z m 44.4,-60.2 c 13.8,12.1 20.8,25.8 20.8,40.6 0,19.7 -10.8,38.8 -28.9,51 -3.4,2.4 -6.4,4.1 -6.5,3.9 -0.2,-0.3 0.9,-49.4 2,-85.6 l 0.6,-20.3 2.2,1.8 c 1.1,1 5.6,4.9 9.8,8.6 z m -40.4,227.5 c 0.4,14.39998 0.5,26.19998 0.2,26.19998 -0.3,0 -1.8,-1.7 -3.5,-3.7 -10.9,-13.59998 -13.9,-20.09998 -14,-30.29998 0,-9.4 2.6,-15.1 10.4,-23 l 5.6,-5.5 0.3,5 c 0.1,2.7 0.6,16.8 1,31.3 z m 31.1,-29.2 c 6.5,7.4 8.6,12.7 8.6,21.4 0,6.1 -0.5,8.6 -2.8,13.5 -2.7,5.7 -13.2,20.49998 -14.6,20.49998 -0.3,0 -0.3,-9.6 0,-21.19998 0.4,-11.7 0.7,-25.7 0.8,-31.1 0.1,-9.3 0.2,-9.7 2,-8.8 1,0.6 3.7,3.1 6,5.7 z"/>
	<path d="m 243.54981,112.30532 c -1.5,0.9 -10.3,8 -19.5,15.9 -50,43.2 -84.9,67 -125.199998,85.3 -15,6.9 -16.9,8.8 -13.6,13.9 2.4,3.7 6.9,5.3 18.299998,6.6 18.8,2.1 36.1,-1.3 55,-11 23.5,-12 46.2,-26.4 71.8,-45.6 20.5,-15.5 29.8,-23.6 31.9,-27.9 l 1.7,-3.6 -3.9,-8.8 c -3.5,-7.6 -5.2,-12.6 -8.2,-23.2 -0.8,-3 -4.3,-3.7 -8.3,-1.6 z"/>
	<path d="m 773.84981,113.50532 c -0.6,1.4 -1,3.1 -1,3.8 0,2.1 -3.6,12 -7.5,20.6 -3.6,8 -3.6,8 -1.9,11.6 3.9,8.1 47.7,41.2 80.2,60.5 35.6,21.2 53.8,26.7 78.5,24 11.4,-1.3 15.9,-2.9 18.3,-6.6 3.4,-5.1 1.5,-7 -13.8,-14 -39.9,-18.2 -73.7,-41.2 -124.2,-84.5 -10.4,-8.9 -20,-16.6 -21.3,-17.1 -4.1,-1.5 -6.3,-1.1 -7.3,1.7 z"/>
	<path d="m 265.84981,158.60532 c -0.8,0.4 -8.2,7.1 -16.5,15.1 -28.8,27.9 -49,43.1 -82.8,62.6 l -11.8,6.9 0.3,3.5 c 0.3,3.3 0.7,3.7 4.8,5 6.2,1.9 25.9,2.1 34,0.3 14.2,-3.1 31.2,-11.5 49.3,-24.5 8.9,-6.3 43.4,-34.7 49.5,-40.6 5.3,-5.3 4.2,-8 -5.3,-13.5 -3.6,-2.1 -9,-6.5 -12,-9.7 -5.3,-5.7 -6.4,-6.2 -9.5,-5.1 z"/>
	<path d="m 750.44981,163.60532 c -3.1,3.3 -8.5,7.7 -12.1,9.8 -9.5,5.5 -10.6,8.2 -5.2,13.5 6,5.9 40.5,34.3 49.4,40.6 18.4,13.2 34.9,21.4 49.3,24.5 8.1,1.8 27.8,1.6 34,-0.3 4.1,-1.3 4.5,-1.7 4.8,-5 l 0.3,-3.5 -11.8,-6.9 c -34.1,-19.7 -54.1,-34.8 -82.9,-62.7 -8.3,-8.1 -16.2,-14.9 -17.7,-15.2 -2.2,-0.6 -3.3,0.1 -8.1,5.2 z"/>
	<path d="m 304.24981,185.20532 c -1.2,0.7 -5.6,5.4 -9.9,10.5 -11,13.2 -28.7,30.8 -45.2,45 -7.9,6.8 -14.8,13.2 -15.4,14.3 -1.6,3 1.1,6.4 6.7,8.3 5.8,1.9 12,2 19.7,0.1 30,-7.1 81.5,-52.6 79.5,-70.1 -0.3,-2.9 -0.4,-2.9 -9.8,-4.2 -8.4,-1.1 -17.6,-3 -22,-4.6 -0.8,-0.3 -2.4,0 -3.6,0.7 z"/>
	<path d="m 714.84981,185.30532 c -3.5,1.3 -12.5,3 -23,4.4 -5.1,0.7 -5.5,0.9 -5.8,3.6 -2,17.5 49.5,63 79.5,70.1 7.7,1.9 13.9,1.8 19.7,-0.1 5.6,-1.9 8.3,-5.3 6.7,-8.3 -0.6,-1.1 -7.5,-7.5 -15.4,-14.3 -16.5,-14.2 -34.2,-31.8 -45.2,-45 -6.8,-8.1 -10.8,-11.8 -12.5,-11.7 -0.3,0 -2.1,0.6 -4,1.3 z"/>
</svg>