<svg xmlns:xlink="http://www.w3.org/1999/xlink" viewBox="0 0 78.773209 96.000084" xmlns="http://www.w3.org/2000/svg">
	<linearGradient id="b" x1="16.941999" x2="85.670998" y1="83.360001" y2="89.583" gradientTransform="translate(.00003896 .00008086)" gradientUnits="userSpaceOnUse">
		<stop offset="0" stop-color="#f32b44"/>
		<stop offset=".6" stop-color="#a4070a"/>
	</linearGradient>
	<linearGradient id="a">
		<stop offset="0" stop-opacity=".4"/>
		<stop offset="1" stop-opacity="0"/>
	</linearGradient>
	<linearGradient xlink:href="#a" id="c" x1="63.514999" x2="33.002998" y1="87.297997" y2="84.535004" gradientTransform="translate(.00003896 .00008086)" gradientUnits="userSpaceOnUse"/>
	<linearGradient id="d" x1="44.737999" x2="-5.901" y1="-3.312" y2="71.527" gradientTransform="translate(.00003896 .00008086)" gradientUnits="userSpaceOnUse">
		<stop offset="0" stop-color="#800600"/>
		<stop offset=".6" stop-color="#c72127"/>
		<stop offset=".728" stop-color="#c13959"/>
		<stop offset=".847" stop-color="#bc4b81"/>
		<stop offset=".942" stop-color="#b95799"/>
		<stop offset="1" stop-color="#b85ba2"/>
	</linearGradient>
	<linearGradient xlink:href="#a" id="e" x1="45.823002" x2="35.098999" y1="-4.8099999" y2="11.039" gradientTransform="translate(.00003896 .00008086)" gradientUnits="userSpaceOnUse"/>
	<linearGradient id="f" x1="61.486" x2="61.486" y1="-4.8870001" y2="88.780998" gradientTransform="translate(.00003896 .00008086)" gradientUnits="userSpaceOnUse">
		<stop offset="0" stop-color="#ffb900"/>
		<stop offset=".166" stop-color="#ef8400"/>
		<stop offset=".313" stop-color="#e25c01"/>
		<stop offset=".429" stop-color="#db4401"/>
		<stop offset=".5" stop-color="#d83b01"/>
	</linearGradient>
	<path fill="url(#b)" d="m 19.143039,75.558081 c -2.724,0 -4.945,2.121 -4.945,4.753 0,1.789 1.031,3.322 2.565,4.14 l 19.118,10.246 a 10.11,10.11 0 0 0 4.969,1.303 c 1.164,0 2.275,-0.204 3.306,-0.562 l 6.531,-1.814 v -18.091 c 0.027,0.025 -31.519,0.025 -31.545,0.025 z"/>
	<path fill="url(#c)" d="m 19.143039,75.558081 c -2.724,0 -4.945,2.121 -4.945,4.753 0,1.789 1.031,3.322 2.565,4.14 l 19.118,10.246 a 10.11,10.11 0 0 0 4.969,1.303 c 1.164,0 2.275,-0.204 3.306,-0.562 l 6.531,-1.814 v -18.091 c 0.027,0.025 -31.519,0.025 -31.545,0.025 z"/>
	<path fill="url(#d)" d="m 43.736039,0.38308086 a 9.968,9.968 0 0 0 -2.777,-0.383000000647 c -1.56,0 -3.12,0.307000000647 -4.522,1.022000040647 -0.29,0.128 -31.096,16.8640001 -31.096,16.8640001 -0.423,0.205 -0.82,0.46 -1.19,0.716 -0.052,0.025 -0.079,0.051 -0.132,0.077 -0.238,0.178 -0.45,0.357 -0.687,0.536 -0.106,0.077 -0.212,0.18 -0.291,0.256 -0.132,0.127 -0.265,0.255 -0.37,0.383 -0.37,0.383 -1.005,1.2 -1.005,1.2 a 9.15,9.15 0 0 0 -1.666000036768,5.291 v 44.46 c 0,2.633 2.221000036768,4.754 4.945000036768,4.754 0.687,0 1.322,-0.128 1.904,-0.384 l 8.805,-4.778 c 1.586,-0.766 2.856,-2.07 3.517,-3.68 0.158,-0.332 0.29,-0.74 0.37,-1.15 0.026,-0.102 0.053,-0.23 0.053,-0.332 0,-0.05 0.026,-0.127 0.026,-0.178 0.027,-0.18 0.053,-0.384 0.053,-0.562 0,-0.154 0.027,-0.282 0.027,-0.435 v -23.662 -7.385 c 0,-2.07 0.925,-3.935 2.38,-5.238 0,0 -0.688,0.613 0,0 0.687,-0.613 1.586,-1.15 2.644,-1.507 1.057,-0.384 26.072,-9.122 26.072,-9.122 V 2.4020809 Z"/>
	<path fill="url(#e)" d="m 43.736039,0.38308086 a 9.968,9.968 0 0 0 -2.777,-0.383000000647 c -1.56,0 -3.12,0.307000000647 -4.522,1.022000040647 -0.29,0.128 -31.096,16.8640001 -31.096,16.8640001 -0.423,0.205 -0.82,0.46 -1.19,0.716 -0.052,0.025 -0.079,0.051 -0.132,0.077 -0.238,0.178 -0.45,0.357 -0.687,0.536 -0.106,0.077 -0.212,0.18 -0.291,0.256 -0.132,0.127 -0.265,0.255 -0.37,0.383 -0.37,0.383 -1.005,1.2 -1.005,1.2 a 9.15,9.15 0 0 0 -1.666000036768,5.291 v 44.46 c 0,2.633 2.221000036768,4.754 4.945000036768,4.754 0.687,0 1.322,-0.128 1.904,-0.384 l 8.805,-4.778 c 1.586,-0.766 2.856,-2.07 3.517,-3.68 0.158,-0.332 0.29,-0.74 0.37,-1.15 0.026,-0.102 0.053,-0.23 0.053,-0.332 0,-0.05 0.026,-0.127 0.026,-0.178 0.027,-0.18 0.053,-0.384 0.053,-0.562 0,-0.154 0.027,-0.282 0.027,-0.435 v -23.662 -7.385 c 0,-2.07 0.925,-3.935 2.38,-5.238 0,0 -0.688,0.613 0,0 0.687,-0.613 1.586,-1.15 2.644,-1.507 1.057,-0.384 26.072,-9.122 26.072,-9.122 V 2.4020809 Z"/>
	<path fill="url(#f)" d="m 71.898039,8.3500809 -27.738,-7.84300004 c 4.019,1.50800004 6.53,4.90600004 6.53,9.04600004 0,0 -0.025,75.2000001 0,77.0140001 0.027,4.088 -2.67,7.589 -6.53,8.892 0.846,-0.23 27.738,-7.717 27.738,-7.717 3.992,-1.226 6.875,-4.804 6.875,-9.07 v -61.252 c 0.026,-4.24 -2.883,-7.8440001 -6.875,-9.0700001 z"/>
</svg>