<svg viewBox="0 0 71.107498 81.816994" xmlns="http://www.w3.org/2000/svg">
	<path fill="#e0e0e0" d="M 55.804,75.365 H 3.171 A 3.171,3.171 0 0 1 0,72.194 V 3.171 A 3.171,3.171 0 0 1 3.171,0 h 52.633 a 3.171,3.171 0 0 1 3.171,3.171 v 69.022 a 3.17,3.17 0 0 1 -3.171,3.172 z"/>
	<path fill="none" stroke="#323232" stroke-linecap="round" stroke-linejoin="round" stroke-miterlimit="10" stroke-width="3" d="M 12.625,12.493 H 44.938"/>
	<path fill="none" stroke="#323232" stroke-linecap="round" stroke-linejoin="round" stroke-miterlimit="10" stroke-width="3" d="M 12.625,22.028 H 44.938"/>
	<path fill="none" stroke="#323232" stroke-linecap="round" stroke-linejoin="round" stroke-miterlimit="10" stroke-width="3" d="M 12.625,31.563 H 44.938"/>
	<path fill="none" stroke="#323232" stroke-linecap="round" stroke-linejoin="round" stroke-miterlimit="10" stroke-width="3" d="M 12.625,41.098 H 29.046"/>
	<path fill="none" stroke="#323232" stroke-linecap="round" stroke-linejoin="round" stroke-miterlimit="10" stroke-width="3" d="M 12.625,62.287 H 29.046"/>
	<path fill="#e15c64" d="m 46.309,66.607 -4.59,11.871 a 0.39,0.39 0 0 0 0.522,0.498 l 4.32,-1.911 a 0.39,0.39 0 0 1 0.515,0.199 l 1.911,4.32 a 0.39,0.39 0 0 0 0.721,-0.017 l 4.59,-11.871 a 4.283,4.283 0 0 0 -3.051,-5.722 4.282,4.282 0 0 0 -4.938,2.633 z"/>
	<path fill="#e15c64" d="m 64.181,66.607 4.59,11.871 a 0.39,0.39 0 0 1 -0.522,0.498 l -4.32,-1.911 a 0.39,0.39 0 0 0 -0.515,0.199 l -1.911,4.32 a 0.39,0.39 0 0 1 -0.721,-0.017 l -4.59,-11.871 a 4.283,4.283 0 0 1 3.051,-5.722 4.281,4.281 0 0 1 4.938,2.633 z"/>
	<path fill="#f47e5f" d="m 56.357,43.11 1.227,1.17 c 0.358,0.341 0.881,0.445 1.342,0.267 l 1.582,-0.611 a 1.277,1.277 0 0 1 1.629,0.675 l 0.686,1.55 c 0.2,0.452 0.643,0.748 1.138,0.76 l 1.695,0.041 c 0.682,0.016 1.23,0.565 1.247,1.247 l 0.041,1.695 c 0.012,0.494 0.308,0.937 0.76,1.138 l 1.55,0.686 c 0.623,0.276 0.92,0.993 0.675,1.629 l -0.611,1.582 c -0.178,0.461 -0.074,0.984 0.267,1.342 l 1.17,1.227 c 0.47,0.494 0.47,1.269 0,1.763 l -1.17,1.227 a 1.279,1.279 0 0 0 -0.267,1.342 l 0.611,1.582 a 1.277,1.277 0 0 1 -0.675,1.629 l -1.55,0.686 c -0.452,0.2 -0.748,0.643 -0.76,1.138 l -0.041,1.695 a 1.278,1.278 0 0 1 -1.247,1.247 l -1.695,0.041 a 1.28,1.28 0 0 0 -1.138,0.76 l -0.686,1.55 a 1.28,1.28 0 0 1 -1.629,0.675 l -1.582,-0.611 a 1.279,1.279 0 0 0 -1.342,0.267 l -1.227,1.17 c -0.494,0.47 -1.269,0.47 -1.763,0 l -1.227,-1.17 a 1.279,1.279 0 0 0 -1.342,-0.267 l -1.582,0.611 a 1.277,1.277 0 0 1 -1.629,-0.675 l -0.686,-1.55 A 1.278,1.278 0 0 0 46.99,69.858 L 45.295,69.817 A 1.278,1.278 0 0 1 44.048,68.57 l -0.041,-1.695 a 1.28,1.28 0 0 0 -0.76,-1.138 l -1.55,-0.686 a 1.28,1.28 0 0 1 -0.675,-1.629 l 0.611,-1.582 a 1.279,1.279 0 0 0 -0.267,-1.342 l -1.17,-1.227 a 1.278,1.278 0 0 1 0,-1.763 l 1.17,-1.227 c 0.341,-0.358 0.445,-0.881 0.267,-1.342 l -0.611,-1.582 a 1.277,1.277 0 0 1 0.675,-1.629 l 1.55,-0.686 c 0.452,-0.2 0.748,-0.643 0.76,-1.138 l 0.041,-1.695 a 1.278,1.278 0 0 1 1.247,-1.247 l 1.695,-0.041 a 1.28,1.28 0 0 0 1.138,-0.76 l 0.686,-1.55 a 1.28,1.28 0 0 1 1.629,-0.675 l 1.582,0.611 c 0.461,0.178 0.984,0.074 1.342,-0.267 l 1.227,-1.17 a 1.278,1.278 0 0 1 1.763,0 z"/>
	<path fill="#f7b26a" d="m 55.476002,48.027 a 10.362,10.362 0 1 0 0,20.724 10.362,10.362 0 1 0 0,-20.724 z"/>
	<path fill="#f5e169" d="m 55.911,52.241 1.586,3.214 a 0.486,0.486 0 0 0 0.366,0.266 l 3.547,0.515 a 0.486,0.486 0 0 1 0.269,0.828 l -2.567,2.502 a 0.487,0.487 0 0 0 -0.14,0.43 l 0.606,3.533 a 0.486,0.486 0 0 1 -0.705,0.512 L 55.7,62.373 a 0.488,0.488 0 0 0 -0.452,0 l -3.173,1.668 A 0.486,0.486 0 0 1 51.37,63.529 l 0.606,-3.533 a 0.485,0.485 0 0 0 -0.14,-0.43 l -2.567,-2.502 a 0.486,0.486 0 0 1 0.269,-0.828 l 3.547,-0.515 a 0.486,0.486 0 0 0 0.366,-0.266 l 1.586,-3.214 a 0.488,0.488 0 0 1 0.874,0 z"/>
</svg>