<svg viewBox="0 0 79.98114 77.476997" xmlns="http://www.w3.org/2000/svg">
	<path fill="#e0e0e0" d="m 24.891,77.477 c -3.175,0 -5.802,-2.413 -6.147,-5.569 C 17.561,61.086 14.002,52.935 9.07,41.273 h 11.595 c 4.852,8.824 8.064,17.829 10.281,28.762 0.778,3.841 -2.136,7.442 -6.055,7.442 z"/>
	<path d="M 30.908,69.855 C 28.962,60.325 26.252,52.258 22.353,44.49 A 95.223,95.223 0 0 0 20.664,41.273 H 9.07 c 0.962,2.274 1.87,4.412 2.72,6.465 h 6.046 c 2.141,0 4,1.443 4.583,3.504 2.615,9.247 1.331,17.849 -3.45,21.768 0.854,2.902 3.704,4.894 6.918,4.388 3.495,-0.549 5.729,-4.077 5.021,-7.543 z" opacity=".1"/>
	<path fill="#e0e0e0" d="M 27.817,45.479 Z"/>
	<path fill="#e0e0e0" d="M 75.114,39.221 52.757,41.012 A 5.31,5.31 0 0 1 47.024,35.72 v -3.581 a 5.309,5.309 0 0 1 5.733,-5.292 l 22.357,1.791 a 5.31,5.31 0 0 1 0,10.583 z"/>
	<path d="M 75.114,39.221 52.757,41.012 A 5.31,5.31 0 0 1 47.024,35.72 v -3.581 a 5.309,5.309 0 0 1 5.733,-5.292 l 22.357,1.791 a 5.31,5.31 0 0 1 0,10.583 z" opacity=".1"/>
	<path fill="#e0e0e0" d="M 61.823,5.342 C 49.988,13.814 38.576,19.922 27.817,22.377 v 23.102 c 10.759,2.455 22.171,8.563 34.006,17.035 2.728,1.953 6.522,0.026 6.522,-3.329 V 8.671 c 0,-3.355 -3.794,-5.282 -6.522,-3.329 z"/>
	<path d="m 68.345,8.671 c 0,-3.355 -3.794,-5.282 -6.522,-3.329 a 178.62,178.62 0 0 1 -3.826,2.66 c -0.045,16.812 -8.277,31.634 -20.801,40.455 7.938,3.169 16.174,8.005 24.627,14.056 2.728,1.953 6.522,0.026 6.522,-3.329 z" opacity=".1"/>
	<path fill="#323232" d="M 66.128,67.856 A 2.56,2.56 0 0 1 63.567,65.295 V 2.5610001 a 2.561,2.561 0 1 1 5.122,0 V 65.295 a 2.562,2.562 0 0 1 -2.561,2.561 z"/>
	<path fill="#e15c64" d="M 27.817,45.479 H 11.551 C 5.171,45.479 0,40.307 0,33.928 0,27.549 5.171,22.377 11.551,22.377 h 16.266 z"/>
	<path d="m 23.25,22.377 c 0,15.927 -8.695,18.678 -20.391,19.142 2.117,2.422 5.222,3.959 8.691,3.959 H 27.816 V 22.377 Z" opacity=".1"/>
	<path fill="none" stroke="#fff" stroke-linecap="round" stroke-miterlimit="10" stroke-width="2" d="M 4.514,29.332 A 8.854,8.854 0 0 0 4.125,30.301"/>
	<path fill="none" stroke="#fff" stroke-linecap="round" stroke-miterlimit="10" stroke-width="2" d="M 10.938,25.739 C 8.973,25.68 7.394,26.14 6.2,27.117"/>
</svg>