<svg viewBox="0 0 85 49.888" xmlns="http://www.w3.org/2000/svg">
	<path fill="#fff" d="m 63.148,26.828 -2.697,-2.169 -2.705,2.876 5.956,6.911 2.493,-6.371 z"/>
	<path fill="#a0c8d7" d="m 85,40.258 -1.159,-6.422 a 7.506,7.506 0 0 0 -6.16,-6.073 L 67.026,25.997 56.371,27.763 a 7.508,7.508 0 0 0 -6.16,6.073 l -1.159,6.422 z"/>
	<path fill="#c33736" d="m 70.143,32.784 -3.116,2.632 -3.117,-2.632 v -5.125 h 6.233 z"/>
	<path fill="#c33736" d="m 69.29,40.374 -0.84,-6.365 h -2.646 l -0.84,6.365 z"/>
	<path fill="#fff" d="m 70.905,26.828 2.697,-2.169 2.705,2.876 -5.956,6.911 -2.493,-6.371 z"/>
	<path fill="#f4e6c8" d="m 76.307,15.816 c 0,6.273 -4.155,13.02 -9.28,13.02 -5.125,0 -9.28,-6.747 -9.28,-13.02 0,-6.273 4.155,-9.696 9.28,-9.696 5.125,0 9.28,3.423 9.28,9.696 z"/>
	<path fill="#323232" d="m 67.027,6.12 c -5.125,0 -9.28,3.423 -9.28,9.696 0,0.339 0.014,0.68 0.038,1.02 4.136,-0.184 7.828,-1.73 10.425,-4.098 1.282,2.479 3.482,4.117 5.985,4.117 a 5.74,5.74 0 0 0 2.097,-0.4 c 0.009,-0.213 0.015,-0.427 0.015,-0.639 0,-6.273 -4.155,-9.696 -9.28,-9.696 z"/>
	<path fill="#fff" d="m 21.853,26.828 2.697,-2.169 2.705,2.876 -5.956,6.911 -2.494,-6.371 z"/>
	<path fill="#a0c8d7" d="m 0,40.258 1.159,-6.422 a 7.506,7.506 0 0 1 6.16,-6.073 l 10.655,-1.766 10.655,1.766 a 7.508,7.508 0 0 1 6.16,6.073 l 1.159,6.422 z"/>
	<path fill="#c33736" d="m 14.858,32.784 3.116,2.632 3.117,-2.632 v -5.125 h -6.233 z"/>
	<path fill="#c33736" d="m 15.711,40.374 0.84,-6.365 h 2.645 l 0.841,6.365 z"/>
	<path fill="#fff" d="m 14.096,26.828 -2.697,-2.169 -2.705,2.876 5.956,6.911 2.493,-6.371 z"/>
	<path fill="#f4e6c8" d="m 8.694,15.816 c 0,6.273 4.155,13.02 9.28,13.02 5.125,0 9.28,-6.747 9.28,-13.02 0,-6.273 -4.155,-9.696 -9.28,-9.696 -5.125,0 -9.28,3.423 -9.28,9.696 z"/>
	<path fill="#323232" d="m 17.974,6.12 c 5.125,0 9.28,3.423 9.28,9.696 0,0.339 -0.014,0.68 -0.038,1.02 -4.136,-0.184 -7.828,-1.73 -10.425,-4.098 -1.282,2.479 -3.482,4.117 -5.985,4.117 a 5.74,5.74 0 0 1 -2.097,-0.4 15.177,15.177 0 0 1 -0.015,-0.639 c 0,-6.273 4.155,-9.696 9.28,-9.696 z"/>
	<path fill="#e0e0e0" d="M 68.684,49.718 66.996,40.365 A 10.934,10.934 0 0 0 58.025,31.52 L 42.506,28.949 26.987,31.522 a 10.933,10.933 0 0 0 -8.971,8.845 l -1.688,9.353 h 52.356 z"/>
	<path fill="#c33736" d="m 47.045,38.834 -4.539,3.832 -4.539,-3.832 v -7.465 h 9.078 z"/>
	<path fill="#c33736" d="m 45.803,49.888 -1.224,-9.271 h -3.853 l -1.224,9.271 z"/>
	<path fill="#fff" d="M 36.858,30.159 32.93,27 l -3.94,4.189 8.675,10.065 3.631,-9.279 z"/>
	<path fill="#fff" d="M 48.155,30.159 52.083,27 l 3.939,4.189 -8.674,10.065 -3.631,-9.279 z"/>
	<path fill="#f4e6c8" d="m 56.022,14.121 c 0,9.136 -6.051,18.963 -13.516,18.963 C 35.041,33.084 28.99,23.257 28.99,14.121 28.99,4.985 35.042,0 42.506,0 49.97,0 56.022,4.985 56.022,14.121 Z"/>
	<path fill="#323232" d="M 42.506,0 C 35.041,0 28.99,4.985 28.99,14.121 c 0,0.494 0.021,0.99 0.056,1.486 6.023,-0.268 11.401,-2.52 15.184,-5.969 1.867,3.61 5.072,5.996 8.717,5.996 a 8.387,8.387 0 0 0 3.054,-0.582 c 0.014,-0.311 0.022,-0.621 0.022,-0.931 C 56.022,4.985 49.971,0 42.506,0 Z"/>
</svg>