<svg viewBox="0 0 80 71.078003" xmlns="http://www.w3.org/2000/svg">
	<path fill="none" stroke="#323232" stroke-linecap="round" stroke-linejoin="round" stroke-miterlimit="10" stroke-width="3" d="M 22.131,13.613 V 7.072 A 5.572,5.572 0 0 1 27.703,1.5 h 24.595 a 5.572,5.572 0 0 1 5.572,5.572 v 6.541"/>
	<path fill="#66503a" d="M 75.413,71.078 H 4.587 A 3.176,3.176 0 0 1 1.411,67.902 V 18.816 A 3.176,3.176 0 0 1 4.587,15.64 h 70.826 a 3.176,3.176 0 0 1 3.176,3.176 v 49.086 a 3.176,3.176 0 0 1 -3.176,3.176 z"/>
	<path fill="#4a3826" d="M 45.167,46.19 C 63.287,45.498 80,41.178 80,33.231 V 16.905 A 3.292,3.292 0 0 0 76.708,13.613 H 3.292 A 3.292,3.292 0 0 0 0,16.905 v 16.326 c 0,7.947 16.624,12.267 34.744,12.959 z"/>
	<path fill="#f4e6c8" d="m 42.385,56.43 h -4.77 A 2.439,2.439 0 0 1 35.176,53.991 V 37.394 a 2.439,2.439 0 0 1 2.439,-2.439 h 4.77 a 2.439,2.439 0 0 1 2.439,2.439 v 16.597 a 2.439,2.439 0 0 1 -2.439,2.439 z"/>
</svg>