<svg viewBox="0 0 82.135132 83.850502" xmlns="http://www.w3.org/2000/svg">
	<g fill="#c33736">
		<path d="M 8.74,56.896 32.304,32.124 a 4.017,4.017 0 0 1 5.361,-0.415 l 0.343,0.267 15.724,12.224 -5.944,0.371 32.555,-32.555 a 4.5000276,4.5000276 0 0 1 6.364,6.364 L 54.153,50.936 a 4.502,4.502 0 0 1 -5.944,0.371 L 32.484,39.082 38.188,38.934 10.26,58.655 A 1.168,1.168 0 0 1 8.74,56.896 Z" transform="translate(-8.4186137 -8.1715)"/>
		<path d="m 90.5,15.199 -2.667,19.918 a 3.363,3.363 0 0 1 -6.667,0 L 78.5,15.199 a 6.052,6.052 0 0 1 5.197,-6.803 6.052,6.052 0 0 1 6.803,6.803 z" transform="translate(-8.4186137 -8.1715)"/>
		<path d="M 83.526,20.225 63.608,17.558 a 3.363,3.363 0 0 1 0,-6.667 L 83.526,8.224 a 6.053,6.053 0 1 1 0,12.001 z" transform="translate(-8.4186137 -8.1715)"/>
	</g>
	<path fill="#323232" d="M 22.833386,83.8505 H 8.3293863 a 2.989,2.989 0 0 1 -2.989,-2.989 v -23.128 a 2.989,2.989 0 0 1 2.989,-2.989 H 22.832386 a 2.989,2.989 0 0 1 2.989,2.989 v 23.129 a 2.988,2.988 0 0 1 -2.988,2.988 z"/>
	<path fill="#323232" d="m 48.833386,83.8505 h -14.504 a 2.989,2.989 0 0 1 -2.989,-2.989 v -16.007 a 2.989,2.989 0 0 1 2.989,-2.989 h 14.503 a 2.989,2.989 0 0 1 2.989,2.989 v 16.007 a 2.989,2.989 0 0 1 -2.988,2.989 z"/>
	<path fill="#323232" d="m 74.833386,83.8505 h -14.504 a 2.989,2.989 0 0 1 -2.989,-2.989 v -31.798 a 2.989,2.989 0 0 1 2.989,-2.989 h 14.503 a 2.989,2.989 0 0 1 2.989,2.989 v 31.799 a 2.988,2.988 0 0 1 -2.988,2.988 z"/>
</svg>