<svg xml:space="preserve" viewBox="0 0 80 80" xmlns="http://www.w3.org/2000/svg">
	<path fill="#77a4bd" d="M 40,0 A 40,40 0 1 0 40,80 40,40 0 1 0 40,0 Z"/>
	<path fill="#f8eaec" stroke="#fff" d="m 1.7,51.6 v 0 l 0.1,0.2 v 0 z"/>
	<path fill="#f5e6c8" d="m 71,49.2 c -0.3,-1 -1,-1.1 -1.8,-0.4 v -0.7 c -0.4,0.2 -0.7,0.2 -1,0 0.3,-0.3 0.4,-0.7 0.3,-1.1 -0.7,0 -0.9,-0.5 -0.7,-1.5 l -0.2,0.1 C 67,44.8 64.8,44.8 63.9,44.7 63.7,44 63.2,43.7 62.6,43.8 62.3,43.3 61.9,43 61.3,42.8 l 0.5,-0.3 c -0.5,0.1 -0.9,0.2 -1.4,0.3 -0.4,0.1 -1.8,0.4 -2.3,0.4 -0.1,-0.4 -0.4,-0.6 -0.9,-0.5 l -0.3,-0.5 c -0.2,0.2 -0.3,0.3 -0.1,0.6 -0.5,0.5 -0.8,1 -0.8,1.7 -0.2,-0.2 -0.6,-1.9 -0.3,-1.6 l 0.4,-0.1 c -0.1,-1.4 -0.4,0.3 -1.8,0.4 -0.1,0.5 -0.4,1 -0.9,1.4 -0.3,0.1 -0.6,0.3 -0.7,0.6 -0.5,-0.2 -1,-0.3 -1.5,-0.4 v -0.1 c -0.5,0.2 -1.4,0.4 -1.8,0.5 -0.1,0.1 -0.2,0.1 -0.3,0 -0.8,-0.7 -1.7,-2.9 -0.8,-4.1 -0.2,-0.2 -2.8,-1.1 -3.3,-0.3 -0.1,0 -0.2,-0.1 -0.3,-0.1 l -0.1,0.1 -0.2,-0.1 c 0.3,-0.5 0.5,-1.1 0.5,-1.7 h -0.1 v -0.1 c 0.1,-0.1 0.2,0 0.3,0.2 0.4,-0.4 0.4,-0.7 0.1,-1 0.1,-0.3 0.2,-0.6 0.3,-0.8 0.6,-0.2 1.2,-0.5 1.1,-0.5 L 46.2,37 c 1.3,-0.1 2.4,0.3 3.3,1.1 l -0.4,0.4 0.9,-0.2 c 0.4,-0.1 0.8,-0.1 1.2,-0.2 0,0.2 0.1,0.3 0.3,0.4 -0.3,0.2 -0.8,0.3 -1.3,0.1 0,0.4 0.2,0.5 0.6,0.2 0.8,-0.1 1,-0.2 1.3,0.3 0,-0.3 0.1,-0.5 0.4,-0.6 0.3,0 0.8,-0.2 1.2,0 C 54,38.1 53.9,38 53.3,38 v -0.2 c -0.4,-0.1 -1.1,-0.2 -1.5,-0.1 -0.5,-0.2 -0.8,-0.2 -0.9,0 -0.2,0 -0.3,0 -0.6,0.1 -1.4,-0.8 -4,-2 -5.6,-0.6 -2.9,1.2 -6.7,3.4 -6.1,-2.3 0.3,-3 2.3,-4.3 5.1,-3.4 -0.2,-0.1 -0.3,-0.3 -0.3,-0.6 2.6,-0.9 2,0.8 3.3,-0.1 0.1,0.1 2.1,3.7 2.6,3.2 -0.4,-1.9 -1,-3.5 -0.4,-5.4 0.4,-1.2 1.7,-1.2 1.7,-2.7 -0.1,-0.3 -0.4,-0.6 -0.7,-0.8 l 0.4,0.1 c -0.2,-0.2 -0.2,-0.4 -0.2,-0.7 0,0.4 0.2,0.6 0.5,0.7 l -0.1,0.5 h 0.1 c 0.4,-0.6 0.3,-1.1 -0.1,-1.5 0.2,0 0.3,0.1 0.4,0.3 0.2,-0.3 0.3,-0.6 0.2,-1 H 50.9 L 51,23.3 v 0.1 c 0.3,0 0.7,-0.1 0.9,-0.3 C 51.6,23 51.3,23 51,23.2 c 0.5,-0.3 1.1,-0.5 1.7,-0.7 0,-0.2 0,-0.3 -0.2,-0.3 l 0.1,0.2 C 52,21.7 52.2,20.9 53.4,20.3 l -0.2,-0.2 c 0.4,-0.1 0.7,-0.2 1.1,-0.3 -0.3,0.6 -0.8,0.4 -0.3,1.1 1,0.1 1.7,-0.6 2.1,-1.9 -0.3,-0.1 -0.5,-0.2 -0.6,-0.6 -0.2,0.2 -0.3,0.3 -0.4,0.5 -0.4,0.2 -0.7,0.1 -1,-0.2 v 0.1 c -0.2,-0.2 -0.4,-0.6 -0.5,-1.1 -1.1,-0.1 -1.9,0.5 -2.4,1.6 1.1,-2.7 2.2,-2.1 3.5,-3.1 -0.3,0.7 -0.2,1.2 0.4,1.4 -0.3,0.9 0.6,0.2 1.6,0.2 l -0.1,0.3 C 56.9,18 57,17.8 57,17.5 c 0.2,0.2 0.3,0.8 0.8,0.5 -0.2,-0.4 -0.5,-0.8 -0.7,-1.1 L 57,17.2 c 0,-0.4 -0.2,-0.6 -0.6,-0.5 l -0.1,0.2 -0.4,-0.1 v -0.2 l -0.3,-0.1 -0.1,0.2 c 0,-0.3 -0.1,-0.6 -0.1,-0.9 0.1,-0.1 0.2,-0.3 0.4,-0.4 -0.9,-1 -4.5,-3 -5.5,-3.6 0.2,0.5 0,0.9 -0.3,1.2 -1,-1.2 -2.6,-2 -4.3,-1.6 0.4,1 0.9,1 0.5,1.8 1.3,0.7 1.4,1.4 0.2,2.2 1,0.9 1.2,1.5 0.5,1.9 -0.9,-0.4 -1.4,-1.2 -1.5,-2.1 -2,-0.4 -3.6,-0.7 -4.9,-1.9 0,-0.9 0.7,-1.8 1.2,-2.3 0.4,-0.1 0.7,-0.3 0.9,-0.6 0,0.2 -0.1,0.4 -0.3,0.6 0.3,-0.2 0.5,-0.1 0.6,0.2 0.2,-0.1 0.5,-0.3 0.6,-0.5 0.2,0.2 0.3,0.3 0.4,0.3 0.2,0.1 0.5,0 0.6,-0.3 H 44 c -0.3,-0.4 -0.7,-0.6 -1.2,-0.5 v -0.1 c 0.1,-0.2 0.1,-0.3 0.2,-0.5 1.1,0.1 1.4,-0.2 0.8,-0.8 0.1,-0.2 0.1,-0.4 0,-0.5 0.1,-0.1 0.3,-0.2 0.3,-0.4 0.3,0.1 0.5,0.2 0.8,0.4 l -0.1,0.1 c 0.5,0 1,0.2 1.4,0.6 C 46,9.3 46,9.6 46.3,9.8 46,9.9 45.6,10 45.2,10 L 45,10.3 c 0.3,0.1 0.7,0.1 1.1,0 L 46,10.2 c 0.4,0.1 0.7,0.2 1.1,0.4 v 0.1 c 0.7,0.3 1.4,0.4 2.1,0.4 -0.4,-0.3 -0.8,-0.5 -1.3,-0.7 0.4,0.1 0.9,0.3 1.4,0.3 C 48.8,10 48.1,9.5 47.4,9.2 47.9,9 48.4,9.1 48.8,9.6 48.9,8.3 48.1,7.9 46.5,8.2 L 46.8,7.9 C 46.7,7.8 44.1,6.8 43.6,6.8 43.5,7 43.4,7.1 43.1,7.1 43.1,6.9 43,6.8 43,6.7 c 0.1,0.1 0.2,0.1 0.2,0.1 0.2,-0.1 0.4,-0.1 0.6,-0.1 -0.3,-0.3 -0.7,-0.4 -1,-0.3 -0.1,0 -0.2,-0.1 -0.2,0 0.1,0 0.1,-0.1 0.2,-0.1 -0.1,0 -0.3,-0.1 -0.4,-0.1 0.1,0 0.2,-0.1 0.1,-0.3 0.2,-0.1 0.3,-0.2 0.2,-0.3 2,-0.1 3.7,1.1 5.6,1.6 h -0.6 c 0.5,0.7 0.9,0.8 1,0.2 0.4,0.2 0.6,0.4 0.3,0.7 1.5,1.6 3.6,2.9 5.8,2.8 C 54,10.2 53.3,9.4 52.8,8.4 53.3,7.9 53.2,7.4 52.5,6.9 52.9,6.5 52.8,6.1 52.2,5.6 52.1,5.7 51.9,5.7 51.8,5.8 51.6,5.6 51.4,5.4 51.1,5.4 c 0.3,0 0.5,0.1 0.8,0.1 V 5.3 C 51.4,5.2 50.9,5 50.5,4.9 h 0.4 C 50.7,4.8 50.4,4.7 50.1,4.7 50.3,4.5 50.1,4.3 49.6,4.4 L 49.7,4.3 C 49.5,4.3 49.2,4.2 49.1,4.1 48.7,4 48.3,3.9 48,3.8 V 3.7 C 47.2,2.9 46.4,2.7 45.8,3.2 45.8,2.8 45.4,2.6 44.7,2.8 L 45,3.1 C 44.8,3 44.6,2.9 44.4,2.9 L 44.5,3 C 44.2,3.1 44.2,3.1 44,3.1 44.1,3 44.2,2.9 44.2,2.8 43.8,2.6 43.3,2.7 42.9,3 l 0.2,0.1 -0.2,0.1 c 0.2,0.3 0.4,0.4 0.8,0.4 -0.3,0 -0.5,0 -0.8,-0.1 L 43,3.7 c -0.3,-0.1 -0.5,0 -0.7,0.2 L 42.5,4 c -0.1,0 -0.1,0.1 -0.1,0.1 -0.4,0 -0.7,0.1 -1,0.2 v 0.2 c -0.3,-0.2 -0.5,-0.1 -0.8,0.2 0,0.1 0.1,0.2 0.2,0.2 0.3,0.2 0.6,0.3 1,0.2 -0.1,0.2 -0.3,0.2 -0.6,0.1 0,0 0,0.1 0.1,0.1 C 41,5 40.7,4.9 40.3,4.9 V 5 C 40,5.1 40,5.3 40.1,5.4 39.9,5.3 39.8,5.4 39.6,5.5 h -0.2 l -0.1,0.3 h 0.3 V 6 c 0.1,0 0.2,0 0.2,0.1 0.1,0 0.1,0.1 0.2,0.1 0.1,0.1 0.2,0.2 0.3,0.2 C 40.1,6.5 40,6.7 40,7 39.7,6.9 39.5,7 39.3,7.2 l 0.2,0.3 -0.4,-0.1 v 0.1 c 0.2,0.1 0.5,0.3 0.6,0.5 h 0.2 c -0.1,0.1 -0.2,0.2 -0.4,0.3 0.2,0.2 0.4,0.2 0.6,0.3 0.1,0.1 0.1,0.2 0.1,0.3 C 40,8.8 39.8,8.9 39.8,9.2 39.7,8.6 39.5,8.6 39.2,9 38.7,9 38.3,8.9 37.9,8.9 38.1,8.8 38.3,8.6 38.4,8.4 L 38.3,8.2 C 38.6,8.3 38.7,8.2 38.8,8 38.2,7.9 38,7.7 38.1,7.3 38.1,6.9 38,6.6 37.5,6.7 37.6,7 37.5,7.1 37.3,7.3 37.3,6.7 37.2,6.6 36.8,6.9 36.7,6.6 36.4,6.6 36.1,6.8 L 36.3,6.6 C 36.2,6.5 36.1,6.5 36,6.5 h 0.1 C 35.8,6.1 35.3,5.9 34.7,6 c 0,0.5 -0.3,0.8 -1,0.8 0.2,0.1 0.3,0.3 0.2,0.5 0.5,0 0.8,-0.2 1.2,-0.4 l -0.3,0.3 c 0.2,0.1 0.4,0.2 0.6,0.2 H 35 v 0.2 c 0.4,0 0.8,0.1 1.2,0.2 H 35 l 0.1,0.4 c 0.4,-0.1 0.5,0 0.5,0.3 l 0.6,0.3 C 35.8,8.9 35.3,8.9 34.9,8.7 L 35.4,8.5 C 35,8 34.5,7.7 33.8,7.6 33.7,7.7 33.5,7.8 33.3,7.7 L 33.5,7.4 33,7.7 C 33.1,7.5 33,7.3 32.9,7.2 32.8,7.3 32.6,7.4 32.5,7.4 V 7.2 C 30.9,7.2 30,7.2 29.1,6 L 29.2,5.9 C 29.1,5.8 29,5.8 28.9,5.8 29.1,5.7 29.1,5.6 29,5.5 27.3,5.1 26.5,5.7 25.4,6.9 L 25,6.7 25.3,6.5 C 24.4,6.2 23.8,6.6 24.1,7.2 v 0.1 c 0.2,-0.1 0.3,-0.1 0.5,0 -0.3,0.1 -0.8,0.3 -0.9,0.3 L 23.3,7.7 V 7.6 c -0.8,0.1 -1.6,0.6 -2,1.3 h 0.3 c -0.2,0.2 -0.4,0.4 -0.7,0.6 0.1,0.1 0.3,0.1 0.5,0 l -0.2,0.2 0.2,-0.1 -0.2,0.3 0.3,-0.1 v 0.1 h 0.4 c -1.1,0.6 -2.4,1 -3.6,1.2 2.2,0.2 4,-1 6,-1.6 -0.2,0.5 -0.7,0.7 -1.3,0.8 0.9,-0.1 1.2,-0.1 1.8,-0.4 0,1.4 3.4,2.5 1.8,4.4 0.2,0.3 0.2,0.6 0,0.9 l 0.3,0.3 c -0.4,0.4 -0.4,0.7 -0.2,1 -0.1,-0.1 -0.3,-0.1 -0.5,-0.2 -0.3,0.3 0.2,0.9 0.5,1.1 0.1,0.4 0.4,0.6 0.8,0.5 0,-0.4 -0.1,-0.6 -0.2,-0.9 0.5,0.4 1,0.9 0.3,1.8 0.1,-0.5 -0.1,-0.7 -0.5,-0.9 -1.3,4.5 -1.8,5.6 -0.1,9.4 0.7,1.6 1.6,3.3 1.1,4.4 0.2,0.3 0.5,0.6 0.7,0.8 l 0.1,-0.1 c 0.6,0.3 0.8,0.8 0.6,1.5 0.2,0.9 0.6,1.4 1.3,1.4 0.4,-0.3 -2.3,-5.4 -1.5,-4 -0.1,-0.8 -0.3,-1.6 -0.5,-2.4 1.5,0.7 1.1,3.2 2.7,3.9 l -0.1,0.4 c 1.2,0.9 2,2.3 2.2,3.8 l -0.2,0.1 c 2.4,3.2 8.2,5.1 11.9,5 0.2,0 0.3,0.1 0.3,0.3 v 0.1 l -0.1,-0.1 -0.1,0.1 c 0.5,0.4 0.9,0.8 1.4,1.2 l -0.2,0.1 0.2,0.1 c -0.1,0.4 0,0.7 0.4,0.8 0.1,-0.1 0.2,-0.2 0.1,-0.4 0.2,0 0.2,0.1 0.2,0.3 0.3,0.4 0.8,0.8 1.2,1 v -0.2 c 0.8,0 0.7,0.3 1.2,0.2 L 50,46 c 0.2,0 0.4,-0.1 0.6,-0.3 -0.4,-0.9 0.2,-1 1.2,-0.6 l -0.2,0.2 c 0.4,0.4 1.1,1.9 0.7,2.7 l 0.2,0.1 c -0.1,0.2 -1.1,1.2 -1,1.5 l -0.2,0.1 0.1,0.2 c -0.7,0.5 -1.1,1 -1.4,1.7 0.1,0.3 0.1,0.6 0,0.8 l 0.4,0.3 0.3,-0.3 c -0.5,0.7 -0.9,1.8 -0.9,2.6 1.4,1 2.5,3 2.9,4.5 0.7,0.9 1.7,1.5 2.9,1.7 2.2,3.5 -3,9.5 -5,12.5 0.3,-0.2 0.6,-0.3 0.9,-0.4 -0.6,0.6 -1.2,1.2 -2.1,1.6 H 50 c -1.1,0.3 -1.5,0.7 -1.1,1.2 -0.2,0 -0.3,0.2 -0.2,0.3 0.9,0.2 1.8,0.1 2.6,-0.3 L 51.2,76 c 0.7,-0.5 1.6,-1.1 2.4,-1.5 -0.2,0.1 -0.4,0 -0.6,-0.2 1.9,-0.1 2.8,-0.7 2.7,-1.8 -0.2,0.2 -0.4,0.2 -0.5,0.1 1.4,-1.6 3.7,-1.4 5.1,-3 l -0.4,0.4 0.2,-0.3 -0.4,-0.3 0.2,-0.2 C 67,69.1 73.5,56.4 74.6,50.3 74.9,48.2 71.9,48.8 71,49.2 Z M 42.6,5.5 h 0.3 c -0.1,0 -0.1,0.1 -0.2,0.1 z M 40,7.3 c 0.1,0 0,0 0,0 z M 42.2,6.7 C 42.1,6.8 42.1,6.9 42,6.9 41.9,6.8 41.8,6.8 41.8,6.7 c 0.2,0.1 0.3,0.1 0.4,0 z M 41.3,5.5 c 0,0 0.1,0 0,0 l 0.1,0.1 c -0.1,0 -0.2,0.1 -0.3,0.2 0.2,0 0.4,0.1 0.5,0.3 C 41.5,6 41.3,6 41.1,6 l 0.1,0.2 c -0.1,0 -0.3,0 -0.4,-0.1 V 6 C 40.7,5.9 40.6,5.9 40.6,5.8 40.8,5.9 41.1,5.7 41.3,5.5 Z m -1.2,0.1 c 0,-0.1 0,-0.1 0,0 0,-0.1 0,-0.1 0,0 z m 0.2,0.1 c 0,-0.1 0,-0.1 -0.1,-0.1 h 0.2 c 0,0.1 0,0.2 0.1,0.2 C 40.4,5.7 40.3,5.7 40.3,5.7 Z m -0.2,1.6 c 0.1,0 0.1,-0.1 0,0 h 0.2 l 0.5,-0.5 c 0.2,0.1 0.4,0.1 0.6,0.1 h 0.2 C 41,7.5 41,7.7 41.6,7.6 l -0.2,0.2 c 0.4,0.3 0.8,0.5 1.1,0.6 0.1,0.3 0,0.7 -0.3,0.9 C 42,8.9 41.9,8.8 41.6,8.4 L 41.3,8.7 41.2,8.3 40.7,8.2 C 41.2,7.8 41,7.5 40.1,7.3 Z M 36.5,9.1 36.4,8.9 c 0.1,0 0.2,0.1 0.3,0.1 z"/>
</svg>