<svg viewBox="0 0 365 365" xmlns="http://www.w3.org/2000/svg">
	<g transform="translate(-67.5 -67.5)">
		<path d="m67.5 67.5h365v365h-365z" fill="#00c8ff"/>
		<path d="m83.599998 83.599998h332.89999v332.89999h-332.89999z" fill="#001d26"/>
		<g fill="#00c8ff">
			<path d="m156.2 155.7c0-1.3.2-1.8 1.3-1.8 8.2-.3 24.4-.5 40.8-.5 42.3 0 58.5 24.6 58.7 53.8 0 39.9-29.8 55.1-61.5 55.1-6 0-11.9 0-13.4 0v57c0 1.5-.4 2-1.5 2h-22.9c-1.1 0-1.5-.5-1.5-1.8zm25.9 82.2c1.7.3 5 .5 14 .5 17.1 0 33.5-4.9 33.5-30 0-20.1-11-30.4-31.3-30.4-8.4 0-14.5.3-16.2.5z"/>
			<path d="m310.9 219.1c-10.4 0-13.2 6.5-13.2 11.3 0 6 2.8 9.3 18.7 16.8 21.9 10.5 31.2 19.8 31.2 37.9 0 25.1-16.3 39.4-39.7 39.4-11.2 0-25.4-1.1-34.4-7.6-.8-.5-1.3-1.3-1.3-2.5v-23.1c0-1.3.8-1.8 1.5-1.3 11 8.3 23.3 10.6 34.4 10.6 9.8 0 13.2-6.5 13.2-12 0-6.5-2.4-10.3-17.6-17.6-21.9-10.5-31-19.6-31-37.9 0-20.3 15.3-37.1 40.3-37.1 12.9 0 22.1.3 28 4.4 1.1 1 1.3 1.8 1.3 3.3v20.6c0 1.5-.8 2.3-1.9 1.5-7.6-5.1-18.4-6.7-29.5-6.7z"/>
		</g>
	</g>
</svg>