<svg viewBox="0 0 365 365" xmlns="http://www.w3.org/2000/svg">
	<g transform="translate(-67.5 -67.5)">
		<path d="m67.5 67.5h365v365h-365z" fill="#ff7c00"/>
		<path d="m83.599998 83.599998h332.89999v332.89999h-332.89999z" fill="#261300"/>
		<g fill="#ff7c00">
			<path d="m193.6 275.3-13.1 43.7c-.2 1.5-.9 2-2.2 2h-22c-1.5 0-1.9-.8-1.5-2.5 11.7-38.4 31.3-102.5 45.1-145.9.6-2.5 1.3-5 1.7-13.8 0-1 .6-1.5 1.3-1.5h29.8c1.1 0 1.3.3 1.7 1.3 16 51.5 33.5 108.2 49.9 160.2.4 1.5 0 2.3-1.3 2.3h-24.2c-1.1 0-1.5-.5-1.9-1.5l-13.8-44.2h-49.5zm43.7-24.6c-4.3-16.8-14.9-50.7-19.2-68.3h-.2c-3.2 16.6-12.1 44.9-18.6 68.3z"/>
			<path d="m306.2 166.7c0-9.3 6.2-15.6 14.4-15.6 8.7 0 14 6.3 14 15.6 0 9.5-5.7 15.6-14.2 15.6-8.4 0-14.2-6-14.2-15.6zm1.5 34.2c0-1.5.4-2 1.5-2h22.5c1.3 0 1.7.3 1.7 2v118c0 1.3-.4 2-1.7 2h-22.1c-1.3 0-1.9-.5-1.9-2.3z"/>
		</g>
	</g>
</svg>