<svg viewBox="0 0 95 87.4" xmlns="http://www.w3.org/2000/svg">
	<linearGradient id="a" gradientTransform="matrix(15.07371789 20.04568676 20.04568676 -15.07371789 5230.616733 -1775.174046)" gradientUnits="userSpaceOnUse" x1="-68.187" x2="-66.843" y1="-208.399" y2="-208.399">
		<stop offset="0" stop-color="#00b8af"/>
		<stop offset=".419" stop-color="#00b5ad"/>
		<stop offset=".688" stop-color="#00ada7"/>
		<stop offset=".913" stop-color="#009e9c"/>
		<stop offset="1" stop-color="#009696"/>
	</linearGradient>
	<linearGradient id="b" gradientTransform="matrix(32.706 8.3475 8.3475 -32.706 4003.281 -6177.565)" gradientUnits="userSpaceOnUse" x1="-67.797" x2="-66.452" y1="-207.685" y2="-207.685">
		<stop offset="0" stop-color="#006e69"/>
		<stop offset="1" stop-color="#005454"/>
	</linearGradient>
	<linearGradient id="c" gradientTransform="matrix(10.7786624 -22.14071051 -22.14071051 -10.7786624 -3796.03588 -3658.449358)" gradientUnits="userSpaceOnUse" x1="-67.708" x2="-66.363" y1="-206.121" y2="-206.121">
		<stop offset="0" stop-color="#007575"/>
		<stop offset="1" stop-color="#00807a"/>
	</linearGradient>
	<linearGradient id="d" gradientTransform="matrix(27.42195052 28.94320901 28.94320901 -27.42195052 7932.69074 -3725.391207)" gradientUnits="userSpaceOnUse" x1="-67.459" x2="-66.115" y1="-207.815" y2="-207.815">
		<stop offset="0" stop-color="#00c7c7"/>
		<stop offset="1" stop-color="#00b5b5"/>
	</linearGradient>
	<path d="m13.1 87.4-13.1-14.6 24-72.8 23.7 24.2 24.1-24.2 23.2 71.9-14.8 14.3-11.8-18.8-20.9-4.2-22.1 4z" fill="#0ae5e5"/>
	<path d="m0 72.8 43.6-44.2 4.1-4.4 24.1-24.2-46.4 67.2z" fill="#009d9b"/>
	<path d="m24 0 19.6 28.6 4.1-4.4z" fill="url(#a)"/>
	<path d="m58.5 35.3 36.5 36.6-26.6-4.5-20.9-4.2z" fill="url(#b)"/>
	<path d="m52 28.6 6.5 6.7-11 27.9-22.1 4z" fill="url(#c)"/>
	<path d="m95 71.9-36.5-36.6-6.5-6.7 19.8-28.6z" fill="url(#d)"/>
	<path d="m80.2 86.2 14.8-14.3-26.6-4.5z" fill="#00abaa"/>
	<path d="m58.5 35.3 13.3-35.3-19.8 28.6z" fill="#00d0d0"/>
</svg>