<svg viewBox="0 0 44 43.992001" xmlns="http://www.w3.org/2000/svg">
	<g fill="#212121" transform="translate(-2.000099 -1.999891)">
		<path d="m44.265 20.931-16.76-17.429c-2.08-2.003-5.498-2.003-7.423 0l-16.174 16.825c-6.131 6.227 4.157 5.727 7.813 8.086 1.686 1.116-4.968 2.559-3.52 4.031 1.411 1.481 8.076 2.815 9.487 4.25 1.411 1.472-2.826 3.039-1.406 4.511 1.375 1.472 4.423.07 5.019 3.417.431 2.478 5.779 1.233 8.29-.879 1.567-1.353-2.74-1.352-1.329-2.833 1.265-1.298 2.474-1.875 3.574-2.231 1.97-.649 4.22-.504 5.054-2.662.706-1.792-5.266-3.194-3.654-4.346 3.848-2.751 17.554-4.12 11.029-10.74zm-18.548 11.973c-2.126.732-11.867-3.948-9.31-3.948.44.001 14.854 2.065 9.31 3.948z"/>
		<path d="m38.667 37.98c-1.847 1.904.321 3.899 2.128 2.584.483-.363-.039-2.131-2.128-2.584z"/>
		<path d="m40.021 36.134c0 .899 6.313 1.412 5.965-.214-.503-2.739-5.267-2.525-5.965.214z"/>
		<path d="m9.552 41.421c1.477 1.555 3.711-.34 4.43-2.527-1.437-2.284-6.745.146-4.43 2.527z"/>
	</g>
	<path d="m24.769901 3.5901093-4.48 7.5899997-7.94 13.46c-1.55-.59-3.2099998-.95-4.7599998-1.23-.6-.19-1.21-.36-1.82-.52-1.14-.31-3.21-.88-3.74-1.37.07-.21.34-.78 1.35-1.81l7.6799998-7.98 8.5-8.8399997c.55-.57 1.33-.89 2.21-.89s1.74.33 2.36.92z" fill="#424242"/>
	<path d="m31.069901 10.130109c-.03.1-.08.18-.13.24l-3.05-2.51-.6 3.69-2.51-1.37-4.09 2.62-.4-1.62-.95-3.89-2.18 4.79-5.45-.04c-.34 0-.55-.12-.65-.31l8.5-8.8399997c.55-.57 1.33-.89 2.21-.89s1.74.33 2.36.92l.64.67z" fill="#fafafa"/>
</svg>