<svg viewBox="0 0 96.867922 96.740666" xmlns="http://www.w3.org/2000/svg">
	<path d="m43.527572 200.26118c-4.275809-.024-8.755256.20085-11.32954.65888-9.867807 1.75571-15.981445 4.99929-21.895304 11.61686-7.8409902 8.77402-11.6694404 23.19312-9.86038036 37.13675.57135996 4.40382 1.18519996 6.65575 2.75177006 10.09551.72795 1.59836 1.3234334 2.94897 1.3234334 3.00137s-.5376593.34792-1.1947591.6568c-1.46445.68837-2.2744318 1.77278-2.44326174 3.27061-.17781 1.57753.29916784 2.80994 1.68206784 4.34805 2.19045 2.4363 5.613078 3.57715 7.6088379 2.53628.41681-.21738.982467-.39481 1.257287-.39481.274831 0 2.675212 1.93477 5.334042 4.29948 6.538791 5.81547 7.29914 6.43556 10.544058 8.60516 3.406068 2.27736 4.474172 3.48637 5.549016 6.27765l.305924.79375 1.020609-2.18281c.561385-1.20055 1.077124-2.18281 1.146183-2.18281.67405 0 3.104256 3.78493 3.990972 6.21615.398296 1.09206.754801 1.98593.7922 1.98593.0374 0 .570084-1.36922 1.183907-3.04271s1.224799-3.04271 1.35754-3.04271c.132744 0 .8914.62957 1.6862 1.3994.963912.93362 1.504617 1.69554 1.623158 2.28823.167476.83738.199202.85994.555006.38654.207658-.27629.793335-1.3209 1.301729-2.3213.517202-1.01774 1.023662-1.71699 1.1498-1.5875.33434.3432 1.586984 3.78777 1.586984 4.36407 0 .81341.481909.56882 1.041797-.52865.287975-.56447 1.302731-2.31113 2.254641-3.8809s1.738498-3.04271 1.747697-3.27318c.04235-1.05823.553472 1.09098.694532 2.92023l.15658 2.03347 1.031978-1.54512c1.208458-1.80969 3.325784-4.22404 3.704167-4.22404.155718 0 .22711.64933.174149 1.5875-.0493.87339-.03038 1.58804.04237 1.5875.07276-.00053.461256-.52236.863513-1.1591.929354-1.47109 3.877479-4.50311 4.86482-5.00331.414625-.21006 1.509331-.46438 2.432409-.56534.923076-.10095 1.952586-.28755 2.287715-.41496.586007-.2228.604454-.1897.485243.8754l-.124023 1.10794.614431-.69298c.337936-.3809 1.387398-1.61245 2.332159-2.7373 1.246936-1.48463 2.225942-2.34013 3.571875-3.12126 2.666778-1.54771 4.670348-3.14804 6.124173-4.89117.698246-.83719 1.296-1.56466 1.328602-1.61696.03261-.0523.442103.17723.909506.51005.825208.5876.915458.59565 3.12384.27647 2.945579-.42573 4.308909-1.03975 5.155239-2.32183 2.565048-3.88574 1.716545-8.57604-1.674315-9.25421-.426638-.0853-.840758-.32489-.920358-.53227-.07958-.20739.266671-2.42668.769461-4.93148 1.969963-9.814 2.535603-18.95607 1.470713-23.77116-1.14159-5.16198-5.965137-12.57808-11.196217-17.21497-8.45072-7.49082-18.242113-11.78294-31.679202-13.88649-2.086996-.32671-5.289346-.49599-8.614979-.5147zm13.717511 53.10787c2.739088-.0207 4.260344.37737 5.374349 1.35548 2.227979 1.95619 2.29286 7.73008.120403 10.72906-1.224698 1.69065-2.713934 2.41615-5.611542 2.73523-1.359718.14973-2.750156.45223-3.089735.67179-1.011698.65415-1.437455 2.07993-1.569414 5.25291-.09638 2.31756-.235979 3.1177-.684193 3.92845-1.051531 1.90201-3.30145 2.37468-4.690671.98547-.735047-.73505-.788337-.74849-1.04593-.26717-.333113.62243-1.604796 1.30668-2.425692 1.30535-.334648-.00054-.97496-.22485-1.42317-.49817-1.305338-.79599-1.696783-1.96329-1.709973-5.09736-.01185-2.8176-.277958-4.85287-.687813-5.26273-.128318-.12832-1.274337-.35152-2.546615-.49609-3.915616-.44492-5.754735-1.80264-7.097241-5.23896-.836745-2.14178-.879041-5.82806-.08475-7.35045 1.118222-2.14323 3.453394-2.94163 7.914246-2.70527 3.968096.21026 4.507581.51323 6.799585 3.81993 2.024626 2.92095 2.379644 2.88709 4.710305-.45372 2.059742-2.95248 2.545194-3.20524 6.497278-3.37964.44337-.0196.859271-.0312 1.250572-.0341zm-1.83193 6.89984c-1.587635.0136-2.513928.55905-3.407029 1.88206-.806323 1.19446-.868606 1.39113-.463537 1.47071.257191.0505.785648.39143 1.174088.75706 1.242296 1.16933 3.07381 1.29514 4.486548.30851.382243-.26696.901324-.93403 1.153419-1.4826.25209-.54857.611238-1.31852.798399-1.71049.386106-.80861.348681-.8254-2.529044-1.15239-.444471-.0505-.846468-.076-1.212844-.0729zm-16.203147.51005c-.540374-.0164-1.247775.0784-2.545064.2713-1.805795.26858-1.970032.34109-1.64796.7276.196747.23612.573588.92845.837673 1.53893 1.105647 2.55589 3.437814 3.3589 5.497341 1.89239.405096-.28845.736388-.63541.736388-.77102s.238125-.24649.529167-.24649c.659596 0 .664138.0429-.14056-1.39681-.490575-.87775-.952735-1.31139-1.725478-1.62058-.628123-.25132-1.00113-.37894-1.541507-.39532z" fill="#f04" stroke-width=".264583" transform="translate(0 -200.25932)"/>
</svg>