<svg viewBox="0 0 195.60001 188.293" xmlns="http://www.w3.org/2000/svg">
	<g fill="#e21f2e" transform="matrix(.13333333 0 0 -.13333333 -243.53333 435.47966)">
		<path d="m2452.97 3263.61c49.45 11.68 99-18.94 110.67-68.39 11.68-49.45-18.94-99-68.39-110.67-49.45-11.68-99 18.95-110.67 68.39-11.68 49.45 18.94 99 68.39 110.67"/>
		<path d="m3148.5 2143.9c80.08 0 145-64.92 145-145s-64.92-145-145-145-145 64.92-145 145 64.92 145 145 145"/>
		<path d="m1890.5 2062.9c35.35 0 64-28.65 64-64s-28.65-64-64-64-64 28.65-64 64 28.65 64 64 64"/>
		<path d="m2094 2641.4 378.5 218.5 378.5-218.5v-197.55l-174.31 55.88v40.9l-204.19 117.73-149.41-86.8 527.91-168.61v-197.55l-378.5-218.51-378.5 218.51v197.55l175.3-54.88v-40.9l204.2-117.74 152.39 87.81-531.89 167.61zm379.5 343.5c-310 0-561-251-561-561s251-561 561-561 561 251 561 561-251 561-561 561"/>
	</g>
</svg>