<svg viewBox="0 0 232 191.067" xmlns="http://www.w3.org/2000/svg">
	<path d="m2179.5 2626 378.5 218.5 378.5-218.5v-197.55l-174.31 55.87v40.91l-204.19 117.74-149.41-86.81 527.91-168.61v-197.55l-378.5-218.5-378.5 218.5v197.55l175.31-54.88v-40.9l204.18-117.73 152.4 87.79-531.89 167.62zm1211.5-185.49h-271v448.99c0 43-35 78-78 78h-449v271c0 21-15 38-34 38s-34-17-34-38v-271h-450c-43 0-78-35-78-78v-450h-269c-21 0-38-15-38-33.99 0-19.01 17-34.01 38-34.01h269v-450c0-43 35-78 78-78h968c43 0 78 35 78 78v450h271c21 0 38 15 38 34.01 0 18.99-18 35-39 35" fill="#f04a33" transform="matrix(.13333333 0 0 -.13333333 -225.33333 436.86699)"/>
</svg>