<svg viewBox="0 0 63.602001 35.125002" xmlns="http://www.w3.org/2000/svg">
	<g fill="#a554f4" stroke="#a554f4" stroke-width=".5" transform="translate(-.199219 -1072.9574)">
		<path d="m.69921875 1107.5822v-2.9532l2.81250005-.539 7.5703122-9.3282-7.4062497-9.0234-2.5078126-.5391v-2.9765h9.9375003v2.9765l-2.5312502.2813 5.2031252 6.4687 5.0625-6.4921-2.71875-.2579v-2.9765h9.773437v2.9765l-2.578125.5391-6.867187 8.9531 7.898437 9.3985 2.625.539v2.9532h-10.757812v-2.9532l3.046875-.2578-5.554688-6.7734-5.3906247 6.7734 2.7421877.2578v2.9532z"/>
		<path d="m29.878906 1107.5822v-2.9532l3.820313-.6562v-26.8828l-3.820313-.6563v-2.9765h8.484375l16.734375 26.6015.140625-.047v-22.9217l-4.195312-.6563v-2.9765h12.257812v2.9765l-3.820312.6563v30.4922h-4.21875l-17.179688-26.7422-.140625.047v23.086l4.195313.6562v2.9532z"/>
	</g>
</svg>