<svg viewBox="0 0 104.425 91.454002" xmlns="http://www.w3.org/2000/svg" xmlns:xlink="http://www.w3.org/1999/xlink">
	<linearGradient id="a" gradientUnits="userSpaceOnUse" x1="123.2833" x2="136.3322" y1="207.6071" y2="219.6145">
		<stop offset="0" stop-color="#424242"/>
		<stop offset=".5714" stop-color="#0d0d0d"/>
		<stop offset="1" stop-color="#262626"/>
	</linearGradient>
	<linearGradient id="b" gradientUnits="userSpaceOnUse">
		<stop offset="0" stop-color="#404040"/>
		<stop offset="1" stop-color="#121212"/>
	</linearGradient>
	<radialGradient id="c" cx="119.6048" cy="259.5343" r="44.894199" xlink:href="#b"/>
	<radialGradient id="d" cx="165.7825" cy="288.4122" r="83.030098">
		<stop offset="0" stop-color="#0f0f0f"/>
		<stop offset="1" stop-color="#1a1a1a"/>
	</radialGradient>
	<radialGradient id="e" cx="127.6222" cy="253.0377" r="28.996">
		<stop offset=".2562" stop-color="#404040"/>
		<stop offset=".3737" stop-color="#303030"/>
		<stop offset=".5578" stop-color="#1f1f1f"/>
		<stop offset=".7577" stop-color="#151515"/>
		<stop offset="1" stop-color="#121212"/>
	</radialGradient>
	<linearGradient id="f" gradientUnits="userSpaceOnUse" x1="81.433296" x2="91.594803" y1="246.34109" y2="234.25481">
		<stop offset="0" stop-color="#292929"/>
		<stop offset=".7545" stop-color="#7a7a7a"/>
		<stop offset=".9878" stop-color="#404040"/>
	</linearGradient>
	<linearGradient id="g" gradientUnits="userSpaceOnUse" x1="115.5549" x2="146.0482" y1="224.1882" y2="235.53951">
		<stop offset="0" stop-color="#7a7a7a"/>
		<stop offset=".04081428" stop-color="#747474"/>
		<stop offset=".3306" stop-color="#4d4d4d"/>
		<stop offset=".5967" stop-color="#313131"/>
		<stop offset=".8285" stop-color="#202020"/>
		<stop offset="1" stop-color="#1a1a1a"/>
	</linearGradient>
	<linearGradient id="h" gradientUnits="userSpaceOnUse" x1="157.68739" x2="171.4077" y1="278.98761" y2="291.35449">
		<stop offset="0" stop-color="#1a1a1a"/>
		<stop offset=".4167" stop-color="#1b1b1b"/>
		<stop offset=".5807" stop-color="#222"/>
		<stop offset=".7002" stop-color="#2f2f2f"/>
		<stop offset=".7973" stop-color="#404040"/>
		<stop offset=".867" stop-color="#525252"/>
	</linearGradient>
	<linearGradient id="i" gradientUnits="userSpaceOnUse" x1="124.6835" x2="128.32111" y1="206.7211" y2="210.4554">
		<stop offset="0" stop-color="#d1d1d1"/>
		<stop offset="1" stop-color="#787878"/>
	</linearGradient>
	<linearGradient id="j" gradientUnits="userSpaceOnUse" x1="69.446198" x2="73.9328" y1="288.83441" y2="280.68539">
		<stop offset="0" stop-color="#1a1a1a"/>
		<stop offset=".2824" stop-color="#1e1e1e"/>
		<stop offset=".6009" stop-color="#2c2c2c"/>
		<stop offset=".9358" stop-color="#424242"/>
		<stop offset="1" stop-color="#474747"/>
	</linearGradient>
	<radialGradient id="k" cx="121.6537" cy="247.4209" r="12.5738">
		<stop offset="0" stop-color="#424242"/>
		<stop offset=".06695044" stop-color="#3d3d3d"/>
		<stop offset=".41" stop-color="#252525"/>
		<stop offset=".7294" stop-color="#171717"/>
		<stop offset="1" stop-color="#121212"/>
	</radialGradient>
	<radialGradient id="l" cx="90.682899" cy="281.63351" r="12.0597" xlink:href="#b"/>
	<radialGradient id="m" cx="120.4472" cy="252.2515" r="30.7204">
		<stop offset="0" stop-color="#969696"/>
		<stop offset=".2547" stop-color="#787878"/>
		<stop offset=".5501" stop-color="#5c5c5c"/>
		<stop offset=".8087" stop-color="#4b4b4b"/>
		<stop offset="1" stop-color="#454545"/>
	</radialGradient>
	<g clip-rule="evenodd" fill-rule="evenodd" transform="translate(-67.383202 -204.23997)">
		<path d="m122.4 208.5c-1.4 2.2-1.9 4.2-1.5 6.3.4 1.9 1.4 3.4 3.2 4.5 1.7 1.1 4.4 1.4 8.1 1.1 4.7-.3 7.1-1.3 7.1-2.9.3-2.7-.8-5.6-3.1-8.7-2.5-3.3-5.2-4.9-8-4.5-2.3.2-4.2 1.6-5.8 4.2z" fill="url(#a)"/>
		<path d="m169.5 287.6c-1.3-2.6-2.9-5.3-4.8-7.9-2.1-2.9-4.4-5.6-6.8-8-2.3-2.3-4.7-4.3-7.2-6.1-5.3-3.7-11.8-6.8-19.6-9.3-2.9-.9-5.7-1.4-8.4-1.5l-3.8.1.1-.5 5.6-6.7c.1-.1.2-.3.3-.4 2.4-2.7 4.5-4.9 6.5-6.4 4.3 2.4 8.4 3 12.1 1.9 3-.9 6.1-3 9.5-6.4 3.2-3.2 4.5-5.7 4-7.5-1-2.9-3.3-4.4-7.1-4.3-1.7 0-4 .9-6.7 2.4-2.1 1.2-3.7 2.3-4.6 3.2-8.2-3.7-14.1-5.9-17.7-6.5-13.4-2.4-25 1.9-34.8 12.8-5.3 6-7.8 9.5-7.2 10.5.8 1.3 3.1.3 3.1.3.7-.2 1.6-.5 2.6-.8 5.7-2 8.5-3.5 8.3-4.4l.2-3.1c.2-2.5 1.9-4.9 5-7 5.3-3.6 10.4-4.2 15.4-2 1.6.7 3.8 2.1 6.6 4 3.3 2.3 5.7 3.8 7.2 4.7.1.2.1.3-.1.4-2.9 2.4-5.7 5.2-8.5 8.1-1.3 1.3-2.5 2.8-3.7 4.2l-3 4.2c-3.2.7-7.3 2.1-12.3 4.2-7.6 3.6-13.6 7.1-18.1 10.4-.5.4-1 .7-1.5 1.1-5.6 4.5-9.8 9.5-12.2 14.9-.4.8-1.1 2.8.4 3.6 2.4 1.3 8.5.6 15.7-2.9 5.3-2.6 10.7-6.4 16.3-11.4 1.4-1.3 2.8-2.7 4.2-4.2 1.7-1.9 3.5-3.8 5.3-6l7-.4c5.8.1 11.8.8 18.2 2 6.1 1.2 10.8 2.6 14 4.3 1.4.8 2.5 1.6 3.3 2.4 1.7 1.7 2.3 3.4 1.9 5.1l-.7 1.9c-.2.7-.3 1.2-.1 1.6.6 1.7 2.7 4 6.4 6.9 3.3 2.6 6.2 4.5 8.9 5.8 1.6.7 2.5.8 2.7.2.7-1.2 0-3.8-1.9-7.5zm-24.4-57.4c1.8-.9 3.5-1.4 5-1.7 1.8-.3 3.1-.1 3.8.5.6.5.6 1.1.1 1.7-1.1 1.2-3.1 1.8-6.1 1.9-2.6.1-4.3-.1-5-.7-.3-.3.4-.8 2.2-1.7zm-51.1 46c-9.5 8.7-28.9 17.6-16.4 1.7 6.8-8.7 25.9-11.6 25.9-11.6s-1 2-9.5 9.9z" fill="url(#c)"/>
		<path d="m169.5 287.6c-1.3-2.6-2.9-5.3-4.8-7.9-2.1-2.9-4.4-5.6-6.8-8-2.3-2.3-4.7-4.3-7.2-6.1-5.3-3.7-11.8-6.8-19.6-9.3-2.9-.9-5.7-1.4-8.4-1.5l-3.8.1-6.8.9c-3.2.7-7.3 2.1-12.3 4.2-3.2 1.5-6.2 3-8.8 4.5l-2 5.7c7.2-2.9 14.6-4.1 14.6-4.1l6.5-.6 7-.4c5.8.1 11.8.8 18.2 2 6.1 1.2 10.8 2.6 14 4.3 1.4.8 2.5 1.6 3.3 2.4 1.7 1.7 2.3 3.4 1.9 5.1l-.7 1.9c-.2.7-.3 1.2-.1 1.6.6 1.7 2.7 4 6.4 6.9 3.3 2.6 6.2 4.5 8.9 5.8 1.6.7 2.5.8 2.7.2.4-1.4-.3-4-2.2-7.7z" fill="url(#d)" opacity=".52"/>
		<path d="m131.2 241.1c4.3 2.4 8.4 3 12.1 1.9 3-.9 6.1-3 9.5-6.4 3.2-3.2 4.5-5.7 4-7.5-1-2.9-3.3-4.4-7.1-4.3-1.7 0-4 .9-6.7 2.4-2.1 1.2-3.7 2.3-4.6 3.2-8.2-3.7-14.1-5.9-17.7-6.5-13.4-2.4-25 1.9-34.8 12.8-5.3 6-7.8 9.5-7.2 10.5.8 1.3 3.1.3 3.1.3.7-.2 1.6-.5 2.6-.8 5.7-2 8.5-3.5 8.3-4.4l.2-3.1c.2-2.5 1.9-4.9 5-7 5.3-3.6 10.4-4.2 15.4-2 1.6.7 3.8 2.1 6.6 4 3.3 2.3 5.7 3.8 7.2 4.7.4.2 4.1 2.2 4.1 2.2zm13.9-10.9c1.8-.9 3.5-1.4 5-1.7 1.8-.3 3.1-.1 3.8.5.6.5.6 1.1.1 1.7-1.1 1.2-3.1 1.8-6.1 1.9-2.6.1-4.3-.1-5-.7-.3-.3.4-.8 2.2-1.7z" fill="url(#e)" opacity=".58"/>
		<path d="m91.3 232.4c.4.3-2 3.1-2 4s.2 4.6-.8 5.4-3.2 2.7-5.1 3.5c-1.8.8-6.8 3-2.3-2.6 5.5-6.7 9.3-10.9 10.2-10.3z" fill="url(#f)" opacity=".87"/>
		<path d="m113.9 223.4c-.3 0 8.4 3.5 14.8 7.8 5.2 3.4 17.7 4.8 17.3 3.3-22.8-12-29.1-10.8-32.1-11.1z" fill="url(#g)"/>
		<path d="m159.2 275.6s4.1 5.5 4.1 6.6-.1 7.1 1.2 8.1c1.2 1 5.3 4.4 5.8 2.8.7-2.2-10.2-19.2-11.1-17.5z" fill="url(#h)"/>
		<path d="m132.5 207.2s-1.1-.3-2.1.4c-1 .6-5.1 4.6-6 5-.9.5-2.4 1.4-2.1-1s4-7.7 8-6.5c3.2.9 2.2 2.1 2.2 2.1z" fill="url(#i)"/>
		<path d="m72.9 279.9s-1.3 3.2-1.6 4.8c-.3 2.1 1.1 1.8 1.3 2.5s-1.1 2.7-2.9 2.8-3.3-.9 0-6.1c2.2-3.7 3.2-4.5 3.2-4z" fill="url(#j)"/>
		<path d="m132.5 207.2s-1.1-.3-2.1.4c-1 .6-5.1 4.6-6 5-.9.5-2.4 1.4-2.1-1s4-7.7 8-6.5c3.2.9 2.2 2.1 2.2 2.1z" fill="url(#i)"/>
		<path d="m118.8 255 .1-.5 5.6-6.7c.1-.1.2-.3.3-.4 2.4-2.7 4.5-4.9 6.5-6.4 1.4.8-4.4-2.5-3.8-2.2.1.2.1.3-.1.4-2.9 2.4-5.7 5.2-8.5 8.1-1.3 1.3-2.5 2.8-3.7 4.2l-3 4.2c-1.6.5 6.6-.7 6.6-.7z" fill="url(#k)"/>
		<path d="m103.5 266.3s-1 2.1-9.5 9.9c-5.5 5.1-14.3 10.2-18.3 10.5-.2 1.3-.2 2.5.1 3.6 2.5-.5 5.3-1.5 8.4-3 5.3-2.6 10.7-6.4 16.3-11.4 1.4-1.3 2.8-2.7 4.2-4.2 1.7-1.9 3.5-3.8 5.3-6z" fill="url(#l)"/>
		<path d="m100.7 262.2s11.1-1.8 20-1.7 20.5 3 21.1 2.8-7.9-7.6-21.1-7.3c-13.1.3-22.6 5.9-20 6.2z" fill="url(#m)"/>
	</g>
</svg>